<?xml version="1.0" encoding="UTF-8" standalone="no"?>
<!-- Created with Inkscape (http://www.inkscape.org/) -->

<svg
   xmlns:dc="http://purl.org/dc/elements/1.1/"
   xmlns:cc="http://creativecommons.org/ns#"
   xmlns:rdf="http://www.w3.org/1999/02/22-rdf-syntax-ns#"
   xmlns:svg="http://www.w3.org/2000/svg"
   xmlns="http://www.w3.org/2000/svg"
   xmlns:sodipodi="http://sodipodi.sourceforge.net/DTD/sodipodi-0.dtd"
   xmlns:inkscape="http://www.inkscape.org/namespaces/inkscape"
   width="210mm"
   height="297mm"
   viewBox="0 0 744.09448819 1052.3622047"
   id="svg2"
   version="1.1"
   inkscape:version="0.91 r13725"
   sodipodi:docname="pedal.svg">
  <defs
     id="defs4" />
  <sodipodi:namedview
     id="base"
     pagecolor="#ffffff"
     bordercolor="#666666"
     borderopacity="1.0"
     inkscape:pageopacity="0.0"
     inkscape:pageshadow="2"
     inkscape:zoom="2.2958722"
     inkscape:cx="368.14128"
     inkscape:cy="496.70551"
     inkscape:document-units="px"
     inkscape:current-layer="layer1"
     showgrid="false"
     inkscape:object-paths="false"
     showguides="true"
     inkscape:snap-nodes="false"
     inkscape:snap-others="false"
     inkscape:snap-global="true"
     inkscape:window-width="959"
     inkscape:window-height="1022"
     inkscape:window-x="960"
     inkscape:window-y="0"
     inkscape:window-maximized="0" />
  <metadata
     id="metadata7">
    <rdf:RDF>
      <cc:Work
         rdf:about="">
        <dc:format>image/svg+xml</dc:format>
        <dc:type
           rdf:resource="http://purl.org/dc/dcmitype/StillImage" />
        <dc:title></dc:title>
      </cc:Work>
    </rdf:RDF>
  </metadata>
  <g
     inkscape:label="Layer 1"
     inkscape:groupmode="layer"
     id="layer1">
    <path
       style="fill:#000000;fill-opacity:1;fill-rule:evenodd;stroke:#000000;stroke-width:1px;stroke-linecap:butt;stroke-linejoin:miter;stroke-opacity:1"
       d="m 217.88586,491.57477 29.63441,-0.87676 c 1.64402,-1.51998 0.82754,-3.86827 0.34919,-4.19144 l -1.18563,-0.81668 c -3.11064,0.49913 -2.38326,-0.97708 -2.6692,-2.07748 0.0435,-15.00765 4.14547,-17.54765 8.38701,-26.60745 1.2027,-2.32058 1.29123,-4.42005 -0.12294,-6.40562 -1.41194,-1.98179 -2.67017,-2.19066 -3.63247,-3.91192 -0.90095,-1.63931 0.26905,-4.36353 1.74919,-4.72043 0.40186,-0.10739 0.84089,-0.19992 1.42275,-0.23531 0.75362,-0.10846 2.04335,-0.005 2.96126,-0.61604 l 1.58059,-1.58664 c 0.67353,-1.84208 0.23501,-2.73891 -0.72265,-2.85371 -1.36021,-0.1967 -1.5114,-0.0827 -1.97834,-0.46918 -0.80443,-1.70776 -1.44364,-3.87678 -5.24065,-4.89887 l -2.22326,-0.22094 c -1.34917,-0.44751 -1.22562,-1.90308 -1.07903,-2.81892 0.11805,-0.73753 0.55065,-1.57444 1.26453,-2.78812 0.10397,-0.17677 0.18361,-0.75939 -0.27226,-0.32687 -0.28121,0.26595 0.20784,-0.0753 0.0181,0.004 -3.68857,1.54379 -3.58307,5.49568 -4.80255,6.32745 -1.54688,1.13809 -2.87037,3.40711 -3.15234,5.96784 0.32507,4.64285 -0.56728,6.98616 -4.07929,8.77192 -2.75659,2.03432 -4.06424,3.10688 -5.43246,5.51059 -2.39427,2.96315 -6.45909,10.50629 -7.25828,15.40891 -1.17139,7.18588 -1.45628,10.68126 -1.0919,16.12455 0.2669,1.7519 -0.87366,3.65743 -2.29475,4.29441 -2.33857,1.29982 -1.79599,0.64688 -6.85074,0.70876 -3.86822,0.0795 -7.07123,1.01294 -9.00025,5.35458 -2.47944,5.28575 -5.39923,16.42504 -2.96212,23.92473 2.06614,5.65941 5.42741,7.70671 10.42434,8.94329 5.02032,0.95349 9.27945,-0.41963 13.40936,-3.56442 0,0 1.66217,-1.09332 2.71807,-3.33489 2.25043,-6.12694 -3.73295,-7.07652 -5.09098,-4.43507 -1.47906,2.50112 -2.56238,4.9317 -7.84814,5.03096 -4.6475,0.0157 -7.75867,-2.47303 -8.92209,-6.16353 -1.53114,-3.44645 -0.46801,-15.19692 2.65609,-19.24226 0,0 1.96822,-2.74718 5.52714,-2.86773 z"
       id="path3420"
       inkscape:connector-curvature="0"
       sodipodi:nodetypes="ccccccccccccccccsscsccccscccccccccccccc" />
    <text
       xml:space="preserve"
       style="font-style:normal;font-weight:normal;font-size:40px;line-height:125%;font-family:sans-serif;letter-spacing:0px;word-spacing:0px;fill:#000000;fill-opacity:1;stroke:none;stroke-width:1px;stroke-linecap:butt;stroke-linejoin:miter;stroke-opacity:1"
       x="282.76126"
       y="580.93231"
       id="text3435"
       sodipodi:linespacing="125%"><tspan
         sodipodi:role="line"
         id="tspan3437"
         x="282.76126"
         y="580.93231"></tspan></text>
    <text
       xml:space="preserve"
       style="font-style:normal;font-variant:normal;font-weight:normal;font-stretch:normal;font-size:40px;line-height:125%;font-family:sans-serif;-inkscape-font-specification:sans-serif;letter-spacing:0px;word-spacing:0px;fill:#000000;fill-opacity:1;stroke:none;stroke-width:1px;stroke-linecap:butt;stroke-linejoin:miter;stroke-opacity:1"
       x="305.28598"
       y="501.28455"
       id="text3431-8"
       sodipodi:linespacing="125%"><tspan
         sodipodi:role="line"
         id="tspan3433-9"
         x="305.28598"
         y="501.28455"
         style="font-style:normal;font-variant:normal;font-weight:normal;font-stretch:normal;font-size:10px;font-family:'Noto Sans Khmer UI';-inkscape-font-specification:'Noto Sans Khmer UI'">protec</tspan></text>
    <rect
       id="rect3475"
       width="159.43732"
       height="267.4404"
       x="285.07654"
       y="417.36194"
       style="fill:none;stroke:#000000;stroke-width:1;stroke-linejoin:miter;stroke-opacity:1;stroke-miterlimit:4;stroke-dasharray:none;opacity:0.288" />
    <path
       sodipodi:type="star"
       style="fill:#000000;stroke:#000000;stroke-linejoin:miter;stroke-opacity:1;fill-opacity:1"
       id="path4283"
       sodipodi:sides="3"
       sodipodi:cx="295.31259"
       sodipodi:cy="532.51617"
       sodipodi:r1="5.565176"
       sodipodi:r2="2.782588"
       sodipodi:arg1="2.1045045"
       sodipodi:arg2="3.1517021"
       inkscape:flatsided="false"
       inkscape:rounded="0"
       inkscape:randomized="0"
       d="m 292.48142,537.30738 0.0487,-4.81934 0.0487,-4.81933 4.14931,2.45186 4.1493,2.45186 -4.19803,2.36748 z"
       inkscape:transform-center-x="1.3023548"
       inkscape:transform-center-y="-0.028217653"
       transform="matrix(-0.95280724,0,0,1.0036618,716.49572,11.334881)" />
    <path
       sodipodi:type="star"
       style="fill:#000000;fill-opacity:1;stroke:#000000;stroke-linejoin:miter;stroke-opacity:1"
       id="path4283-6"
       sodipodi:sides="3"
       sodipodi:cx="295.31259"
       sodipodi:cy="532.51617"
       sodipodi:r1="5.565176"
       sodipodi:r2="2.782588"
       sodipodi:arg1="2.1045045"
       sodipodi:arg2="3.1517021"
       inkscape:flatsided="false"
       inkscape:rounded="0"
       inkscape:randomized="0"
       d="m 292.48142,537.30738 0.0487,-4.81934 0.0487,-4.81933 4.14931,2.45186 4.1493,2.45186 -4.19803,2.36748 z"
       inkscape:transform-center-x="1.3023548"
       inkscape:transform-center-y="-0.028217653"
       transform="matrix(-0.95280724,0,0,1.0036618,577.57161,10.932506)" />
    <ellipse
       style="fill:none;stroke:#000000;stroke-width:1;stroke-linejoin:miter;stroke-opacity:1;stroke-miterlimit:4;stroke-dasharray:none;opacity:0.27"
       id="path4319"
       cx="323.34271"
       cy="463.26782"
       rx="25.123194"
       ry="24.661209" />
    <ellipse
       style="fill:none;stroke:#000000;stroke-linejoin:miter;stroke-opacity:1;opacity:0.27"
       id="path4351"
       cx="366.70779"
       cy="651.28857"
       rx="11.542455"
       ry="12.413583"
       inkscape:transform-center-x="-2.1778216"
       inkscape:transform-center-y="-0.43556432" />
    <circle
       style="fill:none;stroke:#000000;stroke-linejoin:miter;stroke-opacity:1;opacity:0.314"
       id="path4353"
       cx="366.43716"
       cy="438.64301"
       r="9.1468506" />
    <text
       xml:space="preserve"
       style="font-style:normal;font-variant:normal;font-weight:normal;font-stretch:normal;font-size:40px;line-height:125%;font-family:sans-serif;-inkscape-font-specification:sans-serif;letter-spacing:0px;word-spacing:0px;fill:#000000;fill-opacity:1;stroke:none;stroke-width:1px;stroke-linecap:butt;stroke-linejoin:miter;stroke-opacity:1"
       x="394.87848"
       y="501.87146"
       id="text3431-8-7"
       sodipodi:linespacing="125%"><tspan
         sodipodi:role="line"
         x="394.87848"
         y="501.87146"
         style="font-style:normal;font-variant:normal;font-weight:normal;font-stretch:normal;font-size:10px;font-family:'Noto Sans Khmer UI';-inkscape-font-specification:'Noto Sans Khmer UI'"
         id="tspan4439">attac</tspan></text>
    <ellipse
       style="fill:none;fill-opacity:1;stroke:#000000;stroke-width:1;stroke-linecap:round;stroke-linejoin:miter;stroke-miterlimit:4;stroke-dasharray:none;stroke-opacity:1"
       id="path4451"
       cx="365.91455"
       cy="537.9917"
       rx="42.502686"
       ry="40.808739" />
    <ellipse
       style="fill:none;stroke:#000000;stroke-width:1;stroke-linejoin:miter;stroke-opacity:1;stroke-miterlimit:4;stroke-dasharray:none;opacity:0.299"
       id="path4319-0"
       cx="407.77939"
       cy="465.02435"
       rx="25.123194"
       ry="24.661209" />
    <path
       style="opacity:1;fill:#000000;fill-rule:evenodd;stroke:#000000;stroke-width:1.02144384px;stroke-linecap:butt;stroke-linejoin:miter;stroke-opacity:1;fill-opacity:1"
       d="m 372.92776,590.45061 5.33241,0 c 0.49414,0.0285 0.86832,0.1519 1.18498,-0.40732 0.43145,-1.57319 -0.27742,-2.49758 -1.05802,-2.48934 l -2.6662,0.362 c -1.23748,-6.94568 1.00656,-13.83632 1.48123,-20.45781 0.56628,-1.21024 -0.0354,-0.54687 7.44844,-12.85415 1.41007,-6.48924 0.76194,-8.08314 0.3809,-8.96158 -0.42756,-0.8326 -0.70945,-1.45509 -1.09736,-1.90752 -2.308,-2.69227 -3.18963,-7.24536 -3.85418,-12.12338 -0.29558,-1.35252 -0.66684,-1.86643 0.38089,-3.21356 0.34646,-0.77915 1.62077,-0.99042 2.32764,-2.39882 0.5332,-1.17126 0.53296,-2.5803 0.0847,-4.43553 l -1.31195,-2.85145 -4.99384,-0.0908 -2.70853,-0.27159 c -1.01936,0.45275 -1.87783,0.76785 -3.42798,1.67471 -0.7398,0.0697 -1.46995,0.15581 -2.53924,-0.36211 -3.107,-1.94048 -4.16345,-2.33766 -4.23209,-1.9915 l -0.46552,0.18106 c -0.61708,0.38228 0.4054,3.74542 0.80409,5.97449 l 0.84642,3.43972 c -0.0293,2.63459 -0.0863,6.44498 -0.67713,8.3281 -0.77232,2.43652 -1.88025,4.44239 -3.21638,6.15544 -2.83016,1.48435 -5.31277,1.15911 -9.56449,4.66189 -9.60793,8.57908 -11.44135,25.00109 -11.4266,35.71078 -0.15108,1.07577 -0.58887,1.93689 -1.86212,2.17245 l -12.51699,0.96134 c -5.74952,1.46815 -9.50498,5.47994 -11.37933,9.4557 -1.42725,3.0274 -3.17399,6.57056 -2.33737,12.14218 0.87028,5.79575 2.43066,11.89789 8.88744,17.3331 3.49714,2.94383 10.79692,4.75327 17.09763,7.63509 6.80742,3.11359 19.24113,-8.25965 20.19797,-12.56715 5.98412,-8.01267 -3.38727,-20.24195 -8.45936,-8.06851 -1.29404,5.80521 -5.26203,8.92438 -9.43876,11.27036 -4.88855,-0.024 -8.61262,1.05431 -14.59923,-3.91098 -3.67144,-2.39868 -5.57433,-6.87943 -6.92899,-10.43649 -0.53101,-2.1944 -0.85435,-4.70032 -0.23515,-8.62003 1.68812,-5.71666 5.85296,-8.9566 9.63601,-8.87604 6.41226,-0.11047 26.5564,-0.009 41.60509,-0.11781 0.67384,-0.19035 0.61281,-0.77366 0.63481,-1.31249 0.13388,-0.82595 -0.31187,-1.34196 -0.84641,-1.81044 -1.94015,-1.01957 -1.01488,-0.88986 -1.35427,-1.26739 -0.26165,-2.1698 0.86709,-4.88742 1.31195,-6.51755 0.49821,2.08678 0.52545,5.3446 1.65051,8.10173 0.35394,1.70354 1.32542,2.62191 1.90443,2.76093 z"
       id="path4620"
       inkscape:connector-curvature="0"
       sodipodi:nodetypes="ccccccccscccccccccccccccccccssssccccccccccccccc" />
    <text
       xml:space="preserve"
       style="font-style:normal;font-weight:normal;font-size:40px;line-height:125%;font-family:sans-serif;letter-spacing:0px;word-spacing:0px;fill:#000000;fill-opacity:1;stroke:none;stroke-width:1px;stroke-linecap:butt;stroke-linejoin:miter;stroke-opacity:1"
       x="338.94379"
       y="604.14014"
       id="text5177"
       sodipodi:linespacing="125%"><tspan
         sodipodi:role="line"
         id="tspan5179"
         x="338.94379"
         y="604.14014"
         style="font-size:15px">hi-gain</tspan></text>
  </g>
</svg>
