G75*
%MOIN*%
%OFA0B0*%
%FSLAX25Y25*%
%IPPOS*%
%LPD*%
%AMOC8*
5,1,8,0,0,1.08239X$1,22.5*
%
%ADD10C,0.00000*%
D10*
X0060934Y0217666D02*
X0067233Y0217666D01*
X0067233Y0225934D01*
X0060934Y0225934D01*
X0060934Y0217666D01*
X0096367Y0217666D02*
X0102666Y0217666D01*
X0102666Y0225934D01*
X0096367Y0225934D01*
X0096367Y0217666D01*
X0180934Y0217666D02*
X0187233Y0217666D01*
X0187233Y0225934D01*
X0180934Y0225934D01*
X0180934Y0217666D01*
X0216367Y0217666D02*
X0222666Y0217666D01*
X0222666Y0225934D01*
X0216367Y0225934D01*
X0216367Y0217666D01*
X0300934Y0217666D02*
X0307233Y0217666D01*
X0307233Y0225934D01*
X0300934Y0225934D01*
X0300934Y0217666D01*
X0336367Y0217666D02*
X0342666Y0217666D01*
X0342666Y0225934D01*
X0336367Y0225934D01*
X0336367Y0217666D01*
X0287666Y0342666D02*
X0281367Y0342666D01*
X0281367Y0350934D01*
X0287666Y0350934D01*
X0287666Y0342666D01*
X0252233Y0342666D02*
X0245934Y0342666D01*
X0245934Y0350934D01*
X0252233Y0350934D01*
X0252233Y0342666D01*
X0157666Y0342666D02*
X0151367Y0342666D01*
X0151367Y0350934D01*
X0157666Y0350934D01*
X0157666Y0342666D01*
X0122233Y0342666D02*
X0115934Y0342666D01*
X0115934Y0350934D01*
X0122233Y0350934D01*
X0122233Y0342666D01*
M02*
