%
M48
M72
T01C0.02756
T02C0.03200
T03C0.04000
T04C0.11024
%
T01
X141800Y81800
T02
X161800Y71800
X166800Y79300
X171800Y71800
X187800Y71800
X195800Y71800
X206800Y61800
X186800Y50800
X186800Y42800
X206800Y41800
X226800Y41800
X236800Y61800
X226800Y76800
X206800Y91800
X226800Y106800
X226800Y116800
X206800Y111800
X206800Y126800
X201800Y134300
X196800Y126800
X181800Y121800
X166800Y131800
X171800Y146800
X186800Y146800
X186800Y161800
X216800Y146800
X226800Y146800
X226800Y161800
X151800Y146800
X146800Y131800
X131800Y131800
X116800Y130800
X116800Y122800
X96800Y126800
X96800Y116800
X81800Y126800
X76800Y136800
X84300Y141800
X76800Y146800
X96800Y146800
X111800Y141800
X131800Y157800
X131800Y165800
X111800Y171800
X101800Y166800
X71800Y166800
X56800Y150800
X56800Y142800
X41800Y141800
X26800Y146800
X26800Y126800
X41800Y111800
X40800Y96800
X32800Y96800
X51800Y96800
X66800Y96800
X81800Y96800
X96800Y96800
X91800Y81800
X81800Y66800
X66800Y66800
X56800Y76800
X51800Y84300
X46800Y76800
X51800Y66800
X36800Y55800
X36800Y47800
X51800Y36800
X66800Y36800
X81800Y36800
X96800Y41800
X96800Y61800
X116800Y81800
X116800Y101800
X131800Y101800
X152800Y101800
X160800Y101800
X181800Y91800
X166800Y51800
X151800Y51800
X136800Y51800
X136800Y21800
X151800Y21800
X166800Y21800
X71800Y81800
X30800Y76800
X22800Y76800
X16800Y66800
X16800Y36800
X51800Y126800
X66800Y126800
T03
X61800Y166800
X51800Y166800
X41800Y166800
X151800Y166800
X161800Y166800
X171800Y166800
X181800Y21800
X191800Y21800
X201800Y21800
X61800Y21800
X51800Y21800
X41800Y21800
T04
X21800Y21800
X21800Y166800
X231800Y21800
X236800Y171800
M30
