G75*
%MOIN*%
%OFA0B0*%
%FSLAX25Y25*%
%IPPOS*%
%LPD*%
%AMOC8*
5,1,8,0,0,1.08239X$1,22.5*
%
%ADD10C,0.11824*%
%ADD11OC8,0.06000*%
%ADD12C,0.06000*%
%ADD13C,0.06800*%
%ADD14C,0.06000*%
%ADD15C,0.05156*%
D10*
X0021800Y0021800D03*
X0021800Y0166800D03*
X0231800Y0021800D03*
X0236800Y0171800D03*
D11*
X0226800Y0146800D03*
X0216800Y0146800D03*
X0201800Y0134300D03*
X0196800Y0126800D03*
X0206800Y0126800D03*
X0206800Y0111800D03*
X0226800Y0106800D03*
X0226800Y0116800D03*
X0206800Y0091800D03*
X0226800Y0076800D03*
X0236800Y0061800D03*
X0226800Y0041800D03*
X0206800Y0041800D03*
X0186800Y0050800D03*
X0166800Y0051800D03*
X0151800Y0051800D03*
X0136800Y0051800D03*
X0161800Y0071800D03*
X0166800Y0079300D03*
X0171800Y0071800D03*
X0181800Y0091800D03*
X0195800Y0071800D03*
X0206800Y0061800D03*
X0166800Y0021800D03*
X0151800Y0021800D03*
X0136800Y0021800D03*
X0096800Y0041800D03*
X0081800Y0036800D03*
X0066800Y0036800D03*
X0051800Y0036800D03*
X0036800Y0047800D03*
X0016800Y0036800D03*
X0016800Y0066800D03*
X0022800Y0076800D03*
X0046800Y0076800D03*
X0051800Y0084300D03*
X0056800Y0076800D03*
X0051800Y0066800D03*
X0066800Y0066800D03*
X0081800Y0066800D03*
X0096800Y0061800D03*
X0091800Y0081800D03*
X0096800Y0096800D03*
X0081800Y0096800D03*
X0066800Y0096800D03*
X0051800Y0096800D03*
X0040800Y0096800D03*
X0041800Y0111800D03*
X0051800Y0126800D03*
X0066800Y0126800D03*
X0076800Y0136800D03*
X0084300Y0141800D03*
X0076800Y0146800D03*
X0096800Y0146800D03*
X0111800Y0141800D03*
X0131800Y0131800D03*
X0116800Y0122800D03*
X0096800Y0126800D03*
X0096800Y0116800D03*
X0081800Y0126800D03*
X0056800Y0150800D03*
X0041800Y0141800D03*
X0026800Y0146800D03*
X0026800Y0126800D03*
X0071800Y0166800D03*
X0101800Y0166800D03*
X0111800Y0171800D03*
X0131800Y0157800D03*
X0151800Y0146800D03*
X0146800Y0131800D03*
X0166800Y0131800D03*
X0181800Y0121800D03*
X0152800Y0101800D03*
X0131800Y0101800D03*
X0116800Y0101800D03*
X0116800Y0081800D03*
X0071800Y0081800D03*
X0171800Y0146800D03*
X0186800Y0146800D03*
D12*
X0131800Y0165800D03*
X0116800Y0130800D03*
X0160800Y0101800D03*
X0187800Y0071800D03*
X0186800Y0042800D03*
X0056800Y0142800D03*
X0032800Y0096800D03*
X0030800Y0076800D03*
X0036800Y0055800D03*
D13*
X0041800Y0024800D02*
X0041800Y0018800D01*
X0051800Y0018800D02*
X0051800Y0024800D01*
X0061800Y0024800D02*
X0061800Y0018800D01*
X0181800Y0018800D02*
X0181800Y0024800D01*
X0191800Y0024800D02*
X0191800Y0018800D01*
X0201800Y0018800D02*
X0201800Y0024800D01*
X0171800Y0163800D02*
X0171800Y0169800D01*
X0161800Y0169800D02*
X0161800Y0163800D01*
X0151800Y0163800D02*
X0151800Y0169800D01*
X0061800Y0169800D02*
X0061800Y0163800D01*
X0051800Y0163800D02*
X0051800Y0169800D01*
X0041800Y0169800D02*
X0041800Y0163800D01*
D14*
X0184200Y0161800D02*
X0189400Y0161800D01*
X0224200Y0161800D02*
X0229400Y0161800D01*
D15*
X0141800Y0081800D03*
M02*
