G75*
%MOIN*%
%OFA0B0*%
%FSLAX25Y25*%
%IPPOS*%
%LPD*%
%AMOC8*
5,1,8,0,0,1.08239X$1,22.5*
%
%ADD10C,0.00000*%
%ADD11C,0.01100*%
%ADD12OC8,0.05200*%
%ADD13C,0.05200*%
%ADD14C,0.06000*%
%ADD15C,0.05200*%
%ADD16C,0.02400*%
%ADD17C,0.04356*%
D10*
X0006800Y0006800D02*
X0006800Y0180501D01*
X0246721Y0180501D01*
X0246721Y0006800D01*
X0006800Y0006800D01*
X0016288Y0021800D02*
X0016290Y0021948D01*
X0016296Y0022096D01*
X0016306Y0022244D01*
X0016320Y0022391D01*
X0016338Y0022538D01*
X0016359Y0022684D01*
X0016385Y0022830D01*
X0016415Y0022975D01*
X0016448Y0023119D01*
X0016486Y0023262D01*
X0016527Y0023404D01*
X0016572Y0023545D01*
X0016620Y0023685D01*
X0016673Y0023824D01*
X0016729Y0023961D01*
X0016789Y0024096D01*
X0016852Y0024230D01*
X0016919Y0024362D01*
X0016990Y0024492D01*
X0017064Y0024620D01*
X0017141Y0024746D01*
X0017222Y0024870D01*
X0017306Y0024992D01*
X0017393Y0025111D01*
X0017484Y0025228D01*
X0017578Y0025343D01*
X0017674Y0025455D01*
X0017774Y0025565D01*
X0017876Y0025671D01*
X0017982Y0025775D01*
X0018090Y0025876D01*
X0018201Y0025974D01*
X0018314Y0026070D01*
X0018430Y0026162D01*
X0018548Y0026251D01*
X0018669Y0026336D01*
X0018792Y0026419D01*
X0018917Y0026498D01*
X0019044Y0026574D01*
X0019173Y0026646D01*
X0019304Y0026715D01*
X0019437Y0026780D01*
X0019572Y0026841D01*
X0019708Y0026899D01*
X0019845Y0026954D01*
X0019984Y0027004D01*
X0020125Y0027051D01*
X0020266Y0027094D01*
X0020409Y0027134D01*
X0020553Y0027169D01*
X0020697Y0027201D01*
X0020843Y0027228D01*
X0020989Y0027252D01*
X0021136Y0027272D01*
X0021283Y0027288D01*
X0021430Y0027300D01*
X0021578Y0027308D01*
X0021726Y0027312D01*
X0021874Y0027312D01*
X0022022Y0027308D01*
X0022170Y0027300D01*
X0022317Y0027288D01*
X0022464Y0027272D01*
X0022611Y0027252D01*
X0022757Y0027228D01*
X0022903Y0027201D01*
X0023047Y0027169D01*
X0023191Y0027134D01*
X0023334Y0027094D01*
X0023475Y0027051D01*
X0023616Y0027004D01*
X0023755Y0026954D01*
X0023892Y0026899D01*
X0024028Y0026841D01*
X0024163Y0026780D01*
X0024296Y0026715D01*
X0024427Y0026646D01*
X0024556Y0026574D01*
X0024683Y0026498D01*
X0024808Y0026419D01*
X0024931Y0026336D01*
X0025052Y0026251D01*
X0025170Y0026162D01*
X0025286Y0026070D01*
X0025399Y0025974D01*
X0025510Y0025876D01*
X0025618Y0025775D01*
X0025724Y0025671D01*
X0025826Y0025565D01*
X0025926Y0025455D01*
X0026022Y0025343D01*
X0026116Y0025228D01*
X0026207Y0025111D01*
X0026294Y0024992D01*
X0026378Y0024870D01*
X0026459Y0024746D01*
X0026536Y0024620D01*
X0026610Y0024492D01*
X0026681Y0024362D01*
X0026748Y0024230D01*
X0026811Y0024096D01*
X0026871Y0023961D01*
X0026927Y0023824D01*
X0026980Y0023685D01*
X0027028Y0023545D01*
X0027073Y0023404D01*
X0027114Y0023262D01*
X0027152Y0023119D01*
X0027185Y0022975D01*
X0027215Y0022830D01*
X0027241Y0022684D01*
X0027262Y0022538D01*
X0027280Y0022391D01*
X0027294Y0022244D01*
X0027304Y0022096D01*
X0027310Y0021948D01*
X0027312Y0021800D01*
X0027310Y0021652D01*
X0027304Y0021504D01*
X0027294Y0021356D01*
X0027280Y0021209D01*
X0027262Y0021062D01*
X0027241Y0020916D01*
X0027215Y0020770D01*
X0027185Y0020625D01*
X0027152Y0020481D01*
X0027114Y0020338D01*
X0027073Y0020196D01*
X0027028Y0020055D01*
X0026980Y0019915D01*
X0026927Y0019776D01*
X0026871Y0019639D01*
X0026811Y0019504D01*
X0026748Y0019370D01*
X0026681Y0019238D01*
X0026610Y0019108D01*
X0026536Y0018980D01*
X0026459Y0018854D01*
X0026378Y0018730D01*
X0026294Y0018608D01*
X0026207Y0018489D01*
X0026116Y0018372D01*
X0026022Y0018257D01*
X0025926Y0018145D01*
X0025826Y0018035D01*
X0025724Y0017929D01*
X0025618Y0017825D01*
X0025510Y0017724D01*
X0025399Y0017626D01*
X0025286Y0017530D01*
X0025170Y0017438D01*
X0025052Y0017349D01*
X0024931Y0017264D01*
X0024808Y0017181D01*
X0024683Y0017102D01*
X0024556Y0017026D01*
X0024427Y0016954D01*
X0024296Y0016885D01*
X0024163Y0016820D01*
X0024028Y0016759D01*
X0023892Y0016701D01*
X0023755Y0016646D01*
X0023616Y0016596D01*
X0023475Y0016549D01*
X0023334Y0016506D01*
X0023191Y0016466D01*
X0023047Y0016431D01*
X0022903Y0016399D01*
X0022757Y0016372D01*
X0022611Y0016348D01*
X0022464Y0016328D01*
X0022317Y0016312D01*
X0022170Y0016300D01*
X0022022Y0016292D01*
X0021874Y0016288D01*
X0021726Y0016288D01*
X0021578Y0016292D01*
X0021430Y0016300D01*
X0021283Y0016312D01*
X0021136Y0016328D01*
X0020989Y0016348D01*
X0020843Y0016372D01*
X0020697Y0016399D01*
X0020553Y0016431D01*
X0020409Y0016466D01*
X0020266Y0016506D01*
X0020125Y0016549D01*
X0019984Y0016596D01*
X0019845Y0016646D01*
X0019708Y0016701D01*
X0019572Y0016759D01*
X0019437Y0016820D01*
X0019304Y0016885D01*
X0019173Y0016954D01*
X0019044Y0017026D01*
X0018917Y0017102D01*
X0018792Y0017181D01*
X0018669Y0017264D01*
X0018548Y0017349D01*
X0018430Y0017438D01*
X0018314Y0017530D01*
X0018201Y0017626D01*
X0018090Y0017724D01*
X0017982Y0017825D01*
X0017876Y0017929D01*
X0017774Y0018035D01*
X0017674Y0018145D01*
X0017578Y0018257D01*
X0017484Y0018372D01*
X0017393Y0018489D01*
X0017306Y0018608D01*
X0017222Y0018730D01*
X0017141Y0018854D01*
X0017064Y0018980D01*
X0016990Y0019108D01*
X0016919Y0019238D01*
X0016852Y0019370D01*
X0016789Y0019504D01*
X0016729Y0019639D01*
X0016673Y0019776D01*
X0016620Y0019915D01*
X0016572Y0020055D01*
X0016527Y0020196D01*
X0016486Y0020338D01*
X0016448Y0020481D01*
X0016415Y0020625D01*
X0016385Y0020770D01*
X0016359Y0020916D01*
X0016338Y0021062D01*
X0016320Y0021209D01*
X0016306Y0021356D01*
X0016296Y0021504D01*
X0016290Y0021652D01*
X0016288Y0021800D01*
X0016288Y0166800D02*
X0016290Y0166948D01*
X0016296Y0167096D01*
X0016306Y0167244D01*
X0016320Y0167391D01*
X0016338Y0167538D01*
X0016359Y0167684D01*
X0016385Y0167830D01*
X0016415Y0167975D01*
X0016448Y0168119D01*
X0016486Y0168262D01*
X0016527Y0168404D01*
X0016572Y0168545D01*
X0016620Y0168685D01*
X0016673Y0168824D01*
X0016729Y0168961D01*
X0016789Y0169096D01*
X0016852Y0169230D01*
X0016919Y0169362D01*
X0016990Y0169492D01*
X0017064Y0169620D01*
X0017141Y0169746D01*
X0017222Y0169870D01*
X0017306Y0169992D01*
X0017393Y0170111D01*
X0017484Y0170228D01*
X0017578Y0170343D01*
X0017674Y0170455D01*
X0017774Y0170565D01*
X0017876Y0170671D01*
X0017982Y0170775D01*
X0018090Y0170876D01*
X0018201Y0170974D01*
X0018314Y0171070D01*
X0018430Y0171162D01*
X0018548Y0171251D01*
X0018669Y0171336D01*
X0018792Y0171419D01*
X0018917Y0171498D01*
X0019044Y0171574D01*
X0019173Y0171646D01*
X0019304Y0171715D01*
X0019437Y0171780D01*
X0019572Y0171841D01*
X0019708Y0171899D01*
X0019845Y0171954D01*
X0019984Y0172004D01*
X0020125Y0172051D01*
X0020266Y0172094D01*
X0020409Y0172134D01*
X0020553Y0172169D01*
X0020697Y0172201D01*
X0020843Y0172228D01*
X0020989Y0172252D01*
X0021136Y0172272D01*
X0021283Y0172288D01*
X0021430Y0172300D01*
X0021578Y0172308D01*
X0021726Y0172312D01*
X0021874Y0172312D01*
X0022022Y0172308D01*
X0022170Y0172300D01*
X0022317Y0172288D01*
X0022464Y0172272D01*
X0022611Y0172252D01*
X0022757Y0172228D01*
X0022903Y0172201D01*
X0023047Y0172169D01*
X0023191Y0172134D01*
X0023334Y0172094D01*
X0023475Y0172051D01*
X0023616Y0172004D01*
X0023755Y0171954D01*
X0023892Y0171899D01*
X0024028Y0171841D01*
X0024163Y0171780D01*
X0024296Y0171715D01*
X0024427Y0171646D01*
X0024556Y0171574D01*
X0024683Y0171498D01*
X0024808Y0171419D01*
X0024931Y0171336D01*
X0025052Y0171251D01*
X0025170Y0171162D01*
X0025286Y0171070D01*
X0025399Y0170974D01*
X0025510Y0170876D01*
X0025618Y0170775D01*
X0025724Y0170671D01*
X0025826Y0170565D01*
X0025926Y0170455D01*
X0026022Y0170343D01*
X0026116Y0170228D01*
X0026207Y0170111D01*
X0026294Y0169992D01*
X0026378Y0169870D01*
X0026459Y0169746D01*
X0026536Y0169620D01*
X0026610Y0169492D01*
X0026681Y0169362D01*
X0026748Y0169230D01*
X0026811Y0169096D01*
X0026871Y0168961D01*
X0026927Y0168824D01*
X0026980Y0168685D01*
X0027028Y0168545D01*
X0027073Y0168404D01*
X0027114Y0168262D01*
X0027152Y0168119D01*
X0027185Y0167975D01*
X0027215Y0167830D01*
X0027241Y0167684D01*
X0027262Y0167538D01*
X0027280Y0167391D01*
X0027294Y0167244D01*
X0027304Y0167096D01*
X0027310Y0166948D01*
X0027312Y0166800D01*
X0027310Y0166652D01*
X0027304Y0166504D01*
X0027294Y0166356D01*
X0027280Y0166209D01*
X0027262Y0166062D01*
X0027241Y0165916D01*
X0027215Y0165770D01*
X0027185Y0165625D01*
X0027152Y0165481D01*
X0027114Y0165338D01*
X0027073Y0165196D01*
X0027028Y0165055D01*
X0026980Y0164915D01*
X0026927Y0164776D01*
X0026871Y0164639D01*
X0026811Y0164504D01*
X0026748Y0164370D01*
X0026681Y0164238D01*
X0026610Y0164108D01*
X0026536Y0163980D01*
X0026459Y0163854D01*
X0026378Y0163730D01*
X0026294Y0163608D01*
X0026207Y0163489D01*
X0026116Y0163372D01*
X0026022Y0163257D01*
X0025926Y0163145D01*
X0025826Y0163035D01*
X0025724Y0162929D01*
X0025618Y0162825D01*
X0025510Y0162724D01*
X0025399Y0162626D01*
X0025286Y0162530D01*
X0025170Y0162438D01*
X0025052Y0162349D01*
X0024931Y0162264D01*
X0024808Y0162181D01*
X0024683Y0162102D01*
X0024556Y0162026D01*
X0024427Y0161954D01*
X0024296Y0161885D01*
X0024163Y0161820D01*
X0024028Y0161759D01*
X0023892Y0161701D01*
X0023755Y0161646D01*
X0023616Y0161596D01*
X0023475Y0161549D01*
X0023334Y0161506D01*
X0023191Y0161466D01*
X0023047Y0161431D01*
X0022903Y0161399D01*
X0022757Y0161372D01*
X0022611Y0161348D01*
X0022464Y0161328D01*
X0022317Y0161312D01*
X0022170Y0161300D01*
X0022022Y0161292D01*
X0021874Y0161288D01*
X0021726Y0161288D01*
X0021578Y0161292D01*
X0021430Y0161300D01*
X0021283Y0161312D01*
X0021136Y0161328D01*
X0020989Y0161348D01*
X0020843Y0161372D01*
X0020697Y0161399D01*
X0020553Y0161431D01*
X0020409Y0161466D01*
X0020266Y0161506D01*
X0020125Y0161549D01*
X0019984Y0161596D01*
X0019845Y0161646D01*
X0019708Y0161701D01*
X0019572Y0161759D01*
X0019437Y0161820D01*
X0019304Y0161885D01*
X0019173Y0161954D01*
X0019044Y0162026D01*
X0018917Y0162102D01*
X0018792Y0162181D01*
X0018669Y0162264D01*
X0018548Y0162349D01*
X0018430Y0162438D01*
X0018314Y0162530D01*
X0018201Y0162626D01*
X0018090Y0162724D01*
X0017982Y0162825D01*
X0017876Y0162929D01*
X0017774Y0163035D01*
X0017674Y0163145D01*
X0017578Y0163257D01*
X0017484Y0163372D01*
X0017393Y0163489D01*
X0017306Y0163608D01*
X0017222Y0163730D01*
X0017141Y0163854D01*
X0017064Y0163980D01*
X0016990Y0164108D01*
X0016919Y0164238D01*
X0016852Y0164370D01*
X0016789Y0164504D01*
X0016729Y0164639D01*
X0016673Y0164776D01*
X0016620Y0164915D01*
X0016572Y0165055D01*
X0016527Y0165196D01*
X0016486Y0165338D01*
X0016448Y0165481D01*
X0016415Y0165625D01*
X0016385Y0165770D01*
X0016359Y0165916D01*
X0016338Y0166062D01*
X0016320Y0166209D01*
X0016306Y0166356D01*
X0016296Y0166504D01*
X0016290Y0166652D01*
X0016288Y0166800D01*
X0226288Y0021800D02*
X0226290Y0021948D01*
X0226296Y0022096D01*
X0226306Y0022244D01*
X0226320Y0022391D01*
X0226338Y0022538D01*
X0226359Y0022684D01*
X0226385Y0022830D01*
X0226415Y0022975D01*
X0226448Y0023119D01*
X0226486Y0023262D01*
X0226527Y0023404D01*
X0226572Y0023545D01*
X0226620Y0023685D01*
X0226673Y0023824D01*
X0226729Y0023961D01*
X0226789Y0024096D01*
X0226852Y0024230D01*
X0226919Y0024362D01*
X0226990Y0024492D01*
X0227064Y0024620D01*
X0227141Y0024746D01*
X0227222Y0024870D01*
X0227306Y0024992D01*
X0227393Y0025111D01*
X0227484Y0025228D01*
X0227578Y0025343D01*
X0227674Y0025455D01*
X0227774Y0025565D01*
X0227876Y0025671D01*
X0227982Y0025775D01*
X0228090Y0025876D01*
X0228201Y0025974D01*
X0228314Y0026070D01*
X0228430Y0026162D01*
X0228548Y0026251D01*
X0228669Y0026336D01*
X0228792Y0026419D01*
X0228917Y0026498D01*
X0229044Y0026574D01*
X0229173Y0026646D01*
X0229304Y0026715D01*
X0229437Y0026780D01*
X0229572Y0026841D01*
X0229708Y0026899D01*
X0229845Y0026954D01*
X0229984Y0027004D01*
X0230125Y0027051D01*
X0230266Y0027094D01*
X0230409Y0027134D01*
X0230553Y0027169D01*
X0230697Y0027201D01*
X0230843Y0027228D01*
X0230989Y0027252D01*
X0231136Y0027272D01*
X0231283Y0027288D01*
X0231430Y0027300D01*
X0231578Y0027308D01*
X0231726Y0027312D01*
X0231874Y0027312D01*
X0232022Y0027308D01*
X0232170Y0027300D01*
X0232317Y0027288D01*
X0232464Y0027272D01*
X0232611Y0027252D01*
X0232757Y0027228D01*
X0232903Y0027201D01*
X0233047Y0027169D01*
X0233191Y0027134D01*
X0233334Y0027094D01*
X0233475Y0027051D01*
X0233616Y0027004D01*
X0233755Y0026954D01*
X0233892Y0026899D01*
X0234028Y0026841D01*
X0234163Y0026780D01*
X0234296Y0026715D01*
X0234427Y0026646D01*
X0234556Y0026574D01*
X0234683Y0026498D01*
X0234808Y0026419D01*
X0234931Y0026336D01*
X0235052Y0026251D01*
X0235170Y0026162D01*
X0235286Y0026070D01*
X0235399Y0025974D01*
X0235510Y0025876D01*
X0235618Y0025775D01*
X0235724Y0025671D01*
X0235826Y0025565D01*
X0235926Y0025455D01*
X0236022Y0025343D01*
X0236116Y0025228D01*
X0236207Y0025111D01*
X0236294Y0024992D01*
X0236378Y0024870D01*
X0236459Y0024746D01*
X0236536Y0024620D01*
X0236610Y0024492D01*
X0236681Y0024362D01*
X0236748Y0024230D01*
X0236811Y0024096D01*
X0236871Y0023961D01*
X0236927Y0023824D01*
X0236980Y0023685D01*
X0237028Y0023545D01*
X0237073Y0023404D01*
X0237114Y0023262D01*
X0237152Y0023119D01*
X0237185Y0022975D01*
X0237215Y0022830D01*
X0237241Y0022684D01*
X0237262Y0022538D01*
X0237280Y0022391D01*
X0237294Y0022244D01*
X0237304Y0022096D01*
X0237310Y0021948D01*
X0237312Y0021800D01*
X0237310Y0021652D01*
X0237304Y0021504D01*
X0237294Y0021356D01*
X0237280Y0021209D01*
X0237262Y0021062D01*
X0237241Y0020916D01*
X0237215Y0020770D01*
X0237185Y0020625D01*
X0237152Y0020481D01*
X0237114Y0020338D01*
X0237073Y0020196D01*
X0237028Y0020055D01*
X0236980Y0019915D01*
X0236927Y0019776D01*
X0236871Y0019639D01*
X0236811Y0019504D01*
X0236748Y0019370D01*
X0236681Y0019238D01*
X0236610Y0019108D01*
X0236536Y0018980D01*
X0236459Y0018854D01*
X0236378Y0018730D01*
X0236294Y0018608D01*
X0236207Y0018489D01*
X0236116Y0018372D01*
X0236022Y0018257D01*
X0235926Y0018145D01*
X0235826Y0018035D01*
X0235724Y0017929D01*
X0235618Y0017825D01*
X0235510Y0017724D01*
X0235399Y0017626D01*
X0235286Y0017530D01*
X0235170Y0017438D01*
X0235052Y0017349D01*
X0234931Y0017264D01*
X0234808Y0017181D01*
X0234683Y0017102D01*
X0234556Y0017026D01*
X0234427Y0016954D01*
X0234296Y0016885D01*
X0234163Y0016820D01*
X0234028Y0016759D01*
X0233892Y0016701D01*
X0233755Y0016646D01*
X0233616Y0016596D01*
X0233475Y0016549D01*
X0233334Y0016506D01*
X0233191Y0016466D01*
X0233047Y0016431D01*
X0232903Y0016399D01*
X0232757Y0016372D01*
X0232611Y0016348D01*
X0232464Y0016328D01*
X0232317Y0016312D01*
X0232170Y0016300D01*
X0232022Y0016292D01*
X0231874Y0016288D01*
X0231726Y0016288D01*
X0231578Y0016292D01*
X0231430Y0016300D01*
X0231283Y0016312D01*
X0231136Y0016328D01*
X0230989Y0016348D01*
X0230843Y0016372D01*
X0230697Y0016399D01*
X0230553Y0016431D01*
X0230409Y0016466D01*
X0230266Y0016506D01*
X0230125Y0016549D01*
X0229984Y0016596D01*
X0229845Y0016646D01*
X0229708Y0016701D01*
X0229572Y0016759D01*
X0229437Y0016820D01*
X0229304Y0016885D01*
X0229173Y0016954D01*
X0229044Y0017026D01*
X0228917Y0017102D01*
X0228792Y0017181D01*
X0228669Y0017264D01*
X0228548Y0017349D01*
X0228430Y0017438D01*
X0228314Y0017530D01*
X0228201Y0017626D01*
X0228090Y0017724D01*
X0227982Y0017825D01*
X0227876Y0017929D01*
X0227774Y0018035D01*
X0227674Y0018145D01*
X0227578Y0018257D01*
X0227484Y0018372D01*
X0227393Y0018489D01*
X0227306Y0018608D01*
X0227222Y0018730D01*
X0227141Y0018854D01*
X0227064Y0018980D01*
X0226990Y0019108D01*
X0226919Y0019238D01*
X0226852Y0019370D01*
X0226789Y0019504D01*
X0226729Y0019639D01*
X0226673Y0019776D01*
X0226620Y0019915D01*
X0226572Y0020055D01*
X0226527Y0020196D01*
X0226486Y0020338D01*
X0226448Y0020481D01*
X0226415Y0020625D01*
X0226385Y0020770D01*
X0226359Y0020916D01*
X0226338Y0021062D01*
X0226320Y0021209D01*
X0226306Y0021356D01*
X0226296Y0021504D01*
X0226290Y0021652D01*
X0226288Y0021800D01*
X0231288Y0171800D02*
X0231290Y0171948D01*
X0231296Y0172096D01*
X0231306Y0172244D01*
X0231320Y0172391D01*
X0231338Y0172538D01*
X0231359Y0172684D01*
X0231385Y0172830D01*
X0231415Y0172975D01*
X0231448Y0173119D01*
X0231486Y0173262D01*
X0231527Y0173404D01*
X0231572Y0173545D01*
X0231620Y0173685D01*
X0231673Y0173824D01*
X0231729Y0173961D01*
X0231789Y0174096D01*
X0231852Y0174230D01*
X0231919Y0174362D01*
X0231990Y0174492D01*
X0232064Y0174620D01*
X0232141Y0174746D01*
X0232222Y0174870D01*
X0232306Y0174992D01*
X0232393Y0175111D01*
X0232484Y0175228D01*
X0232578Y0175343D01*
X0232674Y0175455D01*
X0232774Y0175565D01*
X0232876Y0175671D01*
X0232982Y0175775D01*
X0233090Y0175876D01*
X0233201Y0175974D01*
X0233314Y0176070D01*
X0233430Y0176162D01*
X0233548Y0176251D01*
X0233669Y0176336D01*
X0233792Y0176419D01*
X0233917Y0176498D01*
X0234044Y0176574D01*
X0234173Y0176646D01*
X0234304Y0176715D01*
X0234437Y0176780D01*
X0234572Y0176841D01*
X0234708Y0176899D01*
X0234845Y0176954D01*
X0234984Y0177004D01*
X0235125Y0177051D01*
X0235266Y0177094D01*
X0235409Y0177134D01*
X0235553Y0177169D01*
X0235697Y0177201D01*
X0235843Y0177228D01*
X0235989Y0177252D01*
X0236136Y0177272D01*
X0236283Y0177288D01*
X0236430Y0177300D01*
X0236578Y0177308D01*
X0236726Y0177312D01*
X0236874Y0177312D01*
X0237022Y0177308D01*
X0237170Y0177300D01*
X0237317Y0177288D01*
X0237464Y0177272D01*
X0237611Y0177252D01*
X0237757Y0177228D01*
X0237903Y0177201D01*
X0238047Y0177169D01*
X0238191Y0177134D01*
X0238334Y0177094D01*
X0238475Y0177051D01*
X0238616Y0177004D01*
X0238755Y0176954D01*
X0238892Y0176899D01*
X0239028Y0176841D01*
X0239163Y0176780D01*
X0239296Y0176715D01*
X0239427Y0176646D01*
X0239556Y0176574D01*
X0239683Y0176498D01*
X0239808Y0176419D01*
X0239931Y0176336D01*
X0240052Y0176251D01*
X0240170Y0176162D01*
X0240286Y0176070D01*
X0240399Y0175974D01*
X0240510Y0175876D01*
X0240618Y0175775D01*
X0240724Y0175671D01*
X0240826Y0175565D01*
X0240926Y0175455D01*
X0241022Y0175343D01*
X0241116Y0175228D01*
X0241207Y0175111D01*
X0241294Y0174992D01*
X0241378Y0174870D01*
X0241459Y0174746D01*
X0241536Y0174620D01*
X0241610Y0174492D01*
X0241681Y0174362D01*
X0241748Y0174230D01*
X0241811Y0174096D01*
X0241871Y0173961D01*
X0241927Y0173824D01*
X0241980Y0173685D01*
X0242028Y0173545D01*
X0242073Y0173404D01*
X0242114Y0173262D01*
X0242152Y0173119D01*
X0242185Y0172975D01*
X0242215Y0172830D01*
X0242241Y0172684D01*
X0242262Y0172538D01*
X0242280Y0172391D01*
X0242294Y0172244D01*
X0242304Y0172096D01*
X0242310Y0171948D01*
X0242312Y0171800D01*
X0242310Y0171652D01*
X0242304Y0171504D01*
X0242294Y0171356D01*
X0242280Y0171209D01*
X0242262Y0171062D01*
X0242241Y0170916D01*
X0242215Y0170770D01*
X0242185Y0170625D01*
X0242152Y0170481D01*
X0242114Y0170338D01*
X0242073Y0170196D01*
X0242028Y0170055D01*
X0241980Y0169915D01*
X0241927Y0169776D01*
X0241871Y0169639D01*
X0241811Y0169504D01*
X0241748Y0169370D01*
X0241681Y0169238D01*
X0241610Y0169108D01*
X0241536Y0168980D01*
X0241459Y0168854D01*
X0241378Y0168730D01*
X0241294Y0168608D01*
X0241207Y0168489D01*
X0241116Y0168372D01*
X0241022Y0168257D01*
X0240926Y0168145D01*
X0240826Y0168035D01*
X0240724Y0167929D01*
X0240618Y0167825D01*
X0240510Y0167724D01*
X0240399Y0167626D01*
X0240286Y0167530D01*
X0240170Y0167438D01*
X0240052Y0167349D01*
X0239931Y0167264D01*
X0239808Y0167181D01*
X0239683Y0167102D01*
X0239556Y0167026D01*
X0239427Y0166954D01*
X0239296Y0166885D01*
X0239163Y0166820D01*
X0239028Y0166759D01*
X0238892Y0166701D01*
X0238755Y0166646D01*
X0238616Y0166596D01*
X0238475Y0166549D01*
X0238334Y0166506D01*
X0238191Y0166466D01*
X0238047Y0166431D01*
X0237903Y0166399D01*
X0237757Y0166372D01*
X0237611Y0166348D01*
X0237464Y0166328D01*
X0237317Y0166312D01*
X0237170Y0166300D01*
X0237022Y0166292D01*
X0236874Y0166288D01*
X0236726Y0166288D01*
X0236578Y0166292D01*
X0236430Y0166300D01*
X0236283Y0166312D01*
X0236136Y0166328D01*
X0235989Y0166348D01*
X0235843Y0166372D01*
X0235697Y0166399D01*
X0235553Y0166431D01*
X0235409Y0166466D01*
X0235266Y0166506D01*
X0235125Y0166549D01*
X0234984Y0166596D01*
X0234845Y0166646D01*
X0234708Y0166701D01*
X0234572Y0166759D01*
X0234437Y0166820D01*
X0234304Y0166885D01*
X0234173Y0166954D01*
X0234044Y0167026D01*
X0233917Y0167102D01*
X0233792Y0167181D01*
X0233669Y0167264D01*
X0233548Y0167349D01*
X0233430Y0167438D01*
X0233314Y0167530D01*
X0233201Y0167626D01*
X0233090Y0167724D01*
X0232982Y0167825D01*
X0232876Y0167929D01*
X0232774Y0168035D01*
X0232674Y0168145D01*
X0232578Y0168257D01*
X0232484Y0168372D01*
X0232393Y0168489D01*
X0232306Y0168608D01*
X0232222Y0168730D01*
X0232141Y0168854D01*
X0232064Y0168980D01*
X0231990Y0169108D01*
X0231919Y0169238D01*
X0231852Y0169370D01*
X0231789Y0169504D01*
X0231729Y0169639D01*
X0231673Y0169776D01*
X0231620Y0169915D01*
X0231572Y0170055D01*
X0231527Y0170196D01*
X0231486Y0170338D01*
X0231448Y0170481D01*
X0231415Y0170625D01*
X0231385Y0170770D01*
X0231359Y0170916D01*
X0231338Y0171062D01*
X0231320Y0171209D01*
X0231306Y0171356D01*
X0231296Y0171504D01*
X0231290Y0171652D01*
X0231288Y0171800D01*
D11*
X0118413Y0027271D02*
X0118413Y0023334D01*
X0119397Y0022350D01*
X0119397Y0026287D02*
X0117429Y0026287D01*
X0114920Y0025303D02*
X0114920Y0024318D01*
X0110983Y0024318D01*
X0110983Y0023334D02*
X0110983Y0025303D01*
X0111968Y0026287D01*
X0113936Y0026287D01*
X0114920Y0025303D01*
X0113936Y0022350D02*
X0111968Y0022350D01*
X0110983Y0023334D01*
X0108655Y0025303D02*
X0106686Y0025303D01*
X0107671Y0027271D02*
X0108655Y0028255D01*
X0107671Y0027271D02*
X0107671Y0022350D01*
X0104178Y0023334D02*
X0103194Y0024318D01*
X0101225Y0024318D01*
X0100241Y0025303D01*
X0101225Y0026287D01*
X0104178Y0026287D01*
X0104178Y0023334D02*
X0103194Y0022350D01*
X0100241Y0022350D01*
X0097732Y0023334D02*
X0097732Y0025303D01*
X0096748Y0026287D01*
X0094780Y0026287D01*
X0093795Y0025303D01*
X0093795Y0023334D01*
X0094780Y0022350D01*
X0096748Y0022350D01*
X0097732Y0023334D01*
X0095522Y0017271D02*
X0095522Y0013334D01*
X0096506Y0012350D01*
X0098835Y0013334D02*
X0099819Y0012350D01*
X0101788Y0012350D01*
X0102772Y0013334D01*
X0102772Y0015303D01*
X0101788Y0016287D01*
X0099819Y0016287D01*
X0098835Y0015303D01*
X0098835Y0013334D01*
X0096506Y0016287D02*
X0094538Y0016287D01*
X0092029Y0016287D02*
X0089077Y0016287D01*
X0088092Y0015303D01*
X0089077Y0014318D01*
X0091045Y0014318D01*
X0092029Y0013334D01*
X0091045Y0012350D01*
X0088092Y0012350D01*
X0085764Y0012350D02*
X0083795Y0012350D01*
X0084780Y0012350D02*
X0084780Y0016287D01*
X0083795Y0016287D01*
X0084780Y0018255D02*
X0084780Y0019239D01*
X0081287Y0018255D02*
X0081287Y0012350D01*
X0078334Y0012350D01*
X0077350Y0013334D01*
X0077350Y0015303D01*
X0078334Y0016287D01*
X0081287Y0016287D01*
X0087350Y0022350D02*
X0087350Y0026287D01*
X0088334Y0026287D01*
X0089318Y0025303D01*
X0090303Y0026287D01*
X0091287Y0025303D01*
X0091287Y0022350D01*
X0089318Y0022350D02*
X0089318Y0025303D01*
X0105280Y0016287D02*
X0105280Y0012350D01*
X0105280Y0014318D02*
X0107249Y0016287D01*
X0108233Y0016287D01*
X0110652Y0016287D02*
X0112620Y0016287D01*
X0111636Y0017271D02*
X0111636Y0013334D01*
X0112620Y0012350D01*
X0114949Y0012350D02*
X0116917Y0012350D01*
X0115933Y0012350D02*
X0115933Y0016287D01*
X0114949Y0016287D01*
X0115933Y0018255D02*
X0115933Y0019239D01*
X0119246Y0015303D02*
X0119246Y0013334D01*
X0120230Y0012350D01*
X0122198Y0012350D01*
X0123182Y0013334D01*
X0123182Y0015303D01*
X0122198Y0016287D01*
X0120230Y0016287D01*
X0119246Y0015303D01*
X0125691Y0016287D02*
X0125691Y0012350D01*
X0125691Y0016287D02*
X0128644Y0016287D01*
X0129628Y0015303D01*
X0129628Y0012350D01*
D12*
X0136800Y0021800D03*
X0151800Y0021800D03*
X0166800Y0021800D03*
X0186800Y0050800D03*
X0166800Y0051800D03*
X0151800Y0051800D03*
X0136800Y0051800D03*
X0161800Y0071800D03*
X0166800Y0079300D03*
X0171800Y0071800D03*
X0181800Y0091800D03*
X0195800Y0071800D03*
X0206800Y0061800D03*
X0226800Y0076800D03*
X0236800Y0061800D03*
X0226800Y0041800D03*
X0206800Y0041800D03*
X0206800Y0091800D03*
X0226800Y0106800D03*
X0226800Y0116800D03*
X0206800Y0111800D03*
X0206800Y0126800D03*
X0201800Y0134300D03*
X0196800Y0126800D03*
X0181800Y0121800D03*
X0166800Y0131800D03*
X0171800Y0146800D03*
X0186800Y0146800D03*
X0216800Y0146800D03*
X0226800Y0146800D03*
X0152800Y0101800D03*
X0131800Y0101800D03*
X0116800Y0101800D03*
X0096800Y0096800D03*
X0081800Y0096800D03*
X0066800Y0096800D03*
X0051800Y0096800D03*
X0040800Y0096800D03*
X0051800Y0084300D03*
X0046800Y0076800D03*
X0056800Y0076800D03*
X0051800Y0066800D03*
X0066800Y0066800D03*
X0081800Y0066800D03*
X0096800Y0061800D03*
X0096800Y0041800D03*
X0081800Y0036800D03*
X0066800Y0036800D03*
X0051800Y0036800D03*
X0036800Y0047800D03*
X0016800Y0036800D03*
X0016800Y0066800D03*
X0022800Y0076800D03*
X0041800Y0111800D03*
X0051800Y0126800D03*
X0066800Y0126800D03*
X0076800Y0136800D03*
X0084300Y0141800D03*
X0076800Y0146800D03*
X0096800Y0146800D03*
X0111800Y0141800D03*
X0131800Y0131800D03*
X0116800Y0122800D03*
X0096800Y0126800D03*
X0096800Y0116800D03*
X0081800Y0126800D03*
X0056800Y0150800D03*
X0041800Y0141800D03*
X0026800Y0146800D03*
X0026800Y0126800D03*
X0071800Y0166800D03*
X0101800Y0166800D03*
X0111800Y0171800D03*
X0131800Y0157800D03*
X0151800Y0146800D03*
X0146800Y0131800D03*
X0116800Y0081800D03*
X0091800Y0081800D03*
X0071800Y0081800D03*
D13*
X0036800Y0055800D03*
X0030800Y0076800D03*
X0032800Y0096800D03*
X0056800Y0142800D03*
X0116800Y0130800D03*
X0160800Y0101800D03*
X0187800Y0071800D03*
X0186800Y0042800D03*
X0131800Y0165800D03*
D14*
X0151800Y0163800D02*
X0151800Y0169800D01*
X0161800Y0169800D02*
X0161800Y0163800D01*
X0171800Y0163800D02*
X0171800Y0169800D01*
X0061800Y0169800D02*
X0061800Y0163800D01*
X0051800Y0163800D02*
X0051800Y0169800D01*
X0041800Y0169800D02*
X0041800Y0163800D01*
X0041800Y0024800D02*
X0041800Y0018800D01*
X0051800Y0018800D02*
X0051800Y0024800D01*
X0061800Y0024800D02*
X0061800Y0018800D01*
X0181800Y0018800D02*
X0181800Y0024800D01*
X0191800Y0024800D02*
X0191800Y0018800D01*
X0201800Y0018800D02*
X0201800Y0024800D01*
D15*
X0189400Y0161800D02*
X0184200Y0161800D01*
X0224200Y0161800D02*
X0229400Y0161800D01*
D16*
X0226800Y0161800D02*
X0211800Y0161800D01*
X0197093Y0147093D01*
X0196386Y0146800D02*
X0186800Y0146800D01*
X0176800Y0156800D01*
X0162214Y0156800D01*
X0161507Y0156507D02*
X0151800Y0146800D01*
X0151800Y0136800D01*
X0146800Y0131800D01*
X0131800Y0131800D01*
X0127800Y0130800D01*
X0116800Y0130800D01*
X0131800Y0131800D02*
X0141800Y0121800D01*
X0141800Y0081800D01*
X0156800Y0086800D02*
X0126800Y0056800D01*
X0126800Y0031800D01*
X0136800Y0021800D01*
X0136800Y0031800D01*
X0141800Y0036800D01*
X0156800Y0036800D01*
X0166800Y0046800D01*
X0166800Y0051800D01*
X0166800Y0061800D02*
X0161800Y0066800D01*
X0161800Y0071800D01*
X0156800Y0071800D01*
X0151800Y0066800D01*
X0151800Y0051800D01*
X0166800Y0061800D02*
X0176800Y0061800D01*
X0186800Y0051800D01*
X0186800Y0050800D01*
X0186800Y0042800D02*
X0186800Y0036800D01*
X0181800Y0031800D01*
X0181800Y0021800D01*
X0206800Y0041800D02*
X0206800Y0061800D01*
X0200800Y0066800D01*
X0195800Y0071800D01*
X0187800Y0071800D02*
X0171800Y0071800D01*
X0176800Y0076800D01*
X0176800Y0081800D01*
X0171800Y0086800D01*
X0156800Y0086800D01*
X0160800Y0101800D02*
X0160800Y0105386D01*
X0161093Y0106093D02*
X0176800Y0121800D01*
X0181800Y0121800D01*
X0196800Y0126800D01*
X0201800Y0134300D02*
X0176800Y0134300D01*
X0171800Y0146800D01*
X0176507Y0156507D02*
X0176800Y0156800D01*
X0162214Y0156800D02*
X0162154Y0156798D01*
X0162093Y0156793D01*
X0162034Y0156784D01*
X0161975Y0156771D01*
X0161916Y0156755D01*
X0161859Y0156735D01*
X0161804Y0156712D01*
X0161749Y0156685D01*
X0161697Y0156656D01*
X0161646Y0156623D01*
X0161597Y0156587D01*
X0161551Y0156549D01*
X0161507Y0156507D01*
X0151800Y0146800D02*
X0151800Y0166800D01*
X0133214Y0166800D01*
X0132507Y0166507D02*
X0131800Y0165800D01*
X0132507Y0166507D02*
X0132551Y0166549D01*
X0132597Y0166587D01*
X0132646Y0166623D01*
X0132697Y0166656D01*
X0132749Y0166685D01*
X0132804Y0166712D01*
X0132859Y0166735D01*
X0132916Y0166755D01*
X0132975Y0166771D01*
X0133034Y0166784D01*
X0133093Y0166793D01*
X0133154Y0166798D01*
X0133214Y0166800D01*
X0111800Y0161800D02*
X0096800Y0146800D01*
X0089300Y0146800D01*
X0084300Y0144300D01*
X0084300Y0141800D01*
X0076800Y0136800D02*
X0066800Y0126800D01*
X0051800Y0126800D01*
X0026800Y0126800D01*
X0041800Y0141800D02*
X0056800Y0141800D01*
X0056800Y0142800D01*
X0056800Y0141800D02*
X0061800Y0146800D01*
X0076800Y0146800D01*
X0081800Y0126800D02*
X0081800Y0116800D01*
X0076800Y0111800D01*
X0056800Y0111800D01*
X0051800Y0106800D01*
X0051800Y0096800D01*
X0051800Y0085800D02*
X0040800Y0096800D01*
X0032800Y0096800D02*
X0021800Y0096800D01*
X0016800Y0101800D01*
X0016800Y0146800D01*
X0026800Y0156800D01*
X0031800Y0156800D01*
X0041800Y0166800D01*
X0051800Y0166800D02*
X0051800Y0161800D01*
X0047093Y0157093D01*
X0046386Y0156800D02*
X0041800Y0156800D01*
X0031800Y0146800D01*
X0026800Y0146800D01*
X0046386Y0156800D02*
X0046446Y0156802D01*
X0046507Y0156807D01*
X0046566Y0156816D01*
X0046625Y0156829D01*
X0046684Y0156845D01*
X0046741Y0156865D01*
X0046796Y0156888D01*
X0046851Y0156915D01*
X0046903Y0156944D01*
X0046954Y0156977D01*
X0047003Y0157013D01*
X0047049Y0157051D01*
X0047093Y0157093D01*
X0061800Y0166800D02*
X0071800Y0166800D01*
X0111800Y0171800D02*
X0111800Y0161800D01*
X0111800Y0141800D02*
X0096800Y0126800D01*
X0096800Y0116800D01*
X0116800Y0101800D01*
X0131800Y0101800D01*
X0160800Y0105386D02*
X0160802Y0105446D01*
X0160807Y0105507D01*
X0160816Y0105566D01*
X0160829Y0105625D01*
X0160845Y0105684D01*
X0160865Y0105741D01*
X0160888Y0105796D01*
X0160915Y0105851D01*
X0160944Y0105903D01*
X0160977Y0105954D01*
X0161013Y0106003D01*
X0161051Y0106049D01*
X0161093Y0106093D01*
X0201800Y0134300D02*
X0214300Y0146800D01*
X0216800Y0146800D01*
X0216800Y0136800D01*
X0236800Y0116800D01*
X0236800Y0061800D01*
X0226800Y0106800D02*
X0226800Y0116800D01*
X0206800Y0111800D01*
X0206800Y0126800D01*
X0226800Y0146800D02*
X0226800Y0161800D01*
X0197093Y0147093D02*
X0197049Y0147051D01*
X0197003Y0147013D01*
X0196954Y0146977D01*
X0196903Y0146944D01*
X0196851Y0146915D01*
X0196796Y0146888D01*
X0196741Y0146865D01*
X0196684Y0146845D01*
X0196625Y0146829D01*
X0196566Y0146816D01*
X0196507Y0146807D01*
X0196446Y0146802D01*
X0196386Y0146800D01*
X0096800Y0126800D02*
X0081800Y0116800D01*
X0081800Y0096800D02*
X0081800Y0086800D01*
X0086800Y0081800D01*
X0091800Y0081800D01*
X0096800Y0076800D01*
X0096800Y0061800D01*
X0096800Y0051800D01*
X0081800Y0036800D01*
X0076800Y0031800D01*
X0056800Y0031800D01*
X0051800Y0036800D01*
X0036800Y0027214D02*
X0036802Y0027154D01*
X0036807Y0027093D01*
X0036816Y0027034D01*
X0036829Y0026975D01*
X0036845Y0026916D01*
X0036865Y0026859D01*
X0036888Y0026804D01*
X0036915Y0026749D01*
X0036944Y0026697D01*
X0036977Y0026646D01*
X0037013Y0026597D01*
X0037051Y0026551D01*
X0037093Y0026507D01*
X0041800Y0021800D01*
X0036800Y0027214D02*
X0036800Y0047800D01*
X0036800Y0055800D02*
X0047800Y0066800D01*
X0051800Y0066800D01*
X0056800Y0076800D01*
X0051800Y0084300D02*
X0051800Y0085800D01*
X0051800Y0084300D02*
X0069300Y0084300D01*
X0071800Y0081800D01*
X0081800Y0066800D01*
X0066800Y0066800D02*
X0051800Y0066800D01*
X0046800Y0076800D02*
X0030800Y0076800D01*
X0020800Y0066800D01*
X0016800Y0066800D01*
D17*
X0141800Y0081800D03*
M02*
