G75*
%MOIN*%
%OFA0B0*%
%FSLAX25Y25*%
%IPPOS*%
%LPD*%
%AMOC8*
5,1,8,0,0,1.08239X$1,22.5*
%
%ADD10C,0.11824*%
%ADD11OC8,0.06000*%
%ADD12C,0.06000*%
%ADD13C,0.06800*%
%ADD14C,0.06000*%
%ADD15C,0.09400*%
D10*
X0016800Y0016800D03*
X0016800Y0266800D03*
X0226800Y0266800D03*
X0226800Y0016800D03*
D11*
X0197800Y0031800D03*
X0186800Y0046800D03*
X0166800Y0046800D03*
X0146800Y0056800D03*
X0151800Y0071800D03*
X0166800Y0071800D03*
X0181800Y0071800D03*
X0196800Y0071800D03*
X0216800Y0061800D03*
X0216800Y0081800D03*
X0196800Y0101800D03*
X0181800Y0101800D03*
X0181800Y0114300D03*
X0176800Y0121800D03*
X0186800Y0121800D03*
X0171800Y0141800D03*
X0176800Y0166800D03*
X0161800Y0166800D03*
X0146800Y0166800D03*
X0131800Y0171800D03*
X0131800Y0191800D03*
X0146800Y0196800D03*
X0161800Y0196800D03*
X0166800Y0204300D03*
X0161800Y0211800D03*
X0171800Y0211800D03*
X0176800Y0196800D03*
X0191800Y0196800D03*
X0206800Y0191800D03*
X0206800Y0171800D03*
X0191800Y0166800D03*
X0206800Y0147800D03*
X0206800Y0120800D03*
X0166800Y0101800D03*
X0156800Y0112800D03*
X0151800Y0101800D03*
X0126800Y0106800D03*
X0126800Y0121800D03*
X0126800Y0136800D03*
X0141800Y0141800D03*
X0111800Y0166800D03*
X0096800Y0166800D03*
X0096800Y0136800D03*
X0106800Y0121800D03*
X0096800Y0106800D03*
X0086800Y0101800D03*
X0096800Y0091800D03*
X0086800Y0081800D03*
X0071800Y0071800D03*
X0056800Y0071800D03*
X0041800Y0071800D03*
X0026800Y0071800D03*
X0031800Y0046800D03*
X0031800Y0026800D03*
X0086800Y0026800D03*
X0096800Y0021800D03*
X0101800Y0029300D03*
X0106800Y0021800D03*
X0116800Y0026800D03*
X0131800Y0026800D03*
X0146800Y0026800D03*
X0131800Y0056800D03*
X0126800Y0076800D03*
X0126800Y0091800D03*
X0106800Y0076800D03*
X0105800Y0056800D03*
X0116800Y0056800D03*
X0086800Y0056800D03*
X0071800Y0101800D03*
X0056800Y0101800D03*
X0056800Y0114300D03*
X0051800Y0121800D03*
X0061800Y0121800D03*
X0047800Y0141800D03*
X0031800Y0117800D03*
X0026800Y0101800D03*
X0041800Y0101800D03*
X0041800Y0166800D03*
X0026800Y0166800D03*
X0026800Y0196800D03*
X0026800Y0207800D03*
X0041800Y0196800D03*
X0046800Y0211800D03*
X0056800Y0196800D03*
X0066800Y0204300D03*
X0061800Y0211800D03*
X0071800Y0211800D03*
X0066800Y0227800D03*
X0046800Y0231800D03*
X0086800Y0251800D03*
X0101800Y0226800D03*
X0095800Y0211800D03*
X0096800Y0196800D03*
X0111800Y0196800D03*
X0121800Y0226800D03*
X0121800Y0241800D03*
X0116800Y0251800D03*
X0151800Y0241800D03*
X0170800Y0231800D03*
X0195800Y0216800D03*
X0056800Y0166800D03*
D12*
X0055800Y0141800D03*
X0031800Y0125800D03*
X0097800Y0056800D03*
X0156800Y0120800D03*
X0206800Y0112800D03*
X0206800Y0155800D03*
X0187800Y0216800D03*
X0162800Y0231800D03*
X0087800Y0211800D03*
X0066800Y0235800D03*
X0026800Y0215800D03*
X0205800Y0031800D03*
D13*
X0186800Y0024800D02*
X0186800Y0018800D01*
X0176800Y0018800D02*
X0176800Y0024800D01*
X0166800Y0024800D02*
X0166800Y0018800D01*
X0071800Y0018800D02*
X0071800Y0024800D01*
X0061800Y0024800D02*
X0061800Y0018800D01*
X0051800Y0018800D02*
X0051800Y0024800D01*
X0131800Y0258800D02*
X0131800Y0264800D01*
X0141800Y0264800D02*
X0141800Y0258800D01*
X0151800Y0258800D02*
X0151800Y0264800D01*
D14*
X0216800Y0239400D02*
X0216800Y0234200D01*
X0216800Y0199400D02*
X0216800Y0194200D01*
X0081800Y0194400D02*
X0081800Y0189200D01*
X0071800Y0189200D02*
X0071800Y0194400D01*
X0071800Y0154400D02*
X0071800Y0149200D01*
X0081800Y0149200D02*
X0081800Y0154400D01*
D15*
X0102115Y0156800D03*
X0121800Y0156800D03*
X0141485Y0156800D03*
X0167115Y0251800D03*
X0186800Y0251800D03*
X0206485Y0251800D03*
X0076485Y0251800D03*
X0056800Y0251800D03*
X0037115Y0251800D03*
M02*
