G75*
%MOIN*%
%OFA0B0*%
%FSLAX25Y25*%
%IPPOS*%
%LPD*%
%AMOC8*
5,1,8,0,0,1.08239X$1,22.5*
%
%ADD10OC8,0.05200*%
%ADD11C,0.05200*%
%ADD12C,0.06000*%
%ADD13C,0.05200*%
%ADD14C,0.08600*%
%ADD15C,0.02400*%
%ADD16C,0.01600*%
D10*
X0031800Y0026800D03*
X0031800Y0046800D03*
X0026800Y0071800D03*
X0041800Y0071800D03*
X0056800Y0071800D03*
X0071800Y0071800D03*
X0086800Y0081800D03*
X0096800Y0091800D03*
X0086800Y0101800D03*
X0096800Y0106800D03*
X0106800Y0121800D03*
X0096800Y0136800D03*
X0096800Y0166800D03*
X0111800Y0166800D03*
X0131800Y0171800D03*
X0146800Y0166800D03*
X0161800Y0166800D03*
X0176800Y0166800D03*
X0191800Y0166800D03*
X0206800Y0171800D03*
X0206800Y0191800D03*
X0191800Y0196800D03*
X0176800Y0196800D03*
X0166800Y0204300D03*
X0161800Y0211800D03*
X0171800Y0211800D03*
X0161800Y0196800D03*
X0146800Y0196800D03*
X0131800Y0191800D03*
X0111800Y0196800D03*
X0096800Y0196800D03*
X0095800Y0211800D03*
X0101800Y0226800D03*
X0086800Y0251800D03*
X0066800Y0227800D03*
X0061800Y0211800D03*
X0066800Y0204300D03*
X0071800Y0211800D03*
X0056800Y0196800D03*
X0046800Y0211800D03*
X0041800Y0196800D03*
X0026800Y0196800D03*
X0026800Y0207800D03*
X0046800Y0231800D03*
X0041800Y0166800D03*
X0026800Y0166800D03*
X0047800Y0141800D03*
X0051800Y0121800D03*
X0056800Y0114300D03*
X0061800Y0121800D03*
X0056800Y0101800D03*
X0041800Y0101800D03*
X0031800Y0117800D03*
X0026800Y0101800D03*
X0071800Y0101800D03*
X0106800Y0076800D03*
X0105800Y0056800D03*
X0116800Y0056800D03*
X0126800Y0076800D03*
X0126800Y0091800D03*
X0126800Y0106800D03*
X0126800Y0121800D03*
X0126800Y0136800D03*
X0141800Y0141800D03*
X0156800Y0112800D03*
X0151800Y0101800D03*
X0166800Y0101800D03*
X0181800Y0101800D03*
X0181800Y0114300D03*
X0176800Y0121800D03*
X0186800Y0121800D03*
X0196800Y0101800D03*
X0206800Y0120800D03*
X0206800Y0147800D03*
X0171800Y0141800D03*
X0216800Y0081800D03*
X0216800Y0061800D03*
X0196800Y0071800D03*
X0181800Y0071800D03*
X0166800Y0071800D03*
X0151800Y0071800D03*
X0146800Y0056800D03*
X0131800Y0056800D03*
X0131800Y0026800D03*
X0146800Y0026800D03*
X0166800Y0046800D03*
X0186800Y0046800D03*
X0197800Y0031800D03*
X0116800Y0026800D03*
X0106800Y0021800D03*
X0101800Y0029300D03*
X0096800Y0021800D03*
X0086800Y0026800D03*
X0086800Y0056800D03*
X0056800Y0166800D03*
X0121800Y0226800D03*
X0121800Y0241800D03*
X0116800Y0251800D03*
X0151800Y0241800D03*
X0170800Y0231800D03*
X0195800Y0216800D03*
D11*
X0187800Y0216800D03*
X0162800Y0231800D03*
X0206800Y0155800D03*
X0206800Y0112800D03*
X0156800Y0120800D03*
X0097800Y0056800D03*
X0055800Y0141800D03*
X0031800Y0125800D03*
X0087800Y0211800D03*
X0066800Y0235800D03*
X0026800Y0215800D03*
X0205800Y0031800D03*
D12*
X0186800Y0024800D02*
X0186800Y0018800D01*
X0176800Y0018800D02*
X0176800Y0024800D01*
X0166800Y0024800D02*
X0166800Y0018800D01*
X0071800Y0018800D02*
X0071800Y0024800D01*
X0061800Y0024800D02*
X0061800Y0018800D01*
X0051800Y0018800D02*
X0051800Y0024800D01*
X0131800Y0258800D02*
X0131800Y0264800D01*
X0141800Y0264800D02*
X0141800Y0258800D01*
X0151800Y0258800D02*
X0151800Y0264800D01*
D13*
X0216800Y0239400D02*
X0216800Y0234200D01*
X0216800Y0199400D02*
X0216800Y0194200D01*
X0081800Y0194400D02*
X0081800Y0189200D01*
X0071800Y0189200D02*
X0071800Y0194400D01*
X0071800Y0154400D02*
X0071800Y0149200D01*
X0081800Y0149200D02*
X0081800Y0154400D01*
D14*
X0102115Y0156800D03*
X0121800Y0156800D03*
X0141485Y0156800D03*
X0167115Y0251800D03*
X0186800Y0251800D03*
X0206485Y0251800D03*
X0076485Y0251800D03*
X0056800Y0251800D03*
X0037115Y0251800D03*
D15*
X0046800Y0231800D02*
X0030800Y0215800D01*
X0026800Y0215800D01*
X0021800Y0210800D01*
X0021800Y0176800D01*
X0026800Y0166800D01*
X0041800Y0166800D01*
X0051800Y0176800D01*
X0081800Y0176800D01*
X0081800Y0151800D01*
X0091800Y0146485D02*
X0102115Y0156800D01*
X0111800Y0166800D02*
X0111800Y0171800D01*
X0106800Y0176800D01*
X0081800Y0176800D01*
X0091800Y0146485D02*
X0091800Y0116800D01*
X0096800Y0111800D01*
X0096800Y0106800D01*
X0086800Y0101800D02*
X0121800Y0101800D01*
X0126800Y0106800D01*
X0136800Y0086800D02*
X0131800Y0081800D01*
X0086800Y0081800D01*
X0046800Y0081800D01*
X0041800Y0076800D01*
X0041800Y0071800D01*
X0026800Y0071800D01*
X0026800Y0101800D02*
X0051800Y0121800D01*
X0096800Y0136800D02*
X0106800Y0126800D01*
X0106800Y0121800D01*
X0131800Y0141800D02*
X0134300Y0139300D01*
X0141800Y0141800D01*
X0136800Y0136800D02*
X0136800Y0086800D01*
X0151800Y0071800D01*
X0151800Y0076800D01*
X0156800Y0081800D01*
X0171800Y0081800D01*
X0181800Y0071800D01*
X0181800Y0066800D01*
X0186800Y0061800D01*
X0216800Y0061800D01*
X0181800Y0066800D02*
X0166800Y0051800D01*
X0166800Y0046800D01*
X0151800Y0031800D01*
X0121800Y0031800D01*
X0116800Y0026800D01*
X0111800Y0021800D01*
X0106800Y0021800D01*
X0166800Y0101800D02*
X0156800Y0111800D01*
X0156800Y0112800D01*
X0136800Y0136800D02*
X0134300Y0139300D01*
X0131800Y0141800D02*
X0131800Y0161800D01*
X0106800Y0186800D01*
X0106800Y0206800D01*
X0111800Y0211800D01*
X0111800Y0231800D01*
X0121800Y0241800D01*
X0136800Y0241800D01*
X0146800Y0231800D01*
X0162800Y0231800D01*
X0162800Y0237800D01*
X0166800Y0241800D01*
X0211800Y0241800D01*
X0216800Y0236800D01*
X0191800Y0201800D02*
X0181800Y0211800D01*
X0182800Y0211800D01*
X0187800Y0216800D01*
X0181800Y0211800D02*
X0171800Y0211800D01*
X0191800Y0201800D02*
X0191800Y0196800D01*
X0171800Y0176800D02*
X0176800Y0171800D01*
X0176800Y0166800D01*
X0176800Y0156800D01*
X0196800Y0156800D01*
X0201800Y0161800D01*
X0206800Y0156800D01*
X0206800Y0155800D01*
X0201800Y0161800D02*
X0206800Y0166800D01*
X0206800Y0171800D01*
X0176800Y0156800D02*
X0176800Y0146800D01*
X0171800Y0141800D01*
X0146800Y0166800D02*
X0146800Y0171800D01*
X0151800Y0176800D01*
X0171800Y0176800D01*
X0146800Y0166800D02*
X0136800Y0166800D01*
X0131800Y0171800D01*
X0131800Y0181800D01*
X0111800Y0196800D01*
X0151800Y0241800D02*
X0151800Y0261800D01*
D16*
X0011600Y0257895D02*
X0011600Y0025705D01*
X0012820Y0026409D01*
X0015442Y0027112D01*
X0018158Y0027112D01*
X0020780Y0026409D01*
X0023132Y0025051D01*
X0025051Y0023132D01*
X0026409Y0020780D01*
X0027112Y0018158D01*
X0027112Y0015442D01*
X0026409Y0012820D01*
X0025705Y0011600D01*
X0217895Y0011600D01*
X0217191Y0012820D01*
X0216488Y0015442D01*
X0216488Y0018158D01*
X0217191Y0020780D01*
X0218548Y0023132D01*
X0220468Y0025051D01*
X0222820Y0026409D01*
X0225442Y0027112D01*
X0228158Y0027112D01*
X0230780Y0026409D01*
X0231921Y0025750D01*
X0231921Y0257850D01*
X0230780Y0257191D01*
X0228158Y0256488D01*
X0225442Y0256488D01*
X0222820Y0257191D01*
X0220468Y0258548D01*
X0218548Y0260468D01*
X0217191Y0262820D01*
X0216488Y0265442D01*
X0216488Y0268158D01*
X0217170Y0270701D01*
X0026430Y0270701D01*
X0027112Y0268158D01*
X0027112Y0265442D01*
X0026409Y0262820D01*
X0025051Y0260468D01*
X0023132Y0258548D01*
X0020780Y0257191D01*
X0018158Y0256488D01*
X0015442Y0256488D01*
X0012820Y0257191D01*
X0011600Y0257895D01*
X0011600Y0257766D02*
X0011823Y0257766D01*
X0011600Y0256168D02*
X0033139Y0256168D01*
X0033773Y0256802D02*
X0032113Y0255142D01*
X0031215Y0252974D01*
X0031215Y0250626D01*
X0032113Y0248458D01*
X0033773Y0246798D01*
X0035941Y0245900D01*
X0038289Y0245900D01*
X0040457Y0246798D01*
X0042117Y0248458D01*
X0043015Y0250626D01*
X0043015Y0252974D01*
X0042117Y0255142D01*
X0040457Y0256802D01*
X0038289Y0257700D01*
X0035941Y0257700D01*
X0033773Y0256802D01*
X0031876Y0254569D02*
X0011600Y0254569D01*
X0011600Y0252971D02*
X0031215Y0252971D01*
X0031215Y0251372D02*
X0011600Y0251372D01*
X0011600Y0249774D02*
X0031568Y0249774D01*
X0032396Y0248175D02*
X0011600Y0248175D01*
X0011600Y0246577D02*
X0034308Y0246577D01*
X0039922Y0246577D02*
X0053993Y0246577D01*
X0053458Y0246798D02*
X0055626Y0245900D01*
X0057974Y0245900D01*
X0060142Y0246798D01*
X0061802Y0248458D01*
X0062700Y0250626D01*
X0062700Y0252974D01*
X0061802Y0255142D01*
X0060142Y0256802D01*
X0057974Y0257700D01*
X0055626Y0257700D01*
X0053458Y0256802D01*
X0051798Y0255142D01*
X0050900Y0252974D01*
X0050900Y0250626D01*
X0051798Y0248458D01*
X0053458Y0246798D01*
X0052081Y0248175D02*
X0041834Y0248175D01*
X0042662Y0249774D02*
X0051253Y0249774D01*
X0050900Y0251372D02*
X0043015Y0251372D01*
X0043015Y0252971D02*
X0050900Y0252971D01*
X0051561Y0254569D02*
X0042354Y0254569D01*
X0041091Y0256168D02*
X0052824Y0256168D01*
X0060776Y0256168D02*
X0072509Y0256168D01*
X0073143Y0256802D02*
X0071483Y0255142D01*
X0070585Y0252974D01*
X0070585Y0250626D01*
X0071483Y0248458D01*
X0073143Y0246798D01*
X0075311Y0245900D01*
X0077659Y0245900D01*
X0079827Y0246798D01*
X0081487Y0248458D01*
X0082385Y0250626D01*
X0082385Y0252974D01*
X0081487Y0255142D01*
X0079827Y0256802D01*
X0077659Y0257700D01*
X0075311Y0257700D01*
X0073143Y0256802D01*
X0071246Y0254569D02*
X0062039Y0254569D01*
X0062700Y0252971D02*
X0070585Y0252971D01*
X0070585Y0251372D02*
X0062700Y0251372D01*
X0062347Y0249774D02*
X0070938Y0249774D01*
X0071766Y0248175D02*
X0061519Y0248175D01*
X0059607Y0246577D02*
X0073678Y0246577D01*
X0079292Y0246577D02*
X0149000Y0246577D01*
X0149000Y0248175D02*
X0119398Y0248175D01*
X0118623Y0247400D02*
X0121200Y0249977D01*
X0121200Y0251800D01*
X0121200Y0253623D01*
X0118623Y0256200D01*
X0116800Y0256200D01*
X0116800Y0251800D01*
X0121200Y0251800D01*
X0116800Y0251800D01*
X0116800Y0251800D01*
X0116800Y0251800D01*
X0116800Y0247400D01*
X0118623Y0247400D01*
X0116800Y0247400D02*
X0116800Y0251800D01*
X0116800Y0251800D01*
X0116800Y0251800D01*
X0112400Y0251800D01*
X0112400Y0253623D01*
X0114977Y0256200D01*
X0116800Y0256200D01*
X0116800Y0251800D01*
X0112400Y0251800D01*
X0112400Y0249977D01*
X0114977Y0247400D01*
X0116800Y0247400D01*
X0116800Y0248175D02*
X0116800Y0248175D01*
X0116800Y0249774D02*
X0116800Y0249774D01*
X0116800Y0251372D02*
X0116800Y0251372D01*
X0116800Y0252971D02*
X0116800Y0252971D01*
X0116800Y0254569D02*
X0116800Y0254569D01*
X0116800Y0256168D02*
X0116800Y0256168D01*
X0118655Y0256168D02*
X0127779Y0256168D01*
X0127695Y0256284D02*
X0128139Y0255673D01*
X0128673Y0255139D01*
X0129284Y0254695D01*
X0129957Y0254352D01*
X0130676Y0254118D01*
X0131422Y0254000D01*
X0131600Y0254000D01*
X0131600Y0261600D01*
X0127000Y0261600D01*
X0127000Y0258422D01*
X0127118Y0257676D01*
X0127352Y0256957D01*
X0127695Y0256284D01*
X0127104Y0257766D02*
X0021777Y0257766D01*
X0023948Y0259365D02*
X0127000Y0259365D01*
X0127000Y0260963D02*
X0025337Y0260963D01*
X0026260Y0262562D02*
X0127000Y0262562D01*
X0127000Y0262000D02*
X0127000Y0265178D01*
X0127118Y0265924D01*
X0127352Y0266643D01*
X0127695Y0267316D01*
X0128139Y0267927D01*
X0128673Y0268461D01*
X0129284Y0268905D01*
X0129957Y0269248D01*
X0130676Y0269482D01*
X0131422Y0269600D01*
X0131600Y0269600D01*
X0131600Y0262000D01*
X0132000Y0262000D01*
X0132000Y0269600D01*
X0132178Y0269600D01*
X0132924Y0269482D01*
X0133643Y0269248D01*
X0134316Y0268905D01*
X0134927Y0268461D01*
X0135461Y0267927D01*
X0135905Y0267316D01*
X0136248Y0266643D01*
X0136482Y0265924D01*
X0136600Y0265178D01*
X0136600Y0262000D01*
X0132000Y0262000D01*
X0132000Y0261600D01*
X0136600Y0261600D01*
X0136600Y0258422D01*
X0136482Y0257676D01*
X0136248Y0256957D01*
X0135905Y0256284D01*
X0135461Y0255673D01*
X0134927Y0255139D01*
X0134316Y0254695D01*
X0133643Y0254352D01*
X0132924Y0254118D01*
X0132178Y0254000D01*
X0132000Y0254000D01*
X0132000Y0261600D01*
X0131600Y0261600D01*
X0131600Y0262000D01*
X0127000Y0262000D01*
X0127000Y0264160D02*
X0026768Y0264160D01*
X0027112Y0265759D02*
X0127092Y0265759D01*
X0127725Y0267357D02*
X0027112Y0267357D01*
X0026898Y0268956D02*
X0129383Y0268956D01*
X0131600Y0268956D02*
X0132000Y0268956D01*
X0132000Y0267357D02*
X0131600Y0267357D01*
X0131600Y0265759D02*
X0132000Y0265759D01*
X0132000Y0264160D02*
X0131600Y0264160D01*
X0131600Y0262562D02*
X0132000Y0262562D01*
X0132000Y0260963D02*
X0131600Y0260963D01*
X0131600Y0259365D02*
X0132000Y0259365D01*
X0132000Y0257766D02*
X0131600Y0257766D01*
X0131600Y0256168D02*
X0132000Y0256168D01*
X0132000Y0254569D02*
X0131600Y0254569D01*
X0129530Y0254569D02*
X0120253Y0254569D01*
X0121200Y0252971D02*
X0149000Y0252971D01*
X0149000Y0254569D02*
X0144070Y0254569D01*
X0144316Y0254695D02*
X0143643Y0254352D01*
X0142924Y0254118D01*
X0142178Y0254000D01*
X0142000Y0254000D01*
X0142000Y0261600D01*
X0142000Y0262000D01*
X0141600Y0262000D01*
X0141600Y0269600D01*
X0141422Y0269600D01*
X0140676Y0269482D01*
X0139957Y0269248D01*
X0139284Y0268905D01*
X0138673Y0268461D01*
X0138139Y0267927D01*
X0137695Y0267316D01*
X0137352Y0266643D01*
X0137118Y0265924D01*
X0137000Y0265178D01*
X0137000Y0262000D01*
X0141600Y0262000D01*
X0141600Y0261600D01*
X0137000Y0261600D01*
X0137000Y0258422D01*
X0137118Y0257676D01*
X0137352Y0256957D01*
X0137695Y0256284D01*
X0138139Y0255673D01*
X0138673Y0255139D01*
X0139284Y0254695D01*
X0139957Y0254352D01*
X0140676Y0254118D01*
X0141422Y0254000D01*
X0141600Y0254000D01*
X0141600Y0261600D01*
X0142000Y0261600D01*
X0146600Y0261600D01*
X0146600Y0258422D01*
X0146482Y0257676D01*
X0146248Y0256957D01*
X0145905Y0256284D01*
X0145461Y0255673D01*
X0144927Y0255139D01*
X0144316Y0254695D01*
X0145821Y0256168D02*
X0147927Y0256168D01*
X0147900Y0256194D02*
X0149000Y0255095D01*
X0149000Y0244940D01*
X0147600Y0243540D01*
X0147600Y0240060D01*
X0150060Y0237600D01*
X0153540Y0237600D01*
X0156000Y0240060D01*
X0156000Y0243540D01*
X0154600Y0244940D01*
X0154600Y0255095D01*
X0155700Y0256194D01*
X0156400Y0257885D01*
X0156400Y0265715D01*
X0155700Y0267406D01*
X0154406Y0268700D01*
X0152715Y0269400D01*
X0150885Y0269400D01*
X0149194Y0268700D01*
X0147900Y0267406D01*
X0147200Y0265715D01*
X0147200Y0257885D01*
X0147900Y0256194D01*
X0147249Y0257766D02*
X0146496Y0257766D01*
X0146600Y0259365D02*
X0147200Y0259365D01*
X0147200Y0260963D02*
X0146600Y0260963D01*
X0146600Y0262000D02*
X0146600Y0265178D01*
X0146482Y0265924D01*
X0146248Y0266643D01*
X0145905Y0267316D01*
X0145461Y0267927D01*
X0144927Y0268461D01*
X0144316Y0268905D01*
X0143643Y0269248D01*
X0142924Y0269482D01*
X0142178Y0269600D01*
X0142000Y0269600D01*
X0142000Y0262000D01*
X0146600Y0262000D01*
X0146600Y0262562D02*
X0147200Y0262562D01*
X0147200Y0264160D02*
X0146600Y0264160D01*
X0146508Y0265759D02*
X0147218Y0265759D01*
X0147880Y0267357D02*
X0145875Y0267357D01*
X0144217Y0268956D02*
X0149813Y0268956D01*
X0153787Y0268956D02*
X0216702Y0268956D01*
X0216488Y0267357D02*
X0155720Y0267357D01*
X0156382Y0265759D02*
X0216488Y0265759D01*
X0216832Y0264160D02*
X0156400Y0264160D01*
X0156400Y0262562D02*
X0217340Y0262562D01*
X0218263Y0260963D02*
X0156400Y0260963D01*
X0156400Y0259365D02*
X0219652Y0259365D01*
X0221823Y0257766D02*
X0207809Y0257766D01*
X0207913Y0257750D02*
X0206965Y0257900D01*
X0206866Y0257900D01*
X0206866Y0252181D01*
X0206104Y0252181D01*
X0206104Y0251419D01*
X0200385Y0251419D01*
X0200385Y0251320D01*
X0200535Y0250372D01*
X0200832Y0249458D01*
X0201268Y0248603D01*
X0201832Y0247826D01*
X0202511Y0247147D01*
X0203288Y0246583D01*
X0204143Y0246147D01*
X0205057Y0245850D01*
X0206005Y0245700D01*
X0206104Y0245700D01*
X0206104Y0251419D01*
X0206866Y0251419D01*
X0206866Y0245700D01*
X0206965Y0245700D01*
X0207913Y0245850D01*
X0208827Y0246147D01*
X0209682Y0246583D01*
X0210459Y0247147D01*
X0211138Y0247826D01*
X0211702Y0248603D01*
X0212138Y0249458D01*
X0212435Y0250372D01*
X0212585Y0251320D01*
X0212585Y0251419D01*
X0206866Y0251419D01*
X0206866Y0252181D01*
X0212585Y0252181D01*
X0212585Y0252280D01*
X0212435Y0253228D01*
X0212138Y0254142D01*
X0211702Y0254997D01*
X0211138Y0255774D01*
X0210459Y0256453D01*
X0209682Y0257017D01*
X0208827Y0257453D01*
X0207913Y0257750D01*
X0206866Y0257766D02*
X0206104Y0257766D01*
X0206104Y0257900D02*
X0206005Y0257900D01*
X0205057Y0257750D01*
X0204143Y0257453D01*
X0203288Y0257017D01*
X0202511Y0256453D01*
X0201832Y0255774D01*
X0201268Y0254997D01*
X0200832Y0254142D01*
X0200535Y0253228D01*
X0200385Y0252280D01*
X0200385Y0252181D01*
X0206104Y0252181D01*
X0206104Y0257900D01*
X0205161Y0257766D02*
X0156351Y0257766D01*
X0155673Y0256168D02*
X0163139Y0256168D01*
X0163773Y0256802D02*
X0162113Y0255142D01*
X0161215Y0252974D01*
X0161215Y0250626D01*
X0162113Y0248458D01*
X0163773Y0246798D01*
X0165941Y0245900D01*
X0168289Y0245900D01*
X0170457Y0246798D01*
X0172117Y0248458D01*
X0173015Y0250626D01*
X0173015Y0252974D01*
X0172117Y0255142D01*
X0170457Y0256802D01*
X0168289Y0257700D01*
X0165941Y0257700D01*
X0163773Y0256802D01*
X0161876Y0254569D02*
X0154600Y0254569D01*
X0154600Y0252971D02*
X0161215Y0252971D01*
X0161215Y0251372D02*
X0154600Y0251372D01*
X0154600Y0249774D02*
X0161568Y0249774D01*
X0162396Y0248175D02*
X0154600Y0248175D01*
X0154600Y0246577D02*
X0164308Y0246577D01*
X0165214Y0244174D02*
X0160426Y0239386D01*
X0160000Y0238357D01*
X0160000Y0234940D01*
X0159660Y0234600D01*
X0147960Y0234600D01*
X0138386Y0244174D01*
X0137357Y0244600D01*
X0124940Y0244600D01*
X0123540Y0246000D01*
X0120060Y0246000D01*
X0117600Y0243540D01*
X0117600Y0241560D01*
X0110214Y0234174D01*
X0109426Y0233386D01*
X0109000Y0232357D01*
X0109000Y0212960D01*
X0105214Y0209174D01*
X0104426Y0208386D01*
X0104000Y0207357D01*
X0104000Y0186243D01*
X0104426Y0185214D01*
X0129000Y0160640D01*
X0129000Y0141243D01*
X0129426Y0140214D01*
X0131926Y0137714D01*
X0132250Y0137390D01*
X0132550Y0137045D01*
X0132641Y0136999D01*
X0134000Y0135640D01*
X0134000Y0087960D01*
X0130640Y0084600D01*
X0089940Y0084600D01*
X0088540Y0086000D01*
X0085060Y0086000D01*
X0083660Y0084600D01*
X0046243Y0084600D01*
X0045214Y0084174D01*
X0044426Y0083386D01*
X0039426Y0078386D01*
X0039000Y0077357D01*
X0039000Y0074940D01*
X0038660Y0074600D01*
X0029940Y0074600D01*
X0028540Y0076000D01*
X0025060Y0076000D01*
X0022600Y0073540D01*
X0022600Y0070060D01*
X0025060Y0067600D01*
X0028540Y0067600D01*
X0029940Y0069000D01*
X0038660Y0069000D01*
X0040060Y0067600D01*
X0043540Y0067600D01*
X0046000Y0070060D01*
X0046000Y0073540D01*
X0044600Y0074940D01*
X0044600Y0075640D01*
X0047960Y0079000D01*
X0083660Y0079000D01*
X0085060Y0077600D01*
X0088540Y0077600D01*
X0089940Y0079000D01*
X0102777Y0079000D01*
X0102400Y0078623D01*
X0102400Y0076800D01*
X0106800Y0076800D01*
X0111200Y0076800D01*
X0111200Y0078623D01*
X0110823Y0079000D01*
X0123060Y0079000D01*
X0122600Y0078540D01*
X0122600Y0075060D01*
X0125060Y0072600D01*
X0128540Y0072600D01*
X0131000Y0075060D01*
X0131000Y0078540D01*
X0130540Y0079000D01*
X0132357Y0079000D01*
X0133386Y0079426D01*
X0134174Y0080214D01*
X0136800Y0082840D01*
X0147600Y0072040D01*
X0147600Y0070060D01*
X0150060Y0067600D01*
X0153540Y0067600D01*
X0156000Y0070060D01*
X0156000Y0073540D01*
X0154600Y0074940D01*
X0154600Y0075640D01*
X0157960Y0079000D01*
X0170640Y0079000D01*
X0177600Y0072040D01*
X0177600Y0070060D01*
X0179000Y0068660D01*
X0179000Y0067960D01*
X0164426Y0053386D01*
X0164000Y0052357D01*
X0164000Y0049940D01*
X0162600Y0048540D01*
X0162600Y0046560D01*
X0150640Y0034600D01*
X0121243Y0034600D01*
X0120214Y0034174D01*
X0119426Y0033386D01*
X0117040Y0031000D01*
X0115060Y0031000D01*
X0112600Y0028540D01*
X0112600Y0026560D01*
X0110640Y0024600D01*
X0109940Y0024600D01*
X0108540Y0026000D01*
X0105060Y0026000D01*
X0102600Y0023540D01*
X0102600Y0020060D01*
X0105060Y0017600D01*
X0108540Y0017600D01*
X0109940Y0019000D01*
X0112357Y0019000D01*
X0113386Y0019426D01*
X0116560Y0022600D01*
X0118540Y0022600D01*
X0121000Y0025060D01*
X0121000Y0027040D01*
X0122960Y0029000D01*
X0127777Y0029000D01*
X0127400Y0028623D01*
X0127400Y0026800D01*
X0131800Y0026800D01*
X0136200Y0026800D01*
X0136200Y0028623D01*
X0135823Y0029000D01*
X0142777Y0029000D01*
X0142400Y0028623D01*
X0142400Y0026800D01*
X0146800Y0026800D01*
X0151200Y0026800D01*
X0151200Y0028623D01*
X0150823Y0029000D01*
X0152357Y0029000D01*
X0153386Y0029426D01*
X0166560Y0042600D01*
X0168540Y0042600D01*
X0171000Y0045060D01*
X0171000Y0048540D01*
X0169600Y0049940D01*
X0169600Y0050640D01*
X0181800Y0062840D01*
X0185214Y0059426D01*
X0186243Y0059000D01*
X0213660Y0059000D01*
X0215060Y0057600D01*
X0218540Y0057600D01*
X0221000Y0060060D01*
X0221000Y0063540D01*
X0218540Y0066000D01*
X0215060Y0066000D01*
X0213660Y0064600D01*
X0187960Y0064600D01*
X0184600Y0067960D01*
X0184600Y0068660D01*
X0186000Y0070060D01*
X0186000Y0073540D01*
X0183540Y0076000D01*
X0181560Y0076000D01*
X0173386Y0084174D01*
X0172357Y0084600D01*
X0156243Y0084600D01*
X0155214Y0084174D01*
X0154426Y0083386D01*
X0149426Y0078386D01*
X0149352Y0078207D01*
X0139600Y0087960D01*
X0139600Y0137357D01*
X0139324Y0138023D01*
X0139559Y0138101D01*
X0140060Y0137600D01*
X0143540Y0137600D01*
X0146000Y0140060D01*
X0146000Y0143540D01*
X0143540Y0146000D01*
X0140060Y0146000D01*
X0137600Y0143540D01*
X0137600Y0143351D01*
X0135056Y0142504D01*
X0134600Y0142960D01*
X0134600Y0162357D01*
X0134174Y0163386D01*
X0133386Y0164174D01*
X0109600Y0187960D01*
X0109600Y0193060D01*
X0110060Y0192600D01*
X0112733Y0192600D01*
X0129000Y0180400D01*
X0129000Y0174940D01*
X0127600Y0173540D01*
X0127600Y0170060D01*
X0130060Y0167600D01*
X0132040Y0167600D01*
X0134426Y0165214D01*
X0135214Y0164426D01*
X0136243Y0164000D01*
X0143660Y0164000D01*
X0145060Y0162600D01*
X0148540Y0162600D01*
X0151000Y0165060D01*
X0151000Y0168540D01*
X0149600Y0169940D01*
X0149600Y0170640D01*
X0152960Y0174000D01*
X0170640Y0174000D01*
X0174000Y0170640D01*
X0174000Y0169940D01*
X0172600Y0168540D01*
X0172600Y0165060D01*
X0174000Y0163660D01*
X0174000Y0147960D01*
X0172040Y0146000D01*
X0170060Y0146000D01*
X0167600Y0143540D01*
X0167600Y0140060D01*
X0170060Y0137600D01*
X0173540Y0137600D01*
X0176000Y0140060D01*
X0176000Y0142040D01*
X0179174Y0145214D01*
X0179600Y0146243D01*
X0179600Y0154000D01*
X0197357Y0154000D01*
X0198386Y0154426D01*
X0199174Y0155214D01*
X0201800Y0157840D01*
X0202719Y0156922D01*
X0202600Y0156635D01*
X0202600Y0154965D01*
X0203239Y0153421D01*
X0204421Y0152239D01*
X0204842Y0152065D01*
X0202400Y0149623D01*
X0202400Y0147800D01*
X0206800Y0147800D01*
X0211200Y0147800D01*
X0211200Y0149623D01*
X0208758Y0152065D01*
X0209179Y0152239D01*
X0210361Y0153421D01*
X0211000Y0154965D01*
X0211000Y0156635D01*
X0210361Y0158179D01*
X0209179Y0159361D01*
X0207635Y0160000D01*
X0207560Y0160000D01*
X0205760Y0161800D01*
X0209174Y0165214D01*
X0209600Y0166243D01*
X0209600Y0168660D01*
X0211000Y0170060D01*
X0211000Y0173540D01*
X0208540Y0176000D01*
X0205060Y0176000D01*
X0202600Y0173540D01*
X0202600Y0170060D01*
X0204000Y0168660D01*
X0204000Y0167960D01*
X0200214Y0164174D01*
X0199426Y0163386D01*
X0195640Y0159600D01*
X0179600Y0159600D01*
X0179600Y0163660D01*
X0181000Y0165060D01*
X0181000Y0168540D01*
X0179600Y0169940D01*
X0179600Y0172357D01*
X0179174Y0173386D01*
X0174174Y0178386D01*
X0173386Y0179174D01*
X0172357Y0179600D01*
X0151243Y0179600D01*
X0150214Y0179174D01*
X0145214Y0174174D01*
X0144426Y0173386D01*
X0144000Y0172357D01*
X0144000Y0169940D01*
X0143660Y0169600D01*
X0137960Y0169600D01*
X0136000Y0171560D01*
X0136000Y0173540D01*
X0134600Y0174940D01*
X0134600Y0181447D01*
X0134651Y0181645D01*
X0134600Y0181999D01*
X0134600Y0182357D01*
X0134522Y0182545D01*
X0134493Y0182747D01*
X0134311Y0183055D01*
X0134174Y0183386D01*
X0134029Y0183530D01*
X0133926Y0183706D01*
X0133639Y0183921D01*
X0133386Y0184174D01*
X0133198Y0184252D01*
X0116000Y0197150D01*
X0116000Y0198540D01*
X0113540Y0201000D01*
X0110060Y0201000D01*
X0109600Y0200540D01*
X0109600Y0205640D01*
X0114174Y0210214D01*
X0114600Y0211243D01*
X0114600Y0230640D01*
X0121560Y0237600D01*
X0123540Y0237600D01*
X0124940Y0239000D01*
X0135640Y0239000D01*
X0144426Y0230214D01*
X0145214Y0229426D01*
X0146243Y0229000D01*
X0159660Y0229000D01*
X0160421Y0228239D01*
X0161965Y0227600D01*
X0163635Y0227600D01*
X0165179Y0228239D01*
X0166361Y0229421D01*
X0166535Y0229842D01*
X0168977Y0227400D01*
X0170800Y0227400D01*
X0172623Y0227400D01*
X0175200Y0229977D01*
X0175200Y0231800D01*
X0175200Y0233623D01*
X0172623Y0236200D01*
X0170800Y0236200D01*
X0170800Y0231800D01*
X0170800Y0231800D01*
X0175200Y0231800D01*
X0170800Y0231800D01*
X0170800Y0231800D01*
X0170800Y0236200D01*
X0168977Y0236200D01*
X0166535Y0233758D01*
X0166361Y0234179D01*
X0165600Y0234940D01*
X0165600Y0236640D01*
X0167960Y0239000D01*
X0210640Y0239000D01*
X0212600Y0237040D01*
X0212600Y0233365D01*
X0213239Y0231821D01*
X0214421Y0230639D01*
X0215965Y0230000D01*
X0217635Y0230000D01*
X0219179Y0230639D01*
X0220361Y0231821D01*
X0221000Y0233365D01*
X0221000Y0240235D01*
X0220361Y0241779D01*
X0219179Y0242961D01*
X0217635Y0243600D01*
X0215965Y0243600D01*
X0214547Y0243013D01*
X0214174Y0243386D01*
X0213386Y0244174D01*
X0212357Y0244600D01*
X0166243Y0244600D01*
X0165214Y0244174D01*
X0164420Y0243380D02*
X0156000Y0243380D01*
X0156000Y0241781D02*
X0162821Y0241781D01*
X0161223Y0240183D02*
X0156000Y0240183D01*
X0154524Y0238584D02*
X0160094Y0238584D01*
X0160000Y0236986D02*
X0145574Y0236986D01*
X0143976Y0238584D02*
X0149076Y0238584D01*
X0147600Y0240183D02*
X0142377Y0240183D01*
X0140779Y0241781D02*
X0147600Y0241781D01*
X0147600Y0243380D02*
X0139180Y0243380D01*
X0136056Y0238584D02*
X0124524Y0238584D01*
X0120945Y0236986D02*
X0137655Y0236986D01*
X0139253Y0235387D02*
X0119347Y0235387D01*
X0117748Y0233789D02*
X0140852Y0233789D01*
X0142450Y0232190D02*
X0116150Y0232190D01*
X0114600Y0230592D02*
X0119652Y0230592D01*
X0120060Y0231000D02*
X0117600Y0228540D01*
X0117600Y0225060D01*
X0120060Y0222600D01*
X0123540Y0222600D01*
X0126000Y0225060D01*
X0126000Y0228540D01*
X0123540Y0231000D01*
X0120060Y0231000D01*
X0118053Y0228993D02*
X0114600Y0228993D01*
X0114600Y0227395D02*
X0117600Y0227395D01*
X0117600Y0225796D02*
X0114600Y0225796D01*
X0114600Y0224198D02*
X0118463Y0224198D01*
X0114600Y0222599D02*
X0231921Y0222599D01*
X0231921Y0221001D02*
X0197822Y0221001D01*
X0197623Y0221200D02*
X0195800Y0221200D01*
X0195800Y0216800D01*
X0200200Y0216800D01*
X0200200Y0218623D01*
X0197623Y0221200D01*
X0195800Y0221200D02*
X0193977Y0221200D01*
X0191535Y0218758D01*
X0191361Y0219179D01*
X0190179Y0220361D01*
X0188635Y0221000D01*
X0186965Y0221000D01*
X0185421Y0220361D01*
X0184239Y0219179D01*
X0183600Y0217635D01*
X0183600Y0216560D01*
X0181640Y0214600D01*
X0174940Y0214600D01*
X0173540Y0216000D01*
X0170060Y0216000D01*
X0167600Y0213540D01*
X0167600Y0210060D01*
X0170060Y0207600D01*
X0173540Y0207600D01*
X0174940Y0209000D01*
X0180640Y0209000D01*
X0189000Y0200640D01*
X0189000Y0199940D01*
X0187600Y0198540D01*
X0187600Y0195060D01*
X0190060Y0192600D01*
X0193540Y0192600D01*
X0196000Y0195060D01*
X0196000Y0198540D01*
X0194600Y0199940D01*
X0194600Y0202357D01*
X0194174Y0203386D01*
X0193386Y0204174D01*
X0186260Y0211300D01*
X0187560Y0212600D01*
X0188635Y0212600D01*
X0190179Y0213239D01*
X0191361Y0214421D01*
X0191535Y0214842D01*
X0193977Y0212400D01*
X0195800Y0212400D01*
X0197623Y0212400D01*
X0200200Y0214977D01*
X0200200Y0216800D01*
X0195800Y0216800D01*
X0195800Y0216800D01*
X0195800Y0216800D01*
X0195800Y0212400D01*
X0195800Y0216800D01*
X0195800Y0216800D01*
X0195800Y0221200D01*
X0195800Y0221001D02*
X0195800Y0221001D01*
X0195800Y0219402D02*
X0195800Y0219402D01*
X0195800Y0217803D02*
X0195800Y0217803D01*
X0195800Y0216205D02*
X0195800Y0216205D01*
X0195800Y0214606D02*
X0195800Y0214606D01*
X0195800Y0213008D02*
X0195800Y0213008D01*
X0198230Y0213008D02*
X0231921Y0213008D01*
X0231921Y0214606D02*
X0199829Y0214606D01*
X0200200Y0216205D02*
X0231921Y0216205D01*
X0231921Y0217803D02*
X0200200Y0217803D01*
X0199421Y0219402D02*
X0231921Y0219402D01*
X0231921Y0224198D02*
X0125137Y0224198D01*
X0126000Y0225796D02*
X0231921Y0225796D01*
X0231921Y0227395D02*
X0126000Y0227395D01*
X0125547Y0228993D02*
X0159667Y0228993D01*
X0165933Y0228993D02*
X0167384Y0228993D01*
X0170800Y0228993D02*
X0170800Y0228993D01*
X0170800Y0227400D02*
X0170800Y0231800D01*
X0170800Y0227400D01*
X0170800Y0230592D02*
X0170800Y0230592D01*
X0170800Y0231800D02*
X0170800Y0231800D01*
X0170800Y0232190D02*
X0170800Y0232190D01*
X0170800Y0233789D02*
X0170800Y0233789D01*
X0170800Y0235387D02*
X0170800Y0235387D01*
X0168165Y0235387D02*
X0165600Y0235387D01*
X0165945Y0236986D02*
X0212600Y0236986D01*
X0212600Y0235387D02*
X0173435Y0235387D01*
X0175034Y0233789D02*
X0212600Y0233789D01*
X0213086Y0232190D02*
X0175200Y0232190D01*
X0175200Y0230592D02*
X0214536Y0230592D01*
X0219064Y0230592D02*
X0231921Y0230592D01*
X0231921Y0232190D02*
X0220514Y0232190D01*
X0221000Y0233789D02*
X0231921Y0233789D01*
X0231921Y0235387D02*
X0221000Y0235387D01*
X0221000Y0236986D02*
X0231921Y0236986D01*
X0231921Y0238584D02*
X0221000Y0238584D01*
X0221000Y0240183D02*
X0231921Y0240183D01*
X0231921Y0241781D02*
X0220359Y0241781D01*
X0218167Y0243380D02*
X0231921Y0243380D01*
X0231921Y0244978D02*
X0154600Y0244978D01*
X0149000Y0244978D02*
X0124561Y0244978D01*
X0120996Y0249774D02*
X0149000Y0249774D01*
X0149000Y0251372D02*
X0121200Y0251372D01*
X0119038Y0244978D02*
X0011600Y0244978D01*
X0011600Y0243380D02*
X0117600Y0243380D01*
X0117600Y0241781D02*
X0011600Y0241781D01*
X0011600Y0240183D02*
X0116223Y0240183D01*
X0114624Y0238584D02*
X0069956Y0238584D01*
X0070361Y0238179D02*
X0069179Y0239361D01*
X0067635Y0240000D01*
X0065965Y0240000D01*
X0064421Y0239361D01*
X0063239Y0238179D01*
X0062600Y0236635D01*
X0062600Y0234965D01*
X0063239Y0233421D01*
X0064421Y0232239D01*
X0065042Y0231982D01*
X0062600Y0229540D01*
X0062600Y0226060D01*
X0065060Y0223600D01*
X0068540Y0223600D01*
X0071000Y0226060D01*
X0071000Y0229540D01*
X0068558Y0231982D01*
X0069179Y0232239D01*
X0070361Y0233421D01*
X0071000Y0234965D01*
X0071000Y0236635D01*
X0070361Y0238179D01*
X0070855Y0236986D02*
X0113026Y0236986D01*
X0111427Y0235387D02*
X0071000Y0235387D01*
X0070513Y0233789D02*
X0109829Y0233789D01*
X0109000Y0232190D02*
X0069060Y0232190D01*
X0069948Y0230592D02*
X0099652Y0230592D01*
X0100060Y0231000D02*
X0097600Y0228540D01*
X0097600Y0225060D01*
X0100060Y0222600D01*
X0103540Y0222600D01*
X0106000Y0225060D01*
X0106000Y0228540D01*
X0103540Y0231000D01*
X0100060Y0231000D01*
X0098053Y0228993D02*
X0071000Y0228993D01*
X0071000Y0227395D02*
X0097600Y0227395D01*
X0097600Y0225796D02*
X0070736Y0225796D01*
X0069137Y0224198D02*
X0098463Y0224198D01*
X0103948Y0230592D02*
X0109000Y0230592D01*
X0109000Y0228993D02*
X0105547Y0228993D01*
X0106000Y0227395D02*
X0109000Y0227395D01*
X0109000Y0225796D02*
X0106000Y0225796D01*
X0105137Y0224198D02*
X0109000Y0224198D01*
X0109000Y0222599D02*
X0041559Y0222599D01*
X0043157Y0224198D02*
X0064463Y0224198D01*
X0062864Y0225796D02*
X0044756Y0225796D01*
X0046354Y0227395D02*
X0062600Y0227395D01*
X0062600Y0228993D02*
X0049933Y0228993D01*
X0051000Y0230060D02*
X0051000Y0233540D01*
X0048540Y0236000D01*
X0045060Y0236000D01*
X0042600Y0233540D01*
X0042600Y0231560D01*
X0029790Y0218750D01*
X0029179Y0219361D01*
X0027635Y0220000D01*
X0025965Y0220000D01*
X0024421Y0219361D01*
X0023239Y0218179D01*
X0022600Y0216635D01*
X0022600Y0215560D01*
X0019426Y0212386D01*
X0019000Y0211357D01*
X0019000Y0177254D01*
X0018968Y0177157D01*
X0019000Y0176701D01*
X0019000Y0176243D01*
X0019039Y0176148D01*
X0019047Y0176046D01*
X0019251Y0175637D01*
X0019426Y0175214D01*
X0019499Y0175141D01*
X0022733Y0168673D01*
X0022600Y0168540D01*
X0022600Y0165060D01*
X0025060Y0162600D01*
X0028540Y0162600D01*
X0029940Y0164000D01*
X0038660Y0164000D01*
X0040060Y0162600D01*
X0043540Y0162600D01*
X0046000Y0165060D01*
X0046000Y0167040D01*
X0052960Y0174000D01*
X0079000Y0174000D01*
X0079000Y0157540D01*
X0078239Y0156779D01*
X0077600Y0155235D01*
X0077600Y0148365D01*
X0078239Y0146821D01*
X0079421Y0145639D01*
X0080965Y0145000D01*
X0082635Y0145000D01*
X0084179Y0145639D01*
X0085361Y0146821D01*
X0086000Y0148365D01*
X0086000Y0155235D01*
X0085361Y0156779D01*
X0084600Y0157540D01*
X0084600Y0174000D01*
X0105640Y0174000D01*
X0109000Y0170640D01*
X0109000Y0169940D01*
X0107600Y0168540D01*
X0107600Y0165060D01*
X0110060Y0162600D01*
X0113540Y0162600D01*
X0116000Y0165060D01*
X0116000Y0168540D01*
X0114600Y0169940D01*
X0114600Y0172357D01*
X0114174Y0173386D01*
X0113386Y0174174D01*
X0108386Y0179174D01*
X0107357Y0179600D01*
X0051243Y0179600D01*
X0050214Y0179174D01*
X0049426Y0178386D01*
X0042040Y0171000D01*
X0040060Y0171000D01*
X0038660Y0169600D01*
X0029940Y0169600D01*
X0028540Y0171000D01*
X0027830Y0171000D01*
X0024600Y0177461D01*
X0024600Y0193060D01*
X0025060Y0192600D01*
X0028540Y0192600D01*
X0031000Y0195060D01*
X0031000Y0198540D01*
X0028540Y0201000D01*
X0025060Y0201000D01*
X0024600Y0200540D01*
X0024600Y0203777D01*
X0024977Y0203400D01*
X0026800Y0203400D01*
X0028623Y0203400D01*
X0031200Y0205977D01*
X0031200Y0207800D01*
X0031200Y0209623D01*
X0028758Y0212065D01*
X0029179Y0212239D01*
X0029940Y0213000D01*
X0031357Y0213000D01*
X0032386Y0213426D01*
X0046560Y0227600D01*
X0048540Y0227600D01*
X0051000Y0230060D01*
X0051000Y0230592D02*
X0063652Y0230592D01*
X0064540Y0232190D02*
X0051000Y0232190D01*
X0050751Y0233789D02*
X0063087Y0233789D01*
X0062600Y0235387D02*
X0049153Y0235387D01*
X0044447Y0235387D02*
X0011600Y0235387D01*
X0011600Y0233789D02*
X0042849Y0233789D01*
X0042600Y0232190D02*
X0011600Y0232190D01*
X0011600Y0230592D02*
X0041632Y0230592D01*
X0040033Y0228993D02*
X0011600Y0228993D01*
X0011600Y0227395D02*
X0038435Y0227395D01*
X0036836Y0225796D02*
X0011600Y0225796D01*
X0011600Y0224198D02*
X0035238Y0224198D01*
X0033639Y0222599D02*
X0011600Y0222599D01*
X0011600Y0221001D02*
X0032041Y0221001D01*
X0030442Y0219402D02*
X0029079Y0219402D01*
X0024521Y0219402D02*
X0011600Y0219402D01*
X0011600Y0217803D02*
X0023084Y0217803D01*
X0022600Y0216205D02*
X0011600Y0216205D01*
X0011600Y0214606D02*
X0021647Y0214606D01*
X0020048Y0213008D02*
X0011600Y0213008D01*
X0011600Y0211409D02*
X0019022Y0211409D01*
X0019000Y0209811D02*
X0011600Y0209811D01*
X0011600Y0208212D02*
X0019000Y0208212D01*
X0019000Y0206614D02*
X0011600Y0206614D01*
X0011600Y0205015D02*
X0019000Y0205015D01*
X0019000Y0203417D02*
X0011600Y0203417D01*
X0011600Y0201818D02*
X0019000Y0201818D01*
X0019000Y0200220D02*
X0011600Y0200220D01*
X0011600Y0198621D02*
X0019000Y0198621D01*
X0019000Y0197023D02*
X0011600Y0197023D01*
X0011600Y0195424D02*
X0019000Y0195424D01*
X0019000Y0193826D02*
X0011600Y0193826D01*
X0011600Y0192227D02*
X0019000Y0192227D01*
X0019000Y0190629D02*
X0011600Y0190629D01*
X0011600Y0189030D02*
X0019000Y0189030D01*
X0019000Y0187432D02*
X0011600Y0187432D01*
X0011600Y0185833D02*
X0019000Y0185833D01*
X0019000Y0184235D02*
X0011600Y0184235D01*
X0011600Y0182636D02*
X0019000Y0182636D01*
X0019000Y0181038D02*
X0011600Y0181038D01*
X0011600Y0179439D02*
X0019000Y0179439D01*
X0019000Y0177841D02*
X0011600Y0177841D01*
X0011600Y0176242D02*
X0019000Y0176242D01*
X0019748Y0174644D02*
X0011600Y0174644D01*
X0011600Y0173045D02*
X0020547Y0173045D01*
X0021346Y0171447D02*
X0011600Y0171447D01*
X0011600Y0169848D02*
X0022145Y0169848D01*
X0022600Y0168250D02*
X0011600Y0168250D01*
X0011600Y0166651D02*
X0022600Y0166651D01*
X0022608Y0165053D02*
X0011600Y0165053D01*
X0011600Y0163454D02*
X0024206Y0163454D01*
X0029394Y0163454D02*
X0039206Y0163454D01*
X0044394Y0163454D02*
X0053923Y0163454D01*
X0054977Y0162400D02*
X0052400Y0164977D01*
X0052400Y0166800D01*
X0056800Y0166800D01*
X0056800Y0166800D01*
X0056800Y0171200D01*
X0058623Y0171200D01*
X0061200Y0168623D01*
X0061200Y0166800D01*
X0056800Y0166800D01*
X0056800Y0166800D01*
X0056800Y0166800D01*
X0056800Y0171200D01*
X0054977Y0171200D01*
X0052400Y0168623D01*
X0052400Y0166800D01*
X0056800Y0166800D01*
X0061200Y0166800D01*
X0061200Y0164977D01*
X0058623Y0162400D01*
X0056800Y0162400D01*
X0056800Y0166800D01*
X0056800Y0166800D01*
X0056800Y0162400D01*
X0054977Y0162400D01*
X0056800Y0163454D02*
X0056800Y0163454D01*
X0056800Y0165053D02*
X0056800Y0165053D01*
X0056800Y0166651D02*
X0056800Y0166651D01*
X0056800Y0168250D02*
X0056800Y0168250D01*
X0056800Y0169848D02*
X0056800Y0169848D01*
X0053626Y0169848D02*
X0048808Y0169848D01*
X0047209Y0168250D02*
X0052400Y0168250D01*
X0052400Y0166651D02*
X0046000Y0166651D01*
X0045992Y0165053D02*
X0052400Y0165053D01*
X0050406Y0171447D02*
X0079000Y0171447D01*
X0079000Y0173045D02*
X0052005Y0173045D01*
X0047282Y0176242D02*
X0025209Y0176242D01*
X0024600Y0177841D02*
X0048881Y0177841D01*
X0050855Y0179439D02*
X0024600Y0179439D01*
X0024600Y0181038D02*
X0108602Y0181038D01*
X0107745Y0179439D02*
X0110201Y0179439D01*
X0109719Y0177841D02*
X0111799Y0177841D01*
X0111318Y0176242D02*
X0113398Y0176242D01*
X0112916Y0174644D02*
X0114997Y0174644D01*
X0114315Y0173045D02*
X0116595Y0173045D01*
X0118194Y0171447D02*
X0114600Y0171447D01*
X0114692Y0169848D02*
X0119792Y0169848D01*
X0121391Y0168250D02*
X0116000Y0168250D01*
X0116000Y0166651D02*
X0122989Y0166651D01*
X0124588Y0165053D02*
X0115992Y0165053D01*
X0114394Y0163454D02*
X0126186Y0163454D01*
X0125142Y0161802D02*
X0122974Y0162700D01*
X0120626Y0162700D01*
X0118458Y0161802D01*
X0116798Y0160142D01*
X0115900Y0157974D01*
X0115900Y0155626D01*
X0116798Y0153458D01*
X0118458Y0151798D01*
X0120626Y0150900D01*
X0122974Y0150900D01*
X0125142Y0151798D01*
X0126802Y0153458D01*
X0127700Y0155626D01*
X0127700Y0157974D01*
X0126802Y0160142D01*
X0125142Y0161802D01*
X0125012Y0161856D02*
X0127785Y0161856D01*
X0126687Y0160257D02*
X0129000Y0160257D01*
X0129000Y0158659D02*
X0127416Y0158659D01*
X0127700Y0157060D02*
X0129000Y0157060D01*
X0129000Y0155462D02*
X0127632Y0155462D01*
X0126970Y0153863D02*
X0129000Y0153863D01*
X0129000Y0152265D02*
X0125608Y0152265D01*
X0129000Y0150666D02*
X0099941Y0150666D01*
X0100399Y0151125D02*
X0100941Y0150900D01*
X0103289Y0150900D01*
X0105457Y0151798D01*
X0107117Y0153458D01*
X0108015Y0155626D01*
X0108015Y0157974D01*
X0107117Y0160142D01*
X0105457Y0161802D01*
X0103289Y0162700D01*
X0100941Y0162700D01*
X0098773Y0161802D01*
X0097113Y0160142D01*
X0096215Y0157974D01*
X0096215Y0155626D01*
X0096439Y0155084D01*
X0089426Y0148071D01*
X0089000Y0147042D01*
X0089000Y0116243D01*
X0089426Y0115214D01*
X0090214Y0114426D01*
X0094000Y0110640D01*
X0094000Y0109940D01*
X0092600Y0108540D01*
X0092600Y0105060D01*
X0093060Y0104600D01*
X0089940Y0104600D01*
X0088540Y0106000D01*
X0085060Y0106000D01*
X0082600Y0103540D01*
X0082600Y0100060D01*
X0085060Y0097600D01*
X0088540Y0097600D01*
X0089940Y0099000D01*
X0122357Y0099000D01*
X0123386Y0099426D01*
X0124174Y0100214D01*
X0126560Y0102600D01*
X0128540Y0102600D01*
X0131000Y0105060D01*
X0131000Y0108540D01*
X0128540Y0111000D01*
X0125060Y0111000D01*
X0122600Y0108540D01*
X0122600Y0106560D01*
X0120640Y0104600D01*
X0100540Y0104600D01*
X0101000Y0105060D01*
X0101000Y0108540D01*
X0099600Y0109940D01*
X0099600Y0112357D01*
X0099174Y0113386D01*
X0094600Y0117960D01*
X0094600Y0133060D01*
X0095060Y0132600D01*
X0097040Y0132600D01*
X0104000Y0125640D01*
X0104000Y0124940D01*
X0102600Y0123540D01*
X0102600Y0120060D01*
X0105060Y0117600D01*
X0108540Y0117600D01*
X0111000Y0120060D01*
X0111000Y0123540D01*
X0109600Y0124940D01*
X0109600Y0127357D01*
X0109174Y0128386D01*
X0101000Y0136560D01*
X0101000Y0138540D01*
X0098540Y0141000D01*
X0095060Y0141000D01*
X0094600Y0140540D01*
X0094600Y0145325D01*
X0100399Y0151125D01*
X0098342Y0149068D02*
X0129000Y0149068D01*
X0129000Y0147469D02*
X0096744Y0147469D01*
X0095145Y0145870D02*
X0129000Y0145870D01*
X0129000Y0144272D02*
X0094600Y0144272D01*
X0094600Y0142673D02*
X0129000Y0142673D01*
X0129070Y0141075D02*
X0094600Y0141075D01*
X0100063Y0139476D02*
X0123537Y0139476D01*
X0122600Y0138540D02*
X0122600Y0135060D01*
X0125060Y0132600D01*
X0128540Y0132600D01*
X0131000Y0135060D01*
X0131000Y0138540D01*
X0128540Y0141000D01*
X0125060Y0141000D01*
X0122600Y0138540D01*
X0122600Y0137878D02*
X0101000Y0137878D01*
X0101280Y0136279D02*
X0122600Y0136279D01*
X0122979Y0134681D02*
X0102879Y0134681D01*
X0104477Y0133082D02*
X0124578Y0133082D01*
X0129022Y0133082D02*
X0134000Y0133082D01*
X0134000Y0131484D02*
X0106076Y0131484D01*
X0107674Y0129885D02*
X0134000Y0129885D01*
X0134000Y0128287D02*
X0109215Y0128287D01*
X0109600Y0126688D02*
X0134000Y0126688D01*
X0134000Y0125090D02*
X0129733Y0125090D01*
X0128623Y0126200D02*
X0131200Y0123623D01*
X0131200Y0121800D01*
X0126800Y0121800D01*
X0126800Y0121800D01*
X0126800Y0121800D01*
X0126800Y0126200D01*
X0128623Y0126200D01*
X0126800Y0126200D02*
X0124977Y0126200D01*
X0122400Y0123623D01*
X0122400Y0121800D01*
X0126800Y0121800D01*
X0131200Y0121800D01*
X0131200Y0119977D01*
X0128623Y0117400D01*
X0126800Y0117400D01*
X0126800Y0121800D01*
X0126800Y0121800D01*
X0126800Y0121800D01*
X0126800Y0126200D01*
X0126800Y0125090D02*
X0126800Y0125090D01*
X0126800Y0123491D02*
X0126800Y0123491D01*
X0126800Y0121893D02*
X0126800Y0121893D01*
X0126800Y0121800D02*
X0122400Y0121800D01*
X0122400Y0119977D01*
X0124977Y0117400D01*
X0126800Y0117400D01*
X0126800Y0121800D01*
X0126800Y0120294D02*
X0126800Y0120294D01*
X0126800Y0118696D02*
X0126800Y0118696D01*
X0129918Y0118696D02*
X0134000Y0118696D01*
X0134000Y0120294D02*
X0131200Y0120294D01*
X0131200Y0121893D02*
X0134000Y0121893D01*
X0134000Y0123491D02*
X0131200Y0123491D01*
X0134000Y0117097D02*
X0095462Y0117097D01*
X0094600Y0118696D02*
X0103965Y0118696D01*
X0102600Y0120294D02*
X0094600Y0120294D01*
X0094600Y0121893D02*
X0102600Y0121893D01*
X0102600Y0123491D02*
X0094600Y0123491D01*
X0094600Y0125090D02*
X0104000Y0125090D01*
X0102952Y0126688D02*
X0094600Y0126688D01*
X0094600Y0128287D02*
X0101353Y0128287D01*
X0099755Y0129885D02*
X0094600Y0129885D01*
X0094600Y0131484D02*
X0098156Y0131484D01*
X0089000Y0131484D02*
X0011600Y0131484D01*
X0011600Y0133082D02*
X0089000Y0133082D01*
X0089000Y0134681D02*
X0011600Y0134681D01*
X0011600Y0136279D02*
X0089000Y0136279D01*
X0089000Y0137878D02*
X0057306Y0137878D01*
X0056635Y0137600D02*
X0058179Y0138239D01*
X0059361Y0139421D01*
X0060000Y0140965D01*
X0060000Y0142635D01*
X0059361Y0144179D01*
X0058179Y0145361D01*
X0056635Y0146000D01*
X0054965Y0146000D01*
X0053421Y0145361D01*
X0052239Y0144179D01*
X0052065Y0143758D01*
X0049623Y0146200D01*
X0047800Y0146200D01*
X0047800Y0141800D01*
X0047800Y0141800D01*
X0047800Y0137400D01*
X0049623Y0137400D01*
X0052065Y0139842D01*
X0052239Y0139421D01*
X0053421Y0138239D01*
X0054965Y0137600D01*
X0056635Y0137600D01*
X0054294Y0137878D02*
X0050100Y0137878D01*
X0051699Y0139476D02*
X0052216Y0139476D01*
X0052332Y0144272D02*
X0051551Y0144272D01*
X0049952Y0145870D02*
X0054652Y0145870D01*
X0056948Y0145870D02*
X0068907Y0145870D01*
X0068934Y0145844D02*
X0069494Y0145437D01*
X0070111Y0145122D01*
X0070770Y0144908D01*
X0071454Y0144800D01*
X0071800Y0144800D01*
X0072146Y0144800D01*
X0072830Y0144908D01*
X0073489Y0145122D01*
X0074106Y0145437D01*
X0074666Y0145844D01*
X0075156Y0146334D01*
X0075563Y0146894D01*
X0075878Y0147511D01*
X0076092Y0148170D01*
X0076200Y0148854D01*
X0076200Y0151800D01*
X0076200Y0154746D01*
X0076092Y0155430D01*
X0075878Y0156089D01*
X0075563Y0156706D01*
X0075156Y0157266D01*
X0074666Y0157756D01*
X0074106Y0158163D01*
X0073489Y0158478D01*
X0072830Y0158692D01*
X0072146Y0158800D01*
X0071800Y0158800D01*
X0071800Y0151800D01*
X0071800Y0151800D01*
X0076200Y0151800D01*
X0071800Y0151800D01*
X0071800Y0151800D01*
X0071800Y0151800D01*
X0067400Y0151800D01*
X0067400Y0154746D01*
X0067508Y0155430D01*
X0067722Y0156089D01*
X0068037Y0156706D01*
X0068444Y0157266D01*
X0068934Y0157756D01*
X0069494Y0158163D01*
X0070111Y0158478D01*
X0070770Y0158692D01*
X0071454Y0158800D01*
X0071800Y0158800D01*
X0071800Y0151800D01*
X0071800Y0144800D01*
X0071800Y0151800D01*
X0071800Y0151800D01*
X0067400Y0151800D01*
X0067400Y0148854D01*
X0067508Y0148170D01*
X0067722Y0147511D01*
X0068037Y0146894D01*
X0068444Y0146334D01*
X0068934Y0145844D01*
X0067744Y0147469D02*
X0011600Y0147469D01*
X0011600Y0145870D02*
X0045648Y0145870D01*
X0045977Y0146200D02*
X0043400Y0143623D01*
X0043400Y0141800D01*
X0047800Y0141800D01*
X0047800Y0141800D01*
X0047800Y0141800D01*
X0047800Y0146200D01*
X0045977Y0146200D01*
X0047800Y0145870D02*
X0047800Y0145870D01*
X0047800Y0144272D02*
X0047800Y0144272D01*
X0047800Y0142673D02*
X0047800Y0142673D01*
X0047800Y0141800D02*
X0043400Y0141800D01*
X0043400Y0139977D01*
X0045977Y0137400D01*
X0047800Y0137400D01*
X0047800Y0141800D01*
X0047800Y0141075D02*
X0047800Y0141075D01*
X0047800Y0139476D02*
X0047800Y0139476D01*
X0047800Y0137878D02*
X0047800Y0137878D01*
X0045500Y0137878D02*
X0011600Y0137878D01*
X0011600Y0139476D02*
X0043901Y0139476D01*
X0043400Y0141075D02*
X0011600Y0141075D01*
X0011600Y0142673D02*
X0043400Y0142673D01*
X0044049Y0144272D02*
X0011600Y0144272D01*
X0011600Y0149068D02*
X0067400Y0149068D01*
X0067400Y0150666D02*
X0011600Y0150666D01*
X0011600Y0152265D02*
X0067400Y0152265D01*
X0067400Y0153863D02*
X0011600Y0153863D01*
X0011600Y0155462D02*
X0067518Y0155462D01*
X0068294Y0157060D02*
X0011600Y0157060D01*
X0011600Y0158659D02*
X0070668Y0158659D01*
X0071800Y0158659D02*
X0071800Y0158659D01*
X0072932Y0158659D02*
X0079000Y0158659D01*
X0079000Y0160257D02*
X0011600Y0160257D01*
X0011600Y0161856D02*
X0079000Y0161856D01*
X0079000Y0163454D02*
X0059677Y0163454D01*
X0061200Y0165053D02*
X0079000Y0165053D01*
X0079000Y0166651D02*
X0061200Y0166651D01*
X0061200Y0168250D02*
X0079000Y0168250D01*
X0079000Y0169848D02*
X0059974Y0169848D01*
X0071800Y0157060D02*
X0071800Y0157060D01*
X0071800Y0155462D02*
X0071800Y0155462D01*
X0071800Y0153863D02*
X0071800Y0153863D01*
X0071800Y0152265D02*
X0071800Y0152265D01*
X0071800Y0150666D02*
X0071800Y0150666D01*
X0071800Y0149068D02*
X0071800Y0149068D01*
X0071800Y0147469D02*
X0071800Y0147469D01*
X0071800Y0145870D02*
X0071800Y0145870D01*
X0074693Y0145870D02*
X0079190Y0145870D01*
X0077971Y0147469D02*
X0075856Y0147469D01*
X0076200Y0149068D02*
X0077600Y0149068D01*
X0077600Y0150666D02*
X0076200Y0150666D01*
X0076200Y0152265D02*
X0077600Y0152265D01*
X0077600Y0153863D02*
X0076200Y0153863D01*
X0076082Y0155462D02*
X0077694Y0155462D01*
X0078520Y0157060D02*
X0075306Y0157060D01*
X0084410Y0145870D02*
X0089000Y0145870D01*
X0089000Y0144272D02*
X0059268Y0144272D01*
X0059984Y0142673D02*
X0089000Y0142673D01*
X0089000Y0141075D02*
X0060000Y0141075D01*
X0059384Y0139476D02*
X0089000Y0139476D01*
X0089177Y0147469D02*
X0085629Y0147469D01*
X0086000Y0149068D02*
X0090423Y0149068D01*
X0092021Y0150666D02*
X0086000Y0150666D01*
X0086000Y0152265D02*
X0093620Y0152265D01*
X0095218Y0153863D02*
X0086000Y0153863D01*
X0085906Y0155462D02*
X0096283Y0155462D01*
X0096215Y0157060D02*
X0085080Y0157060D01*
X0084600Y0158659D02*
X0096499Y0158659D01*
X0097228Y0160257D02*
X0084600Y0160257D01*
X0084600Y0161856D02*
X0098903Y0161856D01*
X0098623Y0162400D02*
X0101200Y0164977D01*
X0101200Y0166800D01*
X0101200Y0168623D01*
X0098623Y0171200D01*
X0096800Y0171200D01*
X0096800Y0166800D01*
X0096800Y0166800D01*
X0101200Y0166800D01*
X0096800Y0166800D01*
X0096800Y0166800D01*
X0096800Y0166800D01*
X0092400Y0166800D01*
X0092400Y0168623D01*
X0094977Y0171200D01*
X0096800Y0171200D01*
X0096800Y0166800D01*
X0096800Y0162400D01*
X0098623Y0162400D01*
X0099677Y0163454D02*
X0109206Y0163454D01*
X0107608Y0165053D02*
X0101200Y0165053D01*
X0101200Y0166651D02*
X0107600Y0166651D01*
X0107600Y0168250D02*
X0101200Y0168250D01*
X0099974Y0169848D02*
X0108908Y0169848D01*
X0108194Y0171447D02*
X0084600Y0171447D01*
X0084600Y0173045D02*
X0106595Y0173045D01*
X0107004Y0182636D02*
X0024600Y0182636D01*
X0024600Y0184235D02*
X0105405Y0184235D01*
X0104170Y0185833D02*
X0084373Y0185833D01*
X0084179Y0185639D02*
X0085361Y0186821D01*
X0086000Y0188365D01*
X0086000Y0195235D01*
X0085361Y0196779D01*
X0084179Y0197961D01*
X0082635Y0198600D01*
X0080965Y0198600D01*
X0079421Y0197961D01*
X0078239Y0196779D01*
X0077600Y0195235D01*
X0077600Y0188365D01*
X0078239Y0186821D01*
X0079421Y0185639D01*
X0080965Y0185000D01*
X0082635Y0185000D01*
X0084179Y0185639D01*
X0085614Y0187432D02*
X0104000Y0187432D01*
X0104000Y0189030D02*
X0086000Y0189030D01*
X0086000Y0190629D02*
X0104000Y0190629D01*
X0104000Y0192227D02*
X0086000Y0192227D01*
X0086000Y0193826D02*
X0093834Y0193826D01*
X0095060Y0192600D02*
X0092600Y0195060D01*
X0092600Y0198540D01*
X0095060Y0201000D01*
X0098540Y0201000D01*
X0101000Y0198540D01*
X0101000Y0195060D01*
X0098540Y0192600D01*
X0095060Y0192600D01*
X0092600Y0195424D02*
X0085922Y0195424D01*
X0085117Y0197023D02*
X0092600Y0197023D01*
X0092682Y0198621D02*
X0060918Y0198621D01*
X0061000Y0198540D02*
X0058540Y0201000D01*
X0055060Y0201000D01*
X0052600Y0198540D01*
X0052600Y0195060D01*
X0055060Y0192600D01*
X0058540Y0192600D01*
X0061000Y0195060D01*
X0061000Y0198540D01*
X0061000Y0197023D02*
X0068483Y0197023D01*
X0068239Y0196779D02*
X0067600Y0195235D01*
X0067600Y0188365D01*
X0068239Y0186821D01*
X0069421Y0185639D01*
X0070965Y0185000D01*
X0072635Y0185000D01*
X0074179Y0185639D01*
X0075361Y0186821D01*
X0076000Y0188365D01*
X0076000Y0195235D01*
X0075361Y0196779D01*
X0074179Y0197961D01*
X0072635Y0198600D01*
X0070965Y0198600D01*
X0069421Y0197961D01*
X0068239Y0196779D01*
X0067678Y0195424D02*
X0061000Y0195424D01*
X0059766Y0193826D02*
X0067600Y0193826D01*
X0067600Y0192227D02*
X0024600Y0192227D01*
X0024600Y0190629D02*
X0067600Y0190629D01*
X0067600Y0189030D02*
X0024600Y0189030D01*
X0024600Y0187432D02*
X0067986Y0187432D01*
X0069227Y0185833D02*
X0024600Y0185833D01*
X0029766Y0193826D02*
X0038834Y0193826D01*
X0040060Y0192600D02*
X0037600Y0195060D01*
X0037600Y0198540D01*
X0040060Y0201000D01*
X0043540Y0201000D01*
X0046000Y0198540D01*
X0046000Y0195060D01*
X0043540Y0192600D01*
X0040060Y0192600D01*
X0037600Y0195424D02*
X0031000Y0195424D01*
X0031000Y0197023D02*
X0037600Y0197023D01*
X0037682Y0198621D02*
X0030918Y0198621D01*
X0029320Y0200220D02*
X0039280Y0200220D01*
X0044320Y0200220D02*
X0054280Y0200220D01*
X0052682Y0198621D02*
X0045918Y0198621D01*
X0046000Y0197023D02*
X0052600Y0197023D01*
X0052600Y0195424D02*
X0046000Y0195424D01*
X0044766Y0193826D02*
X0053834Y0193826D01*
X0059320Y0200220D02*
X0064940Y0200220D01*
X0065060Y0200100D02*
X0068540Y0200100D01*
X0071000Y0202560D01*
X0071000Y0206040D01*
X0068540Y0208500D01*
X0065060Y0208500D01*
X0062600Y0206040D01*
X0062600Y0202560D01*
X0065060Y0200100D01*
X0063342Y0201818D02*
X0024600Y0201818D01*
X0024600Y0203417D02*
X0024961Y0203417D01*
X0026800Y0203417D02*
X0026800Y0203417D01*
X0026800Y0203400D02*
X0026800Y0207800D01*
X0031200Y0207800D01*
X0026800Y0207800D01*
X0026800Y0207800D01*
X0026800Y0207800D01*
X0026800Y0203400D01*
X0026800Y0205015D02*
X0026800Y0205015D01*
X0026800Y0206614D02*
X0026800Y0206614D01*
X0028639Y0203417D02*
X0062600Y0203417D01*
X0062600Y0205015D02*
X0030238Y0205015D01*
X0031200Y0206614D02*
X0063174Y0206614D01*
X0063540Y0207600D02*
X0060060Y0207600D01*
X0057600Y0210060D01*
X0057600Y0213540D01*
X0060060Y0216000D01*
X0063540Y0216000D01*
X0066000Y0213540D01*
X0066000Y0210060D01*
X0063540Y0207600D01*
X0064152Y0208212D02*
X0064773Y0208212D01*
X0065751Y0209811D02*
X0067849Y0209811D01*
X0067600Y0210060D02*
X0070060Y0207600D01*
X0073540Y0207600D01*
X0076000Y0210060D01*
X0076000Y0213540D01*
X0073540Y0216000D01*
X0070060Y0216000D01*
X0067600Y0213540D01*
X0067600Y0210060D01*
X0067600Y0211409D02*
X0066000Y0211409D01*
X0066000Y0213008D02*
X0067600Y0213008D01*
X0068667Y0214606D02*
X0064933Y0214606D01*
X0068827Y0208212D02*
X0069448Y0208212D01*
X0070426Y0206614D02*
X0104000Y0206614D01*
X0104000Y0205015D02*
X0071000Y0205015D01*
X0071000Y0203417D02*
X0104000Y0203417D01*
X0104000Y0201818D02*
X0070258Y0201818D01*
X0068660Y0200220D02*
X0094280Y0200220D01*
X0099320Y0200220D02*
X0104000Y0200220D01*
X0104000Y0198621D02*
X0100918Y0198621D01*
X0101000Y0197023D02*
X0104000Y0197023D01*
X0104000Y0195424D02*
X0101000Y0195424D01*
X0099766Y0193826D02*
X0104000Y0193826D01*
X0109600Y0192227D02*
X0113230Y0192227D01*
X0115362Y0190629D02*
X0109600Y0190629D01*
X0109600Y0189030D02*
X0117493Y0189030D01*
X0119624Y0187432D02*
X0110128Y0187432D01*
X0111727Y0185833D02*
X0121756Y0185833D01*
X0123887Y0184235D02*
X0113325Y0184235D01*
X0114924Y0182636D02*
X0126018Y0182636D01*
X0128150Y0181038D02*
X0116522Y0181038D01*
X0118121Y0179439D02*
X0129000Y0179439D01*
X0129000Y0177841D02*
X0119719Y0177841D01*
X0121318Y0176242D02*
X0129000Y0176242D01*
X0128704Y0174644D02*
X0122916Y0174644D01*
X0124515Y0173045D02*
X0127600Y0173045D01*
X0127600Y0171447D02*
X0126113Y0171447D01*
X0127712Y0169848D02*
X0127812Y0169848D01*
X0129310Y0168250D02*
X0129411Y0168250D01*
X0130909Y0166651D02*
X0132989Y0166651D01*
X0132507Y0165053D02*
X0134588Y0165053D01*
X0134426Y0165214D02*
X0134426Y0165214D01*
X0134106Y0163454D02*
X0144206Y0163454D01*
X0144697Y0161856D02*
X0174000Y0161856D01*
X0174000Y0163454D02*
X0164677Y0163454D01*
X0163623Y0162400D02*
X0166200Y0164977D01*
X0166200Y0166800D01*
X0166200Y0168623D01*
X0163623Y0171200D01*
X0161800Y0171200D01*
X0161800Y0166800D01*
X0161800Y0166800D01*
X0166200Y0166800D01*
X0161800Y0166800D01*
X0161800Y0166800D01*
X0161800Y0166800D01*
X0157400Y0166800D01*
X0157400Y0168623D01*
X0159977Y0171200D01*
X0161800Y0171200D01*
X0161800Y0166800D01*
X0161800Y0162400D01*
X0163623Y0162400D01*
X0161800Y0162400D02*
X0161800Y0166800D01*
X0161800Y0166800D01*
X0157400Y0166800D01*
X0157400Y0164977D01*
X0159977Y0162400D01*
X0161800Y0162400D01*
X0161800Y0163454D02*
X0161800Y0163454D01*
X0161800Y0165053D02*
X0161800Y0165053D01*
X0161800Y0166651D02*
X0161800Y0166651D01*
X0161800Y0168250D02*
X0161800Y0168250D01*
X0161800Y0169848D02*
X0161800Y0169848D01*
X0164974Y0169848D02*
X0173908Y0169848D01*
X0173194Y0171447D02*
X0150406Y0171447D01*
X0149692Y0169848D02*
X0158626Y0169848D01*
X0157400Y0168250D02*
X0151000Y0168250D01*
X0151000Y0166651D02*
X0157400Y0166651D01*
X0157400Y0165053D02*
X0150992Y0165053D01*
X0149394Y0163454D02*
X0158923Y0163454D01*
X0166200Y0165053D02*
X0172608Y0165053D01*
X0172600Y0166651D02*
X0166200Y0166651D01*
X0166200Y0168250D02*
X0172600Y0168250D01*
X0171595Y0173045D02*
X0152005Y0173045D01*
X0147282Y0176242D02*
X0134600Y0176242D01*
X0134600Y0177841D02*
X0148881Y0177841D01*
X0150855Y0179439D02*
X0134600Y0179439D01*
X0134600Y0181038D02*
X0231921Y0181038D01*
X0231921Y0182636D02*
X0134509Y0182636D01*
X0133239Y0184235D02*
X0231921Y0184235D01*
X0231921Y0185833D02*
X0131089Y0185833D01*
X0130060Y0187600D02*
X0133540Y0187600D01*
X0136000Y0190060D01*
X0136000Y0193540D01*
X0133540Y0196000D01*
X0130060Y0196000D01*
X0127600Y0193540D01*
X0127600Y0190060D01*
X0130060Y0187600D01*
X0128958Y0187432D02*
X0204946Y0187432D01*
X0204977Y0187400D02*
X0202400Y0189977D01*
X0202400Y0191800D01*
X0206800Y0191800D01*
X0206800Y0191800D01*
X0206800Y0196200D01*
X0208623Y0196200D01*
X0211200Y0193623D01*
X0211200Y0191800D01*
X0206800Y0191800D01*
X0206800Y0191800D01*
X0206800Y0191800D01*
X0206800Y0196200D01*
X0204977Y0196200D01*
X0202400Y0193623D01*
X0202400Y0191800D01*
X0206800Y0191800D01*
X0211200Y0191800D01*
X0211200Y0189977D01*
X0208623Y0187400D01*
X0206800Y0187400D01*
X0206800Y0191800D01*
X0206800Y0191800D01*
X0206800Y0187400D01*
X0204977Y0187400D01*
X0206800Y0187432D02*
X0206800Y0187432D01*
X0206800Y0189030D02*
X0206800Y0189030D01*
X0206800Y0190629D02*
X0206800Y0190629D01*
X0206800Y0192227D02*
X0206800Y0192227D01*
X0206800Y0193826D02*
X0206800Y0193826D01*
X0206800Y0195424D02*
X0206800Y0195424D01*
X0209398Y0195424D02*
X0212400Y0195424D01*
X0212400Y0196800D02*
X0212400Y0193854D01*
X0212508Y0193170D01*
X0212722Y0192511D01*
X0213037Y0191894D01*
X0213444Y0191334D01*
X0213934Y0190844D01*
X0214494Y0190437D01*
X0215111Y0190122D01*
X0215770Y0189908D01*
X0216454Y0189800D01*
X0216800Y0189800D01*
X0217146Y0189800D01*
X0217830Y0189908D01*
X0218489Y0190122D01*
X0219106Y0190437D01*
X0219666Y0190844D01*
X0220156Y0191334D01*
X0220563Y0191894D01*
X0220878Y0192511D01*
X0221092Y0193170D01*
X0221200Y0193854D01*
X0221200Y0196800D01*
X0221200Y0199746D01*
X0221092Y0200430D01*
X0220878Y0201089D01*
X0220563Y0201706D01*
X0220156Y0202266D01*
X0219666Y0202756D01*
X0219106Y0203163D01*
X0218489Y0203478D01*
X0217830Y0203692D01*
X0217146Y0203800D01*
X0216800Y0203800D01*
X0216800Y0196800D01*
X0216800Y0196800D01*
X0221200Y0196800D01*
X0216800Y0196800D01*
X0216800Y0196800D01*
X0216800Y0196800D01*
X0212400Y0196800D01*
X0212400Y0199746D01*
X0212508Y0200430D01*
X0212722Y0201089D01*
X0213037Y0201706D01*
X0213444Y0202266D01*
X0213934Y0202756D01*
X0214494Y0203163D01*
X0215111Y0203478D01*
X0215770Y0203692D01*
X0216454Y0203800D01*
X0216800Y0203800D01*
X0216800Y0196800D01*
X0216800Y0189800D01*
X0216800Y0196800D01*
X0216800Y0196800D01*
X0212400Y0196800D01*
X0212400Y0197023D02*
X0196000Y0197023D01*
X0196000Y0195424D02*
X0204202Y0195424D01*
X0202603Y0193826D02*
X0194766Y0193826D01*
X0195918Y0198621D02*
X0212400Y0198621D01*
X0212475Y0200220D02*
X0194600Y0200220D01*
X0194600Y0201818D02*
X0213118Y0201818D01*
X0214992Y0203417D02*
X0194143Y0203417D01*
X0193386Y0204174D02*
X0193386Y0204174D01*
X0192544Y0205015D02*
X0231921Y0205015D01*
X0231921Y0203417D02*
X0218608Y0203417D01*
X0216800Y0203417D02*
X0216800Y0203417D01*
X0216800Y0201818D02*
X0216800Y0201818D01*
X0216800Y0200220D02*
X0216800Y0200220D01*
X0216800Y0198621D02*
X0216800Y0198621D01*
X0216800Y0197023D02*
X0216800Y0197023D01*
X0216800Y0195424D02*
X0216800Y0195424D01*
X0216800Y0193826D02*
X0216800Y0193826D01*
X0216800Y0192227D02*
X0216800Y0192227D01*
X0216800Y0190629D02*
X0216800Y0190629D01*
X0219370Y0190629D02*
X0231921Y0190629D01*
X0231921Y0192227D02*
X0220733Y0192227D01*
X0221196Y0193826D02*
X0231921Y0193826D01*
X0231921Y0195424D02*
X0221200Y0195424D01*
X0221200Y0197023D02*
X0231921Y0197023D01*
X0231921Y0198621D02*
X0221200Y0198621D01*
X0221125Y0200220D02*
X0231921Y0200220D01*
X0231921Y0201818D02*
X0220482Y0201818D01*
X0212404Y0193826D02*
X0210997Y0193826D01*
X0211200Y0192227D02*
X0212867Y0192227D01*
X0214230Y0190629D02*
X0211200Y0190629D01*
X0210253Y0189030D02*
X0231921Y0189030D01*
X0231921Y0187432D02*
X0208654Y0187432D01*
X0203347Y0189030D02*
X0134970Y0189030D01*
X0136000Y0190629D02*
X0202400Y0190629D01*
X0202400Y0192227D02*
X0136000Y0192227D01*
X0135714Y0193826D02*
X0143834Y0193826D01*
X0145060Y0192600D02*
X0142600Y0195060D01*
X0142600Y0198540D01*
X0145060Y0201000D01*
X0148540Y0201000D01*
X0151000Y0198540D01*
X0151000Y0195060D01*
X0148540Y0192600D01*
X0145060Y0192600D01*
X0142600Y0195424D02*
X0134115Y0195424D01*
X0129485Y0195424D02*
X0118301Y0195424D01*
X0120432Y0193826D02*
X0127886Y0193826D01*
X0127600Y0192227D02*
X0122564Y0192227D01*
X0124695Y0190629D02*
X0127600Y0190629D01*
X0126826Y0189030D02*
X0128630Y0189030D01*
X0116170Y0197023D02*
X0142600Y0197023D01*
X0142682Y0198621D02*
X0115918Y0198621D01*
X0114320Y0200220D02*
X0144280Y0200220D01*
X0149320Y0200220D02*
X0159280Y0200220D01*
X0160060Y0201000D02*
X0157600Y0198540D01*
X0157600Y0195060D01*
X0160060Y0192600D01*
X0163540Y0192600D01*
X0166000Y0195060D01*
X0166000Y0198540D01*
X0163540Y0201000D01*
X0160060Y0201000D01*
X0162600Y0202560D02*
X0162600Y0206040D01*
X0165060Y0208500D01*
X0168540Y0208500D01*
X0171000Y0206040D01*
X0171000Y0202560D01*
X0168540Y0200100D01*
X0165060Y0200100D01*
X0162600Y0202560D01*
X0162600Y0203417D02*
X0109600Y0203417D01*
X0109600Y0205015D02*
X0162600Y0205015D01*
X0163174Y0206614D02*
X0110574Y0206614D01*
X0112172Y0208212D02*
X0159448Y0208212D01*
X0160060Y0207600D02*
X0163540Y0207600D01*
X0166000Y0210060D01*
X0166000Y0213540D01*
X0163540Y0216000D01*
X0160060Y0216000D01*
X0157600Y0213540D01*
X0157600Y0210060D01*
X0160060Y0207600D01*
X0157849Y0209811D02*
X0113771Y0209811D01*
X0114600Y0211409D02*
X0157600Y0211409D01*
X0157600Y0213008D02*
X0114600Y0213008D01*
X0114600Y0214606D02*
X0158667Y0214606D01*
X0164933Y0214606D02*
X0168667Y0214606D01*
X0167600Y0213008D02*
X0166000Y0213008D01*
X0166000Y0211409D02*
X0167600Y0211409D01*
X0167849Y0209811D02*
X0165751Y0209811D01*
X0164773Y0208212D02*
X0164152Y0208212D01*
X0168827Y0208212D02*
X0169448Y0208212D01*
X0170426Y0206614D02*
X0183026Y0206614D01*
X0181428Y0208212D02*
X0174152Y0208212D01*
X0171000Y0205015D02*
X0184625Y0205015D01*
X0186223Y0203417D02*
X0171000Y0203417D01*
X0170258Y0201818D02*
X0187822Y0201818D01*
X0189000Y0200220D02*
X0179320Y0200220D01*
X0178540Y0201000D02*
X0181000Y0198540D01*
X0181000Y0195060D01*
X0178540Y0192600D01*
X0175060Y0192600D01*
X0172600Y0195060D01*
X0172600Y0198540D01*
X0175060Y0201000D01*
X0178540Y0201000D01*
X0180918Y0198621D02*
X0187682Y0198621D01*
X0187600Y0197023D02*
X0181000Y0197023D01*
X0181000Y0195424D02*
X0187600Y0195424D01*
X0188834Y0193826D02*
X0179766Y0193826D01*
X0174280Y0200220D02*
X0168660Y0200220D01*
X0165918Y0198621D02*
X0172682Y0198621D01*
X0172600Y0197023D02*
X0166000Y0197023D01*
X0166000Y0195424D02*
X0172600Y0195424D01*
X0173834Y0193826D02*
X0164766Y0193826D01*
X0164940Y0200220D02*
X0164320Y0200220D01*
X0163342Y0201818D02*
X0109600Y0201818D01*
X0105851Y0209811D02*
X0100033Y0209811D01*
X0100200Y0209977D02*
X0100200Y0211800D01*
X0100200Y0213623D01*
X0097623Y0216200D01*
X0095800Y0216200D01*
X0095800Y0211800D01*
X0100200Y0211800D01*
X0095800Y0211800D01*
X0095800Y0211800D01*
X0095800Y0211800D01*
X0095800Y0207400D01*
X0097623Y0207400D01*
X0100200Y0209977D01*
X0100200Y0211409D02*
X0107450Y0211409D01*
X0109000Y0213008D02*
X0100200Y0213008D01*
X0099216Y0214606D02*
X0109000Y0214606D01*
X0109000Y0216205D02*
X0035165Y0216205D01*
X0036763Y0217803D02*
X0109000Y0217803D01*
X0109000Y0219402D02*
X0038362Y0219402D01*
X0039960Y0221001D02*
X0109000Y0221001D01*
X0114600Y0221001D02*
X0193778Y0221001D01*
X0192179Y0219402D02*
X0191138Y0219402D01*
X0191437Y0214606D02*
X0191771Y0214606D01*
X0193370Y0213008D02*
X0189620Y0213008D01*
X0187749Y0209811D02*
X0231921Y0209811D01*
X0231921Y0211409D02*
X0186369Y0211409D01*
X0181647Y0214606D02*
X0174933Y0214606D01*
X0183245Y0216205D02*
X0114600Y0216205D01*
X0114600Y0217803D02*
X0183670Y0217803D01*
X0184462Y0219402D02*
X0114600Y0219402D01*
X0123948Y0230592D02*
X0144049Y0230592D01*
X0147173Y0235387D02*
X0160000Y0235387D01*
X0166522Y0233789D02*
X0166566Y0233789D01*
X0167544Y0238584D02*
X0211056Y0238584D01*
X0214180Y0243380D02*
X0215433Y0243380D01*
X0211391Y0248175D02*
X0231921Y0248175D01*
X0231921Y0246577D02*
X0209670Y0246577D01*
X0206866Y0246577D02*
X0206104Y0246577D01*
X0206104Y0248175D02*
X0206866Y0248175D01*
X0206866Y0249774D02*
X0206104Y0249774D01*
X0206104Y0251372D02*
X0206866Y0251372D01*
X0206866Y0252971D02*
X0206104Y0252971D01*
X0206104Y0254569D02*
X0206866Y0254569D01*
X0206866Y0256168D02*
X0206104Y0256168D01*
X0202226Y0256168D02*
X0190776Y0256168D01*
X0190142Y0256802D02*
X0187974Y0257700D01*
X0185626Y0257700D01*
X0183458Y0256802D01*
X0181798Y0255142D01*
X0180900Y0252974D01*
X0180900Y0250626D01*
X0181798Y0248458D01*
X0183458Y0246798D01*
X0185626Y0245900D01*
X0187974Y0245900D01*
X0190142Y0246798D01*
X0191802Y0248458D01*
X0192700Y0250626D01*
X0192700Y0252974D01*
X0191802Y0255142D01*
X0190142Y0256802D01*
X0192039Y0254569D02*
X0201050Y0254569D01*
X0200494Y0252971D02*
X0192700Y0252971D01*
X0192700Y0251372D02*
X0200385Y0251372D01*
X0200729Y0249774D02*
X0192347Y0249774D01*
X0191519Y0248175D02*
X0201579Y0248175D01*
X0203300Y0246577D02*
X0189607Y0246577D01*
X0183993Y0246577D02*
X0169922Y0246577D01*
X0171834Y0248175D02*
X0182081Y0248175D01*
X0181253Y0249774D02*
X0172662Y0249774D01*
X0173015Y0251372D02*
X0180900Y0251372D01*
X0180900Y0252971D02*
X0173015Y0252971D01*
X0172354Y0254569D02*
X0181561Y0254569D01*
X0182824Y0256168D02*
X0171091Y0256168D01*
X0174216Y0228993D02*
X0231921Y0228993D01*
X0231921Y0208212D02*
X0189347Y0208212D01*
X0190946Y0206614D02*
X0231921Y0206614D01*
X0231921Y0179439D02*
X0172745Y0179439D01*
X0174719Y0177841D02*
X0231921Y0177841D01*
X0231921Y0176242D02*
X0176318Y0176242D01*
X0177916Y0174644D02*
X0203704Y0174644D01*
X0202600Y0173045D02*
X0179315Y0173045D01*
X0179600Y0171447D02*
X0202600Y0171447D01*
X0202812Y0169848D02*
X0194974Y0169848D01*
X0196200Y0168623D02*
X0193623Y0171200D01*
X0191800Y0171200D01*
X0191800Y0166800D01*
X0191800Y0166800D01*
X0196200Y0166800D01*
X0196200Y0168623D01*
X0196200Y0168250D02*
X0204000Y0168250D01*
X0202691Y0166651D02*
X0196200Y0166651D01*
X0196200Y0166800D02*
X0191800Y0166800D01*
X0191800Y0166800D01*
X0191800Y0166800D01*
X0187400Y0166800D01*
X0187400Y0168623D01*
X0189977Y0171200D01*
X0191800Y0171200D01*
X0191800Y0166800D01*
X0191800Y0162400D01*
X0193623Y0162400D01*
X0196200Y0164977D01*
X0196200Y0166800D01*
X0196200Y0165053D02*
X0201093Y0165053D01*
X0199494Y0163454D02*
X0194677Y0163454D01*
X0191800Y0163454D02*
X0191800Y0163454D01*
X0191800Y0162400D02*
X0191800Y0166800D01*
X0191800Y0166800D01*
X0187400Y0166800D01*
X0187400Y0164977D01*
X0189977Y0162400D01*
X0191800Y0162400D01*
X0191800Y0165053D02*
X0191800Y0165053D01*
X0191800Y0166651D02*
X0191800Y0166651D01*
X0191800Y0168250D02*
X0191800Y0168250D01*
X0191800Y0169848D02*
X0191800Y0169848D01*
X0188626Y0169848D02*
X0179692Y0169848D01*
X0181000Y0168250D02*
X0187400Y0168250D01*
X0187400Y0166651D02*
X0181000Y0166651D01*
X0180992Y0165053D02*
X0187400Y0165053D01*
X0188923Y0163454D02*
X0179600Y0163454D01*
X0179600Y0161856D02*
X0197896Y0161856D01*
X0196297Y0160257D02*
X0179600Y0160257D01*
X0179600Y0153863D02*
X0203056Y0153863D01*
X0202600Y0155462D02*
X0199421Y0155462D01*
X0201020Y0157060D02*
X0202580Y0157060D01*
X0204396Y0152265D02*
X0179600Y0152265D01*
X0179600Y0150666D02*
X0203444Y0150666D01*
X0202400Y0149068D02*
X0179600Y0149068D01*
X0179600Y0147469D02*
X0202400Y0147469D01*
X0202400Y0147800D02*
X0202400Y0145977D01*
X0204977Y0143400D01*
X0206800Y0143400D01*
X0208623Y0143400D01*
X0211200Y0145977D01*
X0211200Y0147800D01*
X0206800Y0147800D01*
X0206800Y0147800D01*
X0206800Y0143400D01*
X0206800Y0147800D01*
X0206800Y0147800D01*
X0206800Y0147800D01*
X0202400Y0147800D01*
X0202507Y0145870D02*
X0179446Y0145870D01*
X0178232Y0144272D02*
X0204105Y0144272D01*
X0206800Y0144272D02*
X0206800Y0144272D01*
X0206800Y0145870D02*
X0206800Y0145870D01*
X0206800Y0147469D02*
X0206800Y0147469D01*
X0209495Y0144272D02*
X0231921Y0144272D01*
X0231921Y0145870D02*
X0211093Y0145870D01*
X0211200Y0147469D02*
X0231921Y0147469D01*
X0231921Y0149068D02*
X0211200Y0149068D01*
X0210156Y0150666D02*
X0231921Y0150666D01*
X0231921Y0152265D02*
X0209204Y0152265D01*
X0210544Y0153863D02*
X0231921Y0153863D01*
X0231921Y0155462D02*
X0211000Y0155462D01*
X0210824Y0157060D02*
X0231921Y0157060D01*
X0231921Y0158659D02*
X0209881Y0158659D01*
X0207303Y0160257D02*
X0231921Y0160257D01*
X0231921Y0161856D02*
X0205815Y0161856D01*
X0207414Y0163454D02*
X0231921Y0163454D01*
X0231921Y0165053D02*
X0209012Y0165053D01*
X0209600Y0166651D02*
X0231921Y0166651D01*
X0231921Y0168250D02*
X0209600Y0168250D01*
X0210788Y0169848D02*
X0231921Y0169848D01*
X0231921Y0171447D02*
X0211000Y0171447D01*
X0211000Y0173045D02*
X0231921Y0173045D01*
X0231921Y0174644D02*
X0209896Y0174644D01*
X0231921Y0142673D02*
X0176633Y0142673D01*
X0176000Y0141075D02*
X0231921Y0141075D01*
X0231921Y0139476D02*
X0175416Y0139476D01*
X0173818Y0137878D02*
X0231921Y0137878D01*
X0231921Y0136279D02*
X0139600Y0136279D01*
X0139600Y0134681D02*
X0231921Y0134681D01*
X0231921Y0133082D02*
X0139600Y0133082D01*
X0139600Y0131484D02*
X0231921Y0131484D01*
X0231921Y0129885D02*
X0139600Y0129885D01*
X0139600Y0128287D02*
X0231921Y0128287D01*
X0231921Y0126688D02*
X0139600Y0126688D01*
X0139600Y0125090D02*
X0174150Y0125090D01*
X0175060Y0126000D02*
X0172600Y0123540D01*
X0172600Y0120060D01*
X0175060Y0117600D01*
X0178540Y0117600D01*
X0181000Y0120060D01*
X0181000Y0123540D01*
X0178540Y0126000D01*
X0175060Y0126000D01*
X0172600Y0123491D02*
X0160048Y0123491D01*
X0160361Y0123179D02*
X0159179Y0124361D01*
X0157635Y0125000D01*
X0155965Y0125000D01*
X0154421Y0124361D01*
X0153239Y0123179D01*
X0152600Y0121635D01*
X0152600Y0119965D01*
X0153239Y0118421D01*
X0154421Y0117239D01*
X0155042Y0116982D01*
X0152600Y0114540D01*
X0152600Y0111060D01*
X0155060Y0108600D01*
X0156040Y0108600D01*
X0162600Y0102040D01*
X0162600Y0100060D01*
X0165060Y0097600D01*
X0168540Y0097600D01*
X0171000Y0100060D01*
X0171000Y0103540D01*
X0168540Y0106000D01*
X0166560Y0106000D01*
X0161000Y0111560D01*
X0161000Y0114540D01*
X0158558Y0116982D01*
X0159179Y0117239D01*
X0160361Y0118421D01*
X0161000Y0119965D01*
X0161000Y0121635D01*
X0160361Y0123179D01*
X0160893Y0121893D02*
X0172600Y0121893D01*
X0172600Y0120294D02*
X0161000Y0120294D01*
X0160474Y0118696D02*
X0173965Y0118696D01*
X0177600Y0116040D02*
X0177600Y0112560D01*
X0180060Y0110100D01*
X0183540Y0110100D01*
X0186000Y0112560D01*
X0186000Y0116040D01*
X0183540Y0118500D01*
X0180060Y0118500D01*
X0177600Y0116040D01*
X0177600Y0115499D02*
X0160041Y0115499D01*
X0161000Y0113900D02*
X0177600Y0113900D01*
X0177859Y0112302D02*
X0161000Y0112302D01*
X0161857Y0110703D02*
X0179457Y0110703D01*
X0184143Y0110703D02*
X0203122Y0110703D01*
X0203239Y0110421D02*
X0204421Y0109239D01*
X0205965Y0108600D01*
X0207635Y0108600D01*
X0209179Y0109239D01*
X0210361Y0110421D01*
X0211000Y0111965D01*
X0211000Y0113635D01*
X0210361Y0115179D01*
X0209179Y0116361D01*
X0208758Y0116535D01*
X0211200Y0118977D01*
X0211200Y0120800D01*
X0211200Y0122623D01*
X0208623Y0125200D01*
X0206800Y0125200D01*
X0206800Y0120800D01*
X0206800Y0120800D01*
X0211200Y0120800D01*
X0206800Y0120800D01*
X0206800Y0120800D01*
X0206800Y0120800D01*
X0202400Y0120800D01*
X0202400Y0122623D01*
X0204977Y0125200D01*
X0206800Y0125200D01*
X0206800Y0120800D01*
X0202400Y0120800D01*
X0202400Y0118977D01*
X0204842Y0116535D01*
X0204421Y0116361D01*
X0203239Y0115179D01*
X0202600Y0113635D01*
X0202600Y0111965D01*
X0203239Y0110421D01*
X0202600Y0112302D02*
X0185741Y0112302D01*
X0186000Y0113900D02*
X0202710Y0113900D01*
X0203559Y0115499D02*
X0186000Y0115499D01*
X0184942Y0117097D02*
X0204280Y0117097D01*
X0202682Y0118696D02*
X0189635Y0118696D01*
X0188540Y0117600D02*
X0191000Y0120060D01*
X0191000Y0123540D01*
X0188540Y0126000D01*
X0185060Y0126000D01*
X0182600Y0123540D01*
X0182600Y0120060D01*
X0185060Y0117600D01*
X0188540Y0117600D01*
X0191000Y0120294D02*
X0202400Y0120294D01*
X0202400Y0121893D02*
X0191000Y0121893D01*
X0191000Y0123491D02*
X0203269Y0123491D01*
X0204867Y0125090D02*
X0189450Y0125090D01*
X0184150Y0125090D02*
X0179450Y0125090D01*
X0181000Y0123491D02*
X0182600Y0123491D01*
X0182600Y0121893D02*
X0181000Y0121893D01*
X0181000Y0120294D02*
X0182600Y0120294D01*
X0183965Y0118696D02*
X0179635Y0118696D01*
X0178658Y0117097D02*
X0158836Y0117097D01*
X0154764Y0117097D02*
X0139600Y0117097D01*
X0139600Y0115499D02*
X0153559Y0115499D01*
X0152600Y0113900D02*
X0139600Y0113900D01*
X0139600Y0112302D02*
X0152600Y0112302D01*
X0152957Y0110703D02*
X0139600Y0110703D01*
X0139600Y0109105D02*
X0154556Y0109105D01*
X0157134Y0107506D02*
X0139600Y0107506D01*
X0139600Y0105908D02*
X0149968Y0105908D01*
X0150060Y0106000D02*
X0147600Y0103540D01*
X0147600Y0100060D01*
X0150060Y0097600D01*
X0153540Y0097600D01*
X0156000Y0100060D01*
X0156000Y0103540D01*
X0153540Y0106000D01*
X0150060Y0106000D01*
X0148370Y0104309D02*
X0139600Y0104309D01*
X0139600Y0102711D02*
X0147600Y0102711D01*
X0147600Y0101112D02*
X0139600Y0101112D01*
X0139600Y0099514D02*
X0148147Y0099514D01*
X0149745Y0097915D02*
X0139600Y0097915D01*
X0139600Y0096317D02*
X0231921Y0096317D01*
X0231921Y0097915D02*
X0198855Y0097915D01*
X0198540Y0097600D02*
X0201000Y0100060D01*
X0201000Y0103540D01*
X0198540Y0106000D01*
X0195060Y0106000D01*
X0192600Y0103540D01*
X0192600Y0100060D01*
X0195060Y0097600D01*
X0198540Y0097600D01*
X0200453Y0099514D02*
X0231921Y0099514D01*
X0231921Y0101112D02*
X0201000Y0101112D01*
X0201000Y0102711D02*
X0231921Y0102711D01*
X0231921Y0104309D02*
X0200230Y0104309D01*
X0198632Y0105908D02*
X0231921Y0105908D01*
X0231921Y0107506D02*
X0165054Y0107506D01*
X0163455Y0109105D02*
X0204746Y0109105D01*
X0208854Y0109105D02*
X0231921Y0109105D01*
X0231921Y0110703D02*
X0210478Y0110703D01*
X0211000Y0112302D02*
X0231921Y0112302D01*
X0231921Y0113900D02*
X0210890Y0113900D01*
X0210041Y0115499D02*
X0231921Y0115499D01*
X0231921Y0117097D02*
X0209320Y0117097D01*
X0210918Y0118696D02*
X0231921Y0118696D01*
X0231921Y0120294D02*
X0211200Y0120294D01*
X0211200Y0121893D02*
X0231921Y0121893D01*
X0231921Y0123491D02*
X0210331Y0123491D01*
X0208733Y0125090D02*
X0231921Y0125090D01*
X0231921Y0094718D02*
X0139600Y0094718D01*
X0139600Y0093120D02*
X0231921Y0093120D01*
X0231921Y0091521D02*
X0139600Y0091521D01*
X0139600Y0089923D02*
X0231921Y0089923D01*
X0231921Y0088324D02*
X0139600Y0088324D01*
X0140834Y0086726D02*
X0231921Y0086726D01*
X0231921Y0085127D02*
X0219413Y0085127D01*
X0218540Y0086000D02*
X0221000Y0083540D01*
X0221000Y0080060D01*
X0218540Y0077600D01*
X0215060Y0077600D01*
X0212600Y0080060D01*
X0212600Y0083540D01*
X0215060Y0086000D01*
X0218540Y0086000D01*
X0221000Y0083529D02*
X0231921Y0083529D01*
X0231921Y0081930D02*
X0221000Y0081930D01*
X0221000Y0080332D02*
X0231921Y0080332D01*
X0231921Y0078733D02*
X0219673Y0078733D01*
X0213927Y0078733D02*
X0178827Y0078733D01*
X0180425Y0077134D02*
X0231921Y0077134D01*
X0231921Y0075536D02*
X0199287Y0075536D01*
X0198623Y0076200D02*
X0201200Y0073623D01*
X0201200Y0071800D01*
X0196800Y0071800D01*
X0196800Y0071800D01*
X0196800Y0076200D01*
X0198623Y0076200D01*
X0196800Y0076200D02*
X0194977Y0076200D01*
X0192400Y0073623D01*
X0192400Y0071800D01*
X0196800Y0071800D01*
X0196800Y0071800D01*
X0196800Y0071800D01*
X0196800Y0076200D01*
X0196800Y0075536D02*
X0196800Y0075536D01*
X0196800Y0073937D02*
X0196800Y0073937D01*
X0196800Y0072339D02*
X0196800Y0072339D01*
X0196800Y0071800D02*
X0192400Y0071800D01*
X0192400Y0069977D01*
X0194977Y0067400D01*
X0196800Y0067400D01*
X0198623Y0067400D01*
X0201200Y0069977D01*
X0201200Y0071800D01*
X0196800Y0071800D01*
X0196800Y0067400D01*
X0196800Y0071800D01*
X0196800Y0071800D01*
X0196800Y0070740D02*
X0196800Y0070740D01*
X0196800Y0069142D02*
X0196800Y0069142D01*
X0196800Y0067543D02*
X0196800Y0067543D01*
X0198766Y0067543D02*
X0231921Y0067543D01*
X0231921Y0065945D02*
X0218595Y0065945D01*
X0220193Y0064346D02*
X0231921Y0064346D01*
X0231921Y0062748D02*
X0221000Y0062748D01*
X0221000Y0061149D02*
X0231921Y0061149D01*
X0231921Y0059551D02*
X0220491Y0059551D01*
X0218892Y0057952D02*
X0231921Y0057952D01*
X0231921Y0056354D02*
X0175314Y0056354D01*
X0176912Y0057952D02*
X0214708Y0057952D01*
X0215005Y0065945D02*
X0186615Y0065945D01*
X0185016Y0067543D02*
X0194834Y0067543D01*
X0193236Y0069142D02*
X0185082Y0069142D01*
X0186000Y0070740D02*
X0192400Y0070740D01*
X0192400Y0072339D02*
X0186000Y0072339D01*
X0185602Y0073937D02*
X0192715Y0073937D01*
X0194313Y0075536D02*
X0184004Y0075536D01*
X0177301Y0072339D02*
X0171200Y0072339D01*
X0171200Y0071800D02*
X0171200Y0073623D01*
X0168623Y0076200D01*
X0166800Y0076200D01*
X0166800Y0071800D01*
X0166800Y0071800D01*
X0171200Y0071800D01*
X0166800Y0071800D01*
X0166800Y0071800D01*
X0166800Y0071800D01*
X0162400Y0071800D01*
X0162400Y0073623D01*
X0164977Y0076200D01*
X0166800Y0076200D01*
X0166800Y0071800D01*
X0166800Y0067400D01*
X0168623Y0067400D01*
X0171200Y0069977D01*
X0171200Y0071800D01*
X0171200Y0070740D02*
X0177600Y0070740D01*
X0178518Y0069142D02*
X0170364Y0069142D01*
X0168766Y0067543D02*
X0178584Y0067543D01*
X0176985Y0065945D02*
X0011600Y0065945D01*
X0011600Y0067543D02*
X0054834Y0067543D01*
X0054977Y0067400D02*
X0052400Y0069977D01*
X0052400Y0071800D01*
X0056800Y0071800D01*
X0056800Y0071800D01*
X0056800Y0076200D01*
X0058623Y0076200D01*
X0061200Y0073623D01*
X0061200Y0071800D01*
X0056800Y0071800D01*
X0056800Y0071800D01*
X0056800Y0071800D01*
X0056800Y0076200D01*
X0054977Y0076200D01*
X0052400Y0073623D01*
X0052400Y0071800D01*
X0056800Y0071800D01*
X0061200Y0071800D01*
X0061200Y0069977D01*
X0058623Y0067400D01*
X0056800Y0067400D01*
X0056800Y0071800D01*
X0056800Y0071800D01*
X0056800Y0067400D01*
X0054977Y0067400D01*
X0056800Y0067543D02*
X0056800Y0067543D01*
X0056800Y0069142D02*
X0056800Y0069142D01*
X0056800Y0070740D02*
X0056800Y0070740D01*
X0056800Y0072339D02*
X0056800Y0072339D01*
X0056800Y0073937D02*
X0056800Y0073937D01*
X0056800Y0075536D02*
X0056800Y0075536D01*
X0059287Y0075536D02*
X0069313Y0075536D01*
X0069977Y0076200D02*
X0067400Y0073623D01*
X0067400Y0071800D01*
X0071800Y0071800D01*
X0071800Y0071800D01*
X0071800Y0076200D01*
X0073623Y0076200D01*
X0076200Y0073623D01*
X0076200Y0071800D01*
X0071800Y0071800D01*
X0071800Y0071800D01*
X0071800Y0071800D01*
X0071800Y0076200D01*
X0069977Y0076200D01*
X0071800Y0075536D02*
X0071800Y0075536D01*
X0071800Y0073937D02*
X0071800Y0073937D01*
X0071800Y0072339D02*
X0071800Y0072339D01*
X0071800Y0071800D02*
X0067400Y0071800D01*
X0067400Y0069977D01*
X0069977Y0067400D01*
X0071800Y0067400D01*
X0073623Y0067400D01*
X0076200Y0069977D01*
X0076200Y0071800D01*
X0071800Y0071800D01*
X0071800Y0067400D01*
X0071800Y0071800D01*
X0071800Y0071800D01*
X0071800Y0070740D02*
X0071800Y0070740D01*
X0071800Y0069142D02*
X0071800Y0069142D01*
X0071800Y0067543D02*
X0071800Y0067543D01*
X0073766Y0067543D02*
X0164834Y0067543D01*
X0164977Y0067400D02*
X0162400Y0069977D01*
X0162400Y0071800D01*
X0166800Y0071800D01*
X0166800Y0071800D01*
X0166800Y0067400D01*
X0164977Y0067400D01*
X0166800Y0067543D02*
X0166800Y0067543D01*
X0166800Y0069142D02*
X0166800Y0069142D01*
X0166800Y0070740D02*
X0166800Y0070740D01*
X0166800Y0072339D02*
X0166800Y0072339D01*
X0166800Y0073937D02*
X0166800Y0073937D01*
X0166800Y0075536D02*
X0166800Y0075536D01*
X0169287Y0075536D02*
X0174104Y0075536D01*
X0172506Y0077134D02*
X0156094Y0077134D01*
X0154600Y0075536D02*
X0164313Y0075536D01*
X0162715Y0073937D02*
X0155602Y0073937D01*
X0156000Y0072339D02*
X0162400Y0072339D01*
X0162400Y0070740D02*
X0156000Y0070740D01*
X0155082Y0069142D02*
X0163236Y0069142D01*
X0170885Y0073937D02*
X0175703Y0073937D01*
X0177228Y0080332D02*
X0212600Y0080332D01*
X0212600Y0081930D02*
X0175630Y0081930D01*
X0174031Y0083529D02*
X0212600Y0083529D01*
X0214187Y0085127D02*
X0142433Y0085127D01*
X0144031Y0083529D02*
X0154569Y0083529D01*
X0152970Y0081930D02*
X0145630Y0081930D01*
X0147228Y0080332D02*
X0151372Y0080332D01*
X0149773Y0078733D02*
X0148827Y0078733D01*
X0144104Y0075536D02*
X0131000Y0075536D01*
X0131000Y0077134D02*
X0142506Y0077134D01*
X0140907Y0078733D02*
X0130807Y0078733D01*
X0134291Y0080332D02*
X0139309Y0080332D01*
X0137710Y0081930D02*
X0135890Y0081930D01*
X0132766Y0086726D02*
X0011600Y0086726D01*
X0011600Y0088324D02*
X0094336Y0088324D01*
X0095060Y0087600D02*
X0092600Y0090060D01*
X0092600Y0093540D01*
X0095060Y0096000D01*
X0098540Y0096000D01*
X0101000Y0093540D01*
X0101000Y0090060D01*
X0098540Y0087600D01*
X0095060Y0087600D01*
X0092738Y0089923D02*
X0011600Y0089923D01*
X0011600Y0091521D02*
X0092600Y0091521D01*
X0092600Y0093120D02*
X0011600Y0093120D01*
X0011600Y0094718D02*
X0093778Y0094718D01*
X0088855Y0097915D02*
X0134000Y0097915D01*
X0134000Y0096317D02*
X0011600Y0096317D01*
X0011600Y0097915D02*
X0024745Y0097915D01*
X0025060Y0097600D02*
X0022600Y0100060D01*
X0022600Y0103540D01*
X0025060Y0106000D01*
X0027568Y0106000D01*
X0047600Y0122026D01*
X0047600Y0123540D01*
X0050060Y0126000D01*
X0053540Y0126000D01*
X0056000Y0123540D01*
X0056000Y0120060D01*
X0053540Y0117600D01*
X0051032Y0117600D01*
X0031000Y0101574D01*
X0031000Y0100060D01*
X0028540Y0097600D01*
X0025060Y0097600D01*
X0023147Y0099514D02*
X0011600Y0099514D01*
X0011600Y0101112D02*
X0022600Y0101112D01*
X0022600Y0102711D02*
X0011600Y0102711D01*
X0011600Y0104309D02*
X0023370Y0104309D01*
X0024968Y0105908D02*
X0011600Y0105908D01*
X0011600Y0107506D02*
X0029451Y0107506D01*
X0031449Y0109105D02*
X0011600Y0109105D01*
X0011600Y0110703D02*
X0033447Y0110703D01*
X0035445Y0112302D02*
X0011600Y0112302D01*
X0011600Y0113900D02*
X0029760Y0113900D01*
X0030060Y0113600D02*
X0027600Y0116060D01*
X0027600Y0119540D01*
X0030042Y0121982D01*
X0029421Y0122239D01*
X0028239Y0123421D01*
X0027600Y0124965D01*
X0027600Y0126635D01*
X0028239Y0128179D01*
X0029421Y0129361D01*
X0030965Y0130000D01*
X0032635Y0130000D01*
X0034179Y0129361D01*
X0035361Y0128179D01*
X0036000Y0126635D01*
X0036000Y0124965D01*
X0035361Y0123421D01*
X0034179Y0122239D01*
X0033558Y0121982D01*
X0036000Y0119540D01*
X0036000Y0116060D01*
X0033540Y0113600D01*
X0030060Y0113600D01*
X0028162Y0115499D02*
X0011600Y0115499D01*
X0011600Y0117097D02*
X0027600Y0117097D01*
X0027600Y0118696D02*
X0011600Y0118696D01*
X0011600Y0120294D02*
X0028355Y0120294D01*
X0029953Y0121893D02*
X0011600Y0121893D01*
X0011600Y0123491D02*
X0028210Y0123491D01*
X0027600Y0125090D02*
X0011600Y0125090D01*
X0011600Y0126688D02*
X0027622Y0126688D01*
X0028347Y0128287D02*
X0011600Y0128287D01*
X0011600Y0129885D02*
X0030688Y0129885D01*
X0032912Y0129885D02*
X0089000Y0129885D01*
X0089000Y0128287D02*
X0035253Y0128287D01*
X0035978Y0126688D02*
X0089000Y0126688D01*
X0089000Y0125090D02*
X0064450Y0125090D01*
X0063540Y0126000D02*
X0060060Y0126000D01*
X0057600Y0123540D01*
X0057600Y0120060D01*
X0060060Y0117600D01*
X0063540Y0117600D01*
X0066000Y0120060D01*
X0066000Y0123540D01*
X0063540Y0126000D01*
X0066000Y0123491D02*
X0089000Y0123491D01*
X0089000Y0121893D02*
X0066000Y0121893D01*
X0066000Y0120294D02*
X0089000Y0120294D01*
X0089000Y0118696D02*
X0064635Y0118696D01*
X0061000Y0116040D02*
X0058540Y0118500D01*
X0055060Y0118500D01*
X0052600Y0116040D01*
X0052600Y0112560D01*
X0055060Y0110100D01*
X0058540Y0110100D01*
X0061000Y0112560D01*
X0061000Y0116040D01*
X0061000Y0115499D02*
X0089308Y0115499D01*
X0089000Y0117097D02*
X0059942Y0117097D01*
X0058965Y0118696D02*
X0054635Y0118696D01*
X0053658Y0117097D02*
X0050404Y0117097D01*
X0048406Y0115499D02*
X0052600Y0115499D01*
X0052600Y0113900D02*
X0046407Y0113900D01*
X0044409Y0112302D02*
X0052859Y0112302D01*
X0054457Y0110703D02*
X0042411Y0110703D01*
X0040413Y0109105D02*
X0093165Y0109105D01*
X0092600Y0107506D02*
X0038415Y0107506D01*
X0039968Y0105908D02*
X0036417Y0105908D01*
X0038370Y0104309D02*
X0034419Y0104309D01*
X0032421Y0102711D02*
X0037600Y0102711D01*
X0037600Y0103540D02*
X0037600Y0100060D01*
X0040060Y0097600D01*
X0043540Y0097600D01*
X0046000Y0100060D01*
X0046000Y0103540D01*
X0043540Y0106000D01*
X0040060Y0106000D01*
X0037600Y0103540D01*
X0037600Y0101112D02*
X0031000Y0101112D01*
X0030453Y0099514D02*
X0038147Y0099514D01*
X0039745Y0097915D02*
X0028855Y0097915D01*
X0033840Y0113900D02*
X0037443Y0113900D01*
X0039441Y0115499D02*
X0035438Y0115499D01*
X0036000Y0117097D02*
X0041439Y0117097D01*
X0043438Y0118696D02*
X0036000Y0118696D01*
X0035245Y0120294D02*
X0045436Y0120294D01*
X0047434Y0121893D02*
X0033647Y0121893D01*
X0035390Y0123491D02*
X0047600Y0123491D01*
X0049150Y0125090D02*
X0036000Y0125090D01*
X0043632Y0105908D02*
X0054968Y0105908D01*
X0055060Y0106000D02*
X0052600Y0103540D01*
X0052600Y0100060D01*
X0055060Y0097600D01*
X0058540Y0097600D01*
X0061000Y0100060D01*
X0061000Y0103540D01*
X0058540Y0106000D01*
X0055060Y0106000D01*
X0053370Y0104309D02*
X0045230Y0104309D01*
X0046000Y0102711D02*
X0052600Y0102711D01*
X0052600Y0101112D02*
X0046000Y0101112D01*
X0045453Y0099514D02*
X0053147Y0099514D01*
X0054745Y0097915D02*
X0043855Y0097915D01*
X0044569Y0083529D02*
X0011600Y0083529D01*
X0011600Y0085127D02*
X0084187Y0085127D01*
X0089413Y0085127D02*
X0131167Y0085127D01*
X0128540Y0087600D02*
X0131000Y0090060D01*
X0131000Y0093540D01*
X0128540Y0096000D01*
X0125060Y0096000D01*
X0122600Y0093540D01*
X0122600Y0090060D01*
X0125060Y0087600D01*
X0128540Y0087600D01*
X0129264Y0088324D02*
X0134000Y0088324D01*
X0134000Y0089923D02*
X0130862Y0089923D01*
X0131000Y0091521D02*
X0134000Y0091521D01*
X0134000Y0093120D02*
X0131000Y0093120D01*
X0129822Y0094718D02*
X0134000Y0094718D01*
X0134000Y0099514D02*
X0123473Y0099514D01*
X0125072Y0101112D02*
X0134000Y0101112D01*
X0134000Y0102711D02*
X0128650Y0102711D01*
X0130249Y0104309D02*
X0134000Y0104309D01*
X0134000Y0105908D02*
X0131000Y0105908D01*
X0131000Y0107506D02*
X0134000Y0107506D01*
X0134000Y0109105D02*
X0130435Y0109105D01*
X0128836Y0110703D02*
X0134000Y0110703D01*
X0134000Y0112302D02*
X0099600Y0112302D01*
X0099600Y0110703D02*
X0124764Y0110703D01*
X0123165Y0109105D02*
X0100435Y0109105D01*
X0101000Y0107506D02*
X0122600Y0107506D01*
X0121948Y0105908D02*
X0101000Y0105908D01*
X0098660Y0113900D02*
X0134000Y0113900D01*
X0134000Y0115499D02*
X0097061Y0115499D01*
X0092338Y0112302D02*
X0060741Y0112302D01*
X0061000Y0113900D02*
X0090740Y0113900D01*
X0093937Y0110703D02*
X0059143Y0110703D01*
X0058632Y0105908D02*
X0069968Y0105908D01*
X0070060Y0106000D02*
X0067600Y0103540D01*
X0067600Y0100060D01*
X0070060Y0097600D01*
X0073540Y0097600D01*
X0076000Y0100060D01*
X0076000Y0103540D01*
X0073540Y0106000D01*
X0070060Y0106000D01*
X0068370Y0104309D02*
X0060230Y0104309D01*
X0061000Y0102711D02*
X0067600Y0102711D01*
X0067600Y0101112D02*
X0061000Y0101112D01*
X0060453Y0099514D02*
X0068147Y0099514D01*
X0069745Y0097915D02*
X0058855Y0097915D01*
X0073855Y0097915D02*
X0084745Y0097915D01*
X0083147Y0099514D02*
X0075453Y0099514D01*
X0076000Y0101112D02*
X0082600Y0101112D01*
X0082600Y0102711D02*
X0076000Y0102711D01*
X0075230Y0104309D02*
X0083370Y0104309D01*
X0084968Y0105908D02*
X0073632Y0105908D01*
X0088632Y0105908D02*
X0092600Y0105908D01*
X0099822Y0094718D02*
X0123778Y0094718D01*
X0122600Y0093120D02*
X0101000Y0093120D01*
X0101000Y0091521D02*
X0122600Y0091521D01*
X0122738Y0089923D02*
X0100862Y0089923D01*
X0099264Y0088324D02*
X0124336Y0088324D01*
X0122793Y0078733D02*
X0111090Y0078733D01*
X0111200Y0077134D02*
X0122600Y0077134D01*
X0122600Y0075536D02*
X0111200Y0075536D01*
X0111200Y0074977D02*
X0111200Y0076800D01*
X0106800Y0076800D01*
X0106800Y0076800D01*
X0106800Y0072400D01*
X0108623Y0072400D01*
X0111200Y0074977D01*
X0110160Y0073937D02*
X0123723Y0073937D01*
X0129877Y0073937D02*
X0145703Y0073937D01*
X0147301Y0072339D02*
X0076200Y0072339D01*
X0076200Y0070740D02*
X0147600Y0070740D01*
X0148518Y0069142D02*
X0075364Y0069142D01*
X0075885Y0073937D02*
X0103440Y0073937D01*
X0102400Y0074977D02*
X0104977Y0072400D01*
X0106800Y0072400D01*
X0106800Y0076800D01*
X0106800Y0076800D01*
X0106800Y0076800D01*
X0102400Y0076800D01*
X0102400Y0074977D01*
X0102400Y0075536D02*
X0074287Y0075536D01*
X0067715Y0073937D02*
X0060885Y0073937D01*
X0061200Y0072339D02*
X0067400Y0072339D01*
X0067400Y0070740D02*
X0061200Y0070740D01*
X0060364Y0069142D02*
X0068236Y0069142D01*
X0069834Y0067543D02*
X0058766Y0067543D01*
X0053236Y0069142D02*
X0045082Y0069142D01*
X0046000Y0070740D02*
X0052400Y0070740D01*
X0052400Y0072339D02*
X0046000Y0072339D01*
X0045602Y0073937D02*
X0052715Y0073937D01*
X0054313Y0075536D02*
X0044600Y0075536D01*
X0046094Y0077134D02*
X0102400Y0077134D01*
X0102510Y0078733D02*
X0089673Y0078733D01*
X0083927Y0078733D02*
X0047693Y0078733D01*
X0042970Y0081930D02*
X0011600Y0081930D01*
X0011600Y0080332D02*
X0041372Y0080332D01*
X0039773Y0078733D02*
X0011600Y0078733D01*
X0011600Y0077134D02*
X0039000Y0077134D01*
X0039000Y0075536D02*
X0029004Y0075536D01*
X0024596Y0075536D02*
X0011600Y0075536D01*
X0011600Y0073937D02*
X0022998Y0073937D01*
X0022600Y0072339D02*
X0011600Y0072339D01*
X0011600Y0070740D02*
X0022600Y0070740D01*
X0023518Y0069142D02*
X0011600Y0069142D01*
X0011600Y0064346D02*
X0175387Y0064346D01*
X0173788Y0062748D02*
X0011600Y0062748D01*
X0011600Y0061149D02*
X0084927Y0061149D01*
X0084977Y0061200D02*
X0082400Y0058623D01*
X0082400Y0056800D01*
X0086800Y0056800D01*
X0086800Y0056800D01*
X0086800Y0061200D01*
X0088623Y0061200D01*
X0091200Y0058623D01*
X0091200Y0056800D01*
X0086800Y0056800D01*
X0086800Y0056800D01*
X0086800Y0056800D01*
X0086800Y0061200D01*
X0084977Y0061200D01*
X0086800Y0061149D02*
X0086800Y0061149D01*
X0086800Y0059551D02*
X0086800Y0059551D01*
X0086800Y0057952D02*
X0086800Y0057952D01*
X0086800Y0056800D02*
X0082400Y0056800D01*
X0082400Y0054977D01*
X0084977Y0052400D01*
X0086800Y0052400D01*
X0088623Y0052400D01*
X0091200Y0054977D01*
X0091200Y0056800D01*
X0086800Y0056800D01*
X0086800Y0052400D01*
X0086800Y0056800D01*
X0086800Y0056800D01*
X0086800Y0056354D02*
X0086800Y0056354D01*
X0086800Y0054755D02*
X0086800Y0054755D01*
X0086800Y0053157D02*
X0086800Y0053157D01*
X0089379Y0053157D02*
X0095620Y0053157D01*
X0095421Y0053239D02*
X0096965Y0052600D01*
X0098635Y0052600D01*
X0100179Y0053239D01*
X0101361Y0054421D01*
X0101618Y0055042D01*
X0104060Y0052600D01*
X0107540Y0052600D01*
X0110000Y0055060D01*
X0110000Y0058540D01*
X0107540Y0061000D01*
X0104060Y0061000D01*
X0101618Y0058558D01*
X0101361Y0059179D01*
X0100179Y0060361D01*
X0098635Y0061000D01*
X0096965Y0061000D01*
X0095421Y0060361D01*
X0094239Y0059179D01*
X0093600Y0057635D01*
X0093600Y0055965D01*
X0094239Y0054421D01*
X0095421Y0053239D01*
X0094101Y0054755D02*
X0090978Y0054755D01*
X0091200Y0056354D02*
X0093600Y0056354D01*
X0093731Y0057952D02*
X0091200Y0057952D01*
X0090272Y0059551D02*
X0094611Y0059551D01*
X0100989Y0059551D02*
X0102611Y0059551D01*
X0101905Y0054755D02*
X0101499Y0054755D01*
X0099980Y0053157D02*
X0103503Y0053157D01*
X0108097Y0053157D02*
X0114503Y0053157D01*
X0115060Y0052600D02*
X0118540Y0052600D01*
X0121000Y0055060D01*
X0121000Y0058540D01*
X0118540Y0061000D01*
X0115060Y0061000D01*
X0112600Y0058540D01*
X0112600Y0055060D01*
X0115060Y0052600D01*
X0112905Y0054755D02*
X0109695Y0054755D01*
X0110000Y0056354D02*
X0112600Y0056354D01*
X0112600Y0057952D02*
X0110000Y0057952D01*
X0108989Y0059551D02*
X0113611Y0059551D01*
X0119097Y0053157D02*
X0129503Y0053157D01*
X0130060Y0052600D02*
X0133540Y0052600D01*
X0136000Y0055060D01*
X0136000Y0058540D01*
X0133540Y0061000D01*
X0130060Y0061000D01*
X0127600Y0058540D01*
X0127600Y0055060D01*
X0130060Y0052600D01*
X0127905Y0054755D02*
X0120695Y0054755D01*
X0121000Y0056354D02*
X0127600Y0056354D01*
X0127600Y0057952D02*
X0121000Y0057952D01*
X0119989Y0059551D02*
X0128611Y0059551D01*
X0134097Y0053157D02*
X0144503Y0053157D01*
X0145060Y0052600D02*
X0148540Y0052600D01*
X0151000Y0055060D01*
X0151000Y0058540D01*
X0148540Y0061000D01*
X0145060Y0061000D01*
X0142600Y0058540D01*
X0142600Y0055060D01*
X0145060Y0052600D01*
X0142905Y0054755D02*
X0135695Y0054755D01*
X0136000Y0056354D02*
X0142600Y0056354D01*
X0142600Y0057952D02*
X0136000Y0057952D01*
X0134989Y0059551D02*
X0143611Y0059551D01*
X0149097Y0053157D02*
X0164331Y0053157D01*
X0164000Y0051558D02*
X0011600Y0051558D01*
X0011600Y0049960D02*
X0029020Y0049960D01*
X0030060Y0051000D02*
X0027600Y0048540D01*
X0027600Y0045060D01*
X0030060Y0042600D01*
X0033540Y0042600D01*
X0036000Y0045060D01*
X0036000Y0048540D01*
X0033540Y0051000D01*
X0030060Y0051000D01*
X0027600Y0048361D02*
X0011600Y0048361D01*
X0011600Y0046763D02*
X0027600Y0046763D01*
X0027600Y0045164D02*
X0011600Y0045164D01*
X0011600Y0043566D02*
X0029095Y0043566D01*
X0034505Y0043566D02*
X0159606Y0043566D01*
X0161204Y0045164D02*
X0036000Y0045164D01*
X0036000Y0046763D02*
X0162600Y0046763D01*
X0162600Y0048361D02*
X0036000Y0048361D01*
X0034580Y0049960D02*
X0164000Y0049960D01*
X0165796Y0054755D02*
X0150695Y0054755D01*
X0151000Y0056354D02*
X0167394Y0056354D01*
X0168993Y0057952D02*
X0151000Y0057952D01*
X0149989Y0059551D02*
X0170591Y0059551D01*
X0172190Y0061149D02*
X0088673Y0061149D01*
X0083328Y0059551D02*
X0011600Y0059551D01*
X0011600Y0057952D02*
X0082400Y0057952D01*
X0082400Y0056354D02*
X0011600Y0056354D01*
X0011600Y0054755D02*
X0082622Y0054755D01*
X0084221Y0053157D02*
X0011600Y0053157D01*
X0011600Y0041967D02*
X0158007Y0041967D01*
X0156409Y0040369D02*
X0011600Y0040369D01*
X0011600Y0038770D02*
X0154810Y0038770D01*
X0153212Y0037172D02*
X0011600Y0037172D01*
X0011600Y0035573D02*
X0151613Y0035573D01*
X0152789Y0029179D02*
X0164822Y0029179D01*
X0164957Y0029248D02*
X0164284Y0028905D01*
X0163673Y0028461D01*
X0163139Y0027927D01*
X0162695Y0027316D01*
X0162352Y0026643D01*
X0162118Y0025924D01*
X0162000Y0025178D01*
X0162000Y0022000D01*
X0166600Y0022000D01*
X0166600Y0029600D01*
X0166422Y0029600D01*
X0165676Y0029482D01*
X0164957Y0029248D01*
X0166600Y0029179D02*
X0167000Y0029179D01*
X0167000Y0029600D02*
X0167000Y0022000D01*
X0166600Y0022000D01*
X0166600Y0021600D01*
X0162000Y0021600D01*
X0162000Y0018422D01*
X0162118Y0017676D01*
X0162352Y0016957D01*
X0162695Y0016284D01*
X0163139Y0015673D01*
X0163673Y0015139D01*
X0164284Y0014695D01*
X0164957Y0014352D01*
X0165676Y0014118D01*
X0166422Y0014000D01*
X0166600Y0014000D01*
X0166600Y0021600D01*
X0167000Y0021600D01*
X0167000Y0022000D01*
X0171600Y0022000D01*
X0171600Y0025178D01*
X0171482Y0025924D01*
X0171248Y0026643D01*
X0170905Y0027316D01*
X0170461Y0027927D01*
X0169927Y0028461D01*
X0169316Y0028905D01*
X0168643Y0029248D01*
X0167924Y0029482D01*
X0167178Y0029600D01*
X0167000Y0029600D01*
X0168778Y0029179D02*
X0174822Y0029179D01*
X0174957Y0029248D02*
X0174284Y0028905D01*
X0173673Y0028461D01*
X0173139Y0027927D01*
X0172695Y0027316D01*
X0172352Y0026643D01*
X0172118Y0025924D01*
X0172000Y0025178D01*
X0172000Y0022000D01*
X0176600Y0022000D01*
X0176600Y0029600D01*
X0176422Y0029600D01*
X0175676Y0029482D01*
X0174957Y0029248D01*
X0176600Y0029179D02*
X0177000Y0029179D01*
X0177000Y0029600D02*
X0177000Y0022000D01*
X0176600Y0022000D01*
X0176600Y0021600D01*
X0172000Y0021600D01*
X0172000Y0018422D01*
X0172118Y0017676D01*
X0172352Y0016957D01*
X0172695Y0016284D01*
X0173139Y0015673D01*
X0173673Y0015139D01*
X0174284Y0014695D01*
X0174957Y0014352D01*
X0175676Y0014118D01*
X0176422Y0014000D01*
X0176600Y0014000D01*
X0176600Y0021600D01*
X0177000Y0021600D01*
X0177000Y0022000D01*
X0181600Y0022000D01*
X0181600Y0025178D01*
X0181482Y0025924D01*
X0181248Y0026643D01*
X0180905Y0027316D01*
X0180461Y0027927D01*
X0179927Y0028461D01*
X0179316Y0028905D01*
X0178643Y0029248D01*
X0177924Y0029482D01*
X0177178Y0029600D01*
X0177000Y0029600D01*
X0178778Y0029179D02*
X0185352Y0029179D01*
X0185885Y0029400D02*
X0184194Y0028700D01*
X0182900Y0027406D01*
X0182200Y0025715D01*
X0182200Y0017885D01*
X0182900Y0016194D01*
X0184194Y0014900D01*
X0185885Y0014200D01*
X0187715Y0014200D01*
X0189406Y0014900D01*
X0190700Y0016194D01*
X0191400Y0017885D01*
X0191400Y0025715D01*
X0190700Y0027406D01*
X0189406Y0028700D01*
X0187715Y0029400D01*
X0185885Y0029400D01*
X0188248Y0029179D02*
X0194481Y0029179D01*
X0193600Y0030060D02*
X0193600Y0033540D01*
X0196060Y0036000D01*
X0199540Y0036000D01*
X0201982Y0033558D01*
X0202239Y0034179D01*
X0203421Y0035361D01*
X0204965Y0036000D01*
X0206635Y0036000D01*
X0208179Y0035361D01*
X0209361Y0034179D01*
X0210000Y0032635D01*
X0210000Y0030965D01*
X0209361Y0029421D01*
X0208179Y0028239D01*
X0206635Y0027600D01*
X0204965Y0027600D01*
X0203421Y0028239D01*
X0202239Y0029421D01*
X0201982Y0030042D01*
X0199540Y0027600D01*
X0196060Y0027600D01*
X0193600Y0030060D01*
X0193600Y0030778D02*
X0154737Y0030778D01*
X0156336Y0032376D02*
X0193600Y0032376D01*
X0194035Y0033975D02*
X0157934Y0033975D01*
X0159533Y0035573D02*
X0195634Y0035573D01*
X0199966Y0035573D02*
X0203934Y0035573D01*
X0202155Y0033975D02*
X0201565Y0033975D01*
X0201119Y0029179D02*
X0202481Y0029179D01*
X0207666Y0035573D02*
X0231921Y0035573D01*
X0231921Y0033975D02*
X0209445Y0033975D01*
X0210000Y0032376D02*
X0231921Y0032376D01*
X0231921Y0030778D02*
X0209923Y0030778D01*
X0209119Y0029179D02*
X0231921Y0029179D01*
X0231921Y0027581D02*
X0190525Y0027581D01*
X0191289Y0025982D02*
X0222080Y0025982D01*
X0219801Y0024384D02*
X0191400Y0024384D01*
X0191400Y0022785D02*
X0218348Y0022785D01*
X0217426Y0021187D02*
X0191400Y0021187D01*
X0191400Y0019588D02*
X0216872Y0019588D01*
X0216488Y0017990D02*
X0191400Y0017990D01*
X0190781Y0016391D02*
X0216488Y0016391D01*
X0216662Y0014793D02*
X0189146Y0014793D01*
X0184454Y0014793D02*
X0179450Y0014793D01*
X0179316Y0014695D02*
X0179927Y0015139D01*
X0180461Y0015673D01*
X0180905Y0016284D01*
X0181248Y0016957D01*
X0181482Y0017676D01*
X0181600Y0018422D01*
X0181600Y0021600D01*
X0177000Y0021600D01*
X0177000Y0014000D01*
X0177178Y0014000D01*
X0177924Y0014118D01*
X0178643Y0014352D01*
X0179316Y0014695D01*
X0177000Y0014793D02*
X0176600Y0014793D01*
X0176600Y0016391D02*
X0177000Y0016391D01*
X0177000Y0017990D02*
X0176600Y0017990D01*
X0176600Y0019588D02*
X0177000Y0019588D01*
X0177000Y0021187D02*
X0176600Y0021187D01*
X0176600Y0022785D02*
X0177000Y0022785D01*
X0177000Y0024384D02*
X0176600Y0024384D01*
X0176600Y0025982D02*
X0177000Y0025982D01*
X0177000Y0027581D02*
X0176600Y0027581D01*
X0180713Y0027581D02*
X0183075Y0027581D01*
X0182311Y0025982D02*
X0181463Y0025982D01*
X0181600Y0024384D02*
X0182200Y0024384D01*
X0182200Y0022785D02*
X0181600Y0022785D01*
X0181600Y0021187D02*
X0182200Y0021187D01*
X0182200Y0019588D02*
X0181600Y0019588D01*
X0181531Y0017990D02*
X0182200Y0017990D01*
X0182819Y0016391D02*
X0180960Y0016391D01*
X0174150Y0014793D02*
X0169450Y0014793D01*
X0169316Y0014695D02*
X0169927Y0015139D01*
X0170461Y0015673D01*
X0170905Y0016284D01*
X0171248Y0016957D01*
X0171482Y0017676D01*
X0171600Y0018422D01*
X0171600Y0021600D01*
X0167000Y0021600D01*
X0167000Y0014000D01*
X0167178Y0014000D01*
X0167924Y0014118D01*
X0168643Y0014352D01*
X0169316Y0014695D01*
X0167000Y0014793D02*
X0166600Y0014793D01*
X0166600Y0016391D02*
X0167000Y0016391D01*
X0167000Y0017990D02*
X0166600Y0017990D01*
X0166600Y0019588D02*
X0167000Y0019588D01*
X0167000Y0021187D02*
X0166600Y0021187D01*
X0166600Y0022785D02*
X0167000Y0022785D01*
X0167000Y0024384D02*
X0166600Y0024384D01*
X0166600Y0025982D02*
X0167000Y0025982D01*
X0167000Y0027581D02*
X0166600Y0027581D01*
X0170713Y0027581D02*
X0172887Y0027581D01*
X0172137Y0025982D02*
X0171463Y0025982D01*
X0171600Y0024384D02*
X0172000Y0024384D01*
X0172000Y0022785D02*
X0171600Y0022785D01*
X0171600Y0021187D02*
X0172000Y0021187D01*
X0172000Y0019588D02*
X0171600Y0019588D01*
X0171531Y0017990D02*
X0172069Y0017990D01*
X0172640Y0016391D02*
X0170960Y0016391D01*
X0164150Y0014793D02*
X0074450Y0014793D01*
X0074316Y0014695D02*
X0074927Y0015139D01*
X0075461Y0015673D01*
X0075905Y0016284D01*
X0076248Y0016957D01*
X0076482Y0017676D01*
X0076600Y0018422D01*
X0076600Y0021600D01*
X0072000Y0021600D01*
X0072000Y0022000D01*
X0071600Y0022000D01*
X0071600Y0029600D01*
X0071422Y0029600D01*
X0070676Y0029482D01*
X0069957Y0029248D01*
X0069284Y0028905D01*
X0068673Y0028461D01*
X0068139Y0027927D01*
X0067695Y0027316D01*
X0067352Y0026643D01*
X0067118Y0025924D01*
X0067000Y0025178D01*
X0067000Y0022000D01*
X0071600Y0022000D01*
X0071600Y0021600D01*
X0067000Y0021600D01*
X0067000Y0018422D01*
X0067118Y0017676D01*
X0067352Y0016957D01*
X0067695Y0016284D01*
X0068139Y0015673D01*
X0068673Y0015139D01*
X0069284Y0014695D01*
X0069957Y0014352D01*
X0070676Y0014118D01*
X0071422Y0014000D01*
X0071600Y0014000D01*
X0071600Y0021600D01*
X0072000Y0021600D01*
X0072000Y0014000D01*
X0072178Y0014000D01*
X0072924Y0014118D01*
X0073643Y0014352D01*
X0074316Y0014695D01*
X0072000Y0014793D02*
X0071600Y0014793D01*
X0071600Y0016391D02*
X0072000Y0016391D01*
X0072000Y0017990D02*
X0071600Y0017990D01*
X0071600Y0019588D02*
X0072000Y0019588D01*
X0072000Y0021187D02*
X0071600Y0021187D01*
X0072000Y0022000D02*
X0076600Y0022000D01*
X0076600Y0025178D01*
X0076482Y0025924D01*
X0076248Y0026643D01*
X0075905Y0027316D01*
X0075461Y0027927D01*
X0074927Y0028461D01*
X0074316Y0028905D01*
X0073643Y0029248D01*
X0072924Y0029482D01*
X0072178Y0029600D01*
X0072000Y0029600D01*
X0072000Y0022000D01*
X0072000Y0022785D02*
X0071600Y0022785D01*
X0071600Y0024384D02*
X0072000Y0024384D01*
X0072000Y0025982D02*
X0071600Y0025982D01*
X0071600Y0027581D02*
X0072000Y0027581D01*
X0072000Y0029179D02*
X0071600Y0029179D01*
X0069822Y0029179D02*
X0063778Y0029179D01*
X0063643Y0029248D02*
X0062924Y0029482D01*
X0062178Y0029600D01*
X0062000Y0029600D01*
X0062000Y0022000D01*
X0061600Y0022000D01*
X0061600Y0029600D01*
X0061422Y0029600D01*
X0060676Y0029482D01*
X0059957Y0029248D01*
X0059284Y0028905D01*
X0058673Y0028461D01*
X0058139Y0027927D01*
X0057695Y0027316D01*
X0057352Y0026643D01*
X0057118Y0025924D01*
X0057000Y0025178D01*
X0057000Y0022000D01*
X0061600Y0022000D01*
X0061600Y0021600D01*
X0057000Y0021600D01*
X0057000Y0018422D01*
X0057118Y0017676D01*
X0057352Y0016957D01*
X0057695Y0016284D01*
X0058139Y0015673D01*
X0058673Y0015139D01*
X0059284Y0014695D01*
X0059957Y0014352D01*
X0060676Y0014118D01*
X0061422Y0014000D01*
X0061600Y0014000D01*
X0061600Y0021600D01*
X0062000Y0021600D01*
X0062000Y0022000D01*
X0066600Y0022000D01*
X0066600Y0025178D01*
X0066482Y0025924D01*
X0066248Y0026643D01*
X0065905Y0027316D01*
X0065461Y0027927D01*
X0064927Y0028461D01*
X0064316Y0028905D01*
X0063643Y0029248D01*
X0062000Y0029179D02*
X0061600Y0029179D01*
X0061600Y0027581D02*
X0062000Y0027581D01*
X0062000Y0025982D02*
X0061600Y0025982D01*
X0061600Y0024384D02*
X0062000Y0024384D01*
X0062000Y0022785D02*
X0061600Y0022785D01*
X0062000Y0021600D02*
X0066600Y0021600D01*
X0066600Y0018422D01*
X0066482Y0017676D01*
X0066248Y0016957D01*
X0065905Y0016284D01*
X0065461Y0015673D01*
X0064927Y0015139D01*
X0064316Y0014695D01*
X0063643Y0014352D01*
X0062924Y0014118D01*
X0062178Y0014000D01*
X0062000Y0014000D01*
X0062000Y0021600D01*
X0062000Y0021187D02*
X0061600Y0021187D01*
X0061600Y0019588D02*
X0062000Y0019588D01*
X0062000Y0017990D02*
X0061600Y0017990D01*
X0061600Y0016391D02*
X0062000Y0016391D01*
X0062000Y0014793D02*
X0061600Y0014793D01*
X0059150Y0014793D02*
X0054146Y0014793D01*
X0054406Y0014900D02*
X0055700Y0016194D01*
X0056400Y0017885D01*
X0056400Y0025715D01*
X0055700Y0027406D01*
X0054406Y0028700D01*
X0052715Y0029400D01*
X0050885Y0029400D01*
X0049194Y0028700D01*
X0047900Y0027406D01*
X0047200Y0025715D01*
X0047200Y0017885D01*
X0047900Y0016194D01*
X0049194Y0014900D01*
X0050885Y0014200D01*
X0052715Y0014200D01*
X0054406Y0014900D01*
X0055781Y0016391D02*
X0057640Y0016391D01*
X0057069Y0017990D02*
X0056400Y0017990D01*
X0056400Y0019588D02*
X0057000Y0019588D01*
X0057000Y0021187D02*
X0056400Y0021187D01*
X0056400Y0022785D02*
X0057000Y0022785D01*
X0057000Y0024384D02*
X0056400Y0024384D01*
X0056289Y0025982D02*
X0057137Y0025982D01*
X0057887Y0027581D02*
X0055525Y0027581D01*
X0053248Y0029179D02*
X0059822Y0029179D01*
X0065713Y0027581D02*
X0067887Y0027581D01*
X0067137Y0025982D02*
X0066463Y0025982D01*
X0066600Y0024384D02*
X0067000Y0024384D01*
X0067000Y0022785D02*
X0066600Y0022785D01*
X0066600Y0021187D02*
X0067000Y0021187D01*
X0067000Y0019588D02*
X0066600Y0019588D01*
X0066531Y0017990D02*
X0067069Y0017990D01*
X0067640Y0016391D02*
X0065960Y0016391D01*
X0064450Y0014793D02*
X0069150Y0014793D01*
X0075960Y0016391D02*
X0162640Y0016391D01*
X0162069Y0017990D02*
X0108929Y0017990D01*
X0104671Y0017990D02*
X0098929Y0017990D01*
X0098540Y0017600D02*
X0101000Y0020060D01*
X0101000Y0023540D01*
X0098540Y0026000D01*
X0095060Y0026000D01*
X0092600Y0023540D01*
X0092600Y0020060D01*
X0095060Y0017600D01*
X0098540Y0017600D01*
X0100528Y0019588D02*
X0103072Y0019588D01*
X0102600Y0021187D02*
X0101000Y0021187D01*
X0101000Y0022785D02*
X0102600Y0022785D01*
X0103444Y0024384D02*
X0100156Y0024384D01*
X0100060Y0025100D02*
X0103540Y0025100D01*
X0106000Y0027560D01*
X0106000Y0031040D01*
X0103540Y0033500D01*
X0100060Y0033500D01*
X0097600Y0031040D01*
X0097600Y0027560D01*
X0100060Y0025100D01*
X0099178Y0025982D02*
X0098558Y0025982D01*
X0097600Y0027581D02*
X0091000Y0027581D01*
X0091000Y0028540D02*
X0088540Y0031000D01*
X0085060Y0031000D01*
X0082600Y0028540D01*
X0082600Y0025060D01*
X0085060Y0022600D01*
X0088540Y0022600D01*
X0091000Y0025060D01*
X0091000Y0028540D01*
X0090361Y0029179D02*
X0097600Y0029179D01*
X0097600Y0030778D02*
X0088762Y0030778D01*
X0084838Y0030778D02*
X0033762Y0030778D01*
X0033540Y0031000D02*
X0030060Y0031000D01*
X0027600Y0028540D01*
X0027600Y0025060D01*
X0030060Y0022600D01*
X0033540Y0022600D01*
X0036000Y0025060D01*
X0036000Y0028540D01*
X0033540Y0031000D01*
X0035361Y0029179D02*
X0050352Y0029179D01*
X0048075Y0027581D02*
X0036000Y0027581D01*
X0036000Y0025982D02*
X0047311Y0025982D01*
X0047200Y0024384D02*
X0035323Y0024384D01*
X0033725Y0022785D02*
X0047200Y0022785D01*
X0047200Y0021187D02*
X0026174Y0021187D01*
X0026728Y0019588D02*
X0047200Y0019588D01*
X0047200Y0017990D02*
X0027112Y0017990D01*
X0027112Y0016391D02*
X0047819Y0016391D01*
X0049454Y0014793D02*
X0026938Y0014793D01*
X0026509Y0013194D02*
X0217091Y0013194D01*
X0231520Y0025982D02*
X0231921Y0025982D01*
X0231921Y0037172D02*
X0161131Y0037172D01*
X0162730Y0038770D02*
X0231921Y0038770D01*
X0231921Y0040369D02*
X0164329Y0040369D01*
X0165927Y0041967D02*
X0231921Y0041967D01*
X0231921Y0043566D02*
X0189788Y0043566D01*
X0188623Y0042400D02*
X0191200Y0044977D01*
X0191200Y0046800D01*
X0191200Y0048623D01*
X0188623Y0051200D01*
X0186800Y0051200D01*
X0186800Y0046800D01*
X0191200Y0046800D01*
X0186800Y0046800D01*
X0186800Y0046800D01*
X0186800Y0046800D01*
X0186800Y0042400D01*
X0188623Y0042400D01*
X0186800Y0042400D02*
X0186800Y0046800D01*
X0186800Y0046800D01*
X0186800Y0046800D01*
X0182400Y0046800D01*
X0182400Y0048623D01*
X0184977Y0051200D01*
X0186800Y0051200D01*
X0186800Y0046800D01*
X0182400Y0046800D01*
X0182400Y0044977D01*
X0184977Y0042400D01*
X0186800Y0042400D01*
X0186800Y0043566D02*
X0186800Y0043566D01*
X0186800Y0045164D02*
X0186800Y0045164D01*
X0186800Y0046763D02*
X0186800Y0046763D01*
X0186800Y0048361D02*
X0186800Y0048361D01*
X0186800Y0049960D02*
X0186800Y0049960D01*
X0189863Y0049960D02*
X0231921Y0049960D01*
X0231921Y0051558D02*
X0170518Y0051558D01*
X0169600Y0049960D02*
X0183737Y0049960D01*
X0182400Y0048361D02*
X0171000Y0048361D01*
X0171000Y0046763D02*
X0182400Y0046763D01*
X0182400Y0045164D02*
X0171000Y0045164D01*
X0169505Y0043566D02*
X0183812Y0043566D01*
X0191200Y0045164D02*
X0231921Y0045164D01*
X0231921Y0046763D02*
X0191200Y0046763D01*
X0191200Y0048361D02*
X0231921Y0048361D01*
X0231921Y0053157D02*
X0172117Y0053157D01*
X0173715Y0054755D02*
X0231921Y0054755D01*
X0231921Y0069142D02*
X0200364Y0069142D01*
X0201200Y0070740D02*
X0231921Y0070740D01*
X0231921Y0072339D02*
X0201200Y0072339D01*
X0200885Y0073937D02*
X0231921Y0073937D01*
X0194745Y0097915D02*
X0183855Y0097915D01*
X0183540Y0097600D02*
X0186000Y0100060D01*
X0186000Y0103540D01*
X0183540Y0106000D01*
X0180060Y0106000D01*
X0177600Y0103540D01*
X0177600Y0100060D01*
X0180060Y0097600D01*
X0183540Y0097600D01*
X0185453Y0099514D02*
X0193147Y0099514D01*
X0192600Y0101112D02*
X0186000Y0101112D01*
X0186000Y0102711D02*
X0192600Y0102711D01*
X0193370Y0104309D02*
X0185230Y0104309D01*
X0183632Y0105908D02*
X0194968Y0105908D01*
X0206800Y0121893D02*
X0206800Y0121893D01*
X0206800Y0123491D02*
X0206800Y0123491D01*
X0206800Y0125090D02*
X0206800Y0125090D01*
X0179968Y0105908D02*
X0168632Y0105908D01*
X0170230Y0104309D02*
X0178370Y0104309D01*
X0177600Y0102711D02*
X0171000Y0102711D01*
X0171000Y0101112D02*
X0177600Y0101112D01*
X0178147Y0099514D02*
X0170453Y0099514D01*
X0168855Y0097915D02*
X0179745Y0097915D01*
X0164745Y0097915D02*
X0153855Y0097915D01*
X0155453Y0099514D02*
X0163147Y0099514D01*
X0162600Y0101112D02*
X0156000Y0101112D01*
X0156000Y0102711D02*
X0161930Y0102711D01*
X0160331Y0104309D02*
X0155230Y0104309D01*
X0153632Y0105908D02*
X0158732Y0105908D01*
X0153126Y0118696D02*
X0139600Y0118696D01*
X0139600Y0120294D02*
X0152600Y0120294D01*
X0152707Y0121893D02*
X0139600Y0121893D01*
X0139600Y0123491D02*
X0153552Y0123491D01*
X0143818Y0137878D02*
X0169782Y0137878D01*
X0168184Y0139476D02*
X0145416Y0139476D01*
X0146000Y0141075D02*
X0167600Y0141075D01*
X0167600Y0142673D02*
X0146000Y0142673D01*
X0145268Y0144272D02*
X0168332Y0144272D01*
X0169931Y0145870D02*
X0143669Y0145870D01*
X0139931Y0145870D02*
X0134600Y0145870D01*
X0134600Y0144272D02*
X0138332Y0144272D01*
X0135566Y0142673D02*
X0134886Y0142673D01*
X0134600Y0147469D02*
X0173509Y0147469D01*
X0174000Y0149068D02*
X0134600Y0149068D01*
X0134600Y0150666D02*
X0174000Y0150666D01*
X0174000Y0152265D02*
X0145293Y0152265D01*
X0144827Y0151798D02*
X0146487Y0153458D01*
X0147385Y0155626D01*
X0147385Y0157974D01*
X0146487Y0160142D01*
X0144827Y0161802D01*
X0142659Y0162700D01*
X0140311Y0162700D01*
X0138143Y0161802D01*
X0136483Y0160142D01*
X0135585Y0157974D01*
X0135585Y0155626D01*
X0136483Y0153458D01*
X0138143Y0151798D01*
X0140311Y0150900D01*
X0142659Y0150900D01*
X0144827Y0151798D01*
X0146655Y0153863D02*
X0174000Y0153863D01*
X0174000Y0155462D02*
X0147317Y0155462D01*
X0147385Y0157060D02*
X0174000Y0157060D01*
X0174000Y0158659D02*
X0147101Y0158659D01*
X0146372Y0160257D02*
X0174000Y0160257D01*
X0158834Y0193826D02*
X0149766Y0193826D01*
X0151000Y0195424D02*
X0157600Y0195424D01*
X0157600Y0197023D02*
X0151000Y0197023D01*
X0150918Y0198621D02*
X0157682Y0198621D01*
X0145684Y0174644D02*
X0134896Y0174644D01*
X0136000Y0173045D02*
X0144285Y0173045D01*
X0144000Y0171447D02*
X0136113Y0171447D01*
X0137712Y0169848D02*
X0143908Y0169848D01*
X0138273Y0161856D02*
X0134600Y0161856D01*
X0134600Y0160257D02*
X0136598Y0160257D01*
X0135869Y0158659D02*
X0134600Y0158659D01*
X0134600Y0157060D02*
X0135585Y0157060D01*
X0135653Y0155462D02*
X0134600Y0155462D01*
X0134600Y0153863D02*
X0136315Y0153863D01*
X0137677Y0152265D02*
X0134600Y0152265D01*
X0130164Y0139476D02*
X0130063Y0139476D01*
X0131000Y0137878D02*
X0131762Y0137878D01*
X0131000Y0136279D02*
X0133361Y0136279D01*
X0134000Y0134681D02*
X0130621Y0134681D01*
X0123867Y0125090D02*
X0109600Y0125090D01*
X0111000Y0123491D02*
X0122400Y0123491D01*
X0122400Y0121893D02*
X0111000Y0121893D01*
X0111000Y0120294D02*
X0122400Y0120294D01*
X0123682Y0118696D02*
X0109635Y0118696D01*
X0105923Y0152265D02*
X0117992Y0152265D01*
X0116630Y0153863D02*
X0107285Y0153863D01*
X0107947Y0155462D02*
X0115968Y0155462D01*
X0115900Y0157060D02*
X0108015Y0157060D01*
X0107731Y0158659D02*
X0116184Y0158659D01*
X0116913Y0160257D02*
X0107002Y0160257D01*
X0105327Y0161856D02*
X0118588Y0161856D01*
X0096800Y0162400D02*
X0096800Y0166800D01*
X0096800Y0166800D01*
X0092400Y0166800D01*
X0092400Y0164977D01*
X0094977Y0162400D01*
X0096800Y0162400D01*
X0096800Y0163454D02*
X0096800Y0163454D01*
X0096800Y0165053D02*
X0096800Y0165053D01*
X0096800Y0166651D02*
X0096800Y0166651D01*
X0096800Y0168250D02*
X0096800Y0168250D01*
X0096800Y0169848D02*
X0096800Y0169848D01*
X0093626Y0169848D02*
X0084600Y0169848D01*
X0084600Y0168250D02*
X0092400Y0168250D01*
X0092400Y0166651D02*
X0084600Y0166651D01*
X0084600Y0165053D02*
X0092400Y0165053D01*
X0093923Y0163454D02*
X0084600Y0163454D01*
X0079227Y0185833D02*
X0074373Y0185833D01*
X0075614Y0187432D02*
X0077986Y0187432D01*
X0077600Y0189030D02*
X0076000Y0189030D01*
X0076000Y0190629D02*
X0077600Y0190629D01*
X0077600Y0192227D02*
X0076000Y0192227D01*
X0076000Y0193826D02*
X0077600Y0193826D01*
X0077678Y0195424D02*
X0075922Y0195424D01*
X0075117Y0197023D02*
X0078483Y0197023D01*
X0074152Y0208212D02*
X0085486Y0208212D01*
X0085421Y0208239D02*
X0086965Y0207600D01*
X0088635Y0207600D01*
X0090179Y0208239D01*
X0091361Y0209421D01*
X0091535Y0209842D01*
X0093977Y0207400D01*
X0095800Y0207400D01*
X0095800Y0211800D01*
X0095800Y0211800D01*
X0095800Y0216200D01*
X0093977Y0216200D01*
X0091535Y0213758D01*
X0091361Y0214179D01*
X0090179Y0215361D01*
X0088635Y0216000D01*
X0086965Y0216000D01*
X0085421Y0215361D01*
X0084239Y0214179D01*
X0083600Y0212635D01*
X0083600Y0210965D01*
X0084239Y0209421D01*
X0085421Y0208239D01*
X0084078Y0209811D02*
X0075751Y0209811D01*
X0076000Y0211409D02*
X0083600Y0211409D01*
X0083754Y0213008D02*
X0076000Y0213008D01*
X0074933Y0214606D02*
X0084667Y0214606D01*
X0090933Y0214606D02*
X0092384Y0214606D01*
X0095800Y0214606D02*
X0095800Y0214606D01*
X0095800Y0213008D02*
X0095800Y0213008D01*
X0095800Y0211409D02*
X0095800Y0211409D01*
X0095800Y0209811D02*
X0095800Y0209811D01*
X0095800Y0208212D02*
X0095800Y0208212D01*
X0098435Y0208212D02*
X0104354Y0208212D01*
X0093165Y0208212D02*
X0090114Y0208212D01*
X0091522Y0209811D02*
X0091567Y0209811D01*
X0062745Y0236986D02*
X0011600Y0236986D01*
X0011600Y0238584D02*
X0063644Y0238584D01*
X0081204Y0248175D02*
X0084485Y0248175D01*
X0085060Y0247600D02*
X0082600Y0250060D01*
X0082600Y0253540D01*
X0085060Y0256000D01*
X0088540Y0256000D01*
X0091000Y0253540D01*
X0091000Y0250060D01*
X0088540Y0247600D01*
X0085060Y0247600D01*
X0082887Y0249774D02*
X0082032Y0249774D01*
X0082385Y0251372D02*
X0082600Y0251372D01*
X0082600Y0252971D02*
X0082385Y0252971D01*
X0081724Y0254569D02*
X0083630Y0254569D01*
X0080461Y0256168D02*
X0114945Y0256168D01*
X0113347Y0254569D02*
X0089970Y0254569D01*
X0091000Y0252971D02*
X0112400Y0252971D01*
X0112400Y0251372D02*
X0091000Y0251372D01*
X0090713Y0249774D02*
X0112604Y0249774D01*
X0114202Y0248175D02*
X0089115Y0248175D01*
X0058667Y0214606D02*
X0049933Y0214606D01*
X0051000Y0213540D02*
X0048540Y0216000D01*
X0045060Y0216000D01*
X0042600Y0213540D01*
X0042600Y0210060D01*
X0045060Y0207600D01*
X0048540Y0207600D01*
X0051000Y0210060D01*
X0051000Y0213540D01*
X0051000Y0213008D02*
X0057600Y0213008D01*
X0057600Y0211409D02*
X0051000Y0211409D01*
X0050751Y0209811D02*
X0057849Y0209811D01*
X0059448Y0208212D02*
X0049152Y0208212D01*
X0044448Y0208212D02*
X0031200Y0208212D01*
X0031012Y0209811D02*
X0042849Y0209811D01*
X0042600Y0211409D02*
X0029413Y0211409D01*
X0031376Y0213008D02*
X0042600Y0213008D01*
X0043667Y0214606D02*
X0033566Y0214606D01*
X0026009Y0174644D02*
X0045684Y0174644D01*
X0044085Y0173045D02*
X0026808Y0173045D01*
X0027607Y0171447D02*
X0042487Y0171447D01*
X0038908Y0169848D02*
X0029692Y0169848D01*
X0054450Y0125090D02*
X0059150Y0125090D01*
X0057600Y0123491D02*
X0056000Y0123491D01*
X0056000Y0121893D02*
X0057600Y0121893D01*
X0057600Y0120294D02*
X0056000Y0120294D01*
X0106800Y0075536D02*
X0106800Y0075536D01*
X0106800Y0073937D02*
X0106800Y0073937D01*
X0104663Y0032376D02*
X0118416Y0032376D01*
X0120015Y0033975D02*
X0011600Y0033975D01*
X0011600Y0032376D02*
X0098936Y0032376D01*
X0095042Y0025982D02*
X0091000Y0025982D01*
X0090323Y0024384D02*
X0093444Y0024384D01*
X0092600Y0022785D02*
X0088725Y0022785D01*
X0084875Y0022785D02*
X0076600Y0022785D01*
X0076600Y0021187D02*
X0092600Y0021187D01*
X0093072Y0019588D02*
X0076600Y0019588D01*
X0076531Y0017990D02*
X0094671Y0017990D01*
X0104422Y0025982D02*
X0105042Y0025982D01*
X0106000Y0027581D02*
X0112600Y0027581D01*
X0112022Y0025982D02*
X0108558Y0025982D01*
X0106000Y0029179D02*
X0113239Y0029179D01*
X0114838Y0030778D02*
X0106000Y0030778D01*
X0113548Y0019588D02*
X0162000Y0019588D01*
X0162000Y0021187D02*
X0115146Y0021187D01*
X0118725Y0022785D02*
X0129592Y0022785D01*
X0129977Y0022400D02*
X0131800Y0022400D01*
X0133623Y0022400D01*
X0136200Y0024977D01*
X0136200Y0026800D01*
X0131800Y0026800D01*
X0131800Y0026800D01*
X0131800Y0022400D01*
X0131800Y0026800D01*
X0131800Y0026800D01*
X0131800Y0026800D01*
X0127400Y0026800D01*
X0127400Y0024977D01*
X0129977Y0022400D01*
X0131800Y0022785D02*
X0131800Y0022785D01*
X0131800Y0024384D02*
X0131800Y0024384D01*
X0131800Y0025982D02*
X0131800Y0025982D01*
X0134008Y0022785D02*
X0144592Y0022785D01*
X0144977Y0022400D02*
X0146800Y0022400D01*
X0148623Y0022400D01*
X0151200Y0024977D01*
X0151200Y0026800D01*
X0146800Y0026800D01*
X0146800Y0026800D01*
X0146800Y0022400D01*
X0146800Y0026800D01*
X0146800Y0026800D01*
X0146800Y0026800D01*
X0142400Y0026800D01*
X0142400Y0024977D01*
X0144977Y0022400D01*
X0146800Y0022785D02*
X0146800Y0022785D01*
X0146800Y0024384D02*
X0146800Y0024384D01*
X0146800Y0025982D02*
X0146800Y0025982D01*
X0149008Y0022785D02*
X0162000Y0022785D01*
X0162000Y0024384D02*
X0150606Y0024384D01*
X0151200Y0025982D02*
X0162137Y0025982D01*
X0162887Y0027581D02*
X0151200Y0027581D01*
X0142400Y0027581D02*
X0136200Y0027581D01*
X0136200Y0025982D02*
X0142400Y0025982D01*
X0142994Y0024384D02*
X0135606Y0024384D01*
X0127994Y0024384D02*
X0120323Y0024384D01*
X0121000Y0025982D02*
X0127400Y0025982D01*
X0127400Y0027581D02*
X0121540Y0027581D01*
X0083239Y0029179D02*
X0073778Y0029179D01*
X0075713Y0027581D02*
X0082600Y0027581D01*
X0082600Y0025982D02*
X0076463Y0025982D01*
X0076600Y0024384D02*
X0083277Y0024384D01*
X0029875Y0022785D02*
X0025252Y0022785D01*
X0023799Y0024384D02*
X0028277Y0024384D01*
X0027600Y0025982D02*
X0021520Y0025982D01*
X0027600Y0027581D02*
X0011600Y0027581D01*
X0011600Y0029179D02*
X0028239Y0029179D01*
X0029838Y0030778D02*
X0011600Y0030778D01*
X0011600Y0025982D02*
X0012080Y0025982D01*
X0139384Y0137878D02*
X0139782Y0137878D01*
X0157693Y0078733D02*
X0170907Y0078733D01*
X0181708Y0062748D02*
X0181892Y0062748D01*
X0183491Y0061149D02*
X0180109Y0061149D01*
X0178511Y0059551D02*
X0185089Y0059551D01*
X0212241Y0249774D02*
X0231921Y0249774D01*
X0231921Y0251372D02*
X0212585Y0251372D01*
X0212476Y0252971D02*
X0231921Y0252971D01*
X0231921Y0254569D02*
X0211920Y0254569D01*
X0210744Y0256168D02*
X0231921Y0256168D01*
X0231921Y0257766D02*
X0231777Y0257766D01*
X0217130Y0270554D02*
X0026470Y0270554D01*
X0134217Y0268956D02*
X0139383Y0268956D01*
X0141600Y0268956D02*
X0142000Y0268956D01*
X0142000Y0267357D02*
X0141600Y0267357D01*
X0141600Y0265759D02*
X0142000Y0265759D01*
X0142000Y0264160D02*
X0141600Y0264160D01*
X0141600Y0262562D02*
X0142000Y0262562D01*
X0142000Y0260963D02*
X0141600Y0260963D01*
X0141600Y0259365D02*
X0142000Y0259365D01*
X0142000Y0257766D02*
X0141600Y0257766D01*
X0141600Y0256168D02*
X0142000Y0256168D01*
X0142000Y0254569D02*
X0141600Y0254569D01*
X0139530Y0254569D02*
X0134070Y0254569D01*
X0135821Y0256168D02*
X0137779Y0256168D01*
X0137104Y0257766D02*
X0136496Y0257766D01*
X0136600Y0259365D02*
X0137000Y0259365D01*
X0137000Y0260963D02*
X0136600Y0260963D01*
X0136600Y0262562D02*
X0137000Y0262562D01*
X0137000Y0264160D02*
X0136600Y0264160D01*
X0136508Y0265759D02*
X0137092Y0265759D01*
X0137725Y0267357D02*
X0135875Y0267357D01*
M02*
