G75*
%MOIN*%
%OFA0B0*%
%FSLAX25Y25*%
%IPPOS*%
%LPD*%
%AMOC8*
5,1,8,0,0,1.08239X$1,22.5*
%
%ADD10C,0.00000*%
%ADD11OC8,0.05200*%
%ADD12C,0.05200*%
%ADD13C,0.06000*%
%ADD14C,0.05200*%
%ADD15C,0.08600*%
%ADD16C,0.02400*%
D10*
X0006800Y0006800D02*
X0006800Y0275501D01*
X0236721Y0275501D01*
X0236721Y0006800D01*
X0006800Y0006800D01*
X0011288Y0016800D02*
X0011290Y0016948D01*
X0011296Y0017096D01*
X0011306Y0017244D01*
X0011320Y0017391D01*
X0011338Y0017538D01*
X0011359Y0017684D01*
X0011385Y0017830D01*
X0011415Y0017975D01*
X0011448Y0018119D01*
X0011486Y0018262D01*
X0011527Y0018404D01*
X0011572Y0018545D01*
X0011620Y0018685D01*
X0011673Y0018824D01*
X0011729Y0018961D01*
X0011789Y0019096D01*
X0011852Y0019230D01*
X0011919Y0019362D01*
X0011990Y0019492D01*
X0012064Y0019620D01*
X0012141Y0019746D01*
X0012222Y0019870D01*
X0012306Y0019992D01*
X0012393Y0020111D01*
X0012484Y0020228D01*
X0012578Y0020343D01*
X0012674Y0020455D01*
X0012774Y0020565D01*
X0012876Y0020671D01*
X0012982Y0020775D01*
X0013090Y0020876D01*
X0013201Y0020974D01*
X0013314Y0021070D01*
X0013430Y0021162D01*
X0013548Y0021251D01*
X0013669Y0021336D01*
X0013792Y0021419D01*
X0013917Y0021498D01*
X0014044Y0021574D01*
X0014173Y0021646D01*
X0014304Y0021715D01*
X0014437Y0021780D01*
X0014572Y0021841D01*
X0014708Y0021899D01*
X0014845Y0021954D01*
X0014984Y0022004D01*
X0015125Y0022051D01*
X0015266Y0022094D01*
X0015409Y0022134D01*
X0015553Y0022169D01*
X0015697Y0022201D01*
X0015843Y0022228D01*
X0015989Y0022252D01*
X0016136Y0022272D01*
X0016283Y0022288D01*
X0016430Y0022300D01*
X0016578Y0022308D01*
X0016726Y0022312D01*
X0016874Y0022312D01*
X0017022Y0022308D01*
X0017170Y0022300D01*
X0017317Y0022288D01*
X0017464Y0022272D01*
X0017611Y0022252D01*
X0017757Y0022228D01*
X0017903Y0022201D01*
X0018047Y0022169D01*
X0018191Y0022134D01*
X0018334Y0022094D01*
X0018475Y0022051D01*
X0018616Y0022004D01*
X0018755Y0021954D01*
X0018892Y0021899D01*
X0019028Y0021841D01*
X0019163Y0021780D01*
X0019296Y0021715D01*
X0019427Y0021646D01*
X0019556Y0021574D01*
X0019683Y0021498D01*
X0019808Y0021419D01*
X0019931Y0021336D01*
X0020052Y0021251D01*
X0020170Y0021162D01*
X0020286Y0021070D01*
X0020399Y0020974D01*
X0020510Y0020876D01*
X0020618Y0020775D01*
X0020724Y0020671D01*
X0020826Y0020565D01*
X0020926Y0020455D01*
X0021022Y0020343D01*
X0021116Y0020228D01*
X0021207Y0020111D01*
X0021294Y0019992D01*
X0021378Y0019870D01*
X0021459Y0019746D01*
X0021536Y0019620D01*
X0021610Y0019492D01*
X0021681Y0019362D01*
X0021748Y0019230D01*
X0021811Y0019096D01*
X0021871Y0018961D01*
X0021927Y0018824D01*
X0021980Y0018685D01*
X0022028Y0018545D01*
X0022073Y0018404D01*
X0022114Y0018262D01*
X0022152Y0018119D01*
X0022185Y0017975D01*
X0022215Y0017830D01*
X0022241Y0017684D01*
X0022262Y0017538D01*
X0022280Y0017391D01*
X0022294Y0017244D01*
X0022304Y0017096D01*
X0022310Y0016948D01*
X0022312Y0016800D01*
X0022310Y0016652D01*
X0022304Y0016504D01*
X0022294Y0016356D01*
X0022280Y0016209D01*
X0022262Y0016062D01*
X0022241Y0015916D01*
X0022215Y0015770D01*
X0022185Y0015625D01*
X0022152Y0015481D01*
X0022114Y0015338D01*
X0022073Y0015196D01*
X0022028Y0015055D01*
X0021980Y0014915D01*
X0021927Y0014776D01*
X0021871Y0014639D01*
X0021811Y0014504D01*
X0021748Y0014370D01*
X0021681Y0014238D01*
X0021610Y0014108D01*
X0021536Y0013980D01*
X0021459Y0013854D01*
X0021378Y0013730D01*
X0021294Y0013608D01*
X0021207Y0013489D01*
X0021116Y0013372D01*
X0021022Y0013257D01*
X0020926Y0013145D01*
X0020826Y0013035D01*
X0020724Y0012929D01*
X0020618Y0012825D01*
X0020510Y0012724D01*
X0020399Y0012626D01*
X0020286Y0012530D01*
X0020170Y0012438D01*
X0020052Y0012349D01*
X0019931Y0012264D01*
X0019808Y0012181D01*
X0019683Y0012102D01*
X0019556Y0012026D01*
X0019427Y0011954D01*
X0019296Y0011885D01*
X0019163Y0011820D01*
X0019028Y0011759D01*
X0018892Y0011701D01*
X0018755Y0011646D01*
X0018616Y0011596D01*
X0018475Y0011549D01*
X0018334Y0011506D01*
X0018191Y0011466D01*
X0018047Y0011431D01*
X0017903Y0011399D01*
X0017757Y0011372D01*
X0017611Y0011348D01*
X0017464Y0011328D01*
X0017317Y0011312D01*
X0017170Y0011300D01*
X0017022Y0011292D01*
X0016874Y0011288D01*
X0016726Y0011288D01*
X0016578Y0011292D01*
X0016430Y0011300D01*
X0016283Y0011312D01*
X0016136Y0011328D01*
X0015989Y0011348D01*
X0015843Y0011372D01*
X0015697Y0011399D01*
X0015553Y0011431D01*
X0015409Y0011466D01*
X0015266Y0011506D01*
X0015125Y0011549D01*
X0014984Y0011596D01*
X0014845Y0011646D01*
X0014708Y0011701D01*
X0014572Y0011759D01*
X0014437Y0011820D01*
X0014304Y0011885D01*
X0014173Y0011954D01*
X0014044Y0012026D01*
X0013917Y0012102D01*
X0013792Y0012181D01*
X0013669Y0012264D01*
X0013548Y0012349D01*
X0013430Y0012438D01*
X0013314Y0012530D01*
X0013201Y0012626D01*
X0013090Y0012724D01*
X0012982Y0012825D01*
X0012876Y0012929D01*
X0012774Y0013035D01*
X0012674Y0013145D01*
X0012578Y0013257D01*
X0012484Y0013372D01*
X0012393Y0013489D01*
X0012306Y0013608D01*
X0012222Y0013730D01*
X0012141Y0013854D01*
X0012064Y0013980D01*
X0011990Y0014108D01*
X0011919Y0014238D01*
X0011852Y0014370D01*
X0011789Y0014504D01*
X0011729Y0014639D01*
X0011673Y0014776D01*
X0011620Y0014915D01*
X0011572Y0015055D01*
X0011527Y0015196D01*
X0011486Y0015338D01*
X0011448Y0015481D01*
X0011415Y0015625D01*
X0011385Y0015770D01*
X0011359Y0015916D01*
X0011338Y0016062D01*
X0011320Y0016209D01*
X0011306Y0016356D01*
X0011296Y0016504D01*
X0011290Y0016652D01*
X0011288Y0016800D01*
X0011288Y0266800D02*
X0011290Y0266948D01*
X0011296Y0267096D01*
X0011306Y0267244D01*
X0011320Y0267391D01*
X0011338Y0267538D01*
X0011359Y0267684D01*
X0011385Y0267830D01*
X0011415Y0267975D01*
X0011448Y0268119D01*
X0011486Y0268262D01*
X0011527Y0268404D01*
X0011572Y0268545D01*
X0011620Y0268685D01*
X0011673Y0268824D01*
X0011729Y0268961D01*
X0011789Y0269096D01*
X0011852Y0269230D01*
X0011919Y0269362D01*
X0011990Y0269492D01*
X0012064Y0269620D01*
X0012141Y0269746D01*
X0012222Y0269870D01*
X0012306Y0269992D01*
X0012393Y0270111D01*
X0012484Y0270228D01*
X0012578Y0270343D01*
X0012674Y0270455D01*
X0012774Y0270565D01*
X0012876Y0270671D01*
X0012982Y0270775D01*
X0013090Y0270876D01*
X0013201Y0270974D01*
X0013314Y0271070D01*
X0013430Y0271162D01*
X0013548Y0271251D01*
X0013669Y0271336D01*
X0013792Y0271419D01*
X0013917Y0271498D01*
X0014044Y0271574D01*
X0014173Y0271646D01*
X0014304Y0271715D01*
X0014437Y0271780D01*
X0014572Y0271841D01*
X0014708Y0271899D01*
X0014845Y0271954D01*
X0014984Y0272004D01*
X0015125Y0272051D01*
X0015266Y0272094D01*
X0015409Y0272134D01*
X0015553Y0272169D01*
X0015697Y0272201D01*
X0015843Y0272228D01*
X0015989Y0272252D01*
X0016136Y0272272D01*
X0016283Y0272288D01*
X0016430Y0272300D01*
X0016578Y0272308D01*
X0016726Y0272312D01*
X0016874Y0272312D01*
X0017022Y0272308D01*
X0017170Y0272300D01*
X0017317Y0272288D01*
X0017464Y0272272D01*
X0017611Y0272252D01*
X0017757Y0272228D01*
X0017903Y0272201D01*
X0018047Y0272169D01*
X0018191Y0272134D01*
X0018334Y0272094D01*
X0018475Y0272051D01*
X0018616Y0272004D01*
X0018755Y0271954D01*
X0018892Y0271899D01*
X0019028Y0271841D01*
X0019163Y0271780D01*
X0019296Y0271715D01*
X0019427Y0271646D01*
X0019556Y0271574D01*
X0019683Y0271498D01*
X0019808Y0271419D01*
X0019931Y0271336D01*
X0020052Y0271251D01*
X0020170Y0271162D01*
X0020286Y0271070D01*
X0020399Y0270974D01*
X0020510Y0270876D01*
X0020618Y0270775D01*
X0020724Y0270671D01*
X0020826Y0270565D01*
X0020926Y0270455D01*
X0021022Y0270343D01*
X0021116Y0270228D01*
X0021207Y0270111D01*
X0021294Y0269992D01*
X0021378Y0269870D01*
X0021459Y0269746D01*
X0021536Y0269620D01*
X0021610Y0269492D01*
X0021681Y0269362D01*
X0021748Y0269230D01*
X0021811Y0269096D01*
X0021871Y0268961D01*
X0021927Y0268824D01*
X0021980Y0268685D01*
X0022028Y0268545D01*
X0022073Y0268404D01*
X0022114Y0268262D01*
X0022152Y0268119D01*
X0022185Y0267975D01*
X0022215Y0267830D01*
X0022241Y0267684D01*
X0022262Y0267538D01*
X0022280Y0267391D01*
X0022294Y0267244D01*
X0022304Y0267096D01*
X0022310Y0266948D01*
X0022312Y0266800D01*
X0022310Y0266652D01*
X0022304Y0266504D01*
X0022294Y0266356D01*
X0022280Y0266209D01*
X0022262Y0266062D01*
X0022241Y0265916D01*
X0022215Y0265770D01*
X0022185Y0265625D01*
X0022152Y0265481D01*
X0022114Y0265338D01*
X0022073Y0265196D01*
X0022028Y0265055D01*
X0021980Y0264915D01*
X0021927Y0264776D01*
X0021871Y0264639D01*
X0021811Y0264504D01*
X0021748Y0264370D01*
X0021681Y0264238D01*
X0021610Y0264108D01*
X0021536Y0263980D01*
X0021459Y0263854D01*
X0021378Y0263730D01*
X0021294Y0263608D01*
X0021207Y0263489D01*
X0021116Y0263372D01*
X0021022Y0263257D01*
X0020926Y0263145D01*
X0020826Y0263035D01*
X0020724Y0262929D01*
X0020618Y0262825D01*
X0020510Y0262724D01*
X0020399Y0262626D01*
X0020286Y0262530D01*
X0020170Y0262438D01*
X0020052Y0262349D01*
X0019931Y0262264D01*
X0019808Y0262181D01*
X0019683Y0262102D01*
X0019556Y0262026D01*
X0019427Y0261954D01*
X0019296Y0261885D01*
X0019163Y0261820D01*
X0019028Y0261759D01*
X0018892Y0261701D01*
X0018755Y0261646D01*
X0018616Y0261596D01*
X0018475Y0261549D01*
X0018334Y0261506D01*
X0018191Y0261466D01*
X0018047Y0261431D01*
X0017903Y0261399D01*
X0017757Y0261372D01*
X0017611Y0261348D01*
X0017464Y0261328D01*
X0017317Y0261312D01*
X0017170Y0261300D01*
X0017022Y0261292D01*
X0016874Y0261288D01*
X0016726Y0261288D01*
X0016578Y0261292D01*
X0016430Y0261300D01*
X0016283Y0261312D01*
X0016136Y0261328D01*
X0015989Y0261348D01*
X0015843Y0261372D01*
X0015697Y0261399D01*
X0015553Y0261431D01*
X0015409Y0261466D01*
X0015266Y0261506D01*
X0015125Y0261549D01*
X0014984Y0261596D01*
X0014845Y0261646D01*
X0014708Y0261701D01*
X0014572Y0261759D01*
X0014437Y0261820D01*
X0014304Y0261885D01*
X0014173Y0261954D01*
X0014044Y0262026D01*
X0013917Y0262102D01*
X0013792Y0262181D01*
X0013669Y0262264D01*
X0013548Y0262349D01*
X0013430Y0262438D01*
X0013314Y0262530D01*
X0013201Y0262626D01*
X0013090Y0262724D01*
X0012982Y0262825D01*
X0012876Y0262929D01*
X0012774Y0263035D01*
X0012674Y0263145D01*
X0012578Y0263257D01*
X0012484Y0263372D01*
X0012393Y0263489D01*
X0012306Y0263608D01*
X0012222Y0263730D01*
X0012141Y0263854D01*
X0012064Y0263980D01*
X0011990Y0264108D01*
X0011919Y0264238D01*
X0011852Y0264370D01*
X0011789Y0264504D01*
X0011729Y0264639D01*
X0011673Y0264776D01*
X0011620Y0264915D01*
X0011572Y0265055D01*
X0011527Y0265196D01*
X0011486Y0265338D01*
X0011448Y0265481D01*
X0011415Y0265625D01*
X0011385Y0265770D01*
X0011359Y0265916D01*
X0011338Y0266062D01*
X0011320Y0266209D01*
X0011306Y0266356D01*
X0011296Y0266504D01*
X0011290Y0266652D01*
X0011288Y0266800D01*
X0221288Y0266800D02*
X0221290Y0266948D01*
X0221296Y0267096D01*
X0221306Y0267244D01*
X0221320Y0267391D01*
X0221338Y0267538D01*
X0221359Y0267684D01*
X0221385Y0267830D01*
X0221415Y0267975D01*
X0221448Y0268119D01*
X0221486Y0268262D01*
X0221527Y0268404D01*
X0221572Y0268545D01*
X0221620Y0268685D01*
X0221673Y0268824D01*
X0221729Y0268961D01*
X0221789Y0269096D01*
X0221852Y0269230D01*
X0221919Y0269362D01*
X0221990Y0269492D01*
X0222064Y0269620D01*
X0222141Y0269746D01*
X0222222Y0269870D01*
X0222306Y0269992D01*
X0222393Y0270111D01*
X0222484Y0270228D01*
X0222578Y0270343D01*
X0222674Y0270455D01*
X0222774Y0270565D01*
X0222876Y0270671D01*
X0222982Y0270775D01*
X0223090Y0270876D01*
X0223201Y0270974D01*
X0223314Y0271070D01*
X0223430Y0271162D01*
X0223548Y0271251D01*
X0223669Y0271336D01*
X0223792Y0271419D01*
X0223917Y0271498D01*
X0224044Y0271574D01*
X0224173Y0271646D01*
X0224304Y0271715D01*
X0224437Y0271780D01*
X0224572Y0271841D01*
X0224708Y0271899D01*
X0224845Y0271954D01*
X0224984Y0272004D01*
X0225125Y0272051D01*
X0225266Y0272094D01*
X0225409Y0272134D01*
X0225553Y0272169D01*
X0225697Y0272201D01*
X0225843Y0272228D01*
X0225989Y0272252D01*
X0226136Y0272272D01*
X0226283Y0272288D01*
X0226430Y0272300D01*
X0226578Y0272308D01*
X0226726Y0272312D01*
X0226874Y0272312D01*
X0227022Y0272308D01*
X0227170Y0272300D01*
X0227317Y0272288D01*
X0227464Y0272272D01*
X0227611Y0272252D01*
X0227757Y0272228D01*
X0227903Y0272201D01*
X0228047Y0272169D01*
X0228191Y0272134D01*
X0228334Y0272094D01*
X0228475Y0272051D01*
X0228616Y0272004D01*
X0228755Y0271954D01*
X0228892Y0271899D01*
X0229028Y0271841D01*
X0229163Y0271780D01*
X0229296Y0271715D01*
X0229427Y0271646D01*
X0229556Y0271574D01*
X0229683Y0271498D01*
X0229808Y0271419D01*
X0229931Y0271336D01*
X0230052Y0271251D01*
X0230170Y0271162D01*
X0230286Y0271070D01*
X0230399Y0270974D01*
X0230510Y0270876D01*
X0230618Y0270775D01*
X0230724Y0270671D01*
X0230826Y0270565D01*
X0230926Y0270455D01*
X0231022Y0270343D01*
X0231116Y0270228D01*
X0231207Y0270111D01*
X0231294Y0269992D01*
X0231378Y0269870D01*
X0231459Y0269746D01*
X0231536Y0269620D01*
X0231610Y0269492D01*
X0231681Y0269362D01*
X0231748Y0269230D01*
X0231811Y0269096D01*
X0231871Y0268961D01*
X0231927Y0268824D01*
X0231980Y0268685D01*
X0232028Y0268545D01*
X0232073Y0268404D01*
X0232114Y0268262D01*
X0232152Y0268119D01*
X0232185Y0267975D01*
X0232215Y0267830D01*
X0232241Y0267684D01*
X0232262Y0267538D01*
X0232280Y0267391D01*
X0232294Y0267244D01*
X0232304Y0267096D01*
X0232310Y0266948D01*
X0232312Y0266800D01*
X0232310Y0266652D01*
X0232304Y0266504D01*
X0232294Y0266356D01*
X0232280Y0266209D01*
X0232262Y0266062D01*
X0232241Y0265916D01*
X0232215Y0265770D01*
X0232185Y0265625D01*
X0232152Y0265481D01*
X0232114Y0265338D01*
X0232073Y0265196D01*
X0232028Y0265055D01*
X0231980Y0264915D01*
X0231927Y0264776D01*
X0231871Y0264639D01*
X0231811Y0264504D01*
X0231748Y0264370D01*
X0231681Y0264238D01*
X0231610Y0264108D01*
X0231536Y0263980D01*
X0231459Y0263854D01*
X0231378Y0263730D01*
X0231294Y0263608D01*
X0231207Y0263489D01*
X0231116Y0263372D01*
X0231022Y0263257D01*
X0230926Y0263145D01*
X0230826Y0263035D01*
X0230724Y0262929D01*
X0230618Y0262825D01*
X0230510Y0262724D01*
X0230399Y0262626D01*
X0230286Y0262530D01*
X0230170Y0262438D01*
X0230052Y0262349D01*
X0229931Y0262264D01*
X0229808Y0262181D01*
X0229683Y0262102D01*
X0229556Y0262026D01*
X0229427Y0261954D01*
X0229296Y0261885D01*
X0229163Y0261820D01*
X0229028Y0261759D01*
X0228892Y0261701D01*
X0228755Y0261646D01*
X0228616Y0261596D01*
X0228475Y0261549D01*
X0228334Y0261506D01*
X0228191Y0261466D01*
X0228047Y0261431D01*
X0227903Y0261399D01*
X0227757Y0261372D01*
X0227611Y0261348D01*
X0227464Y0261328D01*
X0227317Y0261312D01*
X0227170Y0261300D01*
X0227022Y0261292D01*
X0226874Y0261288D01*
X0226726Y0261288D01*
X0226578Y0261292D01*
X0226430Y0261300D01*
X0226283Y0261312D01*
X0226136Y0261328D01*
X0225989Y0261348D01*
X0225843Y0261372D01*
X0225697Y0261399D01*
X0225553Y0261431D01*
X0225409Y0261466D01*
X0225266Y0261506D01*
X0225125Y0261549D01*
X0224984Y0261596D01*
X0224845Y0261646D01*
X0224708Y0261701D01*
X0224572Y0261759D01*
X0224437Y0261820D01*
X0224304Y0261885D01*
X0224173Y0261954D01*
X0224044Y0262026D01*
X0223917Y0262102D01*
X0223792Y0262181D01*
X0223669Y0262264D01*
X0223548Y0262349D01*
X0223430Y0262438D01*
X0223314Y0262530D01*
X0223201Y0262626D01*
X0223090Y0262724D01*
X0222982Y0262825D01*
X0222876Y0262929D01*
X0222774Y0263035D01*
X0222674Y0263145D01*
X0222578Y0263257D01*
X0222484Y0263372D01*
X0222393Y0263489D01*
X0222306Y0263608D01*
X0222222Y0263730D01*
X0222141Y0263854D01*
X0222064Y0263980D01*
X0221990Y0264108D01*
X0221919Y0264238D01*
X0221852Y0264370D01*
X0221789Y0264504D01*
X0221729Y0264639D01*
X0221673Y0264776D01*
X0221620Y0264915D01*
X0221572Y0265055D01*
X0221527Y0265196D01*
X0221486Y0265338D01*
X0221448Y0265481D01*
X0221415Y0265625D01*
X0221385Y0265770D01*
X0221359Y0265916D01*
X0221338Y0266062D01*
X0221320Y0266209D01*
X0221306Y0266356D01*
X0221296Y0266504D01*
X0221290Y0266652D01*
X0221288Y0266800D01*
X0221288Y0016800D02*
X0221290Y0016948D01*
X0221296Y0017096D01*
X0221306Y0017244D01*
X0221320Y0017391D01*
X0221338Y0017538D01*
X0221359Y0017684D01*
X0221385Y0017830D01*
X0221415Y0017975D01*
X0221448Y0018119D01*
X0221486Y0018262D01*
X0221527Y0018404D01*
X0221572Y0018545D01*
X0221620Y0018685D01*
X0221673Y0018824D01*
X0221729Y0018961D01*
X0221789Y0019096D01*
X0221852Y0019230D01*
X0221919Y0019362D01*
X0221990Y0019492D01*
X0222064Y0019620D01*
X0222141Y0019746D01*
X0222222Y0019870D01*
X0222306Y0019992D01*
X0222393Y0020111D01*
X0222484Y0020228D01*
X0222578Y0020343D01*
X0222674Y0020455D01*
X0222774Y0020565D01*
X0222876Y0020671D01*
X0222982Y0020775D01*
X0223090Y0020876D01*
X0223201Y0020974D01*
X0223314Y0021070D01*
X0223430Y0021162D01*
X0223548Y0021251D01*
X0223669Y0021336D01*
X0223792Y0021419D01*
X0223917Y0021498D01*
X0224044Y0021574D01*
X0224173Y0021646D01*
X0224304Y0021715D01*
X0224437Y0021780D01*
X0224572Y0021841D01*
X0224708Y0021899D01*
X0224845Y0021954D01*
X0224984Y0022004D01*
X0225125Y0022051D01*
X0225266Y0022094D01*
X0225409Y0022134D01*
X0225553Y0022169D01*
X0225697Y0022201D01*
X0225843Y0022228D01*
X0225989Y0022252D01*
X0226136Y0022272D01*
X0226283Y0022288D01*
X0226430Y0022300D01*
X0226578Y0022308D01*
X0226726Y0022312D01*
X0226874Y0022312D01*
X0227022Y0022308D01*
X0227170Y0022300D01*
X0227317Y0022288D01*
X0227464Y0022272D01*
X0227611Y0022252D01*
X0227757Y0022228D01*
X0227903Y0022201D01*
X0228047Y0022169D01*
X0228191Y0022134D01*
X0228334Y0022094D01*
X0228475Y0022051D01*
X0228616Y0022004D01*
X0228755Y0021954D01*
X0228892Y0021899D01*
X0229028Y0021841D01*
X0229163Y0021780D01*
X0229296Y0021715D01*
X0229427Y0021646D01*
X0229556Y0021574D01*
X0229683Y0021498D01*
X0229808Y0021419D01*
X0229931Y0021336D01*
X0230052Y0021251D01*
X0230170Y0021162D01*
X0230286Y0021070D01*
X0230399Y0020974D01*
X0230510Y0020876D01*
X0230618Y0020775D01*
X0230724Y0020671D01*
X0230826Y0020565D01*
X0230926Y0020455D01*
X0231022Y0020343D01*
X0231116Y0020228D01*
X0231207Y0020111D01*
X0231294Y0019992D01*
X0231378Y0019870D01*
X0231459Y0019746D01*
X0231536Y0019620D01*
X0231610Y0019492D01*
X0231681Y0019362D01*
X0231748Y0019230D01*
X0231811Y0019096D01*
X0231871Y0018961D01*
X0231927Y0018824D01*
X0231980Y0018685D01*
X0232028Y0018545D01*
X0232073Y0018404D01*
X0232114Y0018262D01*
X0232152Y0018119D01*
X0232185Y0017975D01*
X0232215Y0017830D01*
X0232241Y0017684D01*
X0232262Y0017538D01*
X0232280Y0017391D01*
X0232294Y0017244D01*
X0232304Y0017096D01*
X0232310Y0016948D01*
X0232312Y0016800D01*
X0232310Y0016652D01*
X0232304Y0016504D01*
X0232294Y0016356D01*
X0232280Y0016209D01*
X0232262Y0016062D01*
X0232241Y0015916D01*
X0232215Y0015770D01*
X0232185Y0015625D01*
X0232152Y0015481D01*
X0232114Y0015338D01*
X0232073Y0015196D01*
X0232028Y0015055D01*
X0231980Y0014915D01*
X0231927Y0014776D01*
X0231871Y0014639D01*
X0231811Y0014504D01*
X0231748Y0014370D01*
X0231681Y0014238D01*
X0231610Y0014108D01*
X0231536Y0013980D01*
X0231459Y0013854D01*
X0231378Y0013730D01*
X0231294Y0013608D01*
X0231207Y0013489D01*
X0231116Y0013372D01*
X0231022Y0013257D01*
X0230926Y0013145D01*
X0230826Y0013035D01*
X0230724Y0012929D01*
X0230618Y0012825D01*
X0230510Y0012724D01*
X0230399Y0012626D01*
X0230286Y0012530D01*
X0230170Y0012438D01*
X0230052Y0012349D01*
X0229931Y0012264D01*
X0229808Y0012181D01*
X0229683Y0012102D01*
X0229556Y0012026D01*
X0229427Y0011954D01*
X0229296Y0011885D01*
X0229163Y0011820D01*
X0229028Y0011759D01*
X0228892Y0011701D01*
X0228755Y0011646D01*
X0228616Y0011596D01*
X0228475Y0011549D01*
X0228334Y0011506D01*
X0228191Y0011466D01*
X0228047Y0011431D01*
X0227903Y0011399D01*
X0227757Y0011372D01*
X0227611Y0011348D01*
X0227464Y0011328D01*
X0227317Y0011312D01*
X0227170Y0011300D01*
X0227022Y0011292D01*
X0226874Y0011288D01*
X0226726Y0011288D01*
X0226578Y0011292D01*
X0226430Y0011300D01*
X0226283Y0011312D01*
X0226136Y0011328D01*
X0225989Y0011348D01*
X0225843Y0011372D01*
X0225697Y0011399D01*
X0225553Y0011431D01*
X0225409Y0011466D01*
X0225266Y0011506D01*
X0225125Y0011549D01*
X0224984Y0011596D01*
X0224845Y0011646D01*
X0224708Y0011701D01*
X0224572Y0011759D01*
X0224437Y0011820D01*
X0224304Y0011885D01*
X0224173Y0011954D01*
X0224044Y0012026D01*
X0223917Y0012102D01*
X0223792Y0012181D01*
X0223669Y0012264D01*
X0223548Y0012349D01*
X0223430Y0012438D01*
X0223314Y0012530D01*
X0223201Y0012626D01*
X0223090Y0012724D01*
X0222982Y0012825D01*
X0222876Y0012929D01*
X0222774Y0013035D01*
X0222674Y0013145D01*
X0222578Y0013257D01*
X0222484Y0013372D01*
X0222393Y0013489D01*
X0222306Y0013608D01*
X0222222Y0013730D01*
X0222141Y0013854D01*
X0222064Y0013980D01*
X0221990Y0014108D01*
X0221919Y0014238D01*
X0221852Y0014370D01*
X0221789Y0014504D01*
X0221729Y0014639D01*
X0221673Y0014776D01*
X0221620Y0014915D01*
X0221572Y0015055D01*
X0221527Y0015196D01*
X0221486Y0015338D01*
X0221448Y0015481D01*
X0221415Y0015625D01*
X0221385Y0015770D01*
X0221359Y0015916D01*
X0221338Y0016062D01*
X0221320Y0016209D01*
X0221306Y0016356D01*
X0221296Y0016504D01*
X0221290Y0016652D01*
X0221288Y0016800D01*
D11*
X0197800Y0031800D03*
X0186800Y0046800D03*
X0166800Y0046800D03*
X0146800Y0056800D03*
X0151800Y0071800D03*
X0166800Y0071800D03*
X0181800Y0071800D03*
X0196800Y0071800D03*
X0216800Y0061800D03*
X0216800Y0081800D03*
X0196800Y0101800D03*
X0181800Y0101800D03*
X0181800Y0114300D03*
X0176800Y0121800D03*
X0186800Y0121800D03*
X0171800Y0141800D03*
X0176800Y0166800D03*
X0161800Y0166800D03*
X0146800Y0166800D03*
X0131800Y0171800D03*
X0131800Y0191800D03*
X0146800Y0196800D03*
X0161800Y0196800D03*
X0166800Y0204300D03*
X0161800Y0211800D03*
X0171800Y0211800D03*
X0176800Y0196800D03*
X0191800Y0196800D03*
X0206800Y0191800D03*
X0206800Y0171800D03*
X0191800Y0166800D03*
X0206800Y0147800D03*
X0206800Y0120800D03*
X0166800Y0101800D03*
X0156800Y0112800D03*
X0151800Y0101800D03*
X0126800Y0106800D03*
X0126800Y0121800D03*
X0126800Y0136800D03*
X0141800Y0141800D03*
X0111800Y0166800D03*
X0096800Y0166800D03*
X0096800Y0136800D03*
X0106800Y0121800D03*
X0096800Y0106800D03*
X0086800Y0101800D03*
X0096800Y0091800D03*
X0086800Y0081800D03*
X0071800Y0071800D03*
X0056800Y0071800D03*
X0041800Y0071800D03*
X0026800Y0071800D03*
X0031800Y0046800D03*
X0031800Y0026800D03*
X0086800Y0026800D03*
X0096800Y0021800D03*
X0101800Y0029300D03*
X0106800Y0021800D03*
X0116800Y0026800D03*
X0131800Y0026800D03*
X0146800Y0026800D03*
X0131800Y0056800D03*
X0126800Y0076800D03*
X0126800Y0091800D03*
X0106800Y0076800D03*
X0105800Y0056800D03*
X0116800Y0056800D03*
X0086800Y0056800D03*
X0071800Y0101800D03*
X0056800Y0101800D03*
X0056800Y0114300D03*
X0051800Y0121800D03*
X0061800Y0121800D03*
X0047800Y0141800D03*
X0031800Y0117800D03*
X0026800Y0101800D03*
X0041800Y0101800D03*
X0041800Y0166800D03*
X0026800Y0166800D03*
X0026800Y0196800D03*
X0026800Y0207800D03*
X0041800Y0196800D03*
X0046800Y0211800D03*
X0056800Y0196800D03*
X0066800Y0204300D03*
X0061800Y0211800D03*
X0071800Y0211800D03*
X0066800Y0227800D03*
X0046800Y0231800D03*
X0086800Y0251800D03*
X0101800Y0226800D03*
X0095800Y0211800D03*
X0096800Y0196800D03*
X0111800Y0196800D03*
X0121800Y0226800D03*
X0121800Y0241800D03*
X0116800Y0251800D03*
X0151800Y0241800D03*
X0170800Y0231800D03*
X0195800Y0216800D03*
X0056800Y0166800D03*
D12*
X0055800Y0141800D03*
X0031800Y0125800D03*
X0097800Y0056800D03*
X0156800Y0120800D03*
X0206800Y0112800D03*
X0206800Y0155800D03*
X0187800Y0216800D03*
X0162800Y0231800D03*
X0087800Y0211800D03*
X0066800Y0235800D03*
X0026800Y0215800D03*
X0205800Y0031800D03*
D13*
X0186800Y0024800D02*
X0186800Y0018800D01*
X0176800Y0018800D02*
X0176800Y0024800D01*
X0166800Y0024800D02*
X0166800Y0018800D01*
X0071800Y0018800D02*
X0071800Y0024800D01*
X0061800Y0024800D02*
X0061800Y0018800D01*
X0051800Y0018800D02*
X0051800Y0024800D01*
X0131800Y0258800D02*
X0131800Y0264800D01*
X0141800Y0264800D02*
X0141800Y0258800D01*
X0151800Y0258800D02*
X0151800Y0264800D01*
D14*
X0216800Y0239400D02*
X0216800Y0234200D01*
X0216800Y0199400D02*
X0216800Y0194200D01*
X0081800Y0194400D02*
X0081800Y0189200D01*
X0071800Y0189200D02*
X0071800Y0194400D01*
X0071800Y0154400D02*
X0071800Y0149200D01*
X0081800Y0149200D02*
X0081800Y0154400D01*
D15*
X0102115Y0156800D03*
X0121800Y0156800D03*
X0141485Y0156800D03*
X0167115Y0251800D03*
X0186800Y0251800D03*
X0206485Y0251800D03*
X0076485Y0251800D03*
X0056800Y0251800D03*
X0037115Y0251800D03*
D16*
X0041800Y0251485D01*
X0056800Y0236800D01*
X0066800Y0236800D01*
X0066800Y0235800D01*
X0066800Y0241800D02*
X0091800Y0241800D01*
X0101800Y0226800D01*
X0087800Y0211800D02*
X0086800Y0210800D01*
X0086800Y0206800D01*
X0096800Y0196800D01*
X0086800Y0210800D02*
X0086800Y0211800D01*
X0087800Y0211800D01*
X0086800Y0211800D02*
X0071800Y0211800D01*
X0066800Y0204300D02*
X0066800Y0196800D01*
X0071800Y0191800D01*
X0081800Y0191800D01*
X0066800Y0196800D02*
X0056800Y0196800D01*
X0041800Y0196800D01*
X0041800Y0191800D01*
X0031800Y0181800D01*
X0026800Y0181800D01*
X0016800Y0171800D01*
X0016800Y0056800D01*
X0026800Y0046800D01*
X0031800Y0046800D01*
X0031800Y0026800D02*
X0036800Y0021800D01*
X0051800Y0021800D01*
X0086800Y0026800D02*
X0096800Y0021800D01*
X0101800Y0016800D01*
X0146800Y0016800D01*
X0161800Y0031800D01*
X0197800Y0031800D01*
X0205800Y0031800D02*
X0206800Y0031800D01*
X0221800Y0046800D01*
X0221800Y0202115D01*
X0221485Y0202115D01*
X0171800Y0251800D01*
X0167115Y0251800D01*
X0171800Y0226800D02*
X0181800Y0216800D01*
X0181800Y0201800D01*
X0176800Y0196800D01*
X0161800Y0196800D01*
X0166800Y0201800D01*
X0166800Y0204300D01*
X0161800Y0211800D02*
X0156800Y0211800D01*
X0146800Y0201800D01*
X0146800Y0196800D01*
X0136800Y0196800D01*
X0131800Y0191800D01*
X0136800Y0186800D01*
X0151800Y0186800D01*
X0156800Y0181800D01*
X0156800Y0120800D01*
X0141800Y0121800D02*
X0141800Y0111800D01*
X0151800Y0101800D01*
X0161800Y0091800D01*
X0196800Y0091800D01*
X0206800Y0081800D01*
X0216800Y0081800D01*
X0196800Y0101800D02*
X0196800Y0112800D01*
X0195800Y0112800D01*
X0186800Y0121800D01*
X0181800Y0114300D02*
X0181800Y0101800D01*
X0166800Y0101800D01*
X0166800Y0102800D01*
X0156800Y0101800D02*
X0151800Y0101800D01*
X0156800Y0101800D02*
X0176800Y0121800D01*
X0196800Y0112800D02*
X0206800Y0112800D01*
X0226800Y0036800D02*
X0211800Y0021800D01*
X0186800Y0021800D01*
X0226800Y0036800D02*
X0226800Y0211800D01*
X0186800Y0251800D01*
X0171800Y0226800D02*
X0121800Y0226800D01*
X0086800Y0251800D02*
X0081485Y0251485D01*
X0076485Y0251800D01*
X0066800Y0241800D02*
X0056800Y0251800D01*
X0066800Y0227800D02*
X0061800Y0220800D01*
X0061800Y0211800D01*
X0046800Y0211800D01*
X0041800Y0211800D01*
X0026800Y0196800D01*
X0036800Y0151800D02*
X0056800Y0151800D01*
X0076800Y0131800D01*
X0131800Y0131800D01*
X0141800Y0121800D01*
X0126800Y0136800D02*
X0126800Y0151800D01*
X0121800Y0156800D01*
X0141485Y0156800D01*
X0106800Y0121800D02*
X0116800Y0111800D01*
X0116800Y0066800D01*
X0106800Y0056800D01*
X0105800Y0056800D01*
X0097800Y0056800D02*
X0096800Y0056800D01*
X0097800Y0055800D01*
X0097800Y0046800D01*
X0106800Y0046800D01*
X0116800Y0056800D01*
X0131800Y0056800D01*
X0146800Y0056800D02*
X0126800Y0076800D01*
X0126800Y0091800D01*
X0097800Y0056800D02*
X0097800Y0055800D01*
X0097800Y0046800D02*
X0097800Y0033300D01*
X0101800Y0029300D01*
X0096800Y0091800D02*
X0096800Y0106800D01*
X0086800Y0101800D02*
X0076800Y0091800D01*
X0031800Y0091800D01*
X0026800Y0096800D01*
X0026800Y0101800D01*
X0041800Y0107800D02*
X0031800Y0117800D01*
X0031800Y0125800D02*
X0031800Y0146800D01*
X0036800Y0151800D01*
X0055800Y0141800D02*
X0061800Y0131800D01*
X0061800Y0121800D01*
X0071800Y0111800D01*
X0071800Y0101800D01*
X0056800Y0101800D02*
X0041800Y0101800D01*
X0041800Y0107800D01*
X0056800Y0101800D02*
X0056800Y0114300D01*
M02*
