%
M48
M72
T01C0.03200
T02C0.04000
T03C0.04724
T04C0.11024
%
T01
X31800Y26800
X31800Y46800
X26800Y71800
X41800Y71800
X56800Y71800
X71800Y71800
X86800Y81800
X96800Y91800
X86800Y101800
X96800Y106800
X106800Y121800
X96800Y136800
X81800Y151800
X71800Y151800
X55800Y141800
X47800Y141800
X51800Y121800
X56800Y114300
X61800Y121800
X56800Y101800
X41800Y101800
X31800Y117800
X31800Y125800
X26800Y101800
X71800Y101800
X106800Y76800
X105800Y56800
X97800Y56800
X86800Y56800
X101800Y29300
X96800Y21800
X106800Y21800
X116800Y26800
X131800Y26800
X146800Y26800
X166800Y46800
X186800Y46800
X197800Y31800
X205800Y31800
X216800Y61800
X216800Y81800
X196800Y71800
X181800Y71800
X166800Y71800
X151800Y71800
X146800Y56800
X131800Y56800
X126800Y76800
X126800Y91800
X126800Y106800
X126800Y121800
X126800Y136800
X141800Y141800
X156800Y120800
X156800Y112800
X151800Y101800
X166800Y101800
X181800Y101800
X181800Y114300
X176800Y121800
X186800Y121800
X196800Y101800
X206800Y112800
X206800Y120800
X206800Y147800
X206800Y155800
X206800Y171800
X191800Y166800
X176800Y166800
X161800Y166800
X146800Y166800
X131800Y171800
X131800Y191800
X146800Y196800
X161800Y196800
X166800Y204300
X161800Y211800
X171800Y211800
X176800Y196800
X191800Y196800
X206800Y191800
X216800Y196800
X195800Y216800
X187800Y216800
X170800Y231800
X162800Y231800
X151800Y241800
X121800Y241800
X116800Y251800
X121800Y226800
X101800Y226800
X95800Y211800
X87800Y211800
X96800Y196800
X111800Y196800
X111800Y166800
X96800Y166800
X81800Y191800
X71800Y191800
X66800Y204300
X61800Y211800
X71800Y211800
X66800Y227800
X66800Y235800
X46800Y231800
X46800Y211800
X41800Y196800
X26800Y196800
X26800Y207800
X26800Y215800
X56800Y196800
X56800Y166800
X41800Y166800
X26800Y166800
X86800Y251800
X171800Y141800
X116800Y56800
X86800Y26800
X216800Y236800
T02
X151800Y261800
X141800Y261800
X131800Y261800
X166800Y21800
X176800Y21800
X186800Y21800
X71800Y21800
X61800Y21800
X51800Y21800
T03
X102115Y156800
X121800Y156800
X141485Y156800
X167115Y251800
X186800Y251800
X206485Y251800
X76485Y251800
X56800Y251800
X37115Y251800
T04
X16800Y16800
X16800Y266800
X226800Y266800
X226800Y16800
M30
