G75*
%MOIN*%
%OFA0B0*%
%FSLAX25Y25*%
%IPPOS*%
%LPD*%
%AMOC8*
5,1,8,0,0,1.08239X$1,22.5*
%
%ADD10C,0.00000*%
D10*
X0065934Y0212666D02*
X0072233Y0212666D01*
X0072233Y0220934D01*
X0065934Y0220934D01*
X0065934Y0212666D01*
X0101367Y0212666D02*
X0107666Y0212666D01*
X0107666Y0220934D01*
X0101367Y0220934D01*
X0101367Y0212666D01*
X0185934Y0215934D02*
X0185934Y0207666D01*
X0192233Y0207666D01*
X0192233Y0215934D01*
X0185934Y0215934D01*
X0221367Y0215934D02*
X0221367Y0207666D01*
X0227666Y0207666D01*
X0227666Y0215934D01*
X0221367Y0215934D01*
X0305934Y0212666D02*
X0312233Y0212666D01*
X0312233Y0220934D01*
X0305934Y0220934D01*
X0305934Y0212666D01*
X0341367Y0212666D02*
X0347666Y0212666D01*
X0347666Y0220934D01*
X0341367Y0220934D01*
X0341367Y0212666D01*
X0282666Y0342666D02*
X0276367Y0342666D01*
X0276367Y0350934D01*
X0282666Y0350934D01*
X0282666Y0342666D01*
X0247233Y0342666D02*
X0240934Y0342666D01*
X0240934Y0350934D01*
X0247233Y0350934D01*
X0247233Y0342666D01*
X0172666Y0342666D02*
X0166367Y0342666D01*
X0166367Y0350934D01*
X0172666Y0350934D01*
X0172666Y0342666D01*
X0137233Y0342666D02*
X0130934Y0342666D01*
X0130934Y0350934D01*
X0137233Y0350934D01*
X0137233Y0342666D01*
M02*
