%
M48
M72
T01C0.02362
T02C0.03150
T03C0.03200
T04C0.03937
T05C0.04331
T06C0.06000
T07C0.06299
T08C0.07874
T09C0.10000
T10C0.12598
%
T01
X36800Y51800
X36800Y71800
X36800Y91800
X36800Y111800
X46800Y126800
X36800Y141800
X36800Y151800
X36800Y166800
X46800Y181800
X56800Y171800
X61800Y181800
X46800Y201800
X51800Y206800
X51800Y216800
X51800Y231800
X46800Y236800
X36800Y221800
X36800Y191800
X66800Y161800
X56800Y151800
X86800Y151800
X101800Y136800
X111800Y136800
X121800Y146800
X126800Y151800
X136800Y141800
X131800Y136800
X141800Y136800
X146800Y146800
X151800Y161800
X151800Y166800
X166800Y166800
X171800Y171800
X166800Y176800
X166800Y186800
X151800Y191800
X141800Y191800
X131800Y191800
X126800Y201800
X121800Y206800
X116800Y196800
X111800Y181800
X116800Y171800
X121800Y171800
X101800Y171800
X101800Y191800
X131800Y226800
X141800Y226800
X151800Y236800
X151800Y246800
X141800Y246800
X131800Y246800
X126800Y246800
X121800Y256800
X131800Y256800
X121800Y271800
X121800Y276800
X111800Y276800
X106800Y281800
X96800Y276800
X101800Y271800
X96800Y261800
X91800Y256800
X86800Y251800
X86800Y246800
X81800Y251800
X76800Y251800
X71800Y246800
X66800Y246800
X66800Y251800
X61800Y271800
X71800Y271800
X81800Y271800
X66800Y281800
X61800Y281800
X56800Y286800
X46800Y276800
X46800Y271800
X51800Y306800
X56800Y316800
X61800Y316800
X56800Y326800
X51800Y346800
X61800Y356800
X66800Y351800
X56800Y361800
X51800Y381800
X41800Y386800
X36800Y391800
X46800Y396800
X51800Y406800
X66800Y396800
X61800Y386800
X71800Y381800
X81800Y371800
X91800Y376800
X101800Y386800
X116800Y381800
X126800Y371800
X116800Y361800
X106800Y346800
X101800Y356800
X96800Y351800
X96800Y361800
X86800Y336800
X76800Y336800
X96800Y326800
X106800Y316800
X111800Y326800
X116800Y331800
X126800Y311800
X131800Y311800
X141800Y311800
X141800Y286800
X136800Y276800
X131800Y281800
X146800Y276800
X156800Y281800
X161800Y276800
X166800Y271800
X171800Y281800
X161800Y291800
X176800Y306800
X181800Y301800
X186800Y306800
X196800Y301800
X191800Y281800
X201800Y281800
X211800Y281800
X216800Y276800
X226800Y281800
X221800Y291800
X236800Y286800
X241800Y276800
X251800Y266800
X256800Y261800
X251800Y251800
X266800Y256800
X271800Y266800
X276800Y276800
X286800Y266800
X281800Y256800
X281800Y241800
X296800Y251800
X301800Y246800
X306800Y251800
X306800Y256800
X321800Y266800
X316800Y276800
X321800Y286800
X326800Y296800
X316800Y306800
X311800Y296800
X306800Y311800
X301800Y321800
X291800Y326800
X286800Y331800
X286800Y316800
X291800Y301800
X296800Y296800
X296800Y291800
X326800Y326800
X331800Y321800
X336800Y326800
X346800Y321800
X351800Y316800
X346800Y311800
X351800Y301800
X356800Y296800
X356800Y306800
X366800Y321800
X361800Y331800
X356800Y341800
X351800Y326800
X336800Y341800
X336800Y351800
X336800Y371800
X351800Y371800
X361800Y381800
X361800Y401800
X336800Y431800
X316800Y426800
X296800Y431800
X271800Y426800
X261800Y421800
X256800Y426800
X251800Y416800
X256800Y406800
X261800Y401800
X271800Y396800
X256800Y376800
X251800Y396800
X236800Y391800
X231800Y396800
X226800Y401800
X211800Y391800
X196800Y361800
X201800Y351800
X216800Y356800
X216800Y336800
X201800Y331800
X191800Y331800
X181800Y336800
X171800Y329241
X161800Y316800
X181800Y356800
X171800Y366800
X181800Y376800
X171800Y386800
X161800Y396800
X181800Y396800
X196800Y431800
X141800Y396800
X131800Y386800
X116800Y396800
X106800Y406800
X116800Y416800
X126800Y406800
X136800Y416800
X96800Y421800
X86800Y431800
X76800Y431800
X66800Y421800
X71800Y416800
X71800Y406800
X61800Y431800
X76800Y306800
X86800Y301800
X96800Y286800
X116800Y296800
X156800Y261800
X161800Y251800
X171800Y251800
X171800Y246800
X166800Y236800
X181800Y236800
X186800Y231800
X181800Y211800
X181800Y196800
X186800Y186800
X191800Y181800
X201800Y181800
X196800Y166800
X191800Y151800
X181800Y141800
X171800Y136800
X176800Y156800
X181800Y171800
X166800Y206800
X146800Y206800
X121800Y231800
X106800Y246800
X96800Y241800
X176800Y266800
X196800Y261800
X206800Y251800
X211800Y241800
X216800Y241800
X226800Y241800
X226800Y251800
X216800Y261800
X236800Y231800
X246800Y221800
X256800Y211800
X246800Y196800
X236800Y211800
X231800Y196800
X231800Y186800
X231800Y176800
X226800Y146800
X211800Y141800
X246800Y146800
X256800Y146800
X251800Y131800
X266800Y126800
X276800Y111800
X286800Y111800
X281800Y131800
X286800Y136800
X281800Y141800
X291800Y146800
X301800Y151800
X296800Y161800
X291800Y166800
X306800Y176800
X321800Y181800
X351800Y186800
X366800Y196800
X351800Y211800
X366800Y221800
X346800Y241800
X351800Y251800
X361800Y251800
X361800Y276800
X341800Y276800
X336800Y276800
X316800Y331800
X306800Y331800
X301800Y331800
X306800Y351800
X316800Y351800
X306800Y371800
X301800Y371800
X291800Y371800
X281800Y371800
X306800Y381800
X311800Y376800
X326800Y386800
X321800Y396800
X296800Y396800
X236800Y361800
X236800Y331800
X246800Y321800
X236800Y306800
X221800Y316800
X211800Y316800
X256800Y231800
X276800Y206800
X266800Y196800
X271800Y181800
X281800Y221800
X351800Y166800
X361800Y156800
X361800Y141800
X361800Y116800
X361800Y96800
X351800Y71800
X361800Y66800
X336800Y86800
X291800Y81800
X271800Y71800
X261800Y61800
X266800Y51800
X281800Y51800
X281800Y31800
X251800Y31800
X246800Y41800
X246800Y56800
X241800Y61800
X246800Y66800
X241800Y81800
X236800Y101800
X266800Y91800
X231800Y51800
X181800Y71800
X166800Y91800
X166800Y101800
X171800Y106800
X156800Y106800
X151800Y111800
X156800Y121800
X131800Y111800
X126800Y106800
X121800Y111800
X126800Y116800
X111800Y106800
X116800Y96800
X116800Y76800
X131800Y66800
X141800Y81800
X151800Y66800
X151800Y41800
X131800Y41800
X121800Y26800
X61800Y86800
X111800Y126800
T02
X86800Y281800
X76800Y281800
X76800Y321800
X86800Y321800
X86800Y356800
X76800Y356800
X76800Y386800
X86800Y386800
T03
X156800Y221800
X156800Y211800
X256800Y171800
X266800Y171800
X276800Y171800
X261800Y296800
X261800Y306800
T04
X286800Y406800
X286800Y416800
X296800Y416800
X296800Y406800
X306800Y406800
X306800Y416800
X316800Y416800
X316800Y406800
X326800Y406800
X326800Y416800
X236800Y411800
X236800Y421800
X226800Y421800
X226800Y411800
X216800Y411800
X216800Y421800
X206800Y421800
X206800Y411800
X196800Y411800
X196800Y421800
X186800Y421800
X186800Y411800
X176800Y411800
X176800Y421800
X166800Y421800
X166800Y411800
T05
X146643Y319241
X136800Y319241
X126957Y319241
X91643Y194241
X81800Y194241
X71957Y194241
X191957Y194241
X201800Y194241
X211643Y194241
X311957Y194241
X321800Y194241
X331643Y194241
X276643Y319241
X266800Y319241
X256957Y319241
T06
X221800Y111800
X221800Y51800
X101800Y51800
X101800Y111800
X341800Y111800
X341800Y51800
T07
X339517Y221800
X304083Y221800
X219517Y221800
X184083Y221800
X99517Y221800
X64083Y221800
X119083Y346800
X154517Y346800
X249083Y346800
X284517Y346800
T08
X266800Y360580
X266800Y331052
X321800Y235580
X321800Y206052
X201800Y206052
X201800Y235580
X136800Y331052
X136800Y360580
X81800Y235580
X81800Y206052
T09
X81800Y131800
X61800Y111800
X81800Y96800
X81800Y71800
X61800Y51800
X81800Y36800
X181800Y51800
X201800Y36800
X201800Y71800
X201800Y96800
X181800Y111800
X201800Y131800
X301800Y111800
X321800Y96800
X321800Y71800
X301800Y51800
X321800Y36800
X321800Y131800
T10
X356800Y36800
X46800Y36800
X46800Y421800
X356800Y421800
M30
