G75*
%MOIN*%
%OFA0B0*%
%FSLAX25Y25*%
%IPPOS*%
%LPD*%
%AMOC8*
5,1,8,0,0,1.08239X$1,22.5*
%
%ADD10R,0.05131X0.04737*%
%ADD11R,0.04737X0.05131*%
%ADD12C,0.07400*%
%ADD13R,0.11824X0.11824*%
%ADD14C,0.08674*%
%ADD15R,0.04737X0.06312*%
%ADD16C,0.06000*%
%ADD17R,0.03950X0.02965*%
%ADD18R,0.09800X0.09800*%
%ADD19R,0.14800X0.14800*%
%ADD20C,0.06737*%
%ADD21OC8,0.07100*%
%ADD22C,0.07100*%
%ADD23R,0.03200X0.09500*%
%ADD24C,0.04762*%
%ADD25C,0.05550*%
%ADD26C,0.17398*%
D10*
X0126800Y0083454D03*
X0126800Y0090146D03*
X0141800Y0070146D03*
X0141800Y0063454D03*
X0156800Y0128454D03*
X0156800Y0135146D03*
X0156800Y0178454D03*
X0156800Y0185146D03*
X0166800Y0193454D03*
X0166800Y0200146D03*
X0176800Y0233454D03*
X0176800Y0240146D03*
X0181800Y0253454D03*
X0181800Y0260146D03*
X0146800Y0298454D03*
X0146800Y0305146D03*
X0136800Y0305146D03*
X0136800Y0298454D03*
X0116800Y0290146D03*
X0116800Y0283454D03*
X0085146Y0291800D03*
X0078454Y0291800D03*
X0078454Y0311800D03*
X0085146Y0311800D03*
X0085146Y0346800D03*
X0078454Y0346800D03*
X0046800Y0340146D03*
X0046800Y0333454D03*
X0046800Y0320146D03*
X0046800Y0313454D03*
X0046800Y0290146D03*
X0046800Y0283454D03*
X0046800Y0265146D03*
X0046800Y0258454D03*
X0046800Y0250146D03*
X0046800Y0243454D03*
X0056800Y0243454D03*
X0056800Y0250146D03*
X0056800Y0258454D03*
X0056800Y0265146D03*
X0111800Y0230146D03*
X0111800Y0223454D03*
X0131800Y0233454D03*
X0131800Y0240146D03*
X0141800Y0240146D03*
X0141800Y0233454D03*
X0211800Y0303454D03*
X0211800Y0310146D03*
X0221800Y0310146D03*
X0221800Y0303454D03*
X0226800Y0270146D03*
X0226800Y0263454D03*
X0256800Y0273454D03*
X0256800Y0280146D03*
X0276800Y0298454D03*
X0276800Y0305146D03*
X0286800Y0305146D03*
X0286800Y0298454D03*
X0296800Y0285146D03*
X0296800Y0278454D03*
X0301800Y0270146D03*
X0301800Y0263454D03*
X0306800Y0278454D03*
X0306800Y0285146D03*
X0306800Y0298454D03*
X0306800Y0305146D03*
X0326800Y0308454D03*
X0326800Y0315146D03*
X0351800Y0353454D03*
X0351800Y0360146D03*
X0361800Y0360146D03*
X0361800Y0353454D03*
X0291800Y0358454D03*
X0291800Y0365146D03*
X0316800Y0270146D03*
X0316800Y0263454D03*
X0316800Y0255146D03*
X0316800Y0248454D03*
X0326800Y0248454D03*
X0326800Y0255146D03*
X0351800Y0240146D03*
X0351800Y0233454D03*
X0361800Y0233454D03*
X0361800Y0240146D03*
X0276800Y0235146D03*
X0276800Y0228454D03*
X0266800Y0228454D03*
X0266800Y0235146D03*
X0251800Y0125146D03*
X0251800Y0118454D03*
X0281800Y0118454D03*
X0281800Y0125146D03*
X0276800Y0065146D03*
X0276800Y0058454D03*
X0351800Y0078454D03*
X0351800Y0085146D03*
X0171800Y0338454D03*
X0171800Y0345146D03*
X0085146Y0396800D03*
X0078454Y0396800D03*
X0046800Y0375146D03*
X0046800Y0368454D03*
X0036800Y0403454D03*
X0036800Y0410146D03*
D11*
X0046800Y0305146D03*
X0046800Y0298454D03*
X0121800Y0220146D03*
X0121800Y0213454D03*
X0131800Y0215146D03*
X0131800Y0208454D03*
X0196800Y0248454D03*
X0196800Y0255146D03*
X0196800Y0308454D03*
X0196800Y0315146D03*
X0181800Y0313454D03*
X0181800Y0320146D03*
X0211800Y0378454D03*
X0211800Y0385146D03*
X0316800Y0385146D03*
X0316800Y0378454D03*
X0341800Y0360146D03*
X0341800Y0353454D03*
X0316800Y0325146D03*
X0316800Y0318454D03*
X0341800Y0255146D03*
X0341800Y0248454D03*
X0315146Y0151800D03*
X0308454Y0151800D03*
X0266800Y0120146D03*
X0266800Y0113454D03*
X0266800Y0045146D03*
X0266800Y0038454D03*
X0160146Y0096800D03*
X0153454Y0096800D03*
X0131800Y0123454D03*
X0131800Y0130146D03*
D12*
X0091643Y0194241D03*
X0081800Y0194241D03*
X0071957Y0194241D03*
X0126957Y0319241D03*
X0136800Y0319241D03*
X0146643Y0319241D03*
X0256957Y0319241D03*
X0266800Y0319241D03*
X0276643Y0319241D03*
X0311957Y0194241D03*
X0321800Y0194241D03*
X0331643Y0194241D03*
X0211643Y0194241D03*
X0201800Y0194241D03*
X0191957Y0194241D03*
D13*
X0184083Y0221800D03*
X0219517Y0221800D03*
X0304083Y0221800D03*
X0339517Y0221800D03*
X0284517Y0346800D03*
X0249083Y0346800D03*
X0154517Y0346800D03*
X0119083Y0346800D03*
X0099517Y0221800D03*
X0064083Y0221800D03*
D14*
X0081800Y0235580D03*
X0081800Y0206052D03*
X0136800Y0331052D03*
X0136800Y0360580D03*
X0201800Y0235580D03*
X0201800Y0206052D03*
X0266800Y0331052D03*
X0266800Y0360580D03*
X0321800Y0235580D03*
X0321800Y0206052D03*
D15*
X0145540Y0097469D03*
X0138060Y0097469D03*
X0141800Y0106131D03*
X0105540Y0297469D03*
X0098060Y0297469D03*
X0101800Y0306131D03*
X0098060Y0332469D03*
X0105540Y0332469D03*
X0101800Y0341131D03*
X0098060Y0367469D03*
X0101800Y0376131D03*
X0105540Y0367469D03*
X0065540Y0367469D03*
X0061800Y0376131D03*
X0058060Y0367469D03*
X0061800Y0341131D03*
X0058060Y0332469D03*
X0065540Y0332469D03*
X0061800Y0306131D03*
X0058060Y0297469D03*
X0065540Y0297469D03*
D16*
X0256800Y0174400D02*
X0256800Y0169200D01*
X0266800Y0169200D02*
X0266800Y0174400D01*
X0276800Y0174400D02*
X0276800Y0169200D01*
D17*
X0121524Y0238060D03*
X0121524Y0241800D03*
X0121524Y0245540D03*
X0112076Y0245540D03*
X0112076Y0241800D03*
X0112076Y0238060D03*
X0086524Y0258060D03*
X0086524Y0261800D03*
X0086524Y0265540D03*
X0077076Y0265540D03*
X0077076Y0261800D03*
X0077076Y0258060D03*
X0077076Y0418060D03*
X0077076Y0421800D03*
X0077076Y0425540D03*
X0086524Y0425540D03*
X0086524Y0421800D03*
X0086524Y0418060D03*
D18*
X0101800Y0111800D03*
X0101800Y0051800D03*
X0221800Y0051800D03*
X0221800Y0111800D03*
X0341800Y0111800D03*
X0341800Y0051800D03*
D19*
X0321800Y0036800D03*
X0301800Y0051800D03*
X0321800Y0071800D03*
X0321800Y0096800D03*
X0301800Y0111800D03*
X0321800Y0131800D03*
X0201800Y0131800D03*
X0181800Y0111800D03*
X0201800Y0096800D03*
X0201800Y0071800D03*
X0181800Y0051800D03*
X0201800Y0036800D03*
X0081800Y0036800D03*
X0061800Y0051800D03*
X0081800Y0071800D03*
X0081800Y0096800D03*
X0061800Y0111800D03*
X0081800Y0131800D03*
D20*
X0286800Y0406800D03*
X0286800Y0416800D03*
X0296800Y0416800D03*
X0296800Y0406800D03*
X0306800Y0406800D03*
X0306800Y0416800D03*
X0316800Y0416800D03*
X0316800Y0406800D03*
X0326800Y0406800D03*
X0326800Y0416800D03*
X0236800Y0411800D03*
X0236800Y0421800D03*
X0226800Y0421800D03*
X0226800Y0411800D03*
X0216800Y0411800D03*
X0216800Y0421800D03*
X0206800Y0421800D03*
X0206800Y0411800D03*
X0196800Y0411800D03*
X0196800Y0421800D03*
X0186800Y0421800D03*
X0186800Y0411800D03*
X0176800Y0411800D03*
X0176800Y0421800D03*
X0166800Y0421800D03*
X0166800Y0411800D03*
D21*
X0261800Y0306800D03*
X0156800Y0211800D03*
D22*
X0156800Y0221800D03*
X0261800Y0296800D03*
D23*
X0301800Y0341550D03*
X0306800Y0341550D03*
X0311800Y0341550D03*
X0316800Y0341550D03*
X0321800Y0341550D03*
X0326800Y0341550D03*
X0331800Y0341550D03*
X0331800Y0362050D03*
X0326800Y0362050D03*
X0321800Y0362050D03*
X0316800Y0362050D03*
X0311800Y0362050D03*
X0306800Y0362050D03*
X0301800Y0362050D03*
X0326800Y0287050D03*
X0331800Y0287050D03*
X0336800Y0287050D03*
X0341800Y0287050D03*
X0346800Y0287050D03*
X0351800Y0287050D03*
X0356800Y0287050D03*
X0356800Y0266550D03*
X0351800Y0266550D03*
X0346800Y0266550D03*
X0341800Y0266550D03*
X0336800Y0266550D03*
X0331800Y0266550D03*
X0326800Y0266550D03*
X0211800Y0271550D03*
X0206800Y0271550D03*
X0201800Y0271550D03*
X0196800Y0271550D03*
X0191800Y0271550D03*
X0186800Y0271550D03*
X0181800Y0271550D03*
X0181800Y0292050D03*
X0186800Y0292050D03*
X0191800Y0292050D03*
X0196800Y0292050D03*
X0201800Y0292050D03*
X0206800Y0292050D03*
X0211800Y0292050D03*
X0146800Y0182050D03*
X0141800Y0182050D03*
X0136800Y0182050D03*
X0131800Y0182050D03*
X0126800Y0182050D03*
X0121800Y0182050D03*
X0116800Y0182050D03*
X0116800Y0161550D03*
X0121800Y0161550D03*
X0126800Y0161550D03*
X0131800Y0161550D03*
X0136800Y0161550D03*
X0141800Y0161550D03*
X0146800Y0161550D03*
X0251800Y0102050D03*
X0256800Y0102050D03*
X0261800Y0102050D03*
X0266800Y0102050D03*
X0271800Y0102050D03*
X0276800Y0102050D03*
X0281800Y0102050D03*
X0281800Y0081550D03*
X0276800Y0081550D03*
X0271800Y0081550D03*
X0266800Y0081550D03*
X0261800Y0081550D03*
X0256800Y0081550D03*
X0251800Y0081550D03*
D24*
X0036800Y0051800D03*
X0036800Y0071800D03*
X0036800Y0091800D03*
X0036800Y0111800D03*
X0046800Y0126800D03*
X0036800Y0141800D03*
X0036800Y0151800D03*
X0036800Y0166800D03*
X0046800Y0181800D03*
X0056800Y0171800D03*
X0061800Y0181800D03*
X0046800Y0201800D03*
X0051800Y0206800D03*
X0051800Y0216800D03*
X0051800Y0231800D03*
X0046800Y0236800D03*
X0036800Y0221800D03*
X0036800Y0191800D03*
X0066800Y0161800D03*
X0056800Y0151800D03*
X0086800Y0151800D03*
X0101800Y0136800D03*
X0111800Y0136800D03*
X0121800Y0146800D03*
X0126800Y0151800D03*
X0136800Y0141800D03*
X0131800Y0136800D03*
X0141800Y0136800D03*
X0146800Y0146800D03*
X0151800Y0161800D03*
X0151800Y0166800D03*
X0166800Y0166800D03*
X0171800Y0171800D03*
X0166800Y0176800D03*
X0166800Y0186800D03*
X0151800Y0191800D03*
X0141800Y0191800D03*
X0131800Y0191800D03*
X0126800Y0201800D03*
X0121800Y0206800D03*
X0116800Y0196800D03*
X0111800Y0181800D03*
X0116800Y0171800D03*
X0121800Y0171800D03*
X0101800Y0171800D03*
X0101800Y0191800D03*
X0131800Y0226800D03*
X0141800Y0226800D03*
X0151800Y0236800D03*
X0151800Y0246800D03*
X0141800Y0246800D03*
X0131800Y0246800D03*
X0126800Y0246800D03*
X0121800Y0256800D03*
X0131800Y0256800D03*
X0121800Y0271800D03*
X0121800Y0276800D03*
X0111800Y0276800D03*
X0106800Y0281800D03*
X0096800Y0276800D03*
X0101800Y0271800D03*
X0096800Y0261800D03*
X0091800Y0256800D03*
X0086800Y0251800D03*
X0086800Y0246800D03*
X0081800Y0251800D03*
X0076800Y0251800D03*
X0071800Y0246800D03*
X0066800Y0246800D03*
X0066800Y0251800D03*
X0061800Y0271800D03*
X0071800Y0271800D03*
X0081800Y0271800D03*
X0066800Y0281800D03*
X0061800Y0281800D03*
X0056800Y0286800D03*
X0046800Y0276800D03*
X0046800Y0271800D03*
X0051800Y0306800D03*
X0056800Y0316800D03*
X0061800Y0316800D03*
X0056800Y0326800D03*
X0051800Y0346800D03*
X0061800Y0356800D03*
X0066800Y0351800D03*
X0056800Y0361800D03*
X0051800Y0381800D03*
X0041800Y0386800D03*
X0036800Y0391800D03*
X0046800Y0396800D03*
X0051800Y0406800D03*
X0066800Y0396800D03*
X0061800Y0386800D03*
X0071800Y0381800D03*
X0081800Y0371800D03*
X0091800Y0376800D03*
X0101800Y0386800D03*
X0116800Y0381800D03*
X0126800Y0371800D03*
X0116800Y0361800D03*
X0106800Y0346800D03*
X0101800Y0356800D03*
X0096800Y0351800D03*
X0096800Y0361800D03*
X0086800Y0336800D03*
X0076800Y0336800D03*
X0096800Y0326800D03*
X0106800Y0316800D03*
X0111800Y0326800D03*
X0116800Y0331800D03*
X0126800Y0311800D03*
X0131800Y0311800D03*
X0141800Y0311800D03*
X0141800Y0286800D03*
X0136800Y0276800D03*
X0131800Y0281800D03*
X0146800Y0276800D03*
X0156800Y0281800D03*
X0161800Y0276800D03*
X0166800Y0271800D03*
X0171800Y0281800D03*
X0161800Y0291800D03*
X0176800Y0306800D03*
X0181800Y0301800D03*
X0186800Y0306800D03*
X0196800Y0301800D03*
X0191800Y0281800D03*
X0201800Y0281800D03*
X0211800Y0281800D03*
X0216800Y0276800D03*
X0226800Y0281800D03*
X0221800Y0291800D03*
X0236800Y0286800D03*
X0241800Y0276800D03*
X0251800Y0266800D03*
X0256800Y0261800D03*
X0251800Y0251800D03*
X0266800Y0256800D03*
X0271800Y0266800D03*
X0276800Y0276800D03*
X0286800Y0266800D03*
X0281800Y0256800D03*
X0281800Y0241800D03*
X0296800Y0251800D03*
X0301800Y0246800D03*
X0306800Y0251800D03*
X0306800Y0256800D03*
X0321800Y0266800D03*
X0316800Y0276800D03*
X0321800Y0286800D03*
X0326800Y0296800D03*
X0316800Y0306800D03*
X0311800Y0296800D03*
X0306800Y0311800D03*
X0301800Y0321800D03*
X0291800Y0326800D03*
X0286800Y0331800D03*
X0286800Y0316800D03*
X0291800Y0301800D03*
X0296800Y0296800D03*
X0296800Y0291800D03*
X0326800Y0326800D03*
X0331800Y0321800D03*
X0336800Y0326800D03*
X0346800Y0321800D03*
X0351800Y0316800D03*
X0346800Y0311800D03*
X0351800Y0301800D03*
X0356800Y0296800D03*
X0356800Y0306800D03*
X0366800Y0321800D03*
X0361800Y0331800D03*
X0356800Y0341800D03*
X0351800Y0326800D03*
X0336800Y0341800D03*
X0336800Y0351800D03*
X0336800Y0371800D03*
X0351800Y0371800D03*
X0361800Y0381800D03*
X0361800Y0401800D03*
X0336800Y0431800D03*
X0316800Y0426800D03*
X0296800Y0431800D03*
X0271800Y0426800D03*
X0261800Y0421800D03*
X0256800Y0426800D03*
X0251800Y0416800D03*
X0256800Y0406800D03*
X0261800Y0401800D03*
X0271800Y0396800D03*
X0256800Y0376800D03*
X0251800Y0396800D03*
X0236800Y0391800D03*
X0231800Y0396800D03*
X0226800Y0401800D03*
X0211800Y0391800D03*
X0196800Y0361800D03*
X0201800Y0351800D03*
X0216800Y0356800D03*
X0216800Y0336800D03*
X0201800Y0331800D03*
X0191800Y0331800D03*
X0181800Y0336800D03*
X0171800Y0329241D03*
X0161800Y0316800D03*
X0181800Y0356800D03*
X0171800Y0366800D03*
X0181800Y0376800D03*
X0171800Y0386800D03*
X0161800Y0396800D03*
X0181800Y0396800D03*
X0196800Y0431800D03*
X0141800Y0396800D03*
X0131800Y0386800D03*
X0116800Y0396800D03*
X0106800Y0406800D03*
X0116800Y0416800D03*
X0126800Y0406800D03*
X0136800Y0416800D03*
X0096800Y0421800D03*
X0086800Y0431800D03*
X0076800Y0431800D03*
X0066800Y0421800D03*
X0071800Y0416800D03*
X0071800Y0406800D03*
X0061800Y0431800D03*
X0076800Y0306800D03*
X0086800Y0301800D03*
X0096800Y0286800D03*
X0116800Y0296800D03*
X0156800Y0261800D03*
X0161800Y0251800D03*
X0171800Y0251800D03*
X0171800Y0246800D03*
X0166800Y0236800D03*
X0181800Y0236800D03*
X0186800Y0231800D03*
X0181800Y0211800D03*
X0181800Y0196800D03*
X0186800Y0186800D03*
X0191800Y0181800D03*
X0201800Y0181800D03*
X0196800Y0166800D03*
X0191800Y0151800D03*
X0181800Y0141800D03*
X0171800Y0136800D03*
X0176800Y0156800D03*
X0181800Y0171800D03*
X0166800Y0206800D03*
X0146800Y0206800D03*
X0121800Y0231800D03*
X0106800Y0246800D03*
X0096800Y0241800D03*
X0176800Y0266800D03*
X0196800Y0261800D03*
X0206800Y0251800D03*
X0211800Y0241800D03*
X0216800Y0241800D03*
X0226800Y0241800D03*
X0226800Y0251800D03*
X0216800Y0261800D03*
X0236800Y0231800D03*
X0246800Y0221800D03*
X0256800Y0211800D03*
X0246800Y0196800D03*
X0236800Y0211800D03*
X0231800Y0196800D03*
X0231800Y0186800D03*
X0231800Y0176800D03*
X0226800Y0146800D03*
X0211800Y0141800D03*
X0246800Y0146800D03*
X0256800Y0146800D03*
X0251800Y0131800D03*
X0266800Y0126800D03*
X0276800Y0111800D03*
X0286800Y0111800D03*
X0281800Y0131800D03*
X0286800Y0136800D03*
X0281800Y0141800D03*
X0291800Y0146800D03*
X0301800Y0151800D03*
X0296800Y0161800D03*
X0291800Y0166800D03*
X0306800Y0176800D03*
X0321800Y0181800D03*
X0351800Y0186800D03*
X0366800Y0196800D03*
X0351800Y0211800D03*
X0366800Y0221800D03*
X0346800Y0241800D03*
X0351800Y0251800D03*
X0361800Y0251800D03*
X0361800Y0276800D03*
X0341800Y0276800D03*
X0336800Y0276800D03*
X0316800Y0331800D03*
X0306800Y0331800D03*
X0301800Y0331800D03*
X0306800Y0351800D03*
X0316800Y0351800D03*
X0306800Y0371800D03*
X0301800Y0371800D03*
X0291800Y0371800D03*
X0281800Y0371800D03*
X0306800Y0381800D03*
X0311800Y0376800D03*
X0326800Y0386800D03*
X0321800Y0396800D03*
X0296800Y0396800D03*
X0236800Y0361800D03*
X0236800Y0331800D03*
X0246800Y0321800D03*
X0236800Y0306800D03*
X0221800Y0316800D03*
X0211800Y0316800D03*
X0256800Y0231800D03*
X0276800Y0206800D03*
X0266800Y0196800D03*
X0271800Y0181800D03*
X0281800Y0221800D03*
X0351800Y0166800D03*
X0361800Y0156800D03*
X0361800Y0141800D03*
X0361800Y0116800D03*
X0361800Y0096800D03*
X0351800Y0071800D03*
X0361800Y0066800D03*
X0336800Y0086800D03*
X0291800Y0081800D03*
X0271800Y0071800D03*
X0261800Y0061800D03*
X0266800Y0051800D03*
X0281800Y0051800D03*
X0281800Y0031800D03*
X0251800Y0031800D03*
X0246800Y0041800D03*
X0246800Y0056800D03*
X0241800Y0061800D03*
X0246800Y0066800D03*
X0241800Y0081800D03*
X0236800Y0101800D03*
X0266800Y0091800D03*
X0231800Y0051800D03*
X0181800Y0071800D03*
X0166800Y0091800D03*
X0166800Y0101800D03*
X0171800Y0106800D03*
X0156800Y0106800D03*
X0151800Y0111800D03*
X0156800Y0121800D03*
X0131800Y0111800D03*
X0126800Y0106800D03*
X0121800Y0111800D03*
X0126800Y0116800D03*
X0111800Y0106800D03*
X0116800Y0096800D03*
X0116800Y0076800D03*
X0131800Y0066800D03*
X0141800Y0081800D03*
X0151800Y0066800D03*
X0151800Y0041800D03*
X0131800Y0041800D03*
X0121800Y0026800D03*
X0061800Y0086800D03*
X0111800Y0126800D03*
D25*
X0086800Y0281800D03*
X0076800Y0281800D03*
X0076800Y0321800D03*
X0086800Y0321800D03*
X0086800Y0356800D03*
X0076800Y0356800D03*
X0076800Y0386800D03*
X0086800Y0386800D03*
D26*
X0046800Y0421800D03*
X0356800Y0421800D03*
X0356800Y0036800D03*
X0046800Y0036800D03*
M02*
