G75*
%MOIN*%
%OFA0B0*%
%FSLAX25Y25*%
%IPPOS*%
%LPD*%
%AMOC8*
5,1,8,0,0,1.08239X$1,22.5*
%
%ADD10R,0.05131X0.04737*%
%ADD11R,0.04737X0.05131*%
%ADD12C,0.07400*%
%ADD13R,0.11824X0.11824*%
%ADD14C,0.08674*%
%ADD15R,0.04737X0.06312*%
%ADD16C,0.06000*%
%ADD17R,0.03950X0.02965*%
%ADD18R,0.09800X0.09800*%
%ADD19R,0.14800X0.14800*%
%ADD20C,0.06737*%
%ADD21OC8,0.07100*%
%ADD22C,0.07100*%
%ADD23R,0.03200X0.09500*%
%ADD24C,0.04762*%
%ADD25C,0.05550*%
%ADD26C,0.17398*%
D10*
X0051800Y0063454D03*
X0051800Y0070146D03*
X0051800Y0123454D03*
X0051800Y0130146D03*
X0086800Y0163454D03*
X0086800Y0170146D03*
X0116800Y0223454D03*
X0116800Y0230146D03*
X0136800Y0233454D03*
X0136800Y0240146D03*
X0146800Y0240146D03*
X0146800Y0233454D03*
X0171800Y0200146D03*
X0171800Y0193454D03*
X0161800Y0185146D03*
X0161800Y0178454D03*
X0206800Y0170146D03*
X0206800Y0163454D03*
X0246800Y0115146D03*
X0246800Y0108454D03*
X0166800Y0060146D03*
X0166800Y0053454D03*
X0181800Y0233454D03*
X0181800Y0240146D03*
X0186800Y0253454D03*
X0186800Y0260146D03*
X0161800Y0268454D03*
X0161800Y0275146D03*
X0151800Y0293454D03*
X0151800Y0300146D03*
X0136800Y0298454D03*
X0136800Y0305146D03*
X0121800Y0290146D03*
X0121800Y0283454D03*
X0090146Y0291800D03*
X0083454Y0291800D03*
X0083454Y0311800D03*
X0090146Y0311800D03*
X0090146Y0346800D03*
X0083454Y0346800D03*
X0051800Y0340146D03*
X0051800Y0333454D03*
X0051800Y0305146D03*
X0051800Y0298454D03*
X0051800Y0265146D03*
X0051800Y0258454D03*
X0061800Y0258454D03*
X0061800Y0265146D03*
X0051800Y0368454D03*
X0051800Y0375146D03*
X0041800Y0403454D03*
X0041800Y0410146D03*
X0083454Y0396800D03*
X0090146Y0396800D03*
X0216800Y0310146D03*
X0216800Y0303454D03*
X0226800Y0303454D03*
X0226800Y0310146D03*
X0226800Y0270146D03*
X0226800Y0263454D03*
X0236800Y0263454D03*
X0236800Y0270146D03*
X0261800Y0273454D03*
X0261800Y0280146D03*
X0271800Y0255146D03*
X0271800Y0248454D03*
X0281800Y0248454D03*
X0281800Y0255146D03*
X0301800Y0278454D03*
X0301800Y0285146D03*
X0311800Y0285146D03*
X0311800Y0278454D03*
X0306800Y0270146D03*
X0306800Y0263454D03*
X0321800Y0263454D03*
X0321800Y0270146D03*
X0321800Y0255146D03*
X0321800Y0248454D03*
X0331800Y0248454D03*
X0331800Y0255146D03*
X0356800Y0240146D03*
X0356800Y0233454D03*
X0366800Y0233454D03*
X0366800Y0240146D03*
X0311800Y0298454D03*
X0311800Y0305146D03*
X0291800Y0305146D03*
X0291800Y0298454D03*
X0281800Y0298454D03*
X0281800Y0305146D03*
X0296800Y0358454D03*
X0296800Y0365146D03*
X0331800Y0315146D03*
X0331800Y0308454D03*
X0356800Y0353454D03*
X0356800Y0360146D03*
X0366800Y0360146D03*
X0366800Y0353454D03*
X0356800Y0085146D03*
X0356800Y0078454D03*
D11*
X0320146Y0151800D03*
X0313454Y0151800D03*
X0271800Y0120146D03*
X0271800Y0113454D03*
X0271800Y0055146D03*
X0271800Y0048454D03*
X0136800Y0123454D03*
X0136800Y0130146D03*
X0136800Y0208454D03*
X0136800Y0215146D03*
X0126800Y0213454D03*
X0126800Y0220146D03*
X0151800Y0268454D03*
X0151800Y0275146D03*
X0163454Y0316800D03*
X0170146Y0316800D03*
X0186800Y0313454D03*
X0186800Y0320146D03*
X0201800Y0315146D03*
X0201800Y0308454D03*
X0201800Y0255146D03*
X0201800Y0248454D03*
X0211800Y0378454D03*
X0211800Y0385146D03*
X0321800Y0385146D03*
X0321800Y0378454D03*
X0346800Y0360146D03*
X0346800Y0353454D03*
X0321800Y0325146D03*
X0321800Y0318454D03*
X0346800Y0255146D03*
X0346800Y0248454D03*
D12*
X0336643Y0194241D03*
X0326800Y0194241D03*
X0316957Y0194241D03*
X0216643Y0194241D03*
X0206800Y0194241D03*
X0196957Y0194241D03*
X0096643Y0194241D03*
X0086800Y0194241D03*
X0076957Y0194241D03*
X0131957Y0319241D03*
X0141800Y0319241D03*
X0151643Y0319241D03*
X0261957Y0319241D03*
X0271800Y0319241D03*
X0281643Y0319241D03*
D13*
X0289517Y0346800D03*
X0254083Y0346800D03*
X0159517Y0346800D03*
X0124083Y0346800D03*
X0104517Y0221800D03*
X0069083Y0221800D03*
X0189083Y0221800D03*
X0224517Y0221800D03*
X0309083Y0221800D03*
X0344517Y0221800D03*
D14*
X0326800Y0235580D03*
X0326800Y0206052D03*
X0271800Y0331052D03*
X0271800Y0360580D03*
X0206800Y0235580D03*
X0206800Y0206052D03*
X0141800Y0331052D03*
X0141800Y0360580D03*
X0086800Y0235580D03*
X0086800Y0206052D03*
D15*
X0070540Y0297469D03*
X0063060Y0297469D03*
X0066800Y0306131D03*
X0063060Y0332469D03*
X0070540Y0332469D03*
X0066800Y0341131D03*
X0063060Y0367469D03*
X0066800Y0376131D03*
X0070540Y0367469D03*
X0103060Y0367469D03*
X0106800Y0376131D03*
X0110540Y0367469D03*
X0106800Y0341131D03*
X0103060Y0332469D03*
X0110540Y0332469D03*
X0106800Y0306131D03*
X0103060Y0297469D03*
X0110540Y0297469D03*
D16*
X0261800Y0174400D02*
X0261800Y0169200D01*
X0271800Y0169200D02*
X0271800Y0174400D01*
X0281800Y0174400D02*
X0281800Y0169200D01*
D17*
X0126524Y0238060D03*
X0126524Y0241800D03*
X0126524Y0245540D03*
X0117076Y0245540D03*
X0117076Y0241800D03*
X0117076Y0238060D03*
X0091524Y0258060D03*
X0091524Y0261800D03*
X0091524Y0265540D03*
X0082076Y0265540D03*
X0082076Y0261800D03*
X0082076Y0258060D03*
X0082076Y0418060D03*
X0082076Y0421800D03*
X0082076Y0425540D03*
X0091524Y0425540D03*
X0091524Y0421800D03*
X0091524Y0418060D03*
D18*
X0106800Y0111800D03*
X0106800Y0051800D03*
X0226800Y0051800D03*
X0226800Y0111800D03*
X0346800Y0111800D03*
X0346800Y0051800D03*
D19*
X0326800Y0036800D03*
X0306800Y0051800D03*
X0326800Y0071800D03*
X0326800Y0096800D03*
X0306800Y0111800D03*
X0326800Y0131800D03*
X0206800Y0131800D03*
X0186800Y0111800D03*
X0206800Y0096800D03*
X0206800Y0071800D03*
X0186800Y0051800D03*
X0206800Y0036800D03*
X0086800Y0036800D03*
X0066800Y0051800D03*
X0086800Y0071800D03*
X0086800Y0096800D03*
X0066800Y0111800D03*
X0086800Y0131800D03*
D20*
X0291800Y0406800D03*
X0291800Y0416800D03*
X0301800Y0416800D03*
X0301800Y0406800D03*
X0311800Y0406800D03*
X0311800Y0416800D03*
X0321800Y0416800D03*
X0321800Y0406800D03*
X0331800Y0406800D03*
X0331800Y0416800D03*
X0241800Y0411800D03*
X0241800Y0421800D03*
X0231800Y0421800D03*
X0231800Y0411800D03*
X0221800Y0411800D03*
X0221800Y0421800D03*
X0211800Y0421800D03*
X0211800Y0411800D03*
X0201800Y0411800D03*
X0201800Y0421800D03*
X0191800Y0421800D03*
X0191800Y0411800D03*
X0181800Y0411800D03*
X0181800Y0421800D03*
X0171800Y0421800D03*
X0171800Y0411800D03*
D21*
X0266800Y0306800D03*
X0161800Y0211800D03*
D22*
X0161800Y0221800D03*
X0266800Y0296800D03*
D23*
X0306800Y0341550D03*
X0311800Y0341550D03*
X0316800Y0341550D03*
X0321800Y0341550D03*
X0326800Y0341550D03*
X0331800Y0341550D03*
X0336800Y0341550D03*
X0336800Y0362050D03*
X0331800Y0362050D03*
X0326800Y0362050D03*
X0321800Y0362050D03*
X0316800Y0362050D03*
X0311800Y0362050D03*
X0306800Y0362050D03*
X0331800Y0287050D03*
X0336800Y0287050D03*
X0341800Y0287050D03*
X0346800Y0287050D03*
X0351800Y0287050D03*
X0356800Y0287050D03*
X0361800Y0287050D03*
X0361800Y0266550D03*
X0356800Y0266550D03*
X0351800Y0266550D03*
X0346800Y0266550D03*
X0341800Y0266550D03*
X0336800Y0266550D03*
X0331800Y0266550D03*
X0216800Y0271550D03*
X0211800Y0271550D03*
X0206800Y0271550D03*
X0201800Y0271550D03*
X0196800Y0271550D03*
X0191800Y0271550D03*
X0186800Y0271550D03*
X0186800Y0292050D03*
X0191800Y0292050D03*
X0196800Y0292050D03*
X0201800Y0292050D03*
X0206800Y0292050D03*
X0211800Y0292050D03*
X0216800Y0292050D03*
X0151800Y0182050D03*
X0146800Y0182050D03*
X0141800Y0182050D03*
X0136800Y0182050D03*
X0131800Y0182050D03*
X0126800Y0182050D03*
X0121800Y0182050D03*
X0121800Y0161550D03*
X0126800Y0161550D03*
X0131800Y0161550D03*
X0136800Y0161550D03*
X0141800Y0161550D03*
X0146800Y0161550D03*
X0151800Y0161550D03*
X0256800Y0102050D03*
X0261800Y0102050D03*
X0266800Y0102050D03*
X0271800Y0102050D03*
X0276800Y0102050D03*
X0281800Y0102050D03*
X0286800Y0102050D03*
X0286800Y0081550D03*
X0281800Y0081550D03*
X0276800Y0081550D03*
X0271800Y0081550D03*
X0266800Y0081550D03*
X0261800Y0081550D03*
X0256800Y0081550D03*
D24*
X0041800Y0051800D03*
X0041800Y0071800D03*
X0056800Y0071800D03*
X0066800Y0086800D03*
X0041800Y0091800D03*
X0041800Y0111800D03*
X0056800Y0131800D03*
X0056800Y0141800D03*
X0046800Y0151800D03*
X0041800Y0141800D03*
X0041800Y0166800D03*
X0051800Y0186800D03*
X0041800Y0191800D03*
X0051800Y0206800D03*
X0056800Y0226800D03*
X0066800Y0231800D03*
X0076800Y0246800D03*
X0071800Y0251800D03*
X0061800Y0251800D03*
X0051800Y0246800D03*
X0041800Y0226800D03*
X0081800Y0251800D03*
X0086800Y0251800D03*
X0091800Y0251800D03*
X0091800Y0246800D03*
X0096800Y0246800D03*
X0096800Y0256800D03*
X0101800Y0261800D03*
X0106800Y0266800D03*
X0111800Y0271800D03*
X0101800Y0276800D03*
X0101800Y0286800D03*
X0111800Y0281800D03*
X0121800Y0296800D03*
X0131800Y0311800D03*
X0141800Y0311800D03*
X0141800Y0291800D03*
X0141800Y0286800D03*
X0136800Y0291800D03*
X0141800Y0276800D03*
X0141800Y0271800D03*
X0151800Y0281800D03*
X0151800Y0286800D03*
X0161800Y0281800D03*
X0176800Y0281800D03*
X0181800Y0266800D03*
X0176800Y0251800D03*
X0176800Y0246800D03*
X0171800Y0236800D03*
X0166800Y0251800D03*
X0161800Y0261800D03*
X0156800Y0246800D03*
X0146800Y0246800D03*
X0136800Y0246800D03*
X0131800Y0246800D03*
X0126800Y0256800D03*
X0136800Y0256800D03*
X0126800Y0271800D03*
X0111800Y0246800D03*
X0126800Y0231800D03*
X0136800Y0226800D03*
X0146800Y0226800D03*
X0151800Y0206800D03*
X0146800Y0191800D03*
X0136800Y0191800D03*
X0131800Y0201800D03*
X0126800Y0206800D03*
X0121800Y0196800D03*
X0121800Y0171800D03*
X0126800Y0171800D03*
X0126800Y0151800D03*
X0131800Y0141800D03*
X0136800Y0136800D03*
X0146800Y0146800D03*
X0151800Y0141800D03*
X0151800Y0151800D03*
X0156800Y0161800D03*
X0156800Y0166800D03*
X0166800Y0156800D03*
X0171800Y0166800D03*
X0176800Y0171800D03*
X0171800Y0176800D03*
X0181800Y0166800D03*
X0186800Y0156800D03*
X0181800Y0151800D03*
X0176800Y0141800D03*
X0156800Y0111800D03*
X0156800Y0091800D03*
X0171800Y0091800D03*
X0171800Y0071800D03*
X0156800Y0066800D03*
X0136800Y0066800D03*
X0131800Y0081800D03*
X0116800Y0071800D03*
X0106800Y0086800D03*
X0121800Y0096800D03*
X0136800Y0111800D03*
X0121800Y0126800D03*
X0116800Y0136800D03*
X0106800Y0136800D03*
X0096800Y0151800D03*
X0086800Y0156800D03*
X0066800Y0156800D03*
X0066800Y0136800D03*
X0066800Y0176800D03*
X0106800Y0171800D03*
X0156800Y0191800D03*
X0171800Y0206800D03*
X0186800Y0211800D03*
X0186800Y0196800D03*
X0191800Y0176800D03*
X0206800Y0151800D03*
X0231800Y0146800D03*
X0236800Y0151800D03*
X0246800Y0151800D03*
X0241800Y0166800D03*
X0241800Y0186800D03*
X0251800Y0191800D03*
X0271800Y0191800D03*
X0281800Y0206800D03*
X0286800Y0221800D03*
X0286800Y0241800D03*
X0301800Y0251800D03*
X0306800Y0246800D03*
X0311800Y0251800D03*
X0311800Y0256800D03*
X0326800Y0266800D03*
X0321800Y0276800D03*
X0326800Y0286800D03*
X0331800Y0296800D03*
X0321800Y0306800D03*
X0316800Y0296800D03*
X0311800Y0311800D03*
X0306800Y0321800D03*
X0296800Y0326800D03*
X0291800Y0331800D03*
X0306800Y0331800D03*
X0311800Y0331800D03*
X0321800Y0331800D03*
X0331800Y0326800D03*
X0336800Y0326800D03*
X0341800Y0326800D03*
X0351800Y0321800D03*
X0356800Y0316800D03*
X0351800Y0311800D03*
X0356800Y0301800D03*
X0361800Y0296800D03*
X0361800Y0306800D03*
X0371800Y0321800D03*
X0366800Y0331800D03*
X0361800Y0341800D03*
X0356800Y0326800D03*
X0341800Y0341800D03*
X0341800Y0351800D03*
X0341800Y0371800D03*
X0356800Y0371800D03*
X0366800Y0381800D03*
X0366800Y0401800D03*
X0341800Y0431800D03*
X0321800Y0426800D03*
X0301800Y0431800D03*
X0276800Y0426800D03*
X0266800Y0421800D03*
X0261800Y0426800D03*
X0256800Y0416800D03*
X0261800Y0406800D03*
X0266800Y0401800D03*
X0256800Y0396800D03*
X0241800Y0391800D03*
X0236800Y0396800D03*
X0231800Y0401800D03*
X0211800Y0391800D03*
X0201800Y0371800D03*
X0186800Y0356800D03*
X0186800Y0336800D03*
X0196800Y0321800D03*
X0206800Y0331800D03*
X0221800Y0336800D03*
X0221800Y0356800D03*
X0206800Y0351800D03*
X0216800Y0316800D03*
X0226800Y0316800D03*
X0241800Y0306800D03*
X0241800Y0286800D03*
X0236800Y0281800D03*
X0226800Y0281800D03*
X0221800Y0276800D03*
X0216800Y0281800D03*
X0206800Y0281800D03*
X0196800Y0281800D03*
X0201800Y0301800D03*
X0191800Y0306800D03*
X0186800Y0301800D03*
X0181800Y0306800D03*
X0176800Y0319241D03*
X0226800Y0291800D03*
X0246800Y0276800D03*
X0251800Y0281800D03*
X0256800Y0266800D03*
X0261800Y0256800D03*
X0276800Y0266800D03*
X0281800Y0276800D03*
X0291800Y0266800D03*
X0301800Y0291800D03*
X0301800Y0296800D03*
X0296800Y0301800D03*
X0291800Y0316800D03*
X0311800Y0351800D03*
X0321800Y0351800D03*
X0311800Y0371800D03*
X0306800Y0371800D03*
X0296800Y0371800D03*
X0286800Y0371800D03*
X0276800Y0396800D03*
X0301800Y0396800D03*
X0311800Y0381800D03*
X0316800Y0376800D03*
X0326800Y0391800D03*
X0331800Y0386800D03*
X0241800Y0371800D03*
X0241800Y0331800D03*
X0241800Y0326800D03*
X0221800Y0261800D03*
X0226800Y0251800D03*
X0236800Y0251800D03*
X0231800Y0241800D03*
X0221800Y0241800D03*
X0216800Y0241800D03*
X0211800Y0251800D03*
X0201800Y0261800D03*
X0186800Y0236800D03*
X0191800Y0231800D03*
X0261800Y0236800D03*
X0261800Y0216800D03*
X0291800Y0181800D03*
X0306800Y0186800D03*
X0306800Y0171800D03*
X0301800Y0161800D03*
X0296800Y0166800D03*
X0306800Y0151800D03*
X0296800Y0146800D03*
X0286800Y0131800D03*
X0276800Y0141800D03*
X0281800Y0146800D03*
X0266800Y0131800D03*
X0261800Y0146800D03*
X0246800Y0131800D03*
X0246800Y0096800D03*
X0251800Y0081800D03*
X0271800Y0091800D03*
X0276800Y0071800D03*
X0286800Y0071800D03*
X0296800Y0071800D03*
X0286800Y0046800D03*
X0271800Y0061800D03*
X0251800Y0046800D03*
X0236800Y0061800D03*
X0266800Y0026800D03*
X0286800Y0026800D03*
X0356800Y0071800D03*
X0366800Y0066800D03*
X0366800Y0091800D03*
X0366800Y0116800D03*
X0366800Y0141800D03*
X0366800Y0156800D03*
X0356800Y0166800D03*
X0356800Y0181800D03*
X0371800Y0176800D03*
X0371800Y0201800D03*
X0356800Y0201800D03*
X0326800Y0171800D03*
X0336800Y0146800D03*
X0351800Y0241800D03*
X0356800Y0251800D03*
X0366800Y0251800D03*
X0366800Y0276800D03*
X0346800Y0276800D03*
X0341800Y0276800D03*
X0201800Y0431800D03*
X0186800Y0396800D03*
X0166800Y0396800D03*
X0146800Y0396800D03*
X0131800Y0406800D03*
X0121800Y0396800D03*
X0111800Y0406800D03*
X0121800Y0416800D03*
X0141800Y0416800D03*
X0121800Y0381800D03*
X0106800Y0386800D03*
X0096800Y0376800D03*
X0101800Y0361800D03*
X0106800Y0356800D03*
X0101800Y0351800D03*
X0111800Y0346800D03*
X0121800Y0336800D03*
X0116800Y0326800D03*
X0111800Y0321800D03*
X0101800Y0326800D03*
X0091800Y0336800D03*
X0081800Y0336800D03*
X0071800Y0346800D03*
X0066800Y0356800D03*
X0061800Y0361800D03*
X0056800Y0346800D03*
X0061800Y0326800D03*
X0056800Y0316800D03*
X0066800Y0316800D03*
X0081800Y0306800D03*
X0091800Y0301800D03*
X0071800Y0281800D03*
X0061800Y0286800D03*
X0081800Y0271800D03*
X0121800Y0361800D03*
X0076800Y0381800D03*
X0066800Y0386800D03*
X0071800Y0396800D03*
X0076800Y0406800D03*
X0076800Y0416800D03*
X0071800Y0421800D03*
X0066800Y0431800D03*
X0081800Y0431800D03*
X0091800Y0431800D03*
X0101800Y0421800D03*
X0056800Y0406800D03*
X0051800Y0396800D03*
X0046800Y0386800D03*
X0041800Y0391800D03*
X0136800Y0041800D03*
X0156800Y0041800D03*
X0116800Y0026800D03*
D25*
X0091800Y0281800D03*
X0081800Y0281800D03*
X0081800Y0321800D03*
X0091800Y0321800D03*
X0091800Y0356800D03*
X0081800Y0356800D03*
X0081800Y0386800D03*
X0091800Y0386800D03*
D26*
X0051800Y0421800D03*
X0361800Y0421800D03*
X0361800Y0036800D03*
X0051800Y0036800D03*
M02*
