%
M48
M72
T01C0.02362
T02C0.03150
T03C0.03200
T04C0.03937
T05C0.04331
T06C0.06000
T07C0.06299
T08C0.07874
T09C0.10000
T10C0.12598
%
T01
X41800Y51800
X41800Y71800
X56800Y71800
X66800Y86800
X41800Y91800
X41800Y111800
X56800Y131800
X56800Y141800
X46800Y151800
X41800Y136800
X66800Y136800
X66800Y156800
X66800Y176800
X86800Y156800
X96800Y151800
X106800Y136800
X116800Y136800
X121800Y126800
X131800Y141800
X136800Y136800
X146800Y146800
X151800Y141800
X151800Y151800
X156800Y161800
X156800Y166800
X166800Y156800
X171800Y166800
X176800Y171800
X171800Y176800
X181800Y166800
X186800Y156800
X181800Y151800
X176800Y141800
X156800Y111800
X156800Y91800
X171800Y91800
X171800Y71800
X156800Y66800
X151800Y51800
X156800Y41800
X136800Y41800
X116800Y26800
X116800Y71800
X131800Y81800
X121800Y96800
X106800Y86800
X126800Y151800
X126800Y171800
X121800Y171800
X106800Y171800
X121800Y196800
X126800Y206800
X131800Y201800
X136800Y191800
X146800Y191800
X151800Y201800
X156800Y191800
X171800Y206800
X186800Y196800
X191800Y176800
X206800Y151800
X231800Y146800
X236800Y151800
X246800Y151800
X241800Y166800
X241800Y186800
X251800Y191800
X266800Y211800
X266800Y226800
X286800Y211800
X281800Y201800
X271800Y191800
X291800Y181800
X306800Y186800
X306800Y171800
X301800Y161800
X296800Y166800
X306800Y151800
X296800Y146800
X286800Y131800
X276800Y141800
X281800Y146800
X266800Y131800
X261800Y146800
X246800Y131800
X246800Y96800
X251800Y81800
X271800Y91800
X276800Y71800
X286800Y71800
X296800Y71800
X286800Y46800
X271800Y61800
X251800Y46800
X236800Y61800
X266800Y26800
X286800Y26800
X356800Y71800
X366800Y66800
X366800Y86800
X366800Y106800
X366800Y126800
X366800Y156800
X356800Y166800
X356800Y181800
X371800Y176800
X371800Y201800
X356800Y201800
X326800Y171800
X336800Y146800
X351800Y241800
X356800Y251800
X366800Y251800
X366800Y276800
X361800Y296800
X356800Y301800
X361800Y306800
X356800Y316800
X351800Y311800
X351800Y321800
X356800Y326800
X366800Y331800
X361800Y341800
X371800Y321800
X341800Y326800
X336800Y326800
X331800Y321800
X321800Y331800
X311800Y326800
X306800Y326800
X296800Y321800
X291800Y326800
X286800Y331800
X281800Y316800
X296800Y301800
X301800Y291800
X316800Y296800
X321800Y306800
X331800Y296800
X326800Y286800
X321800Y276800
X326800Y266800
X341800Y276800
X346800Y276800
X311800Y256800
X311800Y251800
X306800Y246800
X301800Y251800
X291800Y266800
X276800Y276800
X256800Y266800
X261800Y256800
X246800Y276800
X251800Y281800
X241800Y286800
X236800Y281800
X226800Y281800
X221800Y276800
X216800Y281800
X206800Y281800
X196800Y281800
X201800Y301800
X191800Y306800
X186800Y301800
X181800Y306800
X176800Y319241
X186800Y336800
X196800Y321800
X216800Y316800
X226800Y316800
X241800Y306800
X226800Y291800
X221800Y261800
X226800Y251800
X236800Y251800
X231800Y241800
X221800Y241800
X216800Y241800
X211800Y251800
X201800Y261800
X181800Y266800
X176800Y251800
X176800Y246800
X171800Y236800
X166800Y251800
X161800Y261800
X156800Y246800
X146800Y246800
X136800Y246800
X131800Y246800
X126800Y256800
X136800Y256800
X141800Y271800
X141800Y276800
X141800Y286800
X141800Y296800
X151800Y286800
X151800Y281800
X161800Y281800
X176800Y281800
X191800Y231800
X136800Y226800
X126800Y231800
X111800Y246800
X101800Y261800
X106800Y266800
X111800Y271800
X101800Y276800
X101800Y286800
X111800Y281800
X121800Y296800
X111800Y321800
X116800Y326800
X121800Y341800
X121800Y351800
X111800Y346800
X106800Y356800
X101800Y351800
X101800Y361800
X96800Y376800
X106800Y386800
X121800Y381800
X121800Y396800
X131800Y406800
X121800Y416800
X111800Y406800
X91800Y431800
X81800Y431800
X66800Y431800
X76800Y416800
X76800Y406800
X71800Y396800
X66800Y386800
X76800Y381800
X61800Y361800
X66800Y356800
X71800Y346800
X81800Y336800
X91800Y336800
X101800Y326800
X81800Y306800
X91800Y301800
X71800Y281800
X61800Y286800
X81800Y271800
X96800Y256800
X91800Y251800
X86800Y246800
X81800Y251800
X76800Y241800
X71800Y251800
X66800Y246800
X56800Y241800
X66800Y231800
X56800Y226800
X41800Y226800
X41800Y196800
X41800Y176800
X91800Y241800
X96800Y246800
X126800Y271800
X131800Y321800
X186800Y356800
X201800Y371800
X211800Y391800
X231800Y401800
X236800Y396800
X241800Y391800
X256800Y396800
X261800Y406800
X266800Y401800
X276800Y396800
X291800Y381800
X286800Y371800
X291800Y361800
X296800Y371800
X306800Y371800
X316800Y376800
X326800Y391800
X331800Y386800
X341800Y371800
X356800Y371800
X366800Y381800
X366800Y401800
X341800Y431800
X321800Y426800
X301800Y431800
X276800Y426800
X266800Y421800
X261800Y426800
X256800Y416800
X301800Y396800
X311800Y351800
X321800Y351800
X341800Y351800
X341800Y341800
X306800Y311800
X286800Y241800
X221800Y336800
X221800Y356800
X186800Y396800
X166800Y396800
X146800Y396800
X141800Y416800
X201800Y431800
X66800Y316800
X56800Y316800
X61800Y326800
X56800Y346800
X46800Y386800
X41800Y391800
X51800Y396800
X56800Y406800
T02
X81800Y386800
X91800Y386800
X91800Y356800
X81800Y356800
X81800Y321800
X91800Y321800
X91800Y281800
X81800Y281800
T03
X161800Y221800
X161800Y211800
X261800Y171800
X271800Y171800
X281800Y171800
X261800Y296800
X261800Y306800
T04
X291800Y406800
X291800Y416800
X301800Y416800
X301800Y406800
X311800Y406800
X311800Y416800
X321800Y416800
X321800Y406800
X331800Y406800
X331800Y416800
X241800Y411800
X241800Y421800
X231800Y421800
X231800Y411800
X221800Y411800
X221800Y421800
X211800Y421800
X211800Y411800
X201800Y411800
X201800Y421800
X191800Y421800
X191800Y411800
X181800Y411800
X181800Y421800
X171800Y421800
X171800Y411800
T05
X161643Y319241
X151800Y319241
X141957Y319241
X251957Y319241
X261800Y319241
X271643Y319241
X316957Y189241
X326800Y189241
X336643Y189241
X216643Y184241
X206800Y184241
X196957Y184241
X96643Y189241
X86800Y189241
X76957Y189241
T06
X106800Y111800
X106800Y51800
X226800Y51800
X226800Y111800
X346800Y111800
X346800Y51800
T07
X224517Y211800
X189083Y211800
X104517Y216800
X69083Y216800
X134083Y346800
X169517Y346800
X244083Y346800
X279517Y346800
X309083Y216800
X344517Y216800
T08
X326800Y230580
X326800Y201052
X261800Y331052
X261800Y360580
X151800Y360580
X151800Y331052
X86800Y230580
X86800Y201052
X206800Y196052
X206800Y225580
T09
X206800Y131800
X186800Y111800
X206800Y96800
X206800Y71800
X186800Y51800
X206800Y36800
X306800Y51800
X326800Y36800
X326800Y71800
X326800Y96800
X306800Y111800
X326800Y131800
X86800Y131800
X66800Y111800
X86800Y96800
X86800Y71800
X66800Y51800
X86800Y36800
T10
X51800Y36800
X361800Y36800
X361800Y421800
X51800Y421800
M30
