G75*
%MOIN*%
%OFA0B0*%
%FSLAX25Y25*%
%IPPOS*%
%LPD*%
%AMOC8*
5,1,8,0,0,1.08239X$1,22.5*
%
%ADD10C,0.00600*%
%ADD11C,0.01200*%
%ADD12C,0.00200*%
%ADD13C,0.00500*%
%ADD14C,0.01100*%
%ADD15C,0.00800*%
D10*
X0247800Y0161800D02*
X0247800Y0181800D01*
X0285800Y0181800D01*
X0285800Y0161800D01*
X0247800Y0161800D01*
D11*
X0250800Y0168800D02*
X0254800Y0164800D01*
D12*
X0250300Y0166800D02*
X0250302Y0166899D01*
X0250308Y0166999D01*
X0250318Y0167098D01*
X0250332Y0167196D01*
X0250349Y0167294D01*
X0250371Y0167391D01*
X0250396Y0167487D01*
X0250425Y0167582D01*
X0250458Y0167676D01*
X0250495Y0167768D01*
X0250535Y0167859D01*
X0250579Y0167948D01*
X0250627Y0168036D01*
X0250678Y0168121D01*
X0250732Y0168204D01*
X0250789Y0168286D01*
X0250850Y0168364D01*
X0250914Y0168441D01*
X0250980Y0168514D01*
X0251050Y0168585D01*
X0251122Y0168653D01*
X0251197Y0168719D01*
X0251275Y0168781D01*
X0251355Y0168840D01*
X0251437Y0168896D01*
X0251521Y0168948D01*
X0251608Y0168997D01*
X0251696Y0169043D01*
X0251786Y0169085D01*
X0251878Y0169124D01*
X0251971Y0169159D01*
X0252065Y0169190D01*
X0252161Y0169217D01*
X0252258Y0169240D01*
X0252355Y0169260D01*
X0252453Y0169276D01*
X0252552Y0169288D01*
X0252651Y0169296D01*
X0252750Y0169300D01*
X0252850Y0169300D01*
X0252949Y0169296D01*
X0253048Y0169288D01*
X0253147Y0169276D01*
X0253245Y0169260D01*
X0253342Y0169240D01*
X0253439Y0169217D01*
X0253535Y0169190D01*
X0253629Y0169159D01*
X0253722Y0169124D01*
X0253814Y0169085D01*
X0253904Y0169043D01*
X0253992Y0168997D01*
X0254079Y0168948D01*
X0254163Y0168896D01*
X0254245Y0168840D01*
X0254325Y0168781D01*
X0254403Y0168719D01*
X0254478Y0168653D01*
X0254550Y0168585D01*
X0254620Y0168514D01*
X0254686Y0168441D01*
X0254750Y0168364D01*
X0254811Y0168286D01*
X0254868Y0168204D01*
X0254922Y0168121D01*
X0254973Y0168036D01*
X0255021Y0167948D01*
X0255065Y0167859D01*
X0255105Y0167768D01*
X0255142Y0167676D01*
X0255175Y0167582D01*
X0255204Y0167487D01*
X0255229Y0167391D01*
X0255251Y0167294D01*
X0255268Y0167196D01*
X0255282Y0167098D01*
X0255292Y0166999D01*
X0255298Y0166899D01*
X0255300Y0166800D01*
X0255298Y0166701D01*
X0255292Y0166601D01*
X0255282Y0166502D01*
X0255268Y0166404D01*
X0255251Y0166306D01*
X0255229Y0166209D01*
X0255204Y0166113D01*
X0255175Y0166018D01*
X0255142Y0165924D01*
X0255105Y0165832D01*
X0255065Y0165741D01*
X0255021Y0165652D01*
X0254973Y0165564D01*
X0254922Y0165479D01*
X0254868Y0165396D01*
X0254811Y0165314D01*
X0254750Y0165236D01*
X0254686Y0165159D01*
X0254620Y0165086D01*
X0254550Y0165015D01*
X0254478Y0164947D01*
X0254403Y0164881D01*
X0254325Y0164819D01*
X0254245Y0164760D01*
X0254163Y0164704D01*
X0254079Y0164652D01*
X0253992Y0164603D01*
X0253904Y0164557D01*
X0253814Y0164515D01*
X0253722Y0164476D01*
X0253629Y0164441D01*
X0253535Y0164410D01*
X0253439Y0164383D01*
X0253342Y0164360D01*
X0253245Y0164340D01*
X0253147Y0164324D01*
X0253048Y0164312D01*
X0252949Y0164304D01*
X0252850Y0164300D01*
X0252750Y0164300D01*
X0252651Y0164304D01*
X0252552Y0164312D01*
X0252453Y0164324D01*
X0252355Y0164340D01*
X0252258Y0164360D01*
X0252161Y0164383D01*
X0252065Y0164410D01*
X0251971Y0164441D01*
X0251878Y0164476D01*
X0251786Y0164515D01*
X0251696Y0164557D01*
X0251608Y0164603D01*
X0251521Y0164652D01*
X0251437Y0164704D01*
X0251355Y0164760D01*
X0251275Y0164819D01*
X0251197Y0164881D01*
X0251122Y0164947D01*
X0251050Y0165015D01*
X0250980Y0165086D01*
X0250914Y0165159D01*
X0250850Y0165236D01*
X0250789Y0165314D01*
X0250732Y0165396D01*
X0250678Y0165479D01*
X0250627Y0165564D01*
X0250579Y0165652D01*
X0250535Y0165741D01*
X0250495Y0165832D01*
X0250458Y0165924D01*
X0250425Y0166018D01*
X0250396Y0166113D01*
X0250371Y0166209D01*
X0250349Y0166306D01*
X0250332Y0166404D01*
X0250318Y0166502D01*
X0250308Y0166601D01*
X0250302Y0166701D01*
X0250300Y0166800D01*
D13*
X0251049Y0174550D02*
X0251049Y0179054D01*
X0252550Y0177553D01*
X0252550Y0174550D02*
X0249547Y0174550D01*
X0281047Y0175301D02*
X0281798Y0174550D01*
X0283299Y0174550D01*
X0284050Y0175301D01*
X0282549Y0176802D02*
X0281798Y0176802D01*
X0281047Y0176051D01*
X0281047Y0175301D01*
X0281798Y0176802D02*
X0281047Y0177553D01*
X0281047Y0178303D01*
X0281798Y0179054D01*
X0283299Y0179054D01*
X0284050Y0178303D01*
D14*
X0284257Y0186850D02*
X0282289Y0186850D01*
X0281304Y0187834D01*
X0281304Y0191771D01*
X0285241Y0187834D01*
X0284257Y0186850D01*
X0285241Y0187834D02*
X0285241Y0191771D01*
X0284257Y0192755D01*
X0282289Y0192755D01*
X0281304Y0191771D01*
X0278796Y0192755D02*
X0278796Y0186850D01*
X0278796Y0188818D02*
X0274859Y0192755D01*
X0277811Y0189803D02*
X0274859Y0186850D01*
X0287750Y0187834D02*
X0288734Y0186850D01*
X0290702Y0186850D01*
X0291687Y0187834D01*
X0287750Y0191771D01*
X0287750Y0187834D01*
X0291687Y0187834D02*
X0291687Y0191771D01*
X0290702Y0192755D01*
X0288734Y0192755D01*
X0287750Y0191771D01*
X0294195Y0186850D02*
X0298132Y0186850D01*
X0296164Y0186850D02*
X0296164Y0192755D01*
X0298132Y0190787D01*
X0283493Y0159955D02*
X0284478Y0158971D01*
X0284478Y0157987D01*
X0283493Y0157003D01*
X0281525Y0157003D01*
X0280541Y0156018D01*
X0280541Y0155034D01*
X0281525Y0154050D01*
X0283493Y0154050D01*
X0284478Y0155034D01*
X0283493Y0159955D02*
X0281525Y0159955D01*
X0280541Y0158971D01*
X0278032Y0158971D02*
X0278032Y0155034D01*
X0277048Y0154050D01*
X0275080Y0154050D01*
X0274095Y0155034D01*
X0271587Y0154050D02*
X0271587Y0157987D01*
X0269618Y0159955D01*
X0267650Y0157987D01*
X0267650Y0154050D01*
X0265141Y0154050D02*
X0261204Y0154050D01*
X0258696Y0154050D02*
X0254759Y0154050D01*
X0256727Y0157003D02*
X0258696Y0157003D01*
X0258696Y0159955D02*
X0254759Y0159955D01*
X0258696Y0159955D02*
X0258696Y0154050D01*
X0265141Y0154050D02*
X0265141Y0159955D01*
X0267650Y0157003D02*
X0271587Y0157003D01*
X0274095Y0158971D02*
X0275080Y0159955D01*
X0277048Y0159955D01*
X0278032Y0158971D01*
X0284743Y0387350D02*
X0283759Y0388334D01*
X0283759Y0392271D01*
X0284743Y0393255D01*
X0287696Y0393255D01*
X0287696Y0387350D01*
X0284743Y0387350D01*
X0290204Y0387350D02*
X0290204Y0393255D01*
X0294141Y0393255D02*
X0290204Y0387350D01*
X0294141Y0387350D02*
X0294141Y0393255D01*
X0296650Y0391287D02*
X0296650Y0387350D01*
X0296650Y0390303D02*
X0300587Y0390303D01*
X0300587Y0391287D02*
X0298618Y0393255D01*
X0296650Y0391287D01*
X0300587Y0391287D02*
X0300587Y0387350D01*
X0303095Y0390303D02*
X0304080Y0389318D01*
X0307032Y0389318D01*
X0307032Y0387350D02*
X0307032Y0393255D01*
X0304080Y0393255D01*
X0303095Y0392271D01*
X0303095Y0390303D01*
X0309541Y0393255D02*
X0313478Y0387350D01*
X0309541Y0387350D02*
X0313478Y0393255D01*
X0198478Y0393255D02*
X0198478Y0387350D01*
X0198478Y0389318D02*
X0195525Y0389318D01*
X0194541Y0390303D01*
X0194541Y0392271D01*
X0195525Y0393255D01*
X0198478Y0393255D01*
X0192032Y0392271D02*
X0192032Y0388334D01*
X0191048Y0387350D01*
X0189080Y0387350D01*
X0188095Y0388334D01*
X0188095Y0392271D01*
X0189080Y0393255D01*
X0191048Y0393255D01*
X0192032Y0392271D01*
X0185587Y0393255D02*
X0185587Y0387350D01*
X0183618Y0389318D01*
X0181650Y0387350D01*
X0181650Y0393255D01*
X0179141Y0393255D02*
X0179141Y0387350D01*
X0175204Y0387350D01*
X0172696Y0387350D02*
X0172696Y0393255D01*
X0169743Y0393255D01*
X0168759Y0392271D01*
X0168759Y0390303D01*
X0169743Y0389318D01*
X0172696Y0389318D01*
X0170727Y0389318D02*
X0168759Y0387350D01*
X0175204Y0393255D02*
X0179141Y0393255D01*
X0179141Y0390303D02*
X0177173Y0390303D01*
D15*
X0174245Y0400265D02*
X0194387Y0400265D01*
X0209213Y0400265D01*
X0228422Y0400265D01*
X0228422Y0401446D01*
X0234245Y0401446D01*
X0234245Y0400265D01*
X0256170Y0400265D01*
X0256170Y0433335D01*
X0234213Y0433335D01*
X0234213Y0427233D01*
X0219387Y0427233D01*
X0219387Y0433335D01*
X0184213Y0433335D01*
X0184213Y0427233D01*
X0169387Y0427233D01*
X0169387Y0433335D01*
X0147430Y0433335D01*
X0147430Y0400265D01*
X0168422Y0400265D01*
X0168422Y0401446D01*
X0174245Y0401446D01*
X0174245Y0400265D01*
X0194387Y0400265D02*
X0194387Y0406367D01*
X0209213Y0406367D01*
X0209213Y0400265D01*
X0209213Y0403906D02*
X0251741Y0403906D01*
X0251741Y0429694D01*
X0234241Y0429694D01*
X0234213Y0433335D02*
X0219387Y0433335D01*
X0219379Y0429694D02*
X0184221Y0429694D01*
X0184213Y0433335D02*
X0169387Y0433335D01*
X0169359Y0429694D02*
X0151859Y0429694D01*
X0151859Y0403906D01*
X0194387Y0403906D01*
X0267430Y0395265D02*
X0283422Y0395265D01*
X0283422Y0396446D01*
X0289245Y0396446D01*
X0289245Y0395265D01*
X0299387Y0395265D01*
X0314213Y0395265D01*
X0346170Y0395265D01*
X0346170Y0428335D01*
X0267430Y0428335D01*
X0267430Y0395265D01*
X0271859Y0398906D02*
X0299387Y0398906D01*
X0299387Y0401367D02*
X0299387Y0395265D01*
X0299387Y0401367D02*
X0314213Y0401367D01*
X0314213Y0395265D01*
X0314213Y0398906D02*
X0341741Y0398906D01*
X0341741Y0424694D01*
X0271859Y0424694D01*
X0271859Y0398906D01*
M02*
