G75*
%MOIN*%
%OFA0B0*%
%FSLAX25Y25*%
%IPPOS*%
%LPD*%
%AMOC8*
5,1,8,0,0,1.08239X$1,22.5*
%
%ADD10C,0.00000*%
D10*
X0065934Y0217666D02*
X0072233Y0217666D01*
X0072233Y0225934D01*
X0065934Y0225934D01*
X0065934Y0217666D01*
X0101367Y0217666D02*
X0107666Y0217666D01*
X0107666Y0225934D01*
X0101367Y0225934D01*
X0101367Y0217666D01*
X0185934Y0217666D02*
X0192233Y0217666D01*
X0192233Y0225934D01*
X0185934Y0225934D01*
X0185934Y0217666D01*
X0221367Y0217666D02*
X0227666Y0217666D01*
X0227666Y0225934D01*
X0221367Y0225934D01*
X0221367Y0217666D01*
X0305934Y0217666D02*
X0312233Y0217666D01*
X0312233Y0225934D01*
X0305934Y0225934D01*
X0305934Y0217666D01*
X0341367Y0217666D02*
X0347666Y0217666D01*
X0347666Y0225934D01*
X0341367Y0225934D01*
X0341367Y0217666D01*
X0292666Y0342666D02*
X0286367Y0342666D01*
X0286367Y0350934D01*
X0292666Y0350934D01*
X0292666Y0342666D01*
X0257233Y0342666D02*
X0250934Y0342666D01*
X0250934Y0350934D01*
X0257233Y0350934D01*
X0257233Y0342666D01*
X0162666Y0342666D02*
X0156367Y0342666D01*
X0156367Y0350934D01*
X0162666Y0350934D01*
X0162666Y0342666D01*
X0127233Y0342666D02*
X0120934Y0342666D01*
X0120934Y0350934D01*
X0127233Y0350934D01*
X0127233Y0342666D01*
M02*
