G75*
%MOIN*%
%OFA0B0*%
%FSLAX25Y25*%
%IPPOS*%
%LPD*%
%AMOC8*
5,1,8,0,0,1.08239X$1,22.5*
%
%ADD10C,0.06600*%
%ADD11R,0.11024X0.11024*%
%ADD12C,0.05200*%
%ADD13R,0.09000X0.09000*%
%ADD14R,0.14000X0.14000*%
%ADD15C,0.05937*%
%ADD16OC8,0.06300*%
%ADD17C,0.06300*%
%ADD18C,0.03962*%
%ADD19C,0.01600*%
%ADD20C,0.04750*%
%ADD21C,0.16598*%
%ADD22C,0.02400*%
D10*
X0076957Y0189241D03*
X0086800Y0189241D03*
X0096643Y0189241D03*
X0196957Y0184241D03*
X0206800Y0184241D03*
X0216643Y0184241D03*
X0316957Y0189241D03*
X0326800Y0189241D03*
X0336643Y0189241D03*
X0271643Y0319241D03*
X0261800Y0319241D03*
X0251957Y0319241D03*
X0161643Y0319241D03*
X0151800Y0319241D03*
X0141957Y0319241D03*
D11*
X0134083Y0346800D03*
X0169517Y0346800D03*
X0244083Y0346800D03*
X0279517Y0346800D03*
X0309083Y0216800D03*
X0344517Y0216800D03*
X0224517Y0211800D03*
X0189083Y0211800D03*
X0104517Y0216800D03*
X0069083Y0216800D03*
D12*
X0261800Y0174400D02*
X0261800Y0169200D01*
X0271800Y0169200D02*
X0271800Y0174400D01*
X0281800Y0174400D02*
X0281800Y0169200D01*
D13*
X0226800Y0111800D03*
X0226800Y0051800D03*
X0106800Y0051800D03*
X0106800Y0111800D03*
X0346800Y0111800D03*
X0346800Y0051800D03*
D14*
X0326800Y0036800D03*
X0306800Y0051800D03*
X0326800Y0071800D03*
X0326800Y0096800D03*
X0306800Y0111800D03*
X0326800Y0131800D03*
X0206800Y0131800D03*
X0186800Y0111800D03*
X0206800Y0096800D03*
X0206800Y0071800D03*
X0186800Y0051800D03*
X0206800Y0036800D03*
X0086800Y0036800D03*
X0066800Y0051800D03*
X0086800Y0071800D03*
X0086800Y0096800D03*
X0066800Y0111800D03*
X0086800Y0131800D03*
D15*
X0291800Y0406800D03*
X0291800Y0416800D03*
X0301800Y0416800D03*
X0301800Y0406800D03*
X0311800Y0406800D03*
X0311800Y0416800D03*
X0321800Y0416800D03*
X0321800Y0406800D03*
X0331800Y0406800D03*
X0331800Y0416800D03*
X0241800Y0411800D03*
X0241800Y0421800D03*
X0231800Y0421800D03*
X0231800Y0411800D03*
X0221800Y0411800D03*
X0221800Y0421800D03*
X0211800Y0421800D03*
X0211800Y0411800D03*
X0201800Y0411800D03*
X0201800Y0421800D03*
X0191800Y0421800D03*
X0191800Y0411800D03*
X0181800Y0411800D03*
X0181800Y0421800D03*
X0171800Y0421800D03*
X0171800Y0411800D03*
D16*
X0261800Y0306800D03*
X0161800Y0211800D03*
D17*
X0161800Y0221800D03*
X0261800Y0296800D03*
D18*
X0251800Y0281800D03*
X0246800Y0276800D03*
X0241800Y0286800D03*
X0236800Y0281800D03*
X0226800Y0281800D03*
X0221800Y0276800D03*
X0216800Y0281800D03*
X0206800Y0281800D03*
X0196800Y0281800D03*
X0201800Y0301800D03*
X0191800Y0306800D03*
X0186800Y0301800D03*
X0181800Y0306800D03*
X0176800Y0319241D03*
X0186800Y0336800D03*
X0196800Y0321800D03*
X0216800Y0316800D03*
X0226800Y0316800D03*
X0241800Y0306800D03*
X0226800Y0291800D03*
X0221800Y0261800D03*
X0226800Y0251800D03*
X0236800Y0251800D03*
X0231800Y0241800D03*
X0221800Y0241800D03*
X0216800Y0241800D03*
X0211800Y0251800D03*
X0201800Y0261800D03*
X0181800Y0266800D03*
X0176800Y0251800D03*
X0176800Y0246800D03*
X0171800Y0236800D03*
X0166800Y0251800D03*
X0161800Y0261800D03*
X0156800Y0246800D03*
X0146800Y0246800D03*
X0136800Y0246800D03*
X0131800Y0246800D03*
X0126800Y0256800D03*
X0136800Y0256800D03*
X0141800Y0271800D03*
X0141800Y0276800D03*
X0141800Y0286800D03*
X0141800Y0296800D03*
X0151800Y0286800D03*
X0151800Y0281800D03*
X0161800Y0281800D03*
X0176800Y0281800D03*
X0191800Y0231800D03*
X0171800Y0206800D03*
X0186800Y0196800D03*
X0191800Y0176800D03*
X0181800Y0166800D03*
X0176800Y0171800D03*
X0171800Y0166800D03*
X0171800Y0176800D03*
X0156800Y0166800D03*
X0156800Y0161800D03*
X0151800Y0151800D03*
X0146800Y0146800D03*
X0151800Y0141800D03*
X0166800Y0156800D03*
X0176800Y0141800D03*
X0181800Y0151800D03*
X0186800Y0156800D03*
X0206800Y0151800D03*
X0231800Y0146800D03*
X0236800Y0151800D03*
X0246800Y0151800D03*
X0241800Y0166800D03*
X0241800Y0186800D03*
X0251800Y0191800D03*
X0266800Y0211800D03*
X0266800Y0226800D03*
X0286800Y0211800D03*
X0281800Y0201800D03*
X0271800Y0191800D03*
X0291800Y0181800D03*
X0306800Y0186800D03*
X0306800Y0171800D03*
X0301800Y0161800D03*
X0296800Y0166800D03*
X0306800Y0151800D03*
X0296800Y0146800D03*
X0286800Y0131800D03*
X0276800Y0141800D03*
X0281800Y0146800D03*
X0266800Y0131800D03*
X0261800Y0146800D03*
X0246800Y0131800D03*
X0246800Y0096800D03*
X0251800Y0081800D03*
X0271800Y0091800D03*
X0276800Y0071800D03*
X0286800Y0071800D03*
X0296800Y0071800D03*
X0286800Y0046800D03*
X0271800Y0061800D03*
X0251800Y0046800D03*
X0236800Y0061800D03*
X0266800Y0026800D03*
X0286800Y0026800D03*
X0356800Y0071800D03*
X0366800Y0066800D03*
X0366800Y0086800D03*
X0366800Y0106800D03*
X0366800Y0126800D03*
X0366800Y0156800D03*
X0356800Y0166800D03*
X0356800Y0181800D03*
X0371800Y0176800D03*
X0371800Y0201800D03*
X0356800Y0201800D03*
X0326800Y0171800D03*
X0336800Y0146800D03*
X0351800Y0241800D03*
X0356800Y0251800D03*
X0366800Y0251800D03*
X0366800Y0276800D03*
X0361800Y0296800D03*
X0356800Y0301800D03*
X0361800Y0306800D03*
X0356800Y0316800D03*
X0351800Y0311800D03*
X0351800Y0321800D03*
X0356800Y0326800D03*
X0366800Y0331800D03*
X0361800Y0341800D03*
X0371800Y0321800D03*
X0341800Y0326800D03*
X0336800Y0326800D03*
X0331800Y0321800D03*
X0321800Y0331800D03*
X0311800Y0326800D03*
X0306800Y0326800D03*
X0296800Y0321800D03*
X0291800Y0326800D03*
X0286800Y0331800D03*
X0281800Y0316800D03*
X0296800Y0301800D03*
X0301800Y0291800D03*
X0316800Y0296800D03*
X0321800Y0306800D03*
X0331800Y0296800D03*
X0326800Y0286800D03*
X0321800Y0276800D03*
X0326800Y0266800D03*
X0341800Y0276800D03*
X0346800Y0276800D03*
X0311800Y0256800D03*
X0311800Y0251800D03*
X0306800Y0246800D03*
X0301800Y0251800D03*
X0291800Y0266800D03*
X0276800Y0276800D03*
X0256800Y0266800D03*
X0261800Y0256800D03*
X0286800Y0241800D03*
X0306800Y0311800D03*
X0311800Y0351800D03*
X0321800Y0351800D03*
X0306800Y0371800D03*
X0296800Y0371800D03*
X0291800Y0361800D03*
X0286800Y0371800D03*
X0291800Y0381800D03*
X0301800Y0396800D03*
X0316800Y0376800D03*
X0326800Y0391800D03*
X0331800Y0386800D03*
X0341800Y0371800D03*
X0356800Y0371800D03*
X0366800Y0381800D03*
X0366800Y0401800D03*
X0341800Y0431800D03*
X0321800Y0426800D03*
X0301800Y0431800D03*
X0276800Y0426800D03*
X0266800Y0421800D03*
X0261800Y0426800D03*
X0256800Y0416800D03*
X0261800Y0406800D03*
X0266800Y0401800D03*
X0256800Y0396800D03*
X0241800Y0391800D03*
X0236800Y0396800D03*
X0231800Y0401800D03*
X0211800Y0391800D03*
X0201800Y0371800D03*
X0186800Y0356800D03*
X0221800Y0356800D03*
X0221800Y0336800D03*
X0186800Y0396800D03*
X0166800Y0396800D03*
X0146800Y0396800D03*
X0131800Y0406800D03*
X0121800Y0396800D03*
X0111800Y0406800D03*
X0121800Y0416800D03*
X0141800Y0416800D03*
X0121800Y0381800D03*
X0106800Y0386800D03*
X0096800Y0376800D03*
X0101800Y0361800D03*
X0106800Y0356800D03*
X0101800Y0351800D03*
X0111800Y0346800D03*
X0121800Y0341800D03*
X0121800Y0351800D03*
X0116800Y0326800D03*
X0111800Y0321800D03*
X0101800Y0326800D03*
X0091800Y0336800D03*
X0081800Y0336800D03*
X0071800Y0346800D03*
X0066800Y0356800D03*
X0061800Y0361800D03*
X0056800Y0346800D03*
X0061800Y0326800D03*
X0056800Y0316800D03*
X0066800Y0316800D03*
X0081800Y0306800D03*
X0091800Y0301800D03*
X0101800Y0286800D03*
X0101800Y0276800D03*
X0111800Y0271800D03*
X0106800Y0266800D03*
X0101800Y0261800D03*
X0096800Y0256800D03*
X0091800Y0251800D03*
X0086800Y0246800D03*
X0081800Y0251800D03*
X0076800Y0241800D03*
X0071800Y0251800D03*
X0066800Y0246800D03*
X0056800Y0241800D03*
X0066800Y0231800D03*
X0056800Y0226800D03*
X0041800Y0226800D03*
X0041800Y0196800D03*
X0041800Y0176800D03*
X0046800Y0151800D03*
X0056800Y0141800D03*
X0056800Y0131800D03*
X0066800Y0136800D03*
X0066800Y0156800D03*
X0066800Y0176800D03*
X0086800Y0156800D03*
X0096800Y0151800D03*
X0106800Y0136800D03*
X0116800Y0136800D03*
X0121800Y0126800D03*
X0131800Y0141800D03*
X0136800Y0136800D03*
X0126800Y0151800D03*
X0126800Y0171800D03*
X0121800Y0171800D03*
X0106800Y0171800D03*
X0121800Y0196800D03*
X0126800Y0206800D03*
X0131800Y0201800D03*
X0136800Y0191800D03*
X0146800Y0191800D03*
X0151800Y0201800D03*
X0156800Y0191800D03*
X0136800Y0226800D03*
X0126800Y0231800D03*
X0111800Y0246800D03*
X0096800Y0246800D03*
X0091800Y0241800D03*
X0081800Y0271800D03*
X0071800Y0281800D03*
X0061800Y0286800D03*
X0111800Y0281800D03*
X0121800Y0296800D03*
X0131800Y0321800D03*
X0126800Y0271800D03*
X0076800Y0381800D03*
X0066800Y0386800D03*
X0071800Y0396800D03*
X0076800Y0406800D03*
X0076800Y0416800D03*
X0081800Y0431800D03*
X0091800Y0431800D03*
X0066800Y0431800D03*
X0056800Y0406800D03*
X0051800Y0396800D03*
X0046800Y0386800D03*
X0041800Y0391800D03*
X0201800Y0431800D03*
X0276800Y0396800D03*
X0341800Y0351800D03*
X0341800Y0341800D03*
X0156800Y0111800D03*
X0156800Y0091800D03*
X0171800Y0091800D03*
X0171800Y0071800D03*
X0156800Y0066800D03*
X0151800Y0051800D03*
X0156800Y0041800D03*
X0136800Y0041800D03*
X0116800Y0026800D03*
X0116800Y0071800D03*
X0131800Y0081800D03*
X0121800Y0096800D03*
X0106800Y0086800D03*
X0066800Y0086800D03*
X0056800Y0071800D03*
X0041800Y0071800D03*
X0041800Y0051800D03*
X0041800Y0091800D03*
X0041800Y0111800D03*
X0041800Y0136800D03*
D19*
X0036600Y0021600D02*
X0036600Y0435701D01*
X0376921Y0435701D01*
X0376921Y0021600D01*
X0036600Y0021600D01*
X0036600Y0023194D02*
X0376921Y0023194D01*
X0376921Y0024793D02*
X0269845Y0024793D01*
X0269836Y0024771D02*
X0270381Y0026088D01*
X0270381Y0027512D01*
X0269836Y0028829D01*
X0268829Y0029836D01*
X0267512Y0030381D01*
X0266088Y0030381D01*
X0264771Y0029836D01*
X0264136Y0029200D01*
X0215503Y0029200D01*
X0215600Y0029563D01*
X0215600Y0036000D01*
X0207600Y0036000D01*
X0207600Y0037600D01*
X0206000Y0037600D01*
X0206000Y0045600D01*
X0199563Y0045600D01*
X0199105Y0045477D01*
X0198695Y0045240D01*
X0198360Y0044905D01*
X0198123Y0044495D01*
X0198000Y0044037D01*
X0198000Y0037600D01*
X0206000Y0037600D01*
X0206000Y0036000D01*
X0198000Y0036000D01*
X0198000Y0029563D01*
X0198097Y0029200D01*
X0119464Y0029200D01*
X0118829Y0029836D01*
X0117512Y0030381D01*
X0116088Y0030381D01*
X0114771Y0029836D01*
X0113764Y0028829D01*
X0113219Y0027512D01*
X0113219Y0026088D01*
X0113764Y0024771D01*
X0114771Y0023764D01*
X0116088Y0023219D01*
X0117512Y0023219D01*
X0118829Y0023764D01*
X0119464Y0024400D01*
X0264136Y0024400D01*
X0264771Y0023764D01*
X0266088Y0023219D01*
X0267512Y0023219D01*
X0268829Y0023764D01*
X0269836Y0024771D01*
X0270381Y0026391D02*
X0376921Y0026391D01*
X0376921Y0027990D02*
X0270183Y0027990D01*
X0269076Y0029588D02*
X0318000Y0029588D01*
X0318000Y0029563D02*
X0318123Y0029105D01*
X0318360Y0028695D01*
X0318695Y0028360D01*
X0319105Y0028123D01*
X0319563Y0028000D01*
X0326000Y0028000D01*
X0326000Y0036000D01*
X0327600Y0036000D01*
X0327600Y0037600D01*
X0326000Y0037600D01*
X0326000Y0045600D01*
X0319563Y0045600D01*
X0319105Y0045477D01*
X0318695Y0045240D01*
X0318360Y0044905D01*
X0318123Y0044495D01*
X0318000Y0044037D01*
X0318000Y0037600D01*
X0326000Y0037600D01*
X0326000Y0036000D01*
X0318000Y0036000D01*
X0318000Y0029563D01*
X0318000Y0031187D02*
X0215600Y0031187D01*
X0215600Y0032785D02*
X0318000Y0032785D01*
X0318000Y0034384D02*
X0215600Y0034384D01*
X0215600Y0035982D02*
X0318000Y0035982D01*
X0318000Y0039179D02*
X0215600Y0039179D01*
X0215600Y0037600D02*
X0215600Y0044037D01*
X0215477Y0044495D01*
X0215240Y0044905D01*
X0214905Y0045240D01*
X0214495Y0045477D01*
X0214037Y0045600D01*
X0207600Y0045600D01*
X0207600Y0037600D01*
X0215600Y0037600D01*
X0215600Y0040778D02*
X0318000Y0040778D01*
X0318000Y0042376D02*
X0215600Y0042376D01*
X0215600Y0043975D02*
X0298198Y0043975D01*
X0298123Y0044105D02*
X0298360Y0043695D01*
X0298695Y0043360D01*
X0299105Y0043123D01*
X0299563Y0043000D01*
X0306000Y0043000D01*
X0306000Y0051000D01*
X0307600Y0051000D01*
X0307600Y0052600D01*
X0315600Y0052600D01*
X0315600Y0059037D01*
X0315477Y0059495D01*
X0315240Y0059905D01*
X0314905Y0060240D01*
X0314495Y0060477D01*
X0314037Y0060600D01*
X0307600Y0060600D01*
X0307600Y0052600D01*
X0306000Y0052600D01*
X0306000Y0060600D01*
X0299563Y0060600D01*
X0299105Y0060477D01*
X0298695Y0060240D01*
X0298360Y0059905D01*
X0298123Y0059495D01*
X0298000Y0059037D01*
X0298000Y0052600D01*
X0306000Y0052600D01*
X0306000Y0051000D01*
X0298000Y0051000D01*
X0298000Y0044563D01*
X0298123Y0044105D01*
X0298000Y0045573D02*
X0231810Y0045573D01*
X0231995Y0045623D02*
X0232405Y0045860D01*
X0232740Y0046195D01*
X0232977Y0046605D01*
X0233100Y0047063D01*
X0233100Y0051100D01*
X0227500Y0051100D01*
X0227500Y0052500D01*
X0233100Y0052500D01*
X0233100Y0056537D01*
X0232977Y0056995D01*
X0232740Y0057405D01*
X0232405Y0057740D01*
X0231995Y0057977D01*
X0231537Y0058100D01*
X0227500Y0058100D01*
X0227500Y0052500D01*
X0226100Y0052500D01*
X0226100Y0058100D01*
X0222063Y0058100D01*
X0221605Y0057977D01*
X0221195Y0057740D01*
X0220860Y0057405D01*
X0220623Y0056995D01*
X0220500Y0056537D01*
X0220500Y0052500D01*
X0226100Y0052500D01*
X0226100Y0051100D01*
X0227500Y0051100D01*
X0227500Y0045500D01*
X0231537Y0045500D01*
X0231995Y0045623D01*
X0233100Y0047172D02*
X0298000Y0047172D01*
X0298000Y0048770D02*
X0233100Y0048770D01*
X0233100Y0050369D02*
X0298000Y0050369D01*
X0298000Y0053566D02*
X0233100Y0053566D01*
X0233100Y0055164D02*
X0298000Y0055164D01*
X0298000Y0056763D02*
X0233039Y0056763D01*
X0234771Y0058764D02*
X0233764Y0059771D01*
X0233219Y0061088D01*
X0233219Y0062512D01*
X0233764Y0063829D01*
X0234771Y0064836D01*
X0236088Y0065381D01*
X0237512Y0065381D01*
X0238829Y0064836D01*
X0239064Y0064600D01*
X0269536Y0064600D01*
X0269771Y0064836D01*
X0271088Y0065381D01*
X0272512Y0065381D01*
X0273829Y0064836D01*
X0274836Y0063829D01*
X0275381Y0062512D01*
X0275381Y0061088D01*
X0274836Y0059771D01*
X0273829Y0058764D01*
X0272512Y0058219D01*
X0271088Y0058219D01*
X0269771Y0058764D01*
X0269536Y0059000D01*
X0239064Y0059000D01*
X0238829Y0058764D01*
X0237512Y0058219D01*
X0236088Y0058219D01*
X0234771Y0058764D01*
X0235744Y0058361D02*
X0195600Y0058361D01*
X0195600Y0059037D02*
X0195600Y0052600D01*
X0187600Y0052600D01*
X0187600Y0051000D01*
X0195600Y0051000D01*
X0195600Y0044563D01*
X0195477Y0044105D01*
X0195240Y0043695D01*
X0194905Y0043360D01*
X0194495Y0043123D01*
X0194037Y0043000D01*
X0187600Y0043000D01*
X0187600Y0051000D01*
X0186000Y0051000D01*
X0186000Y0043000D01*
X0179563Y0043000D01*
X0179105Y0043123D01*
X0178695Y0043360D01*
X0178360Y0043695D01*
X0178123Y0044105D01*
X0178000Y0044563D01*
X0178000Y0051000D01*
X0186000Y0051000D01*
X0186000Y0052600D01*
X0186000Y0060600D01*
X0179563Y0060600D01*
X0179105Y0060477D01*
X0178695Y0060240D01*
X0178360Y0059905D01*
X0178123Y0059495D01*
X0178000Y0059037D01*
X0178000Y0052600D01*
X0186000Y0052600D01*
X0187600Y0052600D01*
X0187600Y0060600D01*
X0194037Y0060600D01*
X0194495Y0060477D01*
X0194905Y0060240D01*
X0195240Y0059905D01*
X0195477Y0059495D01*
X0195600Y0059037D01*
X0195186Y0059960D02*
X0233686Y0059960D01*
X0233219Y0061558D02*
X0036600Y0061558D01*
X0036600Y0059960D02*
X0058414Y0059960D01*
X0058360Y0059905D02*
X0058123Y0059495D01*
X0058000Y0059037D01*
X0058000Y0052600D01*
X0066000Y0052600D01*
X0066000Y0060600D01*
X0059563Y0060600D01*
X0059105Y0060477D01*
X0058695Y0060240D01*
X0058360Y0059905D01*
X0058000Y0058361D02*
X0036600Y0058361D01*
X0036600Y0056763D02*
X0058000Y0056763D01*
X0058000Y0055164D02*
X0036600Y0055164D01*
X0036600Y0053566D02*
X0058000Y0053566D01*
X0058000Y0051000D02*
X0058000Y0044563D01*
X0058123Y0044105D01*
X0058360Y0043695D01*
X0058695Y0043360D01*
X0059105Y0043123D01*
X0059563Y0043000D01*
X0066000Y0043000D01*
X0066000Y0051000D01*
X0067600Y0051000D01*
X0067600Y0052600D01*
X0075600Y0052600D01*
X0075600Y0059037D01*
X0075477Y0059495D01*
X0075240Y0059905D01*
X0074905Y0060240D01*
X0074495Y0060477D01*
X0074037Y0060600D01*
X0067600Y0060600D01*
X0067600Y0052600D01*
X0066000Y0052600D01*
X0066000Y0051000D01*
X0058000Y0051000D01*
X0058000Y0050369D02*
X0036600Y0050369D01*
X0036600Y0051967D02*
X0066000Y0051967D01*
X0066000Y0050369D02*
X0067600Y0050369D01*
X0067600Y0051000D02*
X0067600Y0043000D01*
X0074037Y0043000D01*
X0074495Y0043123D01*
X0074905Y0043360D01*
X0075240Y0043695D01*
X0075477Y0044105D01*
X0075600Y0044563D01*
X0075600Y0051000D01*
X0067600Y0051000D01*
X0067600Y0051967D02*
X0106100Y0051967D01*
X0106100Y0052500D02*
X0106100Y0051100D01*
X0107500Y0051100D01*
X0107500Y0052500D01*
X0113100Y0052500D01*
X0113100Y0056537D01*
X0112977Y0056995D01*
X0112740Y0057405D01*
X0112405Y0057740D01*
X0111995Y0057977D01*
X0111537Y0058100D01*
X0107500Y0058100D01*
X0107500Y0052500D01*
X0106100Y0052500D01*
X0106100Y0058100D01*
X0102063Y0058100D01*
X0101605Y0057977D01*
X0101195Y0057740D01*
X0100860Y0057405D01*
X0100623Y0056995D01*
X0100500Y0056537D01*
X0100500Y0052500D01*
X0106100Y0052500D01*
X0106100Y0053566D02*
X0107500Y0053566D01*
X0107500Y0055164D02*
X0106100Y0055164D01*
X0106100Y0056763D02*
X0107500Y0056763D01*
X0107500Y0051967D02*
X0186000Y0051967D01*
X0186000Y0050369D02*
X0187600Y0050369D01*
X0187600Y0051967D02*
X0226100Y0051967D01*
X0226100Y0051100D02*
X0220500Y0051100D01*
X0220500Y0047063D01*
X0220623Y0046605D01*
X0220860Y0046195D01*
X0221195Y0045860D01*
X0221605Y0045623D01*
X0222063Y0045500D01*
X0226100Y0045500D01*
X0226100Y0051100D01*
X0226100Y0050369D02*
X0227500Y0050369D01*
X0227500Y0051967D02*
X0306000Y0051967D01*
X0306000Y0050369D02*
X0307600Y0050369D01*
X0307600Y0051000D02*
X0307600Y0043000D01*
X0314037Y0043000D01*
X0314495Y0043123D01*
X0314905Y0043360D01*
X0315240Y0043695D01*
X0315477Y0044105D01*
X0315600Y0044563D01*
X0315600Y0051000D01*
X0307600Y0051000D01*
X0307600Y0051967D02*
X0346100Y0051967D01*
X0346100Y0052500D02*
X0346100Y0051100D01*
X0347500Y0051100D01*
X0347500Y0052500D01*
X0353100Y0052500D01*
X0353100Y0056537D01*
X0352977Y0056995D01*
X0352740Y0057405D01*
X0352405Y0057740D01*
X0351995Y0057977D01*
X0351537Y0058100D01*
X0347500Y0058100D01*
X0347500Y0052500D01*
X0346100Y0052500D01*
X0346100Y0058100D01*
X0342063Y0058100D01*
X0341605Y0057977D01*
X0341195Y0057740D01*
X0340860Y0057405D01*
X0340623Y0056995D01*
X0340500Y0056537D01*
X0340500Y0052500D01*
X0346100Y0052500D01*
X0346100Y0053566D02*
X0347500Y0053566D01*
X0347500Y0055164D02*
X0346100Y0055164D01*
X0346100Y0056763D02*
X0347500Y0056763D01*
X0347500Y0051967D02*
X0376921Y0051967D01*
X0376921Y0050369D02*
X0353100Y0050369D01*
X0353100Y0051100D02*
X0347500Y0051100D01*
X0347500Y0045500D01*
X0351537Y0045500D01*
X0351995Y0045623D01*
X0352405Y0045860D01*
X0352740Y0046195D01*
X0352977Y0046605D01*
X0353100Y0047063D01*
X0353100Y0051100D01*
X0353100Y0048770D02*
X0376921Y0048770D01*
X0376921Y0047172D02*
X0353100Y0047172D01*
X0351810Y0045573D02*
X0376921Y0045573D01*
X0376921Y0043975D02*
X0335600Y0043975D01*
X0335600Y0044037D02*
X0335477Y0044495D01*
X0335240Y0044905D01*
X0334905Y0045240D01*
X0334495Y0045477D01*
X0334037Y0045600D01*
X0327600Y0045600D01*
X0327600Y0037600D01*
X0335600Y0037600D01*
X0335600Y0044037D01*
X0335600Y0042376D02*
X0376921Y0042376D01*
X0376921Y0040778D02*
X0335600Y0040778D01*
X0335600Y0039179D02*
X0376921Y0039179D01*
X0376921Y0037581D02*
X0327600Y0037581D01*
X0327600Y0036000D02*
X0335600Y0036000D01*
X0335600Y0029563D01*
X0335477Y0029105D01*
X0335240Y0028695D01*
X0334905Y0028360D01*
X0334495Y0028123D01*
X0334037Y0028000D01*
X0327600Y0028000D01*
X0327600Y0036000D01*
X0327600Y0035982D02*
X0326000Y0035982D01*
X0326000Y0034384D02*
X0327600Y0034384D01*
X0327600Y0032785D02*
X0326000Y0032785D01*
X0326000Y0031187D02*
X0327600Y0031187D01*
X0327600Y0029588D02*
X0326000Y0029588D01*
X0326000Y0037581D02*
X0207600Y0037581D01*
X0207600Y0039179D02*
X0206000Y0039179D01*
X0206000Y0037581D02*
X0087600Y0037581D01*
X0087600Y0037600D02*
X0095600Y0037600D01*
X0095600Y0044037D01*
X0095477Y0044495D01*
X0095240Y0044905D01*
X0094905Y0045240D01*
X0094495Y0045477D01*
X0094037Y0045600D01*
X0087600Y0045600D01*
X0087600Y0037600D01*
X0086000Y0037600D01*
X0086000Y0045600D01*
X0079563Y0045600D01*
X0079105Y0045477D01*
X0078695Y0045240D01*
X0078360Y0044905D01*
X0078123Y0044495D01*
X0078000Y0044037D01*
X0078000Y0037600D01*
X0086000Y0037600D01*
X0086000Y0036000D01*
X0087600Y0036000D01*
X0087600Y0037600D01*
X0087600Y0039179D02*
X0086000Y0039179D01*
X0086000Y0037581D02*
X0036600Y0037581D01*
X0036600Y0039179D02*
X0078000Y0039179D01*
X0078000Y0040778D02*
X0036600Y0040778D01*
X0036600Y0042376D02*
X0078000Y0042376D01*
X0078000Y0043975D02*
X0075402Y0043975D01*
X0075600Y0045573D02*
X0079463Y0045573D01*
X0075600Y0047172D02*
X0100500Y0047172D01*
X0100500Y0047063D02*
X0100623Y0046605D01*
X0100860Y0046195D01*
X0101195Y0045860D01*
X0101605Y0045623D01*
X0102063Y0045500D01*
X0106100Y0045500D01*
X0106100Y0051100D01*
X0100500Y0051100D01*
X0100500Y0047063D01*
X0100500Y0048770D02*
X0075600Y0048770D01*
X0075600Y0050369D02*
X0100500Y0050369D01*
X0100500Y0053566D02*
X0075600Y0053566D01*
X0075600Y0055164D02*
X0100500Y0055164D01*
X0100561Y0056763D02*
X0075600Y0056763D01*
X0075600Y0058361D02*
X0178000Y0058361D01*
X0178000Y0056763D02*
X0113039Y0056763D01*
X0113100Y0055164D02*
X0178000Y0055164D01*
X0178000Y0053566D02*
X0113100Y0053566D01*
X0113100Y0051100D02*
X0107500Y0051100D01*
X0107500Y0045500D01*
X0111537Y0045500D01*
X0111995Y0045623D01*
X0112405Y0045860D01*
X0112740Y0046195D01*
X0112977Y0046605D01*
X0113100Y0047063D01*
X0113100Y0051100D01*
X0113100Y0050369D02*
X0178000Y0050369D01*
X0178000Y0048770D02*
X0113100Y0048770D01*
X0113100Y0047172D02*
X0178000Y0047172D01*
X0178000Y0045573D02*
X0111810Y0045573D01*
X0107500Y0045573D02*
X0106100Y0045573D01*
X0106100Y0047172D02*
X0107500Y0047172D01*
X0107500Y0048770D02*
X0106100Y0048770D01*
X0106100Y0050369D02*
X0107500Y0050369D01*
X0101790Y0045573D02*
X0094137Y0045573D01*
X0095600Y0043975D02*
X0178198Y0043975D01*
X0186000Y0043975D02*
X0187600Y0043975D01*
X0187600Y0045573D02*
X0186000Y0045573D01*
X0186000Y0047172D02*
X0187600Y0047172D01*
X0187600Y0048770D02*
X0186000Y0048770D01*
X0186000Y0053566D02*
X0187600Y0053566D01*
X0187600Y0055164D02*
X0186000Y0055164D01*
X0186000Y0056763D02*
X0187600Y0056763D01*
X0187600Y0058361D02*
X0186000Y0058361D01*
X0186000Y0059960D02*
X0187600Y0059960D01*
X0195600Y0056763D02*
X0220561Y0056763D01*
X0220500Y0055164D02*
X0195600Y0055164D01*
X0195600Y0053566D02*
X0220500Y0053566D01*
X0220500Y0050369D02*
X0195600Y0050369D01*
X0195600Y0048770D02*
X0220500Y0048770D01*
X0220500Y0047172D02*
X0195600Y0047172D01*
X0195600Y0045573D02*
X0199463Y0045573D01*
X0198000Y0043975D02*
X0195402Y0043975D01*
X0198000Y0042376D02*
X0095600Y0042376D01*
X0095600Y0040778D02*
X0198000Y0040778D01*
X0198000Y0039179D02*
X0095600Y0039179D01*
X0095600Y0036000D02*
X0087600Y0036000D01*
X0087600Y0028000D01*
X0094037Y0028000D01*
X0094495Y0028123D01*
X0094905Y0028360D01*
X0095240Y0028695D01*
X0095477Y0029105D01*
X0095600Y0029563D01*
X0095600Y0036000D01*
X0095600Y0035982D02*
X0198000Y0035982D01*
X0198000Y0034384D02*
X0095600Y0034384D01*
X0095600Y0032785D02*
X0198000Y0032785D01*
X0198000Y0031187D02*
X0095600Y0031187D01*
X0095600Y0029588D02*
X0114524Y0029588D01*
X0113417Y0027990D02*
X0036600Y0027990D01*
X0036600Y0029588D02*
X0078000Y0029588D01*
X0078000Y0029563D02*
X0078123Y0029105D01*
X0078360Y0028695D01*
X0078695Y0028360D01*
X0079105Y0028123D01*
X0079563Y0028000D01*
X0086000Y0028000D01*
X0086000Y0036000D01*
X0078000Y0036000D01*
X0078000Y0029563D01*
X0078000Y0031187D02*
X0036600Y0031187D01*
X0036600Y0032785D02*
X0078000Y0032785D01*
X0078000Y0034384D02*
X0036600Y0034384D01*
X0036600Y0035982D02*
X0078000Y0035982D01*
X0086000Y0035982D02*
X0087600Y0035982D01*
X0087600Y0034384D02*
X0086000Y0034384D01*
X0086000Y0032785D02*
X0087600Y0032785D01*
X0087600Y0031187D02*
X0086000Y0031187D01*
X0086000Y0029588D02*
X0087600Y0029588D01*
X0087600Y0040778D02*
X0086000Y0040778D01*
X0086000Y0042376D02*
X0087600Y0042376D01*
X0087600Y0043975D02*
X0086000Y0043975D01*
X0086000Y0045573D02*
X0087600Y0045573D01*
X0094463Y0063200D02*
X0079137Y0063200D01*
X0078200Y0064137D01*
X0078200Y0069400D01*
X0059464Y0069400D01*
X0058829Y0068764D01*
X0057512Y0068219D01*
X0056088Y0068219D01*
X0054771Y0068764D01*
X0053764Y0069771D01*
X0053219Y0071088D01*
X0053219Y0072512D01*
X0053764Y0073829D01*
X0054771Y0074836D01*
X0056088Y0075381D01*
X0057512Y0075381D01*
X0058829Y0074836D01*
X0059464Y0074200D01*
X0078200Y0074200D01*
X0078200Y0079463D01*
X0079137Y0080400D01*
X0094463Y0080400D01*
X0095400Y0079463D01*
X0095400Y0074200D01*
X0114136Y0074200D01*
X0114771Y0074836D01*
X0116088Y0075381D01*
X0117512Y0075381D01*
X0118829Y0074836D01*
X0119836Y0073829D01*
X0120381Y0072512D01*
X0120381Y0071088D01*
X0119836Y0069771D01*
X0118829Y0068764D01*
X0117512Y0068219D01*
X0116088Y0068219D01*
X0114771Y0068764D01*
X0114136Y0069400D01*
X0095400Y0069400D01*
X0095400Y0064137D01*
X0094463Y0063200D01*
X0095400Y0064755D02*
X0198200Y0064755D01*
X0198200Y0064137D02*
X0199137Y0063200D01*
X0214463Y0063200D01*
X0215400Y0064137D01*
X0215400Y0069400D01*
X0274136Y0069400D01*
X0274771Y0068764D01*
X0276088Y0068219D01*
X0277512Y0068219D01*
X0278829Y0068764D01*
X0279836Y0069771D01*
X0280381Y0071088D01*
X0280381Y0072512D01*
X0279836Y0073829D01*
X0278829Y0074836D01*
X0277512Y0075381D01*
X0276088Y0075381D01*
X0274771Y0074836D01*
X0274136Y0074200D01*
X0215400Y0074200D01*
X0215400Y0079400D01*
X0249136Y0079400D01*
X0249771Y0078764D01*
X0251088Y0078219D01*
X0252512Y0078219D01*
X0253829Y0078764D01*
X0254836Y0079771D01*
X0255381Y0081088D01*
X0255381Y0082512D01*
X0254836Y0083829D01*
X0253829Y0084836D01*
X0252512Y0085381D01*
X0251088Y0085381D01*
X0249771Y0084836D01*
X0249136Y0084200D01*
X0222840Y0084200D01*
X0223386Y0084426D01*
X0224174Y0085214D01*
X0227960Y0089000D01*
X0269536Y0089000D01*
X0269771Y0088764D01*
X0271088Y0088219D01*
X0272512Y0088219D01*
X0273829Y0088764D01*
X0274836Y0089771D01*
X0275381Y0091088D01*
X0275381Y0092512D01*
X0274836Y0093829D01*
X0273829Y0094836D01*
X0272512Y0095381D01*
X0271088Y0095381D01*
X0269771Y0094836D01*
X0269536Y0094600D01*
X0226243Y0094600D01*
X0225214Y0094174D01*
X0220640Y0089600D01*
X0215600Y0089600D01*
X0215600Y0096000D01*
X0207600Y0096000D01*
X0207600Y0097600D01*
X0206000Y0097600D01*
X0206000Y0105600D01*
X0199563Y0105600D01*
X0199105Y0105477D01*
X0198695Y0105240D01*
X0198360Y0104905D01*
X0198123Y0104495D01*
X0198000Y0104037D01*
X0198000Y0097600D01*
X0206000Y0097600D01*
X0206000Y0096000D01*
X0198000Y0096000D01*
X0198000Y0089600D01*
X0177960Y0089600D01*
X0175381Y0092179D01*
X0175381Y0092512D01*
X0174836Y0093829D01*
X0173829Y0094836D01*
X0172512Y0095381D01*
X0171088Y0095381D01*
X0169771Y0094836D01*
X0168764Y0093829D01*
X0168219Y0092512D01*
X0168219Y0091088D01*
X0168764Y0089771D01*
X0169771Y0088764D01*
X0171088Y0088219D01*
X0171421Y0088219D01*
X0174426Y0085214D01*
X0175214Y0084426D01*
X0175760Y0084200D01*
X0134464Y0084200D01*
X0133829Y0084836D01*
X0132512Y0085381D01*
X0131088Y0085381D01*
X0129771Y0084836D01*
X0128764Y0083829D01*
X0128219Y0082512D01*
X0128219Y0081088D01*
X0128764Y0079771D01*
X0129771Y0078764D01*
X0131088Y0078219D01*
X0132512Y0078219D01*
X0133829Y0078764D01*
X0134464Y0079400D01*
X0198200Y0079400D01*
X0198200Y0074200D01*
X0174464Y0074200D01*
X0173829Y0074836D01*
X0172512Y0075381D01*
X0171088Y0075381D01*
X0169771Y0074836D01*
X0168764Y0073829D01*
X0168219Y0072512D01*
X0168219Y0071088D01*
X0168764Y0069771D01*
X0169771Y0068764D01*
X0171088Y0068219D01*
X0172512Y0068219D01*
X0173829Y0068764D01*
X0174464Y0069400D01*
X0198200Y0069400D01*
X0198200Y0064137D01*
X0198200Y0066354D02*
X0095400Y0066354D01*
X0095400Y0067952D02*
X0198200Y0067952D01*
X0198200Y0074346D02*
X0174318Y0074346D01*
X0171800Y0071800D02*
X0206800Y0071800D01*
X0276800Y0071800D01*
X0274282Y0074346D02*
X0215400Y0074346D01*
X0215400Y0075945D02*
X0318200Y0075945D01*
X0318200Y0077543D02*
X0215400Y0077543D01*
X0215400Y0079142D02*
X0249394Y0079142D01*
X0251800Y0081800D02*
X0131800Y0081800D01*
X0134206Y0079142D02*
X0198200Y0079142D01*
X0198200Y0077543D02*
X0095400Y0077543D01*
X0095400Y0075945D02*
X0198200Y0075945D01*
X0198000Y0090332D02*
X0177228Y0090332D01*
X0175630Y0091930D02*
X0198000Y0091930D01*
X0198000Y0093529D02*
X0174960Y0093529D01*
X0173126Y0095127D02*
X0198000Y0095127D01*
X0198000Y0098324D02*
X0095600Y0098324D01*
X0095600Y0097600D02*
X0095600Y0104037D01*
X0095477Y0104495D01*
X0095240Y0104905D01*
X0094905Y0105240D01*
X0094495Y0105477D01*
X0094037Y0105600D01*
X0087600Y0105600D01*
X0087600Y0097600D01*
X0086000Y0097600D01*
X0086000Y0105600D01*
X0079563Y0105600D01*
X0079105Y0105477D01*
X0078695Y0105240D01*
X0078360Y0104905D01*
X0078123Y0104495D01*
X0078000Y0104037D01*
X0078000Y0097600D01*
X0086000Y0097600D01*
X0086000Y0096000D01*
X0087600Y0096000D01*
X0087600Y0097600D01*
X0095600Y0097600D01*
X0095600Y0096000D02*
X0087600Y0096000D01*
X0087600Y0088000D01*
X0094037Y0088000D01*
X0094495Y0088123D01*
X0094905Y0088360D01*
X0095240Y0088695D01*
X0095477Y0089105D01*
X0095600Y0089563D01*
X0095600Y0096000D01*
X0095600Y0095127D02*
X0170474Y0095127D01*
X0168640Y0093529D02*
X0095600Y0093529D01*
X0095600Y0091930D02*
X0168219Y0091930D01*
X0168532Y0090332D02*
X0095600Y0090332D01*
X0095262Y0088733D02*
X0169846Y0088733D01*
X0172506Y0087134D02*
X0036600Y0087134D01*
X0036600Y0085536D02*
X0174104Y0085536D01*
X0169282Y0074346D02*
X0119318Y0074346D01*
X0120284Y0072748D02*
X0168316Y0072748D01*
X0168219Y0071149D02*
X0120381Y0071149D01*
X0119615Y0069551D02*
X0168985Y0069551D01*
X0178414Y0059960D02*
X0075186Y0059960D01*
X0078200Y0064755D02*
X0036600Y0064755D01*
X0036600Y0063157D02*
X0233486Y0063157D01*
X0234691Y0064755D02*
X0215400Y0064755D01*
X0215400Y0066354D02*
X0318200Y0066354D01*
X0318200Y0067952D02*
X0215400Y0067952D01*
X0226100Y0056763D02*
X0227500Y0056763D01*
X0227500Y0055164D02*
X0226100Y0055164D01*
X0226100Y0053566D02*
X0227500Y0053566D01*
X0227500Y0048770D02*
X0226100Y0048770D01*
X0226100Y0047172D02*
X0227500Y0047172D01*
X0227500Y0045573D02*
X0226100Y0045573D01*
X0221790Y0045573D02*
X0214137Y0045573D01*
X0207600Y0045573D02*
X0206000Y0045573D01*
X0206000Y0043975D02*
X0207600Y0043975D01*
X0207600Y0042376D02*
X0206000Y0042376D01*
X0206000Y0040778D02*
X0207600Y0040778D01*
X0215600Y0029588D02*
X0264524Y0029588D01*
X0266800Y0026800D02*
X0116800Y0026800D01*
X0119076Y0029588D02*
X0198000Y0029588D01*
X0237856Y0058361D02*
X0270744Y0058361D01*
X0272856Y0058361D02*
X0298000Y0058361D01*
X0298414Y0059960D02*
X0274914Y0059960D01*
X0275381Y0061558D02*
X0376921Y0061558D01*
X0376921Y0059960D02*
X0315186Y0059960D01*
X0315600Y0058361D02*
X0376921Y0058361D01*
X0376921Y0056763D02*
X0353039Y0056763D01*
X0353100Y0055164D02*
X0376921Y0055164D01*
X0376921Y0053566D02*
X0353100Y0053566D01*
X0347500Y0050369D02*
X0346100Y0050369D01*
X0346100Y0051100D02*
X0346100Y0045500D01*
X0342063Y0045500D01*
X0341605Y0045623D01*
X0341195Y0045860D01*
X0340860Y0046195D01*
X0340623Y0046605D01*
X0340500Y0047063D01*
X0340500Y0051100D01*
X0346100Y0051100D01*
X0346100Y0048770D02*
X0347500Y0048770D01*
X0347500Y0047172D02*
X0346100Y0047172D01*
X0346100Y0045573D02*
X0347500Y0045573D01*
X0341790Y0045573D02*
X0334137Y0045573D01*
X0327600Y0045573D02*
X0326000Y0045573D01*
X0326000Y0043975D02*
X0327600Y0043975D01*
X0327600Y0042376D02*
X0326000Y0042376D01*
X0326000Y0040778D02*
X0327600Y0040778D01*
X0327600Y0039179D02*
X0326000Y0039179D01*
X0319463Y0045573D02*
X0315600Y0045573D01*
X0315600Y0047172D02*
X0340500Y0047172D01*
X0340500Y0048770D02*
X0315600Y0048770D01*
X0315600Y0050369D02*
X0340500Y0050369D01*
X0340500Y0053566D02*
X0315600Y0053566D01*
X0315600Y0055164D02*
X0340500Y0055164D01*
X0340561Y0056763D02*
X0315600Y0056763D01*
X0319137Y0063200D02*
X0334463Y0063200D01*
X0335400Y0064137D01*
X0335400Y0069400D01*
X0354136Y0069400D01*
X0354771Y0068764D01*
X0356088Y0068219D01*
X0357512Y0068219D01*
X0358829Y0068764D01*
X0359836Y0069771D01*
X0360381Y0071088D01*
X0360381Y0072512D01*
X0359836Y0073829D01*
X0358829Y0074836D01*
X0357512Y0075381D01*
X0356088Y0075381D01*
X0354771Y0074836D01*
X0354136Y0074200D01*
X0335400Y0074200D01*
X0335400Y0079463D01*
X0334463Y0080400D01*
X0319137Y0080400D01*
X0318200Y0079463D01*
X0318200Y0064137D01*
X0319137Y0063200D01*
X0318200Y0064755D02*
X0273909Y0064755D01*
X0275114Y0063157D02*
X0376921Y0063157D01*
X0376921Y0064755D02*
X0335400Y0064755D01*
X0335400Y0066354D02*
X0376921Y0066354D01*
X0376921Y0067952D02*
X0335400Y0067952D01*
X0335400Y0074346D02*
X0354282Y0074346D01*
X0356800Y0071800D02*
X0326800Y0071800D01*
X0335400Y0075945D02*
X0376921Y0075945D01*
X0376921Y0077543D02*
X0335400Y0077543D01*
X0335400Y0079142D02*
X0376921Y0079142D01*
X0376921Y0080740D02*
X0255237Y0080740D01*
X0255381Y0082339D02*
X0376921Y0082339D01*
X0376921Y0083937D02*
X0254727Y0083937D01*
X0254206Y0079142D02*
X0318200Y0079142D01*
X0318200Y0074346D02*
X0299318Y0074346D01*
X0298829Y0074836D02*
X0299836Y0073829D01*
X0300381Y0072512D01*
X0300381Y0071088D01*
X0299836Y0069771D01*
X0298829Y0068764D01*
X0297512Y0068219D01*
X0296088Y0068219D01*
X0294771Y0068764D01*
X0294136Y0069400D01*
X0289464Y0069400D01*
X0288829Y0068764D01*
X0287512Y0068219D01*
X0286088Y0068219D01*
X0284771Y0068764D01*
X0283764Y0069771D01*
X0283219Y0071088D01*
X0283219Y0072512D01*
X0283764Y0073829D01*
X0284771Y0074836D01*
X0286088Y0075381D01*
X0287512Y0075381D01*
X0288829Y0074836D01*
X0289464Y0074200D01*
X0294136Y0074200D01*
X0294771Y0074836D01*
X0296088Y0075381D01*
X0297512Y0075381D01*
X0298829Y0074836D01*
X0300284Y0072748D02*
X0318200Y0072748D01*
X0318200Y0071149D02*
X0300381Y0071149D01*
X0299615Y0069551D02*
X0318200Y0069551D01*
X0307600Y0059960D02*
X0306000Y0059960D01*
X0306000Y0058361D02*
X0307600Y0058361D01*
X0307600Y0056763D02*
X0306000Y0056763D01*
X0306000Y0055164D02*
X0307600Y0055164D01*
X0307600Y0053566D02*
X0306000Y0053566D01*
X0306000Y0048770D02*
X0307600Y0048770D01*
X0307600Y0047172D02*
X0306000Y0047172D01*
X0306000Y0045573D02*
X0307600Y0045573D01*
X0307600Y0043975D02*
X0306000Y0043975D01*
X0315402Y0043975D02*
X0318000Y0043975D01*
X0335600Y0035982D02*
X0376921Y0035982D01*
X0376921Y0034384D02*
X0335600Y0034384D01*
X0335600Y0032785D02*
X0376921Y0032785D01*
X0376921Y0031187D02*
X0335600Y0031187D01*
X0335600Y0029588D02*
X0376921Y0029588D01*
X0376921Y0069551D02*
X0359615Y0069551D01*
X0360381Y0071149D02*
X0376921Y0071149D01*
X0376921Y0072748D02*
X0360284Y0072748D01*
X0359318Y0074346D02*
X0376921Y0074346D01*
X0376921Y0085536D02*
X0224496Y0085536D01*
X0224174Y0085214D02*
X0224174Y0085214D01*
X0226094Y0087134D02*
X0376921Y0087134D01*
X0376921Y0088733D02*
X0335262Y0088733D01*
X0335240Y0088695D02*
X0335477Y0089105D01*
X0335600Y0089563D01*
X0335600Y0096000D01*
X0327600Y0096000D01*
X0327600Y0097600D01*
X0326000Y0097600D01*
X0326000Y0105600D01*
X0319563Y0105600D01*
X0319105Y0105477D01*
X0318695Y0105240D01*
X0318360Y0104905D01*
X0318123Y0104495D01*
X0318000Y0104037D01*
X0318000Y0097600D01*
X0326000Y0097600D01*
X0326000Y0096000D01*
X0327600Y0096000D01*
X0327600Y0088000D01*
X0334037Y0088000D01*
X0334495Y0088123D01*
X0334905Y0088360D01*
X0335240Y0088695D01*
X0335600Y0090332D02*
X0376921Y0090332D01*
X0376921Y0091930D02*
X0335600Y0091930D01*
X0335600Y0093529D02*
X0376921Y0093529D01*
X0376921Y0095127D02*
X0335600Y0095127D01*
X0335600Y0097600D02*
X0335600Y0104037D01*
X0335477Y0104495D01*
X0335240Y0104905D01*
X0334905Y0105240D01*
X0334495Y0105477D01*
X0334037Y0105600D01*
X0327600Y0105600D01*
X0327600Y0097600D01*
X0335600Y0097600D01*
X0335600Y0098324D02*
X0376921Y0098324D01*
X0376921Y0096726D02*
X0327600Y0096726D01*
X0327600Y0098324D02*
X0326000Y0098324D01*
X0326000Y0096726D02*
X0207600Y0096726D01*
X0207600Y0097600D02*
X0215600Y0097600D01*
X0215600Y0104037D01*
X0215477Y0104495D01*
X0215240Y0104905D01*
X0214905Y0105240D01*
X0214495Y0105477D01*
X0214037Y0105600D01*
X0207600Y0105600D01*
X0207600Y0097600D01*
X0207600Y0098324D02*
X0206000Y0098324D01*
X0206000Y0096726D02*
X0087600Y0096726D01*
X0087600Y0098324D02*
X0086000Y0098324D01*
X0086000Y0096726D02*
X0036600Y0096726D01*
X0036600Y0098324D02*
X0078000Y0098324D01*
X0078000Y0099923D02*
X0036600Y0099923D01*
X0036600Y0101521D02*
X0078000Y0101521D01*
X0078000Y0103120D02*
X0074483Y0103120D01*
X0074495Y0103123D02*
X0074905Y0103360D01*
X0075240Y0103695D01*
X0075477Y0104105D01*
X0075600Y0104563D01*
X0075600Y0111000D01*
X0067600Y0111000D01*
X0067600Y0112600D01*
X0075600Y0112600D01*
X0075600Y0119037D01*
X0075477Y0119495D01*
X0075240Y0119905D01*
X0074905Y0120240D01*
X0074495Y0120477D01*
X0074037Y0120600D01*
X0067600Y0120600D01*
X0067600Y0112600D01*
X0066000Y0112600D01*
X0066000Y0120600D01*
X0059563Y0120600D01*
X0059105Y0120477D01*
X0058695Y0120240D01*
X0058360Y0119905D01*
X0058123Y0119495D01*
X0058000Y0119037D01*
X0058000Y0112600D01*
X0066000Y0112600D01*
X0066000Y0111000D01*
X0067600Y0111000D01*
X0067600Y0103000D01*
X0074037Y0103000D01*
X0074495Y0103123D01*
X0075600Y0104718D02*
X0078252Y0104718D01*
X0075600Y0106317D02*
X0100789Y0106317D01*
X0100860Y0106195D02*
X0101195Y0105860D01*
X0101605Y0105623D01*
X0102063Y0105500D01*
X0106100Y0105500D01*
X0106100Y0111100D01*
X0107500Y0111100D01*
X0107500Y0112500D01*
X0113100Y0112500D01*
X0113100Y0116537D01*
X0112977Y0116995D01*
X0112740Y0117405D01*
X0112405Y0117740D01*
X0111995Y0117977D01*
X0111537Y0118100D01*
X0107500Y0118100D01*
X0107500Y0112500D01*
X0106100Y0112500D01*
X0106100Y0118100D01*
X0102063Y0118100D01*
X0101605Y0117977D01*
X0101195Y0117740D01*
X0100860Y0117405D01*
X0100623Y0116995D01*
X0100500Y0116537D01*
X0100500Y0112500D01*
X0106100Y0112500D01*
X0106100Y0111100D01*
X0100500Y0111100D01*
X0100500Y0107063D01*
X0100623Y0106605D01*
X0100860Y0106195D01*
X0100500Y0107915D02*
X0075600Y0107915D01*
X0075600Y0109514D02*
X0100500Y0109514D01*
X0100500Y0112711D02*
X0075600Y0112711D01*
X0075600Y0114309D02*
X0100500Y0114309D01*
X0100500Y0115908D02*
X0075600Y0115908D01*
X0075600Y0117506D02*
X0100961Y0117506D01*
X0106100Y0117506D02*
X0107500Y0117506D01*
X0107500Y0115908D02*
X0106100Y0115908D01*
X0106100Y0114309D02*
X0107500Y0114309D01*
X0107500Y0112711D02*
X0106100Y0112711D01*
X0106100Y0111112D02*
X0067600Y0111112D01*
X0067600Y0109514D02*
X0066000Y0109514D01*
X0066000Y0111000D02*
X0066000Y0103000D01*
X0059563Y0103000D01*
X0059105Y0103123D01*
X0058695Y0103360D01*
X0058360Y0103695D01*
X0058123Y0104105D01*
X0058000Y0104563D01*
X0058000Y0111000D01*
X0066000Y0111000D01*
X0066000Y0111112D02*
X0036600Y0111112D01*
X0036600Y0109514D02*
X0058000Y0109514D01*
X0058000Y0107915D02*
X0036600Y0107915D01*
X0036600Y0106317D02*
X0058000Y0106317D01*
X0058000Y0104718D02*
X0036600Y0104718D01*
X0036600Y0103120D02*
X0059117Y0103120D01*
X0066000Y0103120D02*
X0067600Y0103120D01*
X0067600Y0104718D02*
X0066000Y0104718D01*
X0066000Y0106317D02*
X0067600Y0106317D01*
X0067600Y0107915D02*
X0066000Y0107915D01*
X0066000Y0112711D02*
X0067600Y0112711D01*
X0067600Y0114309D02*
X0066000Y0114309D01*
X0066000Y0115908D02*
X0067600Y0115908D01*
X0067600Y0117506D02*
X0066000Y0117506D01*
X0066000Y0119105D02*
X0067600Y0119105D01*
X0075582Y0119105D02*
X0178018Y0119105D01*
X0178000Y0119037D02*
X0178000Y0112600D01*
X0186000Y0112600D01*
X0186000Y0120600D01*
X0179563Y0120600D01*
X0179105Y0120477D01*
X0178695Y0120240D01*
X0178360Y0119905D01*
X0178123Y0119495D01*
X0178000Y0119037D01*
X0178000Y0117506D02*
X0112639Y0117506D01*
X0113100Y0115908D02*
X0178000Y0115908D01*
X0178000Y0114309D02*
X0113100Y0114309D01*
X0113100Y0112711D02*
X0178000Y0112711D01*
X0178000Y0111000D02*
X0178000Y0104563D01*
X0178123Y0104105D01*
X0178360Y0103695D01*
X0178695Y0103360D01*
X0179105Y0103123D01*
X0179563Y0103000D01*
X0186000Y0103000D01*
X0186000Y0111000D01*
X0187600Y0111000D01*
X0187600Y0112600D01*
X0195600Y0112600D01*
X0195600Y0119037D01*
X0195477Y0119495D01*
X0195240Y0119905D01*
X0194905Y0120240D01*
X0194495Y0120477D01*
X0194037Y0120600D01*
X0187600Y0120600D01*
X0187600Y0112600D01*
X0186000Y0112600D01*
X0186000Y0111000D01*
X0178000Y0111000D01*
X0178000Y0109514D02*
X0113100Y0109514D01*
X0113100Y0111100D02*
X0107500Y0111100D01*
X0107500Y0105500D01*
X0111537Y0105500D01*
X0111995Y0105623D01*
X0112405Y0105860D01*
X0112740Y0106195D01*
X0112977Y0106605D01*
X0113100Y0107063D01*
X0113100Y0111100D01*
X0113100Y0107915D02*
X0178000Y0107915D01*
X0178000Y0106317D02*
X0112811Y0106317D01*
X0107500Y0106317D02*
X0106100Y0106317D01*
X0106100Y0107915D02*
X0107500Y0107915D01*
X0107500Y0109514D02*
X0106100Y0109514D01*
X0107500Y0111112D02*
X0186000Y0111112D01*
X0186000Y0109514D02*
X0187600Y0109514D01*
X0187600Y0111000D02*
X0187600Y0103000D01*
X0194037Y0103000D01*
X0194495Y0103123D01*
X0194905Y0103360D01*
X0195240Y0103695D01*
X0195477Y0104105D01*
X0195600Y0104563D01*
X0195600Y0111000D01*
X0187600Y0111000D01*
X0187600Y0111112D02*
X0226100Y0111112D01*
X0226100Y0111100D02*
X0220500Y0111100D01*
X0220500Y0107063D01*
X0220623Y0106605D01*
X0220860Y0106195D01*
X0221195Y0105860D01*
X0221605Y0105623D01*
X0222063Y0105500D01*
X0226100Y0105500D01*
X0226100Y0111100D01*
X0227500Y0111100D01*
X0227500Y0112500D01*
X0233100Y0112500D01*
X0233100Y0116537D01*
X0232977Y0116995D01*
X0232740Y0117405D01*
X0232405Y0117740D01*
X0231995Y0117977D01*
X0231537Y0118100D01*
X0227500Y0118100D01*
X0227500Y0112500D01*
X0226100Y0112500D01*
X0226100Y0118100D01*
X0222063Y0118100D01*
X0221605Y0117977D01*
X0221195Y0117740D01*
X0220860Y0117405D01*
X0220623Y0116995D01*
X0220500Y0116537D01*
X0220500Y0112500D01*
X0226100Y0112500D01*
X0226100Y0111100D01*
X0227500Y0111100D02*
X0227500Y0105500D01*
X0231537Y0105500D01*
X0231995Y0105623D01*
X0232405Y0105860D01*
X0232740Y0106195D01*
X0232977Y0106605D01*
X0233100Y0107063D01*
X0233100Y0111100D01*
X0227500Y0111100D01*
X0227500Y0111112D02*
X0306000Y0111112D01*
X0306000Y0111000D02*
X0298000Y0111000D01*
X0298000Y0104563D01*
X0298123Y0104105D01*
X0298360Y0103695D01*
X0298695Y0103360D01*
X0299105Y0103123D01*
X0299563Y0103000D01*
X0306000Y0103000D01*
X0306000Y0111000D01*
X0307600Y0111000D01*
X0307600Y0112600D01*
X0315600Y0112600D01*
X0315600Y0119037D01*
X0315477Y0119495D01*
X0315240Y0119905D01*
X0314905Y0120240D01*
X0314495Y0120477D01*
X0314037Y0120600D01*
X0307600Y0120600D01*
X0307600Y0112600D01*
X0306000Y0112600D01*
X0306000Y0120600D01*
X0299563Y0120600D01*
X0299105Y0120477D01*
X0298695Y0120240D01*
X0298360Y0119905D01*
X0298123Y0119495D01*
X0298000Y0119037D01*
X0298000Y0112600D01*
X0306000Y0112600D01*
X0306000Y0111000D01*
X0306000Y0109514D02*
X0307600Y0109514D01*
X0307600Y0111000D02*
X0307600Y0103000D01*
X0314037Y0103000D01*
X0314495Y0103123D01*
X0314905Y0103360D01*
X0315240Y0103695D01*
X0315477Y0104105D01*
X0315600Y0104563D01*
X0315600Y0111000D01*
X0307600Y0111000D01*
X0307600Y0111112D02*
X0346100Y0111112D01*
X0346100Y0111100D02*
X0340500Y0111100D01*
X0340500Y0107063D01*
X0340623Y0106605D01*
X0340860Y0106195D01*
X0341195Y0105860D01*
X0341605Y0105623D01*
X0342063Y0105500D01*
X0346100Y0105500D01*
X0346100Y0111100D01*
X0347500Y0111100D01*
X0347500Y0112500D01*
X0353100Y0112500D01*
X0353100Y0116537D01*
X0352977Y0116995D01*
X0352740Y0117405D01*
X0352405Y0117740D01*
X0351995Y0117977D01*
X0351537Y0118100D01*
X0347500Y0118100D01*
X0347500Y0112500D01*
X0346100Y0112500D01*
X0346100Y0118100D01*
X0342063Y0118100D01*
X0341605Y0117977D01*
X0341195Y0117740D01*
X0340860Y0117405D01*
X0340623Y0116995D01*
X0340500Y0116537D01*
X0340500Y0112500D01*
X0346100Y0112500D01*
X0346100Y0111100D01*
X0347500Y0111100D02*
X0347500Y0105500D01*
X0351537Y0105500D01*
X0351995Y0105623D01*
X0352405Y0105860D01*
X0352740Y0106195D01*
X0352977Y0106605D01*
X0353100Y0107063D01*
X0353100Y0111100D01*
X0347500Y0111100D01*
X0347500Y0111112D02*
X0376921Y0111112D01*
X0376921Y0109514D02*
X0353100Y0109514D01*
X0353100Y0107915D02*
X0376921Y0107915D01*
X0376921Y0106317D02*
X0352811Y0106317D01*
X0347500Y0106317D02*
X0346100Y0106317D01*
X0346100Y0107915D02*
X0347500Y0107915D01*
X0347500Y0109514D02*
X0346100Y0109514D01*
X0346100Y0112711D02*
X0347500Y0112711D01*
X0347500Y0114309D02*
X0346100Y0114309D01*
X0346100Y0115908D02*
X0347500Y0115908D01*
X0347500Y0117506D02*
X0346100Y0117506D01*
X0352639Y0117506D02*
X0376921Y0117506D01*
X0376921Y0115908D02*
X0353100Y0115908D01*
X0353100Y0114309D02*
X0376921Y0114309D01*
X0376921Y0112711D02*
X0353100Y0112711D01*
X0340500Y0112711D02*
X0315600Y0112711D01*
X0315600Y0114309D02*
X0340500Y0114309D01*
X0340500Y0115908D02*
X0315600Y0115908D01*
X0315600Y0117506D02*
X0340961Y0117506D01*
X0340500Y0109514D02*
X0315600Y0109514D01*
X0315600Y0107915D02*
X0340500Y0107915D01*
X0340789Y0106317D02*
X0315600Y0106317D01*
X0315600Y0104718D02*
X0318252Y0104718D01*
X0318000Y0103120D02*
X0314483Y0103120D01*
X0318000Y0101521D02*
X0215600Y0101521D01*
X0215600Y0099923D02*
X0318000Y0099923D01*
X0318000Y0098324D02*
X0215600Y0098324D01*
X0215600Y0095127D02*
X0270474Y0095127D01*
X0273126Y0095127D02*
X0318000Y0095127D01*
X0318000Y0096000D02*
X0318000Y0089563D01*
X0318123Y0089105D01*
X0318360Y0088695D01*
X0318695Y0088360D01*
X0319105Y0088123D01*
X0319563Y0088000D01*
X0326000Y0088000D01*
X0326000Y0096000D01*
X0318000Y0096000D01*
X0318000Y0093529D02*
X0274960Y0093529D01*
X0275381Y0091930D02*
X0318000Y0091930D01*
X0318000Y0090332D02*
X0275068Y0090332D01*
X0273753Y0088733D02*
X0318338Y0088733D01*
X0326000Y0088733D02*
X0327600Y0088733D01*
X0327600Y0090332D02*
X0326000Y0090332D01*
X0326000Y0091930D02*
X0327600Y0091930D01*
X0327600Y0093529D02*
X0326000Y0093529D01*
X0326000Y0095127D02*
X0327600Y0095127D01*
X0327600Y0099923D02*
X0326000Y0099923D01*
X0326000Y0101521D02*
X0327600Y0101521D01*
X0327600Y0103120D02*
X0326000Y0103120D01*
X0326000Y0104718D02*
X0327600Y0104718D01*
X0335348Y0104718D02*
X0376921Y0104718D01*
X0376921Y0103120D02*
X0335600Y0103120D01*
X0335600Y0101521D02*
X0376921Y0101521D01*
X0376921Y0099923D02*
X0335600Y0099923D01*
X0334463Y0123200D02*
X0319137Y0123200D01*
X0318200Y0124137D01*
X0318200Y0139463D01*
X0319137Y0140400D01*
X0334463Y0140400D01*
X0335400Y0139463D01*
X0335400Y0124137D01*
X0334463Y0123200D01*
X0335163Y0123900D02*
X0376921Y0123900D01*
X0376921Y0122302D02*
X0036600Y0122302D01*
X0036600Y0123900D02*
X0078437Y0123900D01*
X0078200Y0124137D02*
X0079137Y0123200D01*
X0094463Y0123200D01*
X0095400Y0124137D01*
X0095400Y0129400D01*
X0177277Y0129400D01*
X0178159Y0129765D01*
X0178835Y0130441D01*
X0187794Y0139400D01*
X0198200Y0139400D01*
X0198200Y0124137D01*
X0199137Y0123200D01*
X0214463Y0123200D01*
X0215400Y0124137D01*
X0215400Y0129400D01*
X0244136Y0129400D01*
X0244771Y0128764D01*
X0246088Y0128219D01*
X0247512Y0128219D01*
X0248829Y0128764D01*
X0249464Y0129400D01*
X0264136Y0129400D01*
X0264771Y0128764D01*
X0266088Y0128219D01*
X0267512Y0128219D01*
X0268829Y0128764D01*
X0269836Y0129771D01*
X0270381Y0131088D01*
X0270381Y0132512D01*
X0269836Y0133829D01*
X0268829Y0134836D01*
X0267512Y0135381D01*
X0266088Y0135381D01*
X0264771Y0134836D01*
X0264136Y0134200D01*
X0249464Y0134200D01*
X0248829Y0134836D01*
X0247512Y0135381D01*
X0246088Y0135381D01*
X0244771Y0134836D01*
X0244136Y0134200D01*
X0215400Y0134200D01*
X0215400Y0139400D01*
X0274136Y0139400D01*
X0274771Y0138764D01*
X0276088Y0138219D01*
X0277512Y0138219D01*
X0278829Y0138764D01*
X0279836Y0139771D01*
X0280381Y0141088D01*
X0280381Y0142512D01*
X0279881Y0143719D01*
X0281088Y0143219D01*
X0282512Y0143219D01*
X0283829Y0143764D01*
X0284836Y0144771D01*
X0285381Y0146088D01*
X0285381Y0147512D01*
X0284836Y0148829D01*
X0284264Y0149400D01*
X0294336Y0149400D01*
X0293764Y0148829D01*
X0293219Y0147512D01*
X0293219Y0146088D01*
X0293764Y0144771D01*
X0294771Y0143764D01*
X0296088Y0143219D01*
X0297512Y0143219D01*
X0298829Y0143764D01*
X0299464Y0144400D01*
X0334136Y0144400D01*
X0334771Y0143764D01*
X0336088Y0143219D01*
X0337512Y0143219D01*
X0338829Y0143764D01*
X0339836Y0144771D01*
X0340381Y0146088D01*
X0340381Y0147512D01*
X0339836Y0148829D01*
X0338829Y0149836D01*
X0337512Y0150381D01*
X0336088Y0150381D01*
X0334771Y0149836D01*
X0334136Y0149200D01*
X0309264Y0149200D01*
X0309836Y0149771D01*
X0310381Y0151088D01*
X0310381Y0152512D01*
X0309836Y0153829D01*
X0309264Y0154400D01*
X0364136Y0154400D01*
X0364771Y0153764D01*
X0366088Y0153219D01*
X0367512Y0153219D01*
X0368829Y0153764D01*
X0369836Y0154771D01*
X0370381Y0156088D01*
X0370381Y0157512D01*
X0369836Y0158829D01*
X0368829Y0159836D01*
X0367512Y0160381D01*
X0366088Y0160381D01*
X0364771Y0159836D01*
X0364136Y0159200D01*
X0304264Y0159200D01*
X0304836Y0159771D01*
X0305381Y0161088D01*
X0305381Y0162512D01*
X0304836Y0163829D01*
X0304264Y0164400D01*
X0354136Y0164400D01*
X0354771Y0163764D01*
X0356088Y0163219D01*
X0357512Y0163219D01*
X0358829Y0163764D01*
X0359836Y0164771D01*
X0360381Y0166088D01*
X0360381Y0167512D01*
X0359836Y0168829D01*
X0358829Y0169836D01*
X0357512Y0170381D01*
X0356088Y0170381D01*
X0354771Y0169836D01*
X0354136Y0169200D01*
X0329264Y0169200D01*
X0329836Y0169771D01*
X0330381Y0171088D01*
X0330381Y0172512D01*
X0329836Y0173829D01*
X0328829Y0174836D01*
X0327512Y0175381D01*
X0326088Y0175381D01*
X0324771Y0174836D01*
X0324136Y0174200D01*
X0309464Y0174200D01*
X0308829Y0174836D01*
X0307512Y0175381D01*
X0306088Y0175381D01*
X0304771Y0174836D01*
X0303764Y0173829D01*
X0303219Y0172512D01*
X0303219Y0171088D01*
X0303764Y0169771D01*
X0304336Y0169200D01*
X0299464Y0169200D01*
X0298829Y0169836D01*
X0297512Y0170381D01*
X0296088Y0170381D01*
X0294771Y0169836D01*
X0293764Y0168829D01*
X0293219Y0167512D01*
X0293219Y0166088D01*
X0293764Y0164771D01*
X0294336Y0164200D01*
X0244264Y0164200D01*
X0244836Y0164771D01*
X0245381Y0166088D01*
X0245381Y0167512D01*
X0244836Y0168829D01*
X0243829Y0169836D01*
X0242512Y0170381D01*
X0241088Y0170381D01*
X0239771Y0169836D01*
X0239136Y0169200D01*
X0184464Y0169200D01*
X0183829Y0169836D01*
X0182512Y0170381D01*
X0181088Y0170381D01*
X0179881Y0169881D01*
X0180381Y0171088D01*
X0180381Y0172512D01*
X0179836Y0173829D01*
X0179264Y0174400D01*
X0189136Y0174400D01*
X0189771Y0173764D01*
X0191088Y0173219D01*
X0192512Y0173219D01*
X0193829Y0173764D01*
X0194836Y0174771D01*
X0195381Y0176088D01*
X0195381Y0177512D01*
X0194836Y0178829D01*
X0193829Y0179836D01*
X0192512Y0180381D01*
X0191088Y0180381D01*
X0189771Y0179836D01*
X0189136Y0179200D01*
X0174464Y0179200D01*
X0173829Y0179836D01*
X0172512Y0180381D01*
X0171088Y0180381D01*
X0169771Y0179836D01*
X0168764Y0178829D01*
X0168219Y0177512D01*
X0168219Y0176088D01*
X0168764Y0174771D01*
X0169336Y0174200D01*
X0129464Y0174200D01*
X0128829Y0174836D01*
X0127512Y0175381D01*
X0126088Y0175381D01*
X0124771Y0174836D01*
X0123764Y0173829D01*
X0123219Y0172512D01*
X0123219Y0171088D01*
X0123764Y0169771D01*
X0124771Y0168764D01*
X0126088Y0168219D01*
X0127512Y0168219D01*
X0128829Y0168764D01*
X0129464Y0169400D01*
X0154336Y0169400D01*
X0153764Y0168829D01*
X0153219Y0167512D01*
X0153219Y0166088D01*
X0153764Y0164771D01*
X0154236Y0164300D01*
X0153764Y0163829D01*
X0153219Y0162512D01*
X0153219Y0161088D01*
X0153764Y0159771D01*
X0154336Y0159200D01*
X0089464Y0159200D01*
X0088829Y0159836D01*
X0087512Y0160381D01*
X0086088Y0160381D01*
X0084771Y0159836D01*
X0083764Y0158829D01*
X0083219Y0157512D01*
X0083219Y0156088D01*
X0083764Y0154771D01*
X0084771Y0153764D01*
X0086088Y0153219D01*
X0087512Y0153219D01*
X0088829Y0153764D01*
X0089464Y0154400D01*
X0094336Y0154400D01*
X0093764Y0153829D01*
X0093219Y0152512D01*
X0093219Y0151088D01*
X0093764Y0149771D01*
X0094336Y0149200D01*
X0052794Y0149200D01*
X0050381Y0151613D01*
X0050381Y0152512D01*
X0049836Y0153829D01*
X0048829Y0154836D01*
X0047512Y0155381D01*
X0046088Y0155381D01*
X0044771Y0154836D01*
X0043764Y0153829D01*
X0043219Y0152512D01*
X0043219Y0151088D01*
X0043764Y0149771D01*
X0044771Y0148764D01*
X0046088Y0148219D01*
X0046987Y0148219D01*
X0050441Y0144765D01*
X0051323Y0144400D01*
X0054336Y0144400D01*
X0053764Y0143829D01*
X0053219Y0142512D01*
X0053219Y0141088D01*
X0053764Y0139771D01*
X0054771Y0138764D01*
X0056088Y0138219D01*
X0057512Y0138219D01*
X0058829Y0138764D01*
X0059464Y0139400D01*
X0078200Y0139400D01*
X0078200Y0134200D01*
X0059464Y0134200D01*
X0058829Y0134836D01*
X0057512Y0135381D01*
X0056088Y0135381D01*
X0054771Y0134836D01*
X0053764Y0133829D01*
X0053219Y0132512D01*
X0053219Y0131088D01*
X0053764Y0129771D01*
X0054771Y0128764D01*
X0056088Y0128219D01*
X0057512Y0128219D01*
X0058829Y0128764D01*
X0059464Y0129400D01*
X0078200Y0129400D01*
X0078200Y0124137D01*
X0078200Y0125499D02*
X0036600Y0125499D01*
X0036600Y0127097D02*
X0078200Y0127097D01*
X0078200Y0128696D02*
X0058664Y0128696D01*
X0056800Y0131800D02*
X0086800Y0131800D01*
X0176800Y0131800D01*
X0186800Y0141800D01*
X0276800Y0141800D01*
X0280145Y0143082D02*
X0376921Y0143082D01*
X0376921Y0141484D02*
X0280381Y0141484D01*
X0279883Y0139885D02*
X0318623Y0139885D01*
X0318200Y0138287D02*
X0277676Y0138287D01*
X0275924Y0138287D02*
X0215400Y0138287D01*
X0215400Y0136688D02*
X0318200Y0136688D01*
X0318200Y0135090D02*
X0268215Y0135090D01*
X0269976Y0133491D02*
X0318200Y0133491D01*
X0318200Y0131893D02*
X0270381Y0131893D01*
X0270052Y0130294D02*
X0318200Y0130294D01*
X0318200Y0128696D02*
X0268664Y0128696D01*
X0266800Y0131800D02*
X0251800Y0131800D01*
X0246800Y0131800D01*
X0206800Y0131800D01*
X0198200Y0131893D02*
X0180287Y0131893D01*
X0181885Y0133491D02*
X0198200Y0133491D01*
X0198200Y0135090D02*
X0183484Y0135090D01*
X0185082Y0136688D02*
X0198200Y0136688D01*
X0198200Y0138287D02*
X0186681Y0138287D01*
X0183090Y0141484D02*
X0165444Y0141484D01*
X0167042Y0143082D02*
X0184688Y0143082D01*
X0185441Y0143835D02*
X0175806Y0134200D01*
X0157840Y0134200D01*
X0158386Y0134426D01*
X0167960Y0144000D01*
X0185840Y0144000D01*
X0185441Y0143835D01*
X0181491Y0139885D02*
X0163845Y0139885D01*
X0162247Y0138287D02*
X0179893Y0138287D01*
X0178294Y0136688D02*
X0160648Y0136688D01*
X0159050Y0135090D02*
X0176696Y0135090D01*
X0178688Y0130294D02*
X0198200Y0130294D01*
X0198200Y0128696D02*
X0095400Y0128696D01*
X0095400Y0127097D02*
X0198200Y0127097D01*
X0198200Y0125499D02*
X0095400Y0125499D01*
X0095163Y0123900D02*
X0198437Y0123900D01*
X0195582Y0119105D02*
X0298018Y0119105D01*
X0298000Y0117506D02*
X0232639Y0117506D01*
X0233100Y0115908D02*
X0298000Y0115908D01*
X0298000Y0114309D02*
X0233100Y0114309D01*
X0233100Y0112711D02*
X0298000Y0112711D01*
X0298000Y0109514D02*
X0233100Y0109514D01*
X0233100Y0107915D02*
X0298000Y0107915D01*
X0298000Y0106317D02*
X0232811Y0106317D01*
X0227500Y0106317D02*
X0226100Y0106317D01*
X0226100Y0107915D02*
X0227500Y0107915D01*
X0227500Y0109514D02*
X0226100Y0109514D01*
X0226100Y0112711D02*
X0227500Y0112711D01*
X0227500Y0114309D02*
X0226100Y0114309D01*
X0226100Y0115908D02*
X0227500Y0115908D01*
X0227500Y0117506D02*
X0226100Y0117506D01*
X0220961Y0117506D02*
X0195600Y0117506D01*
X0195600Y0115908D02*
X0220500Y0115908D01*
X0220500Y0114309D02*
X0195600Y0114309D01*
X0195600Y0112711D02*
X0220500Y0112711D01*
X0220500Y0109514D02*
X0195600Y0109514D01*
X0195600Y0107915D02*
X0220500Y0107915D01*
X0220789Y0106317D02*
X0195600Y0106317D01*
X0195600Y0104718D02*
X0198252Y0104718D01*
X0198000Y0103120D02*
X0194483Y0103120D01*
X0198000Y0101521D02*
X0095600Y0101521D01*
X0095600Y0099923D02*
X0198000Y0099923D01*
X0187600Y0103120D02*
X0186000Y0103120D01*
X0186000Y0104718D02*
X0187600Y0104718D01*
X0187600Y0106317D02*
X0186000Y0106317D01*
X0186000Y0107915D02*
X0187600Y0107915D01*
X0187600Y0112711D02*
X0186000Y0112711D01*
X0186000Y0114309D02*
X0187600Y0114309D01*
X0187600Y0115908D02*
X0186000Y0115908D01*
X0186000Y0117506D02*
X0187600Y0117506D01*
X0187600Y0119105D02*
X0186000Y0119105D01*
X0178000Y0104718D02*
X0095348Y0104718D01*
X0095600Y0103120D02*
X0179117Y0103120D01*
X0206000Y0103120D02*
X0207600Y0103120D01*
X0207600Y0104718D02*
X0206000Y0104718D01*
X0206000Y0101521D02*
X0207600Y0101521D01*
X0207600Y0099923D02*
X0206000Y0099923D01*
X0215600Y0103120D02*
X0299117Y0103120D01*
X0298000Y0104718D02*
X0215348Y0104718D01*
X0215600Y0093529D02*
X0224569Y0093529D01*
X0222970Y0091930D02*
X0215600Y0091930D01*
X0215600Y0090332D02*
X0221372Y0090332D01*
X0227693Y0088733D02*
X0269846Y0088733D01*
X0279318Y0074346D02*
X0284282Y0074346D01*
X0283316Y0072748D02*
X0280284Y0072748D01*
X0280381Y0071149D02*
X0283219Y0071149D01*
X0283985Y0069551D02*
X0279615Y0069551D01*
X0286800Y0071800D02*
X0296800Y0071800D01*
X0294282Y0074346D02*
X0289318Y0074346D01*
X0269691Y0064755D02*
X0238909Y0064755D01*
X0215163Y0123900D02*
X0318437Y0123900D01*
X0318200Y0125499D02*
X0215400Y0125499D01*
X0215400Y0127097D02*
X0318200Y0127097D01*
X0315582Y0119105D02*
X0376921Y0119105D01*
X0376921Y0120703D02*
X0036600Y0120703D01*
X0036600Y0119105D02*
X0058018Y0119105D01*
X0058000Y0117506D02*
X0036600Y0117506D01*
X0036600Y0115908D02*
X0058000Y0115908D01*
X0058000Y0114309D02*
X0036600Y0114309D01*
X0036600Y0112711D02*
X0058000Y0112711D01*
X0054936Y0128696D02*
X0036600Y0128696D01*
X0036600Y0130294D02*
X0053548Y0130294D01*
X0053219Y0131893D02*
X0036600Y0131893D01*
X0036600Y0133491D02*
X0053624Y0133491D01*
X0055385Y0135090D02*
X0036600Y0135090D01*
X0036600Y0136688D02*
X0078200Y0136688D01*
X0078200Y0135090D02*
X0058215Y0135090D01*
X0057676Y0138287D02*
X0078200Y0138287D01*
X0093224Y0151075D02*
X0050919Y0151075D01*
X0050314Y0152673D02*
X0093286Y0152673D01*
X0094208Y0154272D02*
X0089336Y0154272D01*
X0086800Y0156800D02*
X0166800Y0156800D01*
X0169336Y0154272D02*
X0184264Y0154272D01*
X0183764Y0154771D02*
X0184771Y0153764D01*
X0186088Y0153219D01*
X0187512Y0153219D01*
X0188829Y0153764D01*
X0189464Y0154400D01*
X0204336Y0154400D01*
X0203764Y0153829D01*
X0203219Y0152512D01*
X0203219Y0151088D01*
X0203764Y0149771D01*
X0203936Y0149600D01*
X0166243Y0149600D01*
X0165214Y0149174D01*
X0164426Y0148386D01*
X0155640Y0139600D01*
X0139064Y0139600D01*
X0138829Y0139836D01*
X0137512Y0140381D01*
X0136088Y0140381D01*
X0134881Y0139881D01*
X0135381Y0141088D01*
X0135381Y0142512D01*
X0134836Y0143829D01*
X0134264Y0144400D01*
X0144136Y0144400D01*
X0144771Y0143764D01*
X0146088Y0143219D01*
X0147512Y0143219D01*
X0148829Y0143764D01*
X0149836Y0144771D01*
X0150381Y0146088D01*
X0150381Y0147512D01*
X0149836Y0148829D01*
X0148829Y0149836D01*
X0147512Y0150381D01*
X0146088Y0150381D01*
X0144771Y0149836D01*
X0144136Y0149200D01*
X0129264Y0149200D01*
X0129836Y0149771D01*
X0130381Y0151088D01*
X0130381Y0152512D01*
X0129836Y0153829D01*
X0129264Y0154400D01*
X0164136Y0154400D01*
X0164771Y0153764D01*
X0166088Y0153219D01*
X0167512Y0153219D01*
X0168829Y0153764D01*
X0169836Y0154771D01*
X0170381Y0156088D01*
X0170381Y0157512D01*
X0169836Y0158829D01*
X0169264Y0159400D01*
X0184336Y0159400D01*
X0183764Y0158829D01*
X0183219Y0157512D01*
X0183219Y0156088D01*
X0183764Y0154771D01*
X0183309Y0155870D02*
X0170291Y0155870D01*
X0170381Y0157469D02*
X0183219Y0157469D01*
X0184003Y0159068D02*
X0169597Y0159068D01*
X0164264Y0154272D02*
X0129392Y0154272D01*
X0130314Y0152673D02*
X0203286Y0152673D01*
X0203224Y0151075D02*
X0130376Y0151075D01*
X0129541Y0149476D02*
X0144412Y0149476D01*
X0146800Y0146800D02*
X0051800Y0146800D01*
X0046800Y0151800D01*
X0049392Y0154272D02*
X0084264Y0154272D01*
X0083309Y0155870D02*
X0036600Y0155870D01*
X0036600Y0154272D02*
X0044208Y0154272D01*
X0043286Y0152673D02*
X0036600Y0152673D01*
X0036600Y0151075D02*
X0043224Y0151075D01*
X0044059Y0149476D02*
X0036600Y0149476D01*
X0036600Y0147878D02*
X0047328Y0147878D01*
X0048926Y0146279D02*
X0036600Y0146279D01*
X0036600Y0144681D02*
X0050644Y0144681D01*
X0053455Y0143082D02*
X0036600Y0143082D01*
X0036600Y0141484D02*
X0053219Y0141484D01*
X0053717Y0139885D02*
X0036600Y0139885D01*
X0036600Y0138287D02*
X0055924Y0138287D01*
X0056800Y0141800D02*
X0131800Y0141800D01*
X0135145Y0143082D02*
X0159123Y0143082D01*
X0157524Y0141484D02*
X0135381Y0141484D01*
X0134891Y0139885D02*
X0134883Y0139885D01*
X0138709Y0139885D02*
X0155926Y0139885D01*
X0160721Y0144681D02*
X0149745Y0144681D01*
X0150381Y0146279D02*
X0162320Y0146279D01*
X0163918Y0147878D02*
X0150230Y0147878D01*
X0149188Y0149476D02*
X0165945Y0149476D01*
X0156800Y0161800D02*
X0301800Y0161800D01*
X0305206Y0160666D02*
X0376921Y0160666D01*
X0376921Y0159068D02*
X0369597Y0159068D01*
X0370381Y0157469D02*
X0376921Y0157469D01*
X0376921Y0155870D02*
X0370291Y0155870D01*
X0369336Y0154272D02*
X0376921Y0154272D01*
X0376921Y0152673D02*
X0310314Y0152673D01*
X0310376Y0151075D02*
X0376921Y0151075D01*
X0376921Y0149476D02*
X0339188Y0149476D01*
X0340230Y0147878D02*
X0376921Y0147878D01*
X0376921Y0146279D02*
X0340381Y0146279D01*
X0339745Y0144681D02*
X0376921Y0144681D01*
X0376921Y0139885D02*
X0334977Y0139885D01*
X0335400Y0138287D02*
X0376921Y0138287D01*
X0376921Y0136688D02*
X0335400Y0136688D01*
X0335400Y0135090D02*
X0376921Y0135090D01*
X0376921Y0133491D02*
X0335400Y0133491D01*
X0335400Y0131893D02*
X0376921Y0131893D01*
X0376921Y0130294D02*
X0335400Y0130294D01*
X0335400Y0128696D02*
X0376921Y0128696D01*
X0376921Y0127097D02*
X0335400Y0127097D01*
X0335400Y0125499D02*
X0376921Y0125499D01*
X0364264Y0154272D02*
X0309392Y0154272D01*
X0306800Y0151800D02*
X0246800Y0151800D01*
X0236800Y0151800D02*
X0206800Y0151800D01*
X0204208Y0154272D02*
X0189336Y0154272D01*
X0186800Y0156800D02*
X0366800Y0156800D01*
X0358927Y0163863D02*
X0376921Y0163863D01*
X0376921Y0162265D02*
X0305381Y0162265D01*
X0304801Y0163863D02*
X0354673Y0163863D01*
X0356800Y0166800D02*
X0296800Y0166800D01*
X0293478Y0165462D02*
X0283750Y0165462D01*
X0284179Y0165639D02*
X0285361Y0166821D01*
X0286000Y0168365D01*
X0286000Y0175235D01*
X0285361Y0176779D01*
X0284179Y0177961D01*
X0282635Y0178600D01*
X0280965Y0178600D01*
X0279421Y0177961D01*
X0278239Y0176779D01*
X0277600Y0175235D01*
X0277600Y0168365D01*
X0278239Y0166821D01*
X0279421Y0165639D01*
X0280965Y0165000D01*
X0282635Y0165000D01*
X0284179Y0165639D01*
X0285460Y0167060D02*
X0293219Y0167060D01*
X0293694Y0168659D02*
X0286000Y0168659D01*
X0286000Y0170257D02*
X0295788Y0170257D01*
X0297812Y0170257D02*
X0303563Y0170257D01*
X0303219Y0171856D02*
X0286000Y0171856D01*
X0286000Y0173454D02*
X0303609Y0173454D01*
X0305295Y0175053D02*
X0286000Y0175053D01*
X0285414Y0176651D02*
X0376921Y0176651D01*
X0376921Y0175053D02*
X0328305Y0175053D01*
X0329991Y0173454D02*
X0376921Y0173454D01*
X0376921Y0171856D02*
X0330381Y0171856D01*
X0330037Y0170257D02*
X0355788Y0170257D01*
X0357812Y0170257D02*
X0376921Y0170257D01*
X0376921Y0168659D02*
X0359906Y0168659D01*
X0360381Y0167060D02*
X0376921Y0167060D01*
X0376921Y0165462D02*
X0360122Y0165462D01*
X0376921Y0178250D02*
X0292587Y0178250D01*
X0292512Y0178219D02*
X0293829Y0178764D01*
X0294836Y0179771D01*
X0295381Y0181088D01*
X0295381Y0182512D01*
X0294836Y0183829D01*
X0294264Y0184400D01*
X0304136Y0184400D01*
X0304771Y0183764D01*
X0306088Y0183219D01*
X0307512Y0183219D01*
X0308829Y0183764D01*
X0309836Y0184771D01*
X0310381Y0186088D01*
X0310381Y0187512D01*
X0309836Y0188829D01*
X0308829Y0189836D01*
X0307512Y0190381D01*
X0306088Y0190381D01*
X0304771Y0189836D01*
X0304136Y0189200D01*
X0274264Y0189200D01*
X0274836Y0189771D01*
X0275381Y0191088D01*
X0275381Y0192512D01*
X0274836Y0193829D01*
X0273829Y0194836D01*
X0272512Y0195381D01*
X0271088Y0195381D01*
X0269771Y0194836D01*
X0269136Y0194200D01*
X0254464Y0194200D01*
X0253829Y0194836D01*
X0252512Y0195381D01*
X0251088Y0195381D01*
X0249771Y0194836D01*
X0248764Y0193829D01*
X0248219Y0192512D01*
X0248219Y0191088D01*
X0248764Y0189771D01*
X0249336Y0189200D01*
X0244464Y0189200D01*
X0243829Y0189836D01*
X0242512Y0190381D01*
X0241088Y0190381D01*
X0239771Y0189836D01*
X0238764Y0188829D01*
X0238219Y0187512D01*
X0238219Y0186088D01*
X0238764Y0184771D01*
X0239336Y0184200D01*
X0221543Y0184200D01*
X0221543Y0185216D01*
X0220797Y0187017D01*
X0219418Y0188395D01*
X0217617Y0189141D01*
X0215668Y0189141D01*
X0213867Y0188395D01*
X0212488Y0187017D01*
X0211743Y0185216D01*
X0211743Y0183266D01*
X0212488Y0181465D01*
X0213867Y0180087D01*
X0215668Y0179341D01*
X0217617Y0179341D01*
X0217760Y0179400D01*
X0289136Y0179400D01*
X0289771Y0178764D01*
X0291088Y0178219D01*
X0292512Y0178219D01*
X0291013Y0178250D02*
X0283481Y0178250D01*
X0280119Y0178250D02*
X0273481Y0178250D01*
X0274179Y0177961D02*
X0272635Y0178600D01*
X0270965Y0178600D01*
X0269421Y0177961D01*
X0268239Y0176779D01*
X0267600Y0175235D01*
X0267600Y0168365D01*
X0268239Y0166821D01*
X0269421Y0165639D01*
X0270965Y0165000D01*
X0272635Y0165000D01*
X0274179Y0165639D01*
X0275361Y0166821D01*
X0276000Y0168365D01*
X0276000Y0175235D01*
X0275361Y0176779D01*
X0274179Y0177961D01*
X0275414Y0176651D02*
X0278186Y0176651D01*
X0277600Y0175053D02*
X0276000Y0175053D01*
X0276000Y0173454D02*
X0277600Y0173454D01*
X0277600Y0171856D02*
X0276000Y0171856D01*
X0276000Y0170257D02*
X0277600Y0170257D01*
X0277600Y0168659D02*
X0276000Y0168659D01*
X0275460Y0167060D02*
X0278140Y0167060D01*
X0279850Y0165462D02*
X0273750Y0165462D01*
X0269850Y0165462D02*
X0264140Y0165462D01*
X0264106Y0165437D02*
X0264666Y0165844D01*
X0265156Y0166334D01*
X0265563Y0166894D01*
X0265878Y0167511D01*
X0266092Y0168170D01*
X0266200Y0168854D01*
X0266200Y0171800D01*
X0266200Y0174746D01*
X0266092Y0175430D01*
X0265878Y0176089D01*
X0265563Y0176706D01*
X0265156Y0177266D01*
X0264666Y0177756D01*
X0264106Y0178163D01*
X0263489Y0178478D01*
X0262830Y0178692D01*
X0262146Y0178800D01*
X0261800Y0178800D01*
X0261800Y0171800D01*
X0266200Y0171800D01*
X0261800Y0171800D01*
X0261800Y0171800D01*
X0261800Y0171800D01*
X0261800Y0164800D01*
X0262146Y0164800D01*
X0262830Y0164908D01*
X0263489Y0165122D01*
X0264106Y0165437D01*
X0265648Y0167060D02*
X0268140Y0167060D01*
X0267600Y0168659D02*
X0266169Y0168659D01*
X0266200Y0170257D02*
X0267600Y0170257D01*
X0267600Y0171856D02*
X0266200Y0171856D01*
X0266200Y0173454D02*
X0267600Y0173454D01*
X0267600Y0175053D02*
X0266151Y0175053D01*
X0265591Y0176651D02*
X0268186Y0176651D01*
X0270119Y0178250D02*
X0263936Y0178250D01*
X0261800Y0178250D02*
X0261800Y0178250D01*
X0261800Y0178800D02*
X0261454Y0178800D01*
X0260770Y0178692D01*
X0260111Y0178478D01*
X0259494Y0178163D01*
X0258934Y0177756D01*
X0258444Y0177266D01*
X0258037Y0176706D01*
X0257722Y0176089D01*
X0257508Y0175430D01*
X0257400Y0174746D01*
X0257400Y0171800D01*
X0261800Y0171800D01*
X0261800Y0171800D01*
X0261800Y0171800D01*
X0261800Y0178800D01*
X0261800Y0176651D02*
X0261800Y0176651D01*
X0261800Y0175053D02*
X0261800Y0175053D01*
X0261800Y0173454D02*
X0261800Y0173454D01*
X0261800Y0171856D02*
X0261800Y0171856D01*
X0261800Y0171800D02*
X0257400Y0171800D01*
X0257400Y0168854D01*
X0257508Y0168170D01*
X0257722Y0167511D01*
X0258037Y0166894D01*
X0258444Y0166334D01*
X0258934Y0165844D01*
X0259494Y0165437D01*
X0260111Y0165122D01*
X0260770Y0164908D01*
X0261454Y0164800D01*
X0261800Y0164800D01*
X0261800Y0171800D01*
X0261800Y0170257D02*
X0261800Y0170257D01*
X0261800Y0168659D02*
X0261800Y0168659D01*
X0261800Y0167060D02*
X0261800Y0167060D01*
X0261800Y0165462D02*
X0261800Y0165462D01*
X0259460Y0165462D02*
X0245122Y0165462D01*
X0245381Y0167060D02*
X0257952Y0167060D01*
X0257431Y0168659D02*
X0244906Y0168659D01*
X0242812Y0170257D02*
X0257400Y0170257D01*
X0257400Y0171856D02*
X0180381Y0171856D01*
X0180037Y0170257D02*
X0180788Y0170257D01*
X0182812Y0170257D02*
X0240788Y0170257D01*
X0241800Y0166800D02*
X0181800Y0166800D01*
X0176800Y0171800D02*
X0126800Y0171800D01*
X0123219Y0171856D02*
X0036600Y0171856D01*
X0036600Y0173454D02*
X0123609Y0173454D01*
X0125295Y0175053D02*
X0036600Y0175053D01*
X0036600Y0176651D02*
X0168219Y0176651D01*
X0168524Y0178250D02*
X0036600Y0178250D01*
X0036600Y0179848D02*
X0169801Y0179848D01*
X0171800Y0176800D02*
X0191800Y0176800D01*
X0195076Y0178250D02*
X0259664Y0178250D01*
X0258009Y0176651D02*
X0195381Y0176651D01*
X0194952Y0175053D02*
X0257449Y0175053D01*
X0257400Y0173454D02*
X0193080Y0173454D01*
X0190520Y0173454D02*
X0179991Y0173454D01*
X0173799Y0179848D02*
X0189801Y0179848D01*
X0192596Y0181568D02*
X0193067Y0180919D01*
X0193635Y0180351D01*
X0194284Y0179879D01*
X0195000Y0179515D01*
X0195763Y0179267D01*
X0196556Y0179141D01*
X0196675Y0179141D01*
X0196675Y0183958D01*
X0197240Y0183958D01*
X0197240Y0179141D01*
X0197359Y0179141D01*
X0198152Y0179267D01*
X0198915Y0179515D01*
X0199630Y0179879D01*
X0200280Y0180351D01*
X0200848Y0180919D01*
X0201319Y0181568D01*
X0201684Y0182283D01*
X0201932Y0183047D01*
X0201948Y0183150D01*
X0202646Y0181465D01*
X0204024Y0180087D01*
X0205825Y0179341D01*
X0207775Y0179341D01*
X0209576Y0180087D01*
X0210954Y0181465D01*
X0211700Y0183266D01*
X0211700Y0185216D01*
X0210954Y0187017D01*
X0210035Y0187935D01*
X0211749Y0188645D01*
X0214207Y0191103D01*
X0215537Y0194314D01*
X0215537Y0197790D01*
X0214208Y0200998D01*
X0214765Y0200441D01*
X0215441Y0199765D01*
X0216323Y0199400D01*
X0279136Y0199400D01*
X0279771Y0198764D01*
X0281088Y0198219D01*
X0282512Y0198219D01*
X0283829Y0198764D01*
X0284836Y0199771D01*
X0285381Y0201088D01*
X0285381Y0202512D01*
X0284836Y0203829D01*
X0283829Y0204836D01*
X0282512Y0205381D01*
X0281088Y0205381D01*
X0279771Y0204836D01*
X0279136Y0204200D01*
X0217794Y0204200D01*
X0213159Y0208835D01*
X0212277Y0209200D01*
X0201323Y0209200D01*
X0200441Y0208835D01*
X0199765Y0208159D01*
X0195806Y0204200D01*
X0174264Y0204200D01*
X0174836Y0204771D01*
X0175381Y0206088D01*
X0175381Y0207512D01*
X0174836Y0208829D01*
X0173829Y0209836D01*
X0172512Y0210381D01*
X0171613Y0210381D01*
X0168835Y0213159D01*
X0168159Y0213835D01*
X0167277Y0214200D01*
X0166117Y0214200D01*
X0163768Y0216550D01*
X0159832Y0216550D01*
X0157050Y0213768D01*
X0157050Y0209832D01*
X0159832Y0207050D01*
X0163768Y0207050D01*
X0165962Y0209244D01*
X0168219Y0206987D01*
X0168219Y0206088D01*
X0168764Y0204771D01*
X0169336Y0204200D01*
X0154464Y0204200D01*
X0153829Y0204836D01*
X0152512Y0205381D01*
X0151088Y0205381D01*
X0149771Y0204836D01*
X0148764Y0203829D01*
X0148219Y0202512D01*
X0148219Y0201088D01*
X0148764Y0199771D01*
X0149336Y0199200D01*
X0134264Y0199200D01*
X0134836Y0199771D01*
X0135381Y0201088D01*
X0135381Y0202512D01*
X0134836Y0203829D01*
X0134200Y0204464D01*
X0134200Y0224336D01*
X0134771Y0223764D01*
X0136088Y0223219D01*
X0137512Y0223219D01*
X0138829Y0223764D01*
X0139836Y0224771D01*
X0140381Y0226088D01*
X0140381Y0226987D01*
X0152794Y0239400D01*
X0169336Y0239400D01*
X0168764Y0238829D01*
X0168219Y0237512D01*
X0168219Y0236088D01*
X0168764Y0234771D01*
X0169771Y0233764D01*
X0171088Y0233219D01*
X0171987Y0233219D01*
X0174765Y0230441D01*
X0175441Y0229765D01*
X0176323Y0229400D01*
X0189136Y0229400D01*
X0189771Y0228764D01*
X0191088Y0228219D01*
X0192512Y0228219D01*
X0193829Y0228764D01*
X0194836Y0229771D01*
X0195381Y0231088D01*
X0195381Y0232512D01*
X0194836Y0233829D01*
X0193829Y0234836D01*
X0192512Y0235381D01*
X0191088Y0235381D01*
X0189771Y0234836D01*
X0189136Y0234200D01*
X0177794Y0234200D01*
X0175381Y0236613D01*
X0175381Y0237512D01*
X0174836Y0238829D01*
X0174264Y0239400D01*
X0214136Y0239400D01*
X0214771Y0238764D01*
X0216088Y0238219D01*
X0217512Y0238219D01*
X0218829Y0238764D01*
X0219300Y0239236D01*
X0219771Y0238764D01*
X0221088Y0238219D01*
X0222512Y0238219D01*
X0223829Y0238764D01*
X0224064Y0239000D01*
X0229536Y0239000D01*
X0229771Y0238764D01*
X0231088Y0238219D01*
X0232512Y0238219D01*
X0233829Y0238764D01*
X0234836Y0239771D01*
X0235381Y0241088D01*
X0235381Y0242512D01*
X0234836Y0243829D01*
X0234264Y0244400D01*
X0284336Y0244400D01*
X0283764Y0243829D01*
X0283219Y0242512D01*
X0283219Y0241088D01*
X0283764Y0239771D01*
X0284771Y0238764D01*
X0286088Y0238219D01*
X0287512Y0238219D01*
X0288829Y0238764D01*
X0289464Y0239400D01*
X0349136Y0239400D01*
X0349771Y0238764D01*
X0351088Y0238219D01*
X0352512Y0238219D01*
X0353829Y0238764D01*
X0354836Y0239771D01*
X0355381Y0241088D01*
X0355381Y0242512D01*
X0354836Y0243829D01*
X0353829Y0244836D01*
X0352512Y0245381D01*
X0351088Y0245381D01*
X0349771Y0244836D01*
X0349136Y0244200D01*
X0309264Y0244200D01*
X0309836Y0244771D01*
X0310381Y0246088D01*
X0310381Y0247512D01*
X0309881Y0248719D01*
X0311088Y0248219D01*
X0312512Y0248219D01*
X0313829Y0248764D01*
X0314836Y0249771D01*
X0315381Y0251088D01*
X0315381Y0252512D01*
X0314836Y0253829D01*
X0313829Y0254836D01*
X0312512Y0255381D01*
X0311088Y0255381D01*
X0309771Y0254836D01*
X0309136Y0254200D01*
X0304464Y0254200D01*
X0303829Y0254836D01*
X0302512Y0255381D01*
X0301088Y0255381D01*
X0299771Y0254836D01*
X0298764Y0253829D01*
X0298219Y0252512D01*
X0298219Y0251088D01*
X0298764Y0249771D01*
X0299336Y0249200D01*
X0239264Y0249200D01*
X0239836Y0249771D01*
X0240381Y0251088D01*
X0240381Y0252512D01*
X0239836Y0253829D01*
X0239264Y0254400D01*
X0259136Y0254400D01*
X0259771Y0253764D01*
X0261088Y0253219D01*
X0262512Y0253219D01*
X0263829Y0253764D01*
X0264836Y0254771D01*
X0265381Y0256088D01*
X0265381Y0257512D01*
X0264836Y0258829D01*
X0263829Y0259836D01*
X0262512Y0260381D01*
X0261088Y0260381D01*
X0259771Y0259836D01*
X0259136Y0259200D01*
X0224264Y0259200D01*
X0224836Y0259771D01*
X0225381Y0261088D01*
X0225381Y0262512D01*
X0224836Y0263829D01*
X0223829Y0264836D01*
X0222512Y0265381D01*
X0221088Y0265381D01*
X0219771Y0264836D01*
X0219536Y0264600D01*
X0204064Y0264600D01*
X0203829Y0264836D01*
X0202512Y0265381D01*
X0201088Y0265381D01*
X0199771Y0264836D01*
X0198764Y0263829D01*
X0198219Y0262512D01*
X0198219Y0261088D01*
X0198764Y0259771D01*
X0199336Y0259200D01*
X0164264Y0259200D01*
X0164836Y0259771D01*
X0165381Y0261088D01*
X0165381Y0262512D01*
X0164836Y0263829D01*
X0164264Y0264400D01*
X0179136Y0264400D01*
X0179771Y0263764D01*
X0181088Y0263219D01*
X0182512Y0263219D01*
X0183829Y0263764D01*
X0184836Y0264771D01*
X0185381Y0266088D01*
X0185381Y0267512D01*
X0184836Y0268829D01*
X0183829Y0269836D01*
X0182512Y0270381D01*
X0181088Y0270381D01*
X0179771Y0269836D01*
X0179136Y0269200D01*
X0144264Y0269200D01*
X0144836Y0269771D01*
X0145381Y0271088D01*
X0145381Y0272512D01*
X0144836Y0273829D01*
X0144364Y0274300D01*
X0144836Y0274771D01*
X0145381Y0276088D01*
X0145381Y0277512D01*
X0144836Y0278829D01*
X0144264Y0279400D01*
X0149136Y0279400D01*
X0149771Y0278764D01*
X0151088Y0278219D01*
X0152512Y0278219D01*
X0153829Y0278764D01*
X0154464Y0279400D01*
X0159136Y0279400D01*
X0159771Y0278764D01*
X0161088Y0278219D01*
X0162512Y0278219D01*
X0163829Y0278764D01*
X0164836Y0279771D01*
X0165381Y0281088D01*
X0165381Y0282512D01*
X0164836Y0283829D01*
X0164264Y0284400D01*
X0174336Y0284400D01*
X0173764Y0283829D01*
X0173219Y0282512D01*
X0173219Y0281088D01*
X0173764Y0279771D01*
X0174771Y0278764D01*
X0176088Y0278219D01*
X0177512Y0278219D01*
X0178829Y0278764D01*
X0179064Y0279000D01*
X0194536Y0279000D01*
X0194771Y0278764D01*
X0196088Y0278219D01*
X0197512Y0278219D01*
X0198829Y0278764D01*
X0199836Y0279771D01*
X0200381Y0281088D01*
X0200381Y0282512D01*
X0199836Y0283829D01*
X0199264Y0284400D01*
X0200806Y0284400D01*
X0203219Y0281987D01*
X0203219Y0281088D01*
X0203764Y0279771D01*
X0204771Y0278764D01*
X0206088Y0278219D01*
X0207512Y0278219D01*
X0208829Y0278764D01*
X0209836Y0279771D01*
X0210381Y0281088D01*
X0210381Y0282512D01*
X0209836Y0283829D01*
X0208829Y0284836D01*
X0207512Y0285381D01*
X0206613Y0285381D01*
X0203159Y0288835D01*
X0202277Y0289200D01*
X0154464Y0289200D01*
X0153829Y0289836D01*
X0152512Y0290381D01*
X0151088Y0290381D01*
X0149771Y0289836D01*
X0149136Y0289200D01*
X0144464Y0289200D01*
X0143829Y0289836D01*
X0142512Y0290381D01*
X0141088Y0290381D01*
X0139771Y0289836D01*
X0138764Y0288829D01*
X0138219Y0287512D01*
X0138219Y0286088D01*
X0138764Y0284771D01*
X0139771Y0283764D01*
X0140195Y0283589D01*
X0139765Y0283159D01*
X0139400Y0282277D01*
X0139400Y0279464D01*
X0139136Y0279200D01*
X0114264Y0279200D01*
X0114836Y0279771D01*
X0115381Y0281088D01*
X0115381Y0282512D01*
X0114836Y0283829D01*
X0113829Y0284836D01*
X0112512Y0285381D01*
X0111088Y0285381D01*
X0109771Y0284836D01*
X0109136Y0284200D01*
X0104264Y0284200D01*
X0104836Y0284771D01*
X0105381Y0286088D01*
X0105381Y0287512D01*
X0104836Y0288829D01*
X0103829Y0289836D01*
X0102512Y0290381D01*
X0101088Y0290381D01*
X0099771Y0289836D01*
X0099136Y0289200D01*
X0064464Y0289200D01*
X0063829Y0289836D01*
X0062512Y0290381D01*
X0061088Y0290381D01*
X0059771Y0289836D01*
X0058764Y0288829D01*
X0058219Y0287512D01*
X0058219Y0286088D01*
X0058764Y0284771D01*
X0059771Y0283764D01*
X0061088Y0283219D01*
X0062512Y0283219D01*
X0063829Y0283764D01*
X0064464Y0284400D01*
X0069336Y0284400D01*
X0068764Y0283829D01*
X0068219Y0282512D01*
X0068219Y0281088D01*
X0068764Y0279771D01*
X0069771Y0278764D01*
X0071088Y0278219D01*
X0072512Y0278219D01*
X0073829Y0278764D01*
X0074464Y0279400D01*
X0078579Y0279400D01*
X0079548Y0278430D01*
X0081009Y0277825D01*
X0082591Y0277825D01*
X0084052Y0278430D01*
X0085170Y0279548D01*
X0085775Y0281009D01*
X0085775Y0282591D01*
X0085170Y0284052D01*
X0084821Y0284400D01*
X0088779Y0284400D01*
X0088430Y0284052D01*
X0087825Y0282591D01*
X0087825Y0281009D01*
X0088430Y0279548D01*
X0089548Y0278430D01*
X0091009Y0277825D01*
X0092591Y0277825D01*
X0094052Y0278430D01*
X0095021Y0279400D01*
X0099336Y0279400D01*
X0098764Y0278829D01*
X0098219Y0277512D01*
X0098219Y0276088D01*
X0098764Y0274771D01*
X0099771Y0273764D01*
X0101088Y0273219D01*
X0102512Y0273219D01*
X0103829Y0273764D01*
X0104464Y0274400D01*
X0124336Y0274400D01*
X0123764Y0273829D01*
X0123219Y0272512D01*
X0123219Y0271088D01*
X0123764Y0269771D01*
X0124336Y0269200D01*
X0109464Y0269200D01*
X0108829Y0269836D01*
X0107512Y0270381D01*
X0106088Y0270381D01*
X0104771Y0269836D01*
X0103764Y0268829D01*
X0103219Y0267512D01*
X0103219Y0266088D01*
X0103719Y0264881D01*
X0102512Y0265381D01*
X0101088Y0265381D01*
X0099771Y0264836D01*
X0098764Y0263829D01*
X0098219Y0262512D01*
X0098219Y0261088D01*
X0098719Y0259881D01*
X0097512Y0260381D01*
X0096088Y0260381D01*
X0094771Y0259836D01*
X0093764Y0258829D01*
X0093219Y0257512D01*
X0093219Y0256088D01*
X0093719Y0254881D01*
X0092512Y0255381D01*
X0091088Y0255381D01*
X0089771Y0254836D01*
X0088764Y0253829D01*
X0088219Y0252512D01*
X0088219Y0251088D01*
X0088764Y0249771D01*
X0089771Y0248764D01*
X0091088Y0248219D01*
X0092512Y0248219D01*
X0093829Y0248764D01*
X0094464Y0249400D01*
X0129336Y0249400D01*
X0128764Y0248829D01*
X0128219Y0247512D01*
X0128219Y0246088D01*
X0128764Y0244771D01*
X0129400Y0244136D01*
X0129400Y0204464D01*
X0128764Y0203829D01*
X0128219Y0202512D01*
X0128219Y0201088D01*
X0128764Y0199771D01*
X0129336Y0199200D01*
X0124464Y0199200D01*
X0123829Y0199836D01*
X0122512Y0200381D01*
X0121088Y0200381D01*
X0119771Y0199836D01*
X0118764Y0198829D01*
X0118219Y0197512D01*
X0118219Y0196088D01*
X0118764Y0194771D01*
X0119771Y0193764D01*
X0121088Y0193219D01*
X0122512Y0193219D01*
X0123829Y0193764D01*
X0124464Y0194400D01*
X0134336Y0194400D01*
X0133764Y0193829D01*
X0133219Y0192512D01*
X0133219Y0191088D01*
X0133764Y0189771D01*
X0134771Y0188764D01*
X0136088Y0188219D01*
X0137512Y0188219D01*
X0138829Y0188764D01*
X0139064Y0189000D01*
X0144536Y0189000D01*
X0144771Y0188764D01*
X0146088Y0188219D01*
X0147512Y0188219D01*
X0148829Y0188764D01*
X0149064Y0189000D01*
X0154536Y0189000D01*
X0154771Y0188764D01*
X0156088Y0188219D01*
X0157512Y0188219D01*
X0158829Y0188764D01*
X0159836Y0189771D01*
X0160381Y0191088D01*
X0160381Y0192512D01*
X0159836Y0193829D01*
X0159264Y0194400D01*
X0184136Y0194400D01*
X0184771Y0193764D01*
X0186088Y0193219D01*
X0187512Y0193219D01*
X0188829Y0193764D01*
X0189836Y0194771D01*
X0190381Y0196088D01*
X0190381Y0197512D01*
X0189836Y0198829D01*
X0189264Y0199400D01*
X0197277Y0199400D01*
X0198159Y0199765D01*
X0199392Y0200998D01*
X0198063Y0197790D01*
X0198063Y0194314D01*
X0199393Y0191103D01*
X0201851Y0188645D01*
X0203565Y0187935D01*
X0202646Y0187017D01*
X0201948Y0185332D01*
X0201932Y0185435D01*
X0201684Y0186199D01*
X0201319Y0186914D01*
X0200848Y0187563D01*
X0200280Y0188131D01*
X0199630Y0188603D01*
X0198915Y0188967D01*
X0198152Y0189215D01*
X0197359Y0189341D01*
X0197240Y0189341D01*
X0197240Y0184524D01*
X0196675Y0184524D01*
X0196675Y0189341D01*
X0196556Y0189341D01*
X0195763Y0189215D01*
X0195000Y0188967D01*
X0194284Y0188603D01*
X0193635Y0188131D01*
X0193067Y0187563D01*
X0192596Y0186914D01*
X0192231Y0186199D01*
X0191983Y0185435D01*
X0191857Y0184642D01*
X0191857Y0184524D01*
X0196675Y0184524D01*
X0196675Y0183958D01*
X0191857Y0183958D01*
X0191857Y0183840D01*
X0191983Y0183047D01*
X0192231Y0182283D01*
X0192596Y0181568D01*
X0192684Y0181447D02*
X0036600Y0181447D01*
X0036600Y0183045D02*
X0191984Y0183045D01*
X0191858Y0184644D02*
X0098348Y0184644D01*
X0097617Y0184341D02*
X0099418Y0185087D01*
X0100797Y0186465D01*
X0101543Y0188266D01*
X0101543Y0190216D01*
X0100797Y0192017D01*
X0099418Y0193395D01*
X0097617Y0194141D01*
X0095668Y0194141D01*
X0093867Y0193395D01*
X0092488Y0192017D01*
X0091743Y0190216D01*
X0091743Y0188266D01*
X0092488Y0186465D01*
X0093867Y0185087D01*
X0095668Y0184341D01*
X0097617Y0184341D01*
X0094937Y0184644D02*
X0088506Y0184644D01*
X0087775Y0184341D02*
X0089576Y0185087D01*
X0090954Y0186465D01*
X0091700Y0188266D01*
X0091700Y0190216D01*
X0090954Y0192017D01*
X0090035Y0192935D01*
X0091749Y0193645D01*
X0094207Y0196103D01*
X0095537Y0199314D01*
X0095537Y0202790D01*
X0094207Y0206001D01*
X0091749Y0208459D01*
X0088538Y0209789D01*
X0085062Y0209789D01*
X0081851Y0208459D01*
X0079393Y0206001D01*
X0078063Y0202790D01*
X0078063Y0199314D01*
X0079393Y0196103D01*
X0081851Y0193645D01*
X0083565Y0192935D01*
X0082646Y0192017D01*
X0081948Y0190332D01*
X0081932Y0190435D01*
X0081684Y0191199D01*
X0081319Y0191914D01*
X0080848Y0192563D01*
X0080280Y0193131D01*
X0079630Y0193603D01*
X0078915Y0193967D01*
X0078152Y0194215D01*
X0077359Y0194341D01*
X0077240Y0194341D01*
X0077240Y0189524D01*
X0076675Y0189524D01*
X0076675Y0194341D01*
X0076556Y0194341D01*
X0075763Y0194215D01*
X0075000Y0193967D01*
X0074284Y0193603D01*
X0073635Y0193131D01*
X0073067Y0192563D01*
X0072596Y0191914D01*
X0072231Y0191199D01*
X0071983Y0190435D01*
X0071857Y0189642D01*
X0071857Y0189524D01*
X0076675Y0189524D01*
X0076675Y0188958D01*
X0077240Y0188958D01*
X0077240Y0184141D01*
X0077359Y0184141D01*
X0078152Y0184267D01*
X0078915Y0184515D01*
X0079630Y0184879D01*
X0080280Y0185351D01*
X0080848Y0185919D01*
X0081319Y0186568D01*
X0081684Y0187283D01*
X0081932Y0188047D01*
X0081948Y0188150D01*
X0082646Y0186465D01*
X0084024Y0185087D01*
X0085825Y0184341D01*
X0087775Y0184341D01*
X0085094Y0184644D02*
X0079169Y0184644D01*
X0077240Y0184644D02*
X0076675Y0184644D01*
X0076675Y0184141D02*
X0076675Y0188958D01*
X0071857Y0188958D01*
X0071857Y0188840D01*
X0071983Y0188047D01*
X0072231Y0187283D01*
X0072596Y0186568D01*
X0073067Y0185919D01*
X0073635Y0185351D01*
X0074284Y0184879D01*
X0075000Y0184515D01*
X0075763Y0184267D01*
X0076556Y0184141D01*
X0076675Y0184141D01*
X0074746Y0184644D02*
X0036600Y0184644D01*
X0036600Y0186242D02*
X0072832Y0186242D01*
X0072050Y0187841D02*
X0036600Y0187841D01*
X0036600Y0189439D02*
X0076675Y0189439D01*
X0076675Y0187841D02*
X0077240Y0187841D01*
X0077240Y0186242D02*
X0076675Y0186242D01*
X0081083Y0186242D02*
X0082869Y0186242D01*
X0082076Y0187841D02*
X0081865Y0187841D01*
X0081736Y0191038D02*
X0082241Y0191038D01*
X0083266Y0192636D02*
X0080775Y0192636D01*
X0081261Y0194235D02*
X0078029Y0194235D01*
X0077240Y0194235D02*
X0076675Y0194235D01*
X0075886Y0194235D02*
X0036600Y0194235D01*
X0036600Y0195833D02*
X0079663Y0195833D01*
X0078843Y0197432D02*
X0036600Y0197432D01*
X0036600Y0199030D02*
X0078181Y0199030D01*
X0078063Y0200629D02*
X0036600Y0200629D01*
X0036600Y0202227D02*
X0078063Y0202227D01*
X0078492Y0203826D02*
X0036600Y0203826D01*
X0036600Y0205424D02*
X0079154Y0205424D01*
X0080415Y0207023D02*
X0036600Y0207023D01*
X0036600Y0208621D02*
X0082243Y0208621D01*
X0076195Y0210625D02*
X0076195Y0222975D01*
X0075258Y0223912D01*
X0062909Y0223912D01*
X0061972Y0222975D01*
X0061972Y0210625D01*
X0062909Y0209688D01*
X0075258Y0209688D01*
X0076195Y0210625D01*
X0075790Y0210220D02*
X0097810Y0210220D01*
X0097405Y0210625D02*
X0098342Y0209688D01*
X0110691Y0209688D01*
X0111628Y0210625D01*
X0111628Y0222975D01*
X0110691Y0223912D01*
X0098342Y0223912D01*
X0097405Y0222975D01*
X0097405Y0210625D01*
X0097405Y0211818D02*
X0076195Y0211818D01*
X0076195Y0213417D02*
X0097405Y0213417D01*
X0097405Y0215015D02*
X0076195Y0215015D01*
X0076195Y0216614D02*
X0097405Y0216614D01*
X0097405Y0218212D02*
X0076195Y0218212D01*
X0076195Y0219811D02*
X0097405Y0219811D01*
X0097405Y0221409D02*
X0076195Y0221409D01*
X0076162Y0223008D02*
X0082248Y0223008D01*
X0081851Y0223173D02*
X0085062Y0221843D01*
X0088538Y0221843D01*
X0091749Y0223173D01*
X0094207Y0225630D01*
X0095537Y0228842D01*
X0095537Y0232317D01*
X0094207Y0235529D01*
X0091749Y0237986D01*
X0091188Y0238219D01*
X0092512Y0238219D01*
X0093829Y0238764D01*
X0094836Y0239771D01*
X0095381Y0241088D01*
X0095381Y0242512D01*
X0094836Y0243829D01*
X0093829Y0244836D01*
X0092512Y0245381D01*
X0091088Y0245381D01*
X0089771Y0244836D01*
X0089136Y0244200D01*
X0079464Y0244200D01*
X0078829Y0244836D01*
X0077512Y0245381D01*
X0076088Y0245381D01*
X0074771Y0244836D01*
X0074136Y0244200D01*
X0059464Y0244200D01*
X0058829Y0244836D01*
X0057512Y0245381D01*
X0056088Y0245381D01*
X0054771Y0244836D01*
X0053764Y0243829D01*
X0053219Y0242512D01*
X0053219Y0241088D01*
X0053764Y0239771D01*
X0054771Y0238764D01*
X0056088Y0238219D01*
X0057512Y0238219D01*
X0058829Y0238764D01*
X0059464Y0239400D01*
X0074136Y0239400D01*
X0074771Y0238764D01*
X0076088Y0238219D01*
X0077512Y0238219D01*
X0078829Y0238764D01*
X0079464Y0239400D01*
X0089136Y0239400D01*
X0089701Y0238835D01*
X0088538Y0239317D01*
X0085062Y0239317D01*
X0081851Y0237986D01*
X0079393Y0235529D01*
X0078063Y0232317D01*
X0078063Y0228842D01*
X0079393Y0225630D01*
X0081851Y0223173D01*
X0080417Y0224606D02*
X0059671Y0224606D01*
X0059836Y0224771D02*
X0060381Y0226088D01*
X0060381Y0227512D01*
X0059836Y0228829D01*
X0058829Y0229836D01*
X0057512Y0230381D01*
X0056088Y0230381D01*
X0054771Y0229836D01*
X0054136Y0229200D01*
X0044464Y0229200D01*
X0043829Y0229836D01*
X0042512Y0230381D01*
X0041088Y0230381D01*
X0039771Y0229836D01*
X0038764Y0228829D01*
X0038219Y0227512D01*
X0038219Y0226088D01*
X0038764Y0224771D01*
X0039771Y0223764D01*
X0041088Y0223219D01*
X0042512Y0223219D01*
X0043829Y0223764D01*
X0044464Y0224400D01*
X0054136Y0224400D01*
X0054771Y0223764D01*
X0056088Y0223219D01*
X0057512Y0223219D01*
X0058829Y0223764D01*
X0059836Y0224771D01*
X0060381Y0226205D02*
X0079155Y0226205D01*
X0078493Y0227803D02*
X0060260Y0227803D01*
X0059262Y0229402D02*
X0078063Y0229402D01*
X0078063Y0231001D02*
X0036600Y0231001D01*
X0036600Y0232599D02*
X0078180Y0232599D01*
X0078842Y0234198D02*
X0036600Y0234198D01*
X0036600Y0235796D02*
X0079661Y0235796D01*
X0081259Y0237395D02*
X0036600Y0237395D01*
X0036600Y0238993D02*
X0054542Y0238993D01*
X0053424Y0240592D02*
X0036600Y0240592D01*
X0036600Y0242190D02*
X0053219Y0242190D01*
X0053748Y0243789D02*
X0036600Y0243789D01*
X0036600Y0245387D02*
X0128509Y0245387D01*
X0128219Y0246986D02*
X0036600Y0246986D01*
X0036600Y0248584D02*
X0070206Y0248584D01*
X0069771Y0248764D02*
X0071088Y0248219D01*
X0072512Y0248219D01*
X0073829Y0248764D01*
X0074464Y0249400D01*
X0079136Y0249400D01*
X0079771Y0248764D01*
X0081088Y0248219D01*
X0082512Y0248219D01*
X0083829Y0248764D01*
X0084836Y0249771D01*
X0085381Y0251088D01*
X0085381Y0252512D01*
X0084836Y0253829D01*
X0083829Y0254836D01*
X0082512Y0255381D01*
X0081088Y0255381D01*
X0079771Y0254836D01*
X0079136Y0254200D01*
X0074464Y0254200D01*
X0073829Y0254836D01*
X0072512Y0255381D01*
X0071088Y0255381D01*
X0069771Y0254836D01*
X0068764Y0253829D01*
X0068219Y0252512D01*
X0068219Y0251088D01*
X0068764Y0249771D01*
X0069771Y0248764D01*
X0068594Y0250183D02*
X0036600Y0250183D01*
X0036600Y0251781D02*
X0068219Y0251781D01*
X0068578Y0253380D02*
X0036600Y0253380D01*
X0036600Y0254978D02*
X0070115Y0254978D01*
X0073485Y0254978D02*
X0080115Y0254978D01*
X0083485Y0254978D02*
X0090115Y0254978D01*
X0088578Y0253380D02*
X0085022Y0253380D01*
X0085381Y0251781D02*
X0088219Y0251781D01*
X0088594Y0250183D02*
X0085006Y0250183D01*
X0083394Y0248584D02*
X0090206Y0248584D01*
X0093394Y0248584D02*
X0128663Y0248584D01*
X0131800Y0246800D02*
X0131800Y0201800D01*
X0135191Y0200629D02*
X0148409Y0200629D01*
X0148219Y0202227D02*
X0135381Y0202227D01*
X0134837Y0203826D02*
X0148763Y0203826D01*
X0151800Y0201800D02*
X0196800Y0201800D01*
X0201800Y0206800D01*
X0211800Y0206800D01*
X0216800Y0201800D01*
X0281800Y0201800D01*
X0285191Y0200629D02*
X0318063Y0200629D01*
X0318063Y0199314D02*
X0318063Y0202790D01*
X0319393Y0206001D01*
X0321851Y0208459D01*
X0325062Y0209789D01*
X0328538Y0209789D01*
X0331749Y0208459D01*
X0334207Y0206001D01*
X0335537Y0202790D01*
X0335537Y0199314D01*
X0334207Y0196103D01*
X0331749Y0193645D01*
X0330035Y0192935D01*
X0330954Y0192017D01*
X0331700Y0190216D01*
X0331700Y0188266D01*
X0330954Y0186465D01*
X0329576Y0185087D01*
X0327775Y0184341D01*
X0325825Y0184341D01*
X0324024Y0185087D01*
X0322646Y0186465D01*
X0321948Y0188150D01*
X0321932Y0188047D01*
X0321684Y0187283D01*
X0321319Y0186568D01*
X0320848Y0185919D01*
X0320280Y0185351D01*
X0319630Y0184879D01*
X0318915Y0184515D01*
X0318152Y0184267D01*
X0317359Y0184141D01*
X0317240Y0184141D01*
X0317240Y0188958D01*
X0316675Y0188958D01*
X0316675Y0184141D01*
X0316556Y0184141D01*
X0315763Y0184267D01*
X0315000Y0184515D01*
X0314284Y0184879D01*
X0313635Y0185351D01*
X0313067Y0185919D01*
X0312596Y0186568D01*
X0312231Y0187283D01*
X0311983Y0188047D01*
X0311857Y0188840D01*
X0311857Y0188958D01*
X0316675Y0188958D01*
X0316675Y0189524D01*
X0316675Y0194341D01*
X0316556Y0194341D01*
X0315763Y0194215D01*
X0315000Y0193967D01*
X0314284Y0193603D01*
X0313635Y0193131D01*
X0313067Y0192563D01*
X0312596Y0191914D01*
X0312231Y0191199D01*
X0311983Y0190435D01*
X0311857Y0189642D01*
X0311857Y0189524D01*
X0316675Y0189524D01*
X0317240Y0189524D01*
X0317240Y0194341D01*
X0317359Y0194341D01*
X0318152Y0194215D01*
X0318915Y0193967D01*
X0319630Y0193603D01*
X0320280Y0193131D01*
X0320848Y0192563D01*
X0321319Y0191914D01*
X0321684Y0191199D01*
X0321932Y0190435D01*
X0321948Y0190332D01*
X0322646Y0192017D01*
X0323565Y0192935D01*
X0321851Y0193645D01*
X0319393Y0196103D01*
X0318063Y0199314D01*
X0318181Y0199030D02*
X0284095Y0199030D01*
X0285381Y0202227D02*
X0318063Y0202227D01*
X0318492Y0203826D02*
X0284837Y0203826D01*
X0279505Y0199030D02*
X0215023Y0199030D01*
X0214577Y0200629D02*
X0214361Y0200629D01*
X0215537Y0197432D02*
X0318843Y0197432D01*
X0319663Y0195833D02*
X0215537Y0195833D01*
X0215504Y0194235D02*
X0249170Y0194235D01*
X0248270Y0192636D02*
X0214842Y0192636D01*
X0214142Y0191038D02*
X0248240Y0191038D01*
X0249096Y0189439D02*
X0244225Y0189439D01*
X0241800Y0186800D02*
X0306800Y0186800D01*
X0309225Y0189439D02*
X0316675Y0189439D01*
X0316675Y0187841D02*
X0317240Y0187841D01*
X0317240Y0186242D02*
X0316675Y0186242D01*
X0316675Y0184644D02*
X0317240Y0184644D01*
X0319169Y0184644D02*
X0325094Y0184644D01*
X0322869Y0186242D02*
X0321083Y0186242D01*
X0321865Y0187841D02*
X0322076Y0187841D01*
X0322241Y0191038D02*
X0321736Y0191038D01*
X0320775Y0192636D02*
X0323266Y0192636D01*
X0321261Y0194235D02*
X0318029Y0194235D01*
X0317240Y0194235D02*
X0316675Y0194235D01*
X0315886Y0194235D02*
X0274430Y0194235D01*
X0275330Y0192636D02*
X0313140Y0192636D01*
X0312179Y0191038D02*
X0275360Y0191038D01*
X0274504Y0189439D02*
X0304375Y0189439D01*
X0310245Y0187841D02*
X0312050Y0187841D01*
X0312832Y0186242D02*
X0310381Y0186242D01*
X0309708Y0184644D02*
X0314746Y0184644D01*
X0316675Y0191038D02*
X0317240Y0191038D01*
X0317240Y0192636D02*
X0316675Y0192636D01*
X0319154Y0205424D02*
X0231427Y0205424D01*
X0231628Y0205625D02*
X0231628Y0217975D01*
X0230691Y0218912D01*
X0218342Y0218912D01*
X0217405Y0217975D01*
X0217405Y0205625D01*
X0218342Y0204688D01*
X0230691Y0204688D01*
X0231628Y0205625D01*
X0231628Y0207023D02*
X0320415Y0207023D01*
X0322243Y0208621D02*
X0231628Y0208621D01*
X0231628Y0210220D02*
X0302377Y0210220D01*
X0301972Y0210625D02*
X0302909Y0209688D01*
X0315258Y0209688D01*
X0316195Y0210625D01*
X0316195Y0222975D01*
X0315258Y0223912D01*
X0302909Y0223912D01*
X0301972Y0222975D01*
X0301972Y0210625D01*
X0301972Y0211818D02*
X0231628Y0211818D01*
X0231628Y0213417D02*
X0301972Y0213417D01*
X0301972Y0215015D02*
X0231628Y0215015D01*
X0231628Y0216614D02*
X0301972Y0216614D01*
X0301972Y0218212D02*
X0231390Y0218212D01*
X0217643Y0218212D02*
X0211789Y0218212D01*
X0211749Y0218173D02*
X0214207Y0220630D01*
X0215537Y0223842D01*
X0215537Y0227317D01*
X0214207Y0230529D01*
X0211749Y0232986D01*
X0208538Y0234317D01*
X0205062Y0234317D01*
X0201851Y0232986D01*
X0199393Y0230529D01*
X0198063Y0227317D01*
X0198063Y0223842D01*
X0199393Y0220630D01*
X0201851Y0218173D01*
X0205062Y0216843D01*
X0208538Y0216843D01*
X0211749Y0218173D01*
X0213387Y0219811D02*
X0301972Y0219811D01*
X0301972Y0221409D02*
X0214530Y0221409D01*
X0215192Y0223008D02*
X0302005Y0223008D01*
X0289058Y0238993D02*
X0324281Y0238993D01*
X0325062Y0239317D02*
X0321851Y0237986D01*
X0319393Y0235529D01*
X0318063Y0232317D01*
X0318063Y0228842D01*
X0319393Y0225630D01*
X0321851Y0223173D01*
X0325062Y0221843D01*
X0328538Y0221843D01*
X0331749Y0223173D01*
X0334207Y0225630D01*
X0335537Y0228842D01*
X0335537Y0232317D01*
X0334207Y0235529D01*
X0331749Y0237986D01*
X0328538Y0239317D01*
X0325062Y0239317D01*
X0321259Y0237395D02*
X0175381Y0237395D01*
X0174671Y0238993D02*
X0214542Y0238993D01*
X0216800Y0241800D02*
X0151800Y0241800D01*
X0136800Y0226800D01*
X0134200Y0229264D02*
X0134200Y0244136D01*
X0134300Y0244236D01*
X0134771Y0243764D01*
X0136088Y0243219D01*
X0137512Y0243219D01*
X0138829Y0243764D01*
X0139464Y0244400D01*
X0144136Y0244400D01*
X0144771Y0243764D01*
X0146088Y0243219D01*
X0147512Y0243219D01*
X0148829Y0243764D01*
X0149836Y0244771D01*
X0150381Y0246088D01*
X0150381Y0247512D01*
X0149836Y0248829D01*
X0148829Y0249836D01*
X0148405Y0250011D01*
X0148835Y0250441D01*
X0152794Y0254400D01*
X0164336Y0254400D01*
X0163764Y0253829D01*
X0163219Y0252512D01*
X0163219Y0251088D01*
X0163764Y0249771D01*
X0164771Y0248764D01*
X0166088Y0248219D01*
X0167512Y0248219D01*
X0168829Y0248764D01*
X0169464Y0249400D01*
X0174136Y0249400D01*
X0174236Y0249300D01*
X0173764Y0248829D01*
X0173219Y0247512D01*
X0173219Y0246088D01*
X0173764Y0244771D01*
X0174336Y0244200D01*
X0152277Y0244200D01*
X0151323Y0244200D01*
X0150441Y0243835D01*
X0136987Y0230381D01*
X0136088Y0230381D01*
X0134771Y0229836D01*
X0134200Y0229264D01*
X0134200Y0229402D02*
X0134338Y0229402D01*
X0134200Y0231001D02*
X0137606Y0231001D01*
X0139205Y0232599D02*
X0134200Y0232599D01*
X0134200Y0234198D02*
X0140803Y0234198D01*
X0142402Y0235796D02*
X0134200Y0235796D01*
X0134200Y0237395D02*
X0144000Y0237395D01*
X0145599Y0238993D02*
X0134200Y0238993D01*
X0134200Y0240592D02*
X0147197Y0240592D01*
X0148796Y0242190D02*
X0134200Y0242190D01*
X0134200Y0243789D02*
X0134747Y0243789D01*
X0136800Y0246800D02*
X0146800Y0246800D01*
X0150091Y0245387D02*
X0173509Y0245387D01*
X0173219Y0246986D02*
X0150381Y0246986D01*
X0149937Y0248584D02*
X0165206Y0248584D01*
X0163594Y0250183D02*
X0148577Y0250183D01*
X0150175Y0251781D02*
X0163219Y0251781D01*
X0163578Y0253380D02*
X0151774Y0253380D01*
X0151800Y0256800D02*
X0146800Y0251800D01*
X0091800Y0251800D01*
X0093485Y0254978D02*
X0093678Y0254978D01*
X0093219Y0256577D02*
X0036600Y0256577D01*
X0036600Y0258175D02*
X0093493Y0258175D01*
X0094709Y0259774D02*
X0036600Y0259774D01*
X0036600Y0261372D02*
X0098219Y0261372D01*
X0098409Y0262971D02*
X0036600Y0262971D01*
X0036600Y0264569D02*
X0099505Y0264569D01*
X0101800Y0261800D02*
X0161800Y0261800D01*
X0159336Y0259200D02*
X0151323Y0259200D01*
X0150441Y0258835D01*
X0145806Y0254200D01*
X0129264Y0254200D01*
X0129836Y0254771D01*
X0130381Y0256088D01*
X0130381Y0257512D01*
X0129836Y0258829D01*
X0129264Y0259400D01*
X0159136Y0259400D01*
X0159336Y0259200D01*
X0164837Y0259774D02*
X0198763Y0259774D01*
X0198219Y0261372D02*
X0165381Y0261372D01*
X0165191Y0262971D02*
X0198409Y0262971D01*
X0199505Y0264569D02*
X0184634Y0264569D01*
X0185381Y0266168D02*
X0253219Y0266168D01*
X0253219Y0266088D02*
X0253764Y0264771D01*
X0254771Y0263764D01*
X0256088Y0263219D01*
X0257512Y0263219D01*
X0258829Y0263764D01*
X0259464Y0264400D01*
X0289136Y0264400D01*
X0289771Y0263764D01*
X0291088Y0263219D01*
X0292512Y0263219D01*
X0293829Y0263764D01*
X0294464Y0264400D01*
X0324136Y0264400D01*
X0324771Y0263764D01*
X0326088Y0263219D01*
X0327512Y0263219D01*
X0328829Y0263764D01*
X0329836Y0264771D01*
X0330381Y0266088D01*
X0330381Y0267512D01*
X0329836Y0268829D01*
X0328829Y0269836D01*
X0327512Y0270381D01*
X0326088Y0270381D01*
X0324771Y0269836D01*
X0324136Y0269200D01*
X0294464Y0269200D01*
X0293829Y0269836D01*
X0292512Y0270381D01*
X0291088Y0270381D01*
X0289771Y0269836D01*
X0289136Y0269200D01*
X0259464Y0269200D01*
X0258829Y0269836D01*
X0257512Y0270381D01*
X0256088Y0270381D01*
X0254771Y0269836D01*
X0253764Y0268829D01*
X0253219Y0267512D01*
X0253219Y0266088D01*
X0253324Y0267766D02*
X0185276Y0267766D01*
X0184300Y0269365D02*
X0254300Y0269365D01*
X0256800Y0266800D02*
X0291800Y0266800D01*
X0326800Y0266800D01*
X0329300Y0269365D02*
X0376921Y0269365D01*
X0376921Y0270963D02*
X0145330Y0270963D01*
X0145361Y0272562D02*
X0376921Y0272562D01*
X0376921Y0274160D02*
X0369225Y0274160D01*
X0368829Y0273764D02*
X0369836Y0274771D01*
X0370381Y0276088D01*
X0370381Y0277512D01*
X0369836Y0278829D01*
X0368829Y0279836D01*
X0367512Y0280381D01*
X0366088Y0280381D01*
X0364771Y0279836D01*
X0364536Y0279600D01*
X0349064Y0279600D01*
X0348829Y0279836D01*
X0347512Y0280381D01*
X0346088Y0280381D01*
X0344771Y0279836D01*
X0344300Y0279364D01*
X0343829Y0279836D01*
X0342512Y0280381D01*
X0341088Y0280381D01*
X0339771Y0279836D01*
X0339136Y0279200D01*
X0324464Y0279200D01*
X0323829Y0279836D01*
X0322512Y0280381D01*
X0321088Y0280381D01*
X0319771Y0279836D01*
X0318764Y0278829D01*
X0318219Y0277512D01*
X0318219Y0276088D01*
X0318764Y0274771D01*
X0319771Y0273764D01*
X0321088Y0273219D01*
X0322512Y0273219D01*
X0323829Y0273764D01*
X0324464Y0274400D01*
X0339136Y0274400D01*
X0339771Y0273764D01*
X0341088Y0273219D01*
X0342512Y0273219D01*
X0343829Y0273764D01*
X0344300Y0274236D01*
X0344771Y0273764D01*
X0346088Y0273219D01*
X0347512Y0273219D01*
X0348829Y0273764D01*
X0349064Y0274000D01*
X0364536Y0274000D01*
X0364771Y0273764D01*
X0366088Y0273219D01*
X0367512Y0273219D01*
X0368829Y0273764D01*
X0370245Y0275759D02*
X0376921Y0275759D01*
X0376921Y0277357D02*
X0370381Y0277357D01*
X0369709Y0278956D02*
X0376921Y0278956D01*
X0376921Y0280554D02*
X0255160Y0280554D01*
X0255381Y0281088D02*
X0255381Y0282512D01*
X0254836Y0283829D01*
X0254264Y0284400D01*
X0324136Y0284400D01*
X0324771Y0283764D01*
X0326088Y0283219D01*
X0327512Y0283219D01*
X0328829Y0283764D01*
X0329836Y0284771D01*
X0330381Y0286088D01*
X0330381Y0287512D01*
X0329836Y0288829D01*
X0329264Y0289400D01*
X0357277Y0289400D01*
X0358159Y0289765D01*
X0358835Y0290441D01*
X0361613Y0293219D01*
X0362512Y0293219D01*
X0363829Y0293764D01*
X0364836Y0294771D01*
X0365381Y0296088D01*
X0365381Y0297512D01*
X0364836Y0298829D01*
X0363829Y0299836D01*
X0362512Y0300381D01*
X0361088Y0300381D01*
X0359881Y0299881D01*
X0360381Y0301088D01*
X0360381Y0302512D01*
X0359881Y0303719D01*
X0361088Y0303219D01*
X0362512Y0303219D01*
X0363829Y0303764D01*
X0364836Y0304771D01*
X0365381Y0306088D01*
X0365381Y0307512D01*
X0364836Y0308829D01*
X0363829Y0309836D01*
X0362512Y0310381D01*
X0361088Y0310381D01*
X0359771Y0309836D01*
X0359136Y0309200D01*
X0354264Y0309200D01*
X0354836Y0309771D01*
X0355381Y0311088D01*
X0355381Y0312512D01*
X0354836Y0313829D01*
X0353829Y0314836D01*
X0352512Y0315381D01*
X0351088Y0315381D01*
X0349771Y0314836D01*
X0349136Y0314200D01*
X0317794Y0314200D01*
X0313835Y0318159D01*
X0313159Y0318835D01*
X0312277Y0319200D01*
X0299264Y0319200D01*
X0299464Y0319400D01*
X0329136Y0319400D01*
X0329771Y0318764D01*
X0331088Y0318219D01*
X0332512Y0318219D01*
X0333829Y0318764D01*
X0334836Y0319771D01*
X0335381Y0321088D01*
X0335381Y0322512D01*
X0334836Y0323829D01*
X0333829Y0324836D01*
X0332512Y0325381D01*
X0331088Y0325381D01*
X0329771Y0324836D01*
X0329136Y0324200D01*
X0309264Y0324200D01*
X0309836Y0324771D01*
X0310381Y0326088D01*
X0310381Y0327512D01*
X0309836Y0328829D01*
X0309664Y0329000D01*
X0319536Y0329000D01*
X0319771Y0328764D01*
X0321088Y0328219D01*
X0322512Y0328219D01*
X0323829Y0328764D01*
X0324064Y0329000D01*
X0338936Y0329000D01*
X0338764Y0328829D01*
X0338219Y0327512D01*
X0338219Y0326088D01*
X0338764Y0324771D01*
X0339771Y0323764D01*
X0341088Y0323219D01*
X0342512Y0323219D01*
X0343829Y0323764D01*
X0344464Y0324400D01*
X0349336Y0324400D01*
X0348764Y0323829D01*
X0348219Y0322512D01*
X0348219Y0321088D01*
X0348764Y0319771D01*
X0349771Y0318764D01*
X0351088Y0318219D01*
X0352512Y0318219D01*
X0353829Y0318764D01*
X0354464Y0319400D01*
X0369136Y0319400D01*
X0369771Y0318764D01*
X0371088Y0318219D01*
X0372512Y0318219D01*
X0373829Y0318764D01*
X0374836Y0319771D01*
X0375381Y0321088D01*
X0375381Y0322512D01*
X0374836Y0323829D01*
X0373829Y0324836D01*
X0372512Y0325381D01*
X0371088Y0325381D01*
X0369771Y0324836D01*
X0369136Y0324200D01*
X0359264Y0324200D01*
X0359836Y0324771D01*
X0360381Y0326088D01*
X0360381Y0327512D01*
X0359836Y0328829D01*
X0359664Y0329000D01*
X0364536Y0329000D01*
X0364771Y0328764D01*
X0366088Y0328219D01*
X0367512Y0328219D01*
X0368829Y0328764D01*
X0369836Y0329771D01*
X0370381Y0331088D01*
X0370381Y0332512D01*
X0369836Y0333829D01*
X0368829Y0334836D01*
X0367512Y0335381D01*
X0366088Y0335381D01*
X0364771Y0334836D01*
X0364536Y0334600D01*
X0324064Y0334600D01*
X0323829Y0334836D01*
X0322512Y0335381D01*
X0321088Y0335381D01*
X0319771Y0334836D01*
X0319536Y0334600D01*
X0289064Y0334600D01*
X0288829Y0334836D01*
X0287512Y0335381D01*
X0286088Y0335381D01*
X0284771Y0334836D01*
X0283764Y0333829D01*
X0283219Y0332512D01*
X0283219Y0331088D01*
X0283764Y0329771D01*
X0284771Y0328764D01*
X0286088Y0328219D01*
X0287512Y0328219D01*
X0288719Y0328719D01*
X0288219Y0327512D01*
X0288219Y0326088D01*
X0288764Y0324771D01*
X0289771Y0323764D01*
X0291088Y0323219D01*
X0292512Y0323219D01*
X0293719Y0323719D01*
X0293219Y0322512D01*
X0293219Y0321088D01*
X0293764Y0319771D01*
X0294336Y0319200D01*
X0284464Y0319200D01*
X0283829Y0319836D01*
X0282512Y0320381D01*
X0281088Y0320381D01*
X0279771Y0319836D01*
X0278764Y0318829D01*
X0278219Y0317512D01*
X0278219Y0316088D01*
X0278764Y0314771D01*
X0279336Y0314200D01*
X0272417Y0314200D01*
X0272837Y0314267D01*
X0273600Y0314515D01*
X0274316Y0314879D01*
X0274965Y0315351D01*
X0275533Y0315919D01*
X0276004Y0316568D01*
X0276369Y0317283D01*
X0276617Y0318047D01*
X0276743Y0318840D01*
X0276743Y0318958D01*
X0271925Y0318958D01*
X0271925Y0319524D01*
X0271360Y0319524D01*
X0271360Y0324341D01*
X0271241Y0324341D01*
X0270448Y0324215D01*
X0269685Y0323967D01*
X0268970Y0323603D01*
X0268320Y0323131D01*
X0267752Y0322563D01*
X0267281Y0321914D01*
X0266916Y0321199D01*
X0266668Y0320435D01*
X0266652Y0320332D01*
X0265954Y0322017D01*
X0265035Y0322935D01*
X0266749Y0323645D01*
X0269207Y0326103D01*
X0270537Y0329314D01*
X0270537Y0332790D01*
X0269207Y0336001D01*
X0266749Y0338459D01*
X0263538Y0339789D01*
X0260062Y0339789D01*
X0256851Y0338459D01*
X0254393Y0336001D01*
X0253063Y0332790D01*
X0253063Y0329314D01*
X0254393Y0326103D01*
X0256851Y0323645D01*
X0258565Y0322935D01*
X0257646Y0322017D01*
X0256900Y0320216D01*
X0256900Y0318266D01*
X0257646Y0316465D01*
X0259024Y0315087D01*
X0260825Y0314341D01*
X0262775Y0314341D01*
X0264576Y0315087D01*
X0265954Y0316465D01*
X0266652Y0318150D01*
X0266668Y0318047D01*
X0266916Y0317283D01*
X0267281Y0316568D01*
X0267752Y0315919D01*
X0268320Y0315351D01*
X0268970Y0314879D01*
X0269685Y0314515D01*
X0270448Y0314267D01*
X0270868Y0314200D01*
X0232794Y0314200D01*
X0230381Y0316613D01*
X0230381Y0317512D01*
X0229836Y0318829D01*
X0228829Y0319836D01*
X0227512Y0320381D01*
X0226088Y0320381D01*
X0224771Y0319836D01*
X0224136Y0319200D01*
X0219464Y0319200D01*
X0218829Y0319836D01*
X0217512Y0320381D01*
X0216088Y0320381D01*
X0214771Y0319836D01*
X0213764Y0318829D01*
X0213219Y0317512D01*
X0213219Y0316088D01*
X0213764Y0314771D01*
X0214336Y0314200D01*
X0176323Y0314200D01*
X0175441Y0313835D01*
X0174765Y0313159D01*
X0170806Y0309200D01*
X0084464Y0309200D01*
X0083829Y0309836D01*
X0082512Y0310381D01*
X0081088Y0310381D01*
X0079771Y0309836D01*
X0078764Y0308829D01*
X0078219Y0307512D01*
X0078219Y0306088D01*
X0078764Y0304771D01*
X0079771Y0303764D01*
X0081088Y0303219D01*
X0082512Y0303219D01*
X0083829Y0303764D01*
X0084464Y0304400D01*
X0172277Y0304400D01*
X0173159Y0304765D01*
X0177794Y0309400D01*
X0179336Y0309400D01*
X0178764Y0308829D01*
X0178219Y0307512D01*
X0178219Y0306088D01*
X0178764Y0304771D01*
X0179336Y0304200D01*
X0126323Y0304200D01*
X0125441Y0303835D01*
X0121987Y0300381D01*
X0121088Y0300381D01*
X0119771Y0299836D01*
X0118764Y0298829D01*
X0118219Y0297512D01*
X0118219Y0296088D01*
X0118764Y0294771D01*
X0119771Y0293764D01*
X0121088Y0293219D01*
X0122512Y0293219D01*
X0123829Y0293764D01*
X0124836Y0294771D01*
X0125381Y0296088D01*
X0125381Y0296987D01*
X0127794Y0299400D01*
X0139336Y0299400D01*
X0138764Y0298829D01*
X0138219Y0297512D01*
X0138219Y0296088D01*
X0138764Y0294771D01*
X0139771Y0293764D01*
X0141088Y0293219D01*
X0142512Y0293219D01*
X0143829Y0293764D01*
X0144064Y0294000D01*
X0197357Y0294000D01*
X0198386Y0294426D01*
X0202179Y0298219D01*
X0202512Y0298219D01*
X0203829Y0298764D01*
X0204836Y0299771D01*
X0205381Y0301088D01*
X0205381Y0302512D01*
X0204836Y0303829D01*
X0203829Y0304836D01*
X0202512Y0305381D01*
X0201088Y0305381D01*
X0199771Y0304836D01*
X0198764Y0303829D01*
X0198219Y0302512D01*
X0198219Y0302179D01*
X0195640Y0299600D01*
X0189664Y0299600D01*
X0189836Y0299771D01*
X0190381Y0301088D01*
X0190381Y0302512D01*
X0189881Y0303719D01*
X0191088Y0303219D01*
X0192512Y0303219D01*
X0193829Y0303764D01*
X0194836Y0304771D01*
X0195381Y0306088D01*
X0195381Y0307512D01*
X0194836Y0308829D01*
X0194264Y0309400D01*
X0220806Y0309400D01*
X0224765Y0305441D01*
X0225441Y0304765D01*
X0226323Y0304400D01*
X0239136Y0304400D01*
X0239771Y0303764D01*
X0241088Y0303219D01*
X0242512Y0303219D01*
X0243829Y0303764D01*
X0244836Y0304771D01*
X0245381Y0306088D01*
X0245381Y0307512D01*
X0244836Y0308829D01*
X0244264Y0309400D01*
X0257683Y0309400D01*
X0257050Y0308768D01*
X0257050Y0304832D01*
X0259832Y0302050D01*
X0263768Y0302050D01*
X0266550Y0304832D01*
X0266550Y0308768D01*
X0265917Y0309400D01*
X0304136Y0309400D01*
X0304771Y0308764D01*
X0306088Y0308219D01*
X0307512Y0308219D01*
X0308829Y0308764D01*
X0309836Y0309771D01*
X0310381Y0311088D01*
X0310381Y0312512D01*
X0309836Y0313829D01*
X0309264Y0314400D01*
X0310806Y0314400D01*
X0315441Y0309765D01*
X0316323Y0309400D01*
X0319336Y0309400D01*
X0318764Y0308829D01*
X0318219Y0307512D01*
X0318219Y0306088D01*
X0318764Y0304771D01*
X0319336Y0304200D01*
X0299464Y0304200D01*
X0298829Y0304836D01*
X0297512Y0305381D01*
X0296088Y0305381D01*
X0294771Y0304836D01*
X0293764Y0303829D01*
X0293219Y0302512D01*
X0293219Y0301088D01*
X0293764Y0299771D01*
X0294771Y0298764D01*
X0296088Y0298219D01*
X0297512Y0298219D01*
X0298829Y0298764D01*
X0299464Y0299400D01*
X0314336Y0299400D01*
X0313764Y0298829D01*
X0313219Y0297512D01*
X0313219Y0296088D01*
X0313764Y0294771D01*
X0314336Y0294200D01*
X0304464Y0294200D01*
X0303829Y0294836D01*
X0302512Y0295381D01*
X0301088Y0295381D01*
X0299771Y0294836D01*
X0299136Y0294200D01*
X0265864Y0294200D01*
X0266550Y0295855D01*
X0266550Y0297745D01*
X0265827Y0299491D01*
X0264491Y0300827D01*
X0262745Y0301550D01*
X0260855Y0301550D01*
X0259109Y0300827D01*
X0257773Y0299491D01*
X0257050Y0297745D01*
X0257050Y0295855D01*
X0257736Y0294200D01*
X0229464Y0294200D01*
X0228829Y0294836D01*
X0227512Y0295381D01*
X0226088Y0295381D01*
X0224771Y0294836D01*
X0223764Y0293829D01*
X0223219Y0292512D01*
X0223219Y0291088D01*
X0223764Y0289771D01*
X0224771Y0288764D01*
X0226088Y0288219D01*
X0227512Y0288219D01*
X0228829Y0288764D01*
X0229464Y0289400D01*
X0239336Y0289400D01*
X0238764Y0288829D01*
X0238219Y0287512D01*
X0238219Y0286088D01*
X0238719Y0284881D01*
X0237512Y0285381D01*
X0236088Y0285381D01*
X0234771Y0284836D01*
X0233764Y0283829D01*
X0233219Y0282512D01*
X0233219Y0281088D01*
X0233764Y0279771D01*
X0234336Y0279200D01*
X0229264Y0279200D01*
X0229836Y0279771D01*
X0230381Y0281088D01*
X0230381Y0282512D01*
X0229836Y0283829D01*
X0228829Y0284836D01*
X0227512Y0285381D01*
X0226088Y0285381D01*
X0224771Y0284836D01*
X0224136Y0284200D01*
X0219464Y0284200D01*
X0218829Y0284836D01*
X0217512Y0285381D01*
X0216088Y0285381D01*
X0214771Y0284836D01*
X0213764Y0283829D01*
X0213219Y0282512D01*
X0213219Y0281088D01*
X0213764Y0279771D01*
X0214771Y0278764D01*
X0216088Y0278219D01*
X0217512Y0278219D01*
X0218719Y0278719D01*
X0218219Y0277512D01*
X0218219Y0276088D01*
X0218764Y0274771D01*
X0219771Y0273764D01*
X0221088Y0273219D01*
X0222512Y0273219D01*
X0223829Y0273764D01*
X0224464Y0274400D01*
X0244136Y0274400D01*
X0244771Y0273764D01*
X0246088Y0273219D01*
X0247512Y0273219D01*
X0248829Y0273764D01*
X0249836Y0274771D01*
X0250381Y0276088D01*
X0250381Y0277512D01*
X0249881Y0278719D01*
X0251088Y0278219D01*
X0252512Y0278219D01*
X0253829Y0278764D01*
X0254836Y0279771D01*
X0255381Y0281088D01*
X0255381Y0282153D02*
X0376921Y0282153D01*
X0376921Y0283751D02*
X0328798Y0283751D01*
X0330075Y0285350D02*
X0376921Y0285350D01*
X0376921Y0286948D02*
X0330381Y0286948D01*
X0329953Y0288547D02*
X0376921Y0288547D01*
X0376921Y0290145D02*
X0358540Y0290145D01*
X0360138Y0291744D02*
X0376921Y0291744D01*
X0376921Y0293342D02*
X0362811Y0293342D01*
X0364906Y0294941D02*
X0376921Y0294941D01*
X0376921Y0296539D02*
X0365381Y0296539D01*
X0365122Y0298138D02*
X0376921Y0298138D01*
X0376921Y0299737D02*
X0363928Y0299737D01*
X0361800Y0296800D02*
X0356800Y0291800D01*
X0301800Y0291800D01*
X0226800Y0291800D01*
X0223219Y0291744D02*
X0036600Y0291744D01*
X0036600Y0293342D02*
X0120789Y0293342D01*
X0122811Y0293342D02*
X0140789Y0293342D01*
X0142811Y0293342D02*
X0223563Y0293342D01*
X0225025Y0294941D02*
X0198901Y0294941D01*
X0200499Y0296539D02*
X0257050Y0296539D01*
X0257213Y0298138D02*
X0202098Y0298138D01*
X0204801Y0299737D02*
X0258019Y0299737D01*
X0260336Y0301335D02*
X0205381Y0301335D01*
X0205207Y0302934D02*
X0258949Y0302934D01*
X0257350Y0304532D02*
X0244596Y0304532D01*
X0245381Y0306131D02*
X0257050Y0306131D01*
X0257050Y0307729D02*
X0245291Y0307729D01*
X0244337Y0309328D02*
X0257610Y0309328D01*
X0254733Y0315087D02*
X0256111Y0316465D01*
X0256857Y0318266D01*
X0256857Y0320216D01*
X0256111Y0322017D01*
X0254733Y0323395D01*
X0252932Y0324141D01*
X0250983Y0324141D01*
X0249182Y0323395D01*
X0247803Y0322017D01*
X0247057Y0320216D01*
X0247057Y0318266D01*
X0247803Y0316465D01*
X0249182Y0315087D01*
X0250983Y0314341D01*
X0252932Y0314341D01*
X0254733Y0315087D01*
X0255368Y0315722D02*
X0258390Y0315722D01*
X0257292Y0317320D02*
X0256466Y0317320D01*
X0256857Y0318919D02*
X0256900Y0318919D01*
X0257025Y0320517D02*
X0256733Y0320517D01*
X0256012Y0322116D02*
X0257745Y0322116D01*
X0256782Y0323714D02*
X0253962Y0323714D01*
X0255183Y0325313D02*
X0197677Y0325313D01*
X0197512Y0325381D02*
X0196088Y0325381D01*
X0194771Y0324836D01*
X0193764Y0323829D01*
X0193219Y0322512D01*
X0193219Y0322179D01*
X0193081Y0322041D01*
X0179064Y0322041D01*
X0178829Y0322277D01*
X0177512Y0322822D01*
X0176088Y0322822D01*
X0174771Y0322277D01*
X0174536Y0322041D01*
X0165772Y0322041D01*
X0164418Y0323395D01*
X0162617Y0324141D01*
X0160668Y0324141D01*
X0158867Y0323395D01*
X0157488Y0322017D01*
X0156743Y0320216D01*
X0156743Y0318266D01*
X0157488Y0316465D01*
X0158867Y0315087D01*
X0160668Y0314341D01*
X0162617Y0314341D01*
X0164418Y0315087D01*
X0165772Y0316441D01*
X0174536Y0316441D01*
X0174771Y0316205D01*
X0176088Y0315660D01*
X0177512Y0315660D01*
X0178829Y0316205D01*
X0179064Y0316441D01*
X0194798Y0316441D01*
X0195827Y0316867D01*
X0197179Y0318219D01*
X0197512Y0318219D01*
X0198829Y0318764D01*
X0199836Y0319771D01*
X0200381Y0321088D01*
X0200381Y0322512D01*
X0199836Y0323829D01*
X0198829Y0324836D01*
X0197512Y0325381D01*
X0195923Y0325313D02*
X0158417Y0325313D01*
X0159207Y0326103D02*
X0160537Y0329314D01*
X0160537Y0332790D01*
X0159207Y0336001D01*
X0156749Y0338459D01*
X0153538Y0339789D01*
X0150062Y0339789D01*
X0146851Y0338459D01*
X0144393Y0336001D01*
X0143063Y0332790D01*
X0143063Y0329314D01*
X0144393Y0326103D01*
X0146851Y0323645D01*
X0148565Y0322935D01*
X0147646Y0322017D01*
X0146900Y0320216D01*
X0146900Y0318266D01*
X0147646Y0316465D01*
X0149024Y0315087D01*
X0150825Y0314341D01*
X0152775Y0314341D01*
X0154576Y0315087D01*
X0155954Y0316465D01*
X0156700Y0318266D01*
X0156700Y0320216D01*
X0155954Y0322017D01*
X0155035Y0322935D01*
X0156749Y0323645D01*
X0159207Y0326103D01*
X0159542Y0326911D02*
X0254058Y0326911D01*
X0253396Y0328510D02*
X0160204Y0328510D01*
X0160537Y0330108D02*
X0253063Y0330108D01*
X0253063Y0331707D02*
X0160537Y0331707D01*
X0160324Y0333305D02*
X0253276Y0333305D01*
X0253939Y0334904D02*
X0159661Y0334904D01*
X0158706Y0336502D02*
X0254894Y0336502D01*
X0256493Y0338101D02*
X0157107Y0338101D01*
X0153754Y0339699D02*
X0163331Y0339699D01*
X0163342Y0339688D02*
X0162405Y0340625D01*
X0162405Y0352975D01*
X0163342Y0353912D01*
X0175691Y0353912D01*
X0176628Y0352975D01*
X0176628Y0340625D01*
X0175691Y0339688D01*
X0163342Y0339688D01*
X0162405Y0341298D02*
X0141195Y0341298D01*
X0141195Y0340625D02*
X0141195Y0352975D01*
X0140258Y0353912D01*
X0127909Y0353912D01*
X0126972Y0352975D01*
X0126972Y0340625D01*
X0127909Y0339688D01*
X0140258Y0339688D01*
X0141195Y0340625D01*
X0140269Y0339699D02*
X0149846Y0339699D01*
X0146493Y0338101D02*
X0086495Y0338101D01*
X0085381Y0336987D02*
X0087794Y0339400D01*
X0119136Y0339400D01*
X0119771Y0338764D01*
X0121088Y0338219D01*
X0122512Y0338219D01*
X0123829Y0338764D01*
X0124836Y0339771D01*
X0125381Y0341088D01*
X0125381Y0342512D01*
X0124836Y0343829D01*
X0123829Y0344836D01*
X0122512Y0345381D01*
X0121088Y0345381D01*
X0119771Y0344836D01*
X0119136Y0344200D01*
X0114264Y0344200D01*
X0114836Y0344771D01*
X0115381Y0346088D01*
X0115381Y0346987D01*
X0117794Y0349400D01*
X0119136Y0349400D01*
X0119771Y0348764D01*
X0121088Y0348219D01*
X0122512Y0348219D01*
X0123829Y0348764D01*
X0124836Y0349771D01*
X0125381Y0351088D01*
X0125381Y0352512D01*
X0124836Y0353829D01*
X0123829Y0354836D01*
X0122512Y0355381D01*
X0121088Y0355381D01*
X0119771Y0354836D01*
X0119136Y0354200D01*
X0116323Y0354200D01*
X0115441Y0353835D01*
X0111987Y0350381D01*
X0111088Y0350381D01*
X0109771Y0349836D01*
X0108764Y0348829D01*
X0108219Y0347512D01*
X0108219Y0346088D01*
X0108764Y0344771D01*
X0109336Y0344200D01*
X0086323Y0344200D01*
X0085441Y0343835D01*
X0081987Y0340381D01*
X0081088Y0340381D01*
X0079771Y0339836D01*
X0078764Y0338829D01*
X0078219Y0337512D01*
X0078219Y0336088D01*
X0078764Y0334771D01*
X0079771Y0333764D01*
X0081088Y0333219D01*
X0082512Y0333219D01*
X0083829Y0333764D01*
X0084836Y0334771D01*
X0085381Y0336088D01*
X0085381Y0336987D01*
X0085381Y0336502D02*
X0144894Y0336502D01*
X0143939Y0334904D02*
X0084891Y0334904D01*
X0082721Y0333305D02*
X0143276Y0333305D01*
X0143063Y0331707D02*
X0036600Y0331707D01*
X0036600Y0333305D02*
X0080879Y0333305D01*
X0078709Y0334904D02*
X0036600Y0334904D01*
X0036600Y0336502D02*
X0078219Y0336502D01*
X0078463Y0338101D02*
X0036600Y0338101D01*
X0036600Y0339699D02*
X0079635Y0339699D01*
X0081800Y0336800D02*
X0086800Y0341800D01*
X0121800Y0341800D01*
X0124170Y0344495D02*
X0126972Y0344495D01*
X0126972Y0346093D02*
X0115381Y0346093D01*
X0116086Y0347692D02*
X0126972Y0347692D01*
X0126972Y0349290D02*
X0124355Y0349290D01*
X0125299Y0350889D02*
X0126972Y0350889D01*
X0126972Y0352487D02*
X0125381Y0352487D01*
X0124579Y0354086D02*
X0145938Y0354086D01*
X0146851Y0353173D02*
X0144393Y0355630D01*
X0143063Y0358842D01*
X0143063Y0362317D01*
X0144393Y0365529D01*
X0146851Y0367986D01*
X0150062Y0369317D01*
X0153538Y0369317D01*
X0156749Y0367986D01*
X0159207Y0365529D01*
X0160537Y0362317D01*
X0160537Y0358842D01*
X0159207Y0355630D01*
X0156749Y0353173D01*
X0153538Y0351843D01*
X0150062Y0351843D01*
X0146851Y0353173D01*
X0148505Y0352487D02*
X0141195Y0352487D01*
X0141195Y0350889D02*
X0162405Y0350889D01*
X0162405Y0352487D02*
X0155095Y0352487D01*
X0157662Y0354086D02*
X0255938Y0354086D01*
X0256851Y0353173D02*
X0254393Y0355630D01*
X0253063Y0358842D01*
X0253063Y0362317D01*
X0254393Y0365529D01*
X0256851Y0367986D01*
X0259298Y0369000D01*
X0204064Y0369000D01*
X0203829Y0368764D01*
X0202512Y0368219D01*
X0201088Y0368219D01*
X0199771Y0368764D01*
X0198764Y0369771D01*
X0198219Y0371088D01*
X0198219Y0372512D01*
X0198764Y0373829D01*
X0199336Y0374400D01*
X0099464Y0374400D01*
X0098829Y0373764D01*
X0097512Y0373219D01*
X0096088Y0373219D01*
X0094771Y0373764D01*
X0093764Y0374771D01*
X0093219Y0376088D01*
X0093219Y0377512D01*
X0093764Y0378829D01*
X0094336Y0379400D01*
X0079464Y0379400D01*
X0078829Y0378764D01*
X0077512Y0378219D01*
X0076088Y0378219D01*
X0074771Y0378764D01*
X0073764Y0379771D01*
X0073219Y0381088D01*
X0073219Y0382512D01*
X0073764Y0383829D01*
X0074336Y0384400D01*
X0069464Y0384400D01*
X0068829Y0383764D01*
X0067512Y0383219D01*
X0066088Y0383219D01*
X0064771Y0383764D01*
X0064136Y0384400D01*
X0049464Y0384400D01*
X0048829Y0383764D01*
X0047512Y0383219D01*
X0046088Y0383219D01*
X0044771Y0383764D01*
X0043764Y0384771D01*
X0043219Y0386088D01*
X0043219Y0387512D01*
X0043719Y0388719D01*
X0042512Y0388219D01*
X0041088Y0388219D01*
X0039771Y0388764D01*
X0038764Y0389771D01*
X0038219Y0391088D01*
X0038219Y0392512D01*
X0038764Y0393829D01*
X0039771Y0394836D01*
X0041088Y0395381D01*
X0042512Y0395381D01*
X0043829Y0394836D01*
X0044464Y0394200D01*
X0049336Y0394200D01*
X0048764Y0394771D01*
X0048219Y0396088D01*
X0048219Y0397512D01*
X0048764Y0398829D01*
X0049771Y0399836D01*
X0051088Y0400381D01*
X0052512Y0400381D01*
X0053829Y0399836D01*
X0054464Y0399200D01*
X0069136Y0399200D01*
X0069771Y0399836D01*
X0071088Y0400381D01*
X0072512Y0400381D01*
X0073829Y0399836D01*
X0074836Y0398829D01*
X0075381Y0397512D01*
X0075381Y0396088D01*
X0074836Y0394771D01*
X0074264Y0394200D01*
X0097277Y0394200D01*
X0098159Y0393835D01*
X0098835Y0393159D01*
X0099200Y0392277D01*
X0099200Y0389200D01*
X0104136Y0389200D01*
X0104771Y0389836D01*
X0106088Y0390381D01*
X0107512Y0390381D01*
X0108829Y0389836D01*
X0109836Y0388829D01*
X0110381Y0387512D01*
X0110381Y0386088D01*
X0109836Y0384771D01*
X0109264Y0384200D01*
X0110806Y0384200D01*
X0115441Y0388835D01*
X0116323Y0389200D01*
X0209336Y0389200D01*
X0208764Y0389771D01*
X0208219Y0391088D01*
X0208219Y0392512D01*
X0208764Y0393829D01*
X0209771Y0394836D01*
X0211088Y0395381D01*
X0212512Y0395381D01*
X0213829Y0394836D01*
X0214064Y0394600D01*
X0233936Y0394600D01*
X0233764Y0394771D01*
X0233219Y0396088D01*
X0233219Y0397512D01*
X0233719Y0398719D01*
X0232512Y0398219D01*
X0231088Y0398219D01*
X0229771Y0398764D01*
X0228764Y0399771D01*
X0228219Y0401088D01*
X0228219Y0402512D01*
X0228764Y0403829D01*
X0229771Y0404836D01*
X0231088Y0405381D01*
X0232512Y0405381D01*
X0233829Y0404836D01*
X0234464Y0404200D01*
X0264136Y0404200D01*
X0264771Y0404836D01*
X0266088Y0405381D01*
X0267512Y0405381D01*
X0268829Y0404836D01*
X0269836Y0403829D01*
X0270381Y0402512D01*
X0270381Y0401088D01*
X0269836Y0399771D01*
X0268829Y0398764D01*
X0267512Y0398219D01*
X0266088Y0398219D01*
X0264771Y0398764D01*
X0264136Y0399400D01*
X0259264Y0399400D01*
X0259836Y0398829D01*
X0260381Y0397512D01*
X0260381Y0396088D01*
X0259836Y0394771D01*
X0259664Y0394600D01*
X0273936Y0394600D01*
X0273764Y0394771D01*
X0273219Y0396088D01*
X0273219Y0397512D01*
X0273764Y0398829D01*
X0274771Y0399836D01*
X0276088Y0400381D01*
X0277512Y0400381D01*
X0278829Y0399836D01*
X0279464Y0399200D01*
X0299136Y0399200D01*
X0299771Y0399836D01*
X0301088Y0400381D01*
X0302512Y0400381D01*
X0303829Y0399836D01*
X0304836Y0398829D01*
X0305381Y0397512D01*
X0305381Y0396088D01*
X0304836Y0394771D01*
X0304664Y0394600D01*
X0324536Y0394600D01*
X0324771Y0394836D01*
X0326088Y0395381D01*
X0327512Y0395381D01*
X0328829Y0394836D01*
X0329836Y0393829D01*
X0330381Y0392512D01*
X0330381Y0391088D01*
X0329881Y0389881D01*
X0331088Y0390381D01*
X0332512Y0390381D01*
X0333829Y0389836D01*
X0334836Y0388829D01*
X0335381Y0387512D01*
X0335381Y0386088D01*
X0334836Y0384771D01*
X0333829Y0383764D01*
X0332512Y0383219D01*
X0331088Y0383219D01*
X0329771Y0383764D01*
X0329136Y0384400D01*
X0294264Y0384400D01*
X0294836Y0383829D01*
X0295381Y0382512D01*
X0295381Y0381088D01*
X0294836Y0379771D01*
X0294264Y0379200D01*
X0314136Y0379200D01*
X0314771Y0379836D01*
X0316088Y0380381D01*
X0317512Y0380381D01*
X0318829Y0379836D01*
X0319836Y0378829D01*
X0320381Y0377512D01*
X0320381Y0376088D01*
X0319836Y0374771D01*
X0318829Y0373764D01*
X0317512Y0373219D01*
X0316088Y0373219D01*
X0314771Y0373764D01*
X0314136Y0374400D01*
X0309264Y0374400D01*
X0309836Y0373829D01*
X0310381Y0372512D01*
X0310381Y0371088D01*
X0309836Y0369771D01*
X0308829Y0368764D01*
X0307512Y0368219D01*
X0306088Y0368219D01*
X0304771Y0368764D01*
X0304136Y0369400D01*
X0299464Y0369400D01*
X0298829Y0368764D01*
X0297512Y0368219D01*
X0296088Y0368219D01*
X0294771Y0368764D01*
X0293764Y0369771D01*
X0293219Y0371088D01*
X0293219Y0372512D01*
X0293764Y0373829D01*
X0294336Y0374400D01*
X0289264Y0374400D01*
X0289836Y0373829D01*
X0290381Y0372512D01*
X0290381Y0371088D01*
X0289836Y0369771D01*
X0288829Y0368764D01*
X0287512Y0368219D01*
X0286088Y0368219D01*
X0284771Y0368764D01*
X0284536Y0369000D01*
X0264302Y0369000D01*
X0266749Y0367986D01*
X0269207Y0365529D01*
X0270537Y0362317D01*
X0270537Y0358842D01*
X0269207Y0355630D01*
X0266749Y0353173D01*
X0263538Y0351843D01*
X0260062Y0351843D01*
X0256851Y0353173D01*
X0258505Y0352487D02*
X0251195Y0352487D01*
X0251195Y0352975D02*
X0250258Y0353912D01*
X0237909Y0353912D01*
X0236972Y0352975D01*
X0236972Y0340625D01*
X0237909Y0339688D01*
X0250258Y0339688D01*
X0251195Y0340625D01*
X0251195Y0352975D01*
X0251195Y0350889D02*
X0272405Y0350889D01*
X0272405Y0352487D02*
X0265095Y0352487D01*
X0267662Y0354086D02*
X0296120Y0354086D01*
X0294521Y0355684D02*
X0269229Y0355684D01*
X0269891Y0357283D02*
X0292923Y0357283D01*
X0291987Y0358219D02*
X0300441Y0349765D01*
X0301323Y0349400D01*
X0309136Y0349400D01*
X0309771Y0348764D01*
X0311088Y0348219D01*
X0312512Y0348219D01*
X0313829Y0348764D01*
X0314836Y0349771D01*
X0315381Y0351088D01*
X0315381Y0352512D01*
X0314836Y0353829D01*
X0313829Y0354836D01*
X0312512Y0355381D01*
X0311088Y0355381D01*
X0309771Y0354836D01*
X0309136Y0354200D01*
X0302794Y0354200D01*
X0295381Y0361613D01*
X0295381Y0362512D01*
X0294836Y0363829D01*
X0293829Y0364836D01*
X0292512Y0365381D01*
X0291088Y0365381D01*
X0289771Y0364836D01*
X0288764Y0363829D01*
X0288219Y0362512D01*
X0288219Y0361088D01*
X0288764Y0359771D01*
X0289771Y0358764D01*
X0291088Y0358219D01*
X0291987Y0358219D01*
X0289654Y0358881D02*
X0270537Y0358881D01*
X0270537Y0360480D02*
X0288471Y0360480D01*
X0288219Y0362078D02*
X0270537Y0362078D01*
X0269974Y0363677D02*
X0288701Y0363677D01*
X0290833Y0365275D02*
X0269312Y0365275D01*
X0267862Y0366874D02*
X0376921Y0366874D01*
X0376921Y0368472D02*
X0358125Y0368472D01*
X0357512Y0368219D02*
X0358829Y0368764D01*
X0359836Y0369771D01*
X0360381Y0371088D01*
X0360381Y0372512D01*
X0359836Y0373829D01*
X0358829Y0374836D01*
X0357512Y0375381D01*
X0356088Y0375381D01*
X0354771Y0374836D01*
X0354136Y0374200D01*
X0344464Y0374200D01*
X0343829Y0374836D01*
X0342512Y0375381D01*
X0341088Y0375381D01*
X0339771Y0374836D01*
X0338764Y0373829D01*
X0338219Y0372512D01*
X0338219Y0371088D01*
X0338764Y0369771D01*
X0339771Y0368764D01*
X0341088Y0368219D01*
X0342512Y0368219D01*
X0343829Y0368764D01*
X0344464Y0369400D01*
X0354136Y0369400D01*
X0354771Y0368764D01*
X0356088Y0368219D01*
X0357512Y0368219D01*
X0355475Y0368472D02*
X0343125Y0368472D01*
X0340475Y0368472D02*
X0308125Y0368472D01*
X0309960Y0370071D02*
X0338640Y0370071D01*
X0338219Y0371670D02*
X0310381Y0371670D01*
X0310068Y0373268D02*
X0315969Y0373268D01*
X0317631Y0373268D02*
X0338532Y0373268D01*
X0339845Y0374867D02*
X0319875Y0374867D01*
X0320381Y0376465D02*
X0376921Y0376465D01*
X0376921Y0374867D02*
X0358755Y0374867D01*
X0360068Y0373268D02*
X0376921Y0373268D01*
X0376921Y0371670D02*
X0360381Y0371670D01*
X0359960Y0370071D02*
X0376921Y0370071D01*
X0376921Y0365275D02*
X0292767Y0365275D01*
X0294899Y0363677D02*
X0376921Y0363677D01*
X0376921Y0362078D02*
X0295381Y0362078D01*
X0296514Y0360480D02*
X0376921Y0360480D01*
X0376921Y0358881D02*
X0298113Y0358881D01*
X0299711Y0357283D02*
X0376921Y0357283D01*
X0376921Y0355684D02*
X0301310Y0355684D01*
X0301800Y0351800D02*
X0291800Y0361800D01*
X0288125Y0368472D02*
X0295475Y0368472D01*
X0293640Y0370071D02*
X0289960Y0370071D01*
X0290381Y0371670D02*
X0293219Y0371670D01*
X0293532Y0373268D02*
X0290068Y0373268D01*
X0285475Y0368472D02*
X0265576Y0368472D01*
X0258024Y0368472D02*
X0203125Y0368472D01*
X0200475Y0368472D02*
X0155576Y0368472D01*
X0157862Y0366874D02*
X0255738Y0366874D01*
X0254288Y0365275D02*
X0159312Y0365275D01*
X0159974Y0363677D02*
X0253626Y0363677D01*
X0253063Y0362078D02*
X0160537Y0362078D01*
X0160537Y0360480D02*
X0253063Y0360480D01*
X0253063Y0358881D02*
X0160537Y0358881D01*
X0159891Y0357283D02*
X0253709Y0357283D01*
X0254371Y0355684D02*
X0159229Y0355684D01*
X0162405Y0349290D02*
X0141195Y0349290D01*
X0141195Y0347692D02*
X0162405Y0347692D01*
X0162405Y0346093D02*
X0141195Y0346093D01*
X0141195Y0344495D02*
X0162405Y0344495D01*
X0162405Y0342896D02*
X0141195Y0342896D01*
X0143063Y0330108D02*
X0118171Y0330108D01*
X0118829Y0329836D02*
X0117512Y0330381D01*
X0116088Y0330381D01*
X0114771Y0329836D01*
X0113764Y0328829D01*
X0113219Y0327512D01*
X0113219Y0326088D01*
X0113719Y0324881D01*
X0112512Y0325381D01*
X0111088Y0325381D01*
X0109771Y0324836D01*
X0109136Y0324200D01*
X0104264Y0324200D01*
X0104836Y0324771D01*
X0105381Y0326088D01*
X0105381Y0327512D01*
X0104836Y0328829D01*
X0103829Y0329836D01*
X0102512Y0330381D01*
X0101088Y0330381D01*
X0099771Y0329836D01*
X0099136Y0329200D01*
X0064464Y0329200D01*
X0063829Y0329836D01*
X0062512Y0330381D01*
X0061088Y0330381D01*
X0059771Y0329836D01*
X0058764Y0328829D01*
X0058219Y0327512D01*
X0058219Y0326088D01*
X0058764Y0324771D01*
X0059771Y0323764D01*
X0061088Y0323219D01*
X0062512Y0323219D01*
X0063829Y0323764D01*
X0064464Y0324400D01*
X0078779Y0324400D01*
X0078430Y0324052D01*
X0077825Y0322591D01*
X0077825Y0321219D01*
X0075806Y0319200D01*
X0069464Y0319200D01*
X0068829Y0319836D01*
X0067512Y0320381D01*
X0066088Y0320381D01*
X0064771Y0319836D01*
X0063764Y0318829D01*
X0063219Y0317512D01*
X0063219Y0316088D01*
X0063764Y0314771D01*
X0064771Y0313764D01*
X0066088Y0313219D01*
X0067512Y0313219D01*
X0068829Y0313764D01*
X0069464Y0314400D01*
X0077277Y0314400D01*
X0078159Y0314765D01*
X0078835Y0315441D01*
X0081219Y0317825D01*
X0082591Y0317825D01*
X0084052Y0318430D01*
X0085170Y0319548D01*
X0085775Y0321009D01*
X0085775Y0322591D01*
X0085170Y0324052D01*
X0084821Y0324400D01*
X0088779Y0324400D01*
X0088430Y0324052D01*
X0087825Y0322591D01*
X0087825Y0321009D01*
X0088430Y0319548D01*
X0089548Y0318430D01*
X0091009Y0317825D01*
X0092591Y0317825D01*
X0094052Y0318430D01*
X0095021Y0319400D01*
X0109136Y0319400D01*
X0109771Y0318764D01*
X0111088Y0318219D01*
X0112512Y0318219D01*
X0113829Y0318764D01*
X0114836Y0319771D01*
X0115381Y0321088D01*
X0115381Y0322512D01*
X0114881Y0323719D01*
X0116088Y0323219D01*
X0116987Y0323219D01*
X0120441Y0319765D01*
X0121323Y0319400D01*
X0129136Y0319400D01*
X0129771Y0318764D01*
X0131088Y0318219D01*
X0132512Y0318219D01*
X0133829Y0318764D01*
X0134836Y0319771D01*
X0135381Y0321088D01*
X0135381Y0322512D01*
X0134836Y0323829D01*
X0133829Y0324836D01*
X0132512Y0325381D01*
X0131088Y0325381D01*
X0129771Y0324836D01*
X0129136Y0324200D01*
X0122794Y0324200D01*
X0120381Y0326613D01*
X0120381Y0327512D01*
X0119836Y0328829D01*
X0118829Y0329836D01*
X0119968Y0328510D02*
X0143396Y0328510D01*
X0144058Y0326911D02*
X0120381Y0326911D01*
X0121681Y0325313D02*
X0130923Y0325313D01*
X0132677Y0325313D02*
X0145183Y0325313D01*
X0144733Y0323395D02*
X0142932Y0324141D01*
X0140983Y0324141D01*
X0139182Y0323395D01*
X0137803Y0322017D01*
X0137057Y0320216D01*
X0137057Y0318266D01*
X0137803Y0316465D01*
X0139182Y0315087D01*
X0140983Y0314341D01*
X0142932Y0314341D01*
X0144733Y0315087D01*
X0146111Y0316465D01*
X0146857Y0318266D01*
X0146857Y0320216D01*
X0146111Y0322017D01*
X0144733Y0323395D01*
X0143962Y0323714D02*
X0146782Y0323714D01*
X0146012Y0322116D02*
X0147745Y0322116D01*
X0147025Y0320517D02*
X0146733Y0320517D01*
X0146857Y0318919D02*
X0146900Y0318919D01*
X0147292Y0317320D02*
X0146466Y0317320D01*
X0145368Y0315722D02*
X0148390Y0315722D01*
X0155210Y0315722D02*
X0158232Y0315722D01*
X0157134Y0317320D02*
X0156308Y0317320D01*
X0156700Y0318919D02*
X0156743Y0318919D01*
X0156867Y0320517D02*
X0156575Y0320517D01*
X0155855Y0322116D02*
X0157588Y0322116D01*
X0156818Y0323714D02*
X0159638Y0323714D01*
X0163647Y0323714D02*
X0193717Y0323714D01*
X0193156Y0322116D02*
X0178990Y0322116D01*
X0174610Y0322116D02*
X0165697Y0322116D01*
X0165053Y0315722D02*
X0175939Y0315722D01*
X0176137Y0314123D02*
X0069188Y0314123D01*
X0066800Y0316800D02*
X0076800Y0316800D01*
X0081800Y0321800D01*
X0084540Y0318919D02*
X0089060Y0318919D01*
X0088029Y0320517D02*
X0085571Y0320517D01*
X0085775Y0322116D02*
X0087825Y0322116D01*
X0088291Y0323714D02*
X0085309Y0323714D01*
X0078291Y0323714D02*
X0063708Y0323714D01*
X0061800Y0326800D02*
X0101800Y0326800D01*
X0103171Y0330108D02*
X0115429Y0330108D01*
X0113632Y0328510D02*
X0104968Y0328510D01*
X0105381Y0326911D02*
X0113219Y0326911D01*
X0113540Y0325313D02*
X0112677Y0325313D01*
X0110923Y0325313D02*
X0105060Y0325313D01*
X0111800Y0321800D02*
X0091800Y0321800D01*
X0094540Y0318919D02*
X0109617Y0318919D01*
X0113983Y0318919D02*
X0129617Y0318919D01*
X0131800Y0321800D02*
X0121800Y0321800D01*
X0116800Y0326800D01*
X0114892Y0323714D02*
X0114883Y0323714D01*
X0115381Y0322116D02*
X0118090Y0322116D01*
X0119689Y0320517D02*
X0115145Y0320517D01*
X0100429Y0330108D02*
X0063171Y0330108D01*
X0060429Y0330108D02*
X0036600Y0330108D01*
X0036600Y0328510D02*
X0058632Y0328510D01*
X0058219Y0326911D02*
X0036600Y0326911D01*
X0036600Y0325313D02*
X0058540Y0325313D01*
X0059892Y0323714D02*
X0036600Y0323714D01*
X0036600Y0322116D02*
X0077825Y0322116D01*
X0077123Y0320517D02*
X0036600Y0320517D01*
X0036600Y0318919D02*
X0063854Y0318919D01*
X0063219Y0317320D02*
X0036600Y0317320D01*
X0036600Y0315722D02*
X0063371Y0315722D01*
X0064412Y0314123D02*
X0036600Y0314123D01*
X0036600Y0312525D02*
X0174130Y0312525D01*
X0172532Y0310926D02*
X0036600Y0310926D01*
X0036600Y0309328D02*
X0079263Y0309328D01*
X0078309Y0307729D02*
X0036600Y0307729D01*
X0036600Y0306131D02*
X0078219Y0306131D01*
X0079004Y0304532D02*
X0036600Y0304532D01*
X0036600Y0302934D02*
X0124539Y0302934D01*
X0122941Y0301335D02*
X0036600Y0301335D01*
X0036600Y0299737D02*
X0119672Y0299737D01*
X0118478Y0298138D02*
X0036600Y0298138D01*
X0036600Y0296539D02*
X0118219Y0296539D01*
X0118694Y0294941D02*
X0036600Y0294941D01*
X0036600Y0290145D02*
X0060519Y0290145D01*
X0058647Y0288547D02*
X0036600Y0288547D01*
X0036600Y0286948D02*
X0058219Y0286948D01*
X0058524Y0285350D02*
X0036600Y0285350D01*
X0036600Y0283751D02*
X0059802Y0283751D01*
X0061800Y0286800D02*
X0101800Y0286800D01*
X0105075Y0285350D02*
X0111012Y0285350D01*
X0112588Y0285350D02*
X0138524Y0285350D01*
X0138219Y0286948D02*
X0105381Y0286948D01*
X0104953Y0288547D02*
X0138647Y0288547D01*
X0140519Y0290145D02*
X0103081Y0290145D01*
X0100519Y0290145D02*
X0063081Y0290145D01*
X0063798Y0283751D02*
X0068732Y0283751D01*
X0068219Y0282153D02*
X0036600Y0282153D01*
X0036600Y0280554D02*
X0068440Y0280554D01*
X0069580Y0278956D02*
X0036600Y0278956D01*
X0036600Y0277357D02*
X0098219Y0277357D01*
X0098355Y0275759D02*
X0036600Y0275759D01*
X0036600Y0274160D02*
X0099375Y0274160D01*
X0101800Y0276800D02*
X0141800Y0276800D01*
X0141800Y0281800D01*
X0151800Y0281800D01*
X0161800Y0281800D01*
X0165160Y0280554D02*
X0173440Y0280554D01*
X0173219Y0282153D02*
X0165381Y0282153D01*
X0164868Y0283751D02*
X0173732Y0283751D01*
X0174580Y0278956D02*
X0164020Y0278956D01*
X0159580Y0278956D02*
X0154020Y0278956D01*
X0149580Y0278956D02*
X0144709Y0278956D01*
X0145381Y0277357D02*
X0218219Y0277357D01*
X0218355Y0275759D02*
X0145245Y0275759D01*
X0144504Y0274160D02*
X0219375Y0274160D01*
X0221800Y0276800D02*
X0246800Y0276800D01*
X0244375Y0274160D02*
X0224225Y0274160D01*
X0226800Y0281800D02*
X0216800Y0281800D01*
X0213440Y0280554D02*
X0210160Y0280554D01*
X0210381Y0282153D02*
X0213219Y0282153D01*
X0213732Y0283751D02*
X0209868Y0283751D01*
X0207588Y0285350D02*
X0216012Y0285350D01*
X0217588Y0285350D02*
X0226012Y0285350D01*
X0227588Y0285350D02*
X0236012Y0285350D01*
X0237588Y0285350D02*
X0238524Y0285350D01*
X0238219Y0286948D02*
X0205046Y0286948D01*
X0203447Y0288547D02*
X0225296Y0288547D01*
X0223609Y0290145D02*
X0153081Y0290145D01*
X0150519Y0290145D02*
X0143081Y0290145D01*
X0141800Y0286800D02*
X0151800Y0286800D01*
X0201800Y0286800D01*
X0206800Y0281800D01*
X0203440Y0280554D02*
X0200160Y0280554D01*
X0200381Y0282153D02*
X0203053Y0282153D01*
X0201454Y0283751D02*
X0199868Y0283751D01*
X0199020Y0278956D02*
X0204580Y0278956D01*
X0209020Y0278956D02*
X0214580Y0278956D01*
X0228304Y0288547D02*
X0238647Y0288547D01*
X0241800Y0286800D02*
X0326800Y0286800D01*
X0324802Y0283751D02*
X0254868Y0283751D01*
X0251800Y0281800D02*
X0236800Y0281800D01*
X0233440Y0280554D02*
X0230160Y0280554D01*
X0230381Y0282153D02*
X0233219Y0282153D01*
X0233732Y0283751D02*
X0229868Y0283751D01*
X0228575Y0294941D02*
X0257429Y0294941D01*
X0263264Y0301335D02*
X0293219Y0301335D01*
X0293393Y0302934D02*
X0264651Y0302934D01*
X0266250Y0304532D02*
X0294468Y0304532D01*
X0296800Y0301800D02*
X0356800Y0301800D01*
X0360207Y0302934D02*
X0376921Y0302934D01*
X0376921Y0304532D02*
X0364596Y0304532D01*
X0365381Y0306131D02*
X0376921Y0306131D01*
X0376921Y0307729D02*
X0365291Y0307729D01*
X0364337Y0309328D02*
X0376921Y0309328D01*
X0376921Y0310926D02*
X0355314Y0310926D01*
X0355376Y0312525D02*
X0376921Y0312525D01*
X0376921Y0314123D02*
X0354541Y0314123D01*
X0351800Y0311800D02*
X0316800Y0311800D01*
X0311800Y0316800D01*
X0281800Y0316800D01*
X0278371Y0315722D02*
X0275336Y0315722D01*
X0276381Y0317320D02*
X0278219Y0317320D01*
X0278854Y0318919D02*
X0276743Y0318919D01*
X0276743Y0319524D02*
X0276743Y0319642D01*
X0276617Y0320435D01*
X0276369Y0321199D01*
X0276004Y0321914D01*
X0275533Y0322563D01*
X0274965Y0323131D01*
X0274316Y0323603D01*
X0273600Y0323967D01*
X0272837Y0324215D01*
X0272044Y0324341D01*
X0271925Y0324341D01*
X0271925Y0319524D01*
X0276743Y0319524D01*
X0276590Y0320517D02*
X0293455Y0320517D01*
X0293219Y0322116D02*
X0275858Y0322116D01*
X0274097Y0323714D02*
X0289892Y0323714D01*
X0288540Y0325313D02*
X0268417Y0325313D01*
X0269188Y0323714D02*
X0266818Y0323714D01*
X0267427Y0322116D02*
X0265855Y0322116D01*
X0266575Y0320517D02*
X0266695Y0320517D01*
X0266904Y0317320D02*
X0266308Y0317320D01*
X0265210Y0315722D02*
X0267949Y0315722D01*
X0271360Y0320517D02*
X0271925Y0320517D01*
X0271925Y0322116D02*
X0271360Y0322116D01*
X0271360Y0323714D02*
X0271925Y0323714D01*
X0269542Y0326911D02*
X0288219Y0326911D01*
X0288214Y0328510D02*
X0288632Y0328510D01*
X0285386Y0328510D02*
X0270204Y0328510D01*
X0270537Y0330108D02*
X0283625Y0330108D01*
X0283219Y0331707D02*
X0270537Y0331707D01*
X0270324Y0333305D02*
X0283547Y0333305D01*
X0284935Y0334904D02*
X0269661Y0334904D01*
X0268706Y0336502D02*
X0376921Y0336502D01*
X0376921Y0334904D02*
X0368665Y0334904D01*
X0370053Y0333305D02*
X0376921Y0333305D01*
X0376921Y0331707D02*
X0370381Y0331707D01*
X0369975Y0330108D02*
X0376921Y0330108D01*
X0376921Y0328510D02*
X0368214Y0328510D01*
X0365386Y0328510D02*
X0359968Y0328510D01*
X0360381Y0326911D02*
X0376921Y0326911D01*
X0376921Y0325313D02*
X0372677Y0325313D01*
X0370923Y0325313D02*
X0360060Y0325313D01*
X0356800Y0326800D02*
X0341800Y0326800D01*
X0338219Y0326911D02*
X0310381Y0326911D01*
X0310060Y0325313D02*
X0330923Y0325313D01*
X0332677Y0325313D02*
X0338540Y0325313D01*
X0339892Y0323714D02*
X0334883Y0323714D01*
X0335381Y0322116D02*
X0348219Y0322116D01*
X0348455Y0320517D02*
X0335145Y0320517D01*
X0333983Y0318919D02*
X0349617Y0318919D01*
X0351800Y0321800D02*
X0371800Y0321800D01*
X0375145Y0320517D02*
X0376921Y0320517D01*
X0376921Y0318919D02*
X0373983Y0318919D01*
X0376921Y0317320D02*
X0314674Y0317320D01*
X0316272Y0315722D02*
X0376921Y0315722D01*
X0369617Y0318919D02*
X0353983Y0318919D01*
X0348717Y0323714D02*
X0343708Y0323714D01*
X0338632Y0328510D02*
X0323214Y0328510D01*
X0320386Y0328510D02*
X0309968Y0328510D01*
X0306800Y0326800D02*
X0291800Y0326800D01*
X0293708Y0323714D02*
X0293717Y0323714D01*
X0296800Y0321800D02*
X0331800Y0321800D01*
X0329617Y0318919D02*
X0312957Y0318919D01*
X0311083Y0314123D02*
X0309541Y0314123D01*
X0310376Y0312525D02*
X0312681Y0312525D01*
X0314280Y0310926D02*
X0310314Y0310926D01*
X0309392Y0309328D02*
X0319263Y0309328D01*
X0318309Y0307729D02*
X0266550Y0307729D01*
X0266550Y0306131D02*
X0318219Y0306131D01*
X0319004Y0304532D02*
X0299132Y0304532D01*
X0293799Y0299737D02*
X0265581Y0299737D01*
X0266387Y0298138D02*
X0313478Y0298138D01*
X0313219Y0296539D02*
X0266550Y0296539D01*
X0266171Y0294941D02*
X0300025Y0294941D01*
X0303575Y0294941D02*
X0313694Y0294941D01*
X0316800Y0296800D02*
X0331800Y0296800D01*
X0321800Y0306800D02*
X0361800Y0306800D01*
X0359263Y0309328D02*
X0354392Y0309328D01*
X0360381Y0301335D02*
X0376921Y0301335D01*
X0376921Y0322116D02*
X0375381Y0322116D01*
X0374883Y0323714D02*
X0376921Y0323714D01*
X0376921Y0338101D02*
X0267107Y0338101D01*
X0263754Y0339699D02*
X0273331Y0339699D01*
X0273342Y0339688D02*
X0272405Y0340625D01*
X0272405Y0352975D01*
X0273342Y0353912D01*
X0285691Y0353912D01*
X0286628Y0352975D01*
X0286628Y0340625D01*
X0285691Y0339688D01*
X0273342Y0339688D01*
X0272405Y0341298D02*
X0251195Y0341298D01*
X0251195Y0342896D02*
X0272405Y0342896D01*
X0272405Y0344495D02*
X0251195Y0344495D01*
X0251195Y0346093D02*
X0272405Y0346093D01*
X0272405Y0347692D02*
X0251195Y0347692D01*
X0251195Y0349290D02*
X0272405Y0349290D01*
X0286628Y0349290D02*
X0309245Y0349290D01*
X0311800Y0351800D02*
X0301800Y0351800D01*
X0299317Y0350889D02*
X0286628Y0350889D01*
X0286628Y0352487D02*
X0297719Y0352487D01*
X0286628Y0347692D02*
X0376921Y0347692D01*
X0376921Y0349290D02*
X0344355Y0349290D01*
X0344836Y0349771D02*
X0345381Y0351088D01*
X0345381Y0352512D01*
X0344836Y0353829D01*
X0343829Y0354836D01*
X0342512Y0355381D01*
X0341088Y0355381D01*
X0339771Y0354836D01*
X0339536Y0354600D01*
X0324064Y0354600D01*
X0323829Y0354836D01*
X0322512Y0355381D01*
X0321088Y0355381D01*
X0319771Y0354836D01*
X0318764Y0353829D01*
X0318219Y0352512D01*
X0318219Y0351088D01*
X0318764Y0349771D01*
X0319771Y0348764D01*
X0321088Y0348219D01*
X0322512Y0348219D01*
X0323829Y0348764D01*
X0324064Y0349000D01*
X0339536Y0349000D01*
X0339771Y0348764D01*
X0341088Y0348219D01*
X0342512Y0348219D01*
X0343829Y0348764D01*
X0344836Y0349771D01*
X0345299Y0350889D02*
X0376921Y0350889D01*
X0376921Y0352487D02*
X0345381Y0352487D01*
X0344579Y0354086D02*
X0376921Y0354086D01*
X0376921Y0346093D02*
X0286628Y0346093D01*
X0286628Y0344495D02*
X0339430Y0344495D01*
X0339771Y0344836D02*
X0338764Y0343829D01*
X0338219Y0342512D01*
X0338219Y0341088D01*
X0338764Y0339771D01*
X0339771Y0338764D01*
X0341088Y0338219D01*
X0342512Y0338219D01*
X0343829Y0338764D01*
X0344464Y0339400D01*
X0359136Y0339400D01*
X0359771Y0338764D01*
X0361088Y0338219D01*
X0362512Y0338219D01*
X0363829Y0338764D01*
X0364836Y0339771D01*
X0365381Y0341088D01*
X0365381Y0342512D01*
X0364836Y0343829D01*
X0363829Y0344836D01*
X0362512Y0345381D01*
X0361088Y0345381D01*
X0359771Y0344836D01*
X0359136Y0344200D01*
X0344464Y0344200D01*
X0343829Y0344836D01*
X0342512Y0345381D01*
X0341088Y0345381D01*
X0339771Y0344836D01*
X0338378Y0342896D02*
X0286628Y0342896D01*
X0286628Y0341298D02*
X0338219Y0341298D01*
X0338836Y0339699D02*
X0285702Y0339699D01*
X0288665Y0334904D02*
X0319935Y0334904D01*
X0323665Y0334904D02*
X0364935Y0334904D01*
X0364764Y0339699D02*
X0376921Y0339699D01*
X0376921Y0341298D02*
X0365381Y0341298D01*
X0365222Y0342896D02*
X0376921Y0342896D01*
X0376921Y0344495D02*
X0364170Y0344495D01*
X0361800Y0341800D02*
X0341800Y0341800D01*
X0344170Y0344495D02*
X0359430Y0344495D01*
X0356800Y0371800D02*
X0341800Y0371800D01*
X0343755Y0374867D02*
X0354845Y0374867D01*
X0376921Y0378064D02*
X0320153Y0378064D01*
X0319002Y0379662D02*
X0376921Y0379662D01*
X0376921Y0381261D02*
X0295381Y0381261D01*
X0295237Y0382859D02*
X0376921Y0382859D01*
X0376921Y0384458D02*
X0334522Y0384458D01*
X0335368Y0386056D02*
X0376921Y0386056D01*
X0376921Y0387655D02*
X0335322Y0387655D01*
X0334411Y0389253D02*
X0376921Y0389253D01*
X0376921Y0390852D02*
X0330283Y0390852D01*
X0330381Y0392450D02*
X0376921Y0392450D01*
X0376921Y0394049D02*
X0329616Y0394049D01*
X0331800Y0386800D02*
X0116800Y0386800D01*
X0111800Y0381800D01*
X0076800Y0381800D01*
X0073363Y0382859D02*
X0036600Y0382859D01*
X0036600Y0381261D02*
X0073219Y0381261D01*
X0073873Y0379662D02*
X0036600Y0379662D01*
X0036600Y0378064D02*
X0093447Y0378064D01*
X0093219Y0376465D02*
X0036600Y0376465D01*
X0036600Y0374867D02*
X0093725Y0374867D01*
X0095969Y0373268D02*
X0036600Y0373268D01*
X0036600Y0371670D02*
X0198219Y0371670D01*
X0198532Y0373268D02*
X0097631Y0373268D01*
X0096800Y0376800D02*
X0316800Y0376800D01*
X0314598Y0379662D02*
X0294726Y0379662D01*
X0291800Y0381800D02*
X0121800Y0381800D01*
X0114261Y0387655D02*
X0110322Y0387655D01*
X0110368Y0386056D02*
X0112662Y0386056D01*
X0111063Y0384458D02*
X0109522Y0384458D01*
X0106800Y0386800D02*
X0096800Y0386800D01*
X0096800Y0391800D01*
X0041800Y0391800D01*
X0039282Y0389253D02*
X0036600Y0389253D01*
X0036600Y0387655D02*
X0043278Y0387655D01*
X0043232Y0386056D02*
X0036600Y0386056D01*
X0036600Y0384458D02*
X0044078Y0384458D01*
X0046800Y0386800D02*
X0066800Y0386800D01*
X0081800Y0386800D01*
X0091800Y0386800D02*
X0096800Y0386800D01*
X0099200Y0389253D02*
X0104189Y0389253D01*
X0099200Y0390852D02*
X0208317Y0390852D01*
X0208219Y0392450D02*
X0099128Y0392450D01*
X0097643Y0394049D02*
X0208984Y0394049D01*
X0209282Y0389253D02*
X0109411Y0389253D01*
X0102512Y0365381D02*
X0101088Y0365381D01*
X0099771Y0364836D01*
X0099136Y0364200D01*
X0064464Y0364200D01*
X0063829Y0364836D01*
X0062512Y0365381D01*
X0061088Y0365381D01*
X0059771Y0364836D01*
X0058764Y0363829D01*
X0058219Y0362512D01*
X0058219Y0361088D01*
X0058764Y0359771D01*
X0059771Y0358764D01*
X0061088Y0358219D01*
X0062512Y0358219D01*
X0063719Y0358719D01*
X0063219Y0357512D01*
X0063219Y0356088D01*
X0063764Y0354771D01*
X0064771Y0353764D01*
X0066088Y0353219D01*
X0067512Y0353219D01*
X0068829Y0353764D01*
X0069464Y0354400D01*
X0078579Y0354400D01*
X0079548Y0353430D01*
X0081009Y0352825D01*
X0082591Y0352825D01*
X0084052Y0353430D01*
X0085170Y0354548D01*
X0085775Y0356009D01*
X0085775Y0357591D01*
X0085170Y0359052D01*
X0084821Y0359400D01*
X0088779Y0359400D01*
X0088430Y0359052D01*
X0087825Y0357591D01*
X0087825Y0356009D01*
X0088430Y0354548D01*
X0089548Y0353430D01*
X0091009Y0352825D01*
X0092591Y0352825D01*
X0094052Y0353430D01*
X0095021Y0354400D01*
X0104136Y0354400D01*
X0104771Y0353764D01*
X0106088Y0353219D01*
X0107512Y0353219D01*
X0108829Y0353764D01*
X0109836Y0354771D01*
X0110381Y0356088D01*
X0110381Y0357512D01*
X0109836Y0358829D01*
X0108829Y0359836D01*
X0107512Y0360381D01*
X0106088Y0360381D01*
X0104881Y0359881D01*
X0105381Y0361088D01*
X0105381Y0362512D01*
X0104836Y0363829D01*
X0103829Y0364836D01*
X0102512Y0365381D01*
X0102767Y0365275D02*
X0144288Y0365275D01*
X0143626Y0363677D02*
X0104899Y0363677D01*
X0105381Y0362078D02*
X0143063Y0362078D01*
X0143063Y0360480D02*
X0105129Y0360480D01*
X0101800Y0361800D02*
X0061800Y0361800D01*
X0058471Y0360480D02*
X0036600Y0360480D01*
X0036600Y0362078D02*
X0058219Y0362078D01*
X0058701Y0363677D02*
X0036600Y0363677D01*
X0036600Y0365275D02*
X0060833Y0365275D01*
X0062767Y0365275D02*
X0100833Y0365275D01*
X0106800Y0356800D02*
X0091800Y0356800D01*
X0094707Y0354086D02*
X0104450Y0354086D01*
X0109150Y0354086D02*
X0116047Y0354086D01*
X0116800Y0351800D02*
X0111800Y0346800D01*
X0109226Y0349290D02*
X0036600Y0349290D01*
X0036600Y0347692D02*
X0108293Y0347692D01*
X0108219Y0346093D02*
X0036600Y0346093D01*
X0036600Y0344495D02*
X0109041Y0344495D01*
X0114559Y0344495D02*
X0119430Y0344495D01*
X0119245Y0349290D02*
X0117684Y0349290D01*
X0116800Y0351800D02*
X0121800Y0351800D01*
X0114093Y0352487D02*
X0036600Y0352487D01*
X0036600Y0350889D02*
X0112495Y0350889D01*
X0110214Y0355684D02*
X0144371Y0355684D01*
X0143709Y0357283D02*
X0110381Y0357283D01*
X0109783Y0358881D02*
X0143063Y0358881D01*
X0145738Y0366874D02*
X0036600Y0366874D01*
X0036600Y0368472D02*
X0148024Y0368472D01*
X0126972Y0342896D02*
X0125222Y0342896D01*
X0125381Y0341298D02*
X0126972Y0341298D01*
X0127898Y0339699D02*
X0124764Y0339699D01*
X0134883Y0323714D02*
X0139953Y0323714D01*
X0137903Y0322116D02*
X0135381Y0322116D01*
X0135145Y0320517D02*
X0137182Y0320517D01*
X0137057Y0318919D02*
X0133983Y0318919D01*
X0137449Y0317320D02*
X0080714Y0317320D01*
X0079116Y0315722D02*
X0138547Y0315722D01*
X0126800Y0301800D02*
X0121800Y0296800D01*
X0125381Y0296539D02*
X0138219Y0296539D01*
X0138478Y0298138D02*
X0126532Y0298138D01*
X0124906Y0294941D02*
X0138694Y0294941D01*
X0139802Y0283751D02*
X0114868Y0283751D01*
X0115381Y0282153D02*
X0139400Y0282153D01*
X0139400Y0280554D02*
X0115160Y0280554D01*
X0111800Y0281800D02*
X0091800Y0281800D01*
X0094577Y0278956D02*
X0098891Y0278956D01*
X0104225Y0274160D02*
X0124096Y0274160D01*
X0123239Y0272562D02*
X0036600Y0272562D01*
X0036600Y0270963D02*
X0123270Y0270963D01*
X0124171Y0269365D02*
X0109300Y0269365D01*
X0106800Y0266800D02*
X0181800Y0266800D01*
X0179300Y0269365D02*
X0144429Y0269365D01*
X0141800Y0271800D02*
X0126800Y0271800D01*
X0130107Y0258175D02*
X0149781Y0258175D01*
X0148183Y0256577D02*
X0130381Y0256577D01*
X0129922Y0254978D02*
X0146584Y0254978D01*
X0151800Y0256800D02*
X0261800Y0256800D01*
X0265107Y0258175D02*
X0376921Y0258175D01*
X0376921Y0256577D02*
X0265381Y0256577D01*
X0264922Y0254978D02*
X0300115Y0254978D01*
X0298578Y0253380D02*
X0262900Y0253380D01*
X0260700Y0253380D02*
X0240022Y0253380D01*
X0240381Y0251781D02*
X0298219Y0251781D01*
X0298594Y0250183D02*
X0240006Y0250183D01*
X0236800Y0251800D02*
X0226800Y0251800D01*
X0211800Y0251800D01*
X0219058Y0238993D02*
X0219542Y0238993D01*
X0224058Y0238993D02*
X0229542Y0238993D01*
X0234058Y0238993D02*
X0284542Y0238993D01*
X0283424Y0240592D02*
X0235176Y0240592D01*
X0235381Y0242190D02*
X0283219Y0242190D01*
X0283748Y0243789D02*
X0234852Y0243789D01*
X0224837Y0259774D02*
X0259709Y0259774D01*
X0263891Y0259774D02*
X0376921Y0259774D01*
X0376921Y0261372D02*
X0225381Y0261372D01*
X0225191Y0262971D02*
X0376921Y0262971D01*
X0376921Y0264569D02*
X0329634Y0264569D01*
X0330381Y0266168D02*
X0376921Y0266168D01*
X0376921Y0267766D02*
X0330276Y0267766D01*
X0324300Y0269365D02*
X0294300Y0269365D01*
X0289300Y0269365D02*
X0259300Y0269365D01*
X0253966Y0264569D02*
X0224095Y0264569D01*
X0249225Y0274160D02*
X0319375Y0274160D01*
X0318355Y0275759D02*
X0250245Y0275759D01*
X0250381Y0277357D02*
X0318219Y0277357D01*
X0318891Y0278956D02*
X0254020Y0278956D01*
X0241800Y0306800D02*
X0226800Y0306800D01*
X0221800Y0311800D01*
X0176800Y0311800D01*
X0171800Y0306800D01*
X0081800Y0306800D01*
X0084337Y0309328D02*
X0170933Y0309328D01*
X0174525Y0306131D02*
X0178219Y0306131D01*
X0178309Y0307729D02*
X0176123Y0307729D01*
X0177722Y0309328D02*
X0179263Y0309328D01*
X0181800Y0306800D02*
X0191800Y0306800D01*
X0194337Y0309328D02*
X0220878Y0309328D01*
X0222477Y0307729D02*
X0195291Y0307729D01*
X0195381Y0306131D02*
X0224075Y0306131D01*
X0226004Y0304532D02*
X0204132Y0304532D01*
X0199468Y0304532D02*
X0194596Y0304532D01*
X0198393Y0302934D02*
X0190207Y0302934D01*
X0190381Y0301335D02*
X0197375Y0301335D01*
X0195777Y0299737D02*
X0189801Y0299737D01*
X0186800Y0301800D02*
X0126800Y0301800D01*
X0104300Y0269365D02*
X0036600Y0269365D01*
X0036600Y0267766D02*
X0103324Y0267766D01*
X0103219Y0266168D02*
X0036600Y0266168D01*
X0056800Y0241800D02*
X0076800Y0241800D01*
X0091800Y0241800D01*
X0095176Y0240592D02*
X0129400Y0240592D01*
X0129400Y0242190D02*
X0095381Y0242190D01*
X0094852Y0243789D02*
X0129400Y0243789D01*
X0129400Y0238993D02*
X0094058Y0238993D01*
X0092341Y0237395D02*
X0129400Y0237395D01*
X0129400Y0235796D02*
X0093939Y0235796D01*
X0094758Y0234198D02*
X0129400Y0234198D01*
X0129400Y0232599D02*
X0095420Y0232599D01*
X0095537Y0231001D02*
X0129400Y0231001D01*
X0129400Y0229402D02*
X0095537Y0229402D01*
X0095107Y0227803D02*
X0129400Y0227803D01*
X0129400Y0226205D02*
X0094445Y0226205D01*
X0093183Y0224606D02*
X0129400Y0224606D01*
X0129400Y0223008D02*
X0111595Y0223008D01*
X0111628Y0221409D02*
X0129400Y0221409D01*
X0129400Y0219811D02*
X0111628Y0219811D01*
X0111628Y0218212D02*
X0129400Y0218212D01*
X0129400Y0216614D02*
X0111628Y0216614D01*
X0111628Y0215015D02*
X0129400Y0215015D01*
X0129400Y0213417D02*
X0111628Y0213417D01*
X0111628Y0211818D02*
X0129400Y0211818D01*
X0129400Y0210220D02*
X0111223Y0210220D01*
X0118966Y0199030D02*
X0095419Y0199030D01*
X0095537Y0200629D02*
X0128409Y0200629D01*
X0128219Y0202227D02*
X0095537Y0202227D01*
X0095108Y0203826D02*
X0128763Y0203826D01*
X0129400Y0205424D02*
X0094446Y0205424D01*
X0093185Y0207023D02*
X0129400Y0207023D01*
X0129400Y0208621D02*
X0091357Y0208621D01*
X0094757Y0197432D02*
X0118219Y0197432D01*
X0118324Y0195833D02*
X0093937Y0195833D01*
X0092339Y0194235D02*
X0119301Y0194235D01*
X0121800Y0196800D02*
X0186800Y0196800D01*
X0184301Y0194235D02*
X0159430Y0194235D01*
X0160330Y0192636D02*
X0198758Y0192636D01*
X0198096Y0194235D02*
X0189299Y0194235D01*
X0190276Y0195833D02*
X0198063Y0195833D01*
X0198063Y0197432D02*
X0190381Y0197432D01*
X0189634Y0199030D02*
X0198577Y0199030D01*
X0199023Y0200629D02*
X0199239Y0200629D01*
X0197030Y0205424D02*
X0195994Y0205424D01*
X0196195Y0205625D02*
X0196195Y0217975D01*
X0195258Y0218912D01*
X0182909Y0218912D01*
X0181972Y0217975D01*
X0181972Y0205625D01*
X0182909Y0204688D01*
X0195258Y0204688D01*
X0196195Y0205625D01*
X0196195Y0207023D02*
X0198629Y0207023D01*
X0200227Y0208621D02*
X0196195Y0208621D01*
X0196195Y0210220D02*
X0217405Y0210220D01*
X0217405Y0211818D02*
X0196195Y0211818D01*
X0196195Y0213417D02*
X0217405Y0213417D01*
X0217405Y0215015D02*
X0196195Y0215015D01*
X0196195Y0216614D02*
X0217405Y0216614D01*
X0217405Y0208621D02*
X0213373Y0208621D01*
X0214971Y0207023D02*
X0217405Y0207023D01*
X0217606Y0205424D02*
X0216570Y0205424D01*
X0212543Y0189439D02*
X0239375Y0189439D01*
X0238355Y0187841D02*
X0219972Y0187841D01*
X0221117Y0186242D02*
X0238219Y0186242D01*
X0238892Y0184644D02*
X0221543Y0184644D01*
X0216643Y0184241D02*
X0216643Y0181800D01*
X0291800Y0181800D01*
X0295160Y0183045D02*
X0376921Y0183045D01*
X0376921Y0181447D02*
X0295381Y0181447D01*
X0294868Y0179848D02*
X0376921Y0179848D01*
X0376921Y0184644D02*
X0338348Y0184644D01*
X0337617Y0184341D02*
X0339418Y0185087D01*
X0340797Y0186465D01*
X0341543Y0188266D01*
X0341543Y0190216D01*
X0340797Y0192017D01*
X0339418Y0193395D01*
X0337617Y0194141D01*
X0335668Y0194141D01*
X0333867Y0193395D01*
X0332488Y0192017D01*
X0331743Y0190216D01*
X0331743Y0188266D01*
X0332488Y0186465D01*
X0333867Y0185087D01*
X0335668Y0184341D01*
X0337617Y0184341D01*
X0334937Y0184644D02*
X0328506Y0184644D01*
X0330731Y0186242D02*
X0332712Y0186242D01*
X0331919Y0187841D02*
X0331524Y0187841D01*
X0331700Y0189439D02*
X0331743Y0189439D01*
X0332083Y0191038D02*
X0331359Y0191038D01*
X0330334Y0192636D02*
X0333108Y0192636D01*
X0332339Y0194235D02*
X0376921Y0194235D01*
X0376921Y0195833D02*
X0333937Y0195833D01*
X0334757Y0197432D02*
X0376921Y0197432D01*
X0376921Y0199030D02*
X0335419Y0199030D01*
X0335537Y0200629D02*
X0376921Y0200629D01*
X0376921Y0202227D02*
X0335537Y0202227D01*
X0335108Y0203826D02*
X0376921Y0203826D01*
X0376921Y0205424D02*
X0334446Y0205424D01*
X0333185Y0207023D02*
X0376921Y0207023D01*
X0376921Y0208621D02*
X0331357Y0208621D01*
X0337405Y0210625D02*
X0338342Y0209688D01*
X0350691Y0209688D01*
X0351628Y0210625D01*
X0351628Y0222975D01*
X0350691Y0223912D01*
X0338342Y0223912D01*
X0337405Y0222975D01*
X0337405Y0210625D01*
X0337810Y0210220D02*
X0315790Y0210220D01*
X0316195Y0211818D02*
X0337405Y0211818D01*
X0337405Y0213417D02*
X0316195Y0213417D01*
X0316195Y0215015D02*
X0337405Y0215015D01*
X0337405Y0216614D02*
X0316195Y0216614D01*
X0316195Y0218212D02*
X0337405Y0218212D01*
X0337405Y0219811D02*
X0316195Y0219811D01*
X0316195Y0221409D02*
X0337405Y0221409D01*
X0337438Y0223008D02*
X0331352Y0223008D01*
X0333183Y0224606D02*
X0376921Y0224606D01*
X0376921Y0223008D02*
X0351595Y0223008D01*
X0351628Y0221409D02*
X0376921Y0221409D01*
X0376921Y0219811D02*
X0351628Y0219811D01*
X0351628Y0218212D02*
X0376921Y0218212D01*
X0376921Y0216614D02*
X0351628Y0216614D01*
X0351628Y0215015D02*
X0376921Y0215015D01*
X0376921Y0213417D02*
X0351628Y0213417D01*
X0351628Y0211818D02*
X0376921Y0211818D01*
X0376921Y0210220D02*
X0351223Y0210220D01*
X0340177Y0192636D02*
X0376921Y0192636D01*
X0376921Y0191038D02*
X0341202Y0191038D01*
X0341543Y0189439D02*
X0376921Y0189439D01*
X0376921Y0187841D02*
X0341366Y0187841D01*
X0340573Y0186242D02*
X0376921Y0186242D01*
X0376921Y0226205D02*
X0334445Y0226205D01*
X0335107Y0227803D02*
X0376921Y0227803D01*
X0376921Y0229402D02*
X0335537Y0229402D01*
X0335537Y0231001D02*
X0376921Y0231001D01*
X0376921Y0232599D02*
X0335420Y0232599D01*
X0334758Y0234198D02*
X0376921Y0234198D01*
X0376921Y0235796D02*
X0333939Y0235796D01*
X0332341Y0237395D02*
X0376921Y0237395D01*
X0376921Y0238993D02*
X0354058Y0238993D01*
X0355176Y0240592D02*
X0376921Y0240592D01*
X0376921Y0242190D02*
X0355381Y0242190D01*
X0354852Y0243789D02*
X0376921Y0243789D01*
X0376921Y0245387D02*
X0310091Y0245387D01*
X0310381Y0246986D02*
X0376921Y0246986D01*
X0376921Y0248584D02*
X0368394Y0248584D01*
X0368829Y0248764D02*
X0369836Y0249771D01*
X0370381Y0251088D01*
X0370381Y0252512D01*
X0369836Y0253829D01*
X0368829Y0254836D01*
X0367512Y0255381D01*
X0366088Y0255381D01*
X0364771Y0254836D01*
X0364136Y0254200D01*
X0359464Y0254200D01*
X0358829Y0254836D01*
X0357512Y0255381D01*
X0356088Y0255381D01*
X0354771Y0254836D01*
X0353764Y0253829D01*
X0353219Y0252512D01*
X0353219Y0251088D01*
X0353764Y0249771D01*
X0354771Y0248764D01*
X0356088Y0248219D01*
X0357512Y0248219D01*
X0358829Y0248764D01*
X0359464Y0249400D01*
X0364136Y0249400D01*
X0364771Y0248764D01*
X0366088Y0248219D01*
X0367512Y0248219D01*
X0368829Y0248764D01*
X0370006Y0250183D02*
X0376921Y0250183D01*
X0376921Y0251781D02*
X0370381Y0251781D01*
X0370022Y0253380D02*
X0376921Y0253380D01*
X0376921Y0254978D02*
X0368485Y0254978D01*
X0365115Y0254978D02*
X0358485Y0254978D01*
X0355115Y0254978D02*
X0313485Y0254978D01*
X0315022Y0253380D02*
X0353578Y0253380D01*
X0353219Y0251781D02*
X0315381Y0251781D01*
X0315006Y0250183D02*
X0353594Y0250183D01*
X0355206Y0248584D02*
X0313394Y0248584D01*
X0310206Y0248584D02*
X0309937Y0248584D01*
X0306800Y0246800D02*
X0176800Y0246800D01*
X0173663Y0248584D02*
X0168394Y0248584D01*
X0166800Y0251800D02*
X0176800Y0251800D01*
X0168929Y0238993D02*
X0152387Y0238993D01*
X0150789Y0237395D02*
X0168219Y0237395D01*
X0168340Y0235796D02*
X0149190Y0235796D01*
X0147592Y0234198D02*
X0169338Y0234198D01*
X0171800Y0236800D02*
X0176800Y0231800D01*
X0191800Y0231800D01*
X0194466Y0229402D02*
X0198926Y0229402D01*
X0198264Y0227803D02*
X0141198Y0227803D01*
X0140381Y0226205D02*
X0160022Y0226205D01*
X0160855Y0226550D02*
X0159109Y0225827D01*
X0157773Y0224491D01*
X0157050Y0222745D01*
X0157050Y0220855D01*
X0157773Y0219109D01*
X0159109Y0217773D01*
X0160855Y0217050D01*
X0162745Y0217050D01*
X0164491Y0217773D01*
X0165827Y0219109D01*
X0166550Y0220855D01*
X0166550Y0222745D01*
X0165827Y0224491D01*
X0164491Y0225827D01*
X0162745Y0226550D01*
X0160855Y0226550D01*
X0163578Y0226205D02*
X0198063Y0226205D01*
X0198063Y0224606D02*
X0165711Y0224606D01*
X0166441Y0223008D02*
X0198408Y0223008D01*
X0199070Y0221409D02*
X0166550Y0221409D01*
X0166117Y0219811D02*
X0200213Y0219811D01*
X0201811Y0218212D02*
X0195957Y0218212D01*
X0195345Y0231001D02*
X0199865Y0231001D01*
X0201464Y0232599D02*
X0195345Y0232599D01*
X0194467Y0234198D02*
X0204775Y0234198D01*
X0208825Y0234198D02*
X0318842Y0234198D01*
X0318180Y0232599D02*
X0212136Y0232599D01*
X0213735Y0231001D02*
X0318063Y0231001D01*
X0318063Y0229402D02*
X0214674Y0229402D01*
X0215336Y0227803D02*
X0318493Y0227803D01*
X0319155Y0226205D02*
X0215537Y0226205D01*
X0215537Y0224606D02*
X0320417Y0224606D01*
X0322248Y0223008D02*
X0316162Y0223008D01*
X0319661Y0235796D02*
X0176198Y0235796D01*
X0172607Y0232599D02*
X0145993Y0232599D01*
X0144395Y0231001D02*
X0174205Y0231001D01*
X0176318Y0229402D02*
X0142796Y0229402D01*
X0139671Y0224606D02*
X0157889Y0224606D01*
X0157159Y0223008D02*
X0134200Y0223008D01*
X0134200Y0221409D02*
X0157050Y0221409D01*
X0157483Y0219811D02*
X0134200Y0219811D01*
X0134200Y0218212D02*
X0158670Y0218212D01*
X0158298Y0215015D02*
X0134200Y0215015D01*
X0134200Y0213417D02*
X0157050Y0213417D01*
X0157050Y0211818D02*
X0134200Y0211818D01*
X0134200Y0210220D02*
X0157050Y0210220D01*
X0158261Y0208621D02*
X0134200Y0208621D01*
X0134200Y0207023D02*
X0168183Y0207023D01*
X0168494Y0205424D02*
X0134200Y0205424D01*
X0134200Y0216614D02*
X0181972Y0216614D01*
X0181972Y0215015D02*
X0165302Y0215015D01*
X0164930Y0218212D02*
X0182210Y0218212D01*
X0181972Y0213417D02*
X0168577Y0213417D01*
X0170176Y0211818D02*
X0181972Y0211818D01*
X0181972Y0210220D02*
X0172902Y0210220D01*
X0174922Y0208621D02*
X0181972Y0208621D01*
X0181972Y0207023D02*
X0175381Y0207023D01*
X0175106Y0205424D02*
X0182173Y0205424D01*
X0171800Y0206800D02*
X0166800Y0211800D01*
X0161800Y0211800D01*
X0165339Y0208621D02*
X0166585Y0208621D01*
X0160360Y0191038D02*
X0199458Y0191038D01*
X0201057Y0189439D02*
X0159504Y0189439D01*
X0168648Y0175053D02*
X0128305Y0175053D01*
X0128574Y0168659D02*
X0153694Y0168659D01*
X0153219Y0167060D02*
X0036600Y0167060D01*
X0036600Y0165462D02*
X0153478Y0165462D01*
X0153799Y0163863D02*
X0036600Y0163863D01*
X0036600Y0162265D02*
X0153219Y0162265D01*
X0153394Y0160666D02*
X0036600Y0160666D01*
X0036600Y0159068D02*
X0084003Y0159068D01*
X0083219Y0157469D02*
X0036600Y0157469D01*
X0036600Y0168659D02*
X0125026Y0168659D01*
X0123563Y0170257D02*
X0036600Y0170257D01*
X0036600Y0191038D02*
X0072179Y0191038D01*
X0073140Y0192636D02*
X0036600Y0192636D01*
X0036600Y0210220D02*
X0062377Y0210220D01*
X0061972Y0211818D02*
X0036600Y0211818D01*
X0036600Y0213417D02*
X0061972Y0213417D01*
X0061972Y0215015D02*
X0036600Y0215015D01*
X0036600Y0216614D02*
X0061972Y0216614D01*
X0061972Y0218212D02*
X0036600Y0218212D01*
X0036600Y0219811D02*
X0061972Y0219811D01*
X0061972Y0221409D02*
X0036600Y0221409D01*
X0036600Y0223008D02*
X0062005Y0223008D01*
X0056800Y0226800D02*
X0041800Y0226800D01*
X0039338Y0229402D02*
X0036600Y0229402D01*
X0036600Y0227803D02*
X0038340Y0227803D01*
X0038219Y0226205D02*
X0036600Y0226205D01*
X0036600Y0224606D02*
X0038929Y0224606D01*
X0044262Y0229402D02*
X0054338Y0229402D01*
X0059057Y0238993D02*
X0074542Y0238993D01*
X0079057Y0238993D02*
X0084281Y0238993D01*
X0089319Y0238993D02*
X0089542Y0238993D01*
X0080206Y0248584D02*
X0073394Y0248584D01*
X0071800Y0251800D02*
X0081800Y0251800D01*
X0096800Y0256800D02*
X0126800Y0256800D01*
X0138853Y0243789D02*
X0144747Y0243789D01*
X0148853Y0243789D02*
X0150395Y0243789D01*
X0179020Y0278956D02*
X0194580Y0278956D01*
X0179004Y0304532D02*
X0172596Y0304532D01*
X0177661Y0315722D02*
X0213371Y0315722D01*
X0213219Y0317320D02*
X0196280Y0317320D01*
X0198983Y0318919D02*
X0213854Y0318919D01*
X0216800Y0316800D02*
X0226800Y0316800D01*
X0231800Y0311800D01*
X0306800Y0311800D01*
X0304208Y0309328D02*
X0265990Y0309328D01*
X0249953Y0323714D02*
X0199883Y0323714D01*
X0200381Y0322116D02*
X0247903Y0322116D01*
X0247182Y0320517D02*
X0200145Y0320517D01*
X0175702Y0339699D02*
X0237898Y0339699D01*
X0236972Y0341298D02*
X0176628Y0341298D01*
X0176628Y0342896D02*
X0236972Y0342896D01*
X0236972Y0344495D02*
X0176628Y0344495D01*
X0176628Y0346093D02*
X0236972Y0346093D01*
X0236972Y0347692D02*
X0176628Y0347692D01*
X0176628Y0349290D02*
X0236972Y0349290D01*
X0236972Y0350889D02*
X0176628Y0350889D01*
X0176628Y0352487D02*
X0236972Y0352487D01*
X0250269Y0339699D02*
X0259846Y0339699D01*
X0247057Y0318919D02*
X0229746Y0318919D01*
X0230381Y0317320D02*
X0247449Y0317320D01*
X0248547Y0315722D02*
X0231272Y0315722D01*
X0198640Y0370071D02*
X0036600Y0370071D01*
X0036600Y0358881D02*
X0059654Y0358881D01*
X0063219Y0357283D02*
X0036600Y0357283D01*
X0036600Y0355684D02*
X0063386Y0355684D01*
X0064450Y0354086D02*
X0036600Y0354086D01*
X0036600Y0342896D02*
X0084502Y0342896D01*
X0082904Y0341298D02*
X0036600Y0341298D01*
X0066800Y0356800D02*
X0081800Y0356800D01*
X0084707Y0354086D02*
X0088893Y0354086D01*
X0087960Y0355684D02*
X0085640Y0355684D01*
X0085775Y0357283D02*
X0087825Y0357283D01*
X0088360Y0358881D02*
X0085240Y0358881D01*
X0078893Y0354086D02*
X0069150Y0354086D01*
X0038317Y0390852D02*
X0036600Y0390852D01*
X0036600Y0392450D02*
X0038219Y0392450D01*
X0038984Y0394049D02*
X0036600Y0394049D01*
X0036600Y0395647D02*
X0048401Y0395647D01*
X0048219Y0397246D02*
X0036600Y0397246D01*
X0036600Y0398844D02*
X0048780Y0398844D01*
X0051800Y0396800D02*
X0071800Y0396800D01*
X0075199Y0395647D02*
X0233401Y0395647D01*
X0233219Y0397246D02*
X0075381Y0397246D01*
X0074820Y0398844D02*
X0229691Y0398844D01*
X0228486Y0400443D02*
X0036600Y0400443D01*
X0036600Y0402041D02*
X0228219Y0402041D01*
X0228686Y0403640D02*
X0058528Y0403640D01*
X0058829Y0403764D02*
X0059064Y0404000D01*
X0067357Y0404000D01*
X0068386Y0404426D01*
X0077179Y0413219D01*
X0077512Y0413219D01*
X0078829Y0413764D01*
X0079836Y0414771D01*
X0080381Y0416088D01*
X0080381Y0417512D01*
X0079836Y0418829D01*
X0078829Y0419836D01*
X0077512Y0420381D01*
X0076088Y0420381D01*
X0074771Y0419836D01*
X0073764Y0418829D01*
X0073219Y0417512D01*
X0073219Y0417179D01*
X0065640Y0409600D01*
X0059064Y0409600D01*
X0058829Y0409836D01*
X0057512Y0410381D01*
X0056088Y0410381D01*
X0054771Y0409836D01*
X0053764Y0408829D01*
X0053219Y0407512D01*
X0053219Y0406088D01*
X0053764Y0404771D01*
X0054771Y0403764D01*
X0056088Y0403219D01*
X0057512Y0403219D01*
X0058829Y0403764D01*
X0055072Y0403640D02*
X0036600Y0403640D01*
X0036600Y0405238D02*
X0053571Y0405238D01*
X0053219Y0406837D02*
X0036600Y0406837D01*
X0036600Y0408435D02*
X0053601Y0408435D01*
X0055249Y0410034D02*
X0036600Y0410034D01*
X0036600Y0411632D02*
X0067673Y0411632D01*
X0069271Y0413231D02*
X0036600Y0413231D01*
X0036600Y0414829D02*
X0070870Y0414829D01*
X0072468Y0416428D02*
X0036600Y0416428D01*
X0036600Y0418026D02*
X0073432Y0418026D01*
X0074560Y0419625D02*
X0036600Y0419625D01*
X0036600Y0421223D02*
X0167231Y0421223D01*
X0167231Y0420891D02*
X0167927Y0419212D01*
X0169212Y0417927D01*
X0170891Y0417231D01*
X0172709Y0417231D01*
X0174388Y0417927D01*
X0175673Y0419212D01*
X0176368Y0420891D01*
X0176368Y0422709D01*
X0175673Y0424388D01*
X0174388Y0425673D01*
X0172709Y0426368D01*
X0170891Y0426368D01*
X0169212Y0425673D01*
X0167927Y0424388D01*
X0167231Y0422709D01*
X0167231Y0420891D01*
X0167756Y0419625D02*
X0079040Y0419625D01*
X0080168Y0418026D02*
X0169113Y0418026D01*
X0169212Y0415673D02*
X0167927Y0414388D01*
X0167231Y0412709D01*
X0167231Y0410891D01*
X0167927Y0409212D01*
X0169212Y0407927D01*
X0170891Y0407231D01*
X0172709Y0407231D01*
X0174388Y0407927D01*
X0175673Y0409212D01*
X0176368Y0410891D01*
X0176368Y0412709D01*
X0175673Y0414388D01*
X0174388Y0415673D01*
X0172709Y0416368D01*
X0170891Y0416368D01*
X0169212Y0415673D01*
X0168368Y0414829D02*
X0079860Y0414829D01*
X0080381Y0416428D02*
X0210612Y0416428D01*
X0210683Y0416451D02*
X0209970Y0416219D01*
X0209301Y0415878D01*
X0208694Y0415437D01*
X0208163Y0414906D01*
X0207722Y0414299D01*
X0207381Y0413630D01*
X0207149Y0412917D01*
X0207031Y0412175D01*
X0207031Y0411984D01*
X0211616Y0411984D01*
X0211616Y0411616D01*
X0211984Y0411616D01*
X0211984Y0407031D01*
X0212175Y0407031D01*
X0212917Y0407149D01*
X0213630Y0407381D01*
X0214299Y0407722D01*
X0214906Y0408163D01*
X0215437Y0408694D01*
X0215878Y0409301D01*
X0216219Y0409970D01*
X0216451Y0410683D01*
X0216568Y0411425D01*
X0216568Y0411616D01*
X0211984Y0411616D01*
X0211984Y0411984D01*
X0216568Y0411984D01*
X0216568Y0412175D01*
X0216451Y0412917D01*
X0216219Y0413630D01*
X0215878Y0414299D01*
X0215437Y0414906D01*
X0214906Y0415437D01*
X0214299Y0415878D01*
X0213630Y0416219D01*
X0212917Y0416451D01*
X0212175Y0416568D01*
X0211984Y0416568D01*
X0211984Y0411984D01*
X0211616Y0411984D01*
X0211616Y0416568D01*
X0211425Y0416568D01*
X0210683Y0416451D01*
X0210683Y0417149D02*
X0211425Y0417031D01*
X0211616Y0417031D01*
X0211616Y0421616D01*
X0211984Y0421616D01*
X0211984Y0417031D01*
X0212175Y0417031D01*
X0212917Y0417149D01*
X0213630Y0417381D01*
X0214299Y0417722D01*
X0214906Y0418163D01*
X0215437Y0418694D01*
X0215878Y0419301D01*
X0216219Y0419970D01*
X0216451Y0420683D01*
X0216568Y0421425D01*
X0216568Y0421616D01*
X0211984Y0421616D01*
X0211984Y0421984D01*
X0216568Y0421984D01*
X0216568Y0422175D01*
X0216451Y0422917D01*
X0216219Y0423630D01*
X0215878Y0424299D01*
X0215437Y0424906D01*
X0214906Y0425437D01*
X0214299Y0425878D01*
X0213630Y0426219D01*
X0212917Y0426451D01*
X0212175Y0426568D01*
X0211984Y0426568D01*
X0211984Y0421984D01*
X0211616Y0421984D01*
X0211616Y0421616D01*
X0207031Y0421616D01*
X0207031Y0421425D01*
X0207149Y0420683D01*
X0207381Y0419970D01*
X0207722Y0419301D01*
X0208163Y0418694D01*
X0208694Y0418163D01*
X0209301Y0417722D01*
X0209970Y0417381D01*
X0210683Y0417149D01*
X0211616Y0416428D02*
X0211984Y0416428D01*
X0212988Y0416428D02*
X0220612Y0416428D01*
X0220683Y0416451D02*
X0219970Y0416219D01*
X0219301Y0415878D01*
X0218694Y0415437D01*
X0218163Y0414906D01*
X0217722Y0414299D01*
X0217381Y0413630D01*
X0217149Y0412917D01*
X0217031Y0412175D01*
X0217031Y0411984D01*
X0221616Y0411984D01*
X0221616Y0411616D01*
X0221984Y0411616D01*
X0221984Y0407031D01*
X0222175Y0407031D01*
X0222917Y0407149D01*
X0223630Y0407381D01*
X0224299Y0407722D01*
X0224906Y0408163D01*
X0225437Y0408694D01*
X0225878Y0409301D01*
X0226219Y0409970D01*
X0226451Y0410683D01*
X0226568Y0411425D01*
X0226568Y0411616D01*
X0221984Y0411616D01*
X0221984Y0411984D01*
X0226568Y0411984D01*
X0226568Y0412175D01*
X0226451Y0412917D01*
X0226219Y0413630D01*
X0225878Y0414299D01*
X0225437Y0414906D01*
X0224906Y0415437D01*
X0224299Y0415878D01*
X0223630Y0416219D01*
X0222917Y0416451D01*
X0222175Y0416568D01*
X0221984Y0416568D01*
X0221984Y0411984D01*
X0221616Y0411984D01*
X0221616Y0416568D01*
X0221425Y0416568D01*
X0220683Y0416451D01*
X0220683Y0417149D02*
X0221425Y0417031D01*
X0221616Y0417031D01*
X0221616Y0421616D01*
X0221984Y0421616D01*
X0221984Y0417031D01*
X0222175Y0417031D01*
X0222917Y0417149D01*
X0223630Y0417381D01*
X0224299Y0417722D01*
X0224906Y0418163D01*
X0225437Y0418694D01*
X0225878Y0419301D01*
X0226219Y0419970D01*
X0226451Y0420683D01*
X0226568Y0421425D01*
X0226568Y0421616D01*
X0221984Y0421616D01*
X0221984Y0421984D01*
X0226568Y0421984D01*
X0226568Y0422175D01*
X0226451Y0422917D01*
X0226219Y0423630D01*
X0225878Y0424299D01*
X0225437Y0424906D01*
X0224906Y0425437D01*
X0224299Y0425878D01*
X0223630Y0426219D01*
X0222917Y0426451D01*
X0222175Y0426568D01*
X0221984Y0426568D01*
X0221984Y0421984D01*
X0221616Y0421984D01*
X0221616Y0421616D01*
X0217031Y0421616D01*
X0217031Y0421425D01*
X0217149Y0420683D01*
X0217381Y0419970D01*
X0217722Y0419301D01*
X0218163Y0418694D01*
X0218694Y0418163D01*
X0219301Y0417722D01*
X0219970Y0417381D01*
X0220683Y0417149D01*
X0221616Y0416428D02*
X0221984Y0416428D01*
X0222988Y0416428D02*
X0230612Y0416428D01*
X0230683Y0416451D02*
X0229970Y0416219D01*
X0229301Y0415878D01*
X0228694Y0415437D01*
X0228163Y0414906D01*
X0227722Y0414299D01*
X0227381Y0413630D01*
X0227149Y0412917D01*
X0227031Y0412175D01*
X0227031Y0411984D01*
X0231616Y0411984D01*
X0231616Y0411616D01*
X0231984Y0411616D01*
X0231984Y0407031D01*
X0232175Y0407031D01*
X0232917Y0407149D01*
X0233630Y0407381D01*
X0234299Y0407722D01*
X0234906Y0408163D01*
X0235437Y0408694D01*
X0235878Y0409301D01*
X0236219Y0409970D01*
X0236451Y0410683D01*
X0236568Y0411425D01*
X0236568Y0411616D01*
X0231984Y0411616D01*
X0231984Y0411984D01*
X0236568Y0411984D01*
X0236568Y0412175D01*
X0236451Y0412917D01*
X0236219Y0413630D01*
X0235878Y0414299D01*
X0235437Y0414906D01*
X0234906Y0415437D01*
X0234299Y0415878D01*
X0233630Y0416219D01*
X0232917Y0416451D01*
X0232175Y0416568D01*
X0231984Y0416568D01*
X0231984Y0411984D01*
X0231616Y0411984D01*
X0231616Y0416568D01*
X0231425Y0416568D01*
X0230683Y0416451D01*
X0230683Y0417149D02*
X0231425Y0417031D01*
X0231616Y0417031D01*
X0231616Y0421616D01*
X0231984Y0421616D01*
X0231984Y0417031D01*
X0232175Y0417031D01*
X0232917Y0417149D01*
X0233630Y0417381D01*
X0234299Y0417722D01*
X0234906Y0418163D01*
X0235437Y0418694D01*
X0235878Y0419301D01*
X0236219Y0419970D01*
X0236451Y0420683D01*
X0236568Y0421425D01*
X0236568Y0421616D01*
X0231984Y0421616D01*
X0231984Y0421984D01*
X0236568Y0421984D01*
X0236568Y0422175D01*
X0236451Y0422917D01*
X0236219Y0423630D01*
X0235878Y0424299D01*
X0235437Y0424906D01*
X0234906Y0425437D01*
X0234299Y0425878D01*
X0233630Y0426219D01*
X0232917Y0426451D01*
X0232175Y0426568D01*
X0231984Y0426568D01*
X0231984Y0421984D01*
X0231616Y0421984D01*
X0231616Y0421616D01*
X0227031Y0421616D01*
X0227031Y0421425D01*
X0227149Y0420683D01*
X0227381Y0419970D01*
X0227722Y0419301D01*
X0228163Y0418694D01*
X0228694Y0418163D01*
X0229301Y0417722D01*
X0229970Y0417381D01*
X0230683Y0417149D01*
X0231616Y0416428D02*
X0231984Y0416428D01*
X0232988Y0416428D02*
X0253219Y0416428D01*
X0253219Y0416088D02*
X0253764Y0414771D01*
X0254771Y0413764D01*
X0256088Y0413219D01*
X0257512Y0413219D01*
X0258829Y0413764D01*
X0259464Y0414400D01*
X0287849Y0414400D01*
X0287927Y0414212D01*
X0289212Y0412927D01*
X0290891Y0412231D01*
X0292709Y0412231D01*
X0294388Y0412927D01*
X0295673Y0414212D01*
X0296368Y0415891D01*
X0296368Y0417709D01*
X0295673Y0419388D01*
X0295661Y0419400D01*
X0297939Y0419400D01*
X0297927Y0419388D01*
X0297231Y0417709D01*
X0297231Y0415891D01*
X0297927Y0414212D01*
X0299212Y0412927D01*
X0300891Y0412231D01*
X0302709Y0412231D01*
X0304388Y0412927D01*
X0305673Y0414212D01*
X0306368Y0415891D01*
X0306368Y0417709D01*
X0305673Y0419388D01*
X0305661Y0419400D01*
X0307939Y0419400D01*
X0307927Y0419388D01*
X0307231Y0417709D01*
X0307231Y0415891D01*
X0307927Y0414212D01*
X0309212Y0412927D01*
X0310891Y0412231D01*
X0312709Y0412231D01*
X0314388Y0412927D01*
X0315673Y0414212D01*
X0316368Y0415891D01*
X0316368Y0417709D01*
X0315673Y0419388D01*
X0314388Y0420673D01*
X0314200Y0420751D01*
X0314200Y0422277D01*
X0313835Y0423159D01*
X0313159Y0423835D01*
X0312277Y0424200D01*
X0279264Y0424200D01*
X0279464Y0424400D01*
X0319136Y0424400D01*
X0319771Y0423764D01*
X0321088Y0423219D01*
X0322512Y0423219D01*
X0323829Y0423764D01*
X0324836Y0424771D01*
X0325381Y0426088D01*
X0325381Y0427512D01*
X0324836Y0428829D01*
X0324264Y0429400D01*
X0339136Y0429400D01*
X0339771Y0428764D01*
X0341088Y0428219D01*
X0342512Y0428219D01*
X0343829Y0428764D01*
X0344836Y0429771D01*
X0345381Y0431088D01*
X0345381Y0432512D01*
X0344836Y0433829D01*
X0343829Y0434836D01*
X0342512Y0435381D01*
X0341088Y0435381D01*
X0339771Y0434836D01*
X0339136Y0434200D01*
X0304464Y0434200D01*
X0303829Y0434836D01*
X0302512Y0435381D01*
X0301088Y0435381D01*
X0299771Y0434836D01*
X0298764Y0433829D01*
X0298219Y0432512D01*
X0298219Y0431088D01*
X0298764Y0429771D01*
X0299336Y0429200D01*
X0279464Y0429200D01*
X0278829Y0429836D01*
X0277512Y0430381D01*
X0276088Y0430381D01*
X0274771Y0429836D01*
X0273764Y0428829D01*
X0273219Y0427512D01*
X0273219Y0426088D01*
X0273764Y0424771D01*
X0274336Y0424200D01*
X0269464Y0424200D01*
X0268829Y0424836D01*
X0267512Y0425381D01*
X0266088Y0425381D01*
X0264771Y0424836D01*
X0263764Y0423829D01*
X0263219Y0422512D01*
X0263219Y0421088D01*
X0263764Y0419771D01*
X0264336Y0419200D01*
X0259464Y0419200D01*
X0258829Y0419836D01*
X0257512Y0420381D01*
X0256088Y0420381D01*
X0254771Y0419836D01*
X0253764Y0418829D01*
X0253219Y0417512D01*
X0253219Y0416088D01*
X0253740Y0414829D02*
X0245232Y0414829D01*
X0245673Y0414388D02*
X0244388Y0415673D01*
X0242709Y0416368D01*
X0240891Y0416368D01*
X0239212Y0415673D01*
X0237927Y0414388D01*
X0237231Y0412709D01*
X0237231Y0410891D01*
X0237927Y0409212D01*
X0239212Y0407927D01*
X0240891Y0407231D01*
X0242709Y0407231D01*
X0244388Y0407927D01*
X0245673Y0409212D01*
X0246368Y0410891D01*
X0246368Y0412709D01*
X0245673Y0414388D01*
X0246152Y0413231D02*
X0256059Y0413231D01*
X0257541Y0413231D02*
X0288908Y0413231D01*
X0289970Y0411219D02*
X0289301Y0410878D01*
X0288694Y0410437D01*
X0288163Y0409906D01*
X0287722Y0409299D01*
X0287381Y0408630D01*
X0287149Y0407917D01*
X0287031Y0407175D01*
X0287031Y0406984D01*
X0291616Y0406984D01*
X0291616Y0406616D01*
X0291984Y0406616D01*
X0291984Y0402031D01*
X0292175Y0402031D01*
X0292917Y0402149D01*
X0293630Y0402381D01*
X0294299Y0402722D01*
X0294906Y0403163D01*
X0295437Y0403694D01*
X0295878Y0404301D01*
X0296219Y0404970D01*
X0296451Y0405683D01*
X0296568Y0406425D01*
X0296568Y0406616D01*
X0291984Y0406616D01*
X0291984Y0406984D01*
X0296568Y0406984D01*
X0296568Y0407175D01*
X0296451Y0407917D01*
X0296219Y0408630D01*
X0295878Y0409299D01*
X0295437Y0409906D01*
X0294906Y0410437D01*
X0294299Y0410878D01*
X0293630Y0411219D01*
X0292917Y0411451D01*
X0292175Y0411568D01*
X0291984Y0411568D01*
X0291984Y0406984D01*
X0291616Y0406984D01*
X0291616Y0411568D01*
X0291425Y0411568D01*
X0290683Y0411451D01*
X0289970Y0411219D01*
X0291616Y0410034D02*
X0291984Y0410034D01*
X0291984Y0408435D02*
X0291616Y0408435D01*
X0291616Y0406837D02*
X0070797Y0406837D01*
X0072395Y0408435D02*
X0168704Y0408435D01*
X0167587Y0410034D02*
X0073994Y0410034D01*
X0075592Y0411632D02*
X0167231Y0411632D01*
X0167448Y0413231D02*
X0077541Y0413231D01*
X0069198Y0405238D02*
X0230743Y0405238D01*
X0230683Y0407149D02*
X0231425Y0407031D01*
X0231616Y0407031D01*
X0231616Y0411616D01*
X0227031Y0411616D01*
X0227031Y0411425D01*
X0227149Y0410683D01*
X0227381Y0409970D01*
X0227722Y0409301D01*
X0228163Y0408694D01*
X0228694Y0408163D01*
X0229301Y0407722D01*
X0229970Y0407381D01*
X0230683Y0407149D01*
X0231616Y0408435D02*
X0231984Y0408435D01*
X0231984Y0410034D02*
X0231616Y0410034D01*
X0231616Y0411632D02*
X0221984Y0411632D01*
X0221616Y0411632D02*
X0211984Y0411632D01*
X0211616Y0411632D02*
X0206368Y0411632D01*
X0207031Y0411616D02*
X0207031Y0411425D01*
X0207149Y0410683D01*
X0207381Y0409970D01*
X0207722Y0409301D01*
X0208163Y0408694D01*
X0208694Y0408163D01*
X0209301Y0407722D01*
X0209970Y0407381D01*
X0210683Y0407149D01*
X0211425Y0407031D01*
X0211616Y0407031D01*
X0211616Y0411616D01*
X0207031Y0411616D01*
X0206368Y0410891D02*
X0205673Y0409212D01*
X0204388Y0407927D01*
X0202709Y0407231D01*
X0200891Y0407231D01*
X0199212Y0407927D01*
X0197927Y0409212D01*
X0197231Y0410891D01*
X0197231Y0412709D01*
X0197927Y0414388D01*
X0199212Y0415673D01*
X0200891Y0416368D01*
X0202709Y0416368D01*
X0204388Y0415673D01*
X0205673Y0414388D01*
X0206368Y0412709D01*
X0206368Y0410891D01*
X0206013Y0410034D02*
X0207360Y0410034D01*
X0208421Y0408435D02*
X0204896Y0408435D01*
X0206152Y0413231D02*
X0207251Y0413231D01*
X0208107Y0414829D02*
X0205232Y0414829D01*
X0204388Y0417927D02*
X0202709Y0417231D01*
X0200891Y0417231D01*
X0199212Y0417927D01*
X0197927Y0419212D01*
X0197231Y0420891D01*
X0197231Y0422709D01*
X0197927Y0424388D01*
X0199212Y0425673D01*
X0200891Y0426368D01*
X0202709Y0426368D01*
X0204388Y0425673D01*
X0205673Y0424388D01*
X0206368Y0422709D01*
X0206368Y0420891D01*
X0205673Y0419212D01*
X0204388Y0417927D01*
X0204487Y0418026D02*
X0208881Y0418026D01*
X0207556Y0419625D02*
X0205844Y0419625D01*
X0206368Y0421223D02*
X0207063Y0421223D01*
X0207031Y0421984D02*
X0211616Y0421984D01*
X0211616Y0426568D01*
X0211425Y0426568D01*
X0210683Y0426451D01*
X0209970Y0426219D01*
X0209301Y0425878D01*
X0208694Y0425437D01*
X0208163Y0424906D01*
X0207722Y0424299D01*
X0207381Y0423630D01*
X0207149Y0422917D01*
X0207031Y0422175D01*
X0207031Y0421984D01*
X0207134Y0422822D02*
X0206322Y0422822D01*
X0205640Y0424420D02*
X0207810Y0424420D01*
X0209577Y0426019D02*
X0203553Y0426019D01*
X0202512Y0428219D02*
X0201088Y0428219D01*
X0199771Y0428764D01*
X0199536Y0429000D01*
X0094064Y0429000D01*
X0093829Y0428764D01*
X0092512Y0428219D01*
X0091088Y0428219D01*
X0089771Y0428764D01*
X0088764Y0429771D01*
X0088219Y0431088D01*
X0088219Y0432512D01*
X0088764Y0433829D01*
X0089771Y0434836D01*
X0091088Y0435381D01*
X0092512Y0435381D01*
X0093829Y0434836D01*
X0094064Y0434600D01*
X0199536Y0434600D01*
X0199771Y0434836D01*
X0201088Y0435381D01*
X0202512Y0435381D01*
X0203829Y0434836D01*
X0204836Y0433829D01*
X0205381Y0432512D01*
X0205381Y0431088D01*
X0204836Y0429771D01*
X0203829Y0428764D01*
X0202512Y0428219D01*
X0204280Y0429216D02*
X0274151Y0429216D01*
X0273262Y0427617D02*
X0036600Y0427617D01*
X0036600Y0426019D02*
X0170047Y0426019D01*
X0167960Y0424420D02*
X0036600Y0424420D01*
X0036600Y0422822D02*
X0167278Y0422822D01*
X0173553Y0426019D02*
X0180047Y0426019D01*
X0179212Y0425673D02*
X0177927Y0424388D01*
X0177231Y0422709D01*
X0177231Y0420891D01*
X0177927Y0419212D01*
X0179212Y0417927D01*
X0180891Y0417231D01*
X0182709Y0417231D01*
X0184388Y0417927D01*
X0185673Y0419212D01*
X0186368Y0420891D01*
X0186368Y0422709D01*
X0185673Y0424388D01*
X0184388Y0425673D01*
X0182709Y0426368D01*
X0180891Y0426368D01*
X0179212Y0425673D01*
X0177960Y0424420D02*
X0175640Y0424420D01*
X0176322Y0422822D02*
X0177278Y0422822D01*
X0177231Y0421223D02*
X0176368Y0421223D01*
X0175844Y0419625D02*
X0177756Y0419625D01*
X0179113Y0418026D02*
X0174487Y0418026D01*
X0175232Y0414829D02*
X0178368Y0414829D01*
X0177927Y0414388D02*
X0177231Y0412709D01*
X0177231Y0410891D01*
X0177927Y0409212D01*
X0179212Y0407927D01*
X0180891Y0407231D01*
X0182709Y0407231D01*
X0184388Y0407927D01*
X0185673Y0409212D01*
X0186368Y0410891D01*
X0186368Y0412709D01*
X0185673Y0414388D01*
X0184388Y0415673D01*
X0182709Y0416368D01*
X0180891Y0416368D01*
X0179212Y0415673D01*
X0177927Y0414388D01*
X0177448Y0413231D02*
X0176152Y0413231D01*
X0176368Y0411632D02*
X0177231Y0411632D01*
X0177587Y0410034D02*
X0176013Y0410034D01*
X0174896Y0408435D02*
X0178704Y0408435D01*
X0184896Y0408435D02*
X0188704Y0408435D01*
X0189212Y0407927D02*
X0187927Y0409212D01*
X0187231Y0410891D01*
X0187231Y0412709D01*
X0187927Y0414388D01*
X0189212Y0415673D01*
X0190891Y0416368D01*
X0192709Y0416368D01*
X0194388Y0415673D01*
X0195673Y0414388D01*
X0196368Y0412709D01*
X0196368Y0410891D01*
X0195673Y0409212D01*
X0194388Y0407927D01*
X0192709Y0407231D01*
X0190891Y0407231D01*
X0189212Y0407927D01*
X0187587Y0410034D02*
X0186013Y0410034D01*
X0186368Y0411632D02*
X0187231Y0411632D01*
X0187448Y0413231D02*
X0186152Y0413231D01*
X0185232Y0414829D02*
X0188368Y0414829D01*
X0189212Y0417927D02*
X0190891Y0417231D01*
X0192709Y0417231D01*
X0194388Y0417927D01*
X0195673Y0419212D01*
X0196368Y0420891D01*
X0196368Y0422709D01*
X0195673Y0424388D01*
X0194388Y0425673D01*
X0192709Y0426368D01*
X0190891Y0426368D01*
X0189212Y0425673D01*
X0187927Y0424388D01*
X0187231Y0422709D01*
X0187231Y0420891D01*
X0187927Y0419212D01*
X0189212Y0417927D01*
X0189113Y0418026D02*
X0184487Y0418026D01*
X0185844Y0419625D02*
X0187756Y0419625D01*
X0187231Y0421223D02*
X0186368Y0421223D01*
X0186322Y0422822D02*
X0187278Y0422822D01*
X0187960Y0424420D02*
X0185640Y0424420D01*
X0183553Y0426019D02*
X0190047Y0426019D01*
X0193553Y0426019D02*
X0200047Y0426019D01*
X0197960Y0424420D02*
X0195640Y0424420D01*
X0196322Y0422822D02*
X0197278Y0422822D01*
X0197231Y0421223D02*
X0196368Y0421223D01*
X0195844Y0419625D02*
X0197756Y0419625D01*
X0199113Y0418026D02*
X0194487Y0418026D01*
X0195232Y0414829D02*
X0198368Y0414829D01*
X0197448Y0413231D02*
X0196152Y0413231D01*
X0196368Y0411632D02*
X0197231Y0411632D01*
X0197587Y0410034D02*
X0196013Y0410034D01*
X0194896Y0408435D02*
X0198704Y0408435D01*
X0211616Y0408435D02*
X0211984Y0408435D01*
X0211984Y0410034D02*
X0211616Y0410034D01*
X0211616Y0413231D02*
X0211984Y0413231D01*
X0211984Y0414829D02*
X0211616Y0414829D01*
X0211616Y0418026D02*
X0211984Y0418026D01*
X0211984Y0419625D02*
X0211616Y0419625D01*
X0211616Y0421223D02*
X0211984Y0421223D01*
X0211984Y0422822D02*
X0211616Y0422822D01*
X0211616Y0424420D02*
X0211984Y0424420D01*
X0211984Y0426019D02*
X0211616Y0426019D01*
X0214023Y0426019D02*
X0219577Y0426019D01*
X0219301Y0425878D02*
X0218694Y0425437D01*
X0218163Y0424906D01*
X0217722Y0424299D01*
X0217381Y0423630D01*
X0217149Y0422917D01*
X0217031Y0422175D01*
X0217031Y0421984D01*
X0221616Y0421984D01*
X0221616Y0426568D01*
X0221425Y0426568D01*
X0220683Y0426451D01*
X0219970Y0426219D01*
X0219301Y0425878D01*
X0217810Y0424420D02*
X0215790Y0424420D01*
X0216466Y0422822D02*
X0217134Y0422822D01*
X0217063Y0421223D02*
X0216537Y0421223D01*
X0216044Y0419625D02*
X0217556Y0419625D01*
X0218881Y0418026D02*
X0214719Y0418026D01*
X0215493Y0414829D02*
X0218107Y0414829D01*
X0217251Y0413231D02*
X0216349Y0413231D01*
X0217031Y0411616D02*
X0217031Y0411425D01*
X0217149Y0410683D01*
X0217381Y0409970D01*
X0217722Y0409301D01*
X0218163Y0408694D01*
X0218694Y0408163D01*
X0219301Y0407722D01*
X0219970Y0407381D01*
X0220683Y0407149D01*
X0221425Y0407031D01*
X0221616Y0407031D01*
X0221616Y0411616D01*
X0217031Y0411616D01*
X0217360Y0410034D02*
X0216240Y0410034D01*
X0215179Y0408435D02*
X0218421Y0408435D01*
X0221616Y0408435D02*
X0221984Y0408435D01*
X0221984Y0410034D02*
X0221616Y0410034D01*
X0221616Y0413231D02*
X0221984Y0413231D01*
X0221984Y0414829D02*
X0221616Y0414829D01*
X0221616Y0418026D02*
X0221984Y0418026D01*
X0221984Y0419625D02*
X0221616Y0419625D01*
X0221616Y0421223D02*
X0221984Y0421223D01*
X0221984Y0422822D02*
X0221616Y0422822D01*
X0221616Y0424420D02*
X0221984Y0424420D01*
X0221984Y0426019D02*
X0221616Y0426019D01*
X0224023Y0426019D02*
X0229577Y0426019D01*
X0229301Y0425878D02*
X0228694Y0425437D01*
X0228163Y0424906D01*
X0227722Y0424299D01*
X0227381Y0423630D01*
X0227149Y0422917D01*
X0227031Y0422175D01*
X0227031Y0421984D01*
X0231616Y0421984D01*
X0231616Y0426568D01*
X0231425Y0426568D01*
X0230683Y0426451D01*
X0229970Y0426219D01*
X0229301Y0425878D01*
X0227810Y0424420D02*
X0225790Y0424420D01*
X0226466Y0422822D02*
X0227134Y0422822D01*
X0227063Y0421223D02*
X0226537Y0421223D01*
X0226044Y0419625D02*
X0227556Y0419625D01*
X0228881Y0418026D02*
X0224719Y0418026D01*
X0225493Y0414829D02*
X0228107Y0414829D01*
X0227251Y0413231D02*
X0226349Y0413231D01*
X0226240Y0410034D02*
X0227360Y0410034D01*
X0228421Y0408435D02*
X0225179Y0408435D01*
X0231984Y0411632D02*
X0237231Y0411632D01*
X0237448Y0413231D02*
X0236349Y0413231D01*
X0235493Y0414829D02*
X0238368Y0414829D01*
X0239212Y0417927D02*
X0240891Y0417231D01*
X0242709Y0417231D01*
X0244388Y0417927D01*
X0245673Y0419212D01*
X0246368Y0420891D01*
X0246368Y0422709D01*
X0245673Y0424388D01*
X0244388Y0425673D01*
X0242709Y0426368D01*
X0240891Y0426368D01*
X0239212Y0425673D01*
X0237927Y0424388D01*
X0237231Y0422709D01*
X0237231Y0420891D01*
X0237927Y0419212D01*
X0239212Y0417927D01*
X0239113Y0418026D02*
X0234719Y0418026D01*
X0236044Y0419625D02*
X0237756Y0419625D01*
X0237231Y0421223D02*
X0236537Y0421223D01*
X0236466Y0422822D02*
X0237278Y0422822D01*
X0237960Y0424420D02*
X0235790Y0424420D01*
X0234023Y0426019D02*
X0240047Y0426019D01*
X0243553Y0426019D02*
X0273247Y0426019D01*
X0274115Y0424420D02*
X0269244Y0424420D01*
X0266800Y0421800D02*
X0311800Y0421800D01*
X0311800Y0416800D01*
X0315929Y0414829D02*
X0317671Y0414829D01*
X0317927Y0414212D02*
X0319212Y0412927D01*
X0320891Y0412231D01*
X0322709Y0412231D01*
X0324388Y0412927D01*
X0325673Y0414212D01*
X0326368Y0415891D01*
X0326368Y0417709D01*
X0325673Y0419388D01*
X0324388Y0420673D01*
X0322709Y0421368D01*
X0320891Y0421368D01*
X0319212Y0420673D01*
X0317927Y0419388D01*
X0317231Y0417709D01*
X0317231Y0415891D01*
X0317927Y0414212D01*
X0318908Y0413231D02*
X0314692Y0413231D01*
X0313630Y0411219D02*
X0312917Y0411451D01*
X0312175Y0411568D01*
X0311984Y0411568D01*
X0311984Y0406984D01*
X0316568Y0406984D01*
X0316568Y0407175D01*
X0316451Y0407917D01*
X0316219Y0408630D01*
X0315878Y0409299D01*
X0315437Y0409906D01*
X0314906Y0410437D01*
X0314299Y0410878D01*
X0313630Y0411219D01*
X0311984Y0410034D02*
X0311616Y0410034D01*
X0311616Y0411568D02*
X0311425Y0411568D01*
X0310683Y0411451D01*
X0309970Y0411219D01*
X0309301Y0410878D01*
X0308694Y0410437D01*
X0308163Y0409906D01*
X0307722Y0409299D01*
X0307381Y0408630D01*
X0307149Y0407917D01*
X0307031Y0407175D01*
X0307031Y0406984D01*
X0311616Y0406984D01*
X0311616Y0406616D01*
X0311984Y0406616D01*
X0311984Y0402031D01*
X0312175Y0402031D01*
X0312917Y0402149D01*
X0313630Y0402381D01*
X0314299Y0402722D01*
X0314906Y0403163D01*
X0315437Y0403694D01*
X0315878Y0404301D01*
X0316219Y0404970D01*
X0316451Y0405683D01*
X0316568Y0406425D01*
X0316568Y0406616D01*
X0311984Y0406616D01*
X0311984Y0406984D01*
X0311616Y0406984D01*
X0311616Y0411568D01*
X0311616Y0408435D02*
X0311984Y0408435D01*
X0311984Y0406837D02*
X0321616Y0406837D01*
X0321616Y0406984D02*
X0321616Y0406616D01*
X0321984Y0406616D01*
X0321984Y0402031D01*
X0322175Y0402031D01*
X0322917Y0402149D01*
X0323630Y0402381D01*
X0324299Y0402722D01*
X0324906Y0403163D01*
X0325437Y0403694D01*
X0325878Y0404301D01*
X0326219Y0404970D01*
X0326451Y0405683D01*
X0326568Y0406425D01*
X0326568Y0406616D01*
X0321984Y0406616D01*
X0321984Y0406984D01*
X0326568Y0406984D01*
X0326568Y0407175D01*
X0326451Y0407917D01*
X0326219Y0408630D01*
X0325878Y0409299D01*
X0325437Y0409906D01*
X0324906Y0410437D01*
X0324299Y0410878D01*
X0323630Y0411219D01*
X0322917Y0411451D01*
X0322175Y0411568D01*
X0321984Y0411568D01*
X0321984Y0406984D01*
X0321616Y0406984D01*
X0317031Y0406984D01*
X0317031Y0407175D01*
X0317149Y0407917D01*
X0317381Y0408630D01*
X0317722Y0409299D01*
X0318163Y0409906D01*
X0318694Y0410437D01*
X0319301Y0410878D01*
X0319970Y0411219D01*
X0320683Y0411451D01*
X0321425Y0411568D01*
X0321616Y0411568D01*
X0321616Y0406984D01*
X0321616Y0406616D02*
X0317031Y0406616D01*
X0317031Y0406425D01*
X0317149Y0405683D01*
X0317381Y0404970D01*
X0317722Y0404301D01*
X0318163Y0403694D01*
X0318694Y0403163D01*
X0319301Y0402722D01*
X0319970Y0402381D01*
X0320683Y0402149D01*
X0321425Y0402031D01*
X0321616Y0402031D01*
X0321616Y0406616D01*
X0321984Y0406837D02*
X0331616Y0406837D01*
X0331616Y0406984D02*
X0331616Y0406616D01*
X0331984Y0406616D01*
X0331984Y0402031D01*
X0332175Y0402031D01*
X0332917Y0402149D01*
X0333630Y0402381D01*
X0334299Y0402722D01*
X0334906Y0403163D01*
X0335437Y0403694D01*
X0335878Y0404301D01*
X0336219Y0404970D01*
X0336451Y0405683D01*
X0336568Y0406425D01*
X0336568Y0406616D01*
X0331984Y0406616D01*
X0331984Y0406984D01*
X0336568Y0406984D01*
X0336568Y0407175D01*
X0336451Y0407917D01*
X0336219Y0408630D01*
X0335878Y0409299D01*
X0335437Y0409906D01*
X0334906Y0410437D01*
X0334299Y0410878D01*
X0333630Y0411219D01*
X0332917Y0411451D01*
X0332175Y0411568D01*
X0331984Y0411568D01*
X0331984Y0406984D01*
X0331616Y0406984D01*
X0327031Y0406984D01*
X0327031Y0407175D01*
X0327149Y0407917D01*
X0327381Y0408630D01*
X0327722Y0409299D01*
X0328163Y0409906D01*
X0328694Y0410437D01*
X0329301Y0410878D01*
X0329970Y0411219D01*
X0330683Y0411451D01*
X0331425Y0411568D01*
X0331616Y0411568D01*
X0331616Y0406984D01*
X0331616Y0406616D02*
X0327031Y0406616D01*
X0327031Y0406425D01*
X0327149Y0405683D01*
X0327381Y0404970D01*
X0327722Y0404301D01*
X0328163Y0403694D01*
X0328694Y0403163D01*
X0329301Y0402722D01*
X0329970Y0402381D01*
X0330683Y0402149D01*
X0331425Y0402031D01*
X0331616Y0402031D01*
X0331616Y0406616D01*
X0331984Y0406837D02*
X0376921Y0406837D01*
X0376921Y0408435D02*
X0336283Y0408435D01*
X0335310Y0410034D02*
X0376921Y0410034D01*
X0376921Y0411632D02*
X0246368Y0411632D01*
X0246013Y0410034D02*
X0288290Y0410034D01*
X0287317Y0408435D02*
X0244896Y0408435D01*
X0238704Y0408435D02*
X0235179Y0408435D01*
X0236240Y0410034D02*
X0237587Y0410034D01*
X0231984Y0413231D02*
X0231616Y0413231D01*
X0231616Y0414829D02*
X0231984Y0414829D01*
X0231984Y0418026D02*
X0231616Y0418026D01*
X0231616Y0419625D02*
X0231984Y0419625D01*
X0231984Y0421223D02*
X0231616Y0421223D01*
X0231616Y0422822D02*
X0231984Y0422822D01*
X0231984Y0424420D02*
X0231616Y0424420D01*
X0231616Y0426019D02*
X0231984Y0426019D01*
X0244487Y0418026D02*
X0253432Y0418026D01*
X0254560Y0419625D02*
X0245844Y0419625D01*
X0246368Y0421223D02*
X0263219Y0421223D01*
X0263347Y0422822D02*
X0246322Y0422822D01*
X0245640Y0424420D02*
X0264356Y0424420D01*
X0263911Y0419625D02*
X0259040Y0419625D01*
X0256800Y0416800D02*
X0291800Y0416800D01*
X0295929Y0414829D02*
X0297671Y0414829D01*
X0297231Y0416428D02*
X0296368Y0416428D01*
X0296237Y0418026D02*
X0297363Y0418026D01*
X0298908Y0413231D02*
X0294692Y0413231D01*
X0295310Y0410034D02*
X0298290Y0410034D01*
X0298163Y0409906D02*
X0297722Y0409299D01*
X0297381Y0408630D01*
X0297149Y0407917D01*
X0297031Y0407175D01*
X0297031Y0406984D01*
X0301616Y0406984D01*
X0301616Y0406616D01*
X0301984Y0406616D01*
X0301984Y0402031D01*
X0302175Y0402031D01*
X0302917Y0402149D01*
X0303630Y0402381D01*
X0304299Y0402722D01*
X0304906Y0403163D01*
X0305437Y0403694D01*
X0305878Y0404301D01*
X0306219Y0404970D01*
X0306451Y0405683D01*
X0306568Y0406425D01*
X0306568Y0406616D01*
X0301984Y0406616D01*
X0301984Y0406984D01*
X0306568Y0406984D01*
X0306568Y0407175D01*
X0306451Y0407917D01*
X0306219Y0408630D01*
X0305878Y0409299D01*
X0305437Y0409906D01*
X0304906Y0410437D01*
X0304299Y0410878D01*
X0303630Y0411219D01*
X0302917Y0411451D01*
X0302175Y0411568D01*
X0301984Y0411568D01*
X0301984Y0406984D01*
X0301616Y0406984D01*
X0301616Y0411568D01*
X0301425Y0411568D01*
X0300683Y0411451D01*
X0299970Y0411219D01*
X0299301Y0410878D01*
X0298694Y0410437D01*
X0298163Y0409906D01*
X0297317Y0408435D02*
X0296283Y0408435D01*
X0297031Y0406616D02*
X0297031Y0406425D01*
X0297149Y0405683D01*
X0297381Y0404970D01*
X0297722Y0404301D01*
X0298163Y0403694D01*
X0298694Y0403163D01*
X0299301Y0402722D01*
X0299970Y0402381D01*
X0300683Y0402149D01*
X0301425Y0402031D01*
X0301616Y0402031D01*
X0301616Y0406616D01*
X0297031Y0406616D01*
X0297294Y0405238D02*
X0296306Y0405238D01*
X0295383Y0403640D02*
X0298217Y0403640D01*
X0301616Y0403640D02*
X0301984Y0403640D01*
X0301984Y0405238D02*
X0301616Y0405238D01*
X0301616Y0406837D02*
X0291984Y0406837D01*
X0291616Y0406616D02*
X0291616Y0402031D01*
X0291425Y0402031D01*
X0290683Y0402149D01*
X0289970Y0402381D01*
X0289301Y0402722D01*
X0288694Y0403163D01*
X0288163Y0403694D01*
X0287722Y0404301D01*
X0287381Y0404970D01*
X0287149Y0405683D01*
X0287031Y0406425D01*
X0287031Y0406616D01*
X0291616Y0406616D01*
X0291616Y0405238D02*
X0291984Y0405238D01*
X0291984Y0403640D02*
X0291616Y0403640D01*
X0291616Y0402041D02*
X0291984Y0402041D01*
X0292237Y0402041D02*
X0301363Y0402041D01*
X0301616Y0402041D02*
X0301984Y0402041D01*
X0302237Y0402041D02*
X0311363Y0402041D01*
X0311425Y0402031D02*
X0311616Y0402031D01*
X0311616Y0406616D01*
X0307031Y0406616D01*
X0307031Y0406425D01*
X0307149Y0405683D01*
X0307381Y0404970D01*
X0307722Y0404301D01*
X0308163Y0403694D01*
X0308694Y0403163D01*
X0309301Y0402722D01*
X0309970Y0402381D01*
X0310683Y0402149D01*
X0311425Y0402031D01*
X0311616Y0402041D02*
X0311984Y0402041D01*
X0312237Y0402041D02*
X0321363Y0402041D01*
X0321616Y0402041D02*
X0321984Y0402041D01*
X0322237Y0402041D02*
X0331363Y0402041D01*
X0331616Y0402041D02*
X0331984Y0402041D01*
X0332237Y0402041D02*
X0376921Y0402041D01*
X0376921Y0400443D02*
X0270114Y0400443D01*
X0270381Y0402041D02*
X0291363Y0402041D01*
X0288217Y0403640D02*
X0269914Y0403640D01*
X0267857Y0405238D02*
X0287294Y0405238D01*
X0276800Y0396800D02*
X0301800Y0396800D01*
X0305199Y0395647D02*
X0376921Y0395647D01*
X0376921Y0397246D02*
X0305381Y0397246D01*
X0304820Y0398844D02*
X0376921Y0398844D01*
X0376921Y0403640D02*
X0335383Y0403640D01*
X0336306Y0405238D02*
X0376921Y0405238D01*
X0376921Y0413231D02*
X0334974Y0413231D01*
X0334906Y0413163D02*
X0335437Y0413694D01*
X0335878Y0414301D01*
X0336219Y0414970D01*
X0336451Y0415683D01*
X0336568Y0416425D01*
X0336568Y0416616D01*
X0331984Y0416616D01*
X0331984Y0412031D01*
X0332175Y0412031D01*
X0332917Y0412149D01*
X0333630Y0412381D01*
X0334299Y0412722D01*
X0334906Y0413163D01*
X0336148Y0414829D02*
X0376921Y0414829D01*
X0376921Y0416428D02*
X0336568Y0416428D01*
X0336568Y0416984D02*
X0336568Y0417175D01*
X0336451Y0417917D01*
X0336219Y0418630D01*
X0335878Y0419299D01*
X0335437Y0419906D01*
X0334906Y0420437D01*
X0334299Y0420878D01*
X0333630Y0421219D01*
X0332917Y0421451D01*
X0332175Y0421568D01*
X0331984Y0421568D01*
X0331984Y0416984D01*
X0336568Y0416984D01*
X0336415Y0418026D02*
X0376921Y0418026D01*
X0376921Y0419625D02*
X0335642Y0419625D01*
X0333617Y0421223D02*
X0376921Y0421223D01*
X0376921Y0422822D02*
X0313974Y0422822D01*
X0314200Y0421223D02*
X0320541Y0421223D01*
X0323059Y0421223D02*
X0329983Y0421223D01*
X0329970Y0421219D02*
X0329301Y0420878D01*
X0328694Y0420437D01*
X0328163Y0419906D01*
X0327722Y0419299D01*
X0327381Y0418630D01*
X0327149Y0417917D01*
X0327031Y0417175D01*
X0327031Y0416984D01*
X0331616Y0416984D01*
X0331616Y0416616D01*
X0331984Y0416616D01*
X0331984Y0416984D01*
X0331616Y0416984D01*
X0331616Y0421568D01*
X0331425Y0421568D01*
X0330683Y0421451D01*
X0329970Y0421219D01*
X0331616Y0421223D02*
X0331984Y0421223D01*
X0331984Y0419625D02*
X0331616Y0419625D01*
X0331616Y0418026D02*
X0331984Y0418026D01*
X0331616Y0416616D02*
X0327031Y0416616D01*
X0327031Y0416425D01*
X0327149Y0415683D01*
X0327381Y0414970D01*
X0327722Y0414301D01*
X0328163Y0413694D01*
X0328694Y0413163D01*
X0329301Y0412722D01*
X0329970Y0412381D01*
X0330683Y0412149D01*
X0331425Y0412031D01*
X0331616Y0412031D01*
X0331616Y0416616D01*
X0331616Y0416428D02*
X0331984Y0416428D01*
X0331984Y0414829D02*
X0331616Y0414829D01*
X0331616Y0413231D02*
X0331984Y0413231D01*
X0331984Y0410034D02*
X0331616Y0410034D01*
X0331616Y0408435D02*
X0331984Y0408435D01*
X0331984Y0405238D02*
X0331616Y0405238D01*
X0331616Y0403640D02*
X0331984Y0403640D01*
X0328217Y0403640D02*
X0325383Y0403640D01*
X0326306Y0405238D02*
X0327294Y0405238D01*
X0327317Y0408435D02*
X0326283Y0408435D01*
X0325310Y0410034D02*
X0328290Y0410034D01*
X0328626Y0413231D02*
X0324692Y0413231D01*
X0325929Y0414829D02*
X0327452Y0414829D01*
X0327031Y0416428D02*
X0326368Y0416428D01*
X0326237Y0418026D02*
X0327185Y0418026D01*
X0327958Y0419625D02*
X0325436Y0419625D01*
X0324485Y0424420D02*
X0376921Y0424420D01*
X0376921Y0426019D02*
X0325353Y0426019D01*
X0325338Y0427617D02*
X0376921Y0427617D01*
X0376921Y0429216D02*
X0344280Y0429216D01*
X0345268Y0430814D02*
X0376921Y0430814D01*
X0376921Y0432413D02*
X0345381Y0432413D01*
X0344653Y0434011D02*
X0376921Y0434011D01*
X0376921Y0435610D02*
X0036600Y0435610D01*
X0036600Y0434011D02*
X0063947Y0434011D01*
X0063764Y0433829D02*
X0063219Y0432512D01*
X0063219Y0431088D01*
X0063764Y0429771D01*
X0064771Y0428764D01*
X0066088Y0428219D01*
X0067512Y0428219D01*
X0068829Y0428764D01*
X0069464Y0429400D01*
X0079136Y0429400D01*
X0079771Y0428764D01*
X0081088Y0428219D01*
X0082512Y0428219D01*
X0083829Y0428764D01*
X0084836Y0429771D01*
X0085381Y0431088D01*
X0085381Y0432512D01*
X0084836Y0433829D01*
X0083829Y0434836D01*
X0082512Y0435381D01*
X0081088Y0435381D01*
X0079771Y0434836D01*
X0079136Y0434200D01*
X0069464Y0434200D01*
X0068829Y0434836D01*
X0067512Y0435381D01*
X0066088Y0435381D01*
X0064771Y0434836D01*
X0063764Y0433829D01*
X0063219Y0432413D02*
X0036600Y0432413D01*
X0036600Y0430814D02*
X0063332Y0430814D01*
X0064320Y0429216D02*
X0036600Y0429216D01*
X0058351Y0410034D02*
X0066074Y0410034D01*
X0069280Y0429216D02*
X0079320Y0429216D01*
X0081800Y0431800D02*
X0066800Y0431800D01*
X0084280Y0429216D02*
X0089320Y0429216D01*
X0088332Y0430814D02*
X0085268Y0430814D01*
X0085381Y0432413D02*
X0088219Y0432413D01*
X0088947Y0434011D02*
X0084653Y0434011D01*
X0078835Y0315441D02*
X0078835Y0315441D01*
X0085294Y0283751D02*
X0088306Y0283751D01*
X0087825Y0282153D02*
X0085775Y0282153D01*
X0085586Y0280554D02*
X0088014Y0280554D01*
X0089023Y0278956D02*
X0084577Y0278956D01*
X0081800Y0281800D02*
X0071800Y0281800D01*
X0074020Y0278956D02*
X0079023Y0278956D01*
X0091352Y0223008D02*
X0097438Y0223008D01*
X0100177Y0192636D02*
X0133270Y0192636D01*
X0133240Y0191038D02*
X0101202Y0191038D01*
X0101543Y0189439D02*
X0134096Y0189439D01*
X0134170Y0194235D02*
X0124299Y0194235D01*
X0101366Y0187841D02*
X0193345Y0187841D01*
X0192253Y0186242D02*
X0100573Y0186242D01*
X0092712Y0186242D02*
X0090731Y0186242D01*
X0091524Y0187841D02*
X0091919Y0187841D01*
X0091743Y0189439D02*
X0091700Y0189439D01*
X0091359Y0191038D02*
X0092083Y0191038D01*
X0093108Y0192636D02*
X0090334Y0192636D01*
X0077240Y0192636D02*
X0076675Y0192636D01*
X0076675Y0191038D02*
X0077240Y0191038D01*
X0096800Y0151800D02*
X0126800Y0151800D01*
X0114336Y0139400D02*
X0113764Y0138829D01*
X0113219Y0137512D01*
X0113219Y0136088D01*
X0113764Y0134771D01*
X0114336Y0134200D01*
X0095400Y0134200D01*
X0095400Y0139400D01*
X0114336Y0139400D01*
X0113540Y0138287D02*
X0095400Y0138287D01*
X0095400Y0136688D02*
X0113219Y0136688D01*
X0113632Y0135090D02*
X0095400Y0135090D01*
X0094059Y0149476D02*
X0052518Y0149476D01*
X0086000Y0104718D02*
X0087600Y0104718D01*
X0087600Y0103120D02*
X0086000Y0103120D01*
X0086000Y0101521D02*
X0087600Y0101521D01*
X0087600Y0099923D02*
X0086000Y0099923D01*
X0086000Y0096000D02*
X0078000Y0096000D01*
X0078000Y0089563D01*
X0078123Y0089105D01*
X0078360Y0088695D01*
X0078695Y0088360D01*
X0079105Y0088123D01*
X0079563Y0088000D01*
X0086000Y0088000D01*
X0086000Y0096000D01*
X0086000Y0095127D02*
X0087600Y0095127D01*
X0087600Y0093529D02*
X0086000Y0093529D01*
X0086000Y0091930D02*
X0087600Y0091930D01*
X0087600Y0090332D02*
X0086000Y0090332D01*
X0086000Y0088733D02*
X0087600Y0088733D01*
X0078338Y0088733D02*
X0036600Y0088733D01*
X0036600Y0090332D02*
X0078000Y0090332D01*
X0078000Y0091930D02*
X0036600Y0091930D01*
X0036600Y0093529D02*
X0078000Y0093529D01*
X0078000Y0095127D02*
X0036600Y0095127D01*
X0036600Y0083937D02*
X0128873Y0083937D01*
X0128219Y0082339D02*
X0036600Y0082339D01*
X0036600Y0080740D02*
X0128363Y0080740D01*
X0129394Y0079142D02*
X0095400Y0079142D01*
X0095400Y0074346D02*
X0114282Y0074346D01*
X0116800Y0071800D02*
X0086800Y0071800D01*
X0056800Y0071800D01*
X0054282Y0074346D02*
X0036600Y0074346D01*
X0036600Y0072748D02*
X0053316Y0072748D01*
X0053219Y0071149D02*
X0036600Y0071149D01*
X0036600Y0069551D02*
X0053985Y0069551D01*
X0059318Y0074346D02*
X0078200Y0074346D01*
X0078200Y0075945D02*
X0036600Y0075945D01*
X0036600Y0077543D02*
X0078200Y0077543D01*
X0078200Y0079142D02*
X0036600Y0079142D01*
X0036600Y0067952D02*
X0078200Y0067952D01*
X0078200Y0066354D02*
X0036600Y0066354D01*
X0036600Y0048770D02*
X0058000Y0048770D01*
X0058000Y0047172D02*
X0036600Y0047172D01*
X0036600Y0045573D02*
X0058000Y0045573D01*
X0058198Y0043975D02*
X0036600Y0043975D01*
X0036600Y0026391D02*
X0113219Y0026391D01*
X0113755Y0024793D02*
X0036600Y0024793D01*
X0066000Y0043975D02*
X0067600Y0043975D01*
X0067600Y0045573D02*
X0066000Y0045573D01*
X0066000Y0047172D02*
X0067600Y0047172D01*
X0067600Y0048770D02*
X0066000Y0048770D01*
X0066000Y0053566D02*
X0067600Y0053566D01*
X0067600Y0055164D02*
X0066000Y0055164D01*
X0066000Y0056763D02*
X0067600Y0056763D01*
X0067600Y0058361D02*
X0066000Y0058361D01*
X0066000Y0059960D02*
X0067600Y0059960D01*
X0193799Y0179848D02*
X0194345Y0179848D01*
X0196675Y0179848D02*
X0197240Y0179848D01*
X0197240Y0181447D02*
X0196675Y0181447D01*
X0196675Y0183045D02*
X0197240Y0183045D01*
X0197240Y0184644D02*
X0196675Y0184644D01*
X0196675Y0186242D02*
X0197240Y0186242D01*
X0197240Y0187841D02*
X0196675Y0187841D01*
X0200570Y0187841D02*
X0203470Y0187841D01*
X0202325Y0186242D02*
X0201662Y0186242D01*
X0201931Y0183045D02*
X0201992Y0183045D01*
X0202665Y0181447D02*
X0201231Y0181447D01*
X0199570Y0179848D02*
X0204601Y0179848D01*
X0208999Y0179848D02*
X0214443Y0179848D01*
X0212507Y0181447D02*
X0210935Y0181447D01*
X0211608Y0183045D02*
X0211834Y0183045D01*
X0211743Y0184644D02*
X0211700Y0184644D01*
X0211275Y0186242D02*
X0212168Y0186242D01*
X0213313Y0187841D02*
X0210130Y0187841D01*
X0251800Y0191800D02*
X0271800Y0191800D01*
X0269170Y0194235D02*
X0254430Y0194235D01*
X0261800Y0146800D02*
X0281800Y0146800D01*
X0285230Y0147878D02*
X0293370Y0147878D01*
X0293219Y0146279D02*
X0285381Y0146279D01*
X0284745Y0144681D02*
X0293855Y0144681D01*
X0296800Y0146800D02*
X0336800Y0146800D01*
X0334412Y0149476D02*
X0309541Y0149476D01*
X0306800Y0171800D02*
X0326800Y0171800D01*
X0325295Y0175053D02*
X0308305Y0175053D01*
X0265385Y0135090D02*
X0248215Y0135090D01*
X0245385Y0135090D02*
X0215400Y0135090D01*
X0215400Y0128696D02*
X0244936Y0128696D01*
X0248664Y0128696D02*
X0264936Y0128696D01*
X0306000Y0119105D02*
X0307600Y0119105D01*
X0307600Y0117506D02*
X0306000Y0117506D01*
X0306000Y0115908D02*
X0307600Y0115908D01*
X0307600Y0114309D02*
X0306000Y0114309D01*
X0306000Y0112711D02*
X0307600Y0112711D01*
X0307600Y0107915D02*
X0306000Y0107915D01*
X0306000Y0106317D02*
X0307600Y0106317D01*
X0307600Y0104718D02*
X0306000Y0104718D01*
X0306000Y0103120D02*
X0307600Y0103120D01*
X0329319Y0238993D02*
X0349542Y0238993D01*
X0351800Y0241800D02*
X0286800Y0241800D01*
X0301800Y0251800D02*
X0311800Y0251800D01*
X0310115Y0254978D02*
X0303485Y0254978D01*
X0324225Y0274160D02*
X0339375Y0274160D01*
X0341800Y0276800D02*
X0321800Y0276800D01*
X0344225Y0274160D02*
X0344375Y0274160D01*
X0356800Y0251800D02*
X0366800Y0251800D01*
X0365206Y0248584D02*
X0358394Y0248584D01*
X0319245Y0349290D02*
X0314355Y0349290D01*
X0315299Y0350889D02*
X0318301Y0350889D01*
X0318219Y0352487D02*
X0315381Y0352487D01*
X0314579Y0354086D02*
X0319021Y0354086D01*
X0305475Y0368472D02*
X0298125Y0368472D01*
X0296800Y0371800D02*
X0306800Y0371800D01*
X0305383Y0403640D02*
X0308217Y0403640D01*
X0307294Y0405238D02*
X0306306Y0405238D01*
X0306283Y0408435D02*
X0307317Y0408435D01*
X0308290Y0410034D02*
X0305310Y0410034D01*
X0304692Y0413231D02*
X0308908Y0413231D01*
X0307671Y0414829D02*
X0305929Y0414829D01*
X0306368Y0416428D02*
X0307231Y0416428D01*
X0307363Y0418026D02*
X0306237Y0418026D01*
X0301984Y0410034D02*
X0301616Y0410034D01*
X0301616Y0408435D02*
X0301984Y0408435D01*
X0301984Y0406837D02*
X0311616Y0406837D01*
X0311616Y0405238D02*
X0311984Y0405238D01*
X0311984Y0403640D02*
X0311616Y0403640D01*
X0315383Y0403640D02*
X0318217Y0403640D01*
X0317294Y0405238D02*
X0316306Y0405238D01*
X0316283Y0408435D02*
X0317317Y0408435D01*
X0318290Y0410034D02*
X0315310Y0410034D01*
X0321616Y0410034D02*
X0321984Y0410034D01*
X0321984Y0408435D02*
X0321616Y0408435D01*
X0321616Y0405238D02*
X0321984Y0405238D01*
X0321984Y0403640D02*
X0321616Y0403640D01*
X0317231Y0416428D02*
X0316368Y0416428D01*
X0316237Y0418026D02*
X0317363Y0418026D01*
X0318164Y0419625D02*
X0315436Y0419625D01*
X0321800Y0426800D02*
X0276800Y0426800D01*
X0279448Y0429216D02*
X0299320Y0429216D01*
X0298332Y0430814D02*
X0205268Y0430814D01*
X0205381Y0432413D02*
X0298219Y0432413D01*
X0298947Y0434011D02*
X0204653Y0434011D01*
X0232857Y0405238D02*
X0265743Y0405238D01*
X0266800Y0401800D02*
X0231800Y0401800D01*
X0236800Y0396800D02*
X0256800Y0396800D01*
X0260199Y0395647D02*
X0273401Y0395647D01*
X0273219Y0397246D02*
X0260381Y0397246D01*
X0259820Y0398844D02*
X0264691Y0398844D01*
X0268909Y0398844D02*
X0273780Y0398844D01*
X0301800Y0431800D02*
X0341800Y0431800D01*
X0339320Y0429216D02*
X0324448Y0429216D01*
D20*
X0091800Y0386800D03*
X0081800Y0386800D03*
X0081800Y0356800D03*
X0091800Y0356800D03*
X0091800Y0321800D03*
X0081800Y0321800D03*
X0081800Y0281800D03*
X0091800Y0281800D03*
D21*
X0051800Y0421800D03*
X0361800Y0421800D03*
X0361800Y0036800D03*
X0051800Y0036800D03*
D22*
X0116800Y0136800D02*
X0136800Y0136800D01*
X0156800Y0136800D01*
X0166800Y0146800D01*
X0231800Y0146800D01*
X0226800Y0091800D02*
X0221800Y0086800D01*
X0176800Y0086800D01*
X0171800Y0091800D01*
X0226800Y0091800D02*
X0271800Y0091800D01*
X0271800Y0061800D02*
X0236800Y0061800D01*
X0171800Y0166800D02*
X0156800Y0166800D01*
X0156800Y0191800D02*
X0146800Y0191800D01*
X0136800Y0191800D01*
X0201800Y0261800D02*
X0221800Y0261800D01*
X0221800Y0241800D02*
X0231800Y0241800D01*
X0196800Y0281800D02*
X0176800Y0281800D01*
X0196800Y0296800D02*
X0201800Y0301800D01*
X0196800Y0296800D02*
X0141800Y0296800D01*
X0161643Y0319241D02*
X0176800Y0319241D01*
X0194241Y0319241D01*
X0196800Y0321800D01*
X0201800Y0371800D02*
X0286800Y0371800D01*
X0286800Y0331800D02*
X0321800Y0331800D01*
X0366800Y0331800D01*
X0341800Y0351800D02*
X0321800Y0351800D01*
X0326800Y0391800D02*
X0241800Y0391800D01*
X0211800Y0391800D01*
X0201800Y0431800D02*
X0091800Y0431800D01*
X0076800Y0416800D02*
X0066800Y0406800D01*
X0056800Y0406800D01*
X0346800Y0276800D02*
X0366800Y0276800D01*
M02*
