G75*
%MOIN*%
%OFA0B0*%
%FSLAX25Y25*%
%IPPOS*%
%LPD*%
%AMOC8*
5,1,8,0,0,1.08239X$1,22.5*
%
%ADD10R,0.04331X0.03937*%
%ADD11R,0.03937X0.04331*%
%ADD12R,0.03937X0.05512*%
%ADD13R,0.03150X0.02165*%
%ADD14R,0.02400X0.08700*%
D10*
X0051800Y0063454D03*
X0051800Y0070146D03*
X0051800Y0123454D03*
X0051800Y0130146D03*
X0086800Y0163454D03*
X0086800Y0170146D03*
X0116800Y0223454D03*
X0116800Y0230146D03*
X0136800Y0233454D03*
X0136800Y0240146D03*
X0146800Y0240146D03*
X0146800Y0233454D03*
X0171800Y0200146D03*
X0171800Y0193454D03*
X0161800Y0185146D03*
X0161800Y0178454D03*
X0206800Y0170146D03*
X0206800Y0163454D03*
X0246800Y0115146D03*
X0246800Y0108454D03*
X0166800Y0060146D03*
X0166800Y0053454D03*
X0181800Y0233454D03*
X0181800Y0240146D03*
X0186800Y0253454D03*
X0186800Y0260146D03*
X0161800Y0268454D03*
X0161800Y0275146D03*
X0151800Y0293454D03*
X0151800Y0300146D03*
X0136800Y0298454D03*
X0136800Y0305146D03*
X0121800Y0290146D03*
X0121800Y0283454D03*
X0090146Y0291800D03*
X0083454Y0291800D03*
X0083454Y0311800D03*
X0090146Y0311800D03*
X0090146Y0346800D03*
X0083454Y0346800D03*
X0051800Y0340146D03*
X0051800Y0333454D03*
X0051800Y0305146D03*
X0051800Y0298454D03*
X0051800Y0265146D03*
X0051800Y0258454D03*
X0061800Y0258454D03*
X0061800Y0265146D03*
X0051800Y0368454D03*
X0051800Y0375146D03*
X0041800Y0403454D03*
X0041800Y0410146D03*
X0083454Y0396800D03*
X0090146Y0396800D03*
X0216800Y0310146D03*
X0216800Y0303454D03*
X0226800Y0303454D03*
X0226800Y0310146D03*
X0226800Y0270146D03*
X0226800Y0263454D03*
X0236800Y0263454D03*
X0236800Y0270146D03*
X0261800Y0273454D03*
X0261800Y0280146D03*
X0271800Y0255146D03*
X0271800Y0248454D03*
X0281800Y0248454D03*
X0281800Y0255146D03*
X0301800Y0278454D03*
X0301800Y0285146D03*
X0311800Y0285146D03*
X0311800Y0278454D03*
X0306800Y0270146D03*
X0306800Y0263454D03*
X0321800Y0263454D03*
X0321800Y0270146D03*
X0321800Y0255146D03*
X0321800Y0248454D03*
X0331800Y0248454D03*
X0331800Y0255146D03*
X0356800Y0240146D03*
X0356800Y0233454D03*
X0366800Y0233454D03*
X0366800Y0240146D03*
X0311800Y0298454D03*
X0311800Y0305146D03*
X0291800Y0305146D03*
X0291800Y0298454D03*
X0281800Y0298454D03*
X0281800Y0305146D03*
X0296800Y0358454D03*
X0296800Y0365146D03*
X0331800Y0315146D03*
X0331800Y0308454D03*
X0356800Y0353454D03*
X0356800Y0360146D03*
X0366800Y0360146D03*
X0366800Y0353454D03*
X0356800Y0085146D03*
X0356800Y0078454D03*
D11*
X0320146Y0151800D03*
X0313454Y0151800D03*
X0271800Y0120146D03*
X0271800Y0113454D03*
X0271800Y0055146D03*
X0271800Y0048454D03*
X0136800Y0123454D03*
X0136800Y0130146D03*
X0136800Y0208454D03*
X0136800Y0215146D03*
X0126800Y0213454D03*
X0126800Y0220146D03*
X0151800Y0268454D03*
X0151800Y0275146D03*
X0163454Y0316800D03*
X0170146Y0316800D03*
X0186800Y0313454D03*
X0186800Y0320146D03*
X0201800Y0315146D03*
X0201800Y0308454D03*
X0201800Y0255146D03*
X0201800Y0248454D03*
X0211800Y0378454D03*
X0211800Y0385146D03*
X0321800Y0385146D03*
X0321800Y0378454D03*
X0346800Y0360146D03*
X0346800Y0353454D03*
X0321800Y0325146D03*
X0321800Y0318454D03*
X0346800Y0255146D03*
X0346800Y0248454D03*
D12*
X0110540Y0297469D03*
X0103060Y0297469D03*
X0106800Y0306131D03*
X0103060Y0332469D03*
X0110540Y0332469D03*
X0106800Y0341131D03*
X0103060Y0367469D03*
X0106800Y0376131D03*
X0110540Y0367469D03*
X0070540Y0367469D03*
X0066800Y0376131D03*
X0063060Y0367469D03*
X0066800Y0341131D03*
X0063060Y0332469D03*
X0070540Y0332469D03*
X0066800Y0306131D03*
X0063060Y0297469D03*
X0070540Y0297469D03*
D13*
X0082076Y0265540D03*
X0082076Y0261800D03*
X0082076Y0258060D03*
X0091524Y0258060D03*
X0091524Y0261800D03*
X0091524Y0265540D03*
X0117076Y0245540D03*
X0117076Y0241800D03*
X0117076Y0238060D03*
X0126524Y0238060D03*
X0126524Y0241800D03*
X0126524Y0245540D03*
X0091524Y0418060D03*
X0091524Y0421800D03*
X0091524Y0425540D03*
X0082076Y0425540D03*
X0082076Y0421800D03*
X0082076Y0418060D03*
D14*
X0186800Y0292050D03*
X0191800Y0292050D03*
X0196800Y0292050D03*
X0201800Y0292050D03*
X0206800Y0292050D03*
X0211800Y0292050D03*
X0216800Y0292050D03*
X0216800Y0271550D03*
X0211800Y0271550D03*
X0206800Y0271550D03*
X0201800Y0271550D03*
X0196800Y0271550D03*
X0191800Y0271550D03*
X0186800Y0271550D03*
X0151800Y0182050D03*
X0146800Y0182050D03*
X0141800Y0182050D03*
X0136800Y0182050D03*
X0131800Y0182050D03*
X0126800Y0182050D03*
X0121800Y0182050D03*
X0121800Y0161550D03*
X0126800Y0161550D03*
X0131800Y0161550D03*
X0136800Y0161550D03*
X0141800Y0161550D03*
X0146800Y0161550D03*
X0151800Y0161550D03*
X0256800Y0102050D03*
X0261800Y0102050D03*
X0266800Y0102050D03*
X0271800Y0102050D03*
X0276800Y0102050D03*
X0281800Y0102050D03*
X0286800Y0102050D03*
X0286800Y0081550D03*
X0281800Y0081550D03*
X0276800Y0081550D03*
X0271800Y0081550D03*
X0266800Y0081550D03*
X0261800Y0081550D03*
X0256800Y0081550D03*
X0331800Y0266550D03*
X0336800Y0266550D03*
X0341800Y0266550D03*
X0346800Y0266550D03*
X0351800Y0266550D03*
X0356800Y0266550D03*
X0361800Y0266550D03*
X0361800Y0287050D03*
X0356800Y0287050D03*
X0351800Y0287050D03*
X0346800Y0287050D03*
X0341800Y0287050D03*
X0336800Y0287050D03*
X0331800Y0287050D03*
X0331800Y0341550D03*
X0326800Y0341550D03*
X0321800Y0341550D03*
X0316800Y0341550D03*
X0311800Y0341550D03*
X0306800Y0341550D03*
X0306800Y0362050D03*
X0311800Y0362050D03*
X0316800Y0362050D03*
X0321800Y0362050D03*
X0326800Y0362050D03*
X0331800Y0362050D03*
X0336800Y0362050D03*
X0336800Y0341550D03*
M02*
