G75*
%MOIN*%
%OFA0B0*%
%FSLAX25Y25*%
%IPPOS*%
%LPD*%
%AMOC8*
5,1,8,0,0,1.08239X$1,22.5*
%
%ADD10C,0.01600*%
%ADD11C,0.01100*%
%ADD12C,0.00600*%
%ADD13R,0.15000X0.02500*%
%ADD14C,0.00394*%
%ADD15C,0.00800*%
D10*
X0062600Y0142600D02*
X0062600Y0212600D01*
X0137600Y0212600D01*
X0137600Y0142600D01*
X0062600Y0142600D01*
X0152600Y0142600D02*
X0152600Y0212600D01*
X0227600Y0212600D01*
X0227600Y0142600D01*
X0152600Y0142600D01*
X0377600Y0142600D02*
X0377600Y0212600D01*
X0452600Y0212600D01*
X0452600Y0142600D01*
X0377600Y0142600D01*
X0467600Y0142600D02*
X0467600Y0212600D01*
X0542600Y0212600D01*
X0542600Y0142600D01*
X0467600Y0142600D01*
D11*
X0143315Y0063150D02*
X0142331Y0064134D01*
X0143315Y0063150D02*
X0145284Y0063150D01*
X0146268Y0064134D01*
X0146268Y0068071D01*
X0145284Y0069055D01*
X0143315Y0069055D01*
X0142331Y0068071D01*
X0148777Y0067087D02*
X0148777Y0063150D01*
X0148777Y0066103D02*
X0152714Y0066103D01*
X0152714Y0067087D02*
X0150745Y0069055D01*
X0148777Y0067087D01*
X0152714Y0067087D02*
X0152714Y0063150D01*
X0155222Y0065118D02*
X0155222Y0069055D01*
X0155222Y0065118D02*
X0157191Y0063150D01*
X0159159Y0065118D01*
X0159159Y0069055D01*
X0161668Y0068071D02*
X0161668Y0067087D01*
X0165605Y0063150D01*
X0161668Y0063150D01*
X0168113Y0063150D02*
X0172050Y0063150D01*
X0170082Y0063150D02*
X0170082Y0069055D01*
X0172050Y0067087D01*
X0165605Y0068071D02*
X0164620Y0069055D01*
X0162652Y0069055D01*
X0161668Y0068071D01*
X0193777Y0128150D02*
X0197714Y0128150D01*
X0197714Y0134055D01*
X0200222Y0134055D02*
X0204159Y0134055D01*
X0202191Y0134055D02*
X0202191Y0128150D01*
X0206668Y0129134D02*
X0206668Y0134055D01*
X0210605Y0134055D02*
X0210605Y0129134D01*
X0209620Y0128150D01*
X0207652Y0128150D01*
X0206668Y0129134D01*
X0213113Y0129134D02*
X0213113Y0133071D01*
X0214097Y0134055D01*
X0216066Y0134055D01*
X0217050Y0133071D01*
X0217050Y0129134D01*
X0216066Y0128150D01*
X0214097Y0128150D01*
X0213113Y0129134D01*
X0102050Y0129134D02*
X0101066Y0128150D01*
X0099097Y0128150D01*
X0098113Y0129134D01*
X0098113Y0133071D01*
X0099097Y0134055D01*
X0101066Y0134055D01*
X0102050Y0133071D01*
X0102050Y0129134D01*
X0095605Y0129134D02*
X0094620Y0128150D01*
X0092652Y0128150D01*
X0091668Y0129134D01*
X0091668Y0134055D01*
X0089159Y0134055D02*
X0085222Y0134055D01*
X0087191Y0134055D02*
X0087191Y0128150D01*
X0082714Y0128150D02*
X0082714Y0134055D01*
X0079761Y0134055D01*
X0078777Y0133071D01*
X0078777Y0131103D01*
X0079761Y0130118D01*
X0082714Y0130118D01*
X0080745Y0130118D02*
X0078777Y0128150D01*
X0095605Y0129134D02*
X0095605Y0134055D01*
X0341059Y0067055D02*
X0344996Y0067055D01*
X0344996Y0064103D01*
X0343027Y0065087D01*
X0342043Y0065087D01*
X0341059Y0064103D01*
X0341059Y0062134D01*
X0342043Y0061150D01*
X0344011Y0061150D01*
X0344996Y0062134D01*
X0347504Y0062134D02*
X0348488Y0061150D01*
X0350457Y0061150D01*
X0351441Y0062134D01*
X0351441Y0066071D01*
X0350457Y0067055D01*
X0348488Y0067055D01*
X0347504Y0066071D01*
X0346989Y0058955D02*
X0346004Y0057971D01*
X0349941Y0054034D01*
X0348957Y0053050D01*
X0346989Y0053050D01*
X0346004Y0054034D01*
X0346004Y0057971D01*
X0346989Y0058955D02*
X0348957Y0058955D01*
X0349941Y0057971D01*
X0349941Y0054034D01*
X0352450Y0054034D02*
X0353434Y0053050D01*
X0355402Y0053050D01*
X0356387Y0054034D01*
X0352450Y0057971D01*
X0352450Y0054034D01*
X0356387Y0054034D02*
X0356387Y0057971D01*
X0355402Y0058955D01*
X0353434Y0058955D01*
X0352450Y0057971D01*
X0358895Y0057971D02*
X0358895Y0056987D01*
X0359880Y0056003D01*
X0358895Y0055018D01*
X0358895Y0054034D01*
X0359880Y0053050D01*
X0361848Y0053050D01*
X0362832Y0054034D01*
X0365341Y0054034D02*
X0366325Y0053050D01*
X0368293Y0053050D01*
X0369278Y0054034D01*
X0367309Y0056003D02*
X0366325Y0056003D01*
X0365341Y0055018D01*
X0365341Y0054034D01*
X0366325Y0056003D02*
X0365341Y0056987D01*
X0365341Y0057971D01*
X0366325Y0058955D01*
X0368293Y0058955D01*
X0369278Y0057971D01*
X0362832Y0057971D02*
X0361848Y0058955D01*
X0359880Y0058955D01*
X0358895Y0057971D01*
X0359880Y0056003D02*
X0360864Y0056003D01*
X0343496Y0056987D02*
X0343496Y0054034D01*
X0342511Y0053050D01*
X0339559Y0053050D01*
X0339559Y0056987D01*
X0462331Y0050187D02*
X0462331Y0046250D01*
X0465284Y0046250D01*
X0466268Y0047234D01*
X0466268Y0050187D01*
X0468777Y0051171D02*
X0468777Y0047234D01*
X0469761Y0046250D01*
X0471729Y0046250D01*
X0472714Y0047234D01*
X0468777Y0051171D01*
X0469761Y0052155D01*
X0471729Y0052155D01*
X0472714Y0051171D01*
X0472714Y0047234D01*
X0475222Y0047234D02*
X0476206Y0046250D01*
X0478175Y0046250D01*
X0479159Y0047234D01*
X0475222Y0051171D01*
X0475222Y0047234D01*
X0479159Y0047234D02*
X0479159Y0051171D01*
X0478175Y0052155D01*
X0476206Y0052155D01*
X0475222Y0051171D01*
X0481668Y0051171D02*
X0481668Y0050187D01*
X0482652Y0049203D01*
X0481668Y0048218D01*
X0481668Y0047234D01*
X0482652Y0046250D01*
X0484620Y0046250D01*
X0485605Y0047234D01*
X0488113Y0047234D02*
X0489097Y0046250D01*
X0491066Y0046250D01*
X0492050Y0047234D01*
X0490082Y0049203D02*
X0489097Y0049203D01*
X0488113Y0048218D01*
X0488113Y0047234D01*
X0489097Y0049203D02*
X0488113Y0050187D01*
X0488113Y0051171D01*
X0489097Y0052155D01*
X0491066Y0052155D01*
X0492050Y0051171D01*
X0485605Y0051171D02*
X0484620Y0052155D01*
X0482652Y0052155D01*
X0481668Y0051171D01*
X0482652Y0049203D02*
X0483636Y0049203D01*
X0483488Y0056150D02*
X0482504Y0057134D01*
X0483488Y0056150D02*
X0485457Y0056150D01*
X0486441Y0057134D01*
X0486441Y0061071D01*
X0485457Y0062055D01*
X0483488Y0062055D01*
X0482504Y0061071D01*
X0479996Y0061071D02*
X0479011Y0062055D01*
X0477043Y0062055D01*
X0476059Y0061071D01*
X0476059Y0060087D01*
X0479996Y0056150D01*
X0476059Y0056150D01*
X0431066Y0101250D02*
X0432050Y0102234D01*
X0431066Y0101250D02*
X0429097Y0101250D01*
X0428113Y0102234D01*
X0428113Y0103218D01*
X0429097Y0104203D01*
X0430082Y0104203D01*
X0429097Y0104203D02*
X0428113Y0105187D01*
X0428113Y0106171D01*
X0429097Y0107155D01*
X0431066Y0107155D01*
X0432050Y0106171D01*
X0425605Y0106171D02*
X0424620Y0107155D01*
X0422652Y0107155D01*
X0421668Y0106171D01*
X0421668Y0105187D01*
X0422652Y0104203D01*
X0421668Y0103218D01*
X0421668Y0102234D01*
X0422652Y0101250D01*
X0424620Y0101250D01*
X0425605Y0102234D01*
X0423636Y0104203D02*
X0422652Y0104203D01*
X0419159Y0106171D02*
X0418175Y0107155D01*
X0416206Y0107155D01*
X0415222Y0106171D01*
X0419159Y0102234D01*
X0418175Y0101250D01*
X0416206Y0101250D01*
X0415222Y0102234D01*
X0415222Y0106171D01*
X0412714Y0106171D02*
X0411729Y0107155D01*
X0409761Y0107155D01*
X0408777Y0106171D01*
X0412714Y0102234D01*
X0411729Y0101250D01*
X0409761Y0101250D01*
X0408777Y0102234D01*
X0408777Y0106171D01*
X0406268Y0105187D02*
X0406268Y0102234D01*
X0405284Y0101250D01*
X0402331Y0101250D01*
X0402331Y0105187D01*
X0412714Y0106171D02*
X0412714Y0102234D01*
X0419159Y0102234D02*
X0419159Y0106171D01*
X0418488Y0111150D02*
X0417504Y0112134D01*
X0418488Y0111150D02*
X0420457Y0111150D01*
X0421441Y0112134D01*
X0421441Y0116071D01*
X0420457Y0117055D01*
X0418488Y0117055D01*
X0417504Y0116071D01*
X0414996Y0114103D02*
X0411059Y0114103D01*
X0412043Y0117055D02*
X0412043Y0111150D01*
X0414996Y0114103D02*
X0412043Y0117055D01*
X0411308Y0128150D02*
X0411308Y0134055D01*
X0408355Y0134055D01*
X0407371Y0133071D01*
X0407371Y0131103D01*
X0408355Y0130118D01*
X0411308Y0130118D01*
X0409339Y0130118D02*
X0407371Y0128150D01*
X0413816Y0128150D02*
X0413816Y0134055D01*
X0417753Y0134055D02*
X0413816Y0128150D01*
X0417753Y0128150D02*
X0417753Y0134055D01*
X0420082Y0134055D02*
X0422050Y0134055D01*
X0421066Y0134055D02*
X0421066Y0128150D01*
X0422050Y0128150D02*
X0420082Y0128150D01*
X0507371Y0128150D02*
X0511308Y0128150D01*
X0511308Y0134055D01*
X0513816Y0134055D02*
X0513816Y0128150D01*
X0517753Y0134055D01*
X0517753Y0128150D01*
X0520082Y0128150D02*
X0522050Y0128150D01*
X0521066Y0128150D02*
X0521066Y0134055D01*
X0522050Y0134055D02*
X0520082Y0134055D01*
X0523027Y0117055D02*
X0523027Y0111150D01*
X0521059Y0111150D02*
X0524996Y0111150D01*
X0527504Y0112134D02*
X0528488Y0111150D01*
X0530457Y0111150D01*
X0531441Y0112134D01*
X0531441Y0116071D01*
X0530457Y0117055D01*
X0528488Y0117055D01*
X0527504Y0116071D01*
X0524996Y0115087D02*
X0523027Y0117055D01*
X0529761Y0107155D02*
X0528777Y0106171D01*
X0532714Y0102234D01*
X0531729Y0101250D01*
X0529761Y0101250D01*
X0528777Y0102234D01*
X0528777Y0106171D01*
X0529761Y0107155D02*
X0531729Y0107155D01*
X0532714Y0106171D01*
X0532714Y0102234D01*
X0535222Y0102234D02*
X0536206Y0101250D01*
X0538175Y0101250D01*
X0539159Y0102234D01*
X0535222Y0106171D01*
X0535222Y0102234D01*
X0539159Y0102234D02*
X0539159Y0106171D01*
X0538175Y0107155D01*
X0536206Y0107155D01*
X0535222Y0106171D01*
X0541668Y0106171D02*
X0541668Y0105187D01*
X0542652Y0104203D01*
X0541668Y0103218D01*
X0541668Y0102234D01*
X0542652Y0101250D01*
X0544620Y0101250D01*
X0545605Y0102234D01*
X0548113Y0102234D02*
X0549097Y0101250D01*
X0551066Y0101250D01*
X0552050Y0102234D01*
X0550082Y0104203D02*
X0549097Y0104203D01*
X0548113Y0103218D01*
X0548113Y0102234D01*
X0549097Y0104203D02*
X0548113Y0105187D01*
X0548113Y0106171D01*
X0549097Y0107155D01*
X0551066Y0107155D01*
X0552050Y0106171D01*
X0545605Y0106171D02*
X0544620Y0107155D01*
X0542652Y0107155D01*
X0541668Y0106171D01*
X0542652Y0104203D02*
X0543636Y0104203D01*
X0526268Y0105187D02*
X0526268Y0102234D01*
X0525284Y0101250D01*
X0522331Y0101250D01*
X0522331Y0105187D01*
D12*
X0537600Y0092100D02*
X0537600Y0086100D01*
X0540600Y0089100D02*
X0534600Y0089100D01*
X0537600Y0070600D02*
X0537600Y0066100D01*
X0545100Y0066100D01*
X0545100Y0063600D01*
X0530100Y0063600D01*
X0530100Y0066100D01*
X0537600Y0066100D01*
X0502600Y0062600D02*
X0502611Y0063459D01*
X0502642Y0064317D01*
X0502695Y0065175D01*
X0502769Y0066031D01*
X0502863Y0066884D01*
X0502979Y0067736D01*
X0503115Y0068584D01*
X0503273Y0069428D01*
X0503450Y0070269D01*
X0503649Y0071104D01*
X0503868Y0071935D01*
X0504107Y0072760D01*
X0504367Y0073579D01*
X0504646Y0074391D01*
X0504945Y0075196D01*
X0505264Y0075994D01*
X0505603Y0076783D01*
X0505960Y0077564D01*
X0506337Y0078336D01*
X0506733Y0079099D01*
X0507147Y0079851D01*
X0507579Y0080594D01*
X0508030Y0081325D01*
X0508499Y0082045D01*
X0508985Y0082753D01*
X0509488Y0083449D01*
X0510008Y0084133D01*
X0510545Y0084804D01*
X0511098Y0085461D01*
X0511667Y0086105D01*
X0512251Y0086734D01*
X0512851Y0087349D01*
X0513466Y0087949D01*
X0514095Y0088533D01*
X0514739Y0089102D01*
X0515396Y0089655D01*
X0516067Y0090192D01*
X0516751Y0090712D01*
X0517447Y0091215D01*
X0518155Y0091701D01*
X0518875Y0092170D01*
X0519606Y0092621D01*
X0520349Y0093053D01*
X0521101Y0093467D01*
X0521864Y0093863D01*
X0522636Y0094240D01*
X0523417Y0094597D01*
X0524206Y0094936D01*
X0525004Y0095255D01*
X0525809Y0095554D01*
X0526621Y0095833D01*
X0527440Y0096093D01*
X0528265Y0096332D01*
X0529096Y0096551D01*
X0529931Y0096750D01*
X0530772Y0096927D01*
X0531616Y0097085D01*
X0532464Y0097221D01*
X0533316Y0097337D01*
X0534169Y0097431D01*
X0535025Y0097505D01*
X0535883Y0097558D01*
X0536741Y0097589D01*
X0537600Y0097600D01*
X0538459Y0097589D01*
X0539317Y0097558D01*
X0540175Y0097505D01*
X0541031Y0097431D01*
X0541884Y0097337D01*
X0542736Y0097221D01*
X0543584Y0097085D01*
X0544428Y0096927D01*
X0545269Y0096750D01*
X0546104Y0096551D01*
X0546935Y0096332D01*
X0547760Y0096093D01*
X0548579Y0095833D01*
X0549391Y0095554D01*
X0550196Y0095255D01*
X0550994Y0094936D01*
X0551783Y0094597D01*
X0552564Y0094240D01*
X0553336Y0093863D01*
X0554099Y0093467D01*
X0554851Y0093053D01*
X0555594Y0092621D01*
X0556325Y0092170D01*
X0557045Y0091701D01*
X0557753Y0091215D01*
X0558449Y0090712D01*
X0559133Y0090192D01*
X0559804Y0089655D01*
X0560461Y0089102D01*
X0561105Y0088533D01*
X0561734Y0087949D01*
X0562349Y0087349D01*
X0562949Y0086734D01*
X0563533Y0086105D01*
X0564102Y0085461D01*
X0564655Y0084804D01*
X0565192Y0084133D01*
X0565712Y0083449D01*
X0566215Y0082753D01*
X0566701Y0082045D01*
X0567170Y0081325D01*
X0567621Y0080594D01*
X0568053Y0079851D01*
X0568467Y0079099D01*
X0568863Y0078336D01*
X0569240Y0077564D01*
X0569597Y0076783D01*
X0569936Y0075994D01*
X0570255Y0075196D01*
X0570554Y0074391D01*
X0570833Y0073579D01*
X0571093Y0072760D01*
X0571332Y0071935D01*
X0571551Y0071104D01*
X0571750Y0070269D01*
X0571927Y0069428D01*
X0572085Y0068584D01*
X0572221Y0067736D01*
X0572337Y0066884D01*
X0572431Y0066031D01*
X0572505Y0065175D01*
X0572558Y0064317D01*
X0572589Y0063459D01*
X0572600Y0062600D01*
X0572589Y0061741D01*
X0572558Y0060883D01*
X0572505Y0060025D01*
X0572431Y0059169D01*
X0572337Y0058316D01*
X0572221Y0057464D01*
X0572085Y0056616D01*
X0571927Y0055772D01*
X0571750Y0054931D01*
X0571551Y0054096D01*
X0571332Y0053265D01*
X0571093Y0052440D01*
X0570833Y0051621D01*
X0570554Y0050809D01*
X0570255Y0050004D01*
X0569936Y0049206D01*
X0569597Y0048417D01*
X0569240Y0047636D01*
X0568863Y0046864D01*
X0568467Y0046101D01*
X0568053Y0045349D01*
X0567621Y0044606D01*
X0567170Y0043875D01*
X0566701Y0043155D01*
X0566215Y0042447D01*
X0565712Y0041751D01*
X0565192Y0041067D01*
X0564655Y0040396D01*
X0564102Y0039739D01*
X0563533Y0039095D01*
X0562949Y0038466D01*
X0562349Y0037851D01*
X0561734Y0037251D01*
X0561105Y0036667D01*
X0560461Y0036098D01*
X0559804Y0035545D01*
X0559133Y0035008D01*
X0558449Y0034488D01*
X0557753Y0033985D01*
X0557045Y0033499D01*
X0556325Y0033030D01*
X0555594Y0032579D01*
X0554851Y0032147D01*
X0554099Y0031733D01*
X0553336Y0031337D01*
X0552564Y0030960D01*
X0551783Y0030603D01*
X0550994Y0030264D01*
X0550196Y0029945D01*
X0549391Y0029646D01*
X0548579Y0029367D01*
X0547760Y0029107D01*
X0546935Y0028868D01*
X0546104Y0028649D01*
X0545269Y0028450D01*
X0544428Y0028273D01*
X0543584Y0028115D01*
X0542736Y0027979D01*
X0541884Y0027863D01*
X0541031Y0027769D01*
X0540175Y0027695D01*
X0539317Y0027642D01*
X0538459Y0027611D01*
X0537600Y0027600D01*
X0536741Y0027611D01*
X0535883Y0027642D01*
X0535025Y0027695D01*
X0534169Y0027769D01*
X0533316Y0027863D01*
X0532464Y0027979D01*
X0531616Y0028115D01*
X0530772Y0028273D01*
X0529931Y0028450D01*
X0529096Y0028649D01*
X0528265Y0028868D01*
X0527440Y0029107D01*
X0526621Y0029367D01*
X0525809Y0029646D01*
X0525004Y0029945D01*
X0524206Y0030264D01*
X0523417Y0030603D01*
X0522636Y0030960D01*
X0521864Y0031337D01*
X0521101Y0031733D01*
X0520349Y0032147D01*
X0519606Y0032579D01*
X0518875Y0033030D01*
X0518155Y0033499D01*
X0517447Y0033985D01*
X0516751Y0034488D01*
X0516067Y0035008D01*
X0515396Y0035545D01*
X0514739Y0036098D01*
X0514095Y0036667D01*
X0513466Y0037251D01*
X0512851Y0037851D01*
X0512251Y0038466D01*
X0511667Y0039095D01*
X0511098Y0039739D01*
X0510545Y0040396D01*
X0510008Y0041067D01*
X0509488Y0041751D01*
X0508985Y0042447D01*
X0508499Y0043155D01*
X0508030Y0043875D01*
X0507579Y0044606D01*
X0507147Y0045349D01*
X0506733Y0046101D01*
X0506337Y0046864D01*
X0505960Y0047636D01*
X0505603Y0048417D01*
X0505264Y0049206D01*
X0504945Y0050004D01*
X0504646Y0050809D01*
X0504367Y0051621D01*
X0504107Y0052440D01*
X0503868Y0053265D01*
X0503649Y0054096D01*
X0503450Y0054931D01*
X0503273Y0055772D01*
X0503115Y0056616D01*
X0502979Y0057464D01*
X0502863Y0058316D01*
X0502769Y0059169D01*
X0502695Y0060025D01*
X0502642Y0060883D01*
X0502611Y0061741D01*
X0502600Y0062600D01*
X0537600Y0060100D02*
X0537600Y0054600D01*
X0477600Y0094600D02*
X0477600Y0100100D01*
X0442600Y0102600D02*
X0442611Y0103459D01*
X0442642Y0104317D01*
X0442695Y0105175D01*
X0442769Y0106031D01*
X0442863Y0106884D01*
X0442979Y0107736D01*
X0443115Y0108584D01*
X0443273Y0109428D01*
X0443450Y0110269D01*
X0443649Y0111104D01*
X0443868Y0111935D01*
X0444107Y0112760D01*
X0444367Y0113579D01*
X0444646Y0114391D01*
X0444945Y0115196D01*
X0445264Y0115994D01*
X0445603Y0116783D01*
X0445960Y0117564D01*
X0446337Y0118336D01*
X0446733Y0119099D01*
X0447147Y0119851D01*
X0447579Y0120594D01*
X0448030Y0121325D01*
X0448499Y0122045D01*
X0448985Y0122753D01*
X0449488Y0123449D01*
X0450008Y0124133D01*
X0450545Y0124804D01*
X0451098Y0125461D01*
X0451667Y0126105D01*
X0452251Y0126734D01*
X0452851Y0127349D01*
X0453466Y0127949D01*
X0454095Y0128533D01*
X0454739Y0129102D01*
X0455396Y0129655D01*
X0456067Y0130192D01*
X0456751Y0130712D01*
X0457447Y0131215D01*
X0458155Y0131701D01*
X0458875Y0132170D01*
X0459606Y0132621D01*
X0460349Y0133053D01*
X0461101Y0133467D01*
X0461864Y0133863D01*
X0462636Y0134240D01*
X0463417Y0134597D01*
X0464206Y0134936D01*
X0465004Y0135255D01*
X0465809Y0135554D01*
X0466621Y0135833D01*
X0467440Y0136093D01*
X0468265Y0136332D01*
X0469096Y0136551D01*
X0469931Y0136750D01*
X0470772Y0136927D01*
X0471616Y0137085D01*
X0472464Y0137221D01*
X0473316Y0137337D01*
X0474169Y0137431D01*
X0475025Y0137505D01*
X0475883Y0137558D01*
X0476741Y0137589D01*
X0477600Y0137600D01*
X0478459Y0137589D01*
X0479317Y0137558D01*
X0480175Y0137505D01*
X0481031Y0137431D01*
X0481884Y0137337D01*
X0482736Y0137221D01*
X0483584Y0137085D01*
X0484428Y0136927D01*
X0485269Y0136750D01*
X0486104Y0136551D01*
X0486935Y0136332D01*
X0487760Y0136093D01*
X0488579Y0135833D01*
X0489391Y0135554D01*
X0490196Y0135255D01*
X0490994Y0134936D01*
X0491783Y0134597D01*
X0492564Y0134240D01*
X0493336Y0133863D01*
X0494099Y0133467D01*
X0494851Y0133053D01*
X0495594Y0132621D01*
X0496325Y0132170D01*
X0497045Y0131701D01*
X0497753Y0131215D01*
X0498449Y0130712D01*
X0499133Y0130192D01*
X0499804Y0129655D01*
X0500461Y0129102D01*
X0501105Y0128533D01*
X0501734Y0127949D01*
X0502349Y0127349D01*
X0502949Y0126734D01*
X0503533Y0126105D01*
X0504102Y0125461D01*
X0504655Y0124804D01*
X0505192Y0124133D01*
X0505712Y0123449D01*
X0506215Y0122753D01*
X0506701Y0122045D01*
X0507170Y0121325D01*
X0507621Y0120594D01*
X0508053Y0119851D01*
X0508467Y0119099D01*
X0508863Y0118336D01*
X0509240Y0117564D01*
X0509597Y0116783D01*
X0509936Y0115994D01*
X0510255Y0115196D01*
X0510554Y0114391D01*
X0510833Y0113579D01*
X0511093Y0112760D01*
X0511332Y0111935D01*
X0511551Y0111104D01*
X0511750Y0110269D01*
X0511927Y0109428D01*
X0512085Y0108584D01*
X0512221Y0107736D01*
X0512337Y0106884D01*
X0512431Y0106031D01*
X0512505Y0105175D01*
X0512558Y0104317D01*
X0512589Y0103459D01*
X0512600Y0102600D01*
X0512589Y0101741D01*
X0512558Y0100883D01*
X0512505Y0100025D01*
X0512431Y0099169D01*
X0512337Y0098316D01*
X0512221Y0097464D01*
X0512085Y0096616D01*
X0511927Y0095772D01*
X0511750Y0094931D01*
X0511551Y0094096D01*
X0511332Y0093265D01*
X0511093Y0092440D01*
X0510833Y0091621D01*
X0510554Y0090809D01*
X0510255Y0090004D01*
X0509936Y0089206D01*
X0509597Y0088417D01*
X0509240Y0087636D01*
X0508863Y0086864D01*
X0508467Y0086101D01*
X0508053Y0085349D01*
X0507621Y0084606D01*
X0507170Y0083875D01*
X0506701Y0083155D01*
X0506215Y0082447D01*
X0505712Y0081751D01*
X0505192Y0081067D01*
X0504655Y0080396D01*
X0504102Y0079739D01*
X0503533Y0079095D01*
X0502949Y0078466D01*
X0502349Y0077851D01*
X0501734Y0077251D01*
X0501105Y0076667D01*
X0500461Y0076098D01*
X0499804Y0075545D01*
X0499133Y0075008D01*
X0498449Y0074488D01*
X0497753Y0073985D01*
X0497045Y0073499D01*
X0496325Y0073030D01*
X0495594Y0072579D01*
X0494851Y0072147D01*
X0494099Y0071733D01*
X0493336Y0071337D01*
X0492564Y0070960D01*
X0491783Y0070603D01*
X0490994Y0070264D01*
X0490196Y0069945D01*
X0489391Y0069646D01*
X0488579Y0069367D01*
X0487760Y0069107D01*
X0486935Y0068868D01*
X0486104Y0068649D01*
X0485269Y0068450D01*
X0484428Y0068273D01*
X0483584Y0068115D01*
X0482736Y0067979D01*
X0481884Y0067863D01*
X0481031Y0067769D01*
X0480175Y0067695D01*
X0479317Y0067642D01*
X0478459Y0067611D01*
X0477600Y0067600D01*
X0476741Y0067611D01*
X0475883Y0067642D01*
X0475025Y0067695D01*
X0474169Y0067769D01*
X0473316Y0067863D01*
X0472464Y0067979D01*
X0471616Y0068115D01*
X0470772Y0068273D01*
X0469931Y0068450D01*
X0469096Y0068649D01*
X0468265Y0068868D01*
X0467440Y0069107D01*
X0466621Y0069367D01*
X0465809Y0069646D01*
X0465004Y0069945D01*
X0464206Y0070264D01*
X0463417Y0070603D01*
X0462636Y0070960D01*
X0461864Y0071337D01*
X0461101Y0071733D01*
X0460349Y0072147D01*
X0459606Y0072579D01*
X0458875Y0073030D01*
X0458155Y0073499D01*
X0457447Y0073985D01*
X0456751Y0074488D01*
X0456067Y0075008D01*
X0455396Y0075545D01*
X0454739Y0076098D01*
X0454095Y0076667D01*
X0453466Y0077251D01*
X0452851Y0077851D01*
X0452251Y0078466D01*
X0451667Y0079095D01*
X0451098Y0079739D01*
X0450545Y0080396D01*
X0450008Y0081067D01*
X0449488Y0081751D01*
X0448985Y0082447D01*
X0448499Y0083155D01*
X0448030Y0083875D01*
X0447579Y0084606D01*
X0447147Y0085349D01*
X0446733Y0086101D01*
X0446337Y0086864D01*
X0445960Y0087636D01*
X0445603Y0088417D01*
X0445264Y0089206D01*
X0444945Y0090004D01*
X0444646Y0090809D01*
X0444367Y0091621D01*
X0444107Y0092440D01*
X0443868Y0093265D01*
X0443649Y0094096D01*
X0443450Y0094931D01*
X0443273Y0095772D01*
X0443115Y0096616D01*
X0442979Y0097464D01*
X0442863Y0098316D01*
X0442769Y0099169D01*
X0442695Y0100025D01*
X0442642Y0100883D01*
X0442611Y0101741D01*
X0442600Y0102600D01*
X0417600Y0092100D02*
X0417600Y0086100D01*
X0420600Y0089100D02*
X0414600Y0089100D01*
X0417600Y0070600D02*
X0417600Y0066100D01*
X0425100Y0066100D01*
X0425100Y0063600D01*
X0410100Y0063600D01*
X0410100Y0066100D01*
X0417600Y0066100D01*
X0382600Y0062600D02*
X0382611Y0063459D01*
X0382642Y0064317D01*
X0382695Y0065175D01*
X0382769Y0066031D01*
X0382863Y0066884D01*
X0382979Y0067736D01*
X0383115Y0068584D01*
X0383273Y0069428D01*
X0383450Y0070269D01*
X0383649Y0071104D01*
X0383868Y0071935D01*
X0384107Y0072760D01*
X0384367Y0073579D01*
X0384646Y0074391D01*
X0384945Y0075196D01*
X0385264Y0075994D01*
X0385603Y0076783D01*
X0385960Y0077564D01*
X0386337Y0078336D01*
X0386733Y0079099D01*
X0387147Y0079851D01*
X0387579Y0080594D01*
X0388030Y0081325D01*
X0388499Y0082045D01*
X0388985Y0082753D01*
X0389488Y0083449D01*
X0390008Y0084133D01*
X0390545Y0084804D01*
X0391098Y0085461D01*
X0391667Y0086105D01*
X0392251Y0086734D01*
X0392851Y0087349D01*
X0393466Y0087949D01*
X0394095Y0088533D01*
X0394739Y0089102D01*
X0395396Y0089655D01*
X0396067Y0090192D01*
X0396751Y0090712D01*
X0397447Y0091215D01*
X0398155Y0091701D01*
X0398875Y0092170D01*
X0399606Y0092621D01*
X0400349Y0093053D01*
X0401101Y0093467D01*
X0401864Y0093863D01*
X0402636Y0094240D01*
X0403417Y0094597D01*
X0404206Y0094936D01*
X0405004Y0095255D01*
X0405809Y0095554D01*
X0406621Y0095833D01*
X0407440Y0096093D01*
X0408265Y0096332D01*
X0409096Y0096551D01*
X0409931Y0096750D01*
X0410772Y0096927D01*
X0411616Y0097085D01*
X0412464Y0097221D01*
X0413316Y0097337D01*
X0414169Y0097431D01*
X0415025Y0097505D01*
X0415883Y0097558D01*
X0416741Y0097589D01*
X0417600Y0097600D01*
X0418459Y0097589D01*
X0419317Y0097558D01*
X0420175Y0097505D01*
X0421031Y0097431D01*
X0421884Y0097337D01*
X0422736Y0097221D01*
X0423584Y0097085D01*
X0424428Y0096927D01*
X0425269Y0096750D01*
X0426104Y0096551D01*
X0426935Y0096332D01*
X0427760Y0096093D01*
X0428579Y0095833D01*
X0429391Y0095554D01*
X0430196Y0095255D01*
X0430994Y0094936D01*
X0431783Y0094597D01*
X0432564Y0094240D01*
X0433336Y0093863D01*
X0434099Y0093467D01*
X0434851Y0093053D01*
X0435594Y0092621D01*
X0436325Y0092170D01*
X0437045Y0091701D01*
X0437753Y0091215D01*
X0438449Y0090712D01*
X0439133Y0090192D01*
X0439804Y0089655D01*
X0440461Y0089102D01*
X0441105Y0088533D01*
X0441734Y0087949D01*
X0442349Y0087349D01*
X0442949Y0086734D01*
X0443533Y0086105D01*
X0444102Y0085461D01*
X0444655Y0084804D01*
X0445192Y0084133D01*
X0445712Y0083449D01*
X0446215Y0082753D01*
X0446701Y0082045D01*
X0447170Y0081325D01*
X0447621Y0080594D01*
X0448053Y0079851D01*
X0448467Y0079099D01*
X0448863Y0078336D01*
X0449240Y0077564D01*
X0449597Y0076783D01*
X0449936Y0075994D01*
X0450255Y0075196D01*
X0450554Y0074391D01*
X0450833Y0073579D01*
X0451093Y0072760D01*
X0451332Y0071935D01*
X0451551Y0071104D01*
X0451750Y0070269D01*
X0451927Y0069428D01*
X0452085Y0068584D01*
X0452221Y0067736D01*
X0452337Y0066884D01*
X0452431Y0066031D01*
X0452505Y0065175D01*
X0452558Y0064317D01*
X0452589Y0063459D01*
X0452600Y0062600D01*
X0452589Y0061741D01*
X0452558Y0060883D01*
X0452505Y0060025D01*
X0452431Y0059169D01*
X0452337Y0058316D01*
X0452221Y0057464D01*
X0452085Y0056616D01*
X0451927Y0055772D01*
X0451750Y0054931D01*
X0451551Y0054096D01*
X0451332Y0053265D01*
X0451093Y0052440D01*
X0450833Y0051621D01*
X0450554Y0050809D01*
X0450255Y0050004D01*
X0449936Y0049206D01*
X0449597Y0048417D01*
X0449240Y0047636D01*
X0448863Y0046864D01*
X0448467Y0046101D01*
X0448053Y0045349D01*
X0447621Y0044606D01*
X0447170Y0043875D01*
X0446701Y0043155D01*
X0446215Y0042447D01*
X0445712Y0041751D01*
X0445192Y0041067D01*
X0444655Y0040396D01*
X0444102Y0039739D01*
X0443533Y0039095D01*
X0442949Y0038466D01*
X0442349Y0037851D01*
X0441734Y0037251D01*
X0441105Y0036667D01*
X0440461Y0036098D01*
X0439804Y0035545D01*
X0439133Y0035008D01*
X0438449Y0034488D01*
X0437753Y0033985D01*
X0437045Y0033499D01*
X0436325Y0033030D01*
X0435594Y0032579D01*
X0434851Y0032147D01*
X0434099Y0031733D01*
X0433336Y0031337D01*
X0432564Y0030960D01*
X0431783Y0030603D01*
X0430994Y0030264D01*
X0430196Y0029945D01*
X0429391Y0029646D01*
X0428579Y0029367D01*
X0427760Y0029107D01*
X0426935Y0028868D01*
X0426104Y0028649D01*
X0425269Y0028450D01*
X0424428Y0028273D01*
X0423584Y0028115D01*
X0422736Y0027979D01*
X0421884Y0027863D01*
X0421031Y0027769D01*
X0420175Y0027695D01*
X0419317Y0027642D01*
X0418459Y0027611D01*
X0417600Y0027600D01*
X0416741Y0027611D01*
X0415883Y0027642D01*
X0415025Y0027695D01*
X0414169Y0027769D01*
X0413316Y0027863D01*
X0412464Y0027979D01*
X0411616Y0028115D01*
X0410772Y0028273D01*
X0409931Y0028450D01*
X0409096Y0028649D01*
X0408265Y0028868D01*
X0407440Y0029107D01*
X0406621Y0029367D01*
X0405809Y0029646D01*
X0405004Y0029945D01*
X0404206Y0030264D01*
X0403417Y0030603D01*
X0402636Y0030960D01*
X0401864Y0031337D01*
X0401101Y0031733D01*
X0400349Y0032147D01*
X0399606Y0032579D01*
X0398875Y0033030D01*
X0398155Y0033499D01*
X0397447Y0033985D01*
X0396751Y0034488D01*
X0396067Y0035008D01*
X0395396Y0035545D01*
X0394739Y0036098D01*
X0394095Y0036667D01*
X0393466Y0037251D01*
X0392851Y0037851D01*
X0392251Y0038466D01*
X0391667Y0039095D01*
X0391098Y0039739D01*
X0390545Y0040396D01*
X0390008Y0041067D01*
X0389488Y0041751D01*
X0388985Y0042447D01*
X0388499Y0043155D01*
X0388030Y0043875D01*
X0387579Y0044606D01*
X0387147Y0045349D01*
X0386733Y0046101D01*
X0386337Y0046864D01*
X0385960Y0047636D01*
X0385603Y0048417D01*
X0385264Y0049206D01*
X0384945Y0050004D01*
X0384646Y0050809D01*
X0384367Y0051621D01*
X0384107Y0052440D01*
X0383868Y0053265D01*
X0383649Y0054096D01*
X0383450Y0054931D01*
X0383273Y0055772D01*
X0383115Y0056616D01*
X0382979Y0057464D01*
X0382863Y0058316D01*
X0382769Y0059169D01*
X0382695Y0060025D01*
X0382642Y0060883D01*
X0382611Y0061741D01*
X0382600Y0062600D01*
X0417600Y0060100D02*
X0417600Y0054600D01*
X0357600Y0094600D02*
X0357600Y0100100D01*
X0322600Y0102600D02*
X0322611Y0103459D01*
X0322642Y0104317D01*
X0322695Y0105175D01*
X0322769Y0106031D01*
X0322863Y0106884D01*
X0322979Y0107736D01*
X0323115Y0108584D01*
X0323273Y0109428D01*
X0323450Y0110269D01*
X0323649Y0111104D01*
X0323868Y0111935D01*
X0324107Y0112760D01*
X0324367Y0113579D01*
X0324646Y0114391D01*
X0324945Y0115196D01*
X0325264Y0115994D01*
X0325603Y0116783D01*
X0325960Y0117564D01*
X0326337Y0118336D01*
X0326733Y0119099D01*
X0327147Y0119851D01*
X0327579Y0120594D01*
X0328030Y0121325D01*
X0328499Y0122045D01*
X0328985Y0122753D01*
X0329488Y0123449D01*
X0330008Y0124133D01*
X0330545Y0124804D01*
X0331098Y0125461D01*
X0331667Y0126105D01*
X0332251Y0126734D01*
X0332851Y0127349D01*
X0333466Y0127949D01*
X0334095Y0128533D01*
X0334739Y0129102D01*
X0335396Y0129655D01*
X0336067Y0130192D01*
X0336751Y0130712D01*
X0337447Y0131215D01*
X0338155Y0131701D01*
X0338875Y0132170D01*
X0339606Y0132621D01*
X0340349Y0133053D01*
X0341101Y0133467D01*
X0341864Y0133863D01*
X0342636Y0134240D01*
X0343417Y0134597D01*
X0344206Y0134936D01*
X0345004Y0135255D01*
X0345809Y0135554D01*
X0346621Y0135833D01*
X0347440Y0136093D01*
X0348265Y0136332D01*
X0349096Y0136551D01*
X0349931Y0136750D01*
X0350772Y0136927D01*
X0351616Y0137085D01*
X0352464Y0137221D01*
X0353316Y0137337D01*
X0354169Y0137431D01*
X0355025Y0137505D01*
X0355883Y0137558D01*
X0356741Y0137589D01*
X0357600Y0137600D01*
X0358459Y0137589D01*
X0359317Y0137558D01*
X0360175Y0137505D01*
X0361031Y0137431D01*
X0361884Y0137337D01*
X0362736Y0137221D01*
X0363584Y0137085D01*
X0364428Y0136927D01*
X0365269Y0136750D01*
X0366104Y0136551D01*
X0366935Y0136332D01*
X0367760Y0136093D01*
X0368579Y0135833D01*
X0369391Y0135554D01*
X0370196Y0135255D01*
X0370994Y0134936D01*
X0371783Y0134597D01*
X0372564Y0134240D01*
X0373336Y0133863D01*
X0374099Y0133467D01*
X0374851Y0133053D01*
X0375594Y0132621D01*
X0376325Y0132170D01*
X0377045Y0131701D01*
X0377753Y0131215D01*
X0378449Y0130712D01*
X0379133Y0130192D01*
X0379804Y0129655D01*
X0380461Y0129102D01*
X0381105Y0128533D01*
X0381734Y0127949D01*
X0382349Y0127349D01*
X0382949Y0126734D01*
X0383533Y0126105D01*
X0384102Y0125461D01*
X0384655Y0124804D01*
X0385192Y0124133D01*
X0385712Y0123449D01*
X0386215Y0122753D01*
X0386701Y0122045D01*
X0387170Y0121325D01*
X0387621Y0120594D01*
X0388053Y0119851D01*
X0388467Y0119099D01*
X0388863Y0118336D01*
X0389240Y0117564D01*
X0389597Y0116783D01*
X0389936Y0115994D01*
X0390255Y0115196D01*
X0390554Y0114391D01*
X0390833Y0113579D01*
X0391093Y0112760D01*
X0391332Y0111935D01*
X0391551Y0111104D01*
X0391750Y0110269D01*
X0391927Y0109428D01*
X0392085Y0108584D01*
X0392221Y0107736D01*
X0392337Y0106884D01*
X0392431Y0106031D01*
X0392505Y0105175D01*
X0392558Y0104317D01*
X0392589Y0103459D01*
X0392600Y0102600D01*
X0392589Y0101741D01*
X0392558Y0100883D01*
X0392505Y0100025D01*
X0392431Y0099169D01*
X0392337Y0098316D01*
X0392221Y0097464D01*
X0392085Y0096616D01*
X0391927Y0095772D01*
X0391750Y0094931D01*
X0391551Y0094096D01*
X0391332Y0093265D01*
X0391093Y0092440D01*
X0390833Y0091621D01*
X0390554Y0090809D01*
X0390255Y0090004D01*
X0389936Y0089206D01*
X0389597Y0088417D01*
X0389240Y0087636D01*
X0388863Y0086864D01*
X0388467Y0086101D01*
X0388053Y0085349D01*
X0387621Y0084606D01*
X0387170Y0083875D01*
X0386701Y0083155D01*
X0386215Y0082447D01*
X0385712Y0081751D01*
X0385192Y0081067D01*
X0384655Y0080396D01*
X0384102Y0079739D01*
X0383533Y0079095D01*
X0382949Y0078466D01*
X0382349Y0077851D01*
X0381734Y0077251D01*
X0381105Y0076667D01*
X0380461Y0076098D01*
X0379804Y0075545D01*
X0379133Y0075008D01*
X0378449Y0074488D01*
X0377753Y0073985D01*
X0377045Y0073499D01*
X0376325Y0073030D01*
X0375594Y0072579D01*
X0374851Y0072147D01*
X0374099Y0071733D01*
X0373336Y0071337D01*
X0372564Y0070960D01*
X0371783Y0070603D01*
X0370994Y0070264D01*
X0370196Y0069945D01*
X0369391Y0069646D01*
X0368579Y0069367D01*
X0367760Y0069107D01*
X0366935Y0068868D01*
X0366104Y0068649D01*
X0365269Y0068450D01*
X0364428Y0068273D01*
X0363584Y0068115D01*
X0362736Y0067979D01*
X0361884Y0067863D01*
X0361031Y0067769D01*
X0360175Y0067695D01*
X0359317Y0067642D01*
X0358459Y0067611D01*
X0357600Y0067600D01*
X0356741Y0067611D01*
X0355883Y0067642D01*
X0355025Y0067695D01*
X0354169Y0067769D01*
X0353316Y0067863D01*
X0352464Y0067979D01*
X0351616Y0068115D01*
X0350772Y0068273D01*
X0349931Y0068450D01*
X0349096Y0068649D01*
X0348265Y0068868D01*
X0347440Y0069107D01*
X0346621Y0069367D01*
X0345809Y0069646D01*
X0345004Y0069945D01*
X0344206Y0070264D01*
X0343417Y0070603D01*
X0342636Y0070960D01*
X0341864Y0071337D01*
X0341101Y0071733D01*
X0340349Y0072147D01*
X0339606Y0072579D01*
X0338875Y0073030D01*
X0338155Y0073499D01*
X0337447Y0073985D01*
X0336751Y0074488D01*
X0336067Y0075008D01*
X0335396Y0075545D01*
X0334739Y0076098D01*
X0334095Y0076667D01*
X0333466Y0077251D01*
X0332851Y0077851D01*
X0332251Y0078466D01*
X0331667Y0079095D01*
X0331098Y0079739D01*
X0330545Y0080396D01*
X0330008Y0081067D01*
X0329488Y0081751D01*
X0328985Y0082447D01*
X0328499Y0083155D01*
X0328030Y0083875D01*
X0327579Y0084606D01*
X0327147Y0085349D01*
X0326733Y0086101D01*
X0326337Y0086864D01*
X0325960Y0087636D01*
X0325603Y0088417D01*
X0325264Y0089206D01*
X0324945Y0090004D01*
X0324646Y0090809D01*
X0324367Y0091621D01*
X0324107Y0092440D01*
X0323868Y0093265D01*
X0323649Y0094096D01*
X0323450Y0094931D01*
X0323273Y0095772D01*
X0323115Y0096616D01*
X0322979Y0097464D01*
X0322863Y0098316D01*
X0322769Y0099169D01*
X0322695Y0100025D01*
X0322642Y0100883D01*
X0322611Y0101741D01*
X0322600Y0102600D01*
X0350100Y0103600D02*
X0350100Y0106100D01*
X0357600Y0106100D01*
X0365100Y0106100D01*
X0365100Y0103600D01*
X0350100Y0103600D01*
X0357600Y0106100D02*
X0357600Y0110600D01*
X0357600Y0126100D02*
X0357600Y0132100D01*
X0360600Y0129100D02*
X0354600Y0129100D01*
X0470100Y0106100D02*
X0470100Y0103600D01*
X0485100Y0103600D01*
X0485100Y0106100D01*
X0477600Y0106100D01*
X0470100Y0106100D01*
X0477600Y0106100D02*
X0477600Y0110600D01*
X0477600Y0126100D02*
X0477600Y0132100D01*
X0480600Y0129100D02*
X0474600Y0129100D01*
D13*
X0477600Y0100350D03*
X0417600Y0060350D03*
X0357600Y0100350D03*
X0537600Y0060350D03*
D14*
X0215317Y0072521D02*
X0215317Y0025277D01*
X0210198Y0025277D01*
X0210198Y0029214D01*
X0210198Y0033151D02*
X0210198Y0037088D01*
X0213348Y0039057D02*
X0213348Y0072521D01*
X0186852Y0072521D01*
X0188348Y0078427D02*
X0181852Y0078427D01*
X0181852Y0080395D01*
X0188348Y0080395D01*
X0206852Y0080395D02*
X0213348Y0080395D01*
X0213348Y0078427D01*
X0206852Y0078427D01*
X0213348Y0078427D02*
X0213348Y0072521D01*
X0215317Y0072521D01*
X0210198Y0060710D02*
X0207836Y0060710D01*
X0210198Y0060710D02*
X0210198Y0056773D01*
X0210198Y0052836D02*
X0210198Y0048899D01*
X0210198Y0044962D02*
X0210198Y0041025D01*
X0213348Y0039057D02*
X0215317Y0039057D01*
X0213348Y0039057D02*
X0179883Y0039057D01*
X0185002Y0041025D02*
X0185002Y0044962D01*
X0185002Y0048899D02*
X0185002Y0052836D01*
X0185002Y0056773D02*
X0185002Y0060710D01*
X0187364Y0060710D01*
X0191301Y0060710D02*
X0193663Y0060710D01*
X0201537Y0060710D01*
X0203899Y0060710D01*
X0179883Y0057521D02*
X0179883Y0025277D01*
X0185002Y0025277D01*
X0185002Y0029214D01*
X0185002Y0033151D02*
X0185002Y0037088D01*
X0193663Y0033151D02*
X0193665Y0033027D01*
X0193671Y0032904D01*
X0193680Y0032780D01*
X0193694Y0032658D01*
X0193711Y0032535D01*
X0193733Y0032413D01*
X0193758Y0032292D01*
X0193787Y0032172D01*
X0193819Y0032053D01*
X0193856Y0031934D01*
X0193896Y0031817D01*
X0193939Y0031702D01*
X0193987Y0031587D01*
X0194038Y0031475D01*
X0194092Y0031364D01*
X0194150Y0031254D01*
X0194211Y0031147D01*
X0194276Y0031041D01*
X0194344Y0030938D01*
X0194415Y0030837D01*
X0194489Y0030738D01*
X0194566Y0030641D01*
X0194647Y0030547D01*
X0194730Y0030456D01*
X0194816Y0030367D01*
X0194905Y0030281D01*
X0194996Y0030198D01*
X0195090Y0030117D01*
X0195187Y0030040D01*
X0195286Y0029966D01*
X0195387Y0029895D01*
X0195490Y0029827D01*
X0195596Y0029762D01*
X0195703Y0029701D01*
X0195813Y0029643D01*
X0195924Y0029589D01*
X0196036Y0029538D01*
X0196151Y0029490D01*
X0196266Y0029447D01*
X0196383Y0029407D01*
X0196502Y0029370D01*
X0196621Y0029338D01*
X0196741Y0029309D01*
X0196862Y0029284D01*
X0196984Y0029262D01*
X0197107Y0029245D01*
X0197229Y0029231D01*
X0197353Y0029222D01*
X0197476Y0029216D01*
X0197600Y0029214D01*
X0197724Y0029216D01*
X0197847Y0029222D01*
X0197971Y0029231D01*
X0198093Y0029245D01*
X0198216Y0029262D01*
X0198338Y0029284D01*
X0198459Y0029309D01*
X0198579Y0029338D01*
X0198698Y0029370D01*
X0198817Y0029407D01*
X0198934Y0029447D01*
X0199049Y0029490D01*
X0199164Y0029538D01*
X0199276Y0029589D01*
X0199387Y0029643D01*
X0199497Y0029701D01*
X0199604Y0029762D01*
X0199710Y0029827D01*
X0199813Y0029895D01*
X0199914Y0029966D01*
X0200013Y0030040D01*
X0200110Y0030117D01*
X0200204Y0030198D01*
X0200295Y0030281D01*
X0200384Y0030367D01*
X0200470Y0030456D01*
X0200553Y0030547D01*
X0200634Y0030641D01*
X0200711Y0030738D01*
X0200785Y0030837D01*
X0200856Y0030938D01*
X0200924Y0031041D01*
X0200989Y0031147D01*
X0201050Y0031254D01*
X0201108Y0031364D01*
X0201162Y0031475D01*
X0201213Y0031587D01*
X0201261Y0031702D01*
X0201304Y0031817D01*
X0201344Y0031934D01*
X0201381Y0032053D01*
X0201413Y0032172D01*
X0201442Y0032292D01*
X0201467Y0032413D01*
X0201489Y0032535D01*
X0201506Y0032658D01*
X0201520Y0032780D01*
X0201529Y0032904D01*
X0201535Y0033027D01*
X0201537Y0033151D01*
X0210198Y0025277D02*
X0185002Y0025277D01*
D15*
X0219794Y0068000D02*
X0222596Y0068000D01*
X0221195Y0068000D02*
X0221195Y0072204D01*
X0222596Y0070802D01*
X0224398Y0072204D02*
X0225799Y0072204D01*
X0225098Y0072204D02*
X0225098Y0068701D01*
X0225799Y0068000D01*
X0226499Y0068000D01*
X0227200Y0068701D01*
M02*
