G75*
%MOIN*%
%OFA0B0*%
%FSLAX25Y25*%
%IPPOS*%
%LPD*%
%AMOC8*
5,1,8,0,0,1.08239X$1,22.5*
%
%ADD10C,0.00787*%
%ADD11C,0.01200*%
%ADD12C,0.00800*%
%ADD13C,0.01600*%
%ADD14C,0.01100*%
%ADD15C,0.00600*%
%ADD16R,0.02000X0.10000*%
%ADD17R,0.07500X0.03000*%
%ADD18C,0.00200*%
%ADD19R,0.02500X0.03000*%
%ADD20R,0.11000X0.05000*%
D10*
X0562521Y0102561D02*
X0592521Y0102561D01*
X0622521Y0102561D01*
X0622521Y0117561D01*
X0592521Y0117561D02*
X0592521Y0102561D01*
X0562521Y0102561D02*
X0562521Y0117561D01*
D11*
X0353900Y0155100D02*
X0353900Y0157600D01*
X0353900Y0160100D01*
X0351400Y0160100D02*
X0351400Y0157600D01*
X0351400Y0155100D01*
X0280100Y0156300D02*
X0277600Y0156300D01*
X0275100Y0156300D01*
X0275100Y0158800D02*
X0277600Y0158800D01*
X0280100Y0158800D01*
X0055414Y0092153D02*
X0050961Y0092153D01*
X0053188Y0094379D02*
X0053188Y0089926D01*
X0053188Y0099375D02*
X0053188Y0103828D01*
D12*
X0080000Y0029500D02*
X0082102Y0029500D01*
X0082802Y0030201D01*
X0082802Y0033003D01*
X0082102Y0033704D01*
X0080000Y0033704D01*
X0080000Y0029500D01*
X0084604Y0030201D02*
X0085305Y0029500D01*
X0086706Y0029500D01*
X0087406Y0030201D01*
X0087406Y0030901D01*
X0086706Y0031602D01*
X0084604Y0031602D01*
X0084604Y0030201D01*
X0084604Y0031602D02*
X0086005Y0033003D01*
X0087406Y0033704D01*
X0085914Y0047000D02*
X0084512Y0047000D01*
X0083812Y0047701D01*
X0086614Y0050503D01*
X0086614Y0047701D01*
X0085914Y0047000D01*
X0083812Y0047701D02*
X0083812Y0050503D01*
X0084512Y0051204D01*
X0085914Y0051204D01*
X0086614Y0050503D01*
X0088416Y0050503D02*
X0089116Y0051204D01*
X0090517Y0051204D01*
X0091218Y0050503D01*
X0088416Y0047701D01*
X0089116Y0047000D01*
X0090517Y0047000D01*
X0091218Y0047701D01*
X0091218Y0050503D01*
X0093020Y0049102D02*
X0095822Y0049102D01*
X0095121Y0047000D02*
X0095121Y0051204D01*
X0093020Y0049102D01*
X0088416Y0047701D02*
X0088416Y0050503D01*
X0082010Y0049102D02*
X0079208Y0049102D01*
X0081310Y0051204D01*
X0081310Y0047000D01*
X0077406Y0047000D02*
X0077406Y0051204D01*
X0074604Y0051204D02*
X0077406Y0047000D01*
X0074604Y0047000D02*
X0074604Y0051204D01*
X0071401Y0051204D02*
X0070000Y0049802D01*
X0071401Y0051204D02*
X0071401Y0047000D01*
X0070000Y0047000D02*
X0072802Y0047000D01*
X0063312Y0045800D02*
X0061210Y0047902D01*
X0060510Y0047201D02*
X0063312Y0050004D01*
X0060510Y0050004D02*
X0060510Y0045800D01*
X0058708Y0045800D02*
X0055906Y0045800D01*
X0058708Y0048602D01*
X0058708Y0049303D01*
X0058008Y0050004D01*
X0056606Y0050004D01*
X0055906Y0049303D01*
X0054305Y0046501D02*
X0054305Y0045800D01*
X0053604Y0045800D01*
X0053604Y0046501D01*
X0054305Y0046501D01*
X0051802Y0045800D02*
X0049000Y0045800D01*
X0051802Y0048602D01*
X0051802Y0049303D01*
X0051102Y0050004D01*
X0049701Y0050004D01*
X0049000Y0049303D01*
X0045406Y0047003D02*
X0044706Y0047704D01*
X0043305Y0047704D01*
X0042604Y0047003D01*
X0040802Y0047003D02*
X0040802Y0045602D01*
X0040102Y0044901D01*
X0038000Y0044901D01*
X0038000Y0043500D02*
X0038000Y0047704D01*
X0040102Y0047704D01*
X0040802Y0047003D01*
X0039401Y0044901D02*
X0040802Y0043500D01*
X0042604Y0043500D02*
X0045406Y0046302D01*
X0045406Y0047003D01*
X0045406Y0043500D02*
X0042604Y0043500D01*
X0073000Y0057701D02*
X0073701Y0057000D01*
X0075102Y0057000D01*
X0075802Y0057701D01*
X0077604Y0057701D02*
X0077604Y0058401D01*
X0078305Y0059102D01*
X0079706Y0059102D01*
X0080406Y0058401D01*
X0080406Y0057701D01*
X0079706Y0057000D01*
X0078305Y0057000D01*
X0077604Y0057701D01*
X0078305Y0059102D02*
X0077604Y0059802D01*
X0077604Y0060503D01*
X0078305Y0061204D01*
X0079706Y0061204D01*
X0080406Y0060503D01*
X0080406Y0059802D01*
X0079706Y0059102D01*
X0075802Y0060503D02*
X0075102Y0061204D01*
X0073701Y0061204D01*
X0073000Y0060503D01*
X0073000Y0057701D01*
X0073000Y0064500D02*
X0075802Y0064500D01*
X0074401Y0064500D02*
X0074401Y0068704D01*
X0073000Y0067302D01*
X0077604Y0067302D02*
X0077604Y0065201D01*
X0078305Y0064500D01*
X0080406Y0064500D01*
X0080406Y0067302D01*
X0105000Y0059802D02*
X0106401Y0061204D01*
X0106401Y0057000D01*
X0105000Y0057000D02*
X0107802Y0057000D01*
X0109604Y0057000D02*
X0109604Y0061204D01*
X0112406Y0057000D01*
X0112406Y0061204D01*
X0114208Y0059102D02*
X0117010Y0059102D01*
X0116310Y0061204D02*
X0114208Y0059102D01*
X0116310Y0057000D02*
X0116310Y0061204D01*
X0118812Y0060503D02*
X0119512Y0061204D01*
X0120914Y0061204D01*
X0121614Y0060503D01*
X0118812Y0057701D01*
X0119512Y0057000D01*
X0120914Y0057000D01*
X0121614Y0057701D01*
X0121614Y0060503D01*
X0123416Y0060503D02*
X0124116Y0061204D01*
X0125517Y0061204D01*
X0126218Y0060503D01*
X0123416Y0057701D01*
X0124116Y0057000D01*
X0125517Y0057000D01*
X0126218Y0057701D01*
X0126218Y0060503D01*
X0128020Y0059102D02*
X0130822Y0059102D01*
X0130121Y0061204D02*
X0128020Y0059102D01*
X0130121Y0057000D02*
X0130121Y0061204D01*
X0123416Y0060503D02*
X0123416Y0057701D01*
X0118812Y0057701D02*
X0118812Y0060503D01*
X0120305Y0053704D02*
X0119604Y0053003D01*
X0120305Y0053704D02*
X0121706Y0053704D01*
X0122406Y0053003D01*
X0122406Y0052302D01*
X0121706Y0051602D01*
X0122406Y0050901D01*
X0122406Y0050201D01*
X0121706Y0049500D01*
X0120305Y0049500D01*
X0119604Y0050201D01*
X0117802Y0050201D02*
X0117802Y0053003D01*
X0117102Y0053704D01*
X0115000Y0053704D01*
X0115000Y0049500D01*
X0117102Y0049500D01*
X0117802Y0050201D01*
X0121005Y0051602D02*
X0121706Y0051602D01*
X0150000Y0043704D02*
X0152102Y0043704D01*
X0152802Y0043003D01*
X0152802Y0040201D01*
X0152102Y0039500D01*
X0150000Y0039500D01*
X0150000Y0043704D01*
X0154604Y0043003D02*
X0155305Y0043704D01*
X0156706Y0043704D01*
X0157406Y0043003D01*
X0157406Y0042302D01*
X0154604Y0039500D01*
X0157406Y0039500D01*
X0155914Y0036204D02*
X0156614Y0035503D01*
X0153812Y0032701D01*
X0154512Y0032000D01*
X0155914Y0032000D01*
X0156614Y0032701D01*
X0156614Y0035503D01*
X0155914Y0036204D02*
X0154512Y0036204D01*
X0153812Y0035503D01*
X0153812Y0032701D01*
X0152010Y0034102D02*
X0149208Y0034102D01*
X0151310Y0036204D01*
X0151310Y0032000D01*
X0147406Y0032000D02*
X0147406Y0036204D01*
X0144604Y0036204D02*
X0147406Y0032000D01*
X0144604Y0032000D02*
X0144604Y0036204D01*
X0141401Y0036204D02*
X0141401Y0032000D01*
X0140000Y0032000D02*
X0142802Y0032000D01*
X0140000Y0034802D02*
X0141401Y0036204D01*
X0158416Y0035503D02*
X0158416Y0032701D01*
X0161218Y0035503D01*
X0161218Y0032701D01*
X0160517Y0032000D01*
X0159116Y0032000D01*
X0158416Y0032701D01*
X0158416Y0035503D02*
X0159116Y0036204D01*
X0160517Y0036204D01*
X0161218Y0035503D01*
X0163020Y0034102D02*
X0165822Y0034102D01*
X0165121Y0036204D02*
X0163020Y0034102D01*
X0165121Y0032000D02*
X0165121Y0036204D01*
X0130121Y0077000D02*
X0130121Y0081204D01*
X0128020Y0079102D01*
X0130822Y0079102D01*
X0126218Y0080503D02*
X0123416Y0077701D01*
X0124116Y0077000D01*
X0125517Y0077000D01*
X0126218Y0077701D01*
X0126218Y0080503D01*
X0125517Y0081204D01*
X0124116Y0081204D01*
X0123416Y0080503D01*
X0123416Y0077701D01*
X0121614Y0077701D02*
X0120914Y0077000D01*
X0119512Y0077000D01*
X0118812Y0077701D01*
X0121614Y0080503D01*
X0121614Y0077701D01*
X0121614Y0080503D02*
X0120914Y0081204D01*
X0119512Y0081204D01*
X0118812Y0080503D01*
X0118812Y0077701D01*
X0117010Y0079102D02*
X0114208Y0079102D01*
X0116310Y0081204D01*
X0116310Y0077000D01*
X0112406Y0077000D02*
X0112406Y0081204D01*
X0109604Y0081204D02*
X0112406Y0077000D01*
X0109604Y0077000D02*
X0109604Y0081204D01*
X0106401Y0081204D02*
X0106401Y0077000D01*
X0105000Y0077000D02*
X0107802Y0077000D01*
X0105000Y0079802D02*
X0106401Y0081204D01*
X0069400Y0081802D02*
X0069400Y0079000D01*
X0066598Y0081802D01*
X0065897Y0081802D01*
X0065196Y0081102D01*
X0065196Y0079701D01*
X0065897Y0079000D01*
X0068699Y0083604D02*
X0068699Y0084305D01*
X0069400Y0084305D01*
X0069400Y0083604D01*
X0068699Y0083604D01*
X0069400Y0085906D02*
X0066598Y0088708D01*
X0065897Y0088708D01*
X0065196Y0088008D01*
X0065196Y0086606D01*
X0065897Y0085906D01*
X0069400Y0085906D02*
X0069400Y0088708D01*
X0069400Y0090510D02*
X0065196Y0090510D01*
X0067298Y0091210D02*
X0069400Y0093312D01*
X0067999Y0090510D02*
X0065196Y0093312D01*
X0067496Y0098000D02*
X0067496Y0100102D01*
X0068197Y0100802D01*
X0069598Y0100802D01*
X0070299Y0100102D01*
X0070299Y0098000D01*
X0071700Y0098000D02*
X0067496Y0098000D01*
X0070299Y0099401D02*
X0071700Y0100802D01*
X0071700Y0102604D02*
X0071700Y0105406D01*
X0071700Y0104005D02*
X0067496Y0104005D01*
X0068898Y0102604D01*
X0044120Y0111578D02*
X0041317Y0111578D01*
X0044120Y0114380D01*
X0044120Y0115081D01*
X0043419Y0115782D01*
X0042018Y0115782D01*
X0041317Y0115081D01*
X0039516Y0115081D02*
X0038815Y0115782D01*
X0036713Y0115782D01*
X0036713Y0111578D01*
X0036713Y0112979D02*
X0038815Y0112979D01*
X0039516Y0113680D01*
X0039516Y0115081D01*
X0034912Y0115782D02*
X0033511Y0115782D01*
X0034211Y0115782D02*
X0034211Y0112279D01*
X0033511Y0111578D01*
X0032810Y0111578D01*
X0032109Y0112279D01*
X0053000Y0117701D02*
X0053701Y0117000D01*
X0055102Y0117000D01*
X0055802Y0117701D01*
X0057604Y0117701D02*
X0057604Y0117000D01*
X0057604Y0117701D02*
X0060406Y0120503D01*
X0060406Y0121204D01*
X0057604Y0121204D01*
X0055802Y0120503D02*
X0055102Y0121204D01*
X0053701Y0121204D01*
X0053000Y0120503D01*
X0053000Y0117701D01*
X0053000Y0124500D02*
X0055802Y0124500D01*
X0054401Y0124500D02*
X0054401Y0128704D01*
X0053000Y0127302D01*
X0057604Y0127302D02*
X0057604Y0125201D01*
X0058305Y0124500D01*
X0060406Y0124500D01*
X0060406Y0127302D01*
X0095000Y0128704D02*
X0095000Y0124500D01*
X0097102Y0124500D01*
X0097802Y0125201D01*
X0097802Y0128003D01*
X0097102Y0128704D01*
X0095000Y0128704D01*
X0099604Y0126602D02*
X0102406Y0126602D01*
X0101706Y0124500D02*
X0101706Y0128704D01*
X0099604Y0126602D01*
X0099604Y0121204D02*
X0102406Y0117000D01*
X0102406Y0121204D01*
X0104208Y0119102D02*
X0106310Y0121204D01*
X0106310Y0117000D01*
X0107010Y0119102D02*
X0104208Y0119102D01*
X0108812Y0120503D02*
X0109512Y0121204D01*
X0110914Y0121204D01*
X0111614Y0120503D01*
X0108812Y0117701D01*
X0109512Y0117000D01*
X0110914Y0117000D01*
X0111614Y0117701D01*
X0111614Y0120503D01*
X0113416Y0120503D02*
X0113416Y0117701D01*
X0116218Y0120503D01*
X0116218Y0117701D01*
X0115517Y0117000D01*
X0114116Y0117000D01*
X0113416Y0117701D01*
X0113416Y0120503D02*
X0114116Y0121204D01*
X0115517Y0121204D01*
X0116218Y0120503D01*
X0118020Y0119102D02*
X0120822Y0119102D01*
X0120121Y0117000D02*
X0120121Y0121204D01*
X0118020Y0119102D01*
X0108812Y0117701D02*
X0108812Y0120503D01*
X0099604Y0121204D02*
X0099604Y0117000D01*
X0097802Y0117000D02*
X0095000Y0117000D01*
X0096401Y0117000D02*
X0096401Y0121204D01*
X0095000Y0119802D01*
X0128000Y0132701D02*
X0128701Y0132000D01*
X0130102Y0132000D01*
X0130802Y0132701D01*
X0132604Y0132000D02*
X0135406Y0132000D01*
X0134005Y0132000D02*
X0134005Y0136204D01*
X0132604Y0134802D01*
X0130802Y0135503D02*
X0130102Y0136204D01*
X0128701Y0136204D01*
X0128000Y0135503D01*
X0128000Y0132701D01*
X0137208Y0132000D02*
X0140010Y0134802D01*
X0140010Y0135503D01*
X0139310Y0136204D01*
X0137908Y0136204D01*
X0137208Y0135503D01*
X0137208Y0132000D02*
X0140010Y0132000D01*
X0178000Y0132704D02*
X0178000Y0128500D01*
X0178000Y0129901D02*
X0180102Y0129901D01*
X0180802Y0130602D01*
X0180802Y0132003D01*
X0180102Y0132704D01*
X0178000Y0132704D01*
X0179401Y0129901D02*
X0180802Y0128500D01*
X0182604Y0128500D02*
X0185406Y0128500D01*
X0184005Y0128500D02*
X0184005Y0132704D01*
X0182604Y0131302D01*
X0187208Y0131302D02*
X0188609Y0132704D01*
X0188609Y0128500D01*
X0187208Y0128500D02*
X0190010Y0128500D01*
X0186406Y0115004D02*
X0183604Y0112201D01*
X0184305Y0112902D02*
X0186406Y0110800D01*
X0183604Y0110800D02*
X0183604Y0115004D01*
X0180401Y0115004D02*
X0180401Y0110800D01*
X0179000Y0110800D02*
X0181802Y0110800D01*
X0179000Y0113602D02*
X0180401Y0115004D01*
X0163822Y0111602D02*
X0163822Y0110201D01*
X0163121Y0109500D01*
X0161020Y0109500D01*
X0161020Y0108099D02*
X0161020Y0112302D01*
X0163121Y0112302D01*
X0163822Y0111602D01*
X0159218Y0111602D02*
X0159218Y0109500D01*
X0159218Y0111602D02*
X0158517Y0112302D01*
X0156416Y0112302D01*
X0156416Y0109500D01*
X0150010Y0109500D02*
X0150010Y0112302D01*
X0150010Y0109500D02*
X0147908Y0109500D01*
X0147208Y0110201D01*
X0147208Y0112302D01*
X0145406Y0113003D02*
X0142604Y0110201D01*
X0143305Y0109500D01*
X0144706Y0109500D01*
X0145406Y0110201D01*
X0145406Y0113003D01*
X0144706Y0113704D01*
X0143305Y0113704D01*
X0142604Y0113003D01*
X0142604Y0110201D01*
X0140802Y0109500D02*
X0138000Y0109500D01*
X0139401Y0109500D02*
X0139401Y0113704D01*
X0138000Y0112302D01*
X0112406Y0098704D02*
X0109604Y0098704D01*
X0109604Y0096602D01*
X0111005Y0097302D01*
X0111706Y0097302D01*
X0112406Y0096602D01*
X0112406Y0095201D01*
X0111706Y0094500D01*
X0110305Y0094500D01*
X0109604Y0095201D01*
X0107802Y0095201D02*
X0107802Y0098003D01*
X0107102Y0098704D01*
X0105000Y0098704D01*
X0105000Y0094500D01*
X0107102Y0094500D01*
X0107802Y0095201D01*
X0155000Y0089802D02*
X0156401Y0091204D01*
X0156401Y0087000D01*
X0155000Y0087000D02*
X0157802Y0087000D01*
X0159604Y0087000D02*
X0159604Y0091204D01*
X0162406Y0087000D01*
X0162406Y0091204D01*
X0164208Y0089102D02*
X0167010Y0089102D01*
X0166310Y0091204D02*
X0164208Y0089102D01*
X0166310Y0087000D02*
X0166310Y0091204D01*
X0168812Y0090503D02*
X0169512Y0091204D01*
X0170914Y0091204D01*
X0171614Y0090503D01*
X0168812Y0087701D01*
X0169512Y0087000D01*
X0170914Y0087000D01*
X0171614Y0087701D01*
X0171614Y0090503D01*
X0173416Y0090503D02*
X0173416Y0087701D01*
X0176218Y0090503D01*
X0176218Y0087701D01*
X0175517Y0087000D01*
X0174116Y0087000D01*
X0173416Y0087701D01*
X0173416Y0090503D02*
X0174116Y0091204D01*
X0175517Y0091204D01*
X0176218Y0090503D01*
X0178020Y0089102D02*
X0180822Y0089102D01*
X0180121Y0091204D02*
X0178020Y0089102D01*
X0180121Y0087000D02*
X0180121Y0091204D01*
X0168812Y0090503D02*
X0168812Y0087701D01*
X0161005Y0083704D02*
X0159604Y0082302D01*
X0157802Y0083003D02*
X0157102Y0083704D01*
X0155000Y0083704D01*
X0155000Y0079500D01*
X0157102Y0079500D01*
X0157802Y0080201D01*
X0157802Y0083003D01*
X0161005Y0083704D02*
X0161005Y0079500D01*
X0159604Y0079500D02*
X0162406Y0079500D01*
X0020002Y0061931D02*
X0020004Y0062089D01*
X0020010Y0062247D01*
X0020020Y0062405D01*
X0020034Y0062563D01*
X0020052Y0062720D01*
X0020073Y0062877D01*
X0020099Y0063033D01*
X0020129Y0063189D01*
X0020162Y0063344D01*
X0020200Y0063497D01*
X0020241Y0063650D01*
X0020286Y0063802D01*
X0020335Y0063953D01*
X0020388Y0064102D01*
X0020444Y0064250D01*
X0020504Y0064396D01*
X0020568Y0064541D01*
X0020636Y0064684D01*
X0020707Y0064826D01*
X0020781Y0064966D01*
X0020859Y0065103D01*
X0020941Y0065239D01*
X0021025Y0065373D01*
X0021114Y0065504D01*
X0021205Y0065633D01*
X0021300Y0065760D01*
X0021397Y0065885D01*
X0021498Y0066007D01*
X0021602Y0066126D01*
X0021709Y0066243D01*
X0021819Y0066357D01*
X0021932Y0066468D01*
X0022047Y0066577D01*
X0022165Y0066682D01*
X0022286Y0066784D01*
X0022409Y0066884D01*
X0022535Y0066980D01*
X0022663Y0067073D01*
X0022793Y0067163D01*
X0022926Y0067249D01*
X0023061Y0067333D01*
X0023197Y0067412D01*
X0023336Y0067489D01*
X0023477Y0067561D01*
X0023619Y0067631D01*
X0023763Y0067696D01*
X0023909Y0067758D01*
X0024056Y0067816D01*
X0024205Y0067871D01*
X0024355Y0067922D01*
X0024506Y0067969D01*
X0024658Y0068012D01*
X0024811Y0068051D01*
X0024966Y0068087D01*
X0025121Y0068118D01*
X0025277Y0068146D01*
X0025433Y0068170D01*
X0025590Y0068190D01*
X0025748Y0068206D01*
X0025905Y0068218D01*
X0026064Y0068226D01*
X0026222Y0068230D01*
X0026380Y0068230D01*
X0026538Y0068226D01*
X0026697Y0068218D01*
X0026854Y0068206D01*
X0027012Y0068190D01*
X0027169Y0068170D01*
X0027325Y0068146D01*
X0027481Y0068118D01*
X0027636Y0068087D01*
X0027791Y0068051D01*
X0027944Y0068012D01*
X0028096Y0067969D01*
X0028247Y0067922D01*
X0028397Y0067871D01*
X0028546Y0067816D01*
X0028693Y0067758D01*
X0028839Y0067696D01*
X0028983Y0067631D01*
X0029125Y0067561D01*
X0029266Y0067489D01*
X0029405Y0067412D01*
X0029541Y0067333D01*
X0029676Y0067249D01*
X0029809Y0067163D01*
X0029939Y0067073D01*
X0030067Y0066980D01*
X0030193Y0066884D01*
X0030316Y0066784D01*
X0030437Y0066682D01*
X0030555Y0066577D01*
X0030670Y0066468D01*
X0030783Y0066357D01*
X0030893Y0066243D01*
X0031000Y0066126D01*
X0031104Y0066007D01*
X0031205Y0065885D01*
X0031302Y0065760D01*
X0031397Y0065633D01*
X0031488Y0065504D01*
X0031577Y0065373D01*
X0031661Y0065239D01*
X0031743Y0065103D01*
X0031821Y0064966D01*
X0031895Y0064826D01*
X0031966Y0064684D01*
X0032034Y0064541D01*
X0032098Y0064396D01*
X0032158Y0064250D01*
X0032214Y0064102D01*
X0032267Y0063953D01*
X0032316Y0063802D01*
X0032361Y0063650D01*
X0032402Y0063497D01*
X0032440Y0063344D01*
X0032473Y0063189D01*
X0032503Y0063033D01*
X0032529Y0062877D01*
X0032550Y0062720D01*
X0032568Y0062563D01*
X0032582Y0062405D01*
X0032592Y0062247D01*
X0032598Y0062089D01*
X0032600Y0061931D01*
X0032598Y0061773D01*
X0032592Y0061615D01*
X0032582Y0061457D01*
X0032568Y0061299D01*
X0032550Y0061142D01*
X0032529Y0060985D01*
X0032503Y0060829D01*
X0032473Y0060673D01*
X0032440Y0060518D01*
X0032402Y0060365D01*
X0032361Y0060212D01*
X0032316Y0060060D01*
X0032267Y0059909D01*
X0032214Y0059760D01*
X0032158Y0059612D01*
X0032098Y0059466D01*
X0032034Y0059321D01*
X0031966Y0059178D01*
X0031895Y0059036D01*
X0031821Y0058896D01*
X0031743Y0058759D01*
X0031661Y0058623D01*
X0031577Y0058489D01*
X0031488Y0058358D01*
X0031397Y0058229D01*
X0031302Y0058102D01*
X0031205Y0057977D01*
X0031104Y0057855D01*
X0031000Y0057736D01*
X0030893Y0057619D01*
X0030783Y0057505D01*
X0030670Y0057394D01*
X0030555Y0057285D01*
X0030437Y0057180D01*
X0030316Y0057078D01*
X0030193Y0056978D01*
X0030067Y0056882D01*
X0029939Y0056789D01*
X0029809Y0056699D01*
X0029676Y0056613D01*
X0029541Y0056529D01*
X0029405Y0056450D01*
X0029266Y0056373D01*
X0029125Y0056301D01*
X0028983Y0056231D01*
X0028839Y0056166D01*
X0028693Y0056104D01*
X0028546Y0056046D01*
X0028397Y0055991D01*
X0028247Y0055940D01*
X0028096Y0055893D01*
X0027944Y0055850D01*
X0027791Y0055811D01*
X0027636Y0055775D01*
X0027481Y0055744D01*
X0027325Y0055716D01*
X0027169Y0055692D01*
X0027012Y0055672D01*
X0026854Y0055656D01*
X0026697Y0055644D01*
X0026538Y0055636D01*
X0026380Y0055632D01*
X0026222Y0055632D01*
X0026064Y0055636D01*
X0025905Y0055644D01*
X0025748Y0055656D01*
X0025590Y0055672D01*
X0025433Y0055692D01*
X0025277Y0055716D01*
X0025121Y0055744D01*
X0024966Y0055775D01*
X0024811Y0055811D01*
X0024658Y0055850D01*
X0024506Y0055893D01*
X0024355Y0055940D01*
X0024205Y0055991D01*
X0024056Y0056046D01*
X0023909Y0056104D01*
X0023763Y0056166D01*
X0023619Y0056231D01*
X0023477Y0056301D01*
X0023336Y0056373D01*
X0023197Y0056450D01*
X0023061Y0056529D01*
X0022926Y0056613D01*
X0022793Y0056699D01*
X0022663Y0056789D01*
X0022535Y0056882D01*
X0022409Y0056978D01*
X0022286Y0057078D01*
X0022165Y0057180D01*
X0022047Y0057285D01*
X0021932Y0057394D01*
X0021819Y0057505D01*
X0021709Y0057619D01*
X0021602Y0057736D01*
X0021498Y0057855D01*
X0021397Y0057977D01*
X0021300Y0058102D01*
X0021205Y0058229D01*
X0021114Y0058358D01*
X0021025Y0058489D01*
X0020941Y0058623D01*
X0020859Y0058759D01*
X0020781Y0058896D01*
X0020707Y0059036D01*
X0020636Y0059178D01*
X0020568Y0059321D01*
X0020504Y0059466D01*
X0020444Y0059612D01*
X0020388Y0059760D01*
X0020335Y0059909D01*
X0020286Y0060060D01*
X0020241Y0060212D01*
X0020200Y0060365D01*
X0020162Y0060518D01*
X0020129Y0060673D01*
X0020099Y0060829D01*
X0020073Y0060985D01*
X0020052Y0061142D01*
X0020034Y0061299D01*
X0020020Y0061457D01*
X0020010Y0061615D01*
X0020004Y0061773D01*
X0020002Y0061931D01*
X0232496Y0153000D02*
X0232496Y0155102D01*
X0233197Y0155802D01*
X0234598Y0155802D01*
X0235299Y0155102D01*
X0235299Y0153000D01*
X0236700Y0153000D02*
X0232496Y0153000D01*
X0235299Y0154401D02*
X0236700Y0155802D01*
X0236700Y0157604D02*
X0236700Y0160406D01*
X0236700Y0159005D02*
X0232496Y0159005D01*
X0233898Y0157604D01*
X0233197Y0162208D02*
X0232496Y0162908D01*
X0232496Y0164310D01*
X0233197Y0165010D01*
X0233898Y0165010D01*
X0236700Y0162208D01*
X0236700Y0165010D01*
X0234400Y0169000D02*
X0234400Y0171802D01*
X0234400Y0170401D02*
X0230196Y0170401D01*
X0231598Y0169000D01*
X0232999Y0173604D02*
X0230196Y0176406D01*
X0230196Y0173604D02*
X0234400Y0173604D01*
X0232298Y0174305D02*
X0234400Y0176406D01*
X0233701Y0182000D02*
X0235102Y0182000D01*
X0235802Y0182701D01*
X0237604Y0182000D02*
X0240406Y0182000D01*
X0239005Y0182000D02*
X0239005Y0186204D01*
X0237604Y0184802D01*
X0235802Y0185503D02*
X0235102Y0186204D01*
X0233701Y0186204D01*
X0233000Y0185503D01*
X0233000Y0182701D01*
X0233701Y0182000D01*
X0242208Y0182000D02*
X0245010Y0182000D01*
X0243609Y0182000D02*
X0243609Y0186204D01*
X0242208Y0184802D01*
X0252496Y0184706D02*
X0253197Y0185406D01*
X0253898Y0185406D01*
X0254598Y0184706D01*
X0254598Y0183305D01*
X0253898Y0182604D01*
X0253197Y0182604D01*
X0252496Y0183305D01*
X0252496Y0184706D01*
X0254598Y0184706D02*
X0255299Y0185406D01*
X0255999Y0185406D01*
X0256700Y0184706D01*
X0256700Y0183305D01*
X0255999Y0182604D01*
X0255299Y0182604D01*
X0254598Y0183305D01*
X0254598Y0180802D02*
X0255299Y0180102D01*
X0255299Y0178000D01*
X0256700Y0178000D02*
X0252496Y0178000D01*
X0252496Y0180102D01*
X0253197Y0180802D01*
X0254598Y0180802D01*
X0255299Y0179401D02*
X0256700Y0180802D01*
X0254400Y0176010D02*
X0252298Y0173908D01*
X0252999Y0173208D02*
X0250196Y0176010D01*
X0250196Y0173208D02*
X0254400Y0173208D01*
X0253699Y0171406D02*
X0250897Y0171406D01*
X0253699Y0168604D01*
X0254400Y0169305D01*
X0254400Y0170706D01*
X0253699Y0171406D01*
X0250897Y0171406D02*
X0250196Y0170706D01*
X0250196Y0169305D01*
X0250897Y0168604D01*
X0253699Y0168604D01*
X0254400Y0166802D02*
X0254400Y0164000D01*
X0254400Y0165401D02*
X0250196Y0165401D01*
X0251598Y0164000D01*
X0299000Y0154003D02*
X0299000Y0151201D01*
X0299701Y0150500D01*
X0301102Y0150500D01*
X0301802Y0151201D01*
X0301802Y0154003D01*
X0301102Y0154704D01*
X0299701Y0154704D01*
X0299000Y0154003D01*
X0303604Y0154704D02*
X0305706Y0154704D01*
X0306406Y0154003D01*
X0306406Y0152602D01*
X0305706Y0151901D01*
X0303604Y0151901D01*
X0303604Y0150500D02*
X0303604Y0154704D01*
X0308208Y0153302D02*
X0309609Y0154704D01*
X0311010Y0153302D01*
X0311010Y0150500D01*
X0312812Y0150500D02*
X0315614Y0153302D01*
X0315614Y0154003D01*
X0314914Y0154704D01*
X0313512Y0154704D01*
X0312812Y0154003D01*
X0311010Y0152602D02*
X0308208Y0152602D01*
X0308208Y0153302D02*
X0308208Y0150500D01*
X0307901Y0148204D02*
X0306500Y0148204D01*
X0307201Y0148204D02*
X0307201Y0144000D01*
X0307901Y0144000D02*
X0306500Y0144000D01*
X0309569Y0144701D02*
X0310270Y0144000D01*
X0311671Y0144000D01*
X0312372Y0144701D01*
X0314173Y0144701D02*
X0314874Y0144000D01*
X0316275Y0144000D01*
X0316976Y0144701D01*
X0316976Y0145401D01*
X0316275Y0146102D01*
X0315574Y0146102D01*
X0316275Y0146102D02*
X0316976Y0146802D01*
X0316976Y0147503D01*
X0316275Y0148204D01*
X0314874Y0148204D01*
X0314173Y0147503D01*
X0312372Y0147503D02*
X0311671Y0148204D01*
X0310270Y0148204D01*
X0309569Y0147503D01*
X0309569Y0144701D01*
X0312812Y0150500D02*
X0315614Y0150500D01*
X0317416Y0150500D02*
X0320218Y0150500D01*
X0318817Y0150500D02*
X0318817Y0154704D01*
X0317416Y0153302D01*
X0322020Y0154003D02*
X0322720Y0154704D01*
X0324121Y0154704D01*
X0324822Y0154003D01*
X0324822Y0153302D01*
X0324121Y0152602D01*
X0324822Y0151901D01*
X0324822Y0151201D01*
X0324121Y0150500D01*
X0322720Y0150500D01*
X0322020Y0151201D01*
X0323421Y0152602D02*
X0324121Y0152602D01*
X0326624Y0152602D02*
X0328725Y0154704D01*
X0328725Y0150500D01*
X0329426Y0152602D02*
X0326624Y0152602D01*
X0331227Y0151901D02*
X0333329Y0151901D01*
X0334030Y0152602D01*
X0334030Y0154003D01*
X0333329Y0154704D01*
X0331227Y0154704D01*
X0331227Y0150500D01*
X0349000Y0166201D02*
X0349701Y0165500D01*
X0351102Y0165500D01*
X0351802Y0166201D01*
X0353604Y0166201D02*
X0354305Y0165500D01*
X0355706Y0165500D01*
X0356406Y0166201D01*
X0356406Y0166901D01*
X0355706Y0167602D01*
X0355005Y0167602D01*
X0355706Y0167602D02*
X0356406Y0168302D01*
X0356406Y0169003D01*
X0355706Y0169704D01*
X0354305Y0169704D01*
X0353604Y0169003D01*
X0351802Y0169003D02*
X0351102Y0169704D01*
X0349701Y0169704D01*
X0349000Y0169003D01*
X0349000Y0166201D01*
X0370796Y0184589D02*
X0375000Y0184589D01*
X0375000Y0183188D02*
X0375000Y0185991D01*
X0374299Y0187792D02*
X0371497Y0187792D01*
X0370796Y0188493D01*
X0370796Y0189894D01*
X0371497Y0190595D01*
X0374299Y0187792D01*
X0375000Y0188493D01*
X0375000Y0189894D01*
X0374299Y0190595D01*
X0371497Y0190595D01*
X0370796Y0192396D02*
X0375000Y0192396D01*
X0373599Y0192396D02*
X0370796Y0195198D01*
X0370299Y0198000D02*
X0370299Y0200102D01*
X0369598Y0200802D01*
X0368197Y0200802D01*
X0367496Y0200102D01*
X0367496Y0198000D01*
X0371700Y0198000D01*
X0370299Y0199401D02*
X0371700Y0200802D01*
X0371700Y0202604D02*
X0371700Y0205406D01*
X0371700Y0204005D02*
X0367496Y0204005D01*
X0368898Y0202604D01*
X0368197Y0207208D02*
X0367496Y0207908D01*
X0367496Y0209310D01*
X0368197Y0210010D01*
X0370999Y0207208D01*
X0371700Y0207908D01*
X0371700Y0209310D01*
X0370999Y0210010D01*
X0368197Y0210010D01*
X0368197Y0207208D02*
X0370999Y0207208D01*
X0339400Y0208208D02*
X0335196Y0208208D01*
X0335897Y0206406D02*
X0336598Y0206406D01*
X0337298Y0205706D01*
X0337999Y0206406D01*
X0338699Y0206406D01*
X0339400Y0205706D01*
X0339400Y0204305D01*
X0338699Y0203604D01*
X0338699Y0201802D02*
X0339400Y0201102D01*
X0339400Y0199701D01*
X0338699Y0199000D01*
X0337298Y0200401D02*
X0337298Y0201102D01*
X0337999Y0201802D01*
X0338699Y0201802D01*
X0337298Y0201102D02*
X0336598Y0201802D01*
X0335897Y0201802D01*
X0335196Y0201102D01*
X0335196Y0199701D01*
X0335897Y0199000D01*
X0338197Y0195406D02*
X0337496Y0194706D01*
X0337496Y0193305D01*
X0338197Y0192604D01*
X0338898Y0192604D01*
X0339598Y0193305D01*
X0339598Y0195406D01*
X0340999Y0195406D02*
X0338197Y0195406D01*
X0340999Y0195406D02*
X0341700Y0194706D01*
X0341700Y0193305D01*
X0340999Y0192604D01*
X0341700Y0190802D02*
X0340299Y0189401D01*
X0340299Y0190102D02*
X0340299Y0188000D01*
X0341700Y0188000D02*
X0337496Y0188000D01*
X0337496Y0190102D01*
X0338197Y0190802D01*
X0339598Y0190802D01*
X0340299Y0190102D01*
X0370796Y0184589D02*
X0372198Y0183188D01*
X0372898Y0193097D02*
X0375000Y0195198D01*
X0339400Y0211010D02*
X0337298Y0208908D01*
X0337999Y0208208D02*
X0335196Y0211010D01*
X0335897Y0206406D02*
X0335196Y0205706D01*
X0335196Y0204305D01*
X0335897Y0203604D01*
X0337298Y0205005D02*
X0337298Y0205706D01*
X0289400Y0201010D02*
X0287298Y0198908D01*
X0287999Y0198208D02*
X0285196Y0201010D01*
X0285299Y0203000D02*
X0285299Y0205102D01*
X0284598Y0205802D01*
X0283197Y0205802D01*
X0282496Y0205102D01*
X0282496Y0203000D01*
X0286700Y0203000D01*
X0285299Y0204401D02*
X0286700Y0205802D01*
X0286700Y0207604D02*
X0285999Y0207604D01*
X0283197Y0210406D01*
X0282496Y0210406D01*
X0282496Y0207604D01*
X0263822Y0210201D02*
X0263121Y0209500D01*
X0261020Y0209500D01*
X0261020Y0208099D02*
X0261020Y0212302D01*
X0263121Y0212302D01*
X0263822Y0211602D01*
X0263822Y0210201D01*
X0259218Y0209500D02*
X0259218Y0211602D01*
X0258517Y0212302D01*
X0256416Y0212302D01*
X0256416Y0209500D01*
X0250010Y0209500D02*
X0250010Y0212302D01*
X0250010Y0209500D02*
X0247908Y0209500D01*
X0247208Y0210201D01*
X0247208Y0212302D01*
X0245406Y0213003D02*
X0242604Y0210201D01*
X0243305Y0209500D01*
X0244706Y0209500D01*
X0245406Y0210201D01*
X0245406Y0213003D01*
X0244706Y0213704D01*
X0243305Y0213704D01*
X0242604Y0213003D01*
X0242604Y0210201D01*
X0240802Y0209500D02*
X0238000Y0209500D01*
X0239401Y0209500D02*
X0239401Y0213704D01*
X0238000Y0212302D01*
X0285196Y0198208D02*
X0289400Y0198208D01*
X0288699Y0196406D02*
X0289400Y0195706D01*
X0289400Y0194305D01*
X0288699Y0193604D01*
X0288699Y0191802D02*
X0289400Y0191102D01*
X0289400Y0189701D01*
X0288699Y0189000D01*
X0287298Y0190401D02*
X0287298Y0191102D01*
X0287999Y0191802D01*
X0288699Y0191802D01*
X0287298Y0191102D02*
X0286598Y0191802D01*
X0285897Y0191802D01*
X0285196Y0191102D01*
X0285196Y0189701D01*
X0285897Y0189000D01*
X0285897Y0193604D02*
X0285196Y0194305D01*
X0285196Y0195706D01*
X0285897Y0196406D01*
X0286598Y0196406D01*
X0287298Y0195706D01*
X0287999Y0196406D01*
X0288699Y0196406D01*
X0287298Y0195706D02*
X0287298Y0195005D01*
X0281406Y0139704D02*
X0280005Y0139003D01*
X0278604Y0137602D01*
X0280706Y0137602D01*
X0281406Y0136901D01*
X0281406Y0136201D01*
X0280706Y0135500D01*
X0279305Y0135500D01*
X0278604Y0136201D01*
X0278604Y0137602D01*
X0276802Y0139003D02*
X0276102Y0139704D01*
X0274701Y0139704D01*
X0274000Y0139003D01*
X0274000Y0136201D01*
X0274701Y0135500D01*
X0276102Y0135500D01*
X0276802Y0136201D01*
X0020002Y0180041D02*
X0020004Y0180199D01*
X0020010Y0180357D01*
X0020020Y0180515D01*
X0020034Y0180673D01*
X0020052Y0180830D01*
X0020073Y0180987D01*
X0020099Y0181143D01*
X0020129Y0181299D01*
X0020162Y0181454D01*
X0020200Y0181607D01*
X0020241Y0181760D01*
X0020286Y0181912D01*
X0020335Y0182063D01*
X0020388Y0182212D01*
X0020444Y0182360D01*
X0020504Y0182506D01*
X0020568Y0182651D01*
X0020636Y0182794D01*
X0020707Y0182936D01*
X0020781Y0183076D01*
X0020859Y0183213D01*
X0020941Y0183349D01*
X0021025Y0183483D01*
X0021114Y0183614D01*
X0021205Y0183743D01*
X0021300Y0183870D01*
X0021397Y0183995D01*
X0021498Y0184117D01*
X0021602Y0184236D01*
X0021709Y0184353D01*
X0021819Y0184467D01*
X0021932Y0184578D01*
X0022047Y0184687D01*
X0022165Y0184792D01*
X0022286Y0184894D01*
X0022409Y0184994D01*
X0022535Y0185090D01*
X0022663Y0185183D01*
X0022793Y0185273D01*
X0022926Y0185359D01*
X0023061Y0185443D01*
X0023197Y0185522D01*
X0023336Y0185599D01*
X0023477Y0185671D01*
X0023619Y0185741D01*
X0023763Y0185806D01*
X0023909Y0185868D01*
X0024056Y0185926D01*
X0024205Y0185981D01*
X0024355Y0186032D01*
X0024506Y0186079D01*
X0024658Y0186122D01*
X0024811Y0186161D01*
X0024966Y0186197D01*
X0025121Y0186228D01*
X0025277Y0186256D01*
X0025433Y0186280D01*
X0025590Y0186300D01*
X0025748Y0186316D01*
X0025905Y0186328D01*
X0026064Y0186336D01*
X0026222Y0186340D01*
X0026380Y0186340D01*
X0026538Y0186336D01*
X0026697Y0186328D01*
X0026854Y0186316D01*
X0027012Y0186300D01*
X0027169Y0186280D01*
X0027325Y0186256D01*
X0027481Y0186228D01*
X0027636Y0186197D01*
X0027791Y0186161D01*
X0027944Y0186122D01*
X0028096Y0186079D01*
X0028247Y0186032D01*
X0028397Y0185981D01*
X0028546Y0185926D01*
X0028693Y0185868D01*
X0028839Y0185806D01*
X0028983Y0185741D01*
X0029125Y0185671D01*
X0029266Y0185599D01*
X0029405Y0185522D01*
X0029541Y0185443D01*
X0029676Y0185359D01*
X0029809Y0185273D01*
X0029939Y0185183D01*
X0030067Y0185090D01*
X0030193Y0184994D01*
X0030316Y0184894D01*
X0030437Y0184792D01*
X0030555Y0184687D01*
X0030670Y0184578D01*
X0030783Y0184467D01*
X0030893Y0184353D01*
X0031000Y0184236D01*
X0031104Y0184117D01*
X0031205Y0183995D01*
X0031302Y0183870D01*
X0031397Y0183743D01*
X0031488Y0183614D01*
X0031577Y0183483D01*
X0031661Y0183349D01*
X0031743Y0183213D01*
X0031821Y0183076D01*
X0031895Y0182936D01*
X0031966Y0182794D01*
X0032034Y0182651D01*
X0032098Y0182506D01*
X0032158Y0182360D01*
X0032214Y0182212D01*
X0032267Y0182063D01*
X0032316Y0181912D01*
X0032361Y0181760D01*
X0032402Y0181607D01*
X0032440Y0181454D01*
X0032473Y0181299D01*
X0032503Y0181143D01*
X0032529Y0180987D01*
X0032550Y0180830D01*
X0032568Y0180673D01*
X0032582Y0180515D01*
X0032592Y0180357D01*
X0032598Y0180199D01*
X0032600Y0180041D01*
X0032598Y0179883D01*
X0032592Y0179725D01*
X0032582Y0179567D01*
X0032568Y0179409D01*
X0032550Y0179252D01*
X0032529Y0179095D01*
X0032503Y0178939D01*
X0032473Y0178783D01*
X0032440Y0178628D01*
X0032402Y0178475D01*
X0032361Y0178322D01*
X0032316Y0178170D01*
X0032267Y0178019D01*
X0032214Y0177870D01*
X0032158Y0177722D01*
X0032098Y0177576D01*
X0032034Y0177431D01*
X0031966Y0177288D01*
X0031895Y0177146D01*
X0031821Y0177006D01*
X0031743Y0176869D01*
X0031661Y0176733D01*
X0031577Y0176599D01*
X0031488Y0176468D01*
X0031397Y0176339D01*
X0031302Y0176212D01*
X0031205Y0176087D01*
X0031104Y0175965D01*
X0031000Y0175846D01*
X0030893Y0175729D01*
X0030783Y0175615D01*
X0030670Y0175504D01*
X0030555Y0175395D01*
X0030437Y0175290D01*
X0030316Y0175188D01*
X0030193Y0175088D01*
X0030067Y0174992D01*
X0029939Y0174899D01*
X0029809Y0174809D01*
X0029676Y0174723D01*
X0029541Y0174639D01*
X0029405Y0174560D01*
X0029266Y0174483D01*
X0029125Y0174411D01*
X0028983Y0174341D01*
X0028839Y0174276D01*
X0028693Y0174214D01*
X0028546Y0174156D01*
X0028397Y0174101D01*
X0028247Y0174050D01*
X0028096Y0174003D01*
X0027944Y0173960D01*
X0027791Y0173921D01*
X0027636Y0173885D01*
X0027481Y0173854D01*
X0027325Y0173826D01*
X0027169Y0173802D01*
X0027012Y0173782D01*
X0026854Y0173766D01*
X0026697Y0173754D01*
X0026538Y0173746D01*
X0026380Y0173742D01*
X0026222Y0173742D01*
X0026064Y0173746D01*
X0025905Y0173754D01*
X0025748Y0173766D01*
X0025590Y0173782D01*
X0025433Y0173802D01*
X0025277Y0173826D01*
X0025121Y0173854D01*
X0024966Y0173885D01*
X0024811Y0173921D01*
X0024658Y0173960D01*
X0024506Y0174003D01*
X0024355Y0174050D01*
X0024205Y0174101D01*
X0024056Y0174156D01*
X0023909Y0174214D01*
X0023763Y0174276D01*
X0023619Y0174341D01*
X0023477Y0174411D01*
X0023336Y0174483D01*
X0023197Y0174560D01*
X0023061Y0174639D01*
X0022926Y0174723D01*
X0022793Y0174809D01*
X0022663Y0174899D01*
X0022535Y0174992D01*
X0022409Y0175088D01*
X0022286Y0175188D01*
X0022165Y0175290D01*
X0022047Y0175395D01*
X0021932Y0175504D01*
X0021819Y0175615D01*
X0021709Y0175729D01*
X0021602Y0175846D01*
X0021498Y0175965D01*
X0021397Y0176087D01*
X0021300Y0176212D01*
X0021205Y0176339D01*
X0021114Y0176468D01*
X0021025Y0176599D01*
X0020941Y0176733D01*
X0020859Y0176869D01*
X0020781Y0177006D01*
X0020707Y0177146D01*
X0020636Y0177288D01*
X0020568Y0177431D01*
X0020504Y0177576D01*
X0020444Y0177722D01*
X0020388Y0177870D01*
X0020335Y0178019D01*
X0020286Y0178170D01*
X0020241Y0178322D01*
X0020200Y0178475D01*
X0020162Y0178628D01*
X0020129Y0178783D01*
X0020099Y0178939D01*
X0020073Y0179095D01*
X0020052Y0179252D01*
X0020034Y0179409D01*
X0020020Y0179567D01*
X0020010Y0179725D01*
X0020004Y0179883D01*
X0020002Y0180041D01*
X0549000Y0178602D02*
X0550401Y0180004D01*
X0550401Y0175800D01*
X0549000Y0175800D02*
X0551802Y0175800D01*
X0553604Y0176501D02*
X0556406Y0179303D01*
X0556406Y0176501D01*
X0555706Y0175800D01*
X0554305Y0175800D01*
X0553604Y0176501D01*
X0553604Y0179303D01*
X0554305Y0180004D01*
X0555706Y0180004D01*
X0556406Y0179303D01*
X0558208Y0180004D02*
X0558208Y0175800D01*
X0558208Y0177201D02*
X0561010Y0180004D01*
X0558908Y0177902D02*
X0561010Y0175800D01*
X0559706Y0172704D02*
X0557604Y0170602D01*
X0560406Y0170602D01*
X0559706Y0168500D02*
X0559706Y0172704D01*
X0555802Y0172003D02*
X0555802Y0170602D01*
X0555102Y0169901D01*
X0553000Y0169901D01*
X0553000Y0168500D02*
X0553000Y0172704D01*
X0555102Y0172704D01*
X0555802Y0172003D01*
X0554401Y0169901D02*
X0555802Y0168500D01*
X0568000Y0160503D02*
X0568701Y0161204D01*
X0570102Y0161204D01*
X0570802Y0160503D01*
X0572604Y0159802D02*
X0574005Y0161204D01*
X0574005Y0157000D01*
X0572604Y0157000D02*
X0575406Y0157000D01*
X0577208Y0159102D02*
X0580010Y0159102D01*
X0579310Y0157000D02*
X0579310Y0161204D01*
X0577208Y0159102D01*
X0570802Y0157701D02*
X0570102Y0157000D01*
X0568701Y0157000D01*
X0568000Y0157701D01*
X0568000Y0160503D01*
X0569401Y0153704D02*
X0569401Y0149500D01*
X0568000Y0149500D02*
X0570802Y0149500D01*
X0572604Y0150201D02*
X0575406Y0153003D01*
X0575406Y0150201D01*
X0574706Y0149500D01*
X0573305Y0149500D01*
X0572604Y0150201D01*
X0572604Y0153003D01*
X0573305Y0153704D01*
X0574706Y0153704D01*
X0575406Y0153003D01*
X0577208Y0152302D02*
X0577208Y0150201D01*
X0577908Y0149500D01*
X0580010Y0149500D01*
X0580010Y0152302D01*
X0586416Y0152302D02*
X0586416Y0149500D01*
X0589218Y0149500D02*
X0589218Y0151602D01*
X0588517Y0152302D01*
X0586416Y0152302D01*
X0591020Y0152302D02*
X0593121Y0152302D01*
X0593822Y0151602D01*
X0593822Y0150201D01*
X0593121Y0149500D01*
X0591020Y0149500D01*
X0591020Y0148099D02*
X0591020Y0152302D01*
X0603000Y0152302D02*
X0604401Y0153704D01*
X0604401Y0149500D01*
X0603000Y0149500D02*
X0605802Y0149500D01*
X0607604Y0150201D02*
X0610406Y0153003D01*
X0610406Y0150201D01*
X0609706Y0149500D01*
X0608305Y0149500D01*
X0607604Y0150201D01*
X0607604Y0153003D01*
X0608305Y0153704D01*
X0609706Y0153704D01*
X0610406Y0153003D01*
X0612208Y0152302D02*
X0612208Y0150201D01*
X0612908Y0149500D01*
X0615010Y0149500D01*
X0615010Y0152302D01*
X0621416Y0152302D02*
X0621416Y0149500D01*
X0624218Y0149500D02*
X0624218Y0151602D01*
X0623517Y0152302D01*
X0621416Y0152302D01*
X0626020Y0152302D02*
X0628121Y0152302D01*
X0628822Y0151602D01*
X0628822Y0150201D01*
X0628121Y0149500D01*
X0626020Y0149500D01*
X0626020Y0148099D02*
X0626020Y0152302D01*
X0610406Y0157701D02*
X0610406Y0160503D01*
X0609706Y0161204D01*
X0608305Y0161204D01*
X0607604Y0160503D01*
X0607604Y0159802D01*
X0608305Y0159102D01*
X0610406Y0159102D01*
X0610406Y0157701D02*
X0609706Y0157000D01*
X0608305Y0157000D01*
X0607604Y0157701D01*
X0605802Y0157701D02*
X0605102Y0157000D01*
X0603701Y0157000D01*
X0603000Y0157701D01*
X0603000Y0160503D01*
X0603701Y0161204D01*
X0605102Y0161204D01*
X0605802Y0160503D01*
X0569401Y0153704D02*
X0568000Y0152302D01*
X0567519Y0127164D02*
X0568921Y0127164D01*
X0569621Y0126464D01*
X0569621Y0125763D01*
X0568921Y0125062D01*
X0567519Y0125062D01*
X0566819Y0124362D01*
X0566819Y0123661D01*
X0567519Y0122961D01*
X0568921Y0122961D01*
X0569621Y0123661D01*
X0566819Y0126464D02*
X0567519Y0127164D01*
X0576819Y0127164D02*
X0579621Y0127164D01*
X0578220Y0127164D02*
X0578220Y0122961D01*
X0586819Y0122961D02*
X0588220Y0124362D01*
X0587519Y0124362D02*
X0589621Y0124362D01*
X0589621Y0122961D02*
X0589621Y0127164D01*
X0587519Y0127164D01*
X0586819Y0126464D01*
X0586819Y0125062D01*
X0587519Y0124362D01*
X0596819Y0124362D02*
X0597519Y0125062D01*
X0598921Y0125062D01*
X0599621Y0125763D01*
X0599621Y0126464D01*
X0598921Y0127164D01*
X0597519Y0127164D01*
X0596819Y0126464D01*
X0596819Y0124362D02*
X0596819Y0123661D01*
X0597519Y0122961D01*
X0598921Y0122961D01*
X0599621Y0123661D01*
X0606819Y0127164D02*
X0609621Y0127164D01*
X0608220Y0127164D02*
X0608220Y0122961D01*
X0616819Y0122961D02*
X0618220Y0124362D01*
X0617519Y0124362D02*
X0619621Y0124362D01*
X0619621Y0122961D02*
X0619621Y0127164D01*
X0617519Y0127164D01*
X0616819Y0126464D01*
X0616819Y0125062D01*
X0617519Y0124362D01*
X0560010Y0115500D02*
X0557208Y0115500D01*
X0558609Y0115500D02*
X0558609Y0119704D01*
X0557208Y0118302D01*
X0555406Y0119003D02*
X0555406Y0117602D01*
X0554706Y0116901D01*
X0552604Y0116901D01*
X0552604Y0115500D02*
X0552604Y0119704D01*
X0554706Y0119704D01*
X0555406Y0119003D01*
X0550802Y0119704D02*
X0549401Y0119704D01*
X0550102Y0119704D02*
X0550102Y0116201D01*
X0549401Y0115500D01*
X0548701Y0115500D01*
X0548000Y0116201D01*
X0588000Y0097302D02*
X0589401Y0098704D01*
X0589401Y0094500D01*
X0588000Y0094500D02*
X0590802Y0094500D01*
X0592604Y0095201D02*
X0595406Y0098003D01*
X0595406Y0095201D01*
X0594706Y0094500D01*
X0593305Y0094500D01*
X0592604Y0095201D01*
X0592604Y0098003D01*
X0593305Y0098704D01*
X0594706Y0098704D01*
X0595406Y0098003D01*
X0597208Y0097302D02*
X0597208Y0095201D01*
X0597908Y0094500D01*
X0600010Y0094500D01*
X0600010Y0097302D01*
X0606416Y0097302D02*
X0606416Y0094500D01*
X0609218Y0094500D02*
X0609218Y0096602D01*
X0608517Y0097302D01*
X0606416Y0097302D01*
X0611020Y0097302D02*
X0613121Y0097302D01*
X0613822Y0096602D01*
X0613822Y0095201D01*
X0613121Y0094500D01*
X0611020Y0094500D01*
X0611020Y0093099D02*
X0611020Y0097302D01*
X0604310Y0091204D02*
X0605010Y0090503D01*
X0602208Y0087701D01*
X0602908Y0087000D01*
X0604310Y0087000D01*
X0605010Y0087701D01*
X0605010Y0090503D01*
X0604310Y0091204D02*
X0602908Y0091204D01*
X0602208Y0090503D01*
X0602208Y0087701D01*
X0600406Y0087000D02*
X0597604Y0087000D01*
X0599005Y0087000D02*
X0599005Y0091204D01*
X0597604Y0089802D01*
X0595802Y0090503D02*
X0595102Y0091204D01*
X0593701Y0091204D01*
X0593000Y0090503D01*
X0593000Y0087701D01*
X0593701Y0087000D01*
X0595102Y0087000D01*
X0595802Y0087701D01*
X0583822Y0076602D02*
X0583121Y0077302D01*
X0581020Y0077302D01*
X0581020Y0073099D01*
X0581020Y0074500D02*
X0583121Y0074500D01*
X0583822Y0075201D01*
X0583822Y0076602D01*
X0579218Y0076602D02*
X0579218Y0074500D01*
X0579218Y0076602D02*
X0578517Y0077302D01*
X0576416Y0077302D01*
X0576416Y0074500D01*
X0570010Y0074500D02*
X0570010Y0077302D01*
X0570010Y0074500D02*
X0567908Y0074500D01*
X0567208Y0075201D01*
X0567208Y0077302D01*
X0565406Y0078003D02*
X0562604Y0075201D01*
X0563305Y0074500D01*
X0564706Y0074500D01*
X0565406Y0075201D01*
X0565406Y0078003D01*
X0564706Y0078704D01*
X0563305Y0078704D01*
X0562604Y0078003D01*
X0562604Y0075201D01*
X0560802Y0074500D02*
X0558000Y0074500D01*
X0559401Y0074500D02*
X0559401Y0078704D01*
X0558000Y0077302D01*
X0563701Y0071204D02*
X0563000Y0070503D01*
X0563000Y0067701D01*
X0563701Y0067000D01*
X0565102Y0067000D01*
X0565802Y0067701D01*
X0567604Y0067000D02*
X0570406Y0067000D01*
X0569005Y0067000D02*
X0569005Y0071204D01*
X0567604Y0069802D01*
X0565802Y0070503D02*
X0565102Y0071204D01*
X0563701Y0071204D01*
X0572208Y0070503D02*
X0572908Y0071204D01*
X0574310Y0071204D01*
X0575010Y0070503D01*
X0575010Y0069802D01*
X0574310Y0069102D01*
X0575010Y0068401D01*
X0575010Y0067701D01*
X0574310Y0067000D01*
X0572908Y0067000D01*
X0572208Y0067701D01*
X0573609Y0069102D02*
X0574310Y0069102D01*
X0575102Y0057704D02*
X0575802Y0057003D01*
X0575802Y0055602D01*
X0575102Y0054901D01*
X0573000Y0054901D01*
X0573000Y0053500D02*
X0573000Y0057704D01*
X0575102Y0057704D01*
X0577604Y0057704D02*
X0577604Y0055602D01*
X0579005Y0056302D01*
X0579706Y0056302D01*
X0580406Y0055602D01*
X0580406Y0054201D01*
X0579706Y0053500D01*
X0578305Y0053500D01*
X0577604Y0054201D01*
X0575802Y0053500D02*
X0574401Y0054901D01*
X0577604Y0057704D02*
X0580406Y0057704D01*
X0581010Y0050004D02*
X0578208Y0047201D01*
X0578908Y0047902D02*
X0581010Y0045800D01*
X0578208Y0045800D02*
X0578208Y0050004D01*
X0576406Y0049303D02*
X0576406Y0048602D01*
X0575706Y0047902D01*
X0576406Y0047201D01*
X0576406Y0046501D01*
X0575706Y0045800D01*
X0574305Y0045800D01*
X0573604Y0046501D01*
X0571802Y0046501D02*
X0571102Y0045800D01*
X0569701Y0045800D01*
X0569000Y0046501D01*
X0570401Y0047902D02*
X0571102Y0047902D01*
X0571802Y0047201D01*
X0571802Y0046501D01*
X0571102Y0047902D02*
X0571802Y0048602D01*
X0571802Y0049303D01*
X0571102Y0050004D01*
X0569701Y0050004D01*
X0569000Y0049303D01*
X0573604Y0049303D02*
X0574305Y0050004D01*
X0575706Y0050004D01*
X0576406Y0049303D01*
X0575706Y0047902D02*
X0575005Y0047902D01*
X0604000Y0033602D02*
X0605401Y0035004D01*
X0605401Y0030800D01*
X0604000Y0030800D02*
X0606802Y0030800D01*
X0608604Y0031501D02*
X0609305Y0030800D01*
X0610706Y0030800D01*
X0611406Y0031501D01*
X0611406Y0034303D01*
X0608604Y0031501D01*
X0608604Y0034303D01*
X0609305Y0035004D01*
X0610706Y0035004D01*
X0611406Y0034303D01*
X0613208Y0035004D02*
X0613208Y0030800D01*
X0613208Y0032201D02*
X0616010Y0035004D01*
X0613908Y0032902D02*
X0616010Y0030800D01*
X0614706Y0038500D02*
X0615406Y0039201D01*
X0615406Y0039901D01*
X0614706Y0040602D01*
X0612604Y0040602D01*
X0612604Y0039201D01*
X0613305Y0038500D01*
X0614706Y0038500D01*
X0612604Y0040602D02*
X0614005Y0042003D01*
X0615406Y0042704D01*
X0610802Y0042003D02*
X0610802Y0040602D01*
X0610102Y0039901D01*
X0608000Y0039901D01*
X0608000Y0038500D02*
X0608000Y0042704D01*
X0610102Y0042704D01*
X0610802Y0042003D01*
X0609401Y0039901D02*
X0610802Y0038500D01*
X0622364Y0061931D02*
X0622366Y0062089D01*
X0622372Y0062247D01*
X0622382Y0062405D01*
X0622396Y0062563D01*
X0622414Y0062720D01*
X0622435Y0062877D01*
X0622461Y0063033D01*
X0622491Y0063189D01*
X0622524Y0063344D01*
X0622562Y0063497D01*
X0622603Y0063650D01*
X0622648Y0063802D01*
X0622697Y0063953D01*
X0622750Y0064102D01*
X0622806Y0064250D01*
X0622866Y0064396D01*
X0622930Y0064541D01*
X0622998Y0064684D01*
X0623069Y0064826D01*
X0623143Y0064966D01*
X0623221Y0065103D01*
X0623303Y0065239D01*
X0623387Y0065373D01*
X0623476Y0065504D01*
X0623567Y0065633D01*
X0623662Y0065760D01*
X0623759Y0065885D01*
X0623860Y0066007D01*
X0623964Y0066126D01*
X0624071Y0066243D01*
X0624181Y0066357D01*
X0624294Y0066468D01*
X0624409Y0066577D01*
X0624527Y0066682D01*
X0624648Y0066784D01*
X0624771Y0066884D01*
X0624897Y0066980D01*
X0625025Y0067073D01*
X0625155Y0067163D01*
X0625288Y0067249D01*
X0625423Y0067333D01*
X0625559Y0067412D01*
X0625698Y0067489D01*
X0625839Y0067561D01*
X0625981Y0067631D01*
X0626125Y0067696D01*
X0626271Y0067758D01*
X0626418Y0067816D01*
X0626567Y0067871D01*
X0626717Y0067922D01*
X0626868Y0067969D01*
X0627020Y0068012D01*
X0627173Y0068051D01*
X0627328Y0068087D01*
X0627483Y0068118D01*
X0627639Y0068146D01*
X0627795Y0068170D01*
X0627952Y0068190D01*
X0628110Y0068206D01*
X0628267Y0068218D01*
X0628426Y0068226D01*
X0628584Y0068230D01*
X0628742Y0068230D01*
X0628900Y0068226D01*
X0629059Y0068218D01*
X0629216Y0068206D01*
X0629374Y0068190D01*
X0629531Y0068170D01*
X0629687Y0068146D01*
X0629843Y0068118D01*
X0629998Y0068087D01*
X0630153Y0068051D01*
X0630306Y0068012D01*
X0630458Y0067969D01*
X0630609Y0067922D01*
X0630759Y0067871D01*
X0630908Y0067816D01*
X0631055Y0067758D01*
X0631201Y0067696D01*
X0631345Y0067631D01*
X0631487Y0067561D01*
X0631628Y0067489D01*
X0631767Y0067412D01*
X0631903Y0067333D01*
X0632038Y0067249D01*
X0632171Y0067163D01*
X0632301Y0067073D01*
X0632429Y0066980D01*
X0632555Y0066884D01*
X0632678Y0066784D01*
X0632799Y0066682D01*
X0632917Y0066577D01*
X0633032Y0066468D01*
X0633145Y0066357D01*
X0633255Y0066243D01*
X0633362Y0066126D01*
X0633466Y0066007D01*
X0633567Y0065885D01*
X0633664Y0065760D01*
X0633759Y0065633D01*
X0633850Y0065504D01*
X0633939Y0065373D01*
X0634023Y0065239D01*
X0634105Y0065103D01*
X0634183Y0064966D01*
X0634257Y0064826D01*
X0634328Y0064684D01*
X0634396Y0064541D01*
X0634460Y0064396D01*
X0634520Y0064250D01*
X0634576Y0064102D01*
X0634629Y0063953D01*
X0634678Y0063802D01*
X0634723Y0063650D01*
X0634764Y0063497D01*
X0634802Y0063344D01*
X0634835Y0063189D01*
X0634865Y0063033D01*
X0634891Y0062877D01*
X0634912Y0062720D01*
X0634930Y0062563D01*
X0634944Y0062405D01*
X0634954Y0062247D01*
X0634960Y0062089D01*
X0634962Y0061931D01*
X0634960Y0061773D01*
X0634954Y0061615D01*
X0634944Y0061457D01*
X0634930Y0061299D01*
X0634912Y0061142D01*
X0634891Y0060985D01*
X0634865Y0060829D01*
X0634835Y0060673D01*
X0634802Y0060518D01*
X0634764Y0060365D01*
X0634723Y0060212D01*
X0634678Y0060060D01*
X0634629Y0059909D01*
X0634576Y0059760D01*
X0634520Y0059612D01*
X0634460Y0059466D01*
X0634396Y0059321D01*
X0634328Y0059178D01*
X0634257Y0059036D01*
X0634183Y0058896D01*
X0634105Y0058759D01*
X0634023Y0058623D01*
X0633939Y0058489D01*
X0633850Y0058358D01*
X0633759Y0058229D01*
X0633664Y0058102D01*
X0633567Y0057977D01*
X0633466Y0057855D01*
X0633362Y0057736D01*
X0633255Y0057619D01*
X0633145Y0057505D01*
X0633032Y0057394D01*
X0632917Y0057285D01*
X0632799Y0057180D01*
X0632678Y0057078D01*
X0632555Y0056978D01*
X0632429Y0056882D01*
X0632301Y0056789D01*
X0632171Y0056699D01*
X0632038Y0056613D01*
X0631903Y0056529D01*
X0631767Y0056450D01*
X0631628Y0056373D01*
X0631487Y0056301D01*
X0631345Y0056231D01*
X0631201Y0056166D01*
X0631055Y0056104D01*
X0630908Y0056046D01*
X0630759Y0055991D01*
X0630609Y0055940D01*
X0630458Y0055893D01*
X0630306Y0055850D01*
X0630153Y0055811D01*
X0629998Y0055775D01*
X0629843Y0055744D01*
X0629687Y0055716D01*
X0629531Y0055692D01*
X0629374Y0055672D01*
X0629216Y0055656D01*
X0629059Y0055644D01*
X0628900Y0055636D01*
X0628742Y0055632D01*
X0628584Y0055632D01*
X0628426Y0055636D01*
X0628267Y0055644D01*
X0628110Y0055656D01*
X0627952Y0055672D01*
X0627795Y0055692D01*
X0627639Y0055716D01*
X0627483Y0055744D01*
X0627328Y0055775D01*
X0627173Y0055811D01*
X0627020Y0055850D01*
X0626868Y0055893D01*
X0626717Y0055940D01*
X0626567Y0055991D01*
X0626418Y0056046D01*
X0626271Y0056104D01*
X0626125Y0056166D01*
X0625981Y0056231D01*
X0625839Y0056301D01*
X0625698Y0056373D01*
X0625559Y0056450D01*
X0625423Y0056529D01*
X0625288Y0056613D01*
X0625155Y0056699D01*
X0625025Y0056789D01*
X0624897Y0056882D01*
X0624771Y0056978D01*
X0624648Y0057078D01*
X0624527Y0057180D01*
X0624409Y0057285D01*
X0624294Y0057394D01*
X0624181Y0057505D01*
X0624071Y0057619D01*
X0623964Y0057736D01*
X0623860Y0057855D01*
X0623759Y0057977D01*
X0623662Y0058102D01*
X0623567Y0058229D01*
X0623476Y0058358D01*
X0623387Y0058489D01*
X0623303Y0058623D01*
X0623221Y0058759D01*
X0623143Y0058896D01*
X0623069Y0059036D01*
X0622998Y0059178D01*
X0622930Y0059321D01*
X0622866Y0059466D01*
X0622806Y0059612D01*
X0622750Y0059760D01*
X0622697Y0059909D01*
X0622648Y0060060D01*
X0622603Y0060212D01*
X0622562Y0060365D01*
X0622524Y0060518D01*
X0622491Y0060673D01*
X0622461Y0060829D01*
X0622435Y0060985D01*
X0622414Y0061142D01*
X0622396Y0061299D01*
X0622382Y0061457D01*
X0622372Y0061615D01*
X0622366Y0061773D01*
X0622364Y0061931D01*
X0622364Y0180041D02*
X0622366Y0180199D01*
X0622372Y0180357D01*
X0622382Y0180515D01*
X0622396Y0180673D01*
X0622414Y0180830D01*
X0622435Y0180987D01*
X0622461Y0181143D01*
X0622491Y0181299D01*
X0622524Y0181454D01*
X0622562Y0181607D01*
X0622603Y0181760D01*
X0622648Y0181912D01*
X0622697Y0182063D01*
X0622750Y0182212D01*
X0622806Y0182360D01*
X0622866Y0182506D01*
X0622930Y0182651D01*
X0622998Y0182794D01*
X0623069Y0182936D01*
X0623143Y0183076D01*
X0623221Y0183213D01*
X0623303Y0183349D01*
X0623387Y0183483D01*
X0623476Y0183614D01*
X0623567Y0183743D01*
X0623662Y0183870D01*
X0623759Y0183995D01*
X0623860Y0184117D01*
X0623964Y0184236D01*
X0624071Y0184353D01*
X0624181Y0184467D01*
X0624294Y0184578D01*
X0624409Y0184687D01*
X0624527Y0184792D01*
X0624648Y0184894D01*
X0624771Y0184994D01*
X0624897Y0185090D01*
X0625025Y0185183D01*
X0625155Y0185273D01*
X0625288Y0185359D01*
X0625423Y0185443D01*
X0625559Y0185522D01*
X0625698Y0185599D01*
X0625839Y0185671D01*
X0625981Y0185741D01*
X0626125Y0185806D01*
X0626271Y0185868D01*
X0626418Y0185926D01*
X0626567Y0185981D01*
X0626717Y0186032D01*
X0626868Y0186079D01*
X0627020Y0186122D01*
X0627173Y0186161D01*
X0627328Y0186197D01*
X0627483Y0186228D01*
X0627639Y0186256D01*
X0627795Y0186280D01*
X0627952Y0186300D01*
X0628110Y0186316D01*
X0628267Y0186328D01*
X0628426Y0186336D01*
X0628584Y0186340D01*
X0628742Y0186340D01*
X0628900Y0186336D01*
X0629059Y0186328D01*
X0629216Y0186316D01*
X0629374Y0186300D01*
X0629531Y0186280D01*
X0629687Y0186256D01*
X0629843Y0186228D01*
X0629998Y0186197D01*
X0630153Y0186161D01*
X0630306Y0186122D01*
X0630458Y0186079D01*
X0630609Y0186032D01*
X0630759Y0185981D01*
X0630908Y0185926D01*
X0631055Y0185868D01*
X0631201Y0185806D01*
X0631345Y0185741D01*
X0631487Y0185671D01*
X0631628Y0185599D01*
X0631767Y0185522D01*
X0631903Y0185443D01*
X0632038Y0185359D01*
X0632171Y0185273D01*
X0632301Y0185183D01*
X0632429Y0185090D01*
X0632555Y0184994D01*
X0632678Y0184894D01*
X0632799Y0184792D01*
X0632917Y0184687D01*
X0633032Y0184578D01*
X0633145Y0184467D01*
X0633255Y0184353D01*
X0633362Y0184236D01*
X0633466Y0184117D01*
X0633567Y0183995D01*
X0633664Y0183870D01*
X0633759Y0183743D01*
X0633850Y0183614D01*
X0633939Y0183483D01*
X0634023Y0183349D01*
X0634105Y0183213D01*
X0634183Y0183076D01*
X0634257Y0182936D01*
X0634328Y0182794D01*
X0634396Y0182651D01*
X0634460Y0182506D01*
X0634520Y0182360D01*
X0634576Y0182212D01*
X0634629Y0182063D01*
X0634678Y0181912D01*
X0634723Y0181760D01*
X0634764Y0181607D01*
X0634802Y0181454D01*
X0634835Y0181299D01*
X0634865Y0181143D01*
X0634891Y0180987D01*
X0634912Y0180830D01*
X0634930Y0180673D01*
X0634944Y0180515D01*
X0634954Y0180357D01*
X0634960Y0180199D01*
X0634962Y0180041D01*
X0634960Y0179883D01*
X0634954Y0179725D01*
X0634944Y0179567D01*
X0634930Y0179409D01*
X0634912Y0179252D01*
X0634891Y0179095D01*
X0634865Y0178939D01*
X0634835Y0178783D01*
X0634802Y0178628D01*
X0634764Y0178475D01*
X0634723Y0178322D01*
X0634678Y0178170D01*
X0634629Y0178019D01*
X0634576Y0177870D01*
X0634520Y0177722D01*
X0634460Y0177576D01*
X0634396Y0177431D01*
X0634328Y0177288D01*
X0634257Y0177146D01*
X0634183Y0177006D01*
X0634105Y0176869D01*
X0634023Y0176733D01*
X0633939Y0176599D01*
X0633850Y0176468D01*
X0633759Y0176339D01*
X0633664Y0176212D01*
X0633567Y0176087D01*
X0633466Y0175965D01*
X0633362Y0175846D01*
X0633255Y0175729D01*
X0633145Y0175615D01*
X0633032Y0175504D01*
X0632917Y0175395D01*
X0632799Y0175290D01*
X0632678Y0175188D01*
X0632555Y0175088D01*
X0632429Y0174992D01*
X0632301Y0174899D01*
X0632171Y0174809D01*
X0632038Y0174723D01*
X0631903Y0174639D01*
X0631767Y0174560D01*
X0631628Y0174483D01*
X0631487Y0174411D01*
X0631345Y0174341D01*
X0631201Y0174276D01*
X0631055Y0174214D01*
X0630908Y0174156D01*
X0630759Y0174101D01*
X0630609Y0174050D01*
X0630458Y0174003D01*
X0630306Y0173960D01*
X0630153Y0173921D01*
X0629998Y0173885D01*
X0629843Y0173854D01*
X0629687Y0173826D01*
X0629531Y0173802D01*
X0629374Y0173782D01*
X0629216Y0173766D01*
X0629059Y0173754D01*
X0628900Y0173746D01*
X0628742Y0173742D01*
X0628584Y0173742D01*
X0628426Y0173746D01*
X0628267Y0173754D01*
X0628110Y0173766D01*
X0627952Y0173782D01*
X0627795Y0173802D01*
X0627639Y0173826D01*
X0627483Y0173854D01*
X0627328Y0173885D01*
X0627173Y0173921D01*
X0627020Y0173960D01*
X0626868Y0174003D01*
X0626717Y0174050D01*
X0626567Y0174101D01*
X0626418Y0174156D01*
X0626271Y0174214D01*
X0626125Y0174276D01*
X0625981Y0174341D01*
X0625839Y0174411D01*
X0625698Y0174483D01*
X0625559Y0174560D01*
X0625423Y0174639D01*
X0625288Y0174723D01*
X0625155Y0174809D01*
X0625025Y0174899D01*
X0624897Y0174992D01*
X0624771Y0175088D01*
X0624648Y0175188D01*
X0624527Y0175290D01*
X0624409Y0175395D01*
X0624294Y0175504D01*
X0624181Y0175615D01*
X0624071Y0175729D01*
X0623964Y0175846D01*
X0623860Y0175965D01*
X0623759Y0176087D01*
X0623662Y0176212D01*
X0623567Y0176339D01*
X0623476Y0176468D01*
X0623387Y0176599D01*
X0623303Y0176733D01*
X0623221Y0176869D01*
X0623143Y0177006D01*
X0623069Y0177146D01*
X0622998Y0177288D01*
X0622930Y0177431D01*
X0622866Y0177576D01*
X0622806Y0177722D01*
X0622750Y0177870D01*
X0622697Y0178019D01*
X0622648Y0178170D01*
X0622603Y0178322D01*
X0622562Y0178475D01*
X0622524Y0178628D01*
X0622491Y0178783D01*
X0622461Y0178939D01*
X0622435Y0179095D01*
X0622414Y0179252D01*
X0622396Y0179409D01*
X0622382Y0179567D01*
X0622372Y0179725D01*
X0622366Y0179883D01*
X0622364Y0180041D01*
X0560406Y0189201D02*
X0559706Y0188500D01*
X0558305Y0188500D01*
X0557604Y0189201D01*
X0555802Y0188500D02*
X0554401Y0189901D01*
X0555102Y0189901D02*
X0553000Y0189901D01*
X0553000Y0188500D02*
X0553000Y0192704D01*
X0555102Y0192704D01*
X0555802Y0192003D01*
X0555802Y0190602D01*
X0555102Y0189901D01*
X0557604Y0192003D02*
X0558305Y0192704D01*
X0559706Y0192704D01*
X0560406Y0192003D01*
X0560406Y0191302D01*
X0559706Y0190602D01*
X0560406Y0189901D01*
X0560406Y0189201D01*
X0559706Y0190602D02*
X0559005Y0190602D01*
X0558208Y0195800D02*
X0558208Y0200004D01*
X0556406Y0199303D02*
X0555706Y0200004D01*
X0554305Y0200004D01*
X0553604Y0199303D01*
X0551802Y0199303D02*
X0551102Y0200004D01*
X0549701Y0200004D01*
X0549000Y0199303D01*
X0550401Y0197902D02*
X0551102Y0197902D01*
X0551802Y0197201D01*
X0551802Y0196501D01*
X0551102Y0195800D01*
X0549701Y0195800D01*
X0549000Y0196501D01*
X0551102Y0197902D02*
X0551802Y0198602D01*
X0551802Y0199303D01*
X0553604Y0196501D02*
X0554305Y0195800D01*
X0555706Y0195800D01*
X0556406Y0196501D01*
X0556406Y0197201D01*
X0555706Y0197902D01*
X0555005Y0197902D01*
X0555706Y0197902D02*
X0556406Y0198602D01*
X0556406Y0199303D01*
X0558208Y0197201D02*
X0561010Y0200004D01*
X0558908Y0197902D02*
X0561010Y0195800D01*
D13*
X0036670Y0102088D02*
X0036672Y0102223D01*
X0036678Y0102359D01*
X0036688Y0102494D01*
X0036702Y0102628D01*
X0036720Y0102763D01*
X0036742Y0102896D01*
X0036768Y0103029D01*
X0036797Y0103161D01*
X0036831Y0103293D01*
X0036868Y0103423D01*
X0036910Y0103552D01*
X0036955Y0103679D01*
X0037003Y0103806D01*
X0037056Y0103931D01*
X0037112Y0104054D01*
X0037172Y0104175D01*
X0037235Y0104295D01*
X0037302Y0104413D01*
X0037372Y0104529D01*
X0037446Y0104642D01*
X0037523Y0104754D01*
X0037603Y0104863D01*
X0037687Y0104969D01*
X0037773Y0105073D01*
X0037863Y0105175D01*
X0037955Y0105274D01*
X0038051Y0105370D01*
X0038149Y0105463D01*
X0038250Y0105554D01*
X0038353Y0105641D01*
X0038459Y0105725D01*
X0038568Y0105806D01*
X0038679Y0105884D01*
X0038792Y0105958D01*
X0038907Y0106030D01*
X0039024Y0106097D01*
X0039144Y0106162D01*
X0039265Y0106222D01*
X0039387Y0106279D01*
X0039512Y0106333D01*
X0039638Y0106383D01*
X0039765Y0106429D01*
X0039894Y0106471D01*
X0040024Y0106509D01*
X0040155Y0106544D01*
X0040287Y0106574D01*
X0040419Y0106601D01*
X0040553Y0106624D01*
X0040687Y0106643D01*
X0040822Y0106658D01*
X0040957Y0106669D01*
X0041092Y0106676D01*
X0041227Y0106679D01*
X0041363Y0106678D01*
X0041498Y0106673D01*
X0041633Y0106664D01*
X0041768Y0106651D01*
X0041902Y0106634D01*
X0042036Y0106613D01*
X0042169Y0106588D01*
X0042301Y0106560D01*
X0042433Y0106527D01*
X0042563Y0106490D01*
X0042693Y0106450D01*
X0042821Y0106406D01*
X0042947Y0106358D01*
X0043072Y0106307D01*
X0043196Y0106251D01*
X0043318Y0106192D01*
X0043438Y0106130D01*
X0043556Y0106064D01*
X0043673Y0105994D01*
X0043787Y0105922D01*
X0043899Y0105845D01*
X0044009Y0105766D01*
X0044116Y0105683D01*
X0044221Y0105598D01*
X0044323Y0105509D01*
X0044422Y0105417D01*
X0044519Y0105322D01*
X0044613Y0105225D01*
X0044704Y0105125D01*
X0044792Y0105022D01*
X0044877Y0104916D01*
X0044959Y0104808D01*
X0045038Y0104698D01*
X0045113Y0104586D01*
X0045185Y0104471D01*
X0045254Y0104354D01*
X0045319Y0104235D01*
X0045380Y0104115D01*
X0045438Y0103992D01*
X0045493Y0103868D01*
X0045543Y0103743D01*
X0045590Y0103616D01*
X0045634Y0103487D01*
X0045673Y0103358D01*
X0045708Y0103227D01*
X0045740Y0103095D01*
X0045768Y0102963D01*
X0045792Y0102830D01*
X0045812Y0102696D01*
X0045828Y0102561D01*
X0045840Y0102426D01*
X0045848Y0102291D01*
X0045852Y0102156D01*
X0045852Y0102020D01*
X0045848Y0101885D01*
X0045840Y0101750D01*
X0045828Y0101615D01*
X0045812Y0101480D01*
X0045792Y0101346D01*
X0045768Y0101213D01*
X0045740Y0101081D01*
X0045708Y0100949D01*
X0045673Y0100818D01*
X0045634Y0100689D01*
X0045590Y0100560D01*
X0045543Y0100433D01*
X0045493Y0100308D01*
X0045438Y0100184D01*
X0045380Y0100061D01*
X0045319Y0099941D01*
X0045254Y0099822D01*
X0045185Y0099705D01*
X0045113Y0099590D01*
X0045038Y0099478D01*
X0044959Y0099368D01*
X0044877Y0099260D01*
X0044792Y0099154D01*
X0044704Y0099051D01*
X0044613Y0098951D01*
X0044519Y0098854D01*
X0044422Y0098759D01*
X0044323Y0098667D01*
X0044221Y0098578D01*
X0044116Y0098493D01*
X0044009Y0098410D01*
X0043899Y0098331D01*
X0043787Y0098254D01*
X0043673Y0098182D01*
X0043557Y0098112D01*
X0043438Y0098046D01*
X0043318Y0097984D01*
X0043196Y0097925D01*
X0043072Y0097869D01*
X0042947Y0097818D01*
X0042821Y0097770D01*
X0042693Y0097726D01*
X0042563Y0097686D01*
X0042433Y0097649D01*
X0042301Y0097616D01*
X0042169Y0097588D01*
X0042036Y0097563D01*
X0041902Y0097542D01*
X0041768Y0097525D01*
X0041633Y0097512D01*
X0041498Y0097503D01*
X0041363Y0097498D01*
X0041227Y0097497D01*
X0041092Y0097500D01*
X0040957Y0097507D01*
X0040822Y0097518D01*
X0040687Y0097533D01*
X0040553Y0097552D01*
X0040419Y0097575D01*
X0040287Y0097602D01*
X0040155Y0097632D01*
X0040024Y0097667D01*
X0039894Y0097705D01*
X0039765Y0097747D01*
X0039638Y0097793D01*
X0039512Y0097843D01*
X0039387Y0097897D01*
X0039265Y0097954D01*
X0039144Y0098014D01*
X0039024Y0098079D01*
X0038907Y0098146D01*
X0038792Y0098218D01*
X0038679Y0098292D01*
X0038568Y0098370D01*
X0038459Y0098451D01*
X0038353Y0098535D01*
X0038250Y0098622D01*
X0038149Y0098713D01*
X0038051Y0098806D01*
X0037955Y0098902D01*
X0037863Y0099001D01*
X0037773Y0099103D01*
X0037687Y0099207D01*
X0037603Y0099313D01*
X0037523Y0099422D01*
X0037446Y0099534D01*
X0037372Y0099647D01*
X0037302Y0099763D01*
X0037235Y0099881D01*
X0037172Y0100001D01*
X0037112Y0100122D01*
X0037056Y0100245D01*
X0037003Y0100370D01*
X0036955Y0100497D01*
X0036910Y0100624D01*
X0036868Y0100753D01*
X0036831Y0100883D01*
X0036797Y0101015D01*
X0036768Y0101147D01*
X0036742Y0101280D01*
X0036720Y0101413D01*
X0036702Y0101548D01*
X0036688Y0101682D01*
X0036678Y0101817D01*
X0036672Y0101953D01*
X0036670Y0102088D01*
X0036807Y0091852D02*
X0036809Y0091985D01*
X0036815Y0092118D01*
X0036825Y0092251D01*
X0036839Y0092384D01*
X0036857Y0092516D01*
X0036879Y0092647D01*
X0036904Y0092778D01*
X0036934Y0092908D01*
X0036968Y0093037D01*
X0037005Y0093165D01*
X0037046Y0093292D01*
X0037091Y0093417D01*
X0037140Y0093541D01*
X0037192Y0093664D01*
X0037248Y0093785D01*
X0037308Y0093904D01*
X0037371Y0094021D01*
X0037437Y0094136D01*
X0037508Y0094250D01*
X0037581Y0094361D01*
X0037658Y0094470D01*
X0037738Y0094577D01*
X0037821Y0094681D01*
X0037907Y0094782D01*
X0037996Y0094881D01*
X0038088Y0094978D01*
X0038183Y0095071D01*
X0038281Y0095162D01*
X0038381Y0095250D01*
X0038484Y0095334D01*
X0038589Y0095416D01*
X0038697Y0095494D01*
X0038807Y0095569D01*
X0038920Y0095641D01*
X0039034Y0095709D01*
X0039150Y0095774D01*
X0039269Y0095836D01*
X0039389Y0095893D01*
X0039510Y0095948D01*
X0039634Y0095998D01*
X0039759Y0096045D01*
X0039885Y0096088D01*
X0040012Y0096127D01*
X0040140Y0096163D01*
X0040270Y0096194D01*
X0040400Y0096222D01*
X0040531Y0096246D01*
X0040663Y0096266D01*
X0040795Y0096282D01*
X0040928Y0096294D01*
X0041061Y0096302D01*
X0041194Y0096306D01*
X0041328Y0096306D01*
X0041461Y0096302D01*
X0041594Y0096294D01*
X0041727Y0096282D01*
X0041859Y0096266D01*
X0041991Y0096246D01*
X0042122Y0096222D01*
X0042252Y0096194D01*
X0042382Y0096163D01*
X0042510Y0096127D01*
X0042637Y0096088D01*
X0042763Y0096045D01*
X0042888Y0095998D01*
X0043012Y0095948D01*
X0043133Y0095893D01*
X0043253Y0095836D01*
X0043372Y0095774D01*
X0043488Y0095709D01*
X0043602Y0095641D01*
X0043715Y0095569D01*
X0043825Y0095494D01*
X0043933Y0095416D01*
X0044038Y0095334D01*
X0044141Y0095250D01*
X0044241Y0095162D01*
X0044339Y0095071D01*
X0044434Y0094978D01*
X0044526Y0094881D01*
X0044615Y0094782D01*
X0044701Y0094681D01*
X0044784Y0094577D01*
X0044864Y0094470D01*
X0044941Y0094361D01*
X0045014Y0094250D01*
X0045085Y0094136D01*
X0045151Y0094021D01*
X0045214Y0093904D01*
X0045274Y0093785D01*
X0045330Y0093664D01*
X0045382Y0093541D01*
X0045431Y0093417D01*
X0045476Y0093292D01*
X0045517Y0093165D01*
X0045554Y0093037D01*
X0045588Y0092908D01*
X0045618Y0092778D01*
X0045643Y0092647D01*
X0045665Y0092516D01*
X0045683Y0092384D01*
X0045697Y0092251D01*
X0045707Y0092118D01*
X0045713Y0091985D01*
X0045715Y0091852D01*
X0045713Y0091719D01*
X0045707Y0091586D01*
X0045697Y0091453D01*
X0045683Y0091320D01*
X0045665Y0091188D01*
X0045643Y0091057D01*
X0045618Y0090926D01*
X0045588Y0090796D01*
X0045554Y0090667D01*
X0045517Y0090539D01*
X0045476Y0090412D01*
X0045431Y0090287D01*
X0045382Y0090163D01*
X0045330Y0090040D01*
X0045274Y0089919D01*
X0045214Y0089800D01*
X0045151Y0089683D01*
X0045085Y0089568D01*
X0045014Y0089454D01*
X0044941Y0089343D01*
X0044864Y0089234D01*
X0044784Y0089127D01*
X0044701Y0089023D01*
X0044615Y0088922D01*
X0044526Y0088823D01*
X0044434Y0088726D01*
X0044339Y0088633D01*
X0044241Y0088542D01*
X0044141Y0088454D01*
X0044038Y0088370D01*
X0043933Y0088288D01*
X0043825Y0088210D01*
X0043715Y0088135D01*
X0043602Y0088063D01*
X0043488Y0087995D01*
X0043372Y0087930D01*
X0043253Y0087868D01*
X0043133Y0087811D01*
X0043012Y0087756D01*
X0042888Y0087706D01*
X0042763Y0087659D01*
X0042637Y0087616D01*
X0042510Y0087577D01*
X0042382Y0087541D01*
X0042252Y0087510D01*
X0042122Y0087482D01*
X0041991Y0087458D01*
X0041859Y0087438D01*
X0041727Y0087422D01*
X0041594Y0087410D01*
X0041461Y0087402D01*
X0041328Y0087398D01*
X0041194Y0087398D01*
X0041061Y0087402D01*
X0040928Y0087410D01*
X0040795Y0087422D01*
X0040663Y0087438D01*
X0040531Y0087458D01*
X0040400Y0087482D01*
X0040270Y0087510D01*
X0040140Y0087541D01*
X0040012Y0087577D01*
X0039885Y0087616D01*
X0039759Y0087659D01*
X0039634Y0087706D01*
X0039510Y0087756D01*
X0039389Y0087811D01*
X0039269Y0087868D01*
X0039150Y0087930D01*
X0039034Y0087995D01*
X0038920Y0088063D01*
X0038807Y0088135D01*
X0038697Y0088210D01*
X0038589Y0088288D01*
X0038484Y0088370D01*
X0038381Y0088454D01*
X0038281Y0088542D01*
X0038183Y0088633D01*
X0038088Y0088726D01*
X0037996Y0088823D01*
X0037907Y0088922D01*
X0037821Y0089023D01*
X0037738Y0089127D01*
X0037658Y0089234D01*
X0037581Y0089343D01*
X0037508Y0089454D01*
X0037437Y0089568D01*
X0037371Y0089683D01*
X0037308Y0089800D01*
X0037248Y0089919D01*
X0037192Y0090040D01*
X0037140Y0090163D01*
X0037091Y0090287D01*
X0037046Y0090412D01*
X0037005Y0090539D01*
X0036968Y0090667D01*
X0036934Y0090796D01*
X0036904Y0090926D01*
X0036879Y0091057D01*
X0036857Y0091188D01*
X0036839Y0091320D01*
X0036825Y0091453D01*
X0036815Y0091586D01*
X0036809Y0091719D01*
X0036807Y0091852D01*
D14*
X0263150Y0039055D02*
X0267087Y0039055D01*
X0267087Y0038071D01*
X0263150Y0034134D01*
X0263150Y0033150D01*
X0269595Y0034134D02*
X0270580Y0033150D01*
X0272548Y0033150D01*
X0273532Y0034134D01*
X0273532Y0038071D01*
X0272548Y0039055D01*
X0270580Y0039055D01*
X0269595Y0038071D01*
X0269595Y0037087D01*
X0270580Y0036103D01*
X0273532Y0036103D01*
X0276041Y0037087D02*
X0278009Y0039055D01*
X0278009Y0033150D01*
X0276041Y0033150D02*
X0279978Y0033150D01*
X0282486Y0033150D02*
X0286423Y0037087D01*
X0286423Y0038071D01*
X0285439Y0039055D01*
X0283471Y0039055D01*
X0282486Y0038071D01*
X0282486Y0033150D02*
X0286423Y0033150D01*
X0293962Y0034650D02*
X0295930Y0034650D01*
X0294946Y0034650D02*
X0294946Y0040555D01*
X0293962Y0040555D02*
X0295930Y0040555D01*
X0298259Y0039571D02*
X0298259Y0035634D01*
X0299243Y0034650D01*
X0301212Y0034650D01*
X0302196Y0035634D01*
X0304704Y0034650D02*
X0308641Y0038587D01*
X0308641Y0039571D01*
X0307657Y0040555D01*
X0305689Y0040555D01*
X0304704Y0039571D01*
X0302196Y0039571D02*
X0301212Y0040555D01*
X0299243Y0040555D01*
X0298259Y0039571D01*
X0304704Y0034650D02*
X0308641Y0034650D01*
X0386564Y0086182D02*
X0387548Y0086182D01*
X0388532Y0087166D01*
X0388532Y0092087D01*
X0384595Y0092087D02*
X0384595Y0089134D01*
X0385580Y0088150D01*
X0388532Y0088150D01*
X0382087Y0089134D02*
X0382087Y0091103D01*
X0381103Y0092087D01*
X0378150Y0092087D01*
X0378150Y0094055D02*
X0378150Y0088150D01*
X0381103Y0088150D01*
X0382087Y0089134D01*
X0397486Y0088150D02*
X0397486Y0094055D01*
X0400439Y0094055D01*
X0401423Y0093071D01*
X0401423Y0089134D01*
X0400439Y0088150D01*
X0397486Y0088150D01*
X0403932Y0089134D02*
X0404916Y0090118D01*
X0407869Y0090118D01*
X0407869Y0091103D02*
X0407869Y0088150D01*
X0404916Y0088150D01*
X0403932Y0089134D01*
X0404916Y0092087D02*
X0406885Y0092087D01*
X0407869Y0091103D01*
X0410377Y0092087D02*
X0410377Y0088150D01*
X0414314Y0088150D02*
X0414314Y0091103D01*
X0413330Y0092087D01*
X0410377Y0092087D01*
X0409494Y0098150D02*
X0407526Y0098150D01*
X0408510Y0098150D02*
X0408510Y0102087D01*
X0407526Y0102087D01*
X0408510Y0104055D02*
X0408510Y0105039D01*
X0405197Y0102087D02*
X0403229Y0102087D01*
X0404213Y0103071D02*
X0404213Y0099134D01*
X0405197Y0098150D01*
X0400720Y0099134D02*
X0399736Y0098150D01*
X0397768Y0098150D01*
X0396783Y0099134D01*
X0396783Y0101103D01*
X0397768Y0102087D01*
X0399736Y0102087D01*
X0400720Y0101103D01*
X0400720Y0099134D01*
X0394455Y0098150D02*
X0392486Y0098150D01*
X0393471Y0098150D02*
X0393471Y0104055D01*
X0392486Y0104055D01*
X0389978Y0101103D02*
X0388994Y0102087D01*
X0387025Y0102087D01*
X0386041Y0101103D01*
X0386041Y0099134D01*
X0387025Y0098150D01*
X0388994Y0098150D01*
X0389978Y0099134D01*
X0389978Y0101103D01*
X0383532Y0102087D02*
X0379595Y0098150D01*
X0377087Y0098150D02*
X0377087Y0102087D01*
X0375118Y0104055D01*
X0373150Y0102087D01*
X0373150Y0098150D01*
X0379595Y0102087D02*
X0383532Y0098150D01*
X0377087Y0101103D02*
X0373150Y0101103D01*
X0340550Y0100431D02*
X0340550Y0102400D01*
X0339566Y0103384D01*
X0340550Y0105892D02*
X0340550Y0109829D01*
X0340550Y0107861D02*
X0334645Y0107861D01*
X0336613Y0105892D01*
X0335629Y0103384D02*
X0334645Y0102400D01*
X0334645Y0100431D01*
X0335629Y0099447D01*
X0339566Y0099447D01*
X0340550Y0100431D01*
X0340550Y0097118D02*
X0340550Y0095150D01*
X0340550Y0096134D02*
X0334645Y0096134D01*
X0334645Y0095150D02*
X0334645Y0097118D01*
X0330050Y0096852D02*
X0329066Y0095868D01*
X0328082Y0095868D01*
X0327097Y0096852D01*
X0327097Y0098820D01*
X0328082Y0099805D01*
X0329066Y0099805D01*
X0330050Y0098820D01*
X0330050Y0096852D01*
X0327097Y0096852D02*
X0326113Y0095868D01*
X0325129Y0095868D01*
X0324145Y0096852D01*
X0324145Y0098820D01*
X0325129Y0099805D01*
X0326113Y0099805D01*
X0327097Y0098820D01*
X0326113Y0102313D02*
X0324145Y0104282D01*
X0330050Y0104282D01*
X0330050Y0106250D02*
X0330050Y0102313D01*
X0330050Y0108759D02*
X0326113Y0112696D01*
X0325129Y0112696D01*
X0324145Y0111711D01*
X0324145Y0109743D01*
X0325129Y0108759D01*
X0330050Y0108759D02*
X0330050Y0112696D01*
X0324145Y0115204D02*
X0324145Y0119141D01*
X0324145Y0117173D02*
X0330050Y0117173D01*
X0325129Y0093359D02*
X0329066Y0089422D01*
X0330050Y0089422D01*
X0324145Y0089422D02*
X0324145Y0093359D01*
X0325129Y0093359D01*
X0418268Y0098150D02*
X0422205Y0098150D01*
X0424714Y0098150D02*
X0426682Y0098150D01*
X0425698Y0098150D02*
X0425698Y0102087D01*
X0424714Y0102087D01*
X0425698Y0104055D02*
X0425698Y0105039D01*
X0429011Y0102087D02*
X0431963Y0102087D01*
X0432948Y0101103D01*
X0432948Y0098150D01*
X0435456Y0099134D02*
X0436441Y0098150D01*
X0438409Y0098150D01*
X0439393Y0100118D02*
X0435456Y0100118D01*
X0435456Y0099134D02*
X0435456Y0101103D01*
X0436441Y0102087D01*
X0438409Y0102087D01*
X0439393Y0101103D01*
X0439393Y0100118D01*
X0448347Y0098150D02*
X0452284Y0098150D01*
X0454793Y0099134D02*
X0454793Y0101103D01*
X0455777Y0102087D01*
X0457745Y0102087D01*
X0458730Y0101103D01*
X0458730Y0100118D01*
X0454793Y0100118D01*
X0454793Y0099134D02*
X0455777Y0098150D01*
X0457745Y0098150D01*
X0461238Y0102087D02*
X0463207Y0098150D01*
X0465175Y0102087D01*
X0467684Y0101103D02*
X0467684Y0099134D01*
X0468668Y0098150D01*
X0470636Y0098150D01*
X0471621Y0100118D02*
X0467684Y0100118D01*
X0467684Y0101103D02*
X0468668Y0102087D01*
X0470636Y0102087D01*
X0471621Y0101103D01*
X0471621Y0100118D01*
X0474129Y0098150D02*
X0476098Y0098150D01*
X0475114Y0098150D02*
X0475114Y0104055D01*
X0474129Y0104055D01*
X0478426Y0101103D02*
X0479411Y0102087D01*
X0482363Y0102087D01*
X0481379Y0100118D02*
X0479411Y0100118D01*
X0478426Y0101103D01*
X0481379Y0100118D02*
X0482363Y0099134D01*
X0481379Y0098150D01*
X0478426Y0098150D01*
X0491317Y0098150D02*
X0494270Y0098150D01*
X0495254Y0099134D01*
X0495254Y0100118D01*
X0494270Y0101103D01*
X0491317Y0101103D01*
X0491317Y0104055D02*
X0494270Y0104055D01*
X0495254Y0103071D01*
X0495254Y0102087D01*
X0494270Y0101103D01*
X0497763Y0101103D02*
X0497763Y0099134D01*
X0498747Y0098150D01*
X0500715Y0098150D01*
X0501700Y0099134D01*
X0501700Y0101103D01*
X0500715Y0102087D01*
X0498747Y0102087D01*
X0497763Y0101103D01*
X0504208Y0099134D02*
X0505193Y0100118D01*
X0508145Y0100118D01*
X0508145Y0101103D02*
X0508145Y0098150D01*
X0505193Y0098150D01*
X0504208Y0099134D01*
X0505193Y0102087D02*
X0507161Y0102087D01*
X0508145Y0101103D01*
X0510654Y0102087D02*
X0510654Y0098150D01*
X0510654Y0100118D02*
X0512622Y0102087D01*
X0513606Y0102087D01*
X0516025Y0101103D02*
X0517009Y0102087D01*
X0519962Y0102087D01*
X0519962Y0104055D02*
X0519962Y0098150D01*
X0517009Y0098150D01*
X0516025Y0099134D01*
X0516025Y0101103D01*
X0491317Y0098150D02*
X0491317Y0104055D01*
X0448347Y0104055D02*
X0448347Y0098150D01*
X0429011Y0098150D02*
X0429011Y0102087D01*
X0418268Y0104055D02*
X0418268Y0098150D01*
X0423268Y0092087D02*
X0425237Y0094055D01*
X0427205Y0092087D01*
X0427205Y0088150D01*
X0427205Y0091103D02*
X0423268Y0091103D01*
X0423268Y0092087D02*
X0423268Y0088150D01*
X0422829Y0178150D02*
X0420861Y0180118D01*
X0421845Y0180118D02*
X0418892Y0180118D01*
X0418892Y0178150D02*
X0418892Y0184055D01*
X0421845Y0184055D01*
X0422829Y0183071D01*
X0422829Y0181103D01*
X0421845Y0180118D01*
X0416384Y0178150D02*
X0416384Y0184055D01*
X0412447Y0184055D02*
X0416384Y0178150D01*
X0412447Y0178150D02*
X0412447Y0184055D01*
X0410118Y0184055D02*
X0408150Y0184055D01*
X0409134Y0184055D02*
X0409134Y0178150D01*
X0408150Y0178150D02*
X0410118Y0178150D01*
X0503150Y0178150D02*
X0505118Y0178150D01*
X0504134Y0178150D02*
X0504134Y0184055D01*
X0503150Y0184055D02*
X0505118Y0184055D01*
X0507447Y0184055D02*
X0511384Y0178150D01*
X0511384Y0184055D01*
X0513892Y0184055D02*
X0513892Y0178150D01*
X0517829Y0178150D01*
X0507447Y0178150D02*
X0507447Y0184055D01*
X0206423Y0178150D02*
X0202486Y0178150D01*
X0202486Y0184055D01*
X0199978Y0184055D02*
X0196041Y0184055D01*
X0198009Y0184055D02*
X0198009Y0178150D01*
X0193532Y0179134D02*
X0193532Y0184055D01*
X0189595Y0184055D02*
X0189595Y0179134D01*
X0190580Y0178150D01*
X0192548Y0178150D01*
X0193532Y0179134D01*
X0187087Y0179134D02*
X0187087Y0183071D01*
X0186103Y0184055D01*
X0184134Y0184055D01*
X0183150Y0183071D01*
X0183150Y0179134D01*
X0184134Y0178150D01*
X0186103Y0178150D01*
X0187087Y0179134D01*
X0111423Y0178150D02*
X0109455Y0180118D01*
X0110439Y0180118D02*
X0107486Y0180118D01*
X0107486Y0178150D02*
X0107486Y0184055D01*
X0110439Y0184055D01*
X0111423Y0183071D01*
X0111423Y0181103D01*
X0110439Y0180118D01*
X0103009Y0178150D02*
X0103009Y0184055D01*
X0101041Y0184055D02*
X0104978Y0184055D01*
X0098532Y0184055D02*
X0098532Y0179134D01*
X0097548Y0178150D01*
X0095580Y0178150D01*
X0094595Y0179134D01*
X0094595Y0184055D01*
X0092087Y0183071D02*
X0091103Y0184055D01*
X0089134Y0184055D01*
X0088150Y0183071D01*
X0088150Y0179134D01*
X0089134Y0178150D01*
X0091103Y0178150D01*
X0092087Y0179134D01*
X0092087Y0183071D01*
D15*
X0012801Y0180041D02*
X0012805Y0180372D01*
X0012817Y0180703D01*
X0012838Y0181034D01*
X0012866Y0181364D01*
X0012903Y0181694D01*
X0012947Y0182022D01*
X0013000Y0182349D01*
X0013060Y0182675D01*
X0013129Y0182999D01*
X0013206Y0183321D01*
X0013290Y0183642D01*
X0013382Y0183960D01*
X0013482Y0184276D01*
X0013590Y0184589D01*
X0013706Y0184900D01*
X0013829Y0185207D01*
X0013959Y0185512D01*
X0014097Y0185813D01*
X0014242Y0186111D01*
X0014395Y0186405D01*
X0014555Y0186695D01*
X0014722Y0186981D01*
X0014895Y0187263D01*
X0015076Y0187541D01*
X0015264Y0187814D01*
X0015458Y0188083D01*
X0015658Y0188347D01*
X0015865Y0188605D01*
X0016079Y0188859D01*
X0016298Y0189107D01*
X0016524Y0189350D01*
X0016755Y0189587D01*
X0016992Y0189818D01*
X0017235Y0190044D01*
X0017483Y0190263D01*
X0017737Y0190477D01*
X0017995Y0190684D01*
X0018259Y0190884D01*
X0018528Y0191078D01*
X0018801Y0191266D01*
X0019079Y0191447D01*
X0019361Y0191620D01*
X0019647Y0191787D01*
X0019937Y0191947D01*
X0020231Y0192100D01*
X0020529Y0192245D01*
X0020830Y0192383D01*
X0021135Y0192513D01*
X0021442Y0192636D01*
X0021753Y0192752D01*
X0022066Y0192860D01*
X0022382Y0192960D01*
X0022700Y0193052D01*
X0023021Y0193136D01*
X0023343Y0193213D01*
X0023667Y0193282D01*
X0023993Y0193342D01*
X0024320Y0193395D01*
X0024648Y0193439D01*
X0024978Y0193476D01*
X0025308Y0193504D01*
X0025639Y0193525D01*
X0025970Y0193537D01*
X0026301Y0193541D01*
X0026632Y0193537D01*
X0026963Y0193525D01*
X0027294Y0193504D01*
X0027624Y0193476D01*
X0027954Y0193439D01*
X0028282Y0193395D01*
X0028609Y0193342D01*
X0028935Y0193282D01*
X0029259Y0193213D01*
X0029581Y0193136D01*
X0029902Y0193052D01*
X0030220Y0192960D01*
X0030536Y0192860D01*
X0030849Y0192752D01*
X0031160Y0192636D01*
X0031467Y0192513D01*
X0031772Y0192383D01*
X0032073Y0192245D01*
X0032371Y0192100D01*
X0032665Y0191947D01*
X0032955Y0191787D01*
X0033241Y0191620D01*
X0033523Y0191447D01*
X0033801Y0191266D01*
X0034074Y0191078D01*
X0034343Y0190884D01*
X0034607Y0190684D01*
X0034865Y0190477D01*
X0035119Y0190263D01*
X0035367Y0190044D01*
X0035610Y0189818D01*
X0035847Y0189587D01*
X0036078Y0189350D01*
X0036304Y0189107D01*
X0036523Y0188859D01*
X0036737Y0188605D01*
X0036944Y0188347D01*
X0037144Y0188083D01*
X0037338Y0187814D01*
X0037526Y0187541D01*
X0037707Y0187263D01*
X0037880Y0186981D01*
X0038047Y0186695D01*
X0038207Y0186405D01*
X0038360Y0186111D01*
X0038505Y0185813D01*
X0038643Y0185512D01*
X0038773Y0185207D01*
X0038896Y0184900D01*
X0039012Y0184589D01*
X0039120Y0184276D01*
X0039220Y0183960D01*
X0039312Y0183642D01*
X0039396Y0183321D01*
X0039473Y0182999D01*
X0039542Y0182675D01*
X0039602Y0182349D01*
X0039655Y0182022D01*
X0039699Y0181694D01*
X0039736Y0181364D01*
X0039764Y0181034D01*
X0039785Y0180703D01*
X0039797Y0180372D01*
X0039801Y0180041D01*
X0039797Y0179710D01*
X0039785Y0179379D01*
X0039764Y0179048D01*
X0039736Y0178718D01*
X0039699Y0178388D01*
X0039655Y0178060D01*
X0039602Y0177733D01*
X0039542Y0177407D01*
X0039473Y0177083D01*
X0039396Y0176761D01*
X0039312Y0176440D01*
X0039220Y0176122D01*
X0039120Y0175806D01*
X0039012Y0175493D01*
X0038896Y0175182D01*
X0038773Y0174875D01*
X0038643Y0174570D01*
X0038505Y0174269D01*
X0038360Y0173971D01*
X0038207Y0173677D01*
X0038047Y0173387D01*
X0037880Y0173101D01*
X0037707Y0172819D01*
X0037526Y0172541D01*
X0037338Y0172268D01*
X0037144Y0171999D01*
X0036944Y0171735D01*
X0036737Y0171477D01*
X0036523Y0171223D01*
X0036304Y0170975D01*
X0036078Y0170732D01*
X0035847Y0170495D01*
X0035610Y0170264D01*
X0035367Y0170038D01*
X0035119Y0169819D01*
X0034865Y0169605D01*
X0034607Y0169398D01*
X0034343Y0169198D01*
X0034074Y0169004D01*
X0033801Y0168816D01*
X0033523Y0168635D01*
X0033241Y0168462D01*
X0032955Y0168295D01*
X0032665Y0168135D01*
X0032371Y0167982D01*
X0032073Y0167837D01*
X0031772Y0167699D01*
X0031467Y0167569D01*
X0031160Y0167446D01*
X0030849Y0167330D01*
X0030536Y0167222D01*
X0030220Y0167122D01*
X0029902Y0167030D01*
X0029581Y0166946D01*
X0029259Y0166869D01*
X0028935Y0166800D01*
X0028609Y0166740D01*
X0028282Y0166687D01*
X0027954Y0166643D01*
X0027624Y0166606D01*
X0027294Y0166578D01*
X0026963Y0166557D01*
X0026632Y0166545D01*
X0026301Y0166541D01*
X0025970Y0166545D01*
X0025639Y0166557D01*
X0025308Y0166578D01*
X0024978Y0166606D01*
X0024648Y0166643D01*
X0024320Y0166687D01*
X0023993Y0166740D01*
X0023667Y0166800D01*
X0023343Y0166869D01*
X0023021Y0166946D01*
X0022700Y0167030D01*
X0022382Y0167122D01*
X0022066Y0167222D01*
X0021753Y0167330D01*
X0021442Y0167446D01*
X0021135Y0167569D01*
X0020830Y0167699D01*
X0020529Y0167837D01*
X0020231Y0167982D01*
X0019937Y0168135D01*
X0019647Y0168295D01*
X0019361Y0168462D01*
X0019079Y0168635D01*
X0018801Y0168816D01*
X0018528Y0169004D01*
X0018259Y0169198D01*
X0017995Y0169398D01*
X0017737Y0169605D01*
X0017483Y0169819D01*
X0017235Y0170038D01*
X0016992Y0170264D01*
X0016755Y0170495D01*
X0016524Y0170732D01*
X0016298Y0170975D01*
X0016079Y0171223D01*
X0015865Y0171477D01*
X0015658Y0171735D01*
X0015458Y0171999D01*
X0015264Y0172268D01*
X0015076Y0172541D01*
X0014895Y0172819D01*
X0014722Y0173101D01*
X0014555Y0173387D01*
X0014395Y0173677D01*
X0014242Y0173971D01*
X0014097Y0174269D01*
X0013959Y0174570D01*
X0013829Y0174875D01*
X0013706Y0175182D01*
X0013590Y0175493D01*
X0013482Y0175806D01*
X0013382Y0176122D01*
X0013290Y0176440D01*
X0013206Y0176761D01*
X0013129Y0177083D01*
X0013060Y0177407D01*
X0013000Y0177733D01*
X0012947Y0178060D01*
X0012903Y0178388D01*
X0012866Y0178718D01*
X0012838Y0179048D01*
X0012817Y0179379D01*
X0012805Y0179710D01*
X0012801Y0180041D01*
X0143600Y0130600D02*
X0143600Y0128600D01*
X0142600Y0129600D02*
X0144600Y0129600D01*
X0137600Y0122600D02*
X0137603Y0122845D01*
X0137612Y0123091D01*
X0137627Y0123336D01*
X0137648Y0123580D01*
X0137675Y0123824D01*
X0137708Y0124067D01*
X0137747Y0124310D01*
X0137792Y0124551D01*
X0137843Y0124791D01*
X0137900Y0125030D01*
X0137962Y0125267D01*
X0138031Y0125503D01*
X0138105Y0125737D01*
X0138185Y0125969D01*
X0138270Y0126199D01*
X0138361Y0126427D01*
X0138458Y0126652D01*
X0138560Y0126876D01*
X0138668Y0127096D01*
X0138781Y0127314D01*
X0138899Y0127529D01*
X0139023Y0127741D01*
X0139151Y0127950D01*
X0139285Y0128156D01*
X0139424Y0128358D01*
X0139568Y0128557D01*
X0139717Y0128752D01*
X0139870Y0128944D01*
X0140028Y0129132D01*
X0140190Y0129316D01*
X0140358Y0129495D01*
X0140529Y0129671D01*
X0140705Y0129842D01*
X0140884Y0130010D01*
X0141068Y0130172D01*
X0141256Y0130330D01*
X0141448Y0130483D01*
X0141643Y0130632D01*
X0141842Y0130776D01*
X0142044Y0130915D01*
X0142250Y0131049D01*
X0142459Y0131177D01*
X0142671Y0131301D01*
X0142886Y0131419D01*
X0143104Y0131532D01*
X0143324Y0131640D01*
X0143548Y0131742D01*
X0143773Y0131839D01*
X0144001Y0131930D01*
X0144231Y0132015D01*
X0144463Y0132095D01*
X0144697Y0132169D01*
X0144933Y0132238D01*
X0145170Y0132300D01*
X0145409Y0132357D01*
X0145649Y0132408D01*
X0145890Y0132453D01*
X0146133Y0132492D01*
X0146376Y0132525D01*
X0146620Y0132552D01*
X0146864Y0132573D01*
X0147109Y0132588D01*
X0147355Y0132597D01*
X0147600Y0132600D01*
X0147845Y0132597D01*
X0148091Y0132588D01*
X0148336Y0132573D01*
X0148580Y0132552D01*
X0148824Y0132525D01*
X0149067Y0132492D01*
X0149310Y0132453D01*
X0149551Y0132408D01*
X0149791Y0132357D01*
X0150030Y0132300D01*
X0150267Y0132238D01*
X0150503Y0132169D01*
X0150737Y0132095D01*
X0150969Y0132015D01*
X0151199Y0131930D01*
X0151427Y0131839D01*
X0151652Y0131742D01*
X0151876Y0131640D01*
X0152096Y0131532D01*
X0152314Y0131419D01*
X0152529Y0131301D01*
X0152741Y0131177D01*
X0152950Y0131049D01*
X0153156Y0130915D01*
X0153358Y0130776D01*
X0153557Y0130632D01*
X0153752Y0130483D01*
X0153944Y0130330D01*
X0154132Y0130172D01*
X0154316Y0130010D01*
X0154495Y0129842D01*
X0154671Y0129671D01*
X0154842Y0129495D01*
X0155010Y0129316D01*
X0155172Y0129132D01*
X0155330Y0128944D01*
X0155483Y0128752D01*
X0155632Y0128557D01*
X0155776Y0128358D01*
X0155915Y0128156D01*
X0156049Y0127950D01*
X0156177Y0127741D01*
X0156301Y0127529D01*
X0156419Y0127314D01*
X0156532Y0127096D01*
X0156640Y0126876D01*
X0156742Y0126652D01*
X0156839Y0126427D01*
X0156930Y0126199D01*
X0157015Y0125969D01*
X0157095Y0125737D01*
X0157169Y0125503D01*
X0157238Y0125267D01*
X0157300Y0125030D01*
X0157357Y0124791D01*
X0157408Y0124551D01*
X0157453Y0124310D01*
X0157492Y0124067D01*
X0157525Y0123824D01*
X0157552Y0123580D01*
X0157573Y0123336D01*
X0157588Y0123091D01*
X0157597Y0122845D01*
X0157600Y0122600D01*
X0157597Y0122355D01*
X0157588Y0122109D01*
X0157573Y0121864D01*
X0157552Y0121620D01*
X0157525Y0121376D01*
X0157492Y0121133D01*
X0157453Y0120890D01*
X0157408Y0120649D01*
X0157357Y0120409D01*
X0157300Y0120170D01*
X0157238Y0119933D01*
X0157169Y0119697D01*
X0157095Y0119463D01*
X0157015Y0119231D01*
X0156930Y0119001D01*
X0156839Y0118773D01*
X0156742Y0118548D01*
X0156640Y0118324D01*
X0156532Y0118104D01*
X0156419Y0117886D01*
X0156301Y0117671D01*
X0156177Y0117459D01*
X0156049Y0117250D01*
X0155915Y0117044D01*
X0155776Y0116842D01*
X0155632Y0116643D01*
X0155483Y0116448D01*
X0155330Y0116256D01*
X0155172Y0116068D01*
X0155010Y0115884D01*
X0154842Y0115705D01*
X0154671Y0115529D01*
X0154495Y0115358D01*
X0154316Y0115190D01*
X0154132Y0115028D01*
X0153944Y0114870D01*
X0153752Y0114717D01*
X0153557Y0114568D01*
X0153358Y0114424D01*
X0153156Y0114285D01*
X0152950Y0114151D01*
X0152741Y0114023D01*
X0152529Y0113899D01*
X0152314Y0113781D01*
X0152096Y0113668D01*
X0151876Y0113560D01*
X0151652Y0113458D01*
X0151427Y0113361D01*
X0151199Y0113270D01*
X0150969Y0113185D01*
X0150737Y0113105D01*
X0150503Y0113031D01*
X0150267Y0112962D01*
X0150030Y0112900D01*
X0149791Y0112843D01*
X0149551Y0112792D01*
X0149310Y0112747D01*
X0149067Y0112708D01*
X0148824Y0112675D01*
X0148580Y0112648D01*
X0148336Y0112627D01*
X0148091Y0112612D01*
X0147845Y0112603D01*
X0147600Y0112600D01*
X0147355Y0112603D01*
X0147109Y0112612D01*
X0146864Y0112627D01*
X0146620Y0112648D01*
X0146376Y0112675D01*
X0146133Y0112708D01*
X0145890Y0112747D01*
X0145649Y0112792D01*
X0145409Y0112843D01*
X0145170Y0112900D01*
X0144933Y0112962D01*
X0144697Y0113031D01*
X0144463Y0113105D01*
X0144231Y0113185D01*
X0144001Y0113270D01*
X0143773Y0113361D01*
X0143548Y0113458D01*
X0143324Y0113560D01*
X0143104Y0113668D01*
X0142886Y0113781D01*
X0142671Y0113899D01*
X0142459Y0114023D01*
X0142250Y0114151D01*
X0142044Y0114285D01*
X0141842Y0114424D01*
X0141643Y0114568D01*
X0141448Y0114717D01*
X0141256Y0114870D01*
X0141068Y0115028D01*
X0140884Y0115190D01*
X0140705Y0115358D01*
X0140529Y0115529D01*
X0140358Y0115705D01*
X0140190Y0115884D01*
X0140028Y0116068D01*
X0139870Y0116256D01*
X0139717Y0116448D01*
X0139568Y0116643D01*
X0139424Y0116842D01*
X0139285Y0117044D01*
X0139151Y0117250D01*
X0139023Y0117459D01*
X0138899Y0117671D01*
X0138781Y0117886D01*
X0138668Y0118104D01*
X0138560Y0118324D01*
X0138458Y0118548D01*
X0138361Y0118773D01*
X0138270Y0119001D01*
X0138185Y0119231D01*
X0138105Y0119463D01*
X0138031Y0119697D01*
X0137962Y0119933D01*
X0137900Y0120170D01*
X0137843Y0120409D01*
X0137792Y0120649D01*
X0137747Y0120890D01*
X0137708Y0121133D01*
X0137675Y0121376D01*
X0137648Y0121620D01*
X0137627Y0121864D01*
X0137612Y0122109D01*
X0137603Y0122355D01*
X0137600Y0122600D01*
X0120600Y0112600D02*
X0104600Y0112600D01*
X0104600Y0102600D01*
X0120600Y0102600D01*
X0120600Y0112600D01*
X0115100Y0107600D02*
X0112600Y0107600D01*
X0112600Y0110100D01*
X0112600Y0107600D02*
X0108600Y0110100D01*
X0108600Y0105100D01*
X0112600Y0107600D01*
X0112600Y0105100D01*
X0112600Y0107600D02*
X0106600Y0107600D01*
X0082100Y0104100D02*
X0082100Y0102600D01*
X0081600Y0102100D01*
X0081600Y0083100D01*
X0082100Y0082600D01*
X0082100Y0081100D01*
X0082098Y0081040D01*
X0082093Y0080979D01*
X0082084Y0080920D01*
X0082071Y0080861D01*
X0082055Y0080802D01*
X0082035Y0080745D01*
X0082012Y0080690D01*
X0081985Y0080635D01*
X0081956Y0080583D01*
X0081923Y0080532D01*
X0081887Y0080483D01*
X0081849Y0080437D01*
X0081807Y0080393D01*
X0081763Y0080351D01*
X0081717Y0080313D01*
X0081668Y0080277D01*
X0081617Y0080244D01*
X0081565Y0080215D01*
X0081510Y0080188D01*
X0081455Y0080165D01*
X0081398Y0080145D01*
X0081339Y0080129D01*
X0081280Y0080116D01*
X0081221Y0080107D01*
X0081160Y0080102D01*
X0081100Y0080100D01*
X0074100Y0080100D02*
X0074040Y0080102D01*
X0073979Y0080107D01*
X0073920Y0080116D01*
X0073861Y0080129D01*
X0073802Y0080145D01*
X0073745Y0080165D01*
X0073690Y0080188D01*
X0073635Y0080215D01*
X0073583Y0080244D01*
X0073532Y0080277D01*
X0073483Y0080313D01*
X0073437Y0080351D01*
X0073393Y0080393D01*
X0073351Y0080437D01*
X0073313Y0080483D01*
X0073277Y0080532D01*
X0073244Y0080583D01*
X0073215Y0080635D01*
X0073188Y0080690D01*
X0073165Y0080745D01*
X0073145Y0080802D01*
X0073129Y0080861D01*
X0073116Y0080920D01*
X0073107Y0080979D01*
X0073102Y0081040D01*
X0073100Y0081100D01*
X0073100Y0082600D01*
X0073600Y0083100D01*
X0073600Y0102100D01*
X0073100Y0102600D01*
X0073100Y0104100D01*
X0073102Y0104160D01*
X0073107Y0104221D01*
X0073116Y0104280D01*
X0073129Y0104339D01*
X0073145Y0104398D01*
X0073165Y0104455D01*
X0073188Y0104510D01*
X0073215Y0104565D01*
X0073244Y0104617D01*
X0073277Y0104668D01*
X0073313Y0104717D01*
X0073351Y0104763D01*
X0073393Y0104807D01*
X0073437Y0104849D01*
X0073483Y0104887D01*
X0073532Y0104923D01*
X0073583Y0104956D01*
X0073635Y0104985D01*
X0073690Y0105012D01*
X0073745Y0105035D01*
X0073802Y0105055D01*
X0073861Y0105071D01*
X0073920Y0105084D01*
X0073979Y0105093D01*
X0074040Y0105098D01*
X0074100Y0105100D01*
X0081100Y0105100D02*
X0081160Y0105098D01*
X0081221Y0105093D01*
X0081280Y0105084D01*
X0081339Y0105071D01*
X0081398Y0105055D01*
X0081455Y0105035D01*
X0081510Y0105012D01*
X0081565Y0104985D01*
X0081617Y0104956D01*
X0081668Y0104923D01*
X0081717Y0104887D01*
X0081763Y0104849D01*
X0081807Y0104807D01*
X0081849Y0104763D01*
X0081887Y0104717D01*
X0081923Y0104668D01*
X0081956Y0104617D01*
X0081985Y0104565D01*
X0082012Y0104510D01*
X0082035Y0104455D01*
X0082055Y0104398D01*
X0082071Y0104339D01*
X0082084Y0104280D01*
X0082093Y0104221D01*
X0082098Y0104160D01*
X0082100Y0104100D01*
X0076600Y0114600D02*
X0076600Y0116600D01*
X0077600Y0115600D02*
X0075600Y0115600D01*
X0062600Y0122600D02*
X0062603Y0122845D01*
X0062612Y0123091D01*
X0062627Y0123336D01*
X0062648Y0123580D01*
X0062675Y0123824D01*
X0062708Y0124067D01*
X0062747Y0124310D01*
X0062792Y0124551D01*
X0062843Y0124791D01*
X0062900Y0125030D01*
X0062962Y0125267D01*
X0063031Y0125503D01*
X0063105Y0125737D01*
X0063185Y0125969D01*
X0063270Y0126199D01*
X0063361Y0126427D01*
X0063458Y0126652D01*
X0063560Y0126876D01*
X0063668Y0127096D01*
X0063781Y0127314D01*
X0063899Y0127529D01*
X0064023Y0127741D01*
X0064151Y0127950D01*
X0064285Y0128156D01*
X0064424Y0128358D01*
X0064568Y0128557D01*
X0064717Y0128752D01*
X0064870Y0128944D01*
X0065028Y0129132D01*
X0065190Y0129316D01*
X0065358Y0129495D01*
X0065529Y0129671D01*
X0065705Y0129842D01*
X0065884Y0130010D01*
X0066068Y0130172D01*
X0066256Y0130330D01*
X0066448Y0130483D01*
X0066643Y0130632D01*
X0066842Y0130776D01*
X0067044Y0130915D01*
X0067250Y0131049D01*
X0067459Y0131177D01*
X0067671Y0131301D01*
X0067886Y0131419D01*
X0068104Y0131532D01*
X0068324Y0131640D01*
X0068548Y0131742D01*
X0068773Y0131839D01*
X0069001Y0131930D01*
X0069231Y0132015D01*
X0069463Y0132095D01*
X0069697Y0132169D01*
X0069933Y0132238D01*
X0070170Y0132300D01*
X0070409Y0132357D01*
X0070649Y0132408D01*
X0070890Y0132453D01*
X0071133Y0132492D01*
X0071376Y0132525D01*
X0071620Y0132552D01*
X0071864Y0132573D01*
X0072109Y0132588D01*
X0072355Y0132597D01*
X0072600Y0132600D01*
X0072845Y0132597D01*
X0073091Y0132588D01*
X0073336Y0132573D01*
X0073580Y0132552D01*
X0073824Y0132525D01*
X0074067Y0132492D01*
X0074310Y0132453D01*
X0074551Y0132408D01*
X0074791Y0132357D01*
X0075030Y0132300D01*
X0075267Y0132238D01*
X0075503Y0132169D01*
X0075737Y0132095D01*
X0075969Y0132015D01*
X0076199Y0131930D01*
X0076427Y0131839D01*
X0076652Y0131742D01*
X0076876Y0131640D01*
X0077096Y0131532D01*
X0077314Y0131419D01*
X0077529Y0131301D01*
X0077741Y0131177D01*
X0077950Y0131049D01*
X0078156Y0130915D01*
X0078358Y0130776D01*
X0078557Y0130632D01*
X0078752Y0130483D01*
X0078944Y0130330D01*
X0079132Y0130172D01*
X0079316Y0130010D01*
X0079495Y0129842D01*
X0079671Y0129671D01*
X0079842Y0129495D01*
X0080010Y0129316D01*
X0080172Y0129132D01*
X0080330Y0128944D01*
X0080483Y0128752D01*
X0080632Y0128557D01*
X0080776Y0128358D01*
X0080915Y0128156D01*
X0081049Y0127950D01*
X0081177Y0127741D01*
X0081301Y0127529D01*
X0081419Y0127314D01*
X0081532Y0127096D01*
X0081640Y0126876D01*
X0081742Y0126652D01*
X0081839Y0126427D01*
X0081930Y0126199D01*
X0082015Y0125969D01*
X0082095Y0125737D01*
X0082169Y0125503D01*
X0082238Y0125267D01*
X0082300Y0125030D01*
X0082357Y0124791D01*
X0082408Y0124551D01*
X0082453Y0124310D01*
X0082492Y0124067D01*
X0082525Y0123824D01*
X0082552Y0123580D01*
X0082573Y0123336D01*
X0082588Y0123091D01*
X0082597Y0122845D01*
X0082600Y0122600D01*
X0082597Y0122355D01*
X0082588Y0122109D01*
X0082573Y0121864D01*
X0082552Y0121620D01*
X0082525Y0121376D01*
X0082492Y0121133D01*
X0082453Y0120890D01*
X0082408Y0120649D01*
X0082357Y0120409D01*
X0082300Y0120170D01*
X0082238Y0119933D01*
X0082169Y0119697D01*
X0082095Y0119463D01*
X0082015Y0119231D01*
X0081930Y0119001D01*
X0081839Y0118773D01*
X0081742Y0118548D01*
X0081640Y0118324D01*
X0081532Y0118104D01*
X0081419Y0117886D01*
X0081301Y0117671D01*
X0081177Y0117459D01*
X0081049Y0117250D01*
X0080915Y0117044D01*
X0080776Y0116842D01*
X0080632Y0116643D01*
X0080483Y0116448D01*
X0080330Y0116256D01*
X0080172Y0116068D01*
X0080010Y0115884D01*
X0079842Y0115705D01*
X0079671Y0115529D01*
X0079495Y0115358D01*
X0079316Y0115190D01*
X0079132Y0115028D01*
X0078944Y0114870D01*
X0078752Y0114717D01*
X0078557Y0114568D01*
X0078358Y0114424D01*
X0078156Y0114285D01*
X0077950Y0114151D01*
X0077741Y0114023D01*
X0077529Y0113899D01*
X0077314Y0113781D01*
X0077096Y0113668D01*
X0076876Y0113560D01*
X0076652Y0113458D01*
X0076427Y0113361D01*
X0076199Y0113270D01*
X0075969Y0113185D01*
X0075737Y0113105D01*
X0075503Y0113031D01*
X0075267Y0112962D01*
X0075030Y0112900D01*
X0074791Y0112843D01*
X0074551Y0112792D01*
X0074310Y0112747D01*
X0074067Y0112708D01*
X0073824Y0112675D01*
X0073580Y0112648D01*
X0073336Y0112627D01*
X0073091Y0112612D01*
X0072845Y0112603D01*
X0072600Y0112600D01*
X0072355Y0112603D01*
X0072109Y0112612D01*
X0071864Y0112627D01*
X0071620Y0112648D01*
X0071376Y0112675D01*
X0071133Y0112708D01*
X0070890Y0112747D01*
X0070649Y0112792D01*
X0070409Y0112843D01*
X0070170Y0112900D01*
X0069933Y0112962D01*
X0069697Y0113031D01*
X0069463Y0113105D01*
X0069231Y0113185D01*
X0069001Y0113270D01*
X0068773Y0113361D01*
X0068548Y0113458D01*
X0068324Y0113560D01*
X0068104Y0113668D01*
X0067886Y0113781D01*
X0067671Y0113899D01*
X0067459Y0114023D01*
X0067250Y0114151D01*
X0067044Y0114285D01*
X0066842Y0114424D01*
X0066643Y0114568D01*
X0066448Y0114717D01*
X0066256Y0114870D01*
X0066068Y0115028D01*
X0065884Y0115190D01*
X0065705Y0115358D01*
X0065529Y0115529D01*
X0065358Y0115705D01*
X0065190Y0115884D01*
X0065028Y0116068D01*
X0064870Y0116256D01*
X0064717Y0116448D01*
X0064568Y0116643D01*
X0064424Y0116842D01*
X0064285Y0117044D01*
X0064151Y0117250D01*
X0064023Y0117459D01*
X0063899Y0117671D01*
X0063781Y0117886D01*
X0063668Y0118104D01*
X0063560Y0118324D01*
X0063458Y0118548D01*
X0063361Y0118773D01*
X0063270Y0119001D01*
X0063185Y0119231D01*
X0063105Y0119463D01*
X0063031Y0119697D01*
X0062962Y0119933D01*
X0062900Y0120170D01*
X0062843Y0120409D01*
X0062792Y0120649D01*
X0062747Y0120890D01*
X0062708Y0121133D01*
X0062675Y0121376D01*
X0062648Y0121620D01*
X0062627Y0121864D01*
X0062612Y0122109D01*
X0062603Y0122355D01*
X0062600Y0122600D01*
X0046222Y0104509D02*
X0043722Y0107009D01*
X0038722Y0107009D01*
X0036222Y0104509D01*
X0036222Y0099509D01*
X0038722Y0097009D01*
X0043722Y0097009D01*
X0046222Y0099509D01*
X0046222Y0104509D01*
X0043722Y0097009D02*
X0046222Y0094509D01*
X0046222Y0089509D01*
X0043722Y0087009D01*
X0046222Y0084509D01*
X0046222Y0079509D01*
X0043722Y0077009D01*
X0038722Y0077009D01*
X0036222Y0079509D01*
X0036222Y0084509D01*
X0038722Y0087009D01*
X0036222Y0089509D01*
X0036222Y0094509D01*
X0038722Y0097009D01*
X0038722Y0087009D02*
X0043722Y0087009D01*
X0069600Y0067600D02*
X0069600Y0065600D01*
X0068600Y0066600D02*
X0070600Y0066600D01*
X0052600Y0062600D02*
X0052603Y0062845D01*
X0052612Y0063091D01*
X0052627Y0063336D01*
X0052648Y0063580D01*
X0052675Y0063824D01*
X0052708Y0064067D01*
X0052747Y0064310D01*
X0052792Y0064551D01*
X0052843Y0064791D01*
X0052900Y0065030D01*
X0052962Y0065267D01*
X0053031Y0065503D01*
X0053105Y0065737D01*
X0053185Y0065969D01*
X0053270Y0066199D01*
X0053361Y0066427D01*
X0053458Y0066652D01*
X0053560Y0066876D01*
X0053668Y0067096D01*
X0053781Y0067314D01*
X0053899Y0067529D01*
X0054023Y0067741D01*
X0054151Y0067950D01*
X0054285Y0068156D01*
X0054424Y0068358D01*
X0054568Y0068557D01*
X0054717Y0068752D01*
X0054870Y0068944D01*
X0055028Y0069132D01*
X0055190Y0069316D01*
X0055358Y0069495D01*
X0055529Y0069671D01*
X0055705Y0069842D01*
X0055884Y0070010D01*
X0056068Y0070172D01*
X0056256Y0070330D01*
X0056448Y0070483D01*
X0056643Y0070632D01*
X0056842Y0070776D01*
X0057044Y0070915D01*
X0057250Y0071049D01*
X0057459Y0071177D01*
X0057671Y0071301D01*
X0057886Y0071419D01*
X0058104Y0071532D01*
X0058324Y0071640D01*
X0058548Y0071742D01*
X0058773Y0071839D01*
X0059001Y0071930D01*
X0059231Y0072015D01*
X0059463Y0072095D01*
X0059697Y0072169D01*
X0059933Y0072238D01*
X0060170Y0072300D01*
X0060409Y0072357D01*
X0060649Y0072408D01*
X0060890Y0072453D01*
X0061133Y0072492D01*
X0061376Y0072525D01*
X0061620Y0072552D01*
X0061864Y0072573D01*
X0062109Y0072588D01*
X0062355Y0072597D01*
X0062600Y0072600D01*
X0062845Y0072597D01*
X0063091Y0072588D01*
X0063336Y0072573D01*
X0063580Y0072552D01*
X0063824Y0072525D01*
X0064067Y0072492D01*
X0064310Y0072453D01*
X0064551Y0072408D01*
X0064791Y0072357D01*
X0065030Y0072300D01*
X0065267Y0072238D01*
X0065503Y0072169D01*
X0065737Y0072095D01*
X0065969Y0072015D01*
X0066199Y0071930D01*
X0066427Y0071839D01*
X0066652Y0071742D01*
X0066876Y0071640D01*
X0067096Y0071532D01*
X0067314Y0071419D01*
X0067529Y0071301D01*
X0067741Y0071177D01*
X0067950Y0071049D01*
X0068156Y0070915D01*
X0068358Y0070776D01*
X0068557Y0070632D01*
X0068752Y0070483D01*
X0068944Y0070330D01*
X0069132Y0070172D01*
X0069316Y0070010D01*
X0069495Y0069842D01*
X0069671Y0069671D01*
X0069842Y0069495D01*
X0070010Y0069316D01*
X0070172Y0069132D01*
X0070330Y0068944D01*
X0070483Y0068752D01*
X0070632Y0068557D01*
X0070776Y0068358D01*
X0070915Y0068156D01*
X0071049Y0067950D01*
X0071177Y0067741D01*
X0071301Y0067529D01*
X0071419Y0067314D01*
X0071532Y0067096D01*
X0071640Y0066876D01*
X0071742Y0066652D01*
X0071839Y0066427D01*
X0071930Y0066199D01*
X0072015Y0065969D01*
X0072095Y0065737D01*
X0072169Y0065503D01*
X0072238Y0065267D01*
X0072300Y0065030D01*
X0072357Y0064791D01*
X0072408Y0064551D01*
X0072453Y0064310D01*
X0072492Y0064067D01*
X0072525Y0063824D01*
X0072552Y0063580D01*
X0072573Y0063336D01*
X0072588Y0063091D01*
X0072597Y0062845D01*
X0072600Y0062600D01*
X0072597Y0062355D01*
X0072588Y0062109D01*
X0072573Y0061864D01*
X0072552Y0061620D01*
X0072525Y0061376D01*
X0072492Y0061133D01*
X0072453Y0060890D01*
X0072408Y0060649D01*
X0072357Y0060409D01*
X0072300Y0060170D01*
X0072238Y0059933D01*
X0072169Y0059697D01*
X0072095Y0059463D01*
X0072015Y0059231D01*
X0071930Y0059001D01*
X0071839Y0058773D01*
X0071742Y0058548D01*
X0071640Y0058324D01*
X0071532Y0058104D01*
X0071419Y0057886D01*
X0071301Y0057671D01*
X0071177Y0057459D01*
X0071049Y0057250D01*
X0070915Y0057044D01*
X0070776Y0056842D01*
X0070632Y0056643D01*
X0070483Y0056448D01*
X0070330Y0056256D01*
X0070172Y0056068D01*
X0070010Y0055884D01*
X0069842Y0055705D01*
X0069671Y0055529D01*
X0069495Y0055358D01*
X0069316Y0055190D01*
X0069132Y0055028D01*
X0068944Y0054870D01*
X0068752Y0054717D01*
X0068557Y0054568D01*
X0068358Y0054424D01*
X0068156Y0054285D01*
X0067950Y0054151D01*
X0067741Y0054023D01*
X0067529Y0053899D01*
X0067314Y0053781D01*
X0067096Y0053668D01*
X0066876Y0053560D01*
X0066652Y0053458D01*
X0066427Y0053361D01*
X0066199Y0053270D01*
X0065969Y0053185D01*
X0065737Y0053105D01*
X0065503Y0053031D01*
X0065267Y0052962D01*
X0065030Y0052900D01*
X0064791Y0052843D01*
X0064551Y0052792D01*
X0064310Y0052747D01*
X0064067Y0052708D01*
X0063824Y0052675D01*
X0063580Y0052648D01*
X0063336Y0052627D01*
X0063091Y0052612D01*
X0062845Y0052603D01*
X0062600Y0052600D01*
X0062355Y0052603D01*
X0062109Y0052612D01*
X0061864Y0052627D01*
X0061620Y0052648D01*
X0061376Y0052675D01*
X0061133Y0052708D01*
X0060890Y0052747D01*
X0060649Y0052792D01*
X0060409Y0052843D01*
X0060170Y0052900D01*
X0059933Y0052962D01*
X0059697Y0053031D01*
X0059463Y0053105D01*
X0059231Y0053185D01*
X0059001Y0053270D01*
X0058773Y0053361D01*
X0058548Y0053458D01*
X0058324Y0053560D01*
X0058104Y0053668D01*
X0057886Y0053781D01*
X0057671Y0053899D01*
X0057459Y0054023D01*
X0057250Y0054151D01*
X0057044Y0054285D01*
X0056842Y0054424D01*
X0056643Y0054568D01*
X0056448Y0054717D01*
X0056256Y0054870D01*
X0056068Y0055028D01*
X0055884Y0055190D01*
X0055705Y0055358D01*
X0055529Y0055529D01*
X0055358Y0055705D01*
X0055190Y0055884D01*
X0055028Y0056068D01*
X0054870Y0056256D01*
X0054717Y0056448D01*
X0054568Y0056643D01*
X0054424Y0056842D01*
X0054285Y0057044D01*
X0054151Y0057250D01*
X0054023Y0057459D01*
X0053899Y0057671D01*
X0053781Y0057886D01*
X0053668Y0058104D01*
X0053560Y0058324D01*
X0053458Y0058548D01*
X0053361Y0058773D01*
X0053270Y0059001D01*
X0053185Y0059231D01*
X0053105Y0059463D01*
X0053031Y0059697D01*
X0052962Y0059933D01*
X0052900Y0060170D01*
X0052843Y0060409D01*
X0052792Y0060649D01*
X0052747Y0060890D01*
X0052708Y0061133D01*
X0052675Y0061376D01*
X0052648Y0061620D01*
X0052627Y0061864D01*
X0052612Y0062109D01*
X0052603Y0062355D01*
X0052600Y0062600D01*
X0012801Y0061931D02*
X0012805Y0062262D01*
X0012817Y0062593D01*
X0012838Y0062924D01*
X0012866Y0063254D01*
X0012903Y0063584D01*
X0012947Y0063912D01*
X0013000Y0064239D01*
X0013060Y0064565D01*
X0013129Y0064889D01*
X0013206Y0065211D01*
X0013290Y0065532D01*
X0013382Y0065850D01*
X0013482Y0066166D01*
X0013590Y0066479D01*
X0013706Y0066790D01*
X0013829Y0067097D01*
X0013959Y0067402D01*
X0014097Y0067703D01*
X0014242Y0068001D01*
X0014395Y0068295D01*
X0014555Y0068585D01*
X0014722Y0068871D01*
X0014895Y0069153D01*
X0015076Y0069431D01*
X0015264Y0069704D01*
X0015458Y0069973D01*
X0015658Y0070237D01*
X0015865Y0070495D01*
X0016079Y0070749D01*
X0016298Y0070997D01*
X0016524Y0071240D01*
X0016755Y0071477D01*
X0016992Y0071708D01*
X0017235Y0071934D01*
X0017483Y0072153D01*
X0017737Y0072367D01*
X0017995Y0072574D01*
X0018259Y0072774D01*
X0018528Y0072968D01*
X0018801Y0073156D01*
X0019079Y0073337D01*
X0019361Y0073510D01*
X0019647Y0073677D01*
X0019937Y0073837D01*
X0020231Y0073990D01*
X0020529Y0074135D01*
X0020830Y0074273D01*
X0021135Y0074403D01*
X0021442Y0074526D01*
X0021753Y0074642D01*
X0022066Y0074750D01*
X0022382Y0074850D01*
X0022700Y0074942D01*
X0023021Y0075026D01*
X0023343Y0075103D01*
X0023667Y0075172D01*
X0023993Y0075232D01*
X0024320Y0075285D01*
X0024648Y0075329D01*
X0024978Y0075366D01*
X0025308Y0075394D01*
X0025639Y0075415D01*
X0025970Y0075427D01*
X0026301Y0075431D01*
X0026632Y0075427D01*
X0026963Y0075415D01*
X0027294Y0075394D01*
X0027624Y0075366D01*
X0027954Y0075329D01*
X0028282Y0075285D01*
X0028609Y0075232D01*
X0028935Y0075172D01*
X0029259Y0075103D01*
X0029581Y0075026D01*
X0029902Y0074942D01*
X0030220Y0074850D01*
X0030536Y0074750D01*
X0030849Y0074642D01*
X0031160Y0074526D01*
X0031467Y0074403D01*
X0031772Y0074273D01*
X0032073Y0074135D01*
X0032371Y0073990D01*
X0032665Y0073837D01*
X0032955Y0073677D01*
X0033241Y0073510D01*
X0033523Y0073337D01*
X0033801Y0073156D01*
X0034074Y0072968D01*
X0034343Y0072774D01*
X0034607Y0072574D01*
X0034865Y0072367D01*
X0035119Y0072153D01*
X0035367Y0071934D01*
X0035610Y0071708D01*
X0035847Y0071477D01*
X0036078Y0071240D01*
X0036304Y0070997D01*
X0036523Y0070749D01*
X0036737Y0070495D01*
X0036944Y0070237D01*
X0037144Y0069973D01*
X0037338Y0069704D01*
X0037526Y0069431D01*
X0037707Y0069153D01*
X0037880Y0068871D01*
X0038047Y0068585D01*
X0038207Y0068295D01*
X0038360Y0068001D01*
X0038505Y0067703D01*
X0038643Y0067402D01*
X0038773Y0067097D01*
X0038896Y0066790D01*
X0039012Y0066479D01*
X0039120Y0066166D01*
X0039220Y0065850D01*
X0039312Y0065532D01*
X0039396Y0065211D01*
X0039473Y0064889D01*
X0039542Y0064565D01*
X0039602Y0064239D01*
X0039655Y0063912D01*
X0039699Y0063584D01*
X0039736Y0063254D01*
X0039764Y0062924D01*
X0039785Y0062593D01*
X0039797Y0062262D01*
X0039801Y0061931D01*
X0039797Y0061600D01*
X0039785Y0061269D01*
X0039764Y0060938D01*
X0039736Y0060608D01*
X0039699Y0060278D01*
X0039655Y0059950D01*
X0039602Y0059623D01*
X0039542Y0059297D01*
X0039473Y0058973D01*
X0039396Y0058651D01*
X0039312Y0058330D01*
X0039220Y0058012D01*
X0039120Y0057696D01*
X0039012Y0057383D01*
X0038896Y0057072D01*
X0038773Y0056765D01*
X0038643Y0056460D01*
X0038505Y0056159D01*
X0038360Y0055861D01*
X0038207Y0055567D01*
X0038047Y0055277D01*
X0037880Y0054991D01*
X0037707Y0054709D01*
X0037526Y0054431D01*
X0037338Y0054158D01*
X0037144Y0053889D01*
X0036944Y0053625D01*
X0036737Y0053367D01*
X0036523Y0053113D01*
X0036304Y0052865D01*
X0036078Y0052622D01*
X0035847Y0052385D01*
X0035610Y0052154D01*
X0035367Y0051928D01*
X0035119Y0051709D01*
X0034865Y0051495D01*
X0034607Y0051288D01*
X0034343Y0051088D01*
X0034074Y0050894D01*
X0033801Y0050706D01*
X0033523Y0050525D01*
X0033241Y0050352D01*
X0032955Y0050185D01*
X0032665Y0050025D01*
X0032371Y0049872D01*
X0032073Y0049727D01*
X0031772Y0049589D01*
X0031467Y0049459D01*
X0031160Y0049336D01*
X0030849Y0049220D01*
X0030536Y0049112D01*
X0030220Y0049012D01*
X0029902Y0048920D01*
X0029581Y0048836D01*
X0029259Y0048759D01*
X0028935Y0048690D01*
X0028609Y0048630D01*
X0028282Y0048577D01*
X0027954Y0048533D01*
X0027624Y0048496D01*
X0027294Y0048468D01*
X0026963Y0048447D01*
X0026632Y0048435D01*
X0026301Y0048431D01*
X0025970Y0048435D01*
X0025639Y0048447D01*
X0025308Y0048468D01*
X0024978Y0048496D01*
X0024648Y0048533D01*
X0024320Y0048577D01*
X0023993Y0048630D01*
X0023667Y0048690D01*
X0023343Y0048759D01*
X0023021Y0048836D01*
X0022700Y0048920D01*
X0022382Y0049012D01*
X0022066Y0049112D01*
X0021753Y0049220D01*
X0021442Y0049336D01*
X0021135Y0049459D01*
X0020830Y0049589D01*
X0020529Y0049727D01*
X0020231Y0049872D01*
X0019937Y0050025D01*
X0019647Y0050185D01*
X0019361Y0050352D01*
X0019079Y0050525D01*
X0018801Y0050706D01*
X0018528Y0050894D01*
X0018259Y0051088D01*
X0017995Y0051288D01*
X0017737Y0051495D01*
X0017483Y0051709D01*
X0017235Y0051928D01*
X0016992Y0052154D01*
X0016755Y0052385D01*
X0016524Y0052622D01*
X0016298Y0052865D01*
X0016079Y0053113D01*
X0015865Y0053367D01*
X0015658Y0053625D01*
X0015458Y0053889D01*
X0015264Y0054158D01*
X0015076Y0054431D01*
X0014895Y0054709D01*
X0014722Y0054991D01*
X0014555Y0055277D01*
X0014395Y0055567D01*
X0014242Y0055861D01*
X0014097Y0056159D01*
X0013959Y0056460D01*
X0013829Y0056765D01*
X0013706Y0057072D01*
X0013590Y0057383D01*
X0013482Y0057696D01*
X0013382Y0058012D01*
X0013290Y0058330D01*
X0013206Y0058651D01*
X0013129Y0058973D01*
X0013060Y0059297D01*
X0013000Y0059623D01*
X0012947Y0059950D01*
X0012903Y0060278D01*
X0012866Y0060608D01*
X0012838Y0060938D01*
X0012817Y0061269D01*
X0012805Y0061600D01*
X0012801Y0061931D01*
X0036100Y0042100D02*
X0037600Y0042100D01*
X0038100Y0041600D01*
X0057100Y0041600D01*
X0057600Y0042100D01*
X0059100Y0042100D01*
X0059160Y0042098D01*
X0059221Y0042093D01*
X0059280Y0042084D01*
X0059339Y0042071D01*
X0059398Y0042055D01*
X0059455Y0042035D01*
X0059510Y0042012D01*
X0059565Y0041985D01*
X0059617Y0041956D01*
X0059668Y0041923D01*
X0059717Y0041887D01*
X0059763Y0041849D01*
X0059807Y0041807D01*
X0059849Y0041763D01*
X0059887Y0041717D01*
X0059923Y0041668D01*
X0059956Y0041617D01*
X0059985Y0041565D01*
X0060012Y0041510D01*
X0060035Y0041455D01*
X0060055Y0041398D01*
X0060071Y0041339D01*
X0060084Y0041280D01*
X0060093Y0041221D01*
X0060098Y0041160D01*
X0060100Y0041100D01*
X0060100Y0034100D02*
X0060098Y0034040D01*
X0060093Y0033979D01*
X0060084Y0033920D01*
X0060071Y0033861D01*
X0060055Y0033802D01*
X0060035Y0033745D01*
X0060012Y0033690D01*
X0059985Y0033635D01*
X0059956Y0033583D01*
X0059923Y0033532D01*
X0059887Y0033483D01*
X0059849Y0033437D01*
X0059807Y0033393D01*
X0059763Y0033351D01*
X0059717Y0033313D01*
X0059668Y0033277D01*
X0059617Y0033244D01*
X0059565Y0033215D01*
X0059510Y0033188D01*
X0059455Y0033165D01*
X0059398Y0033145D01*
X0059339Y0033129D01*
X0059280Y0033116D01*
X0059221Y0033107D01*
X0059160Y0033102D01*
X0059100Y0033100D01*
X0057600Y0033100D01*
X0057100Y0033600D01*
X0038100Y0033600D01*
X0037600Y0033100D01*
X0036100Y0033100D01*
X0036040Y0033102D01*
X0035979Y0033107D01*
X0035920Y0033116D01*
X0035861Y0033129D01*
X0035802Y0033145D01*
X0035745Y0033165D01*
X0035690Y0033188D01*
X0035635Y0033215D01*
X0035583Y0033244D01*
X0035532Y0033277D01*
X0035483Y0033313D01*
X0035437Y0033351D01*
X0035393Y0033393D01*
X0035351Y0033437D01*
X0035313Y0033483D01*
X0035277Y0033532D01*
X0035244Y0033583D01*
X0035215Y0033635D01*
X0035188Y0033690D01*
X0035165Y0033745D01*
X0035145Y0033802D01*
X0035129Y0033861D01*
X0035116Y0033920D01*
X0035107Y0033979D01*
X0035102Y0034040D01*
X0035100Y0034100D01*
X0035100Y0041100D02*
X0035102Y0041160D01*
X0035107Y0041221D01*
X0035116Y0041280D01*
X0035129Y0041339D01*
X0035145Y0041398D01*
X0035165Y0041455D01*
X0035188Y0041510D01*
X0035215Y0041565D01*
X0035244Y0041617D01*
X0035277Y0041668D01*
X0035313Y0041717D01*
X0035351Y0041763D01*
X0035393Y0041807D01*
X0035437Y0041849D01*
X0035483Y0041887D01*
X0035532Y0041923D01*
X0035583Y0041956D01*
X0035635Y0041985D01*
X0035690Y0042012D01*
X0035745Y0042035D01*
X0035802Y0042055D01*
X0035861Y0042071D01*
X0035920Y0042084D01*
X0035979Y0042093D01*
X0036040Y0042098D01*
X0036100Y0042100D01*
X0089600Y0042600D02*
X0089600Y0032600D01*
X0105600Y0032600D01*
X0105600Y0042600D01*
X0089600Y0042600D01*
X0093600Y0040100D02*
X0097600Y0037600D01*
X0097600Y0040100D01*
X0097600Y0037600D02*
X0091600Y0037600D01*
X0093600Y0035100D02*
X0097600Y0037600D01*
X0097600Y0035100D01*
X0097600Y0037600D02*
X0100100Y0037600D01*
X0093600Y0035100D02*
X0093600Y0040100D01*
X0144600Y0047600D02*
X0144600Y0057600D01*
X0160600Y0057600D01*
X0160600Y0047600D01*
X0144600Y0047600D01*
X0148600Y0050100D02*
X0152600Y0052600D01*
X0152600Y0055100D01*
X0152600Y0052600D02*
X0148600Y0055100D01*
X0148600Y0050100D01*
X0146600Y0052600D02*
X0152600Y0052600D01*
X0152600Y0050100D01*
X0152600Y0052600D02*
X0155100Y0052600D01*
X0120600Y0062600D02*
X0120600Y0072600D01*
X0104600Y0072600D01*
X0104600Y0062600D01*
X0120600Y0062600D01*
X0116600Y0065100D02*
X0112600Y0067600D01*
X0112600Y0065100D01*
X0112600Y0067600D02*
X0112600Y0070100D01*
X0112600Y0067600D02*
X0116600Y0070100D01*
X0116600Y0065100D01*
X0118600Y0067600D02*
X0112600Y0067600D01*
X0110100Y0067600D01*
X0104600Y0082600D02*
X0104600Y0092600D01*
X0120600Y0092600D01*
X0120600Y0082600D01*
X0104600Y0082600D01*
X0112600Y0085100D02*
X0112600Y0087600D01*
X0112600Y0090100D01*
X0112600Y0087600D02*
X0116600Y0090100D01*
X0116600Y0085100D01*
X0112600Y0087600D01*
X0118600Y0087600D01*
X0112600Y0087600D02*
X0110100Y0087600D01*
X0154600Y0092600D02*
X0154600Y0102600D01*
X0170600Y0102600D01*
X0170600Y0092600D01*
X0154600Y0092600D01*
X0162600Y0095100D02*
X0162600Y0097600D01*
X0162600Y0100100D01*
X0162600Y0097600D02*
X0166600Y0100100D01*
X0166600Y0095100D01*
X0162600Y0097600D01*
X0168600Y0097600D01*
X0162600Y0097600D02*
X0160100Y0097600D01*
X0171100Y0118100D02*
X0172600Y0118100D01*
X0173100Y0118600D01*
X0192100Y0118600D01*
X0192600Y0118100D01*
X0194100Y0118100D01*
X0194160Y0118102D01*
X0194221Y0118107D01*
X0194280Y0118116D01*
X0194339Y0118129D01*
X0194398Y0118145D01*
X0194455Y0118165D01*
X0194510Y0118188D01*
X0194565Y0118215D01*
X0194617Y0118244D01*
X0194668Y0118277D01*
X0194717Y0118313D01*
X0194763Y0118351D01*
X0194807Y0118393D01*
X0194849Y0118437D01*
X0194887Y0118483D01*
X0194923Y0118532D01*
X0194956Y0118583D01*
X0194985Y0118635D01*
X0195012Y0118690D01*
X0195035Y0118745D01*
X0195055Y0118802D01*
X0195071Y0118861D01*
X0195084Y0118920D01*
X0195093Y0118979D01*
X0195098Y0119040D01*
X0195100Y0119100D01*
X0195100Y0126100D02*
X0195098Y0126160D01*
X0195093Y0126221D01*
X0195084Y0126280D01*
X0195071Y0126339D01*
X0195055Y0126398D01*
X0195035Y0126455D01*
X0195012Y0126510D01*
X0194985Y0126565D01*
X0194956Y0126617D01*
X0194923Y0126668D01*
X0194887Y0126717D01*
X0194849Y0126763D01*
X0194807Y0126807D01*
X0194763Y0126849D01*
X0194717Y0126887D01*
X0194668Y0126923D01*
X0194617Y0126956D01*
X0194565Y0126985D01*
X0194510Y0127012D01*
X0194455Y0127035D01*
X0194398Y0127055D01*
X0194339Y0127071D01*
X0194280Y0127084D01*
X0194221Y0127093D01*
X0194160Y0127098D01*
X0194100Y0127100D01*
X0192600Y0127100D01*
X0192100Y0126600D01*
X0173100Y0126600D01*
X0172600Y0127100D01*
X0171100Y0127100D01*
X0171040Y0127098D01*
X0170979Y0127093D01*
X0170920Y0127084D01*
X0170861Y0127071D01*
X0170802Y0127055D01*
X0170745Y0127035D01*
X0170690Y0127012D01*
X0170635Y0126985D01*
X0170583Y0126956D01*
X0170532Y0126923D01*
X0170483Y0126887D01*
X0170437Y0126849D01*
X0170393Y0126807D01*
X0170351Y0126763D01*
X0170313Y0126717D01*
X0170277Y0126668D01*
X0170244Y0126617D01*
X0170215Y0126565D01*
X0170188Y0126510D01*
X0170165Y0126455D01*
X0170145Y0126398D01*
X0170129Y0126339D01*
X0170116Y0126280D01*
X0170107Y0126221D01*
X0170102Y0126160D01*
X0170100Y0126100D01*
X0170100Y0119100D02*
X0170102Y0119040D01*
X0170107Y0118979D01*
X0170116Y0118920D01*
X0170129Y0118861D01*
X0170145Y0118802D01*
X0170165Y0118745D01*
X0170188Y0118690D01*
X0170215Y0118635D01*
X0170244Y0118583D01*
X0170277Y0118532D01*
X0170313Y0118483D01*
X0170351Y0118437D01*
X0170393Y0118393D01*
X0170437Y0118351D01*
X0170483Y0118313D01*
X0170532Y0118277D01*
X0170583Y0118244D01*
X0170635Y0118215D01*
X0170690Y0118188D01*
X0170745Y0118165D01*
X0170802Y0118145D01*
X0170861Y0118129D01*
X0170920Y0118116D01*
X0170979Y0118107D01*
X0171040Y0118102D01*
X0171100Y0118100D01*
X0238100Y0151100D02*
X0238100Y0152600D01*
X0238600Y0153100D01*
X0238600Y0172100D01*
X0238100Y0172600D01*
X0238100Y0174100D01*
X0238102Y0174160D01*
X0238107Y0174221D01*
X0238116Y0174280D01*
X0238129Y0174339D01*
X0238145Y0174398D01*
X0238165Y0174455D01*
X0238188Y0174510D01*
X0238215Y0174565D01*
X0238244Y0174617D01*
X0238277Y0174668D01*
X0238313Y0174717D01*
X0238351Y0174763D01*
X0238393Y0174807D01*
X0238437Y0174849D01*
X0238483Y0174887D01*
X0238532Y0174923D01*
X0238583Y0174956D01*
X0238635Y0174985D01*
X0238690Y0175012D01*
X0238745Y0175035D01*
X0238802Y0175055D01*
X0238861Y0175071D01*
X0238920Y0175084D01*
X0238979Y0175093D01*
X0239040Y0175098D01*
X0239100Y0175100D01*
X0246100Y0175100D02*
X0246160Y0175098D01*
X0246221Y0175093D01*
X0246280Y0175084D01*
X0246339Y0175071D01*
X0246398Y0175055D01*
X0246455Y0175035D01*
X0246510Y0175012D01*
X0246565Y0174985D01*
X0246617Y0174956D01*
X0246668Y0174923D01*
X0246717Y0174887D01*
X0246763Y0174849D01*
X0246807Y0174807D01*
X0246849Y0174763D01*
X0246887Y0174717D01*
X0246923Y0174668D01*
X0246956Y0174617D01*
X0246985Y0174565D01*
X0247012Y0174510D01*
X0247035Y0174455D01*
X0247055Y0174398D01*
X0247071Y0174339D01*
X0247084Y0174280D01*
X0247093Y0174221D01*
X0247098Y0174160D01*
X0247100Y0174100D01*
X0247100Y0172600D01*
X0246600Y0172100D01*
X0246600Y0153100D01*
X0247100Y0152600D01*
X0247100Y0151100D01*
X0247098Y0151040D01*
X0247093Y0150979D01*
X0247084Y0150920D01*
X0247071Y0150861D01*
X0247055Y0150802D01*
X0247035Y0150745D01*
X0247012Y0150690D01*
X0246985Y0150635D01*
X0246956Y0150583D01*
X0246923Y0150532D01*
X0246887Y0150483D01*
X0246849Y0150437D01*
X0246807Y0150393D01*
X0246763Y0150351D01*
X0246717Y0150313D01*
X0246668Y0150277D01*
X0246617Y0150244D01*
X0246565Y0150215D01*
X0246510Y0150188D01*
X0246455Y0150165D01*
X0246398Y0150145D01*
X0246339Y0150129D01*
X0246280Y0150116D01*
X0246221Y0150107D01*
X0246160Y0150102D01*
X0246100Y0150100D01*
X0239100Y0150100D02*
X0239040Y0150102D01*
X0238979Y0150107D01*
X0238920Y0150116D01*
X0238861Y0150129D01*
X0238802Y0150145D01*
X0238745Y0150165D01*
X0238690Y0150188D01*
X0238635Y0150215D01*
X0238583Y0150244D01*
X0238532Y0150277D01*
X0238483Y0150313D01*
X0238437Y0150351D01*
X0238393Y0150393D01*
X0238351Y0150437D01*
X0238313Y0150483D01*
X0238277Y0150532D01*
X0238244Y0150583D01*
X0238215Y0150635D01*
X0238188Y0150690D01*
X0238165Y0150745D01*
X0238145Y0150802D01*
X0238129Y0150861D01*
X0238116Y0150920D01*
X0238107Y0150979D01*
X0238102Y0151040D01*
X0238100Y0151100D01*
X0271600Y0144100D02*
X0271600Y0171100D01*
X0271602Y0171160D01*
X0271607Y0171221D01*
X0271616Y0171280D01*
X0271629Y0171339D01*
X0271645Y0171398D01*
X0271665Y0171455D01*
X0271688Y0171510D01*
X0271715Y0171565D01*
X0271744Y0171617D01*
X0271777Y0171668D01*
X0271813Y0171717D01*
X0271851Y0171763D01*
X0271893Y0171807D01*
X0271937Y0171849D01*
X0271983Y0171887D01*
X0272032Y0171923D01*
X0272083Y0171956D01*
X0272135Y0171985D01*
X0272190Y0172012D01*
X0272245Y0172035D01*
X0272302Y0172055D01*
X0272361Y0172071D01*
X0272420Y0172084D01*
X0272479Y0172093D01*
X0272540Y0172098D01*
X0272600Y0172100D01*
X0282600Y0172100D01*
X0282660Y0172098D01*
X0282721Y0172093D01*
X0282780Y0172084D01*
X0282839Y0172071D01*
X0282898Y0172055D01*
X0282955Y0172035D01*
X0283010Y0172012D01*
X0283065Y0171985D01*
X0283117Y0171956D01*
X0283168Y0171923D01*
X0283217Y0171887D01*
X0283263Y0171849D01*
X0283307Y0171807D01*
X0283349Y0171763D01*
X0283387Y0171717D01*
X0283423Y0171668D01*
X0283456Y0171617D01*
X0283485Y0171565D01*
X0283512Y0171510D01*
X0283535Y0171455D01*
X0283555Y0171398D01*
X0283571Y0171339D01*
X0283584Y0171280D01*
X0283593Y0171221D01*
X0283598Y0171160D01*
X0283600Y0171100D01*
X0283600Y0144100D01*
X0283598Y0144040D01*
X0283593Y0143979D01*
X0283584Y0143920D01*
X0283571Y0143861D01*
X0283555Y0143802D01*
X0283535Y0143745D01*
X0283512Y0143690D01*
X0283485Y0143635D01*
X0283456Y0143583D01*
X0283423Y0143532D01*
X0283387Y0143483D01*
X0283349Y0143437D01*
X0283307Y0143393D01*
X0283263Y0143351D01*
X0283217Y0143313D01*
X0283168Y0143277D01*
X0283117Y0143244D01*
X0283065Y0143215D01*
X0283010Y0143188D01*
X0282955Y0143165D01*
X0282898Y0143145D01*
X0282839Y0143129D01*
X0282780Y0143116D01*
X0282721Y0143107D01*
X0282660Y0143102D01*
X0282600Y0143100D01*
X0272600Y0143100D01*
X0272540Y0143102D01*
X0272479Y0143107D01*
X0272420Y0143116D01*
X0272361Y0143129D01*
X0272302Y0143145D01*
X0272245Y0143165D01*
X0272190Y0143188D01*
X0272135Y0143215D01*
X0272083Y0143244D01*
X0272032Y0143277D01*
X0271983Y0143313D01*
X0271937Y0143351D01*
X0271893Y0143393D01*
X0271851Y0143437D01*
X0271813Y0143483D01*
X0271777Y0143532D01*
X0271744Y0143583D01*
X0271715Y0143635D01*
X0271688Y0143690D01*
X0271665Y0143745D01*
X0271645Y0143802D01*
X0271629Y0143861D01*
X0271616Y0143920D01*
X0271607Y0143979D01*
X0271602Y0144040D01*
X0271600Y0144100D01*
X0277600Y0151600D02*
X0277600Y0156300D01*
X0277600Y0158800D02*
X0277600Y0163600D01*
X0267100Y0171100D02*
X0267100Y0172600D01*
X0266600Y0173100D01*
X0266600Y0192100D01*
X0267100Y0192600D01*
X0267100Y0194100D01*
X0267098Y0194160D01*
X0267093Y0194221D01*
X0267084Y0194280D01*
X0267071Y0194339D01*
X0267055Y0194398D01*
X0267035Y0194455D01*
X0267012Y0194510D01*
X0266985Y0194565D01*
X0266956Y0194617D01*
X0266923Y0194668D01*
X0266887Y0194717D01*
X0266849Y0194763D01*
X0266807Y0194807D01*
X0266763Y0194849D01*
X0266717Y0194887D01*
X0266668Y0194923D01*
X0266617Y0194956D01*
X0266565Y0194985D01*
X0266510Y0195012D01*
X0266455Y0195035D01*
X0266398Y0195055D01*
X0266339Y0195071D01*
X0266280Y0195084D01*
X0266221Y0195093D01*
X0266160Y0195098D01*
X0266100Y0195100D01*
X0259100Y0195100D02*
X0259040Y0195098D01*
X0258979Y0195093D01*
X0258920Y0195084D01*
X0258861Y0195071D01*
X0258802Y0195055D01*
X0258745Y0195035D01*
X0258690Y0195012D01*
X0258635Y0194985D01*
X0258583Y0194956D01*
X0258532Y0194923D01*
X0258483Y0194887D01*
X0258437Y0194849D01*
X0258393Y0194807D01*
X0258351Y0194763D01*
X0258313Y0194717D01*
X0258277Y0194668D01*
X0258244Y0194617D01*
X0258215Y0194565D01*
X0258188Y0194510D01*
X0258165Y0194455D01*
X0258145Y0194398D01*
X0258129Y0194339D01*
X0258116Y0194280D01*
X0258107Y0194221D01*
X0258102Y0194160D01*
X0258100Y0194100D01*
X0258100Y0192600D01*
X0258600Y0192100D01*
X0258600Y0173100D01*
X0258100Y0172600D01*
X0258100Y0171100D01*
X0258102Y0171040D01*
X0258107Y0170979D01*
X0258116Y0170920D01*
X0258129Y0170861D01*
X0258145Y0170802D01*
X0258165Y0170745D01*
X0258188Y0170690D01*
X0258215Y0170635D01*
X0258244Y0170583D01*
X0258277Y0170532D01*
X0258313Y0170483D01*
X0258351Y0170437D01*
X0258393Y0170393D01*
X0258437Y0170351D01*
X0258483Y0170313D01*
X0258532Y0170277D01*
X0258583Y0170244D01*
X0258635Y0170215D01*
X0258690Y0170188D01*
X0258745Y0170165D01*
X0258802Y0170145D01*
X0258861Y0170129D01*
X0258920Y0170116D01*
X0258979Y0170107D01*
X0259040Y0170102D01*
X0259100Y0170100D01*
X0266100Y0170100D02*
X0266160Y0170102D01*
X0266221Y0170107D01*
X0266280Y0170116D01*
X0266339Y0170129D01*
X0266398Y0170145D01*
X0266455Y0170165D01*
X0266510Y0170188D01*
X0266565Y0170215D01*
X0266617Y0170244D01*
X0266668Y0170277D01*
X0266717Y0170313D01*
X0266763Y0170351D01*
X0266807Y0170393D01*
X0266849Y0170437D01*
X0266887Y0170483D01*
X0266923Y0170532D01*
X0266956Y0170583D01*
X0266985Y0170635D01*
X0267012Y0170690D01*
X0267035Y0170745D01*
X0267055Y0170802D01*
X0267071Y0170861D01*
X0267084Y0170920D01*
X0267093Y0170979D01*
X0267098Y0171040D01*
X0267100Y0171100D01*
X0273100Y0181100D02*
X0273100Y0182600D01*
X0273600Y0183100D01*
X0273600Y0202100D01*
X0273100Y0202600D01*
X0273100Y0204100D01*
X0273102Y0204160D01*
X0273107Y0204221D01*
X0273116Y0204280D01*
X0273129Y0204339D01*
X0273145Y0204398D01*
X0273165Y0204455D01*
X0273188Y0204510D01*
X0273215Y0204565D01*
X0273244Y0204617D01*
X0273277Y0204668D01*
X0273313Y0204717D01*
X0273351Y0204763D01*
X0273393Y0204807D01*
X0273437Y0204849D01*
X0273483Y0204887D01*
X0273532Y0204923D01*
X0273583Y0204956D01*
X0273635Y0204985D01*
X0273690Y0205012D01*
X0273745Y0205035D01*
X0273802Y0205055D01*
X0273861Y0205071D01*
X0273920Y0205084D01*
X0273979Y0205093D01*
X0274040Y0205098D01*
X0274100Y0205100D01*
X0281100Y0205100D02*
X0281160Y0205098D01*
X0281221Y0205093D01*
X0281280Y0205084D01*
X0281339Y0205071D01*
X0281398Y0205055D01*
X0281455Y0205035D01*
X0281510Y0205012D01*
X0281565Y0204985D01*
X0281617Y0204956D01*
X0281668Y0204923D01*
X0281717Y0204887D01*
X0281763Y0204849D01*
X0281807Y0204807D01*
X0281849Y0204763D01*
X0281887Y0204717D01*
X0281923Y0204668D01*
X0281956Y0204617D01*
X0281985Y0204565D01*
X0282012Y0204510D01*
X0282035Y0204455D01*
X0282055Y0204398D01*
X0282071Y0204339D01*
X0282084Y0204280D01*
X0282093Y0204221D01*
X0282098Y0204160D01*
X0282100Y0204100D01*
X0282100Y0202600D01*
X0281600Y0202100D01*
X0281600Y0183100D01*
X0282100Y0182600D01*
X0282100Y0181100D01*
X0282098Y0181040D01*
X0282093Y0180979D01*
X0282084Y0180920D01*
X0282071Y0180861D01*
X0282055Y0180802D01*
X0282035Y0180745D01*
X0282012Y0180690D01*
X0281985Y0180635D01*
X0281956Y0180583D01*
X0281923Y0180532D01*
X0281887Y0180483D01*
X0281849Y0180437D01*
X0281807Y0180393D01*
X0281763Y0180351D01*
X0281717Y0180313D01*
X0281668Y0180277D01*
X0281617Y0180244D01*
X0281565Y0180215D01*
X0281510Y0180188D01*
X0281455Y0180165D01*
X0281398Y0180145D01*
X0281339Y0180129D01*
X0281280Y0180116D01*
X0281221Y0180107D01*
X0281160Y0180102D01*
X0281100Y0180100D01*
X0274100Y0180100D02*
X0274040Y0180102D01*
X0273979Y0180107D01*
X0273920Y0180116D01*
X0273861Y0180129D01*
X0273802Y0180145D01*
X0273745Y0180165D01*
X0273690Y0180188D01*
X0273635Y0180215D01*
X0273583Y0180244D01*
X0273532Y0180277D01*
X0273483Y0180313D01*
X0273437Y0180351D01*
X0273393Y0180393D01*
X0273351Y0180437D01*
X0273313Y0180483D01*
X0273277Y0180532D01*
X0273244Y0180583D01*
X0273215Y0180635D01*
X0273188Y0180690D01*
X0273165Y0180745D01*
X0273145Y0180802D01*
X0273129Y0180861D01*
X0273116Y0180920D01*
X0273107Y0180979D01*
X0273102Y0181040D01*
X0273100Y0181100D01*
X0301100Y0197600D02*
X0308600Y0197600D01*
X0308602Y0197474D01*
X0308608Y0197349D01*
X0308618Y0197224D01*
X0308632Y0197099D01*
X0308649Y0196974D01*
X0308671Y0196850D01*
X0308696Y0196727D01*
X0308726Y0196605D01*
X0308759Y0196484D01*
X0308796Y0196364D01*
X0308836Y0196245D01*
X0308881Y0196128D01*
X0308929Y0196011D01*
X0308981Y0195897D01*
X0309036Y0195784D01*
X0309095Y0195673D01*
X0309157Y0195564D01*
X0309223Y0195457D01*
X0309292Y0195352D01*
X0309364Y0195249D01*
X0309439Y0195148D01*
X0309518Y0195050D01*
X0309600Y0194955D01*
X0309684Y0194862D01*
X0309772Y0194772D01*
X0309862Y0194684D01*
X0309955Y0194600D01*
X0310050Y0194518D01*
X0310148Y0194439D01*
X0310249Y0194364D01*
X0310352Y0194292D01*
X0310457Y0194223D01*
X0310564Y0194157D01*
X0310673Y0194095D01*
X0310784Y0194036D01*
X0310897Y0193981D01*
X0311011Y0193929D01*
X0311128Y0193881D01*
X0311245Y0193836D01*
X0311364Y0193796D01*
X0311484Y0193759D01*
X0311605Y0193726D01*
X0311727Y0193696D01*
X0311850Y0193671D01*
X0311974Y0193649D01*
X0312099Y0193632D01*
X0312224Y0193618D01*
X0312349Y0193608D01*
X0312474Y0193602D01*
X0312600Y0193600D01*
X0312726Y0193602D01*
X0312851Y0193608D01*
X0312976Y0193618D01*
X0313101Y0193632D01*
X0313226Y0193649D01*
X0313350Y0193671D01*
X0313473Y0193696D01*
X0313595Y0193726D01*
X0313716Y0193759D01*
X0313836Y0193796D01*
X0313955Y0193836D01*
X0314072Y0193881D01*
X0314189Y0193929D01*
X0314303Y0193981D01*
X0314416Y0194036D01*
X0314527Y0194095D01*
X0314636Y0194157D01*
X0314743Y0194223D01*
X0314848Y0194292D01*
X0314951Y0194364D01*
X0315052Y0194439D01*
X0315150Y0194518D01*
X0315245Y0194600D01*
X0315338Y0194684D01*
X0315428Y0194772D01*
X0315516Y0194862D01*
X0315600Y0194955D01*
X0315682Y0195050D01*
X0315761Y0195148D01*
X0315836Y0195249D01*
X0315908Y0195352D01*
X0315977Y0195457D01*
X0316043Y0195564D01*
X0316105Y0195673D01*
X0316164Y0195784D01*
X0316219Y0195897D01*
X0316271Y0196011D01*
X0316319Y0196128D01*
X0316364Y0196245D01*
X0316404Y0196364D01*
X0316441Y0196484D01*
X0316474Y0196605D01*
X0316504Y0196727D01*
X0316529Y0196850D01*
X0316551Y0196974D01*
X0316568Y0197099D01*
X0316582Y0197224D01*
X0316592Y0197349D01*
X0316598Y0197474D01*
X0316600Y0197600D01*
X0324100Y0197600D01*
X0324100Y0157600D01*
X0301100Y0157600D01*
X0301100Y0197600D01*
X0343100Y0202600D02*
X0343100Y0204100D01*
X0343102Y0204160D01*
X0343107Y0204221D01*
X0343116Y0204280D01*
X0343129Y0204339D01*
X0343145Y0204398D01*
X0343165Y0204455D01*
X0343188Y0204510D01*
X0343215Y0204565D01*
X0343244Y0204617D01*
X0343277Y0204668D01*
X0343313Y0204717D01*
X0343351Y0204763D01*
X0343393Y0204807D01*
X0343437Y0204849D01*
X0343483Y0204887D01*
X0343532Y0204923D01*
X0343583Y0204956D01*
X0343635Y0204985D01*
X0343690Y0205012D01*
X0343745Y0205035D01*
X0343802Y0205055D01*
X0343861Y0205071D01*
X0343920Y0205084D01*
X0343979Y0205093D01*
X0344040Y0205098D01*
X0344100Y0205100D01*
X0343100Y0202600D02*
X0343600Y0202100D01*
X0343600Y0183100D01*
X0343100Y0182600D01*
X0343100Y0181100D01*
X0343102Y0181040D01*
X0343107Y0180979D01*
X0343116Y0180920D01*
X0343129Y0180861D01*
X0343145Y0180802D01*
X0343165Y0180745D01*
X0343188Y0180690D01*
X0343215Y0180635D01*
X0343244Y0180583D01*
X0343277Y0180532D01*
X0343313Y0180483D01*
X0343351Y0180437D01*
X0343393Y0180393D01*
X0343437Y0180351D01*
X0343483Y0180313D01*
X0343532Y0180277D01*
X0343583Y0180244D01*
X0343635Y0180215D01*
X0343690Y0180188D01*
X0343745Y0180165D01*
X0343802Y0180145D01*
X0343861Y0180129D01*
X0343920Y0180116D01*
X0343979Y0180107D01*
X0344040Y0180102D01*
X0344100Y0180100D01*
X0351100Y0180100D02*
X0351160Y0180102D01*
X0351221Y0180107D01*
X0351280Y0180116D01*
X0351339Y0180129D01*
X0351398Y0180145D01*
X0351455Y0180165D01*
X0351510Y0180188D01*
X0351565Y0180215D01*
X0351617Y0180244D01*
X0351668Y0180277D01*
X0351717Y0180313D01*
X0351763Y0180351D01*
X0351807Y0180393D01*
X0351849Y0180437D01*
X0351887Y0180483D01*
X0351923Y0180532D01*
X0351956Y0180583D01*
X0351985Y0180635D01*
X0352012Y0180690D01*
X0352035Y0180745D01*
X0352055Y0180802D01*
X0352071Y0180861D01*
X0352084Y0180920D01*
X0352093Y0180979D01*
X0352098Y0181040D01*
X0352100Y0181100D01*
X0352100Y0182600D01*
X0351600Y0183100D01*
X0351600Y0202100D01*
X0352100Y0202600D01*
X0352100Y0204100D01*
X0352098Y0204160D01*
X0352093Y0204221D01*
X0352084Y0204280D01*
X0352071Y0204339D01*
X0352055Y0204398D01*
X0352035Y0204455D01*
X0352012Y0204510D01*
X0351985Y0204565D01*
X0351956Y0204617D01*
X0351923Y0204668D01*
X0351887Y0204717D01*
X0351849Y0204763D01*
X0351807Y0204807D01*
X0351763Y0204849D01*
X0351717Y0204887D01*
X0351668Y0204923D01*
X0351617Y0204956D01*
X0351565Y0204985D01*
X0351510Y0205012D01*
X0351455Y0205035D01*
X0351398Y0205055D01*
X0351339Y0205071D01*
X0351280Y0205084D01*
X0351221Y0205093D01*
X0351160Y0205098D01*
X0351100Y0205100D01*
X0358100Y0204100D02*
X0358100Y0202600D01*
X0358600Y0202100D01*
X0358600Y0183100D01*
X0358100Y0182600D01*
X0358100Y0181100D01*
X0358102Y0181040D01*
X0358107Y0180979D01*
X0358116Y0180920D01*
X0358129Y0180861D01*
X0358145Y0180802D01*
X0358165Y0180745D01*
X0358188Y0180690D01*
X0358215Y0180635D01*
X0358244Y0180583D01*
X0358277Y0180532D01*
X0358313Y0180483D01*
X0358351Y0180437D01*
X0358393Y0180393D01*
X0358437Y0180351D01*
X0358483Y0180313D01*
X0358532Y0180277D01*
X0358583Y0180244D01*
X0358635Y0180215D01*
X0358690Y0180188D01*
X0358745Y0180165D01*
X0358802Y0180145D01*
X0358861Y0180129D01*
X0358920Y0180116D01*
X0358979Y0180107D01*
X0359040Y0180102D01*
X0359100Y0180100D01*
X0366100Y0180100D02*
X0366160Y0180102D01*
X0366221Y0180107D01*
X0366280Y0180116D01*
X0366339Y0180129D01*
X0366398Y0180145D01*
X0366455Y0180165D01*
X0366510Y0180188D01*
X0366565Y0180215D01*
X0366617Y0180244D01*
X0366668Y0180277D01*
X0366717Y0180313D01*
X0366763Y0180351D01*
X0366807Y0180393D01*
X0366849Y0180437D01*
X0366887Y0180483D01*
X0366923Y0180532D01*
X0366956Y0180583D01*
X0366985Y0180635D01*
X0367012Y0180690D01*
X0367035Y0180745D01*
X0367055Y0180802D01*
X0367071Y0180861D01*
X0367084Y0180920D01*
X0367093Y0180979D01*
X0367098Y0181040D01*
X0367100Y0181100D01*
X0367100Y0182600D01*
X0366600Y0183100D01*
X0366600Y0202100D01*
X0367100Y0202600D01*
X0367100Y0204100D01*
X0367098Y0204160D01*
X0367093Y0204221D01*
X0367084Y0204280D01*
X0367071Y0204339D01*
X0367055Y0204398D01*
X0367035Y0204455D01*
X0367012Y0204510D01*
X0366985Y0204565D01*
X0366956Y0204617D01*
X0366923Y0204668D01*
X0366887Y0204717D01*
X0366849Y0204763D01*
X0366807Y0204807D01*
X0366763Y0204849D01*
X0366717Y0204887D01*
X0366668Y0204923D01*
X0366617Y0204956D01*
X0366565Y0204985D01*
X0366510Y0205012D01*
X0366455Y0205035D01*
X0366398Y0205055D01*
X0366339Y0205071D01*
X0366280Y0205084D01*
X0366221Y0205093D01*
X0366160Y0205098D01*
X0366100Y0205100D01*
X0359100Y0205100D02*
X0359040Y0205098D01*
X0358979Y0205093D01*
X0358920Y0205084D01*
X0358861Y0205071D01*
X0358802Y0205055D01*
X0358745Y0205035D01*
X0358690Y0205012D01*
X0358635Y0204985D01*
X0358583Y0204956D01*
X0358532Y0204923D01*
X0358483Y0204887D01*
X0358437Y0204849D01*
X0358393Y0204807D01*
X0358351Y0204763D01*
X0358313Y0204717D01*
X0358277Y0204668D01*
X0358244Y0204617D01*
X0358215Y0204565D01*
X0358188Y0204510D01*
X0358165Y0204455D01*
X0358145Y0204398D01*
X0358129Y0204339D01*
X0358116Y0204280D01*
X0358107Y0204221D01*
X0358102Y0204160D01*
X0358100Y0204100D01*
X0366100Y0163600D02*
X0339100Y0163600D01*
X0339040Y0163598D01*
X0338979Y0163593D01*
X0338920Y0163584D01*
X0338861Y0163571D01*
X0338802Y0163555D01*
X0338745Y0163535D01*
X0338690Y0163512D01*
X0338635Y0163485D01*
X0338583Y0163456D01*
X0338532Y0163423D01*
X0338483Y0163387D01*
X0338437Y0163349D01*
X0338393Y0163307D01*
X0338351Y0163263D01*
X0338313Y0163217D01*
X0338277Y0163168D01*
X0338244Y0163117D01*
X0338215Y0163065D01*
X0338188Y0163010D01*
X0338165Y0162955D01*
X0338145Y0162898D01*
X0338129Y0162839D01*
X0338116Y0162780D01*
X0338107Y0162721D01*
X0338102Y0162660D01*
X0338100Y0162600D01*
X0338100Y0152600D01*
X0338102Y0152540D01*
X0338107Y0152479D01*
X0338116Y0152420D01*
X0338129Y0152361D01*
X0338145Y0152302D01*
X0338165Y0152245D01*
X0338188Y0152190D01*
X0338215Y0152135D01*
X0338244Y0152083D01*
X0338277Y0152032D01*
X0338313Y0151983D01*
X0338351Y0151937D01*
X0338393Y0151893D01*
X0338437Y0151851D01*
X0338483Y0151813D01*
X0338532Y0151777D01*
X0338583Y0151744D01*
X0338635Y0151715D01*
X0338690Y0151688D01*
X0338745Y0151665D01*
X0338802Y0151645D01*
X0338861Y0151629D01*
X0338920Y0151616D01*
X0338979Y0151607D01*
X0339040Y0151602D01*
X0339100Y0151600D01*
X0366100Y0151600D01*
X0366160Y0151602D01*
X0366221Y0151607D01*
X0366280Y0151616D01*
X0366339Y0151629D01*
X0366398Y0151645D01*
X0366455Y0151665D01*
X0366510Y0151688D01*
X0366565Y0151715D01*
X0366617Y0151744D01*
X0366668Y0151777D01*
X0366717Y0151813D01*
X0366763Y0151851D01*
X0366807Y0151893D01*
X0366849Y0151937D01*
X0366887Y0151983D01*
X0366923Y0152032D01*
X0366956Y0152083D01*
X0366985Y0152135D01*
X0367012Y0152190D01*
X0367035Y0152245D01*
X0367055Y0152302D01*
X0367071Y0152361D01*
X0367084Y0152420D01*
X0367093Y0152479D01*
X0367098Y0152540D01*
X0367100Y0152600D01*
X0367100Y0162600D01*
X0367098Y0162660D01*
X0367093Y0162721D01*
X0367084Y0162780D01*
X0367071Y0162839D01*
X0367055Y0162898D01*
X0367035Y0162955D01*
X0367012Y0163010D01*
X0366985Y0163065D01*
X0366956Y0163117D01*
X0366923Y0163168D01*
X0366887Y0163217D01*
X0366849Y0163263D01*
X0366807Y0163307D01*
X0366763Y0163349D01*
X0366717Y0163387D01*
X0366668Y0163423D01*
X0366617Y0163456D01*
X0366565Y0163485D01*
X0366510Y0163512D01*
X0366455Y0163535D01*
X0366398Y0163555D01*
X0366339Y0163571D01*
X0366280Y0163584D01*
X0366221Y0163593D01*
X0366160Y0163598D01*
X0366100Y0163600D01*
X0358600Y0157600D02*
X0353900Y0157600D01*
X0351400Y0157600D02*
X0346600Y0157600D01*
X0320100Y0128100D02*
X0312600Y0128100D01*
X0312600Y0124600D01*
X0306600Y0124600D01*
X0306600Y0128100D01*
X0257600Y0128100D01*
X0257600Y0087100D01*
X0306600Y0087100D01*
X0306600Y0090600D01*
X0312600Y0090600D01*
X0312600Y0087100D01*
X0320100Y0087100D01*
X0320100Y0128100D01*
X0299500Y0107600D02*
X0299502Y0107774D01*
X0299509Y0107948D01*
X0299519Y0108122D01*
X0299534Y0108296D01*
X0299553Y0108469D01*
X0299577Y0108642D01*
X0299605Y0108814D01*
X0299636Y0108985D01*
X0299673Y0109156D01*
X0299713Y0109325D01*
X0299757Y0109494D01*
X0299806Y0109661D01*
X0299858Y0109827D01*
X0299915Y0109992D01*
X0299976Y0110155D01*
X0300040Y0110317D01*
X0300109Y0110477D01*
X0300182Y0110636D01*
X0300258Y0110792D01*
X0300338Y0110947D01*
X0300422Y0111100D01*
X0300510Y0111250D01*
X0300602Y0111398D01*
X0300697Y0111545D01*
X0300795Y0111688D01*
X0300897Y0111829D01*
X0301003Y0111968D01*
X0301112Y0112104D01*
X0301224Y0112238D01*
X0301339Y0112368D01*
X0301458Y0112496D01*
X0301580Y0112620D01*
X0301704Y0112742D01*
X0301832Y0112861D01*
X0301962Y0112976D01*
X0302096Y0113088D01*
X0302232Y0113197D01*
X0302371Y0113303D01*
X0302512Y0113405D01*
X0302655Y0113503D01*
X0302802Y0113598D01*
X0302950Y0113690D01*
X0303100Y0113778D01*
X0303253Y0113862D01*
X0303408Y0113942D01*
X0303564Y0114018D01*
X0303723Y0114091D01*
X0303883Y0114160D01*
X0304045Y0114224D01*
X0304208Y0114285D01*
X0304373Y0114342D01*
X0304539Y0114394D01*
X0304706Y0114443D01*
X0304875Y0114487D01*
X0305044Y0114527D01*
X0305215Y0114564D01*
X0305386Y0114595D01*
X0305558Y0114623D01*
X0305731Y0114647D01*
X0305904Y0114666D01*
X0306078Y0114681D01*
X0306252Y0114691D01*
X0306426Y0114698D01*
X0306600Y0114700D01*
X0306774Y0114698D01*
X0306948Y0114691D01*
X0307122Y0114681D01*
X0307296Y0114666D01*
X0307469Y0114647D01*
X0307642Y0114623D01*
X0307814Y0114595D01*
X0307985Y0114564D01*
X0308156Y0114527D01*
X0308325Y0114487D01*
X0308494Y0114443D01*
X0308661Y0114394D01*
X0308827Y0114342D01*
X0308992Y0114285D01*
X0309155Y0114224D01*
X0309317Y0114160D01*
X0309477Y0114091D01*
X0309636Y0114018D01*
X0309792Y0113942D01*
X0309947Y0113862D01*
X0310100Y0113778D01*
X0310250Y0113690D01*
X0310398Y0113598D01*
X0310545Y0113503D01*
X0310688Y0113405D01*
X0310829Y0113303D01*
X0310968Y0113197D01*
X0311104Y0113088D01*
X0311238Y0112976D01*
X0311368Y0112861D01*
X0311496Y0112742D01*
X0311620Y0112620D01*
X0311742Y0112496D01*
X0311861Y0112368D01*
X0311976Y0112238D01*
X0312088Y0112104D01*
X0312197Y0111968D01*
X0312303Y0111829D01*
X0312405Y0111688D01*
X0312503Y0111545D01*
X0312598Y0111398D01*
X0312690Y0111250D01*
X0312778Y0111100D01*
X0312862Y0110947D01*
X0312942Y0110792D01*
X0313018Y0110636D01*
X0313091Y0110477D01*
X0313160Y0110317D01*
X0313224Y0110155D01*
X0313285Y0109992D01*
X0313342Y0109827D01*
X0313394Y0109661D01*
X0313443Y0109494D01*
X0313487Y0109325D01*
X0313527Y0109156D01*
X0313564Y0108985D01*
X0313595Y0108814D01*
X0313623Y0108642D01*
X0313647Y0108469D01*
X0313666Y0108296D01*
X0313681Y0108122D01*
X0313691Y0107948D01*
X0313698Y0107774D01*
X0313700Y0107600D01*
X0313698Y0107426D01*
X0313691Y0107252D01*
X0313681Y0107078D01*
X0313666Y0106904D01*
X0313647Y0106731D01*
X0313623Y0106558D01*
X0313595Y0106386D01*
X0313564Y0106215D01*
X0313527Y0106044D01*
X0313487Y0105875D01*
X0313443Y0105706D01*
X0313394Y0105539D01*
X0313342Y0105373D01*
X0313285Y0105208D01*
X0313224Y0105045D01*
X0313160Y0104883D01*
X0313091Y0104723D01*
X0313018Y0104564D01*
X0312942Y0104408D01*
X0312862Y0104253D01*
X0312778Y0104100D01*
X0312690Y0103950D01*
X0312598Y0103802D01*
X0312503Y0103655D01*
X0312405Y0103512D01*
X0312303Y0103371D01*
X0312197Y0103232D01*
X0312088Y0103096D01*
X0311976Y0102962D01*
X0311861Y0102832D01*
X0311742Y0102704D01*
X0311620Y0102580D01*
X0311496Y0102458D01*
X0311368Y0102339D01*
X0311238Y0102224D01*
X0311104Y0102112D01*
X0310968Y0102003D01*
X0310829Y0101897D01*
X0310688Y0101795D01*
X0310545Y0101697D01*
X0310398Y0101602D01*
X0310250Y0101510D01*
X0310100Y0101422D01*
X0309947Y0101338D01*
X0309792Y0101258D01*
X0309636Y0101182D01*
X0309477Y0101109D01*
X0309317Y0101040D01*
X0309155Y0100976D01*
X0308992Y0100915D01*
X0308827Y0100858D01*
X0308661Y0100806D01*
X0308494Y0100757D01*
X0308325Y0100713D01*
X0308156Y0100673D01*
X0307985Y0100636D01*
X0307814Y0100605D01*
X0307642Y0100577D01*
X0307469Y0100553D01*
X0307296Y0100534D01*
X0307122Y0100519D01*
X0306948Y0100509D01*
X0306774Y0100502D01*
X0306600Y0100500D01*
X0306426Y0100502D01*
X0306252Y0100509D01*
X0306078Y0100519D01*
X0305904Y0100534D01*
X0305731Y0100553D01*
X0305558Y0100577D01*
X0305386Y0100605D01*
X0305215Y0100636D01*
X0305044Y0100673D01*
X0304875Y0100713D01*
X0304706Y0100757D01*
X0304539Y0100806D01*
X0304373Y0100858D01*
X0304208Y0100915D01*
X0304045Y0100976D01*
X0303883Y0101040D01*
X0303723Y0101109D01*
X0303564Y0101182D01*
X0303408Y0101258D01*
X0303253Y0101338D01*
X0303100Y0101422D01*
X0302950Y0101510D01*
X0302802Y0101602D01*
X0302655Y0101697D01*
X0302512Y0101795D01*
X0302371Y0101897D01*
X0302232Y0102003D01*
X0302096Y0102112D01*
X0301962Y0102224D01*
X0301832Y0102339D01*
X0301704Y0102458D01*
X0301580Y0102580D01*
X0301458Y0102704D01*
X0301339Y0102832D01*
X0301224Y0102962D01*
X0301112Y0103096D01*
X0301003Y0103232D01*
X0300897Y0103371D01*
X0300795Y0103512D01*
X0300697Y0103655D01*
X0300602Y0103802D01*
X0300510Y0103950D01*
X0300422Y0104100D01*
X0300338Y0104253D01*
X0300258Y0104408D01*
X0300182Y0104564D01*
X0300109Y0104723D01*
X0300040Y0104883D01*
X0299976Y0105045D01*
X0299915Y0105208D01*
X0299858Y0105373D01*
X0299806Y0105539D01*
X0299757Y0105706D01*
X0299713Y0105875D01*
X0299673Y0106044D01*
X0299636Y0106215D01*
X0299605Y0106386D01*
X0299577Y0106558D01*
X0299553Y0106731D01*
X0299534Y0106904D01*
X0299519Y0107078D01*
X0299509Y0107252D01*
X0299502Y0107426D01*
X0299500Y0107600D01*
X0306600Y0083100D02*
X0257600Y0083100D01*
X0257600Y0042100D01*
X0306600Y0042100D01*
X0306600Y0045600D01*
X0312600Y0045600D01*
X0312600Y0042100D01*
X0320100Y0042100D01*
X0320100Y0083100D01*
X0312600Y0083100D01*
X0312600Y0079600D01*
X0306600Y0079600D01*
X0306600Y0083100D01*
X0299500Y0062600D02*
X0299502Y0062774D01*
X0299509Y0062948D01*
X0299519Y0063122D01*
X0299534Y0063296D01*
X0299553Y0063469D01*
X0299577Y0063642D01*
X0299605Y0063814D01*
X0299636Y0063985D01*
X0299673Y0064156D01*
X0299713Y0064325D01*
X0299757Y0064494D01*
X0299806Y0064661D01*
X0299858Y0064827D01*
X0299915Y0064992D01*
X0299976Y0065155D01*
X0300040Y0065317D01*
X0300109Y0065477D01*
X0300182Y0065636D01*
X0300258Y0065792D01*
X0300338Y0065947D01*
X0300422Y0066100D01*
X0300510Y0066250D01*
X0300602Y0066398D01*
X0300697Y0066545D01*
X0300795Y0066688D01*
X0300897Y0066829D01*
X0301003Y0066968D01*
X0301112Y0067104D01*
X0301224Y0067238D01*
X0301339Y0067368D01*
X0301458Y0067496D01*
X0301580Y0067620D01*
X0301704Y0067742D01*
X0301832Y0067861D01*
X0301962Y0067976D01*
X0302096Y0068088D01*
X0302232Y0068197D01*
X0302371Y0068303D01*
X0302512Y0068405D01*
X0302655Y0068503D01*
X0302802Y0068598D01*
X0302950Y0068690D01*
X0303100Y0068778D01*
X0303253Y0068862D01*
X0303408Y0068942D01*
X0303564Y0069018D01*
X0303723Y0069091D01*
X0303883Y0069160D01*
X0304045Y0069224D01*
X0304208Y0069285D01*
X0304373Y0069342D01*
X0304539Y0069394D01*
X0304706Y0069443D01*
X0304875Y0069487D01*
X0305044Y0069527D01*
X0305215Y0069564D01*
X0305386Y0069595D01*
X0305558Y0069623D01*
X0305731Y0069647D01*
X0305904Y0069666D01*
X0306078Y0069681D01*
X0306252Y0069691D01*
X0306426Y0069698D01*
X0306600Y0069700D01*
X0306774Y0069698D01*
X0306948Y0069691D01*
X0307122Y0069681D01*
X0307296Y0069666D01*
X0307469Y0069647D01*
X0307642Y0069623D01*
X0307814Y0069595D01*
X0307985Y0069564D01*
X0308156Y0069527D01*
X0308325Y0069487D01*
X0308494Y0069443D01*
X0308661Y0069394D01*
X0308827Y0069342D01*
X0308992Y0069285D01*
X0309155Y0069224D01*
X0309317Y0069160D01*
X0309477Y0069091D01*
X0309636Y0069018D01*
X0309792Y0068942D01*
X0309947Y0068862D01*
X0310100Y0068778D01*
X0310250Y0068690D01*
X0310398Y0068598D01*
X0310545Y0068503D01*
X0310688Y0068405D01*
X0310829Y0068303D01*
X0310968Y0068197D01*
X0311104Y0068088D01*
X0311238Y0067976D01*
X0311368Y0067861D01*
X0311496Y0067742D01*
X0311620Y0067620D01*
X0311742Y0067496D01*
X0311861Y0067368D01*
X0311976Y0067238D01*
X0312088Y0067104D01*
X0312197Y0066968D01*
X0312303Y0066829D01*
X0312405Y0066688D01*
X0312503Y0066545D01*
X0312598Y0066398D01*
X0312690Y0066250D01*
X0312778Y0066100D01*
X0312862Y0065947D01*
X0312942Y0065792D01*
X0313018Y0065636D01*
X0313091Y0065477D01*
X0313160Y0065317D01*
X0313224Y0065155D01*
X0313285Y0064992D01*
X0313342Y0064827D01*
X0313394Y0064661D01*
X0313443Y0064494D01*
X0313487Y0064325D01*
X0313527Y0064156D01*
X0313564Y0063985D01*
X0313595Y0063814D01*
X0313623Y0063642D01*
X0313647Y0063469D01*
X0313666Y0063296D01*
X0313681Y0063122D01*
X0313691Y0062948D01*
X0313698Y0062774D01*
X0313700Y0062600D01*
X0313698Y0062426D01*
X0313691Y0062252D01*
X0313681Y0062078D01*
X0313666Y0061904D01*
X0313647Y0061731D01*
X0313623Y0061558D01*
X0313595Y0061386D01*
X0313564Y0061215D01*
X0313527Y0061044D01*
X0313487Y0060875D01*
X0313443Y0060706D01*
X0313394Y0060539D01*
X0313342Y0060373D01*
X0313285Y0060208D01*
X0313224Y0060045D01*
X0313160Y0059883D01*
X0313091Y0059723D01*
X0313018Y0059564D01*
X0312942Y0059408D01*
X0312862Y0059253D01*
X0312778Y0059100D01*
X0312690Y0058950D01*
X0312598Y0058802D01*
X0312503Y0058655D01*
X0312405Y0058512D01*
X0312303Y0058371D01*
X0312197Y0058232D01*
X0312088Y0058096D01*
X0311976Y0057962D01*
X0311861Y0057832D01*
X0311742Y0057704D01*
X0311620Y0057580D01*
X0311496Y0057458D01*
X0311368Y0057339D01*
X0311238Y0057224D01*
X0311104Y0057112D01*
X0310968Y0057003D01*
X0310829Y0056897D01*
X0310688Y0056795D01*
X0310545Y0056697D01*
X0310398Y0056602D01*
X0310250Y0056510D01*
X0310100Y0056422D01*
X0309947Y0056338D01*
X0309792Y0056258D01*
X0309636Y0056182D01*
X0309477Y0056109D01*
X0309317Y0056040D01*
X0309155Y0055976D01*
X0308992Y0055915D01*
X0308827Y0055858D01*
X0308661Y0055806D01*
X0308494Y0055757D01*
X0308325Y0055713D01*
X0308156Y0055673D01*
X0307985Y0055636D01*
X0307814Y0055605D01*
X0307642Y0055577D01*
X0307469Y0055553D01*
X0307296Y0055534D01*
X0307122Y0055519D01*
X0306948Y0055509D01*
X0306774Y0055502D01*
X0306600Y0055500D01*
X0306426Y0055502D01*
X0306252Y0055509D01*
X0306078Y0055519D01*
X0305904Y0055534D01*
X0305731Y0055553D01*
X0305558Y0055577D01*
X0305386Y0055605D01*
X0305215Y0055636D01*
X0305044Y0055673D01*
X0304875Y0055713D01*
X0304706Y0055757D01*
X0304539Y0055806D01*
X0304373Y0055858D01*
X0304208Y0055915D01*
X0304045Y0055976D01*
X0303883Y0056040D01*
X0303723Y0056109D01*
X0303564Y0056182D01*
X0303408Y0056258D01*
X0303253Y0056338D01*
X0303100Y0056422D01*
X0302950Y0056510D01*
X0302802Y0056602D01*
X0302655Y0056697D01*
X0302512Y0056795D01*
X0302371Y0056897D01*
X0302232Y0057003D01*
X0302096Y0057112D01*
X0301962Y0057224D01*
X0301832Y0057339D01*
X0301704Y0057458D01*
X0301580Y0057580D01*
X0301458Y0057704D01*
X0301339Y0057832D01*
X0301224Y0057962D01*
X0301112Y0058096D01*
X0301003Y0058232D01*
X0300897Y0058371D01*
X0300795Y0058512D01*
X0300697Y0058655D01*
X0300602Y0058802D01*
X0300510Y0058950D01*
X0300422Y0059100D01*
X0300338Y0059253D01*
X0300258Y0059408D01*
X0300182Y0059564D01*
X0300109Y0059723D01*
X0300040Y0059883D01*
X0299976Y0060045D01*
X0299915Y0060208D01*
X0299858Y0060373D01*
X0299806Y0060539D01*
X0299757Y0060706D01*
X0299713Y0060875D01*
X0299673Y0061044D01*
X0299636Y0061215D01*
X0299605Y0061386D01*
X0299577Y0061558D01*
X0299553Y0061731D01*
X0299534Y0061904D01*
X0299519Y0062078D01*
X0299509Y0062252D01*
X0299502Y0062426D01*
X0299500Y0062600D01*
X0562600Y0105100D02*
X0565100Y0102600D01*
X0570100Y0102600D01*
X0572600Y0105100D01*
X0572600Y0120100D01*
X0570100Y0122600D01*
X0565100Y0122600D01*
X0562600Y0120100D01*
X0562600Y0105100D01*
X0572600Y0105100D02*
X0575100Y0102600D01*
X0580100Y0102600D01*
X0582600Y0105100D01*
X0582600Y0120100D01*
X0580100Y0122600D01*
X0575100Y0122600D01*
X0572600Y0120100D01*
X0582600Y0120100D02*
X0585100Y0122600D01*
X0590100Y0122600D01*
X0592600Y0120100D01*
X0592600Y0105100D01*
X0590100Y0102600D01*
X0585100Y0102600D01*
X0582600Y0105100D01*
X0592600Y0105100D02*
X0595100Y0102600D01*
X0600100Y0102600D01*
X0602600Y0105100D01*
X0602600Y0120100D01*
X0600100Y0122600D01*
X0595100Y0122600D01*
X0592600Y0120100D01*
X0602600Y0120100D02*
X0605100Y0122600D01*
X0610100Y0122600D01*
X0612600Y0120100D01*
X0612600Y0105100D01*
X0610100Y0102600D01*
X0605100Y0102600D01*
X0602600Y0105100D01*
X0612600Y0105100D02*
X0615100Y0102600D01*
X0620100Y0102600D01*
X0622600Y0105100D01*
X0622600Y0120100D01*
X0620100Y0122600D01*
X0615100Y0122600D01*
X0612600Y0120100D01*
X0597600Y0137600D02*
X0597603Y0137845D01*
X0597612Y0138091D01*
X0597627Y0138336D01*
X0597648Y0138580D01*
X0597675Y0138824D01*
X0597708Y0139067D01*
X0597747Y0139310D01*
X0597792Y0139551D01*
X0597843Y0139791D01*
X0597900Y0140030D01*
X0597962Y0140267D01*
X0598031Y0140503D01*
X0598105Y0140737D01*
X0598185Y0140969D01*
X0598270Y0141199D01*
X0598361Y0141427D01*
X0598458Y0141652D01*
X0598560Y0141876D01*
X0598668Y0142096D01*
X0598781Y0142314D01*
X0598899Y0142529D01*
X0599023Y0142741D01*
X0599151Y0142950D01*
X0599285Y0143156D01*
X0599424Y0143358D01*
X0599568Y0143557D01*
X0599717Y0143752D01*
X0599870Y0143944D01*
X0600028Y0144132D01*
X0600190Y0144316D01*
X0600358Y0144495D01*
X0600529Y0144671D01*
X0600705Y0144842D01*
X0600884Y0145010D01*
X0601068Y0145172D01*
X0601256Y0145330D01*
X0601448Y0145483D01*
X0601643Y0145632D01*
X0601842Y0145776D01*
X0602044Y0145915D01*
X0602250Y0146049D01*
X0602459Y0146177D01*
X0602671Y0146301D01*
X0602886Y0146419D01*
X0603104Y0146532D01*
X0603324Y0146640D01*
X0603548Y0146742D01*
X0603773Y0146839D01*
X0604001Y0146930D01*
X0604231Y0147015D01*
X0604463Y0147095D01*
X0604697Y0147169D01*
X0604933Y0147238D01*
X0605170Y0147300D01*
X0605409Y0147357D01*
X0605649Y0147408D01*
X0605890Y0147453D01*
X0606133Y0147492D01*
X0606376Y0147525D01*
X0606620Y0147552D01*
X0606864Y0147573D01*
X0607109Y0147588D01*
X0607355Y0147597D01*
X0607600Y0147600D01*
X0607845Y0147597D01*
X0608091Y0147588D01*
X0608336Y0147573D01*
X0608580Y0147552D01*
X0608824Y0147525D01*
X0609067Y0147492D01*
X0609310Y0147453D01*
X0609551Y0147408D01*
X0609791Y0147357D01*
X0610030Y0147300D01*
X0610267Y0147238D01*
X0610503Y0147169D01*
X0610737Y0147095D01*
X0610969Y0147015D01*
X0611199Y0146930D01*
X0611427Y0146839D01*
X0611652Y0146742D01*
X0611876Y0146640D01*
X0612096Y0146532D01*
X0612314Y0146419D01*
X0612529Y0146301D01*
X0612741Y0146177D01*
X0612950Y0146049D01*
X0613156Y0145915D01*
X0613358Y0145776D01*
X0613557Y0145632D01*
X0613752Y0145483D01*
X0613944Y0145330D01*
X0614132Y0145172D01*
X0614316Y0145010D01*
X0614495Y0144842D01*
X0614671Y0144671D01*
X0614842Y0144495D01*
X0615010Y0144316D01*
X0615172Y0144132D01*
X0615330Y0143944D01*
X0615483Y0143752D01*
X0615632Y0143557D01*
X0615776Y0143358D01*
X0615915Y0143156D01*
X0616049Y0142950D01*
X0616177Y0142741D01*
X0616301Y0142529D01*
X0616419Y0142314D01*
X0616532Y0142096D01*
X0616640Y0141876D01*
X0616742Y0141652D01*
X0616839Y0141427D01*
X0616930Y0141199D01*
X0617015Y0140969D01*
X0617095Y0140737D01*
X0617169Y0140503D01*
X0617238Y0140267D01*
X0617300Y0140030D01*
X0617357Y0139791D01*
X0617408Y0139551D01*
X0617453Y0139310D01*
X0617492Y0139067D01*
X0617525Y0138824D01*
X0617552Y0138580D01*
X0617573Y0138336D01*
X0617588Y0138091D01*
X0617597Y0137845D01*
X0617600Y0137600D01*
X0617597Y0137355D01*
X0617588Y0137109D01*
X0617573Y0136864D01*
X0617552Y0136620D01*
X0617525Y0136376D01*
X0617492Y0136133D01*
X0617453Y0135890D01*
X0617408Y0135649D01*
X0617357Y0135409D01*
X0617300Y0135170D01*
X0617238Y0134933D01*
X0617169Y0134697D01*
X0617095Y0134463D01*
X0617015Y0134231D01*
X0616930Y0134001D01*
X0616839Y0133773D01*
X0616742Y0133548D01*
X0616640Y0133324D01*
X0616532Y0133104D01*
X0616419Y0132886D01*
X0616301Y0132671D01*
X0616177Y0132459D01*
X0616049Y0132250D01*
X0615915Y0132044D01*
X0615776Y0131842D01*
X0615632Y0131643D01*
X0615483Y0131448D01*
X0615330Y0131256D01*
X0615172Y0131068D01*
X0615010Y0130884D01*
X0614842Y0130705D01*
X0614671Y0130529D01*
X0614495Y0130358D01*
X0614316Y0130190D01*
X0614132Y0130028D01*
X0613944Y0129870D01*
X0613752Y0129717D01*
X0613557Y0129568D01*
X0613358Y0129424D01*
X0613156Y0129285D01*
X0612950Y0129151D01*
X0612741Y0129023D01*
X0612529Y0128899D01*
X0612314Y0128781D01*
X0612096Y0128668D01*
X0611876Y0128560D01*
X0611652Y0128458D01*
X0611427Y0128361D01*
X0611199Y0128270D01*
X0610969Y0128185D01*
X0610737Y0128105D01*
X0610503Y0128031D01*
X0610267Y0127962D01*
X0610030Y0127900D01*
X0609791Y0127843D01*
X0609551Y0127792D01*
X0609310Y0127747D01*
X0609067Y0127708D01*
X0608824Y0127675D01*
X0608580Y0127648D01*
X0608336Y0127627D01*
X0608091Y0127612D01*
X0607845Y0127603D01*
X0607600Y0127600D01*
X0607355Y0127603D01*
X0607109Y0127612D01*
X0606864Y0127627D01*
X0606620Y0127648D01*
X0606376Y0127675D01*
X0606133Y0127708D01*
X0605890Y0127747D01*
X0605649Y0127792D01*
X0605409Y0127843D01*
X0605170Y0127900D01*
X0604933Y0127962D01*
X0604697Y0128031D01*
X0604463Y0128105D01*
X0604231Y0128185D01*
X0604001Y0128270D01*
X0603773Y0128361D01*
X0603548Y0128458D01*
X0603324Y0128560D01*
X0603104Y0128668D01*
X0602886Y0128781D01*
X0602671Y0128899D01*
X0602459Y0129023D01*
X0602250Y0129151D01*
X0602044Y0129285D01*
X0601842Y0129424D01*
X0601643Y0129568D01*
X0601448Y0129717D01*
X0601256Y0129870D01*
X0601068Y0130028D01*
X0600884Y0130190D01*
X0600705Y0130358D01*
X0600529Y0130529D01*
X0600358Y0130705D01*
X0600190Y0130884D01*
X0600028Y0131068D01*
X0599870Y0131256D01*
X0599717Y0131448D01*
X0599568Y0131643D01*
X0599424Y0131842D01*
X0599285Y0132044D01*
X0599151Y0132250D01*
X0599023Y0132459D01*
X0598899Y0132671D01*
X0598781Y0132886D01*
X0598668Y0133104D01*
X0598560Y0133324D01*
X0598458Y0133548D01*
X0598361Y0133773D01*
X0598270Y0134001D01*
X0598185Y0134231D01*
X0598105Y0134463D01*
X0598031Y0134697D01*
X0597962Y0134933D01*
X0597900Y0135170D01*
X0597843Y0135409D01*
X0597792Y0135649D01*
X0597747Y0135890D01*
X0597708Y0136133D01*
X0597675Y0136376D01*
X0597648Y0136620D01*
X0597627Y0136864D01*
X0597612Y0137109D01*
X0597603Y0137355D01*
X0597600Y0137600D01*
X0590600Y0141600D02*
X0588600Y0141600D01*
X0589600Y0142600D02*
X0589600Y0140600D01*
X0572600Y0137600D02*
X0572603Y0137845D01*
X0572612Y0138091D01*
X0572627Y0138336D01*
X0572648Y0138580D01*
X0572675Y0138824D01*
X0572708Y0139067D01*
X0572747Y0139310D01*
X0572792Y0139551D01*
X0572843Y0139791D01*
X0572900Y0140030D01*
X0572962Y0140267D01*
X0573031Y0140503D01*
X0573105Y0140737D01*
X0573185Y0140969D01*
X0573270Y0141199D01*
X0573361Y0141427D01*
X0573458Y0141652D01*
X0573560Y0141876D01*
X0573668Y0142096D01*
X0573781Y0142314D01*
X0573899Y0142529D01*
X0574023Y0142741D01*
X0574151Y0142950D01*
X0574285Y0143156D01*
X0574424Y0143358D01*
X0574568Y0143557D01*
X0574717Y0143752D01*
X0574870Y0143944D01*
X0575028Y0144132D01*
X0575190Y0144316D01*
X0575358Y0144495D01*
X0575529Y0144671D01*
X0575705Y0144842D01*
X0575884Y0145010D01*
X0576068Y0145172D01*
X0576256Y0145330D01*
X0576448Y0145483D01*
X0576643Y0145632D01*
X0576842Y0145776D01*
X0577044Y0145915D01*
X0577250Y0146049D01*
X0577459Y0146177D01*
X0577671Y0146301D01*
X0577886Y0146419D01*
X0578104Y0146532D01*
X0578324Y0146640D01*
X0578548Y0146742D01*
X0578773Y0146839D01*
X0579001Y0146930D01*
X0579231Y0147015D01*
X0579463Y0147095D01*
X0579697Y0147169D01*
X0579933Y0147238D01*
X0580170Y0147300D01*
X0580409Y0147357D01*
X0580649Y0147408D01*
X0580890Y0147453D01*
X0581133Y0147492D01*
X0581376Y0147525D01*
X0581620Y0147552D01*
X0581864Y0147573D01*
X0582109Y0147588D01*
X0582355Y0147597D01*
X0582600Y0147600D01*
X0582845Y0147597D01*
X0583091Y0147588D01*
X0583336Y0147573D01*
X0583580Y0147552D01*
X0583824Y0147525D01*
X0584067Y0147492D01*
X0584310Y0147453D01*
X0584551Y0147408D01*
X0584791Y0147357D01*
X0585030Y0147300D01*
X0585267Y0147238D01*
X0585503Y0147169D01*
X0585737Y0147095D01*
X0585969Y0147015D01*
X0586199Y0146930D01*
X0586427Y0146839D01*
X0586652Y0146742D01*
X0586876Y0146640D01*
X0587096Y0146532D01*
X0587314Y0146419D01*
X0587529Y0146301D01*
X0587741Y0146177D01*
X0587950Y0146049D01*
X0588156Y0145915D01*
X0588358Y0145776D01*
X0588557Y0145632D01*
X0588752Y0145483D01*
X0588944Y0145330D01*
X0589132Y0145172D01*
X0589316Y0145010D01*
X0589495Y0144842D01*
X0589671Y0144671D01*
X0589842Y0144495D01*
X0590010Y0144316D01*
X0590172Y0144132D01*
X0590330Y0143944D01*
X0590483Y0143752D01*
X0590632Y0143557D01*
X0590776Y0143358D01*
X0590915Y0143156D01*
X0591049Y0142950D01*
X0591177Y0142741D01*
X0591301Y0142529D01*
X0591419Y0142314D01*
X0591532Y0142096D01*
X0591640Y0141876D01*
X0591742Y0141652D01*
X0591839Y0141427D01*
X0591930Y0141199D01*
X0592015Y0140969D01*
X0592095Y0140737D01*
X0592169Y0140503D01*
X0592238Y0140267D01*
X0592300Y0140030D01*
X0592357Y0139791D01*
X0592408Y0139551D01*
X0592453Y0139310D01*
X0592492Y0139067D01*
X0592525Y0138824D01*
X0592552Y0138580D01*
X0592573Y0138336D01*
X0592588Y0138091D01*
X0592597Y0137845D01*
X0592600Y0137600D01*
X0592597Y0137355D01*
X0592588Y0137109D01*
X0592573Y0136864D01*
X0592552Y0136620D01*
X0592525Y0136376D01*
X0592492Y0136133D01*
X0592453Y0135890D01*
X0592408Y0135649D01*
X0592357Y0135409D01*
X0592300Y0135170D01*
X0592238Y0134933D01*
X0592169Y0134697D01*
X0592095Y0134463D01*
X0592015Y0134231D01*
X0591930Y0134001D01*
X0591839Y0133773D01*
X0591742Y0133548D01*
X0591640Y0133324D01*
X0591532Y0133104D01*
X0591419Y0132886D01*
X0591301Y0132671D01*
X0591177Y0132459D01*
X0591049Y0132250D01*
X0590915Y0132044D01*
X0590776Y0131842D01*
X0590632Y0131643D01*
X0590483Y0131448D01*
X0590330Y0131256D01*
X0590172Y0131068D01*
X0590010Y0130884D01*
X0589842Y0130705D01*
X0589671Y0130529D01*
X0589495Y0130358D01*
X0589316Y0130190D01*
X0589132Y0130028D01*
X0588944Y0129870D01*
X0588752Y0129717D01*
X0588557Y0129568D01*
X0588358Y0129424D01*
X0588156Y0129285D01*
X0587950Y0129151D01*
X0587741Y0129023D01*
X0587529Y0128899D01*
X0587314Y0128781D01*
X0587096Y0128668D01*
X0586876Y0128560D01*
X0586652Y0128458D01*
X0586427Y0128361D01*
X0586199Y0128270D01*
X0585969Y0128185D01*
X0585737Y0128105D01*
X0585503Y0128031D01*
X0585267Y0127962D01*
X0585030Y0127900D01*
X0584791Y0127843D01*
X0584551Y0127792D01*
X0584310Y0127747D01*
X0584067Y0127708D01*
X0583824Y0127675D01*
X0583580Y0127648D01*
X0583336Y0127627D01*
X0583091Y0127612D01*
X0582845Y0127603D01*
X0582600Y0127600D01*
X0582355Y0127603D01*
X0582109Y0127612D01*
X0581864Y0127627D01*
X0581620Y0127648D01*
X0581376Y0127675D01*
X0581133Y0127708D01*
X0580890Y0127747D01*
X0580649Y0127792D01*
X0580409Y0127843D01*
X0580170Y0127900D01*
X0579933Y0127962D01*
X0579697Y0128031D01*
X0579463Y0128105D01*
X0579231Y0128185D01*
X0579001Y0128270D01*
X0578773Y0128361D01*
X0578548Y0128458D01*
X0578324Y0128560D01*
X0578104Y0128668D01*
X0577886Y0128781D01*
X0577671Y0128899D01*
X0577459Y0129023D01*
X0577250Y0129151D01*
X0577044Y0129285D01*
X0576842Y0129424D01*
X0576643Y0129568D01*
X0576448Y0129717D01*
X0576256Y0129870D01*
X0576068Y0130028D01*
X0575884Y0130190D01*
X0575705Y0130358D01*
X0575529Y0130529D01*
X0575358Y0130705D01*
X0575190Y0130884D01*
X0575028Y0131068D01*
X0574870Y0131256D01*
X0574717Y0131448D01*
X0574568Y0131643D01*
X0574424Y0131842D01*
X0574285Y0132044D01*
X0574151Y0132250D01*
X0574023Y0132459D01*
X0573899Y0132671D01*
X0573781Y0132886D01*
X0573668Y0133104D01*
X0573560Y0133324D01*
X0573458Y0133548D01*
X0573361Y0133773D01*
X0573270Y0134001D01*
X0573185Y0134231D01*
X0573105Y0134463D01*
X0573031Y0134697D01*
X0572962Y0134933D01*
X0572900Y0135170D01*
X0572843Y0135409D01*
X0572792Y0135649D01*
X0572747Y0135890D01*
X0572708Y0136133D01*
X0572675Y0136376D01*
X0572648Y0136620D01*
X0572627Y0136864D01*
X0572612Y0137109D01*
X0572603Y0137355D01*
X0572600Y0137600D01*
X0613600Y0141600D02*
X0615600Y0141600D01*
X0614600Y0142600D02*
X0614600Y0140600D01*
X0594100Y0173100D02*
X0592600Y0173100D01*
X0592100Y0173600D01*
X0573100Y0173600D01*
X0572600Y0173100D01*
X0571100Y0173100D01*
X0571040Y0173102D01*
X0570979Y0173107D01*
X0570920Y0173116D01*
X0570861Y0173129D01*
X0570802Y0173145D01*
X0570745Y0173165D01*
X0570690Y0173188D01*
X0570635Y0173215D01*
X0570583Y0173244D01*
X0570532Y0173277D01*
X0570483Y0173313D01*
X0570437Y0173351D01*
X0570393Y0173393D01*
X0570351Y0173437D01*
X0570313Y0173483D01*
X0570277Y0173532D01*
X0570244Y0173583D01*
X0570215Y0173635D01*
X0570188Y0173690D01*
X0570165Y0173745D01*
X0570145Y0173802D01*
X0570129Y0173861D01*
X0570116Y0173920D01*
X0570107Y0173979D01*
X0570102Y0174040D01*
X0570100Y0174100D01*
X0570100Y0181100D02*
X0570102Y0181160D01*
X0570107Y0181221D01*
X0570116Y0181280D01*
X0570129Y0181339D01*
X0570145Y0181398D01*
X0570165Y0181455D01*
X0570188Y0181510D01*
X0570215Y0181565D01*
X0570244Y0181617D01*
X0570277Y0181668D01*
X0570313Y0181717D01*
X0570351Y0181763D01*
X0570393Y0181807D01*
X0570437Y0181849D01*
X0570483Y0181887D01*
X0570532Y0181923D01*
X0570583Y0181956D01*
X0570635Y0181985D01*
X0570690Y0182012D01*
X0570745Y0182035D01*
X0570802Y0182055D01*
X0570861Y0182071D01*
X0570920Y0182084D01*
X0570979Y0182093D01*
X0571040Y0182098D01*
X0571100Y0182100D01*
X0572600Y0182100D01*
X0573100Y0181600D01*
X0592100Y0181600D01*
X0592600Y0182100D01*
X0594100Y0182100D01*
X0594160Y0182098D01*
X0594221Y0182093D01*
X0594280Y0182084D01*
X0594339Y0182071D01*
X0594398Y0182055D01*
X0594455Y0182035D01*
X0594510Y0182012D01*
X0594565Y0181985D01*
X0594617Y0181956D01*
X0594668Y0181923D01*
X0594717Y0181887D01*
X0594763Y0181849D01*
X0594807Y0181807D01*
X0594849Y0181763D01*
X0594887Y0181717D01*
X0594923Y0181668D01*
X0594956Y0181617D01*
X0594985Y0181565D01*
X0595012Y0181510D01*
X0595035Y0181455D01*
X0595055Y0181398D01*
X0595071Y0181339D01*
X0595084Y0181280D01*
X0595093Y0181221D01*
X0595098Y0181160D01*
X0595100Y0181100D01*
X0595100Y0174100D02*
X0595098Y0174040D01*
X0595093Y0173979D01*
X0595084Y0173920D01*
X0595071Y0173861D01*
X0595055Y0173802D01*
X0595035Y0173745D01*
X0595012Y0173690D01*
X0594985Y0173635D01*
X0594956Y0173583D01*
X0594923Y0173532D01*
X0594887Y0173483D01*
X0594849Y0173437D01*
X0594807Y0173393D01*
X0594763Y0173351D01*
X0594717Y0173313D01*
X0594668Y0173277D01*
X0594617Y0173244D01*
X0594565Y0173215D01*
X0594510Y0173188D01*
X0594455Y0173165D01*
X0594398Y0173145D01*
X0594339Y0173129D01*
X0594280Y0173116D01*
X0594221Y0173107D01*
X0594160Y0173102D01*
X0594100Y0173100D01*
X0615163Y0180041D02*
X0615167Y0180372D01*
X0615179Y0180703D01*
X0615200Y0181034D01*
X0615228Y0181364D01*
X0615265Y0181694D01*
X0615309Y0182022D01*
X0615362Y0182349D01*
X0615422Y0182675D01*
X0615491Y0182999D01*
X0615568Y0183321D01*
X0615652Y0183642D01*
X0615744Y0183960D01*
X0615844Y0184276D01*
X0615952Y0184589D01*
X0616068Y0184900D01*
X0616191Y0185207D01*
X0616321Y0185512D01*
X0616459Y0185813D01*
X0616604Y0186111D01*
X0616757Y0186405D01*
X0616917Y0186695D01*
X0617084Y0186981D01*
X0617257Y0187263D01*
X0617438Y0187541D01*
X0617626Y0187814D01*
X0617820Y0188083D01*
X0618020Y0188347D01*
X0618227Y0188605D01*
X0618441Y0188859D01*
X0618660Y0189107D01*
X0618886Y0189350D01*
X0619117Y0189587D01*
X0619354Y0189818D01*
X0619597Y0190044D01*
X0619845Y0190263D01*
X0620099Y0190477D01*
X0620357Y0190684D01*
X0620621Y0190884D01*
X0620890Y0191078D01*
X0621163Y0191266D01*
X0621441Y0191447D01*
X0621723Y0191620D01*
X0622009Y0191787D01*
X0622299Y0191947D01*
X0622593Y0192100D01*
X0622891Y0192245D01*
X0623192Y0192383D01*
X0623497Y0192513D01*
X0623804Y0192636D01*
X0624115Y0192752D01*
X0624428Y0192860D01*
X0624744Y0192960D01*
X0625062Y0193052D01*
X0625383Y0193136D01*
X0625705Y0193213D01*
X0626029Y0193282D01*
X0626355Y0193342D01*
X0626682Y0193395D01*
X0627010Y0193439D01*
X0627340Y0193476D01*
X0627670Y0193504D01*
X0628001Y0193525D01*
X0628332Y0193537D01*
X0628663Y0193541D01*
X0628994Y0193537D01*
X0629325Y0193525D01*
X0629656Y0193504D01*
X0629986Y0193476D01*
X0630316Y0193439D01*
X0630644Y0193395D01*
X0630971Y0193342D01*
X0631297Y0193282D01*
X0631621Y0193213D01*
X0631943Y0193136D01*
X0632264Y0193052D01*
X0632582Y0192960D01*
X0632898Y0192860D01*
X0633211Y0192752D01*
X0633522Y0192636D01*
X0633829Y0192513D01*
X0634134Y0192383D01*
X0634435Y0192245D01*
X0634733Y0192100D01*
X0635027Y0191947D01*
X0635317Y0191787D01*
X0635603Y0191620D01*
X0635885Y0191447D01*
X0636163Y0191266D01*
X0636436Y0191078D01*
X0636705Y0190884D01*
X0636969Y0190684D01*
X0637227Y0190477D01*
X0637481Y0190263D01*
X0637729Y0190044D01*
X0637972Y0189818D01*
X0638209Y0189587D01*
X0638440Y0189350D01*
X0638666Y0189107D01*
X0638885Y0188859D01*
X0639099Y0188605D01*
X0639306Y0188347D01*
X0639506Y0188083D01*
X0639700Y0187814D01*
X0639888Y0187541D01*
X0640069Y0187263D01*
X0640242Y0186981D01*
X0640409Y0186695D01*
X0640569Y0186405D01*
X0640722Y0186111D01*
X0640867Y0185813D01*
X0641005Y0185512D01*
X0641135Y0185207D01*
X0641258Y0184900D01*
X0641374Y0184589D01*
X0641482Y0184276D01*
X0641582Y0183960D01*
X0641674Y0183642D01*
X0641758Y0183321D01*
X0641835Y0182999D01*
X0641904Y0182675D01*
X0641964Y0182349D01*
X0642017Y0182022D01*
X0642061Y0181694D01*
X0642098Y0181364D01*
X0642126Y0181034D01*
X0642147Y0180703D01*
X0642159Y0180372D01*
X0642163Y0180041D01*
X0642159Y0179710D01*
X0642147Y0179379D01*
X0642126Y0179048D01*
X0642098Y0178718D01*
X0642061Y0178388D01*
X0642017Y0178060D01*
X0641964Y0177733D01*
X0641904Y0177407D01*
X0641835Y0177083D01*
X0641758Y0176761D01*
X0641674Y0176440D01*
X0641582Y0176122D01*
X0641482Y0175806D01*
X0641374Y0175493D01*
X0641258Y0175182D01*
X0641135Y0174875D01*
X0641005Y0174570D01*
X0640867Y0174269D01*
X0640722Y0173971D01*
X0640569Y0173677D01*
X0640409Y0173387D01*
X0640242Y0173101D01*
X0640069Y0172819D01*
X0639888Y0172541D01*
X0639700Y0172268D01*
X0639506Y0171999D01*
X0639306Y0171735D01*
X0639099Y0171477D01*
X0638885Y0171223D01*
X0638666Y0170975D01*
X0638440Y0170732D01*
X0638209Y0170495D01*
X0637972Y0170264D01*
X0637729Y0170038D01*
X0637481Y0169819D01*
X0637227Y0169605D01*
X0636969Y0169398D01*
X0636705Y0169198D01*
X0636436Y0169004D01*
X0636163Y0168816D01*
X0635885Y0168635D01*
X0635603Y0168462D01*
X0635317Y0168295D01*
X0635027Y0168135D01*
X0634733Y0167982D01*
X0634435Y0167837D01*
X0634134Y0167699D01*
X0633829Y0167569D01*
X0633522Y0167446D01*
X0633211Y0167330D01*
X0632898Y0167222D01*
X0632582Y0167122D01*
X0632264Y0167030D01*
X0631943Y0166946D01*
X0631621Y0166869D01*
X0631297Y0166800D01*
X0630971Y0166740D01*
X0630644Y0166687D01*
X0630316Y0166643D01*
X0629986Y0166606D01*
X0629656Y0166578D01*
X0629325Y0166557D01*
X0628994Y0166545D01*
X0628663Y0166541D01*
X0628332Y0166545D01*
X0628001Y0166557D01*
X0627670Y0166578D01*
X0627340Y0166606D01*
X0627010Y0166643D01*
X0626682Y0166687D01*
X0626355Y0166740D01*
X0626029Y0166800D01*
X0625705Y0166869D01*
X0625383Y0166946D01*
X0625062Y0167030D01*
X0624744Y0167122D01*
X0624428Y0167222D01*
X0624115Y0167330D01*
X0623804Y0167446D01*
X0623497Y0167569D01*
X0623192Y0167699D01*
X0622891Y0167837D01*
X0622593Y0167982D01*
X0622299Y0168135D01*
X0622009Y0168295D01*
X0621723Y0168462D01*
X0621441Y0168635D01*
X0621163Y0168816D01*
X0620890Y0169004D01*
X0620621Y0169198D01*
X0620357Y0169398D01*
X0620099Y0169605D01*
X0619845Y0169819D01*
X0619597Y0170038D01*
X0619354Y0170264D01*
X0619117Y0170495D01*
X0618886Y0170732D01*
X0618660Y0170975D01*
X0618441Y0171223D01*
X0618227Y0171477D01*
X0618020Y0171735D01*
X0617820Y0171999D01*
X0617626Y0172268D01*
X0617438Y0172541D01*
X0617257Y0172819D01*
X0617084Y0173101D01*
X0616917Y0173387D01*
X0616757Y0173677D01*
X0616604Y0173971D01*
X0616459Y0174269D01*
X0616321Y0174570D01*
X0616191Y0174875D01*
X0616068Y0175182D01*
X0615952Y0175493D01*
X0615844Y0175806D01*
X0615744Y0176122D01*
X0615652Y0176440D01*
X0615568Y0176761D01*
X0615491Y0177083D01*
X0615422Y0177407D01*
X0615362Y0177733D01*
X0615309Y0178060D01*
X0615265Y0178388D01*
X0615228Y0178718D01*
X0615200Y0179048D01*
X0615179Y0179379D01*
X0615167Y0179710D01*
X0615163Y0180041D01*
X0594100Y0193100D02*
X0592600Y0193100D01*
X0592100Y0193600D01*
X0573100Y0193600D01*
X0572600Y0193100D01*
X0571100Y0193100D01*
X0571040Y0193102D01*
X0570979Y0193107D01*
X0570920Y0193116D01*
X0570861Y0193129D01*
X0570802Y0193145D01*
X0570745Y0193165D01*
X0570690Y0193188D01*
X0570635Y0193215D01*
X0570583Y0193244D01*
X0570532Y0193277D01*
X0570483Y0193313D01*
X0570437Y0193351D01*
X0570393Y0193393D01*
X0570351Y0193437D01*
X0570313Y0193483D01*
X0570277Y0193532D01*
X0570244Y0193583D01*
X0570215Y0193635D01*
X0570188Y0193690D01*
X0570165Y0193745D01*
X0570145Y0193802D01*
X0570129Y0193861D01*
X0570116Y0193920D01*
X0570107Y0193979D01*
X0570102Y0194040D01*
X0570100Y0194100D01*
X0570100Y0201100D02*
X0570102Y0201160D01*
X0570107Y0201221D01*
X0570116Y0201280D01*
X0570129Y0201339D01*
X0570145Y0201398D01*
X0570165Y0201455D01*
X0570188Y0201510D01*
X0570215Y0201565D01*
X0570244Y0201617D01*
X0570277Y0201668D01*
X0570313Y0201717D01*
X0570351Y0201763D01*
X0570393Y0201807D01*
X0570437Y0201849D01*
X0570483Y0201887D01*
X0570532Y0201923D01*
X0570583Y0201956D01*
X0570635Y0201985D01*
X0570690Y0202012D01*
X0570745Y0202035D01*
X0570802Y0202055D01*
X0570861Y0202071D01*
X0570920Y0202084D01*
X0570979Y0202093D01*
X0571040Y0202098D01*
X0571100Y0202100D01*
X0572600Y0202100D01*
X0573100Y0201600D01*
X0592100Y0201600D01*
X0592600Y0202100D01*
X0594100Y0202100D01*
X0594160Y0202098D01*
X0594221Y0202093D01*
X0594280Y0202084D01*
X0594339Y0202071D01*
X0594398Y0202055D01*
X0594455Y0202035D01*
X0594510Y0202012D01*
X0594565Y0201985D01*
X0594617Y0201956D01*
X0594668Y0201923D01*
X0594717Y0201887D01*
X0594763Y0201849D01*
X0594807Y0201807D01*
X0594849Y0201763D01*
X0594887Y0201717D01*
X0594923Y0201668D01*
X0594956Y0201617D01*
X0594985Y0201565D01*
X0595012Y0201510D01*
X0595035Y0201455D01*
X0595055Y0201398D01*
X0595071Y0201339D01*
X0595084Y0201280D01*
X0595093Y0201221D01*
X0595098Y0201160D01*
X0595100Y0201100D01*
X0595100Y0194100D02*
X0595098Y0194040D01*
X0595093Y0193979D01*
X0595084Y0193920D01*
X0595071Y0193861D01*
X0595055Y0193802D01*
X0595035Y0193745D01*
X0595012Y0193690D01*
X0594985Y0193635D01*
X0594956Y0193583D01*
X0594923Y0193532D01*
X0594887Y0193483D01*
X0594849Y0193437D01*
X0594807Y0193393D01*
X0594763Y0193351D01*
X0594717Y0193313D01*
X0594668Y0193277D01*
X0594617Y0193244D01*
X0594565Y0193215D01*
X0594510Y0193188D01*
X0594455Y0193165D01*
X0594398Y0193145D01*
X0594339Y0193129D01*
X0594280Y0193116D01*
X0594221Y0193107D01*
X0594160Y0193102D01*
X0594100Y0193100D01*
X0567600Y0087600D02*
X0567603Y0087845D01*
X0567612Y0088091D01*
X0567627Y0088336D01*
X0567648Y0088580D01*
X0567675Y0088824D01*
X0567708Y0089067D01*
X0567747Y0089310D01*
X0567792Y0089551D01*
X0567843Y0089791D01*
X0567900Y0090030D01*
X0567962Y0090267D01*
X0568031Y0090503D01*
X0568105Y0090737D01*
X0568185Y0090969D01*
X0568270Y0091199D01*
X0568361Y0091427D01*
X0568458Y0091652D01*
X0568560Y0091876D01*
X0568668Y0092096D01*
X0568781Y0092314D01*
X0568899Y0092529D01*
X0569023Y0092741D01*
X0569151Y0092950D01*
X0569285Y0093156D01*
X0569424Y0093358D01*
X0569568Y0093557D01*
X0569717Y0093752D01*
X0569870Y0093944D01*
X0570028Y0094132D01*
X0570190Y0094316D01*
X0570358Y0094495D01*
X0570529Y0094671D01*
X0570705Y0094842D01*
X0570884Y0095010D01*
X0571068Y0095172D01*
X0571256Y0095330D01*
X0571448Y0095483D01*
X0571643Y0095632D01*
X0571842Y0095776D01*
X0572044Y0095915D01*
X0572250Y0096049D01*
X0572459Y0096177D01*
X0572671Y0096301D01*
X0572886Y0096419D01*
X0573104Y0096532D01*
X0573324Y0096640D01*
X0573548Y0096742D01*
X0573773Y0096839D01*
X0574001Y0096930D01*
X0574231Y0097015D01*
X0574463Y0097095D01*
X0574697Y0097169D01*
X0574933Y0097238D01*
X0575170Y0097300D01*
X0575409Y0097357D01*
X0575649Y0097408D01*
X0575890Y0097453D01*
X0576133Y0097492D01*
X0576376Y0097525D01*
X0576620Y0097552D01*
X0576864Y0097573D01*
X0577109Y0097588D01*
X0577355Y0097597D01*
X0577600Y0097600D01*
X0577845Y0097597D01*
X0578091Y0097588D01*
X0578336Y0097573D01*
X0578580Y0097552D01*
X0578824Y0097525D01*
X0579067Y0097492D01*
X0579310Y0097453D01*
X0579551Y0097408D01*
X0579791Y0097357D01*
X0580030Y0097300D01*
X0580267Y0097238D01*
X0580503Y0097169D01*
X0580737Y0097095D01*
X0580969Y0097015D01*
X0581199Y0096930D01*
X0581427Y0096839D01*
X0581652Y0096742D01*
X0581876Y0096640D01*
X0582096Y0096532D01*
X0582314Y0096419D01*
X0582529Y0096301D01*
X0582741Y0096177D01*
X0582950Y0096049D01*
X0583156Y0095915D01*
X0583358Y0095776D01*
X0583557Y0095632D01*
X0583752Y0095483D01*
X0583944Y0095330D01*
X0584132Y0095172D01*
X0584316Y0095010D01*
X0584495Y0094842D01*
X0584671Y0094671D01*
X0584842Y0094495D01*
X0585010Y0094316D01*
X0585172Y0094132D01*
X0585330Y0093944D01*
X0585483Y0093752D01*
X0585632Y0093557D01*
X0585776Y0093358D01*
X0585915Y0093156D01*
X0586049Y0092950D01*
X0586177Y0092741D01*
X0586301Y0092529D01*
X0586419Y0092314D01*
X0586532Y0092096D01*
X0586640Y0091876D01*
X0586742Y0091652D01*
X0586839Y0091427D01*
X0586930Y0091199D01*
X0587015Y0090969D01*
X0587095Y0090737D01*
X0587169Y0090503D01*
X0587238Y0090267D01*
X0587300Y0090030D01*
X0587357Y0089791D01*
X0587408Y0089551D01*
X0587453Y0089310D01*
X0587492Y0089067D01*
X0587525Y0088824D01*
X0587552Y0088580D01*
X0587573Y0088336D01*
X0587588Y0088091D01*
X0587597Y0087845D01*
X0587600Y0087600D01*
X0587597Y0087355D01*
X0587588Y0087109D01*
X0587573Y0086864D01*
X0587552Y0086620D01*
X0587525Y0086376D01*
X0587492Y0086133D01*
X0587453Y0085890D01*
X0587408Y0085649D01*
X0587357Y0085409D01*
X0587300Y0085170D01*
X0587238Y0084933D01*
X0587169Y0084697D01*
X0587095Y0084463D01*
X0587015Y0084231D01*
X0586930Y0084001D01*
X0586839Y0083773D01*
X0586742Y0083548D01*
X0586640Y0083324D01*
X0586532Y0083104D01*
X0586419Y0082886D01*
X0586301Y0082671D01*
X0586177Y0082459D01*
X0586049Y0082250D01*
X0585915Y0082044D01*
X0585776Y0081842D01*
X0585632Y0081643D01*
X0585483Y0081448D01*
X0585330Y0081256D01*
X0585172Y0081068D01*
X0585010Y0080884D01*
X0584842Y0080705D01*
X0584671Y0080529D01*
X0584495Y0080358D01*
X0584316Y0080190D01*
X0584132Y0080028D01*
X0583944Y0079870D01*
X0583752Y0079717D01*
X0583557Y0079568D01*
X0583358Y0079424D01*
X0583156Y0079285D01*
X0582950Y0079151D01*
X0582741Y0079023D01*
X0582529Y0078899D01*
X0582314Y0078781D01*
X0582096Y0078668D01*
X0581876Y0078560D01*
X0581652Y0078458D01*
X0581427Y0078361D01*
X0581199Y0078270D01*
X0580969Y0078185D01*
X0580737Y0078105D01*
X0580503Y0078031D01*
X0580267Y0077962D01*
X0580030Y0077900D01*
X0579791Y0077843D01*
X0579551Y0077792D01*
X0579310Y0077747D01*
X0579067Y0077708D01*
X0578824Y0077675D01*
X0578580Y0077648D01*
X0578336Y0077627D01*
X0578091Y0077612D01*
X0577845Y0077603D01*
X0577600Y0077600D01*
X0577355Y0077603D01*
X0577109Y0077612D01*
X0576864Y0077627D01*
X0576620Y0077648D01*
X0576376Y0077675D01*
X0576133Y0077708D01*
X0575890Y0077747D01*
X0575649Y0077792D01*
X0575409Y0077843D01*
X0575170Y0077900D01*
X0574933Y0077962D01*
X0574697Y0078031D01*
X0574463Y0078105D01*
X0574231Y0078185D01*
X0574001Y0078270D01*
X0573773Y0078361D01*
X0573548Y0078458D01*
X0573324Y0078560D01*
X0573104Y0078668D01*
X0572886Y0078781D01*
X0572671Y0078899D01*
X0572459Y0079023D01*
X0572250Y0079151D01*
X0572044Y0079285D01*
X0571842Y0079424D01*
X0571643Y0079568D01*
X0571448Y0079717D01*
X0571256Y0079870D01*
X0571068Y0080028D01*
X0570884Y0080190D01*
X0570705Y0080358D01*
X0570529Y0080529D01*
X0570358Y0080705D01*
X0570190Y0080884D01*
X0570028Y0081068D01*
X0569870Y0081256D01*
X0569717Y0081448D01*
X0569568Y0081643D01*
X0569424Y0081842D01*
X0569285Y0082044D01*
X0569151Y0082250D01*
X0569023Y0082459D01*
X0568899Y0082671D01*
X0568781Y0082886D01*
X0568668Y0083104D01*
X0568560Y0083324D01*
X0568458Y0083548D01*
X0568361Y0083773D01*
X0568270Y0084001D01*
X0568185Y0084231D01*
X0568105Y0084463D01*
X0568031Y0084697D01*
X0567962Y0084933D01*
X0567900Y0085170D01*
X0567843Y0085409D01*
X0567792Y0085649D01*
X0567747Y0085890D01*
X0567708Y0086133D01*
X0567675Y0086376D01*
X0567648Y0086620D01*
X0567627Y0086864D01*
X0567612Y0087109D01*
X0567603Y0087355D01*
X0567600Y0087600D01*
X0570600Y0084600D02*
X0570600Y0082600D01*
X0571600Y0083600D02*
X0569600Y0083600D01*
X0583100Y0069100D02*
X0583100Y0067600D01*
X0583600Y0067100D01*
X0583600Y0048100D01*
X0583100Y0047600D01*
X0583100Y0046100D01*
X0583102Y0046040D01*
X0583107Y0045979D01*
X0583116Y0045920D01*
X0583129Y0045861D01*
X0583145Y0045802D01*
X0583165Y0045745D01*
X0583188Y0045690D01*
X0583215Y0045635D01*
X0583244Y0045583D01*
X0583277Y0045532D01*
X0583313Y0045483D01*
X0583351Y0045437D01*
X0583393Y0045393D01*
X0583437Y0045351D01*
X0583483Y0045313D01*
X0583532Y0045277D01*
X0583583Y0045244D01*
X0583635Y0045215D01*
X0583690Y0045188D01*
X0583745Y0045165D01*
X0583802Y0045145D01*
X0583861Y0045129D01*
X0583920Y0045116D01*
X0583979Y0045107D01*
X0584040Y0045102D01*
X0584100Y0045100D01*
X0591100Y0045100D02*
X0591160Y0045102D01*
X0591221Y0045107D01*
X0591280Y0045116D01*
X0591339Y0045129D01*
X0591398Y0045145D01*
X0591455Y0045165D01*
X0591510Y0045188D01*
X0591565Y0045215D01*
X0591617Y0045244D01*
X0591668Y0045277D01*
X0591717Y0045313D01*
X0591763Y0045351D01*
X0591807Y0045393D01*
X0591849Y0045437D01*
X0591887Y0045483D01*
X0591923Y0045532D01*
X0591956Y0045583D01*
X0591985Y0045635D01*
X0592012Y0045690D01*
X0592035Y0045745D01*
X0592055Y0045802D01*
X0592071Y0045861D01*
X0592084Y0045920D01*
X0592093Y0045979D01*
X0592098Y0046040D01*
X0592100Y0046100D01*
X0592100Y0047600D01*
X0591600Y0048100D01*
X0591600Y0067100D01*
X0592100Y0067600D01*
X0592100Y0069100D01*
X0592098Y0069160D01*
X0592093Y0069221D01*
X0592084Y0069280D01*
X0592071Y0069339D01*
X0592055Y0069398D01*
X0592035Y0069455D01*
X0592012Y0069510D01*
X0591985Y0069565D01*
X0591956Y0069617D01*
X0591923Y0069668D01*
X0591887Y0069717D01*
X0591849Y0069763D01*
X0591807Y0069807D01*
X0591763Y0069849D01*
X0591717Y0069887D01*
X0591668Y0069923D01*
X0591617Y0069956D01*
X0591565Y0069985D01*
X0591510Y0070012D01*
X0591455Y0070035D01*
X0591398Y0070055D01*
X0591339Y0070071D01*
X0591280Y0070084D01*
X0591221Y0070093D01*
X0591160Y0070098D01*
X0591100Y0070100D01*
X0584100Y0070100D02*
X0584040Y0070098D01*
X0583979Y0070093D01*
X0583920Y0070084D01*
X0583861Y0070071D01*
X0583802Y0070055D01*
X0583745Y0070035D01*
X0583690Y0070012D01*
X0583635Y0069985D01*
X0583583Y0069956D01*
X0583532Y0069923D01*
X0583483Y0069887D01*
X0583437Y0069849D01*
X0583393Y0069807D01*
X0583351Y0069763D01*
X0583313Y0069717D01*
X0583277Y0069668D01*
X0583244Y0069617D01*
X0583215Y0069565D01*
X0583188Y0069510D01*
X0583165Y0069455D01*
X0583145Y0069398D01*
X0583129Y0069339D01*
X0583116Y0069280D01*
X0583107Y0069221D01*
X0583102Y0069160D01*
X0583100Y0069100D01*
X0598100Y0069100D02*
X0598100Y0067600D01*
X0598600Y0067100D01*
X0598600Y0048100D01*
X0598100Y0047600D01*
X0598100Y0046100D01*
X0598102Y0046040D01*
X0598107Y0045979D01*
X0598116Y0045920D01*
X0598129Y0045861D01*
X0598145Y0045802D01*
X0598165Y0045745D01*
X0598188Y0045690D01*
X0598215Y0045635D01*
X0598244Y0045583D01*
X0598277Y0045532D01*
X0598313Y0045483D01*
X0598351Y0045437D01*
X0598393Y0045393D01*
X0598437Y0045351D01*
X0598483Y0045313D01*
X0598532Y0045277D01*
X0598583Y0045244D01*
X0598635Y0045215D01*
X0598690Y0045188D01*
X0598745Y0045165D01*
X0598802Y0045145D01*
X0598861Y0045129D01*
X0598920Y0045116D01*
X0598979Y0045107D01*
X0599040Y0045102D01*
X0599100Y0045100D01*
X0606100Y0045100D02*
X0606160Y0045102D01*
X0606221Y0045107D01*
X0606280Y0045116D01*
X0606339Y0045129D01*
X0606398Y0045145D01*
X0606455Y0045165D01*
X0606510Y0045188D01*
X0606565Y0045215D01*
X0606617Y0045244D01*
X0606668Y0045277D01*
X0606717Y0045313D01*
X0606763Y0045351D01*
X0606807Y0045393D01*
X0606849Y0045437D01*
X0606887Y0045483D01*
X0606923Y0045532D01*
X0606956Y0045583D01*
X0606985Y0045635D01*
X0607012Y0045690D01*
X0607035Y0045745D01*
X0607055Y0045802D01*
X0607071Y0045861D01*
X0607084Y0045920D01*
X0607093Y0045979D01*
X0607098Y0046040D01*
X0607100Y0046100D01*
X0607100Y0047600D01*
X0606600Y0048100D01*
X0606600Y0067100D01*
X0607100Y0067600D01*
X0607100Y0069100D01*
X0607098Y0069160D01*
X0607093Y0069221D01*
X0607084Y0069280D01*
X0607071Y0069339D01*
X0607055Y0069398D01*
X0607035Y0069455D01*
X0607012Y0069510D01*
X0606985Y0069565D01*
X0606956Y0069617D01*
X0606923Y0069668D01*
X0606887Y0069717D01*
X0606849Y0069763D01*
X0606807Y0069807D01*
X0606763Y0069849D01*
X0606717Y0069887D01*
X0606668Y0069923D01*
X0606617Y0069956D01*
X0606565Y0069985D01*
X0606510Y0070012D01*
X0606455Y0070035D01*
X0606398Y0070055D01*
X0606339Y0070071D01*
X0606280Y0070084D01*
X0606221Y0070093D01*
X0606160Y0070098D01*
X0606100Y0070100D01*
X0599100Y0070100D02*
X0599040Y0070098D01*
X0598979Y0070093D01*
X0598920Y0070084D01*
X0598861Y0070071D01*
X0598802Y0070055D01*
X0598745Y0070035D01*
X0598690Y0070012D01*
X0598635Y0069985D01*
X0598583Y0069956D01*
X0598532Y0069923D01*
X0598483Y0069887D01*
X0598437Y0069849D01*
X0598393Y0069807D01*
X0598351Y0069763D01*
X0598313Y0069717D01*
X0598277Y0069668D01*
X0598244Y0069617D01*
X0598215Y0069565D01*
X0598188Y0069510D01*
X0598165Y0069455D01*
X0598145Y0069398D01*
X0598129Y0069339D01*
X0598116Y0069280D01*
X0598107Y0069221D01*
X0598102Y0069160D01*
X0598100Y0069100D01*
X0615163Y0061931D02*
X0615167Y0062262D01*
X0615179Y0062593D01*
X0615200Y0062924D01*
X0615228Y0063254D01*
X0615265Y0063584D01*
X0615309Y0063912D01*
X0615362Y0064239D01*
X0615422Y0064565D01*
X0615491Y0064889D01*
X0615568Y0065211D01*
X0615652Y0065532D01*
X0615744Y0065850D01*
X0615844Y0066166D01*
X0615952Y0066479D01*
X0616068Y0066790D01*
X0616191Y0067097D01*
X0616321Y0067402D01*
X0616459Y0067703D01*
X0616604Y0068001D01*
X0616757Y0068295D01*
X0616917Y0068585D01*
X0617084Y0068871D01*
X0617257Y0069153D01*
X0617438Y0069431D01*
X0617626Y0069704D01*
X0617820Y0069973D01*
X0618020Y0070237D01*
X0618227Y0070495D01*
X0618441Y0070749D01*
X0618660Y0070997D01*
X0618886Y0071240D01*
X0619117Y0071477D01*
X0619354Y0071708D01*
X0619597Y0071934D01*
X0619845Y0072153D01*
X0620099Y0072367D01*
X0620357Y0072574D01*
X0620621Y0072774D01*
X0620890Y0072968D01*
X0621163Y0073156D01*
X0621441Y0073337D01*
X0621723Y0073510D01*
X0622009Y0073677D01*
X0622299Y0073837D01*
X0622593Y0073990D01*
X0622891Y0074135D01*
X0623192Y0074273D01*
X0623497Y0074403D01*
X0623804Y0074526D01*
X0624115Y0074642D01*
X0624428Y0074750D01*
X0624744Y0074850D01*
X0625062Y0074942D01*
X0625383Y0075026D01*
X0625705Y0075103D01*
X0626029Y0075172D01*
X0626355Y0075232D01*
X0626682Y0075285D01*
X0627010Y0075329D01*
X0627340Y0075366D01*
X0627670Y0075394D01*
X0628001Y0075415D01*
X0628332Y0075427D01*
X0628663Y0075431D01*
X0628994Y0075427D01*
X0629325Y0075415D01*
X0629656Y0075394D01*
X0629986Y0075366D01*
X0630316Y0075329D01*
X0630644Y0075285D01*
X0630971Y0075232D01*
X0631297Y0075172D01*
X0631621Y0075103D01*
X0631943Y0075026D01*
X0632264Y0074942D01*
X0632582Y0074850D01*
X0632898Y0074750D01*
X0633211Y0074642D01*
X0633522Y0074526D01*
X0633829Y0074403D01*
X0634134Y0074273D01*
X0634435Y0074135D01*
X0634733Y0073990D01*
X0635027Y0073837D01*
X0635317Y0073677D01*
X0635603Y0073510D01*
X0635885Y0073337D01*
X0636163Y0073156D01*
X0636436Y0072968D01*
X0636705Y0072774D01*
X0636969Y0072574D01*
X0637227Y0072367D01*
X0637481Y0072153D01*
X0637729Y0071934D01*
X0637972Y0071708D01*
X0638209Y0071477D01*
X0638440Y0071240D01*
X0638666Y0070997D01*
X0638885Y0070749D01*
X0639099Y0070495D01*
X0639306Y0070237D01*
X0639506Y0069973D01*
X0639700Y0069704D01*
X0639888Y0069431D01*
X0640069Y0069153D01*
X0640242Y0068871D01*
X0640409Y0068585D01*
X0640569Y0068295D01*
X0640722Y0068001D01*
X0640867Y0067703D01*
X0641005Y0067402D01*
X0641135Y0067097D01*
X0641258Y0066790D01*
X0641374Y0066479D01*
X0641482Y0066166D01*
X0641582Y0065850D01*
X0641674Y0065532D01*
X0641758Y0065211D01*
X0641835Y0064889D01*
X0641904Y0064565D01*
X0641964Y0064239D01*
X0642017Y0063912D01*
X0642061Y0063584D01*
X0642098Y0063254D01*
X0642126Y0062924D01*
X0642147Y0062593D01*
X0642159Y0062262D01*
X0642163Y0061931D01*
X0642159Y0061600D01*
X0642147Y0061269D01*
X0642126Y0060938D01*
X0642098Y0060608D01*
X0642061Y0060278D01*
X0642017Y0059950D01*
X0641964Y0059623D01*
X0641904Y0059297D01*
X0641835Y0058973D01*
X0641758Y0058651D01*
X0641674Y0058330D01*
X0641582Y0058012D01*
X0641482Y0057696D01*
X0641374Y0057383D01*
X0641258Y0057072D01*
X0641135Y0056765D01*
X0641005Y0056460D01*
X0640867Y0056159D01*
X0640722Y0055861D01*
X0640569Y0055567D01*
X0640409Y0055277D01*
X0640242Y0054991D01*
X0640069Y0054709D01*
X0639888Y0054431D01*
X0639700Y0054158D01*
X0639506Y0053889D01*
X0639306Y0053625D01*
X0639099Y0053367D01*
X0638885Y0053113D01*
X0638666Y0052865D01*
X0638440Y0052622D01*
X0638209Y0052385D01*
X0637972Y0052154D01*
X0637729Y0051928D01*
X0637481Y0051709D01*
X0637227Y0051495D01*
X0636969Y0051288D01*
X0636705Y0051088D01*
X0636436Y0050894D01*
X0636163Y0050706D01*
X0635885Y0050525D01*
X0635603Y0050352D01*
X0635317Y0050185D01*
X0635027Y0050025D01*
X0634733Y0049872D01*
X0634435Y0049727D01*
X0634134Y0049589D01*
X0633829Y0049459D01*
X0633522Y0049336D01*
X0633211Y0049220D01*
X0632898Y0049112D01*
X0632582Y0049012D01*
X0632264Y0048920D01*
X0631943Y0048836D01*
X0631621Y0048759D01*
X0631297Y0048690D01*
X0630971Y0048630D01*
X0630644Y0048577D01*
X0630316Y0048533D01*
X0629986Y0048496D01*
X0629656Y0048468D01*
X0629325Y0048447D01*
X0628994Y0048435D01*
X0628663Y0048431D01*
X0628332Y0048435D01*
X0628001Y0048447D01*
X0627670Y0048468D01*
X0627340Y0048496D01*
X0627010Y0048533D01*
X0626682Y0048577D01*
X0626355Y0048630D01*
X0626029Y0048690D01*
X0625705Y0048759D01*
X0625383Y0048836D01*
X0625062Y0048920D01*
X0624744Y0049012D01*
X0624428Y0049112D01*
X0624115Y0049220D01*
X0623804Y0049336D01*
X0623497Y0049459D01*
X0623192Y0049589D01*
X0622891Y0049727D01*
X0622593Y0049872D01*
X0622299Y0050025D01*
X0622009Y0050185D01*
X0621723Y0050352D01*
X0621441Y0050525D01*
X0621163Y0050706D01*
X0620890Y0050894D01*
X0620621Y0051088D01*
X0620357Y0051288D01*
X0620099Y0051495D01*
X0619845Y0051709D01*
X0619597Y0051928D01*
X0619354Y0052154D01*
X0619117Y0052385D01*
X0618886Y0052622D01*
X0618660Y0052865D01*
X0618441Y0053113D01*
X0618227Y0053367D01*
X0618020Y0053625D01*
X0617820Y0053889D01*
X0617626Y0054158D01*
X0617438Y0054431D01*
X0617257Y0054709D01*
X0617084Y0054991D01*
X0616917Y0055277D01*
X0616757Y0055567D01*
X0616604Y0055861D01*
X0616459Y0056159D01*
X0616321Y0056460D01*
X0616191Y0056765D01*
X0616068Y0057072D01*
X0615952Y0057383D01*
X0615844Y0057696D01*
X0615744Y0058012D01*
X0615652Y0058330D01*
X0615568Y0058651D01*
X0615491Y0058973D01*
X0615422Y0059297D01*
X0615362Y0059623D01*
X0615309Y0059950D01*
X0615265Y0060278D01*
X0615228Y0060608D01*
X0615200Y0060938D01*
X0615179Y0061269D01*
X0615167Y0061600D01*
X0615163Y0061931D01*
X0610600Y0082600D02*
X0610600Y0084600D01*
X0611600Y0083600D02*
X0609600Y0083600D01*
X0607600Y0087600D02*
X0607603Y0087845D01*
X0607612Y0088091D01*
X0607627Y0088336D01*
X0607648Y0088580D01*
X0607675Y0088824D01*
X0607708Y0089067D01*
X0607747Y0089310D01*
X0607792Y0089551D01*
X0607843Y0089791D01*
X0607900Y0090030D01*
X0607962Y0090267D01*
X0608031Y0090503D01*
X0608105Y0090737D01*
X0608185Y0090969D01*
X0608270Y0091199D01*
X0608361Y0091427D01*
X0608458Y0091652D01*
X0608560Y0091876D01*
X0608668Y0092096D01*
X0608781Y0092314D01*
X0608899Y0092529D01*
X0609023Y0092741D01*
X0609151Y0092950D01*
X0609285Y0093156D01*
X0609424Y0093358D01*
X0609568Y0093557D01*
X0609717Y0093752D01*
X0609870Y0093944D01*
X0610028Y0094132D01*
X0610190Y0094316D01*
X0610358Y0094495D01*
X0610529Y0094671D01*
X0610705Y0094842D01*
X0610884Y0095010D01*
X0611068Y0095172D01*
X0611256Y0095330D01*
X0611448Y0095483D01*
X0611643Y0095632D01*
X0611842Y0095776D01*
X0612044Y0095915D01*
X0612250Y0096049D01*
X0612459Y0096177D01*
X0612671Y0096301D01*
X0612886Y0096419D01*
X0613104Y0096532D01*
X0613324Y0096640D01*
X0613548Y0096742D01*
X0613773Y0096839D01*
X0614001Y0096930D01*
X0614231Y0097015D01*
X0614463Y0097095D01*
X0614697Y0097169D01*
X0614933Y0097238D01*
X0615170Y0097300D01*
X0615409Y0097357D01*
X0615649Y0097408D01*
X0615890Y0097453D01*
X0616133Y0097492D01*
X0616376Y0097525D01*
X0616620Y0097552D01*
X0616864Y0097573D01*
X0617109Y0097588D01*
X0617355Y0097597D01*
X0617600Y0097600D01*
X0617845Y0097597D01*
X0618091Y0097588D01*
X0618336Y0097573D01*
X0618580Y0097552D01*
X0618824Y0097525D01*
X0619067Y0097492D01*
X0619310Y0097453D01*
X0619551Y0097408D01*
X0619791Y0097357D01*
X0620030Y0097300D01*
X0620267Y0097238D01*
X0620503Y0097169D01*
X0620737Y0097095D01*
X0620969Y0097015D01*
X0621199Y0096930D01*
X0621427Y0096839D01*
X0621652Y0096742D01*
X0621876Y0096640D01*
X0622096Y0096532D01*
X0622314Y0096419D01*
X0622529Y0096301D01*
X0622741Y0096177D01*
X0622950Y0096049D01*
X0623156Y0095915D01*
X0623358Y0095776D01*
X0623557Y0095632D01*
X0623752Y0095483D01*
X0623944Y0095330D01*
X0624132Y0095172D01*
X0624316Y0095010D01*
X0624495Y0094842D01*
X0624671Y0094671D01*
X0624842Y0094495D01*
X0625010Y0094316D01*
X0625172Y0094132D01*
X0625330Y0093944D01*
X0625483Y0093752D01*
X0625632Y0093557D01*
X0625776Y0093358D01*
X0625915Y0093156D01*
X0626049Y0092950D01*
X0626177Y0092741D01*
X0626301Y0092529D01*
X0626419Y0092314D01*
X0626532Y0092096D01*
X0626640Y0091876D01*
X0626742Y0091652D01*
X0626839Y0091427D01*
X0626930Y0091199D01*
X0627015Y0090969D01*
X0627095Y0090737D01*
X0627169Y0090503D01*
X0627238Y0090267D01*
X0627300Y0090030D01*
X0627357Y0089791D01*
X0627408Y0089551D01*
X0627453Y0089310D01*
X0627492Y0089067D01*
X0627525Y0088824D01*
X0627552Y0088580D01*
X0627573Y0088336D01*
X0627588Y0088091D01*
X0627597Y0087845D01*
X0627600Y0087600D01*
X0627597Y0087355D01*
X0627588Y0087109D01*
X0627573Y0086864D01*
X0627552Y0086620D01*
X0627525Y0086376D01*
X0627492Y0086133D01*
X0627453Y0085890D01*
X0627408Y0085649D01*
X0627357Y0085409D01*
X0627300Y0085170D01*
X0627238Y0084933D01*
X0627169Y0084697D01*
X0627095Y0084463D01*
X0627015Y0084231D01*
X0626930Y0084001D01*
X0626839Y0083773D01*
X0626742Y0083548D01*
X0626640Y0083324D01*
X0626532Y0083104D01*
X0626419Y0082886D01*
X0626301Y0082671D01*
X0626177Y0082459D01*
X0626049Y0082250D01*
X0625915Y0082044D01*
X0625776Y0081842D01*
X0625632Y0081643D01*
X0625483Y0081448D01*
X0625330Y0081256D01*
X0625172Y0081068D01*
X0625010Y0080884D01*
X0624842Y0080705D01*
X0624671Y0080529D01*
X0624495Y0080358D01*
X0624316Y0080190D01*
X0624132Y0080028D01*
X0623944Y0079870D01*
X0623752Y0079717D01*
X0623557Y0079568D01*
X0623358Y0079424D01*
X0623156Y0079285D01*
X0622950Y0079151D01*
X0622741Y0079023D01*
X0622529Y0078899D01*
X0622314Y0078781D01*
X0622096Y0078668D01*
X0621876Y0078560D01*
X0621652Y0078458D01*
X0621427Y0078361D01*
X0621199Y0078270D01*
X0620969Y0078185D01*
X0620737Y0078105D01*
X0620503Y0078031D01*
X0620267Y0077962D01*
X0620030Y0077900D01*
X0619791Y0077843D01*
X0619551Y0077792D01*
X0619310Y0077747D01*
X0619067Y0077708D01*
X0618824Y0077675D01*
X0618580Y0077648D01*
X0618336Y0077627D01*
X0618091Y0077612D01*
X0617845Y0077603D01*
X0617600Y0077600D01*
X0617355Y0077603D01*
X0617109Y0077612D01*
X0616864Y0077627D01*
X0616620Y0077648D01*
X0616376Y0077675D01*
X0616133Y0077708D01*
X0615890Y0077747D01*
X0615649Y0077792D01*
X0615409Y0077843D01*
X0615170Y0077900D01*
X0614933Y0077962D01*
X0614697Y0078031D01*
X0614463Y0078105D01*
X0614231Y0078185D01*
X0614001Y0078270D01*
X0613773Y0078361D01*
X0613548Y0078458D01*
X0613324Y0078560D01*
X0613104Y0078668D01*
X0612886Y0078781D01*
X0612671Y0078899D01*
X0612459Y0079023D01*
X0612250Y0079151D01*
X0612044Y0079285D01*
X0611842Y0079424D01*
X0611643Y0079568D01*
X0611448Y0079717D01*
X0611256Y0079870D01*
X0611068Y0080028D01*
X0610884Y0080190D01*
X0610705Y0080358D01*
X0610529Y0080529D01*
X0610358Y0080705D01*
X0610190Y0080884D01*
X0610028Y0081068D01*
X0609870Y0081256D01*
X0609717Y0081448D01*
X0609568Y0081643D01*
X0609424Y0081842D01*
X0609285Y0082044D01*
X0609151Y0082250D01*
X0609023Y0082459D01*
X0608899Y0082671D01*
X0608781Y0082886D01*
X0608668Y0083104D01*
X0608560Y0083324D01*
X0608458Y0083548D01*
X0608361Y0083773D01*
X0608270Y0084001D01*
X0608185Y0084231D01*
X0608105Y0084463D01*
X0608031Y0084697D01*
X0607962Y0084933D01*
X0607900Y0085170D01*
X0607843Y0085409D01*
X0607792Y0085649D01*
X0607747Y0085890D01*
X0607708Y0086133D01*
X0607675Y0086376D01*
X0607648Y0086620D01*
X0607627Y0086864D01*
X0607612Y0087109D01*
X0607603Y0087355D01*
X0607600Y0087600D01*
X0250600Y0201600D02*
X0248600Y0201600D01*
X0249600Y0202600D02*
X0249600Y0200600D01*
X0232600Y0197600D02*
X0232603Y0197845D01*
X0232612Y0198091D01*
X0232627Y0198336D01*
X0232648Y0198580D01*
X0232675Y0198824D01*
X0232708Y0199067D01*
X0232747Y0199310D01*
X0232792Y0199551D01*
X0232843Y0199791D01*
X0232900Y0200030D01*
X0232962Y0200267D01*
X0233031Y0200503D01*
X0233105Y0200737D01*
X0233185Y0200969D01*
X0233270Y0201199D01*
X0233361Y0201427D01*
X0233458Y0201652D01*
X0233560Y0201876D01*
X0233668Y0202096D01*
X0233781Y0202314D01*
X0233899Y0202529D01*
X0234023Y0202741D01*
X0234151Y0202950D01*
X0234285Y0203156D01*
X0234424Y0203358D01*
X0234568Y0203557D01*
X0234717Y0203752D01*
X0234870Y0203944D01*
X0235028Y0204132D01*
X0235190Y0204316D01*
X0235358Y0204495D01*
X0235529Y0204671D01*
X0235705Y0204842D01*
X0235884Y0205010D01*
X0236068Y0205172D01*
X0236256Y0205330D01*
X0236448Y0205483D01*
X0236643Y0205632D01*
X0236842Y0205776D01*
X0237044Y0205915D01*
X0237250Y0206049D01*
X0237459Y0206177D01*
X0237671Y0206301D01*
X0237886Y0206419D01*
X0238104Y0206532D01*
X0238324Y0206640D01*
X0238548Y0206742D01*
X0238773Y0206839D01*
X0239001Y0206930D01*
X0239231Y0207015D01*
X0239463Y0207095D01*
X0239697Y0207169D01*
X0239933Y0207238D01*
X0240170Y0207300D01*
X0240409Y0207357D01*
X0240649Y0207408D01*
X0240890Y0207453D01*
X0241133Y0207492D01*
X0241376Y0207525D01*
X0241620Y0207552D01*
X0241864Y0207573D01*
X0242109Y0207588D01*
X0242355Y0207597D01*
X0242600Y0207600D01*
X0242845Y0207597D01*
X0243091Y0207588D01*
X0243336Y0207573D01*
X0243580Y0207552D01*
X0243824Y0207525D01*
X0244067Y0207492D01*
X0244310Y0207453D01*
X0244551Y0207408D01*
X0244791Y0207357D01*
X0245030Y0207300D01*
X0245267Y0207238D01*
X0245503Y0207169D01*
X0245737Y0207095D01*
X0245969Y0207015D01*
X0246199Y0206930D01*
X0246427Y0206839D01*
X0246652Y0206742D01*
X0246876Y0206640D01*
X0247096Y0206532D01*
X0247314Y0206419D01*
X0247529Y0206301D01*
X0247741Y0206177D01*
X0247950Y0206049D01*
X0248156Y0205915D01*
X0248358Y0205776D01*
X0248557Y0205632D01*
X0248752Y0205483D01*
X0248944Y0205330D01*
X0249132Y0205172D01*
X0249316Y0205010D01*
X0249495Y0204842D01*
X0249671Y0204671D01*
X0249842Y0204495D01*
X0250010Y0204316D01*
X0250172Y0204132D01*
X0250330Y0203944D01*
X0250483Y0203752D01*
X0250632Y0203557D01*
X0250776Y0203358D01*
X0250915Y0203156D01*
X0251049Y0202950D01*
X0251177Y0202741D01*
X0251301Y0202529D01*
X0251419Y0202314D01*
X0251532Y0202096D01*
X0251640Y0201876D01*
X0251742Y0201652D01*
X0251839Y0201427D01*
X0251930Y0201199D01*
X0252015Y0200969D01*
X0252095Y0200737D01*
X0252169Y0200503D01*
X0252238Y0200267D01*
X0252300Y0200030D01*
X0252357Y0199791D01*
X0252408Y0199551D01*
X0252453Y0199310D01*
X0252492Y0199067D01*
X0252525Y0198824D01*
X0252552Y0198580D01*
X0252573Y0198336D01*
X0252588Y0198091D01*
X0252597Y0197845D01*
X0252600Y0197600D01*
X0252597Y0197355D01*
X0252588Y0197109D01*
X0252573Y0196864D01*
X0252552Y0196620D01*
X0252525Y0196376D01*
X0252492Y0196133D01*
X0252453Y0195890D01*
X0252408Y0195649D01*
X0252357Y0195409D01*
X0252300Y0195170D01*
X0252238Y0194933D01*
X0252169Y0194697D01*
X0252095Y0194463D01*
X0252015Y0194231D01*
X0251930Y0194001D01*
X0251839Y0193773D01*
X0251742Y0193548D01*
X0251640Y0193324D01*
X0251532Y0193104D01*
X0251419Y0192886D01*
X0251301Y0192671D01*
X0251177Y0192459D01*
X0251049Y0192250D01*
X0250915Y0192044D01*
X0250776Y0191842D01*
X0250632Y0191643D01*
X0250483Y0191448D01*
X0250330Y0191256D01*
X0250172Y0191068D01*
X0250010Y0190884D01*
X0249842Y0190705D01*
X0249671Y0190529D01*
X0249495Y0190358D01*
X0249316Y0190190D01*
X0249132Y0190028D01*
X0248944Y0189870D01*
X0248752Y0189717D01*
X0248557Y0189568D01*
X0248358Y0189424D01*
X0248156Y0189285D01*
X0247950Y0189151D01*
X0247741Y0189023D01*
X0247529Y0188899D01*
X0247314Y0188781D01*
X0247096Y0188668D01*
X0246876Y0188560D01*
X0246652Y0188458D01*
X0246427Y0188361D01*
X0246199Y0188270D01*
X0245969Y0188185D01*
X0245737Y0188105D01*
X0245503Y0188031D01*
X0245267Y0187962D01*
X0245030Y0187900D01*
X0244791Y0187843D01*
X0244551Y0187792D01*
X0244310Y0187747D01*
X0244067Y0187708D01*
X0243824Y0187675D01*
X0243580Y0187648D01*
X0243336Y0187627D01*
X0243091Y0187612D01*
X0242845Y0187603D01*
X0242600Y0187600D01*
X0242355Y0187603D01*
X0242109Y0187612D01*
X0241864Y0187627D01*
X0241620Y0187648D01*
X0241376Y0187675D01*
X0241133Y0187708D01*
X0240890Y0187747D01*
X0240649Y0187792D01*
X0240409Y0187843D01*
X0240170Y0187900D01*
X0239933Y0187962D01*
X0239697Y0188031D01*
X0239463Y0188105D01*
X0239231Y0188185D01*
X0239001Y0188270D01*
X0238773Y0188361D01*
X0238548Y0188458D01*
X0238324Y0188560D01*
X0238104Y0188668D01*
X0237886Y0188781D01*
X0237671Y0188899D01*
X0237459Y0189023D01*
X0237250Y0189151D01*
X0237044Y0189285D01*
X0236842Y0189424D01*
X0236643Y0189568D01*
X0236448Y0189717D01*
X0236256Y0189870D01*
X0236068Y0190028D01*
X0235884Y0190190D01*
X0235705Y0190358D01*
X0235529Y0190529D01*
X0235358Y0190705D01*
X0235190Y0190884D01*
X0235028Y0191068D01*
X0234870Y0191256D01*
X0234717Y0191448D01*
X0234568Y0191643D01*
X0234424Y0191842D01*
X0234285Y0192044D01*
X0234151Y0192250D01*
X0234023Y0192459D01*
X0233899Y0192671D01*
X0233781Y0192886D01*
X0233668Y0193104D01*
X0233560Y0193324D01*
X0233458Y0193548D01*
X0233361Y0193773D01*
X0233270Y0194001D01*
X0233185Y0194231D01*
X0233105Y0194463D01*
X0233031Y0194697D01*
X0232962Y0194933D01*
X0232900Y0195170D01*
X0232843Y0195409D01*
X0232792Y0195649D01*
X0232747Y0195890D01*
X0232708Y0196133D01*
X0232675Y0196376D01*
X0232648Y0196620D01*
X0232627Y0196864D01*
X0232612Y0197109D01*
X0232603Y0197355D01*
X0232600Y0197600D01*
D16*
X0118100Y0107600D03*
X0157100Y0097600D03*
X0107100Y0087600D03*
X0107100Y0067600D03*
X0158100Y0052600D03*
X0103100Y0037600D03*
D17*
X0109350Y0037600D03*
X0085850Y0037600D03*
X0140850Y0052600D03*
X0164350Y0052600D03*
X0124350Y0067600D03*
X0100850Y0067600D03*
X0100850Y0087600D03*
X0124350Y0087600D03*
X0150850Y0097600D03*
X0174350Y0097600D03*
X0124350Y0107600D03*
X0100850Y0107600D03*
D18*
X0260100Y0089600D02*
X0292600Y0089600D01*
X0292600Y0125600D01*
X0260100Y0125600D01*
X0260100Y0089600D01*
X0260100Y0080600D02*
X0292600Y0080600D01*
X0292600Y0044600D01*
X0260100Y0044600D01*
X0260100Y0080600D01*
D19*
X0245350Y0072600D03*
X0245350Y0062600D03*
X0245350Y0052600D03*
X0245350Y0097600D03*
X0245350Y0107600D03*
X0245350Y0117600D03*
D20*
X0252100Y0117600D03*
X0252100Y0107600D03*
X0252100Y0097600D03*
X0252100Y0072600D03*
X0252100Y0062600D03*
X0252100Y0052600D03*
M02*
