G75*
%MOIN*%
%OFA0B0*%
%FSLAX25Y25*%
%IPPOS*%
%LPD*%
%AMOC8*
5,1,8,0,0,1.08239X$1,22.5*
%
%ADD10C,0.00000*%
%ADD11OC8,0.12400*%
%ADD12C,0.12400*%
%ADD13OC8,0.05200*%
%ADD14C,0.05200*%
%ADD15C,0.06600*%
%ADD16C,0.06600*%
%ADD17C,0.05200*%
%ADD18R,0.11811X0.11811*%
%ADD19C,0.08600*%
%ADD20OC8,0.06000*%
%ADD21C,0.06000*%
%ADD22C,0.01600*%
%ADD23C,0.03200*%
%ADD24C,0.04356*%
D10*
X0024332Y0022561D02*
X0630631Y0022561D01*
X0630916Y0022564D01*
X0631202Y0022575D01*
X0631487Y0022592D01*
X0631771Y0022616D01*
X0632055Y0022647D01*
X0632338Y0022685D01*
X0632619Y0022730D01*
X0632900Y0022781D01*
X0633180Y0022839D01*
X0633458Y0022904D01*
X0633734Y0022976D01*
X0634008Y0023054D01*
X0634281Y0023139D01*
X0634551Y0023231D01*
X0634819Y0023329D01*
X0635085Y0023433D01*
X0635348Y0023544D01*
X0635608Y0023661D01*
X0635866Y0023784D01*
X0636120Y0023914D01*
X0636371Y0024050D01*
X0636619Y0024191D01*
X0636863Y0024339D01*
X0637104Y0024492D01*
X0637340Y0024652D01*
X0637573Y0024817D01*
X0637802Y0024987D01*
X0638027Y0025163D01*
X0638247Y0025345D01*
X0638463Y0025531D01*
X0638674Y0025723D01*
X0638881Y0025920D01*
X0639083Y0026122D01*
X0639280Y0026329D01*
X0639472Y0026540D01*
X0639658Y0026756D01*
X0639840Y0026976D01*
X0640016Y0027201D01*
X0640186Y0027430D01*
X0640351Y0027663D01*
X0640511Y0027899D01*
X0640664Y0028140D01*
X0640812Y0028384D01*
X0640953Y0028632D01*
X0641089Y0028883D01*
X0641219Y0029137D01*
X0641342Y0029395D01*
X0641459Y0029655D01*
X0641570Y0029918D01*
X0641674Y0030184D01*
X0641772Y0030452D01*
X0641864Y0030722D01*
X0641949Y0030995D01*
X0642027Y0031269D01*
X0642099Y0031545D01*
X0642164Y0031823D01*
X0642222Y0032103D01*
X0642273Y0032384D01*
X0642318Y0032665D01*
X0642356Y0032948D01*
X0642387Y0033232D01*
X0642411Y0033516D01*
X0642428Y0033801D01*
X0642439Y0034087D01*
X0642442Y0034372D01*
X0642443Y0034372D02*
X0642443Y0207600D01*
X0642442Y0207600D02*
X0642439Y0207885D01*
X0642428Y0208171D01*
X0642411Y0208456D01*
X0642387Y0208740D01*
X0642356Y0209024D01*
X0642318Y0209307D01*
X0642273Y0209588D01*
X0642222Y0209869D01*
X0642164Y0210149D01*
X0642099Y0210427D01*
X0642027Y0210703D01*
X0641949Y0210977D01*
X0641864Y0211250D01*
X0641772Y0211520D01*
X0641674Y0211788D01*
X0641570Y0212054D01*
X0641459Y0212317D01*
X0641342Y0212577D01*
X0641219Y0212835D01*
X0641089Y0213089D01*
X0640953Y0213340D01*
X0640812Y0213588D01*
X0640664Y0213832D01*
X0640511Y0214073D01*
X0640351Y0214309D01*
X0640186Y0214542D01*
X0640016Y0214771D01*
X0639840Y0214996D01*
X0639658Y0215216D01*
X0639472Y0215432D01*
X0639280Y0215643D01*
X0639083Y0215850D01*
X0638881Y0216052D01*
X0638674Y0216249D01*
X0638463Y0216441D01*
X0638247Y0216627D01*
X0638027Y0216809D01*
X0637802Y0216985D01*
X0637573Y0217155D01*
X0637340Y0217320D01*
X0637104Y0217480D01*
X0636863Y0217633D01*
X0636619Y0217781D01*
X0636371Y0217922D01*
X0636120Y0218058D01*
X0635866Y0218188D01*
X0635608Y0218311D01*
X0635348Y0218428D01*
X0635085Y0218539D01*
X0634819Y0218643D01*
X0634551Y0218741D01*
X0634281Y0218833D01*
X0634008Y0218918D01*
X0633734Y0218996D01*
X0633458Y0219068D01*
X0633180Y0219133D01*
X0632900Y0219191D01*
X0632619Y0219242D01*
X0632338Y0219287D01*
X0632055Y0219325D01*
X0631771Y0219356D01*
X0631487Y0219380D01*
X0631202Y0219397D01*
X0630916Y0219408D01*
X0630631Y0219411D01*
X0024332Y0219411D01*
X0024047Y0219408D01*
X0023761Y0219397D01*
X0023476Y0219380D01*
X0023192Y0219356D01*
X0022908Y0219325D01*
X0022625Y0219287D01*
X0022344Y0219242D01*
X0022063Y0219191D01*
X0021783Y0219133D01*
X0021505Y0219068D01*
X0021229Y0218996D01*
X0020955Y0218918D01*
X0020682Y0218833D01*
X0020412Y0218741D01*
X0020144Y0218643D01*
X0019878Y0218539D01*
X0019615Y0218428D01*
X0019355Y0218311D01*
X0019097Y0218188D01*
X0018843Y0218058D01*
X0018592Y0217922D01*
X0018344Y0217781D01*
X0018100Y0217633D01*
X0017859Y0217480D01*
X0017623Y0217320D01*
X0017390Y0217155D01*
X0017161Y0216985D01*
X0016936Y0216809D01*
X0016716Y0216627D01*
X0016500Y0216441D01*
X0016289Y0216249D01*
X0016082Y0216052D01*
X0015880Y0215850D01*
X0015683Y0215643D01*
X0015491Y0215432D01*
X0015305Y0215216D01*
X0015123Y0214996D01*
X0014947Y0214771D01*
X0014777Y0214542D01*
X0014612Y0214309D01*
X0014452Y0214073D01*
X0014299Y0213832D01*
X0014151Y0213588D01*
X0014010Y0213340D01*
X0013874Y0213089D01*
X0013744Y0212835D01*
X0013621Y0212577D01*
X0013504Y0212317D01*
X0013393Y0212054D01*
X0013289Y0211788D01*
X0013191Y0211520D01*
X0013099Y0211250D01*
X0013014Y0210977D01*
X0012936Y0210703D01*
X0012864Y0210427D01*
X0012799Y0210149D01*
X0012741Y0209869D01*
X0012690Y0209588D01*
X0012645Y0209307D01*
X0012607Y0209024D01*
X0012576Y0208740D01*
X0012552Y0208456D01*
X0012535Y0208171D01*
X0012524Y0207885D01*
X0012521Y0207600D01*
X0012521Y0034372D01*
X0012524Y0034087D01*
X0012535Y0033801D01*
X0012552Y0033516D01*
X0012576Y0033232D01*
X0012607Y0032948D01*
X0012645Y0032665D01*
X0012690Y0032384D01*
X0012741Y0032103D01*
X0012799Y0031823D01*
X0012864Y0031545D01*
X0012936Y0031269D01*
X0013014Y0030995D01*
X0013099Y0030722D01*
X0013191Y0030452D01*
X0013289Y0030184D01*
X0013393Y0029918D01*
X0013504Y0029655D01*
X0013621Y0029395D01*
X0013744Y0029137D01*
X0013874Y0028883D01*
X0014010Y0028632D01*
X0014151Y0028384D01*
X0014299Y0028140D01*
X0014452Y0027899D01*
X0014612Y0027663D01*
X0014777Y0027430D01*
X0014947Y0027201D01*
X0015123Y0026976D01*
X0015305Y0026756D01*
X0015491Y0026540D01*
X0015683Y0026329D01*
X0015880Y0026122D01*
X0016082Y0025920D01*
X0016289Y0025723D01*
X0016500Y0025531D01*
X0016716Y0025345D01*
X0016936Y0025163D01*
X0017161Y0024987D01*
X0017390Y0024817D01*
X0017623Y0024652D01*
X0017859Y0024492D01*
X0018100Y0024339D01*
X0018344Y0024191D01*
X0018592Y0024050D01*
X0018843Y0023914D01*
X0019097Y0023784D01*
X0019355Y0023661D01*
X0019615Y0023544D01*
X0019878Y0023433D01*
X0020144Y0023329D01*
X0020412Y0023231D01*
X0020682Y0023139D01*
X0020955Y0023054D01*
X0021229Y0022976D01*
X0021505Y0022904D01*
X0021783Y0022839D01*
X0022063Y0022781D01*
X0022344Y0022730D01*
X0022625Y0022685D01*
X0022908Y0022647D01*
X0023192Y0022616D01*
X0023476Y0022592D01*
X0023761Y0022575D01*
X0024047Y0022564D01*
X0024332Y0022561D01*
X0020395Y0061931D02*
X0020397Y0062084D01*
X0020403Y0062238D01*
X0020413Y0062391D01*
X0020427Y0062543D01*
X0020445Y0062696D01*
X0020467Y0062847D01*
X0020492Y0062998D01*
X0020522Y0063149D01*
X0020556Y0063299D01*
X0020593Y0063447D01*
X0020634Y0063595D01*
X0020679Y0063741D01*
X0020728Y0063887D01*
X0020781Y0064031D01*
X0020837Y0064173D01*
X0020897Y0064314D01*
X0020961Y0064454D01*
X0021028Y0064592D01*
X0021099Y0064728D01*
X0021174Y0064862D01*
X0021251Y0064994D01*
X0021333Y0065124D01*
X0021417Y0065252D01*
X0021505Y0065378D01*
X0021596Y0065501D01*
X0021690Y0065622D01*
X0021788Y0065740D01*
X0021888Y0065856D01*
X0021992Y0065969D01*
X0022098Y0066080D01*
X0022207Y0066188D01*
X0022319Y0066293D01*
X0022433Y0066394D01*
X0022551Y0066493D01*
X0022670Y0066589D01*
X0022792Y0066682D01*
X0022917Y0066771D01*
X0023044Y0066858D01*
X0023173Y0066940D01*
X0023304Y0067020D01*
X0023437Y0067096D01*
X0023572Y0067169D01*
X0023709Y0067238D01*
X0023848Y0067303D01*
X0023988Y0067365D01*
X0024130Y0067423D01*
X0024273Y0067478D01*
X0024418Y0067529D01*
X0024564Y0067576D01*
X0024711Y0067619D01*
X0024859Y0067658D01*
X0025008Y0067694D01*
X0025158Y0067725D01*
X0025309Y0067753D01*
X0025460Y0067777D01*
X0025613Y0067797D01*
X0025765Y0067813D01*
X0025918Y0067825D01*
X0026071Y0067833D01*
X0026224Y0067837D01*
X0026378Y0067837D01*
X0026531Y0067833D01*
X0026684Y0067825D01*
X0026837Y0067813D01*
X0026989Y0067797D01*
X0027142Y0067777D01*
X0027293Y0067753D01*
X0027444Y0067725D01*
X0027594Y0067694D01*
X0027743Y0067658D01*
X0027891Y0067619D01*
X0028038Y0067576D01*
X0028184Y0067529D01*
X0028329Y0067478D01*
X0028472Y0067423D01*
X0028614Y0067365D01*
X0028754Y0067303D01*
X0028893Y0067238D01*
X0029030Y0067169D01*
X0029165Y0067096D01*
X0029298Y0067020D01*
X0029429Y0066940D01*
X0029558Y0066858D01*
X0029685Y0066771D01*
X0029810Y0066682D01*
X0029932Y0066589D01*
X0030051Y0066493D01*
X0030169Y0066394D01*
X0030283Y0066293D01*
X0030395Y0066188D01*
X0030504Y0066080D01*
X0030610Y0065969D01*
X0030714Y0065856D01*
X0030814Y0065740D01*
X0030912Y0065622D01*
X0031006Y0065501D01*
X0031097Y0065378D01*
X0031185Y0065252D01*
X0031269Y0065124D01*
X0031351Y0064994D01*
X0031428Y0064862D01*
X0031503Y0064728D01*
X0031574Y0064592D01*
X0031641Y0064454D01*
X0031705Y0064314D01*
X0031765Y0064173D01*
X0031821Y0064031D01*
X0031874Y0063887D01*
X0031923Y0063741D01*
X0031968Y0063595D01*
X0032009Y0063447D01*
X0032046Y0063299D01*
X0032080Y0063149D01*
X0032110Y0062998D01*
X0032135Y0062847D01*
X0032157Y0062696D01*
X0032175Y0062543D01*
X0032189Y0062391D01*
X0032199Y0062238D01*
X0032205Y0062084D01*
X0032207Y0061931D01*
X0032205Y0061778D01*
X0032199Y0061624D01*
X0032189Y0061471D01*
X0032175Y0061319D01*
X0032157Y0061166D01*
X0032135Y0061015D01*
X0032110Y0060864D01*
X0032080Y0060713D01*
X0032046Y0060563D01*
X0032009Y0060415D01*
X0031968Y0060267D01*
X0031923Y0060121D01*
X0031874Y0059975D01*
X0031821Y0059831D01*
X0031765Y0059689D01*
X0031705Y0059548D01*
X0031641Y0059408D01*
X0031574Y0059270D01*
X0031503Y0059134D01*
X0031428Y0059000D01*
X0031351Y0058868D01*
X0031269Y0058738D01*
X0031185Y0058610D01*
X0031097Y0058484D01*
X0031006Y0058361D01*
X0030912Y0058240D01*
X0030814Y0058122D01*
X0030714Y0058006D01*
X0030610Y0057893D01*
X0030504Y0057782D01*
X0030395Y0057674D01*
X0030283Y0057569D01*
X0030169Y0057468D01*
X0030051Y0057369D01*
X0029932Y0057273D01*
X0029810Y0057180D01*
X0029685Y0057091D01*
X0029558Y0057004D01*
X0029429Y0056922D01*
X0029298Y0056842D01*
X0029165Y0056766D01*
X0029030Y0056693D01*
X0028893Y0056624D01*
X0028754Y0056559D01*
X0028614Y0056497D01*
X0028472Y0056439D01*
X0028329Y0056384D01*
X0028184Y0056333D01*
X0028038Y0056286D01*
X0027891Y0056243D01*
X0027743Y0056204D01*
X0027594Y0056168D01*
X0027444Y0056137D01*
X0027293Y0056109D01*
X0027142Y0056085D01*
X0026989Y0056065D01*
X0026837Y0056049D01*
X0026684Y0056037D01*
X0026531Y0056029D01*
X0026378Y0056025D01*
X0026224Y0056025D01*
X0026071Y0056029D01*
X0025918Y0056037D01*
X0025765Y0056049D01*
X0025613Y0056065D01*
X0025460Y0056085D01*
X0025309Y0056109D01*
X0025158Y0056137D01*
X0025008Y0056168D01*
X0024859Y0056204D01*
X0024711Y0056243D01*
X0024564Y0056286D01*
X0024418Y0056333D01*
X0024273Y0056384D01*
X0024130Y0056439D01*
X0023988Y0056497D01*
X0023848Y0056559D01*
X0023709Y0056624D01*
X0023572Y0056693D01*
X0023437Y0056766D01*
X0023304Y0056842D01*
X0023173Y0056922D01*
X0023044Y0057004D01*
X0022917Y0057091D01*
X0022792Y0057180D01*
X0022670Y0057273D01*
X0022551Y0057369D01*
X0022433Y0057468D01*
X0022319Y0057569D01*
X0022207Y0057674D01*
X0022098Y0057782D01*
X0021992Y0057893D01*
X0021888Y0058006D01*
X0021788Y0058122D01*
X0021690Y0058240D01*
X0021596Y0058361D01*
X0021505Y0058484D01*
X0021417Y0058610D01*
X0021333Y0058738D01*
X0021251Y0058868D01*
X0021174Y0059000D01*
X0021099Y0059134D01*
X0021028Y0059270D01*
X0020961Y0059408D01*
X0020897Y0059548D01*
X0020837Y0059689D01*
X0020781Y0059831D01*
X0020728Y0059975D01*
X0020679Y0060121D01*
X0020634Y0060267D01*
X0020593Y0060415D01*
X0020556Y0060563D01*
X0020522Y0060713D01*
X0020492Y0060864D01*
X0020467Y0061015D01*
X0020445Y0061166D01*
X0020427Y0061319D01*
X0020413Y0061471D01*
X0020403Y0061624D01*
X0020397Y0061778D01*
X0020395Y0061931D01*
X0300100Y0062600D02*
X0300102Y0062761D01*
X0300108Y0062921D01*
X0300118Y0063082D01*
X0300132Y0063242D01*
X0300150Y0063402D01*
X0300171Y0063561D01*
X0300197Y0063720D01*
X0300227Y0063878D01*
X0300260Y0064035D01*
X0300298Y0064192D01*
X0300339Y0064347D01*
X0300384Y0064501D01*
X0300433Y0064654D01*
X0300486Y0064806D01*
X0300542Y0064957D01*
X0300603Y0065106D01*
X0300666Y0065254D01*
X0300734Y0065400D01*
X0300805Y0065544D01*
X0300879Y0065686D01*
X0300957Y0065827D01*
X0301039Y0065965D01*
X0301124Y0066102D01*
X0301212Y0066236D01*
X0301304Y0066368D01*
X0301399Y0066498D01*
X0301497Y0066626D01*
X0301598Y0066751D01*
X0301702Y0066873D01*
X0301809Y0066993D01*
X0301919Y0067110D01*
X0302032Y0067225D01*
X0302148Y0067336D01*
X0302267Y0067445D01*
X0302388Y0067550D01*
X0302512Y0067653D01*
X0302638Y0067753D01*
X0302766Y0067849D01*
X0302897Y0067942D01*
X0303031Y0068032D01*
X0303166Y0068119D01*
X0303304Y0068202D01*
X0303443Y0068282D01*
X0303585Y0068358D01*
X0303728Y0068431D01*
X0303873Y0068500D01*
X0304020Y0068566D01*
X0304168Y0068628D01*
X0304318Y0068686D01*
X0304469Y0068741D01*
X0304622Y0068792D01*
X0304776Y0068839D01*
X0304931Y0068882D01*
X0305087Y0068921D01*
X0305243Y0068957D01*
X0305401Y0068988D01*
X0305559Y0069016D01*
X0305718Y0069040D01*
X0305878Y0069060D01*
X0306038Y0069076D01*
X0306198Y0069088D01*
X0306359Y0069096D01*
X0306520Y0069100D01*
X0306680Y0069100D01*
X0306841Y0069096D01*
X0307002Y0069088D01*
X0307162Y0069076D01*
X0307322Y0069060D01*
X0307482Y0069040D01*
X0307641Y0069016D01*
X0307799Y0068988D01*
X0307957Y0068957D01*
X0308113Y0068921D01*
X0308269Y0068882D01*
X0308424Y0068839D01*
X0308578Y0068792D01*
X0308731Y0068741D01*
X0308882Y0068686D01*
X0309032Y0068628D01*
X0309180Y0068566D01*
X0309327Y0068500D01*
X0309472Y0068431D01*
X0309615Y0068358D01*
X0309757Y0068282D01*
X0309896Y0068202D01*
X0310034Y0068119D01*
X0310169Y0068032D01*
X0310303Y0067942D01*
X0310434Y0067849D01*
X0310562Y0067753D01*
X0310688Y0067653D01*
X0310812Y0067550D01*
X0310933Y0067445D01*
X0311052Y0067336D01*
X0311168Y0067225D01*
X0311281Y0067110D01*
X0311391Y0066993D01*
X0311498Y0066873D01*
X0311602Y0066751D01*
X0311703Y0066626D01*
X0311801Y0066498D01*
X0311896Y0066368D01*
X0311988Y0066236D01*
X0312076Y0066102D01*
X0312161Y0065965D01*
X0312243Y0065827D01*
X0312321Y0065686D01*
X0312395Y0065544D01*
X0312466Y0065400D01*
X0312534Y0065254D01*
X0312597Y0065106D01*
X0312658Y0064957D01*
X0312714Y0064806D01*
X0312767Y0064654D01*
X0312816Y0064501D01*
X0312861Y0064347D01*
X0312902Y0064192D01*
X0312940Y0064035D01*
X0312973Y0063878D01*
X0313003Y0063720D01*
X0313029Y0063561D01*
X0313050Y0063402D01*
X0313068Y0063242D01*
X0313082Y0063082D01*
X0313092Y0062921D01*
X0313098Y0062761D01*
X0313100Y0062600D01*
X0313098Y0062439D01*
X0313092Y0062279D01*
X0313082Y0062118D01*
X0313068Y0061958D01*
X0313050Y0061798D01*
X0313029Y0061639D01*
X0313003Y0061480D01*
X0312973Y0061322D01*
X0312940Y0061165D01*
X0312902Y0061008D01*
X0312861Y0060853D01*
X0312816Y0060699D01*
X0312767Y0060546D01*
X0312714Y0060394D01*
X0312658Y0060243D01*
X0312597Y0060094D01*
X0312534Y0059946D01*
X0312466Y0059800D01*
X0312395Y0059656D01*
X0312321Y0059514D01*
X0312243Y0059373D01*
X0312161Y0059235D01*
X0312076Y0059098D01*
X0311988Y0058964D01*
X0311896Y0058832D01*
X0311801Y0058702D01*
X0311703Y0058574D01*
X0311602Y0058449D01*
X0311498Y0058327D01*
X0311391Y0058207D01*
X0311281Y0058090D01*
X0311168Y0057975D01*
X0311052Y0057864D01*
X0310933Y0057755D01*
X0310812Y0057650D01*
X0310688Y0057547D01*
X0310562Y0057447D01*
X0310434Y0057351D01*
X0310303Y0057258D01*
X0310169Y0057168D01*
X0310034Y0057081D01*
X0309896Y0056998D01*
X0309757Y0056918D01*
X0309615Y0056842D01*
X0309472Y0056769D01*
X0309327Y0056700D01*
X0309180Y0056634D01*
X0309032Y0056572D01*
X0308882Y0056514D01*
X0308731Y0056459D01*
X0308578Y0056408D01*
X0308424Y0056361D01*
X0308269Y0056318D01*
X0308113Y0056279D01*
X0307957Y0056243D01*
X0307799Y0056212D01*
X0307641Y0056184D01*
X0307482Y0056160D01*
X0307322Y0056140D01*
X0307162Y0056124D01*
X0307002Y0056112D01*
X0306841Y0056104D01*
X0306680Y0056100D01*
X0306520Y0056100D01*
X0306359Y0056104D01*
X0306198Y0056112D01*
X0306038Y0056124D01*
X0305878Y0056140D01*
X0305718Y0056160D01*
X0305559Y0056184D01*
X0305401Y0056212D01*
X0305243Y0056243D01*
X0305087Y0056279D01*
X0304931Y0056318D01*
X0304776Y0056361D01*
X0304622Y0056408D01*
X0304469Y0056459D01*
X0304318Y0056514D01*
X0304168Y0056572D01*
X0304020Y0056634D01*
X0303873Y0056700D01*
X0303728Y0056769D01*
X0303585Y0056842D01*
X0303443Y0056918D01*
X0303304Y0056998D01*
X0303166Y0057081D01*
X0303031Y0057168D01*
X0302897Y0057258D01*
X0302766Y0057351D01*
X0302638Y0057447D01*
X0302512Y0057547D01*
X0302388Y0057650D01*
X0302267Y0057755D01*
X0302148Y0057864D01*
X0302032Y0057975D01*
X0301919Y0058090D01*
X0301809Y0058207D01*
X0301702Y0058327D01*
X0301598Y0058449D01*
X0301497Y0058574D01*
X0301399Y0058702D01*
X0301304Y0058832D01*
X0301212Y0058964D01*
X0301124Y0059098D01*
X0301039Y0059235D01*
X0300957Y0059373D01*
X0300879Y0059514D01*
X0300805Y0059656D01*
X0300734Y0059800D01*
X0300666Y0059946D01*
X0300603Y0060094D01*
X0300542Y0060243D01*
X0300486Y0060394D01*
X0300433Y0060546D01*
X0300384Y0060699D01*
X0300339Y0060853D01*
X0300298Y0061008D01*
X0300260Y0061165D01*
X0300227Y0061322D01*
X0300197Y0061480D01*
X0300171Y0061639D01*
X0300150Y0061798D01*
X0300132Y0061958D01*
X0300118Y0062118D01*
X0300108Y0062279D01*
X0300102Y0062439D01*
X0300100Y0062600D01*
X0300100Y0107600D02*
X0300102Y0107761D01*
X0300108Y0107921D01*
X0300118Y0108082D01*
X0300132Y0108242D01*
X0300150Y0108402D01*
X0300171Y0108561D01*
X0300197Y0108720D01*
X0300227Y0108878D01*
X0300260Y0109035D01*
X0300298Y0109192D01*
X0300339Y0109347D01*
X0300384Y0109501D01*
X0300433Y0109654D01*
X0300486Y0109806D01*
X0300542Y0109957D01*
X0300603Y0110106D01*
X0300666Y0110254D01*
X0300734Y0110400D01*
X0300805Y0110544D01*
X0300879Y0110686D01*
X0300957Y0110827D01*
X0301039Y0110965D01*
X0301124Y0111102D01*
X0301212Y0111236D01*
X0301304Y0111368D01*
X0301399Y0111498D01*
X0301497Y0111626D01*
X0301598Y0111751D01*
X0301702Y0111873D01*
X0301809Y0111993D01*
X0301919Y0112110D01*
X0302032Y0112225D01*
X0302148Y0112336D01*
X0302267Y0112445D01*
X0302388Y0112550D01*
X0302512Y0112653D01*
X0302638Y0112753D01*
X0302766Y0112849D01*
X0302897Y0112942D01*
X0303031Y0113032D01*
X0303166Y0113119D01*
X0303304Y0113202D01*
X0303443Y0113282D01*
X0303585Y0113358D01*
X0303728Y0113431D01*
X0303873Y0113500D01*
X0304020Y0113566D01*
X0304168Y0113628D01*
X0304318Y0113686D01*
X0304469Y0113741D01*
X0304622Y0113792D01*
X0304776Y0113839D01*
X0304931Y0113882D01*
X0305087Y0113921D01*
X0305243Y0113957D01*
X0305401Y0113988D01*
X0305559Y0114016D01*
X0305718Y0114040D01*
X0305878Y0114060D01*
X0306038Y0114076D01*
X0306198Y0114088D01*
X0306359Y0114096D01*
X0306520Y0114100D01*
X0306680Y0114100D01*
X0306841Y0114096D01*
X0307002Y0114088D01*
X0307162Y0114076D01*
X0307322Y0114060D01*
X0307482Y0114040D01*
X0307641Y0114016D01*
X0307799Y0113988D01*
X0307957Y0113957D01*
X0308113Y0113921D01*
X0308269Y0113882D01*
X0308424Y0113839D01*
X0308578Y0113792D01*
X0308731Y0113741D01*
X0308882Y0113686D01*
X0309032Y0113628D01*
X0309180Y0113566D01*
X0309327Y0113500D01*
X0309472Y0113431D01*
X0309615Y0113358D01*
X0309757Y0113282D01*
X0309896Y0113202D01*
X0310034Y0113119D01*
X0310169Y0113032D01*
X0310303Y0112942D01*
X0310434Y0112849D01*
X0310562Y0112753D01*
X0310688Y0112653D01*
X0310812Y0112550D01*
X0310933Y0112445D01*
X0311052Y0112336D01*
X0311168Y0112225D01*
X0311281Y0112110D01*
X0311391Y0111993D01*
X0311498Y0111873D01*
X0311602Y0111751D01*
X0311703Y0111626D01*
X0311801Y0111498D01*
X0311896Y0111368D01*
X0311988Y0111236D01*
X0312076Y0111102D01*
X0312161Y0110965D01*
X0312243Y0110827D01*
X0312321Y0110686D01*
X0312395Y0110544D01*
X0312466Y0110400D01*
X0312534Y0110254D01*
X0312597Y0110106D01*
X0312658Y0109957D01*
X0312714Y0109806D01*
X0312767Y0109654D01*
X0312816Y0109501D01*
X0312861Y0109347D01*
X0312902Y0109192D01*
X0312940Y0109035D01*
X0312973Y0108878D01*
X0313003Y0108720D01*
X0313029Y0108561D01*
X0313050Y0108402D01*
X0313068Y0108242D01*
X0313082Y0108082D01*
X0313092Y0107921D01*
X0313098Y0107761D01*
X0313100Y0107600D01*
X0313098Y0107439D01*
X0313092Y0107279D01*
X0313082Y0107118D01*
X0313068Y0106958D01*
X0313050Y0106798D01*
X0313029Y0106639D01*
X0313003Y0106480D01*
X0312973Y0106322D01*
X0312940Y0106165D01*
X0312902Y0106008D01*
X0312861Y0105853D01*
X0312816Y0105699D01*
X0312767Y0105546D01*
X0312714Y0105394D01*
X0312658Y0105243D01*
X0312597Y0105094D01*
X0312534Y0104946D01*
X0312466Y0104800D01*
X0312395Y0104656D01*
X0312321Y0104514D01*
X0312243Y0104373D01*
X0312161Y0104235D01*
X0312076Y0104098D01*
X0311988Y0103964D01*
X0311896Y0103832D01*
X0311801Y0103702D01*
X0311703Y0103574D01*
X0311602Y0103449D01*
X0311498Y0103327D01*
X0311391Y0103207D01*
X0311281Y0103090D01*
X0311168Y0102975D01*
X0311052Y0102864D01*
X0310933Y0102755D01*
X0310812Y0102650D01*
X0310688Y0102547D01*
X0310562Y0102447D01*
X0310434Y0102351D01*
X0310303Y0102258D01*
X0310169Y0102168D01*
X0310034Y0102081D01*
X0309896Y0101998D01*
X0309757Y0101918D01*
X0309615Y0101842D01*
X0309472Y0101769D01*
X0309327Y0101700D01*
X0309180Y0101634D01*
X0309032Y0101572D01*
X0308882Y0101514D01*
X0308731Y0101459D01*
X0308578Y0101408D01*
X0308424Y0101361D01*
X0308269Y0101318D01*
X0308113Y0101279D01*
X0307957Y0101243D01*
X0307799Y0101212D01*
X0307641Y0101184D01*
X0307482Y0101160D01*
X0307322Y0101140D01*
X0307162Y0101124D01*
X0307002Y0101112D01*
X0306841Y0101104D01*
X0306680Y0101100D01*
X0306520Y0101100D01*
X0306359Y0101104D01*
X0306198Y0101112D01*
X0306038Y0101124D01*
X0305878Y0101140D01*
X0305718Y0101160D01*
X0305559Y0101184D01*
X0305401Y0101212D01*
X0305243Y0101243D01*
X0305087Y0101279D01*
X0304931Y0101318D01*
X0304776Y0101361D01*
X0304622Y0101408D01*
X0304469Y0101459D01*
X0304318Y0101514D01*
X0304168Y0101572D01*
X0304020Y0101634D01*
X0303873Y0101700D01*
X0303728Y0101769D01*
X0303585Y0101842D01*
X0303443Y0101918D01*
X0303304Y0101998D01*
X0303166Y0102081D01*
X0303031Y0102168D01*
X0302897Y0102258D01*
X0302766Y0102351D01*
X0302638Y0102447D01*
X0302512Y0102547D01*
X0302388Y0102650D01*
X0302267Y0102755D01*
X0302148Y0102864D01*
X0302032Y0102975D01*
X0301919Y0103090D01*
X0301809Y0103207D01*
X0301702Y0103327D01*
X0301598Y0103449D01*
X0301497Y0103574D01*
X0301399Y0103702D01*
X0301304Y0103832D01*
X0301212Y0103964D01*
X0301124Y0104098D01*
X0301039Y0104235D01*
X0300957Y0104373D01*
X0300879Y0104514D01*
X0300805Y0104656D01*
X0300734Y0104800D01*
X0300666Y0104946D01*
X0300603Y0105094D01*
X0300542Y0105243D01*
X0300486Y0105394D01*
X0300433Y0105546D01*
X0300384Y0105699D01*
X0300339Y0105853D01*
X0300298Y0106008D01*
X0300260Y0106165D01*
X0300227Y0106322D01*
X0300197Y0106480D01*
X0300171Y0106639D01*
X0300150Y0106798D01*
X0300132Y0106958D01*
X0300118Y0107118D01*
X0300108Y0107279D01*
X0300102Y0107439D01*
X0300100Y0107600D01*
X0020395Y0180041D02*
X0020397Y0180194D01*
X0020403Y0180348D01*
X0020413Y0180501D01*
X0020427Y0180653D01*
X0020445Y0180806D01*
X0020467Y0180957D01*
X0020492Y0181108D01*
X0020522Y0181259D01*
X0020556Y0181409D01*
X0020593Y0181557D01*
X0020634Y0181705D01*
X0020679Y0181851D01*
X0020728Y0181997D01*
X0020781Y0182141D01*
X0020837Y0182283D01*
X0020897Y0182424D01*
X0020961Y0182564D01*
X0021028Y0182702D01*
X0021099Y0182838D01*
X0021174Y0182972D01*
X0021251Y0183104D01*
X0021333Y0183234D01*
X0021417Y0183362D01*
X0021505Y0183488D01*
X0021596Y0183611D01*
X0021690Y0183732D01*
X0021788Y0183850D01*
X0021888Y0183966D01*
X0021992Y0184079D01*
X0022098Y0184190D01*
X0022207Y0184298D01*
X0022319Y0184403D01*
X0022433Y0184504D01*
X0022551Y0184603D01*
X0022670Y0184699D01*
X0022792Y0184792D01*
X0022917Y0184881D01*
X0023044Y0184968D01*
X0023173Y0185050D01*
X0023304Y0185130D01*
X0023437Y0185206D01*
X0023572Y0185279D01*
X0023709Y0185348D01*
X0023848Y0185413D01*
X0023988Y0185475D01*
X0024130Y0185533D01*
X0024273Y0185588D01*
X0024418Y0185639D01*
X0024564Y0185686D01*
X0024711Y0185729D01*
X0024859Y0185768D01*
X0025008Y0185804D01*
X0025158Y0185835D01*
X0025309Y0185863D01*
X0025460Y0185887D01*
X0025613Y0185907D01*
X0025765Y0185923D01*
X0025918Y0185935D01*
X0026071Y0185943D01*
X0026224Y0185947D01*
X0026378Y0185947D01*
X0026531Y0185943D01*
X0026684Y0185935D01*
X0026837Y0185923D01*
X0026989Y0185907D01*
X0027142Y0185887D01*
X0027293Y0185863D01*
X0027444Y0185835D01*
X0027594Y0185804D01*
X0027743Y0185768D01*
X0027891Y0185729D01*
X0028038Y0185686D01*
X0028184Y0185639D01*
X0028329Y0185588D01*
X0028472Y0185533D01*
X0028614Y0185475D01*
X0028754Y0185413D01*
X0028893Y0185348D01*
X0029030Y0185279D01*
X0029165Y0185206D01*
X0029298Y0185130D01*
X0029429Y0185050D01*
X0029558Y0184968D01*
X0029685Y0184881D01*
X0029810Y0184792D01*
X0029932Y0184699D01*
X0030051Y0184603D01*
X0030169Y0184504D01*
X0030283Y0184403D01*
X0030395Y0184298D01*
X0030504Y0184190D01*
X0030610Y0184079D01*
X0030714Y0183966D01*
X0030814Y0183850D01*
X0030912Y0183732D01*
X0031006Y0183611D01*
X0031097Y0183488D01*
X0031185Y0183362D01*
X0031269Y0183234D01*
X0031351Y0183104D01*
X0031428Y0182972D01*
X0031503Y0182838D01*
X0031574Y0182702D01*
X0031641Y0182564D01*
X0031705Y0182424D01*
X0031765Y0182283D01*
X0031821Y0182141D01*
X0031874Y0181997D01*
X0031923Y0181851D01*
X0031968Y0181705D01*
X0032009Y0181557D01*
X0032046Y0181409D01*
X0032080Y0181259D01*
X0032110Y0181108D01*
X0032135Y0180957D01*
X0032157Y0180806D01*
X0032175Y0180653D01*
X0032189Y0180501D01*
X0032199Y0180348D01*
X0032205Y0180194D01*
X0032207Y0180041D01*
X0032205Y0179888D01*
X0032199Y0179734D01*
X0032189Y0179581D01*
X0032175Y0179429D01*
X0032157Y0179276D01*
X0032135Y0179125D01*
X0032110Y0178974D01*
X0032080Y0178823D01*
X0032046Y0178673D01*
X0032009Y0178525D01*
X0031968Y0178377D01*
X0031923Y0178231D01*
X0031874Y0178085D01*
X0031821Y0177941D01*
X0031765Y0177799D01*
X0031705Y0177658D01*
X0031641Y0177518D01*
X0031574Y0177380D01*
X0031503Y0177244D01*
X0031428Y0177110D01*
X0031351Y0176978D01*
X0031269Y0176848D01*
X0031185Y0176720D01*
X0031097Y0176594D01*
X0031006Y0176471D01*
X0030912Y0176350D01*
X0030814Y0176232D01*
X0030714Y0176116D01*
X0030610Y0176003D01*
X0030504Y0175892D01*
X0030395Y0175784D01*
X0030283Y0175679D01*
X0030169Y0175578D01*
X0030051Y0175479D01*
X0029932Y0175383D01*
X0029810Y0175290D01*
X0029685Y0175201D01*
X0029558Y0175114D01*
X0029429Y0175032D01*
X0029298Y0174952D01*
X0029165Y0174876D01*
X0029030Y0174803D01*
X0028893Y0174734D01*
X0028754Y0174669D01*
X0028614Y0174607D01*
X0028472Y0174549D01*
X0028329Y0174494D01*
X0028184Y0174443D01*
X0028038Y0174396D01*
X0027891Y0174353D01*
X0027743Y0174314D01*
X0027594Y0174278D01*
X0027444Y0174247D01*
X0027293Y0174219D01*
X0027142Y0174195D01*
X0026989Y0174175D01*
X0026837Y0174159D01*
X0026684Y0174147D01*
X0026531Y0174139D01*
X0026378Y0174135D01*
X0026224Y0174135D01*
X0026071Y0174139D01*
X0025918Y0174147D01*
X0025765Y0174159D01*
X0025613Y0174175D01*
X0025460Y0174195D01*
X0025309Y0174219D01*
X0025158Y0174247D01*
X0025008Y0174278D01*
X0024859Y0174314D01*
X0024711Y0174353D01*
X0024564Y0174396D01*
X0024418Y0174443D01*
X0024273Y0174494D01*
X0024130Y0174549D01*
X0023988Y0174607D01*
X0023848Y0174669D01*
X0023709Y0174734D01*
X0023572Y0174803D01*
X0023437Y0174876D01*
X0023304Y0174952D01*
X0023173Y0175032D01*
X0023044Y0175114D01*
X0022917Y0175201D01*
X0022792Y0175290D01*
X0022670Y0175383D01*
X0022551Y0175479D01*
X0022433Y0175578D01*
X0022319Y0175679D01*
X0022207Y0175784D01*
X0022098Y0175892D01*
X0021992Y0176003D01*
X0021888Y0176116D01*
X0021788Y0176232D01*
X0021690Y0176350D01*
X0021596Y0176471D01*
X0021505Y0176594D01*
X0021417Y0176720D01*
X0021333Y0176848D01*
X0021251Y0176978D01*
X0021174Y0177110D01*
X0021099Y0177244D01*
X0021028Y0177380D01*
X0020961Y0177518D01*
X0020897Y0177658D01*
X0020837Y0177799D01*
X0020781Y0177941D01*
X0020728Y0178085D01*
X0020679Y0178231D01*
X0020634Y0178377D01*
X0020593Y0178525D01*
X0020556Y0178673D01*
X0020522Y0178823D01*
X0020492Y0178974D01*
X0020467Y0179125D01*
X0020445Y0179276D01*
X0020427Y0179429D01*
X0020413Y0179581D01*
X0020403Y0179734D01*
X0020397Y0179888D01*
X0020395Y0180041D01*
X0622757Y0180041D02*
X0622759Y0180194D01*
X0622765Y0180348D01*
X0622775Y0180501D01*
X0622789Y0180653D01*
X0622807Y0180806D01*
X0622829Y0180957D01*
X0622854Y0181108D01*
X0622884Y0181259D01*
X0622918Y0181409D01*
X0622955Y0181557D01*
X0622996Y0181705D01*
X0623041Y0181851D01*
X0623090Y0181997D01*
X0623143Y0182141D01*
X0623199Y0182283D01*
X0623259Y0182424D01*
X0623323Y0182564D01*
X0623390Y0182702D01*
X0623461Y0182838D01*
X0623536Y0182972D01*
X0623613Y0183104D01*
X0623695Y0183234D01*
X0623779Y0183362D01*
X0623867Y0183488D01*
X0623958Y0183611D01*
X0624052Y0183732D01*
X0624150Y0183850D01*
X0624250Y0183966D01*
X0624354Y0184079D01*
X0624460Y0184190D01*
X0624569Y0184298D01*
X0624681Y0184403D01*
X0624795Y0184504D01*
X0624913Y0184603D01*
X0625032Y0184699D01*
X0625154Y0184792D01*
X0625279Y0184881D01*
X0625406Y0184968D01*
X0625535Y0185050D01*
X0625666Y0185130D01*
X0625799Y0185206D01*
X0625934Y0185279D01*
X0626071Y0185348D01*
X0626210Y0185413D01*
X0626350Y0185475D01*
X0626492Y0185533D01*
X0626635Y0185588D01*
X0626780Y0185639D01*
X0626926Y0185686D01*
X0627073Y0185729D01*
X0627221Y0185768D01*
X0627370Y0185804D01*
X0627520Y0185835D01*
X0627671Y0185863D01*
X0627822Y0185887D01*
X0627975Y0185907D01*
X0628127Y0185923D01*
X0628280Y0185935D01*
X0628433Y0185943D01*
X0628586Y0185947D01*
X0628740Y0185947D01*
X0628893Y0185943D01*
X0629046Y0185935D01*
X0629199Y0185923D01*
X0629351Y0185907D01*
X0629504Y0185887D01*
X0629655Y0185863D01*
X0629806Y0185835D01*
X0629956Y0185804D01*
X0630105Y0185768D01*
X0630253Y0185729D01*
X0630400Y0185686D01*
X0630546Y0185639D01*
X0630691Y0185588D01*
X0630834Y0185533D01*
X0630976Y0185475D01*
X0631116Y0185413D01*
X0631255Y0185348D01*
X0631392Y0185279D01*
X0631527Y0185206D01*
X0631660Y0185130D01*
X0631791Y0185050D01*
X0631920Y0184968D01*
X0632047Y0184881D01*
X0632172Y0184792D01*
X0632294Y0184699D01*
X0632413Y0184603D01*
X0632531Y0184504D01*
X0632645Y0184403D01*
X0632757Y0184298D01*
X0632866Y0184190D01*
X0632972Y0184079D01*
X0633076Y0183966D01*
X0633176Y0183850D01*
X0633274Y0183732D01*
X0633368Y0183611D01*
X0633459Y0183488D01*
X0633547Y0183362D01*
X0633631Y0183234D01*
X0633713Y0183104D01*
X0633790Y0182972D01*
X0633865Y0182838D01*
X0633936Y0182702D01*
X0634003Y0182564D01*
X0634067Y0182424D01*
X0634127Y0182283D01*
X0634183Y0182141D01*
X0634236Y0181997D01*
X0634285Y0181851D01*
X0634330Y0181705D01*
X0634371Y0181557D01*
X0634408Y0181409D01*
X0634442Y0181259D01*
X0634472Y0181108D01*
X0634497Y0180957D01*
X0634519Y0180806D01*
X0634537Y0180653D01*
X0634551Y0180501D01*
X0634561Y0180348D01*
X0634567Y0180194D01*
X0634569Y0180041D01*
X0634567Y0179888D01*
X0634561Y0179734D01*
X0634551Y0179581D01*
X0634537Y0179429D01*
X0634519Y0179276D01*
X0634497Y0179125D01*
X0634472Y0178974D01*
X0634442Y0178823D01*
X0634408Y0178673D01*
X0634371Y0178525D01*
X0634330Y0178377D01*
X0634285Y0178231D01*
X0634236Y0178085D01*
X0634183Y0177941D01*
X0634127Y0177799D01*
X0634067Y0177658D01*
X0634003Y0177518D01*
X0633936Y0177380D01*
X0633865Y0177244D01*
X0633790Y0177110D01*
X0633713Y0176978D01*
X0633631Y0176848D01*
X0633547Y0176720D01*
X0633459Y0176594D01*
X0633368Y0176471D01*
X0633274Y0176350D01*
X0633176Y0176232D01*
X0633076Y0176116D01*
X0632972Y0176003D01*
X0632866Y0175892D01*
X0632757Y0175784D01*
X0632645Y0175679D01*
X0632531Y0175578D01*
X0632413Y0175479D01*
X0632294Y0175383D01*
X0632172Y0175290D01*
X0632047Y0175201D01*
X0631920Y0175114D01*
X0631791Y0175032D01*
X0631660Y0174952D01*
X0631527Y0174876D01*
X0631392Y0174803D01*
X0631255Y0174734D01*
X0631116Y0174669D01*
X0630976Y0174607D01*
X0630834Y0174549D01*
X0630691Y0174494D01*
X0630546Y0174443D01*
X0630400Y0174396D01*
X0630253Y0174353D01*
X0630105Y0174314D01*
X0629956Y0174278D01*
X0629806Y0174247D01*
X0629655Y0174219D01*
X0629504Y0174195D01*
X0629351Y0174175D01*
X0629199Y0174159D01*
X0629046Y0174147D01*
X0628893Y0174139D01*
X0628740Y0174135D01*
X0628586Y0174135D01*
X0628433Y0174139D01*
X0628280Y0174147D01*
X0628127Y0174159D01*
X0627975Y0174175D01*
X0627822Y0174195D01*
X0627671Y0174219D01*
X0627520Y0174247D01*
X0627370Y0174278D01*
X0627221Y0174314D01*
X0627073Y0174353D01*
X0626926Y0174396D01*
X0626780Y0174443D01*
X0626635Y0174494D01*
X0626492Y0174549D01*
X0626350Y0174607D01*
X0626210Y0174669D01*
X0626071Y0174734D01*
X0625934Y0174803D01*
X0625799Y0174876D01*
X0625666Y0174952D01*
X0625535Y0175032D01*
X0625406Y0175114D01*
X0625279Y0175201D01*
X0625154Y0175290D01*
X0625032Y0175383D01*
X0624913Y0175479D01*
X0624795Y0175578D01*
X0624681Y0175679D01*
X0624569Y0175784D01*
X0624460Y0175892D01*
X0624354Y0176003D01*
X0624250Y0176116D01*
X0624150Y0176232D01*
X0624052Y0176350D01*
X0623958Y0176471D01*
X0623867Y0176594D01*
X0623779Y0176720D01*
X0623695Y0176848D01*
X0623613Y0176978D01*
X0623536Y0177110D01*
X0623461Y0177244D01*
X0623390Y0177380D01*
X0623323Y0177518D01*
X0623259Y0177658D01*
X0623199Y0177799D01*
X0623143Y0177941D01*
X0623090Y0178085D01*
X0623041Y0178231D01*
X0622996Y0178377D01*
X0622955Y0178525D01*
X0622918Y0178673D01*
X0622884Y0178823D01*
X0622854Y0178974D01*
X0622829Y0179125D01*
X0622807Y0179276D01*
X0622789Y0179429D01*
X0622775Y0179581D01*
X0622765Y0179734D01*
X0622759Y0179888D01*
X0622757Y0180041D01*
X0622757Y0061931D02*
X0622759Y0062084D01*
X0622765Y0062238D01*
X0622775Y0062391D01*
X0622789Y0062543D01*
X0622807Y0062696D01*
X0622829Y0062847D01*
X0622854Y0062998D01*
X0622884Y0063149D01*
X0622918Y0063299D01*
X0622955Y0063447D01*
X0622996Y0063595D01*
X0623041Y0063741D01*
X0623090Y0063887D01*
X0623143Y0064031D01*
X0623199Y0064173D01*
X0623259Y0064314D01*
X0623323Y0064454D01*
X0623390Y0064592D01*
X0623461Y0064728D01*
X0623536Y0064862D01*
X0623613Y0064994D01*
X0623695Y0065124D01*
X0623779Y0065252D01*
X0623867Y0065378D01*
X0623958Y0065501D01*
X0624052Y0065622D01*
X0624150Y0065740D01*
X0624250Y0065856D01*
X0624354Y0065969D01*
X0624460Y0066080D01*
X0624569Y0066188D01*
X0624681Y0066293D01*
X0624795Y0066394D01*
X0624913Y0066493D01*
X0625032Y0066589D01*
X0625154Y0066682D01*
X0625279Y0066771D01*
X0625406Y0066858D01*
X0625535Y0066940D01*
X0625666Y0067020D01*
X0625799Y0067096D01*
X0625934Y0067169D01*
X0626071Y0067238D01*
X0626210Y0067303D01*
X0626350Y0067365D01*
X0626492Y0067423D01*
X0626635Y0067478D01*
X0626780Y0067529D01*
X0626926Y0067576D01*
X0627073Y0067619D01*
X0627221Y0067658D01*
X0627370Y0067694D01*
X0627520Y0067725D01*
X0627671Y0067753D01*
X0627822Y0067777D01*
X0627975Y0067797D01*
X0628127Y0067813D01*
X0628280Y0067825D01*
X0628433Y0067833D01*
X0628586Y0067837D01*
X0628740Y0067837D01*
X0628893Y0067833D01*
X0629046Y0067825D01*
X0629199Y0067813D01*
X0629351Y0067797D01*
X0629504Y0067777D01*
X0629655Y0067753D01*
X0629806Y0067725D01*
X0629956Y0067694D01*
X0630105Y0067658D01*
X0630253Y0067619D01*
X0630400Y0067576D01*
X0630546Y0067529D01*
X0630691Y0067478D01*
X0630834Y0067423D01*
X0630976Y0067365D01*
X0631116Y0067303D01*
X0631255Y0067238D01*
X0631392Y0067169D01*
X0631527Y0067096D01*
X0631660Y0067020D01*
X0631791Y0066940D01*
X0631920Y0066858D01*
X0632047Y0066771D01*
X0632172Y0066682D01*
X0632294Y0066589D01*
X0632413Y0066493D01*
X0632531Y0066394D01*
X0632645Y0066293D01*
X0632757Y0066188D01*
X0632866Y0066080D01*
X0632972Y0065969D01*
X0633076Y0065856D01*
X0633176Y0065740D01*
X0633274Y0065622D01*
X0633368Y0065501D01*
X0633459Y0065378D01*
X0633547Y0065252D01*
X0633631Y0065124D01*
X0633713Y0064994D01*
X0633790Y0064862D01*
X0633865Y0064728D01*
X0633936Y0064592D01*
X0634003Y0064454D01*
X0634067Y0064314D01*
X0634127Y0064173D01*
X0634183Y0064031D01*
X0634236Y0063887D01*
X0634285Y0063741D01*
X0634330Y0063595D01*
X0634371Y0063447D01*
X0634408Y0063299D01*
X0634442Y0063149D01*
X0634472Y0062998D01*
X0634497Y0062847D01*
X0634519Y0062696D01*
X0634537Y0062543D01*
X0634551Y0062391D01*
X0634561Y0062238D01*
X0634567Y0062084D01*
X0634569Y0061931D01*
X0634567Y0061778D01*
X0634561Y0061624D01*
X0634551Y0061471D01*
X0634537Y0061319D01*
X0634519Y0061166D01*
X0634497Y0061015D01*
X0634472Y0060864D01*
X0634442Y0060713D01*
X0634408Y0060563D01*
X0634371Y0060415D01*
X0634330Y0060267D01*
X0634285Y0060121D01*
X0634236Y0059975D01*
X0634183Y0059831D01*
X0634127Y0059689D01*
X0634067Y0059548D01*
X0634003Y0059408D01*
X0633936Y0059270D01*
X0633865Y0059134D01*
X0633790Y0059000D01*
X0633713Y0058868D01*
X0633631Y0058738D01*
X0633547Y0058610D01*
X0633459Y0058484D01*
X0633368Y0058361D01*
X0633274Y0058240D01*
X0633176Y0058122D01*
X0633076Y0058006D01*
X0632972Y0057893D01*
X0632866Y0057782D01*
X0632757Y0057674D01*
X0632645Y0057569D01*
X0632531Y0057468D01*
X0632413Y0057369D01*
X0632294Y0057273D01*
X0632172Y0057180D01*
X0632047Y0057091D01*
X0631920Y0057004D01*
X0631791Y0056922D01*
X0631660Y0056842D01*
X0631527Y0056766D01*
X0631392Y0056693D01*
X0631255Y0056624D01*
X0631116Y0056559D01*
X0630976Y0056497D01*
X0630834Y0056439D01*
X0630691Y0056384D01*
X0630546Y0056333D01*
X0630400Y0056286D01*
X0630253Y0056243D01*
X0630105Y0056204D01*
X0629956Y0056168D01*
X0629806Y0056137D01*
X0629655Y0056109D01*
X0629504Y0056085D01*
X0629351Y0056065D01*
X0629199Y0056049D01*
X0629046Y0056037D01*
X0628893Y0056029D01*
X0628740Y0056025D01*
X0628586Y0056025D01*
X0628433Y0056029D01*
X0628280Y0056037D01*
X0628127Y0056049D01*
X0627975Y0056065D01*
X0627822Y0056085D01*
X0627671Y0056109D01*
X0627520Y0056137D01*
X0627370Y0056168D01*
X0627221Y0056204D01*
X0627073Y0056243D01*
X0626926Y0056286D01*
X0626780Y0056333D01*
X0626635Y0056384D01*
X0626492Y0056439D01*
X0626350Y0056497D01*
X0626210Y0056559D01*
X0626071Y0056624D01*
X0625934Y0056693D01*
X0625799Y0056766D01*
X0625666Y0056842D01*
X0625535Y0056922D01*
X0625406Y0057004D01*
X0625279Y0057091D01*
X0625154Y0057180D01*
X0625032Y0057273D01*
X0624913Y0057369D01*
X0624795Y0057468D01*
X0624681Y0057569D01*
X0624569Y0057674D01*
X0624460Y0057782D01*
X0624354Y0057893D01*
X0624250Y0058006D01*
X0624150Y0058122D01*
X0624052Y0058240D01*
X0623958Y0058361D01*
X0623867Y0058484D01*
X0623779Y0058610D01*
X0623695Y0058738D01*
X0623613Y0058868D01*
X0623536Y0059000D01*
X0623461Y0059134D01*
X0623390Y0059270D01*
X0623323Y0059408D01*
X0623259Y0059548D01*
X0623199Y0059689D01*
X0623143Y0059831D01*
X0623090Y0059975D01*
X0623041Y0060121D01*
X0622996Y0060267D01*
X0622955Y0060415D01*
X0622918Y0060563D01*
X0622884Y0060713D01*
X0622854Y0060864D01*
X0622829Y0061015D01*
X0622807Y0061166D01*
X0622789Y0061319D01*
X0622775Y0061471D01*
X0622765Y0061624D01*
X0622759Y0061778D01*
X0622757Y0061931D01*
D11*
X0537600Y0047600D03*
X0477600Y0087600D03*
X0417600Y0047600D03*
X0357600Y0087600D03*
D12*
X0417600Y0077600D03*
X0357600Y0117600D03*
X0477600Y0117600D03*
X0537600Y0077600D03*
D13*
X0577600Y0091600D03*
X0617600Y0091600D03*
X0602600Y0072600D03*
X0587600Y0072600D03*
X0587600Y0042600D03*
X0602600Y0042600D03*
X0607600Y0133600D03*
X0582600Y0133600D03*
X0567600Y0177600D03*
X0597600Y0177600D03*
X0597600Y0197600D03*
X0567600Y0197600D03*
X0362600Y0207600D03*
X0347600Y0207600D03*
X0277600Y0207600D03*
X0262600Y0197600D03*
X0242600Y0193600D03*
X0242600Y0177600D03*
X0262600Y0167600D03*
X0277600Y0167600D03*
X0277600Y0177600D03*
X0342600Y0157600D03*
X0362600Y0157600D03*
X0362600Y0177600D03*
X0347600Y0177600D03*
X0277600Y0147600D03*
X0242600Y0147600D03*
X0197600Y0122600D03*
X0167600Y0122600D03*
X0151600Y0122600D03*
X0077600Y0107600D03*
X0068600Y0122600D03*
X0077600Y0077600D03*
X0062600Y0058600D03*
X0062600Y0037600D03*
X0032600Y0037600D03*
D14*
X0062600Y0066600D03*
X0076600Y0122600D03*
X0143600Y0122600D03*
X0242600Y0201600D03*
X0577600Y0083600D03*
X0617600Y0083600D03*
X0607600Y0141600D03*
X0582600Y0141600D03*
D15*
X0182600Y0097600D03*
X0142600Y0097600D03*
X0132600Y0087600D03*
X0092600Y0087600D03*
X0092600Y0067600D03*
X0132600Y0067600D03*
X0132600Y0052600D03*
X0117600Y0037600D03*
X0077600Y0037600D03*
X0172600Y0052600D03*
X0132600Y0107600D03*
X0092600Y0107600D03*
D16*
X0244300Y0107600D02*
X0250900Y0107600D01*
X0250900Y0097600D02*
X0244300Y0097600D01*
X0244300Y0117600D02*
X0250900Y0117600D01*
X0250900Y0072600D02*
X0244300Y0072600D01*
X0244300Y0062600D02*
X0250900Y0062600D01*
X0250900Y0052600D02*
X0244300Y0052600D01*
D17*
X0292400Y0162600D02*
X0297600Y0162600D01*
X0297600Y0172600D02*
X0292400Y0172600D01*
X0292400Y0182600D02*
X0297600Y0182600D01*
X0297600Y0192600D02*
X0292400Y0192600D01*
X0327600Y0192600D02*
X0332800Y0192600D01*
X0332800Y0182600D02*
X0327600Y0182600D01*
X0327600Y0172600D02*
X0332800Y0172600D01*
X0332800Y0162600D02*
X0327600Y0162600D01*
D18*
X0382600Y0157600D03*
X0447600Y0157600D03*
X0472600Y0157600D03*
X0537600Y0157600D03*
X0537600Y0207600D03*
X0472600Y0207600D03*
X0447600Y0207600D03*
X0382600Y0207600D03*
X0222600Y0207600D03*
X0157600Y0207600D03*
X0132600Y0207600D03*
X0067600Y0207600D03*
X0067600Y0157600D03*
X0132600Y0157600D03*
X0157600Y0157600D03*
X0222600Y0157600D03*
D19*
X0201900Y0079411D02*
X0193300Y0079411D01*
X0178702Y0071900D02*
X0178702Y0063300D01*
X0193300Y0055789D02*
X0201900Y0055789D01*
D20*
X0567600Y0107600D03*
X0577600Y0107600D03*
X0587600Y0107600D03*
X0597600Y0107600D03*
X0607600Y0107600D03*
X0617600Y0107600D03*
X0617600Y0117600D03*
X0607600Y0117600D03*
X0597600Y0117600D03*
X0587600Y0117600D03*
X0577600Y0117600D03*
X0567600Y0117600D03*
D21*
X0044222Y0102009D02*
X0038222Y0102009D01*
X0038222Y0092009D02*
X0044222Y0092009D01*
X0044222Y0082009D02*
X0038222Y0082009D01*
D22*
X0034015Y0080146D02*
X0017321Y0080146D01*
X0017321Y0078548D02*
X0025744Y0078548D01*
X0027556Y0078684D02*
X0022562Y0078309D01*
X0017901Y0076480D01*
X0017321Y0076018D01*
X0017321Y0165954D01*
X0017901Y0165492D01*
X0022562Y0163662D01*
X0022562Y0163662D01*
X0027556Y0163288D01*
X0027556Y0163288D01*
X0032438Y0164402D01*
X0032439Y0164402D01*
X0036775Y0166906D01*
X0036775Y0166906D01*
X0040182Y0170577D01*
X0042354Y0175089D01*
X0043101Y0180041D01*
X0042354Y0184993D01*
X0040182Y0189505D01*
X0036775Y0193176D01*
X0032439Y0195680D01*
X0032438Y0195680D01*
X0027556Y0196794D01*
X0022562Y0196420D01*
X0017901Y0194590D01*
X0017901Y0194590D01*
X0017321Y0194128D01*
X0017321Y0207600D01*
X0017381Y0208515D01*
X0017855Y0210283D01*
X0018770Y0211868D01*
X0020064Y0213162D01*
X0021649Y0214077D01*
X0023417Y0214551D01*
X0024332Y0214611D01*
X0060537Y0214611D01*
X0060094Y0214168D01*
X0060094Y0201032D01*
X0061032Y0200094D01*
X0074168Y0200094D01*
X0075105Y0201032D01*
X0075105Y0214168D01*
X0074663Y0214611D01*
X0125254Y0214611D01*
X0125017Y0214200D01*
X0124894Y0213742D01*
X0124894Y0208400D01*
X0131800Y0208400D01*
X0131800Y0206800D01*
X0133400Y0206800D01*
X0133400Y0208400D01*
X0140305Y0208400D01*
X0140305Y0213742D01*
X0140183Y0214200D01*
X0139946Y0214611D01*
X0139946Y0214611D01*
X0150537Y0214611D01*
X0150094Y0214168D01*
X0150094Y0201032D01*
X0151032Y0200094D01*
X0164168Y0200094D01*
X0165105Y0201032D01*
X0165105Y0214168D01*
X0164663Y0214611D01*
X0215254Y0214611D01*
X0215017Y0214200D01*
X0214894Y0213742D01*
X0214894Y0208400D01*
X0221800Y0208400D01*
X0221800Y0206800D01*
X0223400Y0206800D01*
X0223400Y0208400D01*
X0230305Y0208400D01*
X0230305Y0213742D01*
X0230183Y0214200D01*
X0229946Y0214611D01*
X0229946Y0214611D01*
X0375254Y0214611D01*
X0375017Y0214200D01*
X0374894Y0213742D01*
X0374894Y0208400D01*
X0381800Y0208400D01*
X0381800Y0206800D01*
X0383400Y0206800D01*
X0383400Y0208400D01*
X0390305Y0208400D01*
X0390305Y0213742D01*
X0390183Y0214200D01*
X0389946Y0214611D01*
X0389946Y0214611D01*
X0440254Y0214611D01*
X0440017Y0214200D01*
X0439894Y0213742D01*
X0439894Y0208400D01*
X0446800Y0208400D01*
X0446800Y0206800D01*
X0448400Y0206800D01*
X0448400Y0208400D01*
X0455305Y0208400D01*
X0455305Y0213742D01*
X0455183Y0214200D01*
X0454946Y0214611D01*
X0454946Y0214611D01*
X0465254Y0214611D01*
X0465017Y0214200D01*
X0464894Y0213742D01*
X0464894Y0208400D01*
X0471800Y0208400D01*
X0471800Y0206800D01*
X0473400Y0206800D01*
X0473400Y0208400D01*
X0480305Y0208400D01*
X0480305Y0213742D01*
X0480183Y0214200D01*
X0479946Y0214611D01*
X0479946Y0214611D01*
X0530254Y0214611D01*
X0530017Y0214200D01*
X0529894Y0213742D01*
X0529894Y0208400D01*
X0536800Y0208400D01*
X0536800Y0206800D01*
X0538400Y0206800D01*
X0538400Y0208400D01*
X0545305Y0208400D01*
X0545305Y0213742D01*
X0545183Y0214200D01*
X0544946Y0214611D01*
X0544946Y0214611D01*
X0630632Y0214611D01*
X0631547Y0214551D01*
X0633314Y0214077D01*
X0634900Y0213162D01*
X0636194Y0211868D01*
X0637109Y0210283D01*
X0637583Y0208515D01*
X0637643Y0207600D01*
X0637643Y0194039D01*
X0634801Y0195680D01*
X0634801Y0195680D01*
X0629918Y0196794D01*
X0624925Y0196420D01*
X0620263Y0194590D01*
X0616348Y0191468D01*
X0613527Y0187330D01*
X0612051Y0182545D01*
X0612051Y0177537D01*
X0613527Y0172752D01*
X0613527Y0172752D01*
X0616348Y0168614D01*
X0620263Y0165492D01*
X0624925Y0163662D01*
X0629918Y0163288D01*
X0629918Y0163288D01*
X0634801Y0164402D01*
X0637643Y0166043D01*
X0637643Y0075929D01*
X0634801Y0077569D01*
X0634801Y0077569D01*
X0629918Y0078684D01*
X0624925Y0078309D01*
X0624925Y0078309D01*
X0620263Y0076480D01*
X0616348Y0073358D01*
X0616348Y0073358D01*
X0616348Y0073358D01*
X0613527Y0069220D01*
X0612051Y0064435D01*
X0612051Y0059427D01*
X0613527Y0054641D01*
X0616348Y0050504D01*
X0620263Y0047381D01*
X0624925Y0045552D01*
X0629918Y0045178D01*
X0629918Y0045178D01*
X0634801Y0046292D01*
X0637643Y0047933D01*
X0637643Y0034372D01*
X0637583Y0033457D01*
X0637109Y0031689D01*
X0636194Y0030104D01*
X0634900Y0028809D01*
X0633314Y0027894D01*
X0631547Y0027421D01*
X0630631Y0027361D01*
X0024332Y0027361D01*
X0023417Y0027421D01*
X0021649Y0027894D01*
X0021649Y0027894D01*
X0020064Y0028809D01*
X0018770Y0030104D01*
X0017855Y0031689D01*
X0017381Y0033457D01*
X0017321Y0034372D01*
X0017321Y0047844D01*
X0017901Y0047381D01*
X0022562Y0045552D01*
X0022562Y0045552D01*
X0027556Y0045178D01*
X0032438Y0046292D01*
X0032439Y0046292D01*
X0036775Y0048796D01*
X0036775Y0048796D01*
X0040182Y0052467D01*
X0042354Y0056979D01*
X0043101Y0061931D01*
X0042354Y0066883D01*
X0040182Y0071394D01*
X0040182Y0071394D01*
X0036775Y0075065D01*
X0032439Y0077569D01*
X0032438Y0077569D01*
X0027556Y0078684D01*
X0027556Y0078684D01*
X0028151Y0078548D02*
X0035178Y0078548D01*
X0035616Y0078110D02*
X0037307Y0077409D01*
X0045137Y0077409D01*
X0046828Y0078110D01*
X0048122Y0079404D01*
X0048822Y0081094D01*
X0048822Y0082924D01*
X0048122Y0084615D01*
X0046828Y0085909D01*
X0045137Y0086609D01*
X0044422Y0086609D01*
X0044422Y0087409D01*
X0045137Y0087409D01*
X0046828Y0088110D01*
X0048122Y0089404D01*
X0048822Y0091094D01*
X0048822Y0092924D01*
X0048122Y0094615D01*
X0046828Y0095909D01*
X0045137Y0096609D01*
X0037307Y0096609D01*
X0035616Y0095909D01*
X0034322Y0094615D01*
X0033622Y0092924D01*
X0033622Y0091094D01*
X0034322Y0089404D01*
X0035616Y0088110D01*
X0037307Y0087409D01*
X0038022Y0087409D01*
X0038022Y0086609D01*
X0037307Y0086609D01*
X0035616Y0085909D01*
X0034322Y0084615D01*
X0033622Y0082924D01*
X0033622Y0081094D01*
X0034322Y0079404D01*
X0035616Y0078110D01*
X0033512Y0076949D02*
X0073200Y0076949D01*
X0073200Y0077600D02*
X0073200Y0075777D01*
X0075777Y0073200D01*
X0077600Y0073200D01*
X0079423Y0073200D01*
X0082000Y0075777D01*
X0082000Y0077600D01*
X0082000Y0079423D01*
X0079423Y0082000D01*
X0077600Y0082000D01*
X0077600Y0077600D01*
X0077600Y0077600D01*
X0082000Y0077600D01*
X0077600Y0077600D01*
X0077600Y0077600D01*
X0077600Y0077600D01*
X0073200Y0077600D01*
X0073200Y0079423D01*
X0075777Y0082000D01*
X0077600Y0082000D01*
X0077600Y0077600D01*
X0077600Y0073200D01*
X0077600Y0077600D01*
X0077600Y0077600D01*
X0073200Y0077600D01*
X0073200Y0078548D02*
X0047266Y0078548D01*
X0048429Y0080146D02*
X0073924Y0080146D01*
X0075522Y0081745D02*
X0048822Y0081745D01*
X0048648Y0083343D02*
X0089400Y0083343D01*
X0089400Y0083870D02*
X0089400Y0079743D01*
X0089397Y0079740D01*
X0088822Y0078351D01*
X0088822Y0076849D01*
X0089397Y0075460D01*
X0090460Y0074397D01*
X0091849Y0073822D01*
X0093351Y0073822D01*
X0094740Y0074397D01*
X0095803Y0075460D01*
X0096378Y0076849D01*
X0096378Y0078351D01*
X0095803Y0079740D01*
X0095800Y0079743D01*
X0095800Y0083870D01*
X0096754Y0084824D01*
X0097500Y0086625D01*
X0097500Y0088575D01*
X0096754Y0090376D01*
X0095800Y0091330D01*
X0095800Y0103870D01*
X0096754Y0104824D01*
X0097500Y0106625D01*
X0097500Y0108575D01*
X0096754Y0110376D01*
X0095376Y0111754D01*
X0093575Y0112500D01*
X0091625Y0112500D01*
X0089824Y0111754D01*
X0088446Y0110376D01*
X0087700Y0108575D01*
X0087700Y0106625D01*
X0088446Y0104824D01*
X0089400Y0103870D01*
X0089400Y0091330D01*
X0088446Y0090376D01*
X0087700Y0088575D01*
X0087700Y0086625D01*
X0088446Y0084824D01*
X0089400Y0083870D01*
X0088397Y0084942D02*
X0047795Y0084942D01*
X0045304Y0086540D02*
X0087735Y0086540D01*
X0087700Y0088139D02*
X0046857Y0088139D01*
X0048260Y0089737D02*
X0075120Y0089737D01*
X0075460Y0089397D02*
X0076849Y0088822D01*
X0078351Y0088822D01*
X0079740Y0089397D01*
X0080803Y0090460D01*
X0081378Y0091849D01*
X0081378Y0093351D01*
X0080803Y0094740D01*
X0080800Y0094743D01*
X0080800Y0104860D01*
X0081800Y0105860D01*
X0081800Y0109340D01*
X0080800Y0110340D01*
X0080800Y0123435D01*
X0080161Y0124979D01*
X0078979Y0126161D01*
X0077435Y0126800D01*
X0075765Y0126800D01*
X0074221Y0126161D01*
X0073039Y0124979D01*
X0072865Y0124558D01*
X0070423Y0127000D01*
X0068600Y0127000D01*
X0068600Y0122600D01*
X0068600Y0122600D01*
X0068600Y0118200D01*
X0070423Y0118200D01*
X0072865Y0120642D01*
X0073039Y0120221D01*
X0074221Y0119039D01*
X0074400Y0118965D01*
X0074400Y0110340D01*
X0073400Y0109340D01*
X0073400Y0105860D01*
X0074400Y0104860D01*
X0074400Y0094743D01*
X0074397Y0094740D01*
X0073822Y0093351D01*
X0073822Y0091849D01*
X0074397Y0090460D01*
X0075460Y0089397D01*
X0074034Y0091336D02*
X0048822Y0091336D01*
X0048818Y0092934D02*
X0073822Y0092934D01*
X0074311Y0094533D02*
X0048156Y0094533D01*
X0046291Y0096132D02*
X0074400Y0096132D01*
X0074400Y0097730D02*
X0046396Y0097730D01*
X0046065Y0097561D02*
X0046738Y0097904D01*
X0047349Y0098348D01*
X0047883Y0098882D01*
X0048327Y0099494D01*
X0048670Y0100167D01*
X0048904Y0100885D01*
X0049022Y0101632D01*
X0049022Y0101809D01*
X0041422Y0101809D01*
X0041422Y0097209D01*
X0044600Y0097209D01*
X0045346Y0097328D01*
X0046065Y0097561D01*
X0048207Y0099329D02*
X0074400Y0099329D01*
X0074400Y0100927D02*
X0048910Y0100927D01*
X0049022Y0102209D02*
X0049022Y0102387D01*
X0048904Y0103133D01*
X0048670Y0103852D01*
X0048327Y0104525D01*
X0047883Y0105136D01*
X0047349Y0105671D01*
X0046738Y0106115D01*
X0046065Y0106458D01*
X0045346Y0106691D01*
X0044600Y0106809D01*
X0041422Y0106809D01*
X0041422Y0102210D01*
X0041022Y0102210D01*
X0041022Y0106809D01*
X0037844Y0106809D01*
X0037098Y0106691D01*
X0036379Y0106458D01*
X0035706Y0106115D01*
X0035095Y0105671D01*
X0034561Y0105136D01*
X0034117Y0104525D01*
X0033774Y0103852D01*
X0033540Y0103133D01*
X0033422Y0102387D01*
X0033422Y0102209D01*
X0041022Y0102209D01*
X0041022Y0101809D01*
X0041422Y0101809D01*
X0041422Y0102209D01*
X0049022Y0102209D01*
X0049000Y0102526D02*
X0074400Y0102526D01*
X0074400Y0104124D02*
X0048532Y0104124D01*
X0047278Y0105723D02*
X0073538Y0105723D01*
X0073400Y0107321D02*
X0017321Y0107321D01*
X0017321Y0105723D02*
X0035167Y0105723D01*
X0033912Y0104124D02*
X0017321Y0104124D01*
X0017321Y0102526D02*
X0033444Y0102526D01*
X0033422Y0101809D02*
X0033422Y0101632D01*
X0033540Y0100885D01*
X0033774Y0100167D01*
X0034117Y0099494D01*
X0034561Y0098882D01*
X0035095Y0098348D01*
X0035706Y0097904D01*
X0036379Y0097561D01*
X0037098Y0097328D01*
X0037844Y0097209D01*
X0041022Y0097209D01*
X0041022Y0101809D01*
X0033422Y0101809D01*
X0033534Y0100927D02*
X0017321Y0100927D01*
X0017321Y0099329D02*
X0034237Y0099329D01*
X0036048Y0097730D02*
X0017321Y0097730D01*
X0017321Y0096132D02*
X0036153Y0096132D01*
X0034288Y0094533D02*
X0017321Y0094533D01*
X0017321Y0092934D02*
X0033626Y0092934D01*
X0033622Y0091336D02*
X0017321Y0091336D01*
X0017321Y0089737D02*
X0034184Y0089737D01*
X0035587Y0088139D02*
X0017321Y0088139D01*
X0017321Y0086540D02*
X0037141Y0086540D01*
X0034649Y0084942D02*
X0017321Y0084942D01*
X0017321Y0083343D02*
X0033796Y0083343D01*
X0033622Y0081745D02*
X0017321Y0081745D01*
X0017321Y0076949D02*
X0019097Y0076949D01*
X0017901Y0076480D02*
X0017901Y0076480D01*
X0022562Y0078309D02*
X0022562Y0078309D01*
X0036281Y0075351D02*
X0073627Y0075351D01*
X0075225Y0073752D02*
X0037994Y0073752D01*
X0036775Y0075065D02*
X0036775Y0075065D01*
X0039477Y0072154D02*
X0090790Y0072154D01*
X0091625Y0072500D02*
X0089824Y0071754D01*
X0088446Y0070376D01*
X0087700Y0068575D01*
X0087700Y0066625D01*
X0088446Y0064824D01*
X0089400Y0063870D01*
X0089400Y0051963D01*
X0089887Y0050787D01*
X0093822Y0046852D01*
X0093822Y0046849D01*
X0094397Y0045460D01*
X0095460Y0044397D01*
X0096849Y0043822D01*
X0098351Y0043822D01*
X0099740Y0044397D01*
X0100803Y0045460D01*
X0101378Y0046849D01*
X0101378Y0048351D01*
X0100803Y0049740D01*
X0099740Y0050803D01*
X0098351Y0051378D01*
X0098348Y0051378D01*
X0095800Y0053925D01*
X0095800Y0063870D01*
X0096754Y0064824D01*
X0097500Y0066625D01*
X0097500Y0068575D01*
X0096754Y0070376D01*
X0095376Y0071754D01*
X0093575Y0072500D01*
X0091625Y0072500D01*
X0094410Y0072154D02*
X0130790Y0072154D01*
X0131625Y0072500D02*
X0129824Y0071754D01*
X0128446Y0070376D01*
X0127700Y0068575D01*
X0127700Y0066625D01*
X0128446Y0064824D01*
X0129400Y0063870D01*
X0129400Y0056330D01*
X0128446Y0055376D01*
X0127700Y0053575D01*
X0127700Y0051625D01*
X0128446Y0049824D01*
X0129400Y0048870D01*
X0129400Y0034743D01*
X0129397Y0034740D01*
X0128822Y0033351D01*
X0128822Y0031849D01*
X0129397Y0030460D01*
X0130460Y0029397D01*
X0131849Y0028822D01*
X0133351Y0028822D01*
X0134740Y0029397D01*
X0135803Y0030460D01*
X0136378Y0031849D01*
X0136378Y0033351D01*
X0135803Y0034740D01*
X0135800Y0034743D01*
X0135800Y0048870D01*
X0136754Y0049824D01*
X0137500Y0051625D01*
X0137500Y0053575D01*
X0136754Y0055376D01*
X0135800Y0056330D01*
X0135800Y0063870D01*
X0136754Y0064824D01*
X0137500Y0066625D01*
X0137500Y0068575D01*
X0136754Y0070376D01*
X0135376Y0071754D01*
X0133575Y0072500D01*
X0131625Y0072500D01*
X0134410Y0072154D02*
X0172802Y0072154D01*
X0172802Y0073074D02*
X0173701Y0075242D01*
X0175360Y0076902D01*
X0177529Y0077800D01*
X0179876Y0077800D01*
X0182044Y0076902D01*
X0183704Y0075242D01*
X0184602Y0073074D01*
X0184602Y0062126D01*
X0183704Y0059958D01*
X0182044Y0058298D01*
X0179876Y0057400D01*
X0177529Y0057400D01*
X0175360Y0058298D01*
X0173701Y0059958D01*
X0172802Y0062126D01*
X0172802Y0073074D01*
X0173084Y0073752D02*
X0079975Y0073752D01*
X0081573Y0075351D02*
X0089506Y0075351D01*
X0088822Y0076949D02*
X0082000Y0076949D01*
X0082000Y0078548D02*
X0088903Y0078548D01*
X0089400Y0080146D02*
X0081276Y0080146D01*
X0079678Y0081745D02*
X0089400Y0081745D01*
X0095800Y0081745D02*
X0187881Y0081745D01*
X0188298Y0082753D02*
X0187400Y0080585D01*
X0187400Y0078237D01*
X0188298Y0076069D01*
X0189958Y0074409D01*
X0192126Y0073511D01*
X0203074Y0073511D01*
X0205242Y0074409D01*
X0206902Y0076069D01*
X0207800Y0078237D01*
X0207800Y0080585D01*
X0206902Y0082753D01*
X0205242Y0084413D01*
X0203074Y0085311D01*
X0200800Y0085311D01*
X0200800Y0095457D01*
X0200803Y0095460D01*
X0201378Y0096849D01*
X0201378Y0098351D01*
X0200803Y0099740D01*
X0199740Y0100803D01*
X0198351Y0101378D01*
X0196849Y0101378D01*
X0195460Y0100803D01*
X0194397Y0099740D01*
X0193822Y0098351D01*
X0193822Y0096849D01*
X0194397Y0095460D01*
X0194400Y0095457D01*
X0194400Y0085311D01*
X0192126Y0085311D01*
X0189958Y0084413D01*
X0188298Y0082753D01*
X0188889Y0083343D02*
X0135418Y0083343D01*
X0135273Y0083238D02*
X0135922Y0083710D01*
X0136490Y0084278D01*
X0136962Y0084927D01*
X0137326Y0085642D01*
X0137574Y0086406D01*
X0137700Y0087199D01*
X0137700Y0087300D01*
X0132900Y0087300D01*
X0132900Y0087900D01*
X0137700Y0087900D01*
X0137700Y0088001D01*
X0137574Y0088794D01*
X0137326Y0089558D01*
X0136962Y0090273D01*
X0136490Y0090922D01*
X0135922Y0091490D01*
X0135273Y0091962D01*
X0134558Y0092326D01*
X0133794Y0092574D01*
X0133001Y0092700D01*
X0132900Y0092700D01*
X0132900Y0087900D01*
X0132300Y0087900D01*
X0132300Y0092700D01*
X0132199Y0092700D01*
X0131406Y0092574D01*
X0130642Y0092326D01*
X0129927Y0091962D01*
X0129278Y0091490D01*
X0128710Y0090922D01*
X0128238Y0090273D01*
X0127874Y0089558D01*
X0127626Y0088794D01*
X0127500Y0088001D01*
X0127500Y0087900D01*
X0132300Y0087900D01*
X0132300Y0087300D01*
X0132900Y0087300D01*
X0132900Y0082500D01*
X0133001Y0082500D01*
X0133794Y0082626D01*
X0134558Y0082874D01*
X0135273Y0083238D01*
X0132900Y0083343D02*
X0132300Y0083343D01*
X0132300Y0082500D02*
X0132300Y0087300D01*
X0127500Y0087300D01*
X0127500Y0087199D01*
X0127626Y0086406D01*
X0127874Y0085642D01*
X0128238Y0084927D01*
X0128710Y0084278D01*
X0129278Y0083710D01*
X0129927Y0083238D01*
X0130642Y0082874D01*
X0131406Y0082626D01*
X0132199Y0082500D01*
X0132300Y0082500D01*
X0132300Y0084942D02*
X0132900Y0084942D01*
X0132900Y0086540D02*
X0132300Y0086540D01*
X0132300Y0088139D02*
X0132900Y0088139D01*
X0132900Y0089737D02*
X0132300Y0089737D01*
X0132300Y0091336D02*
X0132900Y0091336D01*
X0136076Y0091336D02*
X0194400Y0091336D01*
X0194400Y0092934D02*
X0184141Y0092934D01*
X0183575Y0092700D02*
X0185376Y0093446D01*
X0186754Y0094824D01*
X0187500Y0096625D01*
X0187500Y0098575D01*
X0186754Y0100376D01*
X0185376Y0101754D01*
X0183575Y0102500D01*
X0181625Y0102500D01*
X0179824Y0101754D01*
X0178446Y0100376D01*
X0177700Y0098575D01*
X0177700Y0096625D01*
X0178446Y0094824D01*
X0179824Y0093446D01*
X0181625Y0092700D01*
X0183575Y0092700D01*
X0181059Y0092934D02*
X0144141Y0092934D01*
X0143575Y0092700D02*
X0145376Y0093446D01*
X0146754Y0094824D01*
X0147500Y0096625D01*
X0147500Y0098575D01*
X0146754Y0100376D01*
X0145376Y0101754D01*
X0143575Y0102500D01*
X0141625Y0102500D01*
X0139824Y0101754D01*
X0138446Y0100376D01*
X0137700Y0098575D01*
X0137700Y0096625D01*
X0138446Y0094824D01*
X0139824Y0093446D01*
X0141625Y0092700D01*
X0143575Y0092700D01*
X0141059Y0092934D02*
X0095800Y0092934D01*
X0095800Y0091336D02*
X0129124Y0091336D01*
X0127965Y0089737D02*
X0097018Y0089737D01*
X0097500Y0088139D02*
X0127522Y0088139D01*
X0127604Y0086540D02*
X0097465Y0086540D01*
X0096803Y0084942D02*
X0128230Y0084942D01*
X0129782Y0083343D02*
X0095800Y0083343D01*
X0095800Y0080146D02*
X0187400Y0080146D01*
X0187400Y0078548D02*
X0096297Y0078548D01*
X0096378Y0076949D02*
X0175475Y0076949D01*
X0173809Y0075351D02*
X0095694Y0075351D01*
X0096574Y0070555D02*
X0128626Y0070555D01*
X0127858Y0068957D02*
X0097342Y0068957D01*
X0097500Y0067358D02*
X0127700Y0067358D01*
X0128059Y0065760D02*
X0097141Y0065760D01*
X0096091Y0064161D02*
X0129109Y0064161D01*
X0129400Y0062563D02*
X0095800Y0062563D01*
X0095800Y0060964D02*
X0129400Y0060964D01*
X0129400Y0059366D02*
X0095800Y0059366D01*
X0095800Y0057767D02*
X0129400Y0057767D01*
X0129239Y0056169D02*
X0095800Y0056169D01*
X0095800Y0054570D02*
X0128112Y0054570D01*
X0127700Y0052972D02*
X0096754Y0052972D01*
X0098363Y0051373D02*
X0127804Y0051373D01*
X0128496Y0049775D02*
X0100768Y0049775D01*
X0101378Y0048176D02*
X0129400Y0048176D01*
X0129400Y0046578D02*
X0101266Y0046578D01*
X0100322Y0044979D02*
X0129400Y0044979D01*
X0129400Y0043381D02*
X0065800Y0043381D01*
X0065800Y0044979D02*
X0094878Y0044979D01*
X0093934Y0046578D02*
X0065800Y0046578D01*
X0065800Y0048176D02*
X0092498Y0048176D01*
X0090900Y0049775D02*
X0065800Y0049775D01*
X0065800Y0051373D02*
X0089644Y0051373D01*
X0089400Y0052972D02*
X0065800Y0052972D01*
X0065800Y0054570D02*
X0089400Y0054570D01*
X0089400Y0056169D02*
X0066108Y0056169D01*
X0065800Y0055860D02*
X0066800Y0056860D01*
X0066800Y0060340D01*
X0064506Y0062633D01*
X0064906Y0062837D01*
X0065466Y0063244D01*
X0065956Y0063734D01*
X0066363Y0064294D01*
X0066678Y0064911D01*
X0066892Y0065570D01*
X0067000Y0066254D01*
X0067000Y0066600D01*
X0067000Y0066946D01*
X0066892Y0067630D01*
X0066678Y0068289D01*
X0066363Y0068906D01*
X0065956Y0069466D01*
X0065466Y0069956D01*
X0064906Y0070363D01*
X0064289Y0070678D01*
X0063630Y0070892D01*
X0062946Y0071000D01*
X0062600Y0071000D01*
X0062600Y0066600D01*
X0067000Y0066600D01*
X0062600Y0066600D01*
X0062600Y0066600D01*
X0062600Y0066600D01*
X0062600Y0066600D01*
X0058200Y0066600D01*
X0058200Y0066946D01*
X0058308Y0067630D01*
X0058522Y0068289D01*
X0058837Y0068906D01*
X0059244Y0069466D01*
X0059734Y0069956D01*
X0060294Y0070363D01*
X0060911Y0070678D01*
X0061570Y0070892D01*
X0062254Y0071000D01*
X0062600Y0071000D01*
X0062600Y0066600D01*
X0058200Y0066600D01*
X0058200Y0066254D01*
X0058308Y0065570D01*
X0058522Y0064911D01*
X0058837Y0064294D01*
X0059244Y0063734D01*
X0059734Y0063244D01*
X0060294Y0062837D01*
X0060694Y0062633D01*
X0058400Y0060340D01*
X0058400Y0056860D01*
X0059400Y0055860D01*
X0059400Y0040340D01*
X0058400Y0039340D01*
X0058400Y0035860D01*
X0060860Y0033400D01*
X0064340Y0033400D01*
X0066800Y0035860D01*
X0066800Y0039340D01*
X0065800Y0040340D01*
X0065800Y0055860D01*
X0066800Y0057767D02*
X0089400Y0057767D01*
X0089400Y0059366D02*
X0066800Y0059366D01*
X0066175Y0060964D02*
X0089400Y0060964D01*
X0089400Y0062563D02*
X0064577Y0062563D01*
X0066267Y0064161D02*
X0089109Y0064161D01*
X0088059Y0065760D02*
X0066922Y0065760D01*
X0066935Y0067358D02*
X0087700Y0067358D01*
X0087858Y0068957D02*
X0066326Y0068957D01*
X0064529Y0070555D02*
X0088626Y0070555D01*
X0077600Y0073752D02*
X0077600Y0073752D01*
X0077600Y0075351D02*
X0077600Y0075351D01*
X0077600Y0076949D02*
X0077600Y0076949D01*
X0077600Y0078548D02*
X0077600Y0078548D01*
X0077600Y0080146D02*
X0077600Y0080146D01*
X0077600Y0081745D02*
X0077600Y0081745D01*
X0080080Y0089737D02*
X0088182Y0089737D01*
X0089400Y0091336D02*
X0081166Y0091336D01*
X0081378Y0092934D02*
X0089400Y0092934D01*
X0089400Y0094533D02*
X0080889Y0094533D01*
X0080800Y0096132D02*
X0089400Y0096132D01*
X0089400Y0097730D02*
X0080800Y0097730D01*
X0080800Y0099329D02*
X0089400Y0099329D01*
X0089400Y0100927D02*
X0080800Y0100927D01*
X0080800Y0102526D02*
X0089400Y0102526D01*
X0089146Y0104124D02*
X0080800Y0104124D01*
X0081662Y0105723D02*
X0088074Y0105723D01*
X0087700Y0107321D02*
X0081800Y0107321D01*
X0081800Y0108920D02*
X0087843Y0108920D01*
X0088588Y0110518D02*
X0080800Y0110518D01*
X0080800Y0112117D02*
X0090700Y0112117D01*
X0094500Y0112117D02*
X0130700Y0112117D01*
X0129824Y0111754D02*
X0128446Y0110376D01*
X0127700Y0108575D01*
X0127700Y0106625D01*
X0128446Y0104824D01*
X0129824Y0103446D01*
X0131625Y0102700D01*
X0133575Y0102700D01*
X0135376Y0103446D01*
X0136754Y0104824D01*
X0137500Y0106625D01*
X0137500Y0108575D01*
X0136754Y0110376D01*
X0135376Y0111754D01*
X0133575Y0112500D01*
X0131625Y0112500D01*
X0129824Y0111754D01*
X0128588Y0110518D02*
X0096612Y0110518D01*
X0097357Y0108920D02*
X0127843Y0108920D01*
X0127700Y0107321D02*
X0097500Y0107321D01*
X0097126Y0105723D02*
X0128074Y0105723D01*
X0129146Y0104124D02*
X0096054Y0104124D01*
X0095800Y0102526D02*
X0209400Y0102526D01*
X0209400Y0104124D02*
X0136054Y0104124D01*
X0137126Y0105723D02*
X0209400Y0105723D01*
X0209400Y0107321D02*
X0137500Y0107321D01*
X0137357Y0108920D02*
X0209400Y0108920D01*
X0209400Y0110518D02*
X0136612Y0110518D01*
X0134500Y0112117D02*
X0209400Y0112117D01*
X0209400Y0113237D02*
X0209400Y0089743D01*
X0209397Y0089740D01*
X0208822Y0088351D01*
X0208822Y0086849D01*
X0209397Y0085460D01*
X0210460Y0084397D01*
X0211849Y0083822D01*
X0213351Y0083822D01*
X0214740Y0084397D01*
X0215803Y0085460D01*
X0216378Y0086849D01*
X0216378Y0088351D01*
X0215803Y0089740D01*
X0215800Y0089743D01*
X0215800Y0111275D01*
X0238348Y0133822D01*
X0238351Y0133822D01*
X0239740Y0134397D01*
X0240803Y0135460D01*
X0241378Y0136849D01*
X0241378Y0138351D01*
X0240803Y0139740D01*
X0239740Y0140803D01*
X0238351Y0141378D01*
X0236849Y0141378D01*
X0235460Y0140803D01*
X0234397Y0139740D01*
X0233822Y0138351D01*
X0233822Y0138348D01*
X0209887Y0114413D01*
X0209400Y0113237D01*
X0209598Y0113715D02*
X0080800Y0113715D01*
X0080800Y0115314D02*
X0210788Y0115314D01*
X0212387Y0116912D02*
X0080800Y0116912D01*
X0080800Y0118511D02*
X0142497Y0118511D01*
X0142765Y0118400D02*
X0144435Y0118400D01*
X0145979Y0119039D01*
X0147161Y0120221D01*
X0147418Y0120842D01*
X0149860Y0118400D01*
X0153340Y0118400D01*
X0155800Y0120860D01*
X0155800Y0124340D01*
X0153340Y0126800D01*
X0149860Y0126800D01*
X0147418Y0124358D01*
X0147161Y0124979D01*
X0145979Y0126161D01*
X0144435Y0126800D01*
X0142765Y0126800D01*
X0141221Y0126161D01*
X0140039Y0124979D01*
X0139400Y0123435D01*
X0139400Y0121765D01*
X0140039Y0120221D01*
X0141221Y0119039D01*
X0142765Y0118400D01*
X0144703Y0118511D02*
X0149750Y0118511D01*
X0148151Y0120109D02*
X0147049Y0120109D01*
X0153450Y0118511D02*
X0165750Y0118511D01*
X0165860Y0118400D02*
X0169340Y0118400D01*
X0171800Y0120860D01*
X0171800Y0124340D01*
X0169340Y0126800D01*
X0165860Y0126800D01*
X0163400Y0124340D01*
X0163400Y0120860D01*
X0165860Y0118400D01*
X0164151Y0120109D02*
X0155049Y0120109D01*
X0155800Y0121708D02*
X0163400Y0121708D01*
X0163400Y0123306D02*
X0155800Y0123306D01*
X0155235Y0124905D02*
X0163965Y0124905D01*
X0165564Y0126503D02*
X0153636Y0126503D01*
X0149564Y0126503D02*
X0145152Y0126503D01*
X0147191Y0124905D02*
X0147965Y0124905D01*
X0142048Y0126503D02*
X0111235Y0126503D01*
X0111378Y0126849D02*
X0110803Y0125460D01*
X0109740Y0124397D01*
X0108351Y0123822D01*
X0106849Y0123822D01*
X0105460Y0124397D01*
X0104397Y0125460D01*
X0103822Y0126849D01*
X0103822Y0128351D01*
X0104397Y0129740D01*
X0105200Y0130543D01*
X0105200Y0154657D01*
X0104397Y0155460D01*
X0103822Y0156849D01*
X0103822Y0158351D01*
X0104397Y0159740D01*
X0105460Y0160803D01*
X0106849Y0161378D01*
X0108351Y0161378D01*
X0109740Y0160803D01*
X0110803Y0159740D01*
X0111378Y0158351D01*
X0111378Y0156849D01*
X0110803Y0155460D01*
X0110000Y0154657D01*
X0110000Y0130543D01*
X0110803Y0129740D01*
X0111378Y0128351D01*
X0111378Y0126849D01*
X0111378Y0128102D02*
X0223576Y0128102D01*
X0221978Y0126503D02*
X0199636Y0126503D01*
X0199340Y0126800D02*
X0201800Y0124340D01*
X0201800Y0120860D01*
X0199340Y0118400D01*
X0195860Y0118400D01*
X0193400Y0120860D01*
X0193400Y0124340D01*
X0195860Y0126800D01*
X0199340Y0126800D01*
X0201235Y0124905D02*
X0220379Y0124905D01*
X0218781Y0123306D02*
X0201800Y0123306D01*
X0201800Y0121708D02*
X0217182Y0121708D01*
X0215584Y0120109D02*
X0201049Y0120109D01*
X0199450Y0118511D02*
X0213985Y0118511D01*
X0219839Y0115314D02*
X0229400Y0115314D01*
X0229400Y0116912D02*
X0221438Y0116912D01*
X0223036Y0118511D02*
X0229400Y0118511D01*
X0229400Y0120109D02*
X0224635Y0120109D01*
X0226233Y0121708D02*
X0229400Y0121708D01*
X0229400Y0122287D02*
X0229400Y0061963D01*
X0229887Y0060787D01*
X0230787Y0059887D01*
X0239648Y0051026D01*
X0240146Y0049824D01*
X0241524Y0048446D01*
X0243325Y0047700D01*
X0251875Y0047700D01*
X0253676Y0048446D01*
X0255054Y0049824D01*
X0255800Y0051625D01*
X0255800Y0053575D01*
X0255054Y0055376D01*
X0253676Y0056754D01*
X0251875Y0057500D01*
X0243325Y0057500D01*
X0242548Y0057178D01*
X0235800Y0063925D01*
X0235800Y0120887D01*
X0247702Y0128822D01*
X0248351Y0128822D01*
X0249740Y0129397D01*
X0250803Y0130460D01*
X0251378Y0131849D01*
X0251378Y0133351D01*
X0250803Y0134740D01*
X0249740Y0135803D01*
X0248351Y0136378D01*
X0246849Y0136378D01*
X0245460Y0135803D01*
X0244397Y0134740D01*
X0244152Y0134147D01*
X0231086Y0125436D01*
X0230787Y0125313D01*
X0230561Y0125087D01*
X0230295Y0124909D01*
X0230116Y0124641D01*
X0229887Y0124413D01*
X0229765Y0124117D01*
X0229587Y0123852D01*
X0229524Y0123535D01*
X0229400Y0123237D01*
X0229400Y0122917D01*
X0229337Y0122603D01*
X0229400Y0122287D01*
X0229429Y0123306D02*
X0227832Y0123306D01*
X0229430Y0124905D02*
X0230292Y0124905D01*
X0231029Y0126503D02*
X0232686Y0126503D01*
X0232627Y0128102D02*
X0235084Y0128102D01*
X0234226Y0129700D02*
X0237482Y0129700D01*
X0235824Y0131299D02*
X0239879Y0131299D01*
X0242277Y0132897D02*
X0237423Y0132897D01*
X0239839Y0134496D02*
X0244296Y0134496D01*
X0246164Y0136094D02*
X0241066Y0136094D01*
X0241378Y0137693D02*
X0294400Y0137693D01*
X0294400Y0139291D02*
X0240989Y0139291D01*
X0239530Y0140890D02*
X0294400Y0140890D01*
X0294400Y0142488D02*
X0110000Y0142488D01*
X0110000Y0140890D02*
X0235670Y0140890D01*
X0234211Y0139291D02*
X0110000Y0139291D01*
X0110000Y0137693D02*
X0233167Y0137693D01*
X0231569Y0136094D02*
X0110000Y0136094D01*
X0110000Y0134496D02*
X0229970Y0134496D01*
X0228372Y0132897D02*
X0110000Y0132897D01*
X0110000Y0131299D02*
X0226773Y0131299D01*
X0225175Y0129700D02*
X0110819Y0129700D01*
X0107600Y0127600D02*
X0107600Y0157600D01*
X0110471Y0160072D02*
X0125094Y0160072D01*
X0125094Y0161670D02*
X0075105Y0161670D01*
X0075105Y0160072D02*
X0104729Y0160072D01*
X0103873Y0158473D02*
X0075105Y0158473D01*
X0075105Y0156875D02*
X0103822Y0156875D01*
X0104581Y0155276D02*
X0075105Y0155276D01*
X0075105Y0153678D02*
X0105200Y0153678D01*
X0105200Y0152079D02*
X0075105Y0152079D01*
X0075105Y0151032D02*
X0075105Y0164168D01*
X0074168Y0165105D01*
X0061032Y0165105D01*
X0060094Y0164168D01*
X0060094Y0151032D01*
X0061032Y0150094D01*
X0074168Y0150094D01*
X0075105Y0151032D01*
X0074555Y0150481D02*
X0105200Y0150481D01*
X0105200Y0148882D02*
X0017321Y0148882D01*
X0017321Y0147284D02*
X0105200Y0147284D01*
X0105200Y0145685D02*
X0017321Y0145685D01*
X0017321Y0144087D02*
X0105200Y0144087D01*
X0105200Y0142488D02*
X0017321Y0142488D01*
X0017321Y0140890D02*
X0105200Y0140890D01*
X0105200Y0139291D02*
X0017321Y0139291D01*
X0017321Y0137693D02*
X0105200Y0137693D01*
X0105200Y0136094D02*
X0017321Y0136094D01*
X0017321Y0134496D02*
X0105200Y0134496D01*
X0105200Y0132897D02*
X0017321Y0132897D01*
X0017321Y0131299D02*
X0105200Y0131299D01*
X0104381Y0129700D02*
X0017321Y0129700D01*
X0017321Y0128102D02*
X0103822Y0128102D01*
X0103965Y0126503D02*
X0078152Y0126503D01*
X0080191Y0124905D02*
X0104952Y0124905D01*
X0110248Y0124905D02*
X0140009Y0124905D01*
X0139400Y0123306D02*
X0080800Y0123306D01*
X0080800Y0121708D02*
X0139424Y0121708D01*
X0140151Y0120109D02*
X0080800Y0120109D01*
X0077600Y0121600D02*
X0076600Y0122600D01*
X0075048Y0126503D02*
X0070919Y0126503D01*
X0072518Y0124905D02*
X0073009Y0124905D01*
X0068600Y0124905D02*
X0068600Y0124905D01*
X0068600Y0126503D02*
X0068600Y0126503D01*
X0068600Y0127000D02*
X0066777Y0127000D01*
X0064200Y0124423D01*
X0064200Y0122600D01*
X0068600Y0122600D01*
X0068600Y0122600D01*
X0068600Y0122600D01*
X0068600Y0127000D01*
X0066281Y0126503D02*
X0017321Y0126503D01*
X0017321Y0124905D02*
X0064682Y0124905D01*
X0064200Y0123306D02*
X0017321Y0123306D01*
X0017321Y0121708D02*
X0064200Y0121708D01*
X0064200Y0122600D02*
X0064200Y0120777D01*
X0066777Y0118200D01*
X0068600Y0118200D01*
X0068600Y0122600D01*
X0064200Y0122600D01*
X0064868Y0120109D02*
X0017321Y0120109D01*
X0017321Y0118511D02*
X0066467Y0118511D01*
X0068600Y0118511D02*
X0068600Y0118511D01*
X0068600Y0120109D02*
X0068600Y0120109D01*
X0068600Y0121708D02*
X0068600Y0121708D01*
X0068600Y0123306D02*
X0068600Y0123306D01*
X0072332Y0120109D02*
X0073151Y0120109D01*
X0074400Y0118511D02*
X0070733Y0118511D01*
X0074400Y0116912D02*
X0017321Y0116912D01*
X0017321Y0115314D02*
X0074400Y0115314D01*
X0074400Y0113715D02*
X0017321Y0113715D01*
X0017321Y0112117D02*
X0074400Y0112117D01*
X0074400Y0110518D02*
X0017321Y0110518D01*
X0017321Y0108920D02*
X0073400Y0108920D01*
X0095800Y0100927D02*
X0138997Y0100927D01*
X0138012Y0099329D02*
X0095800Y0099329D01*
X0095800Y0097730D02*
X0137700Y0097730D01*
X0137905Y0096132D02*
X0095800Y0096132D01*
X0095800Y0094533D02*
X0138737Y0094533D01*
X0137235Y0089737D02*
X0194400Y0089737D01*
X0194400Y0088139D02*
X0137678Y0088139D01*
X0137596Y0086540D02*
X0194400Y0086540D01*
X0191235Y0084942D02*
X0136970Y0084942D01*
X0146463Y0094533D02*
X0178737Y0094533D01*
X0177905Y0096132D02*
X0147295Y0096132D01*
X0147500Y0097730D02*
X0177700Y0097730D01*
X0178012Y0099329D02*
X0147188Y0099329D01*
X0146203Y0100927D02*
X0178997Y0100927D01*
X0186203Y0100927D02*
X0195760Y0100927D01*
X0194227Y0099329D02*
X0187188Y0099329D01*
X0187500Y0097730D02*
X0193822Y0097730D01*
X0194119Y0096132D02*
X0187295Y0096132D01*
X0186463Y0094533D02*
X0194400Y0094533D01*
X0200800Y0094533D02*
X0209400Y0094533D01*
X0209400Y0092934D02*
X0200800Y0092934D01*
X0200800Y0091336D02*
X0209400Y0091336D01*
X0209396Y0089737D02*
X0200800Y0089737D01*
X0200800Y0088139D02*
X0208822Y0088139D01*
X0208950Y0086540D02*
X0200800Y0086540D01*
X0203965Y0084942D02*
X0209915Y0084942D01*
X0206311Y0083343D02*
X0219400Y0083343D01*
X0219400Y0081745D02*
X0207319Y0081745D01*
X0207800Y0080146D02*
X0219400Y0080146D01*
X0219400Y0078548D02*
X0207800Y0078548D01*
X0207266Y0076949D02*
X0219400Y0076949D01*
X0219400Y0075351D02*
X0206184Y0075351D01*
X0203656Y0073752D02*
X0219400Y0073752D01*
X0219400Y0072154D02*
X0184602Y0072154D01*
X0184602Y0070555D02*
X0219400Y0070555D01*
X0219400Y0068957D02*
X0184602Y0068957D01*
X0184602Y0067358D02*
X0219400Y0067358D01*
X0219400Y0065760D02*
X0184602Y0065760D01*
X0184602Y0064161D02*
X0219400Y0064161D01*
X0219400Y0062563D02*
X0184602Y0062563D01*
X0184121Y0060964D02*
X0190377Y0060964D01*
X0189958Y0060791D02*
X0188298Y0059131D01*
X0187400Y0056963D01*
X0187400Y0054615D01*
X0188298Y0052447D01*
X0189958Y0050787D01*
X0191534Y0050134D01*
X0192271Y0049397D01*
X0193660Y0048822D01*
X0195162Y0048822D01*
X0196551Y0049397D01*
X0197043Y0049889D01*
X0203074Y0049889D01*
X0205242Y0050787D01*
X0206902Y0052447D01*
X0207800Y0054615D01*
X0207800Y0056963D01*
X0206902Y0059131D01*
X0205242Y0060791D01*
X0203074Y0061689D01*
X0192126Y0061689D01*
X0189958Y0060791D01*
X0188533Y0059366D02*
X0183112Y0059366D01*
X0180763Y0057767D02*
X0187733Y0057767D01*
X0187400Y0056169D02*
X0175961Y0056169D01*
X0175376Y0056754D02*
X0173575Y0057500D01*
X0171625Y0057500D01*
X0169824Y0056754D01*
X0168446Y0055376D01*
X0167700Y0053575D01*
X0167700Y0051625D01*
X0168446Y0049824D01*
X0169824Y0048446D01*
X0171625Y0047700D01*
X0173575Y0047700D01*
X0175376Y0048446D01*
X0176754Y0049824D01*
X0177500Y0051625D01*
X0177500Y0053575D01*
X0176754Y0055376D01*
X0175376Y0056754D01*
X0176642Y0057767D02*
X0135800Y0057767D01*
X0135800Y0059366D02*
X0174293Y0059366D01*
X0173284Y0060964D02*
X0135800Y0060964D01*
X0135800Y0062563D02*
X0172802Y0062563D01*
X0172802Y0064161D02*
X0136091Y0064161D01*
X0137141Y0065760D02*
X0172802Y0065760D01*
X0172802Y0067358D02*
X0137500Y0067358D01*
X0137342Y0068957D02*
X0172802Y0068957D01*
X0172802Y0070555D02*
X0136574Y0070555D01*
X0135961Y0056169D02*
X0169239Y0056169D01*
X0168112Y0054570D02*
X0137088Y0054570D01*
X0137500Y0052972D02*
X0167700Y0052972D01*
X0167804Y0051373D02*
X0137396Y0051373D01*
X0136704Y0049775D02*
X0168496Y0049775D01*
X0170476Y0048176D02*
X0135800Y0048176D01*
X0135800Y0046578D02*
X0219400Y0046578D01*
X0219400Y0048176D02*
X0174724Y0048176D01*
X0176704Y0049775D02*
X0191893Y0049775D01*
X0189372Y0051373D02*
X0177396Y0051373D01*
X0177500Y0052972D02*
X0188081Y0052972D01*
X0187419Y0054570D02*
X0177088Y0054570D01*
X0196929Y0049775D02*
X0219400Y0049775D01*
X0219400Y0051373D02*
X0205828Y0051373D01*
X0207119Y0052972D02*
X0219400Y0052972D01*
X0219400Y0054570D02*
X0207781Y0054570D01*
X0207800Y0056169D02*
X0219400Y0056169D01*
X0219400Y0057767D02*
X0207467Y0057767D01*
X0206667Y0059366D02*
X0219400Y0059366D01*
X0219400Y0060964D02*
X0204823Y0060964D01*
X0225800Y0060964D02*
X0229814Y0060964D01*
X0229400Y0062563D02*
X0225800Y0062563D01*
X0225800Y0064161D02*
X0229400Y0064161D01*
X0229400Y0065760D02*
X0225800Y0065760D01*
X0225800Y0067358D02*
X0229400Y0067358D01*
X0229400Y0068957D02*
X0225800Y0068957D01*
X0225800Y0070555D02*
X0229400Y0070555D01*
X0229400Y0072154D02*
X0225800Y0072154D01*
X0225800Y0073752D02*
X0229400Y0073752D01*
X0229400Y0075351D02*
X0225800Y0075351D01*
X0225800Y0076949D02*
X0229400Y0076949D01*
X0229400Y0078548D02*
X0225800Y0078548D01*
X0225800Y0080146D02*
X0229400Y0080146D01*
X0229400Y0081745D02*
X0225800Y0081745D01*
X0225800Y0083343D02*
X0229400Y0083343D01*
X0229400Y0084942D02*
X0225800Y0084942D01*
X0225800Y0086540D02*
X0229400Y0086540D01*
X0229400Y0088139D02*
X0225800Y0088139D01*
X0225800Y0089737D02*
X0229400Y0089737D01*
X0229400Y0091336D02*
X0225800Y0091336D01*
X0225800Y0092934D02*
X0229400Y0092934D01*
X0229400Y0094533D02*
X0225800Y0094533D01*
X0225800Y0096132D02*
X0229400Y0096132D01*
X0229400Y0097730D02*
X0225800Y0097730D01*
X0225800Y0099329D02*
X0229400Y0099329D01*
X0229400Y0100927D02*
X0225800Y0100927D01*
X0225800Y0102526D02*
X0229400Y0102526D01*
X0229400Y0104124D02*
X0225800Y0104124D01*
X0225800Y0105457D02*
X0225803Y0105460D01*
X0226378Y0106849D01*
X0226378Y0108351D01*
X0225803Y0109740D01*
X0224740Y0110803D01*
X0223351Y0111378D01*
X0221849Y0111378D01*
X0220460Y0110803D01*
X0219397Y0109740D01*
X0218822Y0108351D01*
X0218822Y0106849D01*
X0219397Y0105460D01*
X0219400Y0105457D01*
X0219400Y0039743D01*
X0219397Y0039740D01*
X0218822Y0038351D01*
X0218822Y0036849D01*
X0219397Y0035460D01*
X0220460Y0034397D01*
X0221849Y0033822D01*
X0223351Y0033822D01*
X0224740Y0034397D01*
X0225803Y0035460D01*
X0226378Y0036849D01*
X0226378Y0038351D01*
X0225803Y0039740D01*
X0225800Y0039743D01*
X0225800Y0105457D01*
X0225912Y0105723D02*
X0229400Y0105723D01*
X0229400Y0107321D02*
X0226378Y0107321D01*
X0226143Y0108920D02*
X0229400Y0108920D01*
X0229400Y0110518D02*
X0225025Y0110518D01*
X0229400Y0112117D02*
X0216642Y0112117D01*
X0215800Y0110518D02*
X0220175Y0110518D01*
X0219057Y0108920D02*
X0215800Y0108920D01*
X0215800Y0107321D02*
X0218822Y0107321D01*
X0219288Y0105723D02*
X0215800Y0105723D01*
X0215800Y0104124D02*
X0219400Y0104124D01*
X0219400Y0102526D02*
X0215800Y0102526D01*
X0215800Y0100927D02*
X0219400Y0100927D01*
X0219400Y0099329D02*
X0215800Y0099329D01*
X0215800Y0097730D02*
X0219400Y0097730D01*
X0219400Y0096132D02*
X0215800Y0096132D01*
X0215800Y0094533D02*
X0219400Y0094533D01*
X0219400Y0092934D02*
X0215800Y0092934D01*
X0215800Y0091336D02*
X0219400Y0091336D01*
X0219400Y0089737D02*
X0215804Y0089737D01*
X0216378Y0088139D02*
X0219400Y0088139D01*
X0219400Y0086540D02*
X0216250Y0086540D01*
X0215285Y0084942D02*
X0219400Y0084942D01*
X0235800Y0084942D02*
X0349800Y0084942D01*
X0349800Y0084369D02*
X0354369Y0079800D01*
X0354400Y0079800D01*
X0354400Y0049743D01*
X0354397Y0049740D01*
X0353822Y0048351D01*
X0353822Y0046849D01*
X0354397Y0045460D01*
X0355460Y0044397D01*
X0356849Y0043822D01*
X0358351Y0043822D01*
X0359740Y0044397D01*
X0360803Y0045460D01*
X0361378Y0046849D01*
X0361378Y0048351D01*
X0360803Y0049740D01*
X0360800Y0049743D01*
X0360800Y0079800D01*
X0360831Y0079800D01*
X0365400Y0084369D01*
X0365400Y0090831D01*
X0360831Y0095400D01*
X0354369Y0095400D01*
X0349800Y0090831D01*
X0349800Y0084369D01*
X0350826Y0083343D02*
X0235800Y0083343D01*
X0235800Y0081745D02*
X0352424Y0081745D01*
X0354023Y0080146D02*
X0235800Y0080146D01*
X0235800Y0078548D02*
X0354400Y0078548D01*
X0354400Y0076949D02*
X0253590Y0076949D01*
X0253573Y0076962D02*
X0252858Y0077326D01*
X0252094Y0077574D01*
X0251301Y0077700D01*
X0247900Y0077700D01*
X0247900Y0072900D01*
X0247300Y0072900D01*
X0247300Y0077700D01*
X0243899Y0077700D01*
X0243106Y0077574D01*
X0242342Y0077326D01*
X0241627Y0076962D01*
X0240978Y0076490D01*
X0240410Y0075922D01*
X0239938Y0075273D01*
X0239574Y0074558D01*
X0239326Y0073794D01*
X0239200Y0073001D01*
X0239200Y0072900D01*
X0247300Y0072900D01*
X0247300Y0072300D01*
X0247900Y0072300D01*
X0247900Y0072900D01*
X0256000Y0072900D01*
X0256000Y0073001D01*
X0255874Y0073794D01*
X0255626Y0074558D01*
X0255262Y0075273D01*
X0254790Y0075922D01*
X0254222Y0076490D01*
X0253573Y0076962D01*
X0255205Y0075351D02*
X0354400Y0075351D01*
X0354400Y0073752D02*
X0308639Y0073752D01*
X0308088Y0073900D02*
X0305112Y0073900D01*
X0302238Y0073130D01*
X0299662Y0071642D01*
X0297558Y0069538D01*
X0296070Y0066962D01*
X0295300Y0064088D01*
X0295300Y0061112D01*
X0296070Y0058238D01*
X0297558Y0055662D01*
X0299662Y0053558D01*
X0302238Y0052070D01*
X0305112Y0051300D01*
X0308088Y0051300D01*
X0310962Y0052070D01*
X0313538Y0053558D01*
X0315642Y0055662D01*
X0317130Y0058238D01*
X0317900Y0061112D01*
X0317900Y0064088D01*
X0317130Y0066962D01*
X0315642Y0069538D01*
X0313538Y0071642D01*
X0310962Y0073130D01*
X0308088Y0073900D01*
X0304561Y0073752D02*
X0255881Y0073752D01*
X0256000Y0072300D02*
X0247900Y0072300D01*
X0247900Y0067500D01*
X0251301Y0067500D01*
X0252094Y0067626D01*
X0252858Y0067874D01*
X0253573Y0068238D01*
X0254222Y0068710D01*
X0254790Y0069278D01*
X0255262Y0069927D01*
X0255626Y0070642D01*
X0255874Y0071406D01*
X0256000Y0072199D01*
X0256000Y0072300D01*
X0255993Y0072154D02*
X0300548Y0072154D01*
X0298575Y0070555D02*
X0255582Y0070555D01*
X0254469Y0068957D02*
X0297222Y0068957D01*
X0296299Y0067358D02*
X0252217Y0067358D01*
X0251875Y0067500D02*
X0253676Y0066754D01*
X0255054Y0065376D01*
X0255800Y0063575D01*
X0255800Y0061625D01*
X0255054Y0059824D01*
X0253676Y0058446D01*
X0251875Y0057700D01*
X0243325Y0057700D01*
X0241524Y0058446D01*
X0240146Y0059824D01*
X0239400Y0061625D01*
X0239400Y0063575D01*
X0240146Y0065376D01*
X0241524Y0066754D01*
X0243325Y0067500D01*
X0251875Y0067500D01*
X0254670Y0065760D02*
X0295748Y0065760D01*
X0295320Y0064161D02*
X0255557Y0064161D01*
X0255800Y0062563D02*
X0295300Y0062563D01*
X0295340Y0060964D02*
X0255526Y0060964D01*
X0254595Y0059366D02*
X0295768Y0059366D01*
X0296342Y0057767D02*
X0252037Y0057767D01*
X0254261Y0056169D02*
X0297265Y0056169D01*
X0298649Y0054570D02*
X0255388Y0054570D01*
X0255800Y0052972D02*
X0300677Y0052972D01*
X0304839Y0051373D02*
X0255696Y0051373D01*
X0255004Y0049775D02*
X0329400Y0049775D01*
X0329400Y0051373D02*
X0308361Y0051373D01*
X0312523Y0052972D02*
X0329400Y0052972D01*
X0329400Y0054570D02*
X0314551Y0054570D01*
X0315935Y0056169D02*
X0329400Y0056169D01*
X0329400Y0057767D02*
X0316858Y0057767D01*
X0317432Y0059366D02*
X0329400Y0059366D01*
X0329400Y0060457D02*
X0329400Y0039743D01*
X0329397Y0039740D01*
X0328822Y0038351D01*
X0328822Y0036849D01*
X0329397Y0035460D01*
X0330460Y0034397D01*
X0331849Y0033822D01*
X0333351Y0033822D01*
X0334740Y0034397D01*
X0335803Y0035460D01*
X0336378Y0036849D01*
X0336378Y0038351D01*
X0335803Y0039740D01*
X0335800Y0039743D01*
X0335800Y0060457D01*
X0335803Y0060460D01*
X0336378Y0061849D01*
X0336378Y0063351D01*
X0335803Y0064740D01*
X0334740Y0065803D01*
X0333351Y0066378D01*
X0331849Y0066378D01*
X0330460Y0065803D01*
X0329397Y0064740D01*
X0328822Y0063351D01*
X0328822Y0061849D01*
X0329397Y0060460D01*
X0329400Y0060457D01*
X0329188Y0060964D02*
X0317860Y0060964D01*
X0317900Y0062563D02*
X0328822Y0062563D01*
X0329157Y0064161D02*
X0317880Y0064161D01*
X0317452Y0065760D02*
X0330417Y0065760D01*
X0334783Y0065760D02*
X0354400Y0065760D01*
X0354400Y0067358D02*
X0316901Y0067358D01*
X0315978Y0068957D02*
X0354400Y0068957D01*
X0354400Y0070555D02*
X0314625Y0070555D01*
X0312652Y0072154D02*
X0354400Y0072154D01*
X0360800Y0072154D02*
X0411732Y0072154D01*
X0411572Y0072314D02*
X0412314Y0071572D01*
X0413146Y0070934D01*
X0414054Y0070410D01*
X0415023Y0070008D01*
X0416036Y0069737D01*
X0417076Y0069600D01*
X0417400Y0069600D01*
X0417400Y0077400D01*
X0409600Y0077400D01*
X0409600Y0077076D01*
X0409737Y0076036D01*
X0410008Y0075023D01*
X0410410Y0074054D01*
X0410934Y0073146D01*
X0411572Y0072314D01*
X0410584Y0073752D02*
X0360800Y0073752D01*
X0360800Y0075351D02*
X0409920Y0075351D01*
X0409617Y0076949D02*
X0360800Y0076949D01*
X0360800Y0078548D02*
X0409656Y0078548D01*
X0409600Y0078124D02*
X0409600Y0077800D01*
X0417400Y0077800D01*
X0417400Y0085600D01*
X0417076Y0085600D01*
X0416036Y0085463D01*
X0415023Y0085192D01*
X0414054Y0084790D01*
X0413146Y0084266D01*
X0412314Y0083628D01*
X0411572Y0082886D01*
X0410934Y0082054D01*
X0410410Y0081146D01*
X0410008Y0080177D01*
X0409737Y0079164D01*
X0409600Y0078124D01*
X0410000Y0080146D02*
X0361177Y0080146D01*
X0362776Y0081745D02*
X0410755Y0081745D01*
X0412030Y0083343D02*
X0364374Y0083343D01*
X0365400Y0084942D02*
X0414420Y0084942D01*
X0417400Y0084942D02*
X0417800Y0084942D01*
X0417800Y0085600D02*
X0417800Y0077800D01*
X0417400Y0077800D01*
X0417400Y0077400D01*
X0417800Y0077400D01*
X0417800Y0077800D01*
X0425600Y0077800D01*
X0425600Y0078124D01*
X0425463Y0079164D01*
X0425192Y0080177D01*
X0424790Y0081146D01*
X0424266Y0082054D01*
X0423628Y0082886D01*
X0422886Y0083628D01*
X0422054Y0084266D01*
X0421146Y0084790D01*
X0420177Y0085192D01*
X0419164Y0085463D01*
X0418124Y0085600D01*
X0417800Y0085600D01*
X0417800Y0083343D02*
X0417400Y0083343D01*
X0417400Y0081745D02*
X0417800Y0081745D01*
X0417800Y0080146D02*
X0417400Y0080146D01*
X0417400Y0078548D02*
X0417800Y0078548D01*
X0417800Y0077400D02*
X0425600Y0077400D01*
X0425600Y0077076D01*
X0425463Y0076036D01*
X0425192Y0075023D01*
X0424790Y0074054D01*
X0424266Y0073146D01*
X0423628Y0072314D01*
X0422886Y0071572D01*
X0422054Y0070934D01*
X0421146Y0070410D01*
X0420177Y0070008D01*
X0419164Y0069737D01*
X0418124Y0069600D01*
X0417800Y0069600D01*
X0417800Y0077400D01*
X0417800Y0076949D02*
X0417400Y0076949D01*
X0417400Y0075351D02*
X0417800Y0075351D01*
X0417800Y0073752D02*
X0417400Y0073752D01*
X0417400Y0072154D02*
X0417800Y0072154D01*
X0417800Y0070555D02*
X0417400Y0070555D01*
X0413802Y0070555D02*
X0360800Y0070555D01*
X0360800Y0068957D02*
X0454400Y0068957D01*
X0454400Y0070555D02*
X0421398Y0070555D01*
X0423468Y0072154D02*
X0454400Y0072154D01*
X0454400Y0073752D02*
X0424616Y0073752D01*
X0425280Y0075351D02*
X0454400Y0075351D01*
X0454400Y0076949D02*
X0425583Y0076949D01*
X0425544Y0078548D02*
X0454400Y0078548D01*
X0454400Y0080146D02*
X0425200Y0080146D01*
X0424445Y0081745D02*
X0454400Y0081745D01*
X0454400Y0083343D02*
X0423170Y0083343D01*
X0420780Y0084942D02*
X0454400Y0084942D01*
X0454400Y0086540D02*
X0365400Y0086540D01*
X0365400Y0088139D02*
X0454400Y0088139D01*
X0454400Y0089737D02*
X0365400Y0089737D01*
X0364895Y0091336D02*
X0454400Y0091336D01*
X0454400Y0092934D02*
X0363296Y0092934D01*
X0361698Y0094533D02*
X0454400Y0094533D01*
X0454400Y0096132D02*
X0255595Y0096132D01*
X0255800Y0096625D02*
X0255800Y0098575D01*
X0255054Y0100376D01*
X0253676Y0101754D01*
X0251875Y0102500D01*
X0243325Y0102500D01*
X0241524Y0101754D01*
X0240146Y0100376D01*
X0239400Y0098575D01*
X0239400Y0096625D01*
X0240146Y0094824D01*
X0241524Y0093446D01*
X0243325Y0092700D01*
X0251875Y0092700D01*
X0253676Y0093446D01*
X0255054Y0094824D01*
X0255800Y0096625D01*
X0255800Y0097730D02*
X0301095Y0097730D01*
X0302238Y0097070D02*
X0305112Y0096300D01*
X0308088Y0096300D01*
X0310962Y0097070D01*
X0313538Y0098558D01*
X0315642Y0100662D01*
X0317130Y0103238D01*
X0317900Y0106112D01*
X0317900Y0109088D01*
X0317130Y0111962D01*
X0315642Y0114538D01*
X0313538Y0116642D01*
X0310962Y0118130D01*
X0308088Y0118900D01*
X0305112Y0118900D01*
X0302238Y0118130D01*
X0299662Y0116642D01*
X0297558Y0114538D01*
X0296070Y0111962D01*
X0295300Y0109088D01*
X0295300Y0106112D01*
X0296070Y0103238D01*
X0297558Y0100662D01*
X0299662Y0098558D01*
X0302238Y0097070D01*
X0298891Y0099329D02*
X0255488Y0099329D01*
X0254503Y0100927D02*
X0297405Y0100927D01*
X0296482Y0102526D02*
X0251463Y0102526D01*
X0251301Y0102500D02*
X0252094Y0102626D01*
X0252858Y0102874D01*
X0253573Y0103238D01*
X0254222Y0103710D01*
X0254790Y0104278D01*
X0255262Y0104927D01*
X0255626Y0105642D01*
X0255874Y0106406D01*
X0256000Y0107199D01*
X0256000Y0107300D01*
X0247900Y0107300D01*
X0247900Y0107900D01*
X0247300Y0107900D01*
X0247300Y0112700D01*
X0243899Y0112700D01*
X0243106Y0112574D01*
X0242342Y0112326D01*
X0241627Y0111962D01*
X0240978Y0111490D01*
X0240410Y0110922D01*
X0239938Y0110273D01*
X0239574Y0109558D01*
X0239326Y0108794D01*
X0239200Y0108001D01*
X0239200Y0107900D01*
X0247300Y0107900D01*
X0247300Y0107300D01*
X0247900Y0107300D01*
X0247900Y0102500D01*
X0251301Y0102500D01*
X0247900Y0102526D02*
X0247300Y0102526D01*
X0247300Y0102500D02*
X0247300Y0107300D01*
X0239200Y0107300D01*
X0239200Y0107199D01*
X0239326Y0106406D01*
X0239574Y0105642D01*
X0239938Y0104927D01*
X0240410Y0104278D01*
X0240978Y0103710D01*
X0241627Y0103238D01*
X0242342Y0102874D01*
X0243106Y0102626D01*
X0243899Y0102500D01*
X0247300Y0102500D01*
X0247300Y0104124D02*
X0247900Y0104124D01*
X0247900Y0105723D02*
X0247300Y0105723D01*
X0247300Y0107321D02*
X0235800Y0107321D01*
X0235800Y0105723D02*
X0239548Y0105723D01*
X0240563Y0104124D02*
X0235800Y0104124D01*
X0235800Y0102526D02*
X0243737Y0102526D01*
X0240697Y0100927D02*
X0235800Y0100927D01*
X0235800Y0099329D02*
X0239712Y0099329D01*
X0239400Y0097730D02*
X0235800Y0097730D01*
X0235800Y0096132D02*
X0239605Y0096132D01*
X0240437Y0094533D02*
X0235800Y0094533D01*
X0235800Y0092934D02*
X0242759Y0092934D01*
X0235800Y0091336D02*
X0350305Y0091336D01*
X0349800Y0089737D02*
X0235800Y0089737D01*
X0235800Y0088139D02*
X0349800Y0088139D01*
X0349800Y0086540D02*
X0235800Y0086540D01*
X0252441Y0092934D02*
X0351904Y0092934D01*
X0353502Y0094533D02*
X0254763Y0094533D01*
X0254637Y0104124D02*
X0295833Y0104124D01*
X0295404Y0105723D02*
X0255652Y0105723D01*
X0256000Y0107900D02*
X0256000Y0108001D01*
X0255874Y0108794D01*
X0255626Y0109558D01*
X0255262Y0110273D01*
X0254790Y0110922D01*
X0254222Y0111490D01*
X0253573Y0111962D01*
X0252858Y0112326D01*
X0252094Y0112574D01*
X0251301Y0112700D01*
X0247900Y0112700D01*
X0247900Y0107900D01*
X0256000Y0107900D01*
X0255834Y0108920D02*
X0295300Y0108920D01*
X0295300Y0107321D02*
X0247900Y0107321D01*
X0247900Y0108920D02*
X0247300Y0108920D01*
X0247300Y0110518D02*
X0247900Y0110518D01*
X0247900Y0112117D02*
X0247300Y0112117D01*
X0243325Y0112700D02*
X0251875Y0112700D01*
X0253676Y0113446D01*
X0255054Y0114824D01*
X0255800Y0116625D01*
X0255800Y0118575D01*
X0255054Y0120376D01*
X0253676Y0121754D01*
X0251875Y0122500D01*
X0243325Y0122500D01*
X0241524Y0121754D01*
X0240146Y0120376D01*
X0239400Y0118575D01*
X0239400Y0116625D01*
X0240146Y0114824D01*
X0241524Y0113446D01*
X0243325Y0112700D01*
X0241931Y0112117D02*
X0235800Y0112117D01*
X0235800Y0113715D02*
X0241255Y0113715D01*
X0239943Y0115314D02*
X0235800Y0115314D01*
X0235800Y0116912D02*
X0239400Y0116912D01*
X0239400Y0118511D02*
X0235800Y0118511D01*
X0235800Y0120109D02*
X0240036Y0120109D01*
X0241478Y0121708D02*
X0237030Y0121708D01*
X0239428Y0123306D02*
X0351993Y0123306D01*
X0352314Y0123628D02*
X0351572Y0122886D01*
X0350934Y0122054D01*
X0350410Y0121146D01*
X0350008Y0120177D01*
X0349737Y0119164D01*
X0349600Y0118124D01*
X0349600Y0117800D01*
X0357400Y0117800D01*
X0357400Y0125600D01*
X0357076Y0125600D01*
X0356036Y0125463D01*
X0355023Y0125192D01*
X0354054Y0124790D01*
X0353146Y0124266D01*
X0352314Y0123628D01*
X0354330Y0124905D02*
X0335248Y0124905D01*
X0334740Y0124397D02*
X0335803Y0125460D01*
X0336378Y0126849D01*
X0336378Y0128351D01*
X0335803Y0129740D01*
X0335000Y0130543D01*
X0335000Y0158077D01*
X0334686Y0158835D01*
X0335179Y0159039D01*
X0336361Y0160221D01*
X0337000Y0161765D01*
X0337000Y0163435D01*
X0336361Y0164979D01*
X0335179Y0166161D01*
X0333635Y0166800D01*
X0326765Y0166800D01*
X0325221Y0166161D01*
X0324039Y0164979D01*
X0323400Y0163435D01*
X0323400Y0161765D01*
X0324039Y0160221D01*
X0325221Y0159039D01*
X0326765Y0158400D01*
X0328406Y0158400D01*
X0330200Y0156606D01*
X0330200Y0130543D01*
X0329397Y0129740D01*
X0328822Y0128351D01*
X0328822Y0126849D01*
X0329397Y0125460D01*
X0330460Y0124397D01*
X0331849Y0123822D01*
X0333351Y0123822D01*
X0334740Y0124397D01*
X0336235Y0126503D02*
X0505200Y0126503D01*
X0505200Y0124905D02*
X0480347Y0124905D01*
X0479152Y0125400D02*
X0476048Y0125400D01*
X0473182Y0124213D01*
X0470987Y0122018D01*
X0469800Y0119152D01*
X0469800Y0116048D01*
X0470987Y0113182D01*
X0473182Y0110987D01*
X0476048Y0109800D01*
X0479152Y0109800D01*
X0482018Y0110987D01*
X0484213Y0113182D01*
X0485400Y0116048D01*
X0485400Y0119152D01*
X0484213Y0122018D01*
X0482018Y0124213D01*
X0479152Y0125400D01*
X0482925Y0123306D02*
X0505200Y0123306D01*
X0505200Y0121708D02*
X0484341Y0121708D01*
X0485003Y0120109D02*
X0505200Y0120109D01*
X0505200Y0118511D02*
X0485400Y0118511D01*
X0485400Y0116912D02*
X0505200Y0116912D01*
X0505200Y0115314D02*
X0485096Y0115314D01*
X0484433Y0113715D02*
X0505200Y0113715D01*
X0505200Y0112117D02*
X0483148Y0112117D01*
X0480885Y0110518D02*
X0505200Y0110518D01*
X0505200Y0108920D02*
X0460800Y0108920D01*
X0460800Y0110518D02*
X0474315Y0110518D01*
X0472052Y0112117D02*
X0460800Y0112117D01*
X0460800Y0113715D02*
X0470766Y0113715D01*
X0470104Y0115314D02*
X0460800Y0115314D01*
X0460800Y0115457D02*
X0460803Y0115460D01*
X0461378Y0116849D01*
X0461378Y0118351D01*
X0460803Y0119740D01*
X0459740Y0120803D01*
X0458351Y0121378D01*
X0456849Y0121378D01*
X0455460Y0120803D01*
X0454397Y0119740D01*
X0453822Y0118351D01*
X0453822Y0116849D01*
X0454397Y0115460D01*
X0454400Y0115457D01*
X0454400Y0064743D01*
X0454397Y0064740D01*
X0453822Y0063351D01*
X0453822Y0061849D01*
X0454397Y0060460D01*
X0455460Y0059397D01*
X0456849Y0058822D01*
X0458351Y0058822D01*
X0459740Y0059397D01*
X0460803Y0060460D01*
X0461378Y0061849D01*
X0461378Y0063351D01*
X0460803Y0064740D01*
X0460800Y0064743D01*
X0460800Y0115457D01*
X0461378Y0116912D02*
X0469800Y0116912D01*
X0469800Y0118511D02*
X0461312Y0118511D01*
X0460434Y0120109D02*
X0470197Y0120109D01*
X0470859Y0121708D02*
X0364466Y0121708D01*
X0364266Y0122054D02*
X0363628Y0122886D01*
X0362886Y0123628D01*
X0362054Y0124266D01*
X0361146Y0124790D01*
X0360177Y0125192D01*
X0359164Y0125463D01*
X0358124Y0125600D01*
X0357800Y0125600D01*
X0357800Y0117800D01*
X0357400Y0117800D01*
X0357400Y0117400D01*
X0349600Y0117400D01*
X0349600Y0117076D01*
X0349737Y0116036D01*
X0350008Y0115023D01*
X0350410Y0114054D01*
X0350934Y0113146D01*
X0351572Y0112314D01*
X0352314Y0111572D01*
X0353146Y0110934D01*
X0354054Y0110410D01*
X0355023Y0110008D01*
X0356036Y0109737D01*
X0357076Y0109600D01*
X0357400Y0109600D01*
X0357400Y0117400D01*
X0357800Y0117400D01*
X0357800Y0117800D01*
X0365600Y0117800D01*
X0365600Y0118124D01*
X0365463Y0119164D01*
X0365192Y0120177D01*
X0364790Y0121146D01*
X0364266Y0122054D01*
X0363207Y0123306D02*
X0472275Y0123306D01*
X0474853Y0124905D02*
X0360870Y0124905D01*
X0357800Y0124905D02*
X0357400Y0124905D01*
X0357400Y0123306D02*
X0357800Y0123306D01*
X0357800Y0121708D02*
X0357400Y0121708D01*
X0357400Y0120109D02*
X0357800Y0120109D01*
X0357800Y0118511D02*
X0357400Y0118511D01*
X0357800Y0117400D02*
X0365600Y0117400D01*
X0365600Y0117076D01*
X0365463Y0116036D01*
X0365192Y0115023D01*
X0364790Y0114054D01*
X0364266Y0113146D01*
X0363628Y0112314D01*
X0362886Y0111572D01*
X0362054Y0110934D01*
X0361146Y0110410D01*
X0360177Y0110008D01*
X0359164Y0109737D01*
X0358124Y0109600D01*
X0357800Y0109600D01*
X0357800Y0117400D01*
X0357800Y0116912D02*
X0357400Y0116912D01*
X0357400Y0115314D02*
X0357800Y0115314D01*
X0357800Y0113715D02*
X0357400Y0113715D01*
X0357400Y0112117D02*
X0357800Y0112117D01*
X0357800Y0110518D02*
X0357400Y0110518D01*
X0353866Y0110518D02*
X0317517Y0110518D01*
X0317900Y0108920D02*
X0454400Y0108920D01*
X0454400Y0110518D02*
X0361334Y0110518D01*
X0363430Y0112117D02*
X0454400Y0112117D01*
X0454400Y0113715D02*
X0364595Y0113715D01*
X0365270Y0115314D02*
X0454400Y0115314D01*
X0453822Y0116912D02*
X0365578Y0116912D01*
X0365549Y0118511D02*
X0453888Y0118511D01*
X0454766Y0120109D02*
X0365210Y0120109D01*
X0350734Y0121708D02*
X0253722Y0121708D01*
X0255164Y0120109D02*
X0349990Y0120109D01*
X0349651Y0118511D02*
X0309541Y0118511D01*
X0313071Y0116912D02*
X0349622Y0116912D01*
X0349930Y0115314D02*
X0314867Y0115314D01*
X0316118Y0113715D02*
X0350605Y0113715D01*
X0351770Y0112117D02*
X0317040Y0112117D01*
X0317900Y0107321D02*
X0454400Y0107321D01*
X0454400Y0105723D02*
X0317796Y0105723D01*
X0317367Y0104124D02*
X0454400Y0104124D01*
X0454400Y0102526D02*
X0316718Y0102526D01*
X0315795Y0100927D02*
X0454400Y0100927D01*
X0454400Y0099329D02*
X0314309Y0099329D01*
X0312105Y0097730D02*
X0454400Y0097730D01*
X0460800Y0097730D02*
X0505200Y0097730D01*
X0505200Y0096132D02*
X0460800Y0096132D01*
X0460800Y0094533D02*
X0473219Y0094533D01*
X0474286Y0095600D02*
X0469600Y0090914D01*
X0469600Y0087800D01*
X0477400Y0087800D01*
X0477400Y0095600D01*
X0474286Y0095600D01*
X0477400Y0094533D02*
X0477800Y0094533D01*
X0477800Y0095600D02*
X0477800Y0087800D01*
X0477400Y0087800D01*
X0477400Y0087400D01*
X0469600Y0087400D01*
X0469600Y0084286D01*
X0474286Y0079600D01*
X0477400Y0079600D01*
X0477400Y0087400D01*
X0477800Y0087400D01*
X0477800Y0087800D01*
X0485600Y0087800D01*
X0485600Y0090914D01*
X0480914Y0095600D01*
X0477800Y0095600D01*
X0477800Y0092934D02*
X0477400Y0092934D01*
X0477400Y0091336D02*
X0477800Y0091336D01*
X0477800Y0089737D02*
X0477400Y0089737D01*
X0477400Y0088139D02*
X0477800Y0088139D01*
X0477800Y0087400D02*
X0485600Y0087400D01*
X0485600Y0084286D01*
X0480914Y0079600D01*
X0477800Y0079600D01*
X0477800Y0087400D01*
X0477800Y0086540D02*
X0477400Y0086540D01*
X0477400Y0084942D02*
X0477800Y0084942D01*
X0477800Y0083343D02*
X0477400Y0083343D01*
X0477400Y0081745D02*
X0477800Y0081745D01*
X0477800Y0080146D02*
X0477400Y0080146D01*
X0473740Y0080146D02*
X0460800Y0080146D01*
X0460800Y0078548D02*
X0505200Y0078548D01*
X0505200Y0080146D02*
X0481460Y0080146D01*
X0483059Y0081745D02*
X0505200Y0081745D01*
X0505200Y0083343D02*
X0484657Y0083343D01*
X0485600Y0084942D02*
X0505200Y0084942D01*
X0505200Y0086540D02*
X0485600Y0086540D01*
X0485600Y0088139D02*
X0505200Y0088139D01*
X0505200Y0089737D02*
X0485600Y0089737D01*
X0485178Y0091336D02*
X0505200Y0091336D01*
X0505200Y0092934D02*
X0483579Y0092934D01*
X0481981Y0094533D02*
X0505200Y0094533D01*
X0510000Y0094533D02*
X0534400Y0094533D01*
X0534400Y0092934D02*
X0510000Y0092934D01*
X0510000Y0091336D02*
X0534400Y0091336D01*
X0534400Y0089737D02*
X0510000Y0089737D01*
X0510000Y0088139D02*
X0534400Y0088139D01*
X0534400Y0086540D02*
X0510000Y0086540D01*
X0510000Y0084942D02*
X0534400Y0084942D01*
X0534400Y0084717D02*
X0533182Y0084213D01*
X0530987Y0082018D01*
X0529800Y0079152D01*
X0529800Y0076048D01*
X0530987Y0073182D01*
X0533182Y0070987D01*
X0536048Y0069800D01*
X0539152Y0069800D01*
X0542018Y0070987D01*
X0544213Y0073182D01*
X0545400Y0076048D01*
X0545400Y0079152D01*
X0544213Y0082018D01*
X0542018Y0084213D01*
X0540800Y0084717D01*
X0540800Y0115457D01*
X0540803Y0115460D01*
X0541378Y0116849D01*
X0541378Y0118351D01*
X0540803Y0119740D01*
X0539740Y0120803D01*
X0538351Y0121378D01*
X0536849Y0121378D01*
X0535460Y0120803D01*
X0534397Y0119740D01*
X0533822Y0118351D01*
X0533822Y0116849D01*
X0534397Y0115460D01*
X0534400Y0115457D01*
X0534400Y0084717D01*
X0532313Y0083343D02*
X0510000Y0083343D01*
X0510000Y0081745D02*
X0530874Y0081745D01*
X0530212Y0080146D02*
X0510000Y0080146D01*
X0510000Y0078548D02*
X0529800Y0078548D01*
X0529800Y0076949D02*
X0510000Y0076949D01*
X0510000Y0075351D02*
X0530089Y0075351D01*
X0530751Y0073752D02*
X0510000Y0073752D01*
X0510000Y0072154D02*
X0532015Y0072154D01*
X0534225Y0070555D02*
X0510000Y0070555D01*
X0510000Y0068957D02*
X0585303Y0068957D01*
X0585860Y0068400D02*
X0583400Y0070860D01*
X0583400Y0074340D01*
X0585860Y0076800D01*
X0589340Y0076800D01*
X0591800Y0074340D01*
X0591800Y0070860D01*
X0589340Y0068400D01*
X0585860Y0068400D01*
X0583705Y0070555D02*
X0540975Y0070555D01*
X0543185Y0072154D02*
X0583400Y0072154D01*
X0583400Y0073752D02*
X0544449Y0073752D01*
X0545111Y0075351D02*
X0584411Y0075351D01*
X0590789Y0075351D02*
X0599411Y0075351D01*
X0598400Y0074340D02*
X0600860Y0076800D01*
X0604340Y0076800D01*
X0606800Y0074340D01*
X0606800Y0070860D01*
X0604340Y0068400D01*
X0600860Y0068400D01*
X0598400Y0070860D01*
X0598400Y0074340D01*
X0598400Y0073752D02*
X0591800Y0073752D01*
X0591800Y0072154D02*
X0598400Y0072154D01*
X0598705Y0070555D02*
X0591495Y0070555D01*
X0589897Y0068957D02*
X0600303Y0068957D01*
X0604897Y0068957D02*
X0613446Y0068957D01*
X0613527Y0069220D02*
X0613527Y0069220D01*
X0614437Y0070555D02*
X0606495Y0070555D01*
X0606800Y0072154D02*
X0615527Y0072154D01*
X0616843Y0073752D02*
X0606800Y0073752D01*
X0605789Y0075351D02*
X0618847Y0075351D01*
X0620263Y0076480D02*
X0620263Y0076480D01*
X0621459Y0076949D02*
X0545400Y0076949D01*
X0545400Y0078548D02*
X0628106Y0078548D01*
X0629918Y0078684D02*
X0629918Y0078684D01*
X0630514Y0078548D02*
X0637643Y0078548D01*
X0637643Y0080146D02*
X0620086Y0080146D01*
X0619979Y0080039D02*
X0621161Y0081221D01*
X0621800Y0082765D01*
X0621800Y0084435D01*
X0621161Y0085979D01*
X0619979Y0087161D01*
X0619358Y0087418D01*
X0621800Y0089860D01*
X0621800Y0093340D01*
X0620000Y0095140D01*
X0620000Y0103495D01*
X0622200Y0105695D01*
X0622200Y0109505D01*
X0620000Y0111705D01*
X0620000Y0113495D01*
X0622200Y0115695D01*
X0622200Y0119505D01*
X0619505Y0122200D01*
X0615695Y0122200D01*
X0613000Y0119505D01*
X0613000Y0115695D01*
X0615200Y0113495D01*
X0615200Y0111705D01*
X0613000Y0109505D01*
X0613000Y0105695D01*
X0615200Y0103495D01*
X0615200Y0095140D01*
X0613400Y0093340D01*
X0613400Y0089860D01*
X0615842Y0087418D01*
X0615221Y0087161D01*
X0614039Y0085979D01*
X0613400Y0084435D01*
X0613400Y0082765D01*
X0614039Y0081221D01*
X0615221Y0080039D01*
X0616765Y0079400D01*
X0618435Y0079400D01*
X0619979Y0080039D01*
X0621378Y0081745D02*
X0637643Y0081745D01*
X0637643Y0083343D02*
X0621800Y0083343D01*
X0621590Y0084942D02*
X0637643Y0084942D01*
X0637643Y0086540D02*
X0620599Y0086540D01*
X0620079Y0088139D02*
X0637643Y0088139D01*
X0637643Y0089737D02*
X0621677Y0089737D01*
X0621800Y0091336D02*
X0637643Y0091336D01*
X0637643Y0092934D02*
X0621800Y0092934D01*
X0620607Y0094533D02*
X0637643Y0094533D01*
X0637643Y0096132D02*
X0620000Y0096132D01*
X0620000Y0097730D02*
X0637643Y0097730D01*
X0637643Y0099329D02*
X0620000Y0099329D01*
X0620000Y0100927D02*
X0637643Y0100927D01*
X0637643Y0102526D02*
X0620000Y0102526D01*
X0620629Y0104124D02*
X0637643Y0104124D01*
X0637643Y0105723D02*
X0622200Y0105723D01*
X0622200Y0107321D02*
X0637643Y0107321D01*
X0637643Y0108920D02*
X0622200Y0108920D01*
X0621187Y0110518D02*
X0637643Y0110518D01*
X0637643Y0112117D02*
X0620000Y0112117D01*
X0620221Y0113715D02*
X0637643Y0113715D01*
X0637643Y0115314D02*
X0621819Y0115314D01*
X0622200Y0116912D02*
X0637643Y0116912D01*
X0637643Y0118511D02*
X0622200Y0118511D01*
X0621596Y0120109D02*
X0637643Y0120109D01*
X0637643Y0121708D02*
X0619998Y0121708D01*
X0615202Y0121708D02*
X0610000Y0121708D01*
X0610000Y0121705D02*
X0610000Y0130060D01*
X0611800Y0131860D01*
X0611800Y0135340D01*
X0609358Y0137782D01*
X0609979Y0138039D01*
X0611161Y0139221D01*
X0611800Y0140765D01*
X0611800Y0142435D01*
X0611161Y0143979D01*
X0610000Y0145140D01*
X0610000Y0168077D01*
X0609635Y0168959D01*
X0601800Y0176794D01*
X0601800Y0179340D01*
X0600000Y0181140D01*
X0600000Y0194060D01*
X0601800Y0195860D01*
X0601800Y0199340D01*
X0599340Y0201800D01*
X0595860Y0201800D01*
X0593400Y0199340D01*
X0593400Y0195860D01*
X0595200Y0194060D01*
X0595200Y0181140D01*
X0593400Y0179340D01*
X0593400Y0175860D01*
X0595860Y0173400D01*
X0598406Y0173400D01*
X0605200Y0166606D01*
X0605200Y0145140D01*
X0604039Y0143979D01*
X0603400Y0142435D01*
X0603400Y0140765D01*
X0604039Y0139221D01*
X0605221Y0138039D01*
X0605842Y0137782D01*
X0603400Y0135340D01*
X0603400Y0131860D01*
X0605200Y0130060D01*
X0605200Y0121705D01*
X0603000Y0119505D01*
X0603000Y0115695D01*
X0605200Y0113495D01*
X0605200Y0111705D01*
X0603000Y0109505D01*
X0603000Y0105695D01*
X0605695Y0103000D01*
X0609505Y0103000D01*
X0612200Y0105695D01*
X0612200Y0109505D01*
X0610000Y0111705D01*
X0610000Y0113495D01*
X0612200Y0115695D01*
X0612200Y0119505D01*
X0610000Y0121705D01*
X0610000Y0123306D02*
X0637643Y0123306D01*
X0637643Y0124905D02*
X0610000Y0124905D01*
X0610000Y0126503D02*
X0637643Y0126503D01*
X0637643Y0128102D02*
X0610000Y0128102D01*
X0610000Y0129700D02*
X0637643Y0129700D01*
X0637643Y0131299D02*
X0611238Y0131299D01*
X0611800Y0132897D02*
X0637643Y0132897D01*
X0637643Y0134496D02*
X0611800Y0134496D01*
X0611045Y0136094D02*
X0637643Y0136094D01*
X0637643Y0137693D02*
X0609447Y0137693D01*
X0611190Y0139291D02*
X0637643Y0139291D01*
X0637643Y0140890D02*
X0611800Y0140890D01*
X0611778Y0142488D02*
X0637643Y0142488D01*
X0637643Y0144087D02*
X0611053Y0144087D01*
X0610000Y0145685D02*
X0637643Y0145685D01*
X0637643Y0147284D02*
X0610000Y0147284D01*
X0610000Y0148882D02*
X0637643Y0148882D01*
X0637643Y0150481D02*
X0610000Y0150481D01*
X0610000Y0152079D02*
X0637643Y0152079D01*
X0637643Y0153678D02*
X0610000Y0153678D01*
X0610000Y0155276D02*
X0637643Y0155276D01*
X0637643Y0156875D02*
X0610000Y0156875D01*
X0610000Y0158473D02*
X0637643Y0158473D01*
X0637643Y0160072D02*
X0610000Y0160072D01*
X0610000Y0161670D02*
X0637643Y0161670D01*
X0637643Y0163269D02*
X0610000Y0163269D01*
X0610000Y0164868D02*
X0621853Y0164868D01*
X0620263Y0165492D02*
X0620263Y0165492D01*
X0619041Y0166466D02*
X0610000Y0166466D01*
X0610000Y0168065D02*
X0617037Y0168065D01*
X0616348Y0168614D02*
X0616348Y0168614D01*
X0616348Y0168614D01*
X0615633Y0169663D02*
X0608931Y0169663D01*
X0607333Y0171262D02*
X0614543Y0171262D01*
X0613493Y0172860D02*
X0605734Y0172860D01*
X0604136Y0174459D02*
X0613000Y0174459D01*
X0612507Y0176057D02*
X0602537Y0176057D01*
X0601800Y0177656D02*
X0612051Y0177656D01*
X0612051Y0179254D02*
X0601800Y0179254D01*
X0600287Y0180853D02*
X0612051Y0180853D01*
X0612051Y0182451D02*
X0600000Y0182451D01*
X0600000Y0184050D02*
X0612515Y0184050D01*
X0613008Y0185648D02*
X0600000Y0185648D01*
X0600000Y0187247D02*
X0613501Y0187247D01*
X0613527Y0187330D02*
X0613527Y0187330D01*
X0614560Y0188845D02*
X0600000Y0188845D01*
X0600000Y0190444D02*
X0615649Y0190444D01*
X0616348Y0191468D02*
X0616348Y0191468D01*
X0617068Y0192042D02*
X0600000Y0192042D01*
X0600000Y0193641D02*
X0619072Y0193641D01*
X0620263Y0194590D02*
X0620263Y0194590D01*
X0621917Y0195239D02*
X0601179Y0195239D01*
X0601800Y0196838D02*
X0637643Y0196838D01*
X0637643Y0198436D02*
X0601800Y0198436D01*
X0601105Y0200035D02*
X0637643Y0200035D01*
X0637643Y0201633D02*
X0599506Y0201633D01*
X0595694Y0201633D02*
X0569506Y0201633D01*
X0569340Y0201800D02*
X0571800Y0199340D01*
X0571800Y0195860D01*
X0569340Y0193400D01*
X0565860Y0193400D01*
X0564060Y0195200D01*
X0558594Y0195200D01*
X0555000Y0191606D01*
X0555000Y0160543D01*
X0555803Y0159740D01*
X0556378Y0158351D01*
X0556378Y0156849D01*
X0555803Y0155460D01*
X0554740Y0154397D01*
X0553351Y0153822D01*
X0551849Y0153822D01*
X0550460Y0154397D01*
X0549397Y0155460D01*
X0548822Y0156849D01*
X0548822Y0158351D01*
X0549397Y0159740D01*
X0550200Y0160543D01*
X0550200Y0193077D01*
X0550565Y0193959D01*
X0555565Y0198959D01*
X0556241Y0199635D01*
X0557123Y0200000D01*
X0564060Y0200000D01*
X0565860Y0201800D01*
X0569340Y0201800D01*
X0571105Y0200035D02*
X0594095Y0200035D01*
X0593400Y0198436D02*
X0571800Y0198436D01*
X0571800Y0196838D02*
X0593400Y0196838D01*
X0594021Y0195239D02*
X0571179Y0195239D01*
X0569580Y0193641D02*
X0595200Y0193641D01*
X0595200Y0192042D02*
X0555436Y0192042D01*
X0555000Y0190444D02*
X0595200Y0190444D01*
X0595200Y0188845D02*
X0555000Y0188845D01*
X0555000Y0187247D02*
X0595200Y0187247D01*
X0595200Y0185648D02*
X0555000Y0185648D01*
X0555000Y0184050D02*
X0595200Y0184050D01*
X0595200Y0182451D02*
X0555000Y0182451D01*
X0555000Y0180853D02*
X0564630Y0180853D01*
X0565777Y0182000D02*
X0563200Y0179423D01*
X0563200Y0177600D01*
X0567600Y0177600D01*
X0572000Y0177600D01*
X0572000Y0179423D01*
X0569423Y0182000D01*
X0567600Y0182000D01*
X0567600Y0177600D01*
X0567600Y0177600D01*
X0567600Y0177600D01*
X0572000Y0177600D01*
X0572000Y0175777D01*
X0569423Y0173200D01*
X0567600Y0173200D01*
X0567600Y0177600D01*
X0567600Y0177600D01*
X0567600Y0177600D01*
X0567600Y0182000D01*
X0565777Y0182000D01*
X0567600Y0180853D02*
X0567600Y0180853D01*
X0567600Y0179254D02*
X0567600Y0179254D01*
X0567600Y0177656D02*
X0567600Y0177656D01*
X0567600Y0177600D02*
X0563200Y0177600D01*
X0563200Y0175777D01*
X0565777Y0173200D01*
X0567600Y0173200D01*
X0567600Y0177600D01*
X0567600Y0176057D02*
X0567600Y0176057D01*
X0567600Y0174459D02*
X0567600Y0174459D01*
X0570681Y0174459D02*
X0594802Y0174459D01*
X0593400Y0176057D02*
X0572000Y0176057D01*
X0572000Y0177656D02*
X0593400Y0177656D01*
X0593400Y0179254D02*
X0572000Y0179254D01*
X0570570Y0180853D02*
X0594913Y0180853D01*
X0597600Y0177600D02*
X0597600Y0197600D01*
X0624925Y0196420D02*
X0624925Y0196420D01*
X0629918Y0196794D02*
X0629918Y0196794D01*
X0635563Y0195239D02*
X0637643Y0195239D01*
X0637643Y0203232D02*
X0545305Y0203232D01*
X0545305Y0204830D02*
X0637643Y0204830D01*
X0637643Y0206429D02*
X0545305Y0206429D01*
X0545305Y0206800D02*
X0538400Y0206800D01*
X0538400Y0199894D01*
X0543742Y0199894D01*
X0544200Y0200017D01*
X0544611Y0200254D01*
X0544946Y0200589D01*
X0545183Y0201000D01*
X0545305Y0201458D01*
X0545305Y0206800D01*
X0545305Y0209626D02*
X0637285Y0209626D01*
X0637615Y0208027D02*
X0538400Y0208027D01*
X0538400Y0206429D02*
X0536800Y0206429D01*
X0536800Y0206800D02*
X0536800Y0199894D01*
X0531458Y0199894D01*
X0531000Y0200017D01*
X0530589Y0200254D01*
X0530254Y0200589D01*
X0530017Y0201000D01*
X0529894Y0201458D01*
X0529894Y0206800D01*
X0536800Y0206800D01*
X0536800Y0208027D02*
X0473400Y0208027D01*
X0473400Y0206800D02*
X0480305Y0206800D01*
X0480305Y0201458D01*
X0480183Y0201000D01*
X0479946Y0200589D01*
X0479611Y0200254D01*
X0479200Y0200017D01*
X0478742Y0199894D01*
X0473400Y0199894D01*
X0473400Y0206800D01*
X0473400Y0206429D02*
X0471800Y0206429D01*
X0471800Y0206800D02*
X0471800Y0199894D01*
X0466458Y0199894D01*
X0466000Y0200017D01*
X0465589Y0200254D01*
X0465254Y0200589D01*
X0465017Y0201000D01*
X0464894Y0201458D01*
X0464894Y0206800D01*
X0471800Y0206800D01*
X0471800Y0208027D02*
X0448400Y0208027D01*
X0448400Y0206800D02*
X0455305Y0206800D01*
X0455305Y0201458D01*
X0455183Y0201000D01*
X0454946Y0200589D01*
X0454611Y0200254D01*
X0454200Y0200017D01*
X0453742Y0199894D01*
X0448400Y0199894D01*
X0448400Y0206800D01*
X0448400Y0206429D02*
X0446800Y0206429D01*
X0446800Y0206800D02*
X0446800Y0199894D01*
X0441458Y0199894D01*
X0441000Y0200017D01*
X0440589Y0200254D01*
X0440254Y0200589D01*
X0440017Y0201000D01*
X0439894Y0201458D01*
X0439894Y0206800D01*
X0446800Y0206800D01*
X0446800Y0208027D02*
X0383400Y0208027D01*
X0383400Y0206800D02*
X0390305Y0206800D01*
X0390305Y0201458D01*
X0390183Y0201000D01*
X0389946Y0200589D01*
X0389611Y0200254D01*
X0389200Y0200017D01*
X0388742Y0199894D01*
X0383400Y0199894D01*
X0383400Y0206800D01*
X0383400Y0206429D02*
X0381800Y0206429D01*
X0381800Y0206800D02*
X0381800Y0199894D01*
X0376458Y0199894D01*
X0376000Y0200017D01*
X0375589Y0200254D01*
X0375254Y0200589D01*
X0375017Y0201000D01*
X0374894Y0201458D01*
X0374894Y0206800D01*
X0381800Y0206800D01*
X0381800Y0208027D02*
X0367000Y0208027D01*
X0367000Y0207600D02*
X0367000Y0209423D01*
X0364423Y0212000D01*
X0362600Y0212000D01*
X0362600Y0207600D01*
X0362600Y0207600D01*
X0367000Y0207600D01*
X0362600Y0207600D01*
X0362600Y0207600D01*
X0362600Y0207600D01*
X0358200Y0207600D01*
X0358200Y0209423D01*
X0360777Y0212000D01*
X0362600Y0212000D01*
X0362600Y0207600D01*
X0362600Y0203200D01*
X0364423Y0203200D01*
X0367000Y0205777D01*
X0367000Y0207600D01*
X0367000Y0206429D02*
X0374894Y0206429D01*
X0374894Y0204830D02*
X0366053Y0204830D01*
X0364454Y0203232D02*
X0374894Y0203232D01*
X0374894Y0201633D02*
X0320000Y0201633D01*
X0320000Y0200035D02*
X0375969Y0200035D01*
X0381800Y0200035D02*
X0383400Y0200035D01*
X0383400Y0201633D02*
X0381800Y0201633D01*
X0381800Y0203232D02*
X0383400Y0203232D01*
X0383400Y0204830D02*
X0381800Y0204830D01*
X0390305Y0204830D02*
X0439894Y0204830D01*
X0439894Y0203232D02*
X0390305Y0203232D01*
X0390305Y0201633D02*
X0439894Y0201633D01*
X0440969Y0200035D02*
X0389231Y0200035D01*
X0390305Y0206429D02*
X0439894Y0206429D01*
X0446800Y0204830D02*
X0448400Y0204830D01*
X0448400Y0203232D02*
X0446800Y0203232D01*
X0446800Y0201633D02*
X0448400Y0201633D01*
X0448400Y0200035D02*
X0446800Y0200035D01*
X0454231Y0200035D02*
X0465969Y0200035D01*
X0464894Y0201633D02*
X0455305Y0201633D01*
X0455305Y0203232D02*
X0464894Y0203232D01*
X0464894Y0204830D02*
X0455305Y0204830D01*
X0455305Y0206429D02*
X0464894Y0206429D01*
X0471800Y0204830D02*
X0473400Y0204830D01*
X0473400Y0203232D02*
X0471800Y0203232D01*
X0471800Y0201633D02*
X0473400Y0201633D01*
X0473400Y0200035D02*
X0471800Y0200035D01*
X0479231Y0200035D02*
X0530969Y0200035D01*
X0529894Y0201633D02*
X0480305Y0201633D01*
X0480305Y0203232D02*
X0529894Y0203232D01*
X0529894Y0204830D02*
X0480305Y0204830D01*
X0480305Y0206429D02*
X0529894Y0206429D01*
X0536800Y0204830D02*
X0538400Y0204830D01*
X0538400Y0203232D02*
X0536800Y0203232D01*
X0536800Y0201633D02*
X0538400Y0201633D01*
X0538400Y0200035D02*
X0536800Y0200035D01*
X0544231Y0200035D02*
X0564095Y0200035D01*
X0565694Y0201633D02*
X0545305Y0201633D01*
X0551845Y0195239D02*
X0336100Y0195239D01*
X0336361Y0194979D02*
X0335179Y0196161D01*
X0333635Y0196800D01*
X0326765Y0196800D01*
X0325221Y0196161D01*
X0324039Y0194979D01*
X0323400Y0193435D01*
X0323400Y0191765D01*
X0324039Y0190221D01*
X0325221Y0189039D01*
X0326765Y0188400D01*
X0333635Y0188400D01*
X0335179Y0189039D01*
X0336361Y0190221D01*
X0337000Y0191765D01*
X0337000Y0193435D01*
X0336361Y0194979D01*
X0336915Y0193641D02*
X0550433Y0193641D01*
X0550200Y0192042D02*
X0337000Y0192042D01*
X0336453Y0190444D02*
X0445101Y0190444D01*
X0445460Y0190803D02*
X0444397Y0189740D01*
X0443822Y0188351D01*
X0443822Y0186849D01*
X0444397Y0185460D01*
X0445460Y0184397D01*
X0446849Y0183822D01*
X0448351Y0183822D01*
X0449740Y0184397D01*
X0450803Y0185460D01*
X0451378Y0186849D01*
X0451378Y0188351D01*
X0450803Y0189740D01*
X0449740Y0190803D01*
X0448351Y0191378D01*
X0446849Y0191378D01*
X0445460Y0190803D01*
X0444027Y0188845D02*
X0334710Y0188845D01*
X0333635Y0186800D02*
X0326765Y0186800D01*
X0325221Y0186161D01*
X0324060Y0185000D01*
X0320000Y0185000D01*
X0320000Y0204657D01*
X0320803Y0205460D01*
X0321378Y0206849D01*
X0321378Y0208351D01*
X0320803Y0209740D01*
X0319740Y0210803D01*
X0318351Y0211378D01*
X0316849Y0211378D01*
X0315460Y0210803D01*
X0314397Y0209740D01*
X0313822Y0208351D01*
X0313822Y0206849D01*
X0314397Y0205460D01*
X0315200Y0204657D01*
X0315200Y0157123D01*
X0315565Y0156241D01*
X0320200Y0151606D01*
X0320200Y0130543D01*
X0319397Y0129740D01*
X0318822Y0128351D01*
X0318822Y0126849D01*
X0319397Y0125460D01*
X0320460Y0124397D01*
X0321849Y0123822D01*
X0323351Y0123822D01*
X0324740Y0124397D01*
X0325803Y0125460D01*
X0326378Y0126849D01*
X0326378Y0128351D01*
X0325803Y0129740D01*
X0325000Y0130543D01*
X0325000Y0153077D01*
X0324635Y0153959D01*
X0320000Y0158594D01*
X0320000Y0180200D01*
X0324060Y0180200D01*
X0325221Y0179039D01*
X0326765Y0178400D01*
X0333635Y0178400D01*
X0335179Y0179039D01*
X0336361Y0180221D01*
X0337000Y0181765D01*
X0337000Y0183435D01*
X0336361Y0184979D01*
X0335179Y0186161D01*
X0333635Y0186800D01*
X0335692Y0185648D02*
X0444319Y0185648D01*
X0443822Y0187247D02*
X0320000Y0187247D01*
X0320000Y0188845D02*
X0325690Y0188845D01*
X0323947Y0190444D02*
X0320000Y0190444D01*
X0320000Y0192042D02*
X0323400Y0192042D01*
X0323485Y0193641D02*
X0320000Y0193641D01*
X0320000Y0195239D02*
X0324300Y0195239D01*
X0320000Y0196838D02*
X0553444Y0196838D01*
X0555042Y0198436D02*
X0320000Y0198436D01*
X0315200Y0198436D02*
X0300000Y0198436D01*
X0300000Y0196838D02*
X0315200Y0196838D01*
X0315200Y0195239D02*
X0310304Y0195239D01*
X0310803Y0194740D02*
X0309740Y0195803D01*
X0308351Y0196378D01*
X0306849Y0196378D01*
X0305460Y0195803D01*
X0304397Y0194740D01*
X0303822Y0193351D01*
X0303822Y0191849D01*
X0304397Y0190460D01*
X0304400Y0190457D01*
X0304400Y0139743D01*
X0304397Y0139740D01*
X0303822Y0138351D01*
X0303822Y0136849D01*
X0304397Y0135460D01*
X0305460Y0134397D01*
X0306849Y0133822D01*
X0308351Y0133822D01*
X0309740Y0134397D01*
X0310803Y0135460D01*
X0311378Y0136849D01*
X0311378Y0138351D01*
X0310803Y0139740D01*
X0310800Y0139743D01*
X0310800Y0190457D01*
X0310803Y0190460D01*
X0311378Y0191849D01*
X0311378Y0193351D01*
X0310803Y0194740D01*
X0311258Y0193641D02*
X0315200Y0193641D01*
X0315200Y0192042D02*
X0311378Y0192042D01*
X0310800Y0190444D02*
X0315200Y0190444D01*
X0315200Y0188845D02*
X0310800Y0188845D01*
X0310800Y0187247D02*
X0315200Y0187247D01*
X0315200Y0185648D02*
X0310800Y0185648D01*
X0310800Y0184050D02*
X0315200Y0184050D01*
X0315200Y0182451D02*
X0310800Y0182451D01*
X0310800Y0180853D02*
X0315200Y0180853D01*
X0315200Y0179254D02*
X0310800Y0179254D01*
X0310800Y0177656D02*
X0315200Y0177656D01*
X0315200Y0176057D02*
X0310800Y0176057D01*
X0310800Y0174459D02*
X0315200Y0174459D01*
X0315200Y0172860D02*
X0310800Y0172860D01*
X0310800Y0171262D02*
X0315200Y0171262D01*
X0315200Y0169663D02*
X0310800Y0169663D01*
X0310800Y0168065D02*
X0315200Y0168065D01*
X0315200Y0166466D02*
X0310800Y0166466D01*
X0310800Y0164868D02*
X0315200Y0164868D01*
X0315200Y0163269D02*
X0310800Y0163269D01*
X0310800Y0161670D02*
X0315200Y0161670D01*
X0315200Y0160072D02*
X0310800Y0160072D01*
X0310800Y0158473D02*
X0315200Y0158473D01*
X0315303Y0156875D02*
X0310800Y0156875D01*
X0310800Y0155276D02*
X0316529Y0155276D01*
X0318128Y0153678D02*
X0310800Y0153678D01*
X0310800Y0152079D02*
X0319726Y0152079D01*
X0320200Y0150481D02*
X0310800Y0150481D01*
X0310800Y0148882D02*
X0320200Y0148882D01*
X0320200Y0147284D02*
X0310800Y0147284D01*
X0310800Y0145685D02*
X0320200Y0145685D01*
X0320200Y0144087D02*
X0310800Y0144087D01*
X0310800Y0142488D02*
X0320200Y0142488D01*
X0320200Y0140890D02*
X0310800Y0140890D01*
X0310989Y0139291D02*
X0320200Y0139291D01*
X0320200Y0137693D02*
X0311378Y0137693D01*
X0311066Y0136094D02*
X0320200Y0136094D01*
X0320200Y0134496D02*
X0309839Y0134496D01*
X0305361Y0134496D02*
X0300904Y0134496D01*
X0300803Y0134740D02*
X0301378Y0133351D01*
X0301378Y0131849D01*
X0300803Y0130460D01*
X0299740Y0129397D01*
X0298351Y0128822D01*
X0296849Y0128822D01*
X0295460Y0129397D01*
X0294397Y0130460D01*
X0293822Y0131849D01*
X0293822Y0133351D01*
X0294397Y0134740D01*
X0294400Y0134743D01*
X0294400Y0158400D01*
X0291565Y0158400D01*
X0290021Y0159039D01*
X0290000Y0159060D01*
X0290000Y0150543D01*
X0290803Y0149740D01*
X0291378Y0148351D01*
X0291378Y0146849D01*
X0290803Y0145460D01*
X0289740Y0144397D01*
X0288351Y0143822D01*
X0286849Y0143822D01*
X0285460Y0144397D01*
X0284397Y0145460D01*
X0283822Y0146849D01*
X0283822Y0148351D01*
X0284397Y0149740D01*
X0285200Y0150543D01*
X0285200Y0168077D01*
X0285565Y0168959D01*
X0286241Y0169635D01*
X0288250Y0171644D01*
X0288200Y0171765D01*
X0288200Y0173435D01*
X0288839Y0174979D01*
X0290021Y0176161D01*
X0291565Y0176800D01*
X0298435Y0176800D01*
X0299979Y0176161D01*
X0301161Y0174979D01*
X0301800Y0173435D01*
X0301800Y0171765D01*
X0301161Y0170221D01*
X0299979Y0169039D01*
X0298435Y0168400D01*
X0291794Y0168400D01*
X0290000Y0166606D01*
X0290000Y0166140D01*
X0290021Y0166161D01*
X0291565Y0166800D01*
X0298435Y0166800D01*
X0299979Y0166161D01*
X0301161Y0164979D01*
X0301800Y0163435D01*
X0301800Y0161765D01*
X0301161Y0160221D01*
X0300800Y0159860D01*
X0300800Y0134743D01*
X0300803Y0134740D01*
X0300800Y0136094D02*
X0304134Y0136094D01*
X0303822Y0137693D02*
X0300800Y0137693D01*
X0300800Y0139291D02*
X0304211Y0139291D01*
X0304400Y0140890D02*
X0300800Y0140890D01*
X0300800Y0142488D02*
X0304400Y0142488D01*
X0304400Y0144087D02*
X0300800Y0144087D01*
X0300800Y0145685D02*
X0304400Y0145685D01*
X0304400Y0147284D02*
X0300800Y0147284D01*
X0300800Y0148882D02*
X0304400Y0148882D01*
X0304400Y0150481D02*
X0300800Y0150481D01*
X0300800Y0152079D02*
X0304400Y0152079D01*
X0304400Y0153678D02*
X0300800Y0153678D01*
X0300800Y0155276D02*
X0304400Y0155276D01*
X0304400Y0156875D02*
X0300800Y0156875D01*
X0300800Y0158473D02*
X0304400Y0158473D01*
X0304400Y0160072D02*
X0301012Y0160072D01*
X0301761Y0161670D02*
X0304400Y0161670D01*
X0304400Y0163269D02*
X0301800Y0163269D01*
X0301207Y0164868D02*
X0304400Y0164868D01*
X0304400Y0166466D02*
X0299242Y0166466D01*
X0300603Y0169663D02*
X0304400Y0169663D01*
X0304400Y0168065D02*
X0291459Y0168065D01*
X0290758Y0166466D02*
X0290000Y0166466D01*
X0287600Y0167600D02*
X0287600Y0147600D01*
X0291158Y0148882D02*
X0294400Y0148882D01*
X0294400Y0147284D02*
X0291378Y0147284D01*
X0290896Y0145685D02*
X0294400Y0145685D01*
X0294400Y0144087D02*
X0288991Y0144087D01*
X0286209Y0144087D02*
X0280309Y0144087D01*
X0279423Y0143200D02*
X0282000Y0145777D01*
X0282000Y0147600D01*
X0282000Y0149423D01*
X0279423Y0152000D01*
X0277600Y0152000D01*
X0277600Y0147600D01*
X0277600Y0147600D01*
X0282000Y0147600D01*
X0277600Y0147600D01*
X0277600Y0147600D01*
X0277600Y0147600D01*
X0273200Y0147600D01*
X0273200Y0149423D01*
X0275777Y0152000D01*
X0277600Y0152000D01*
X0277600Y0147600D01*
X0277600Y0143200D01*
X0279423Y0143200D01*
X0277600Y0143200D02*
X0277600Y0147600D01*
X0277600Y0147600D01*
X0273200Y0147600D01*
X0273200Y0145777D01*
X0275777Y0143200D01*
X0277600Y0143200D01*
X0277600Y0144087D02*
X0277600Y0144087D01*
X0277600Y0145685D02*
X0277600Y0145685D01*
X0277600Y0147284D02*
X0277600Y0147284D01*
X0277600Y0148882D02*
X0277600Y0148882D01*
X0277600Y0150481D02*
X0277600Y0150481D01*
X0280942Y0150481D02*
X0285138Y0150481D01*
X0285200Y0152079D02*
X0255000Y0152079D01*
X0255000Y0150543D02*
X0255000Y0204657D01*
X0255803Y0205460D01*
X0256378Y0206849D01*
X0256378Y0208351D01*
X0255803Y0209740D01*
X0254740Y0210803D01*
X0253351Y0211378D01*
X0251849Y0211378D01*
X0250460Y0210803D01*
X0249397Y0209740D01*
X0248822Y0208351D01*
X0248822Y0206849D01*
X0249397Y0205460D01*
X0250200Y0204657D01*
X0250200Y0150543D01*
X0249397Y0149740D01*
X0248822Y0148351D01*
X0248822Y0146849D01*
X0249397Y0145460D01*
X0250460Y0144397D01*
X0251849Y0143822D01*
X0253351Y0143822D01*
X0254740Y0144397D01*
X0255803Y0145460D01*
X0256378Y0146849D01*
X0256378Y0148351D01*
X0255803Y0149740D01*
X0255000Y0150543D01*
X0255062Y0150481D02*
X0274258Y0150481D01*
X0273200Y0148882D02*
X0256158Y0148882D01*
X0256378Y0147284D02*
X0273200Y0147284D01*
X0273292Y0145685D02*
X0255896Y0145685D01*
X0253991Y0144087D02*
X0274891Y0144087D01*
X0281908Y0145685D02*
X0284304Y0145685D01*
X0283822Y0147284D02*
X0282000Y0147284D01*
X0282000Y0148882D02*
X0284042Y0148882D01*
X0290062Y0150481D02*
X0294400Y0150481D01*
X0294400Y0152079D02*
X0290000Y0152079D01*
X0290000Y0153678D02*
X0294400Y0153678D01*
X0294400Y0155276D02*
X0290000Y0155276D01*
X0290000Y0156875D02*
X0294400Y0156875D01*
X0291387Y0158473D02*
X0290000Y0158473D01*
X0285200Y0158473D02*
X0255000Y0158473D01*
X0255000Y0156875D02*
X0285200Y0156875D01*
X0285200Y0155276D02*
X0255000Y0155276D01*
X0255000Y0153678D02*
X0285200Y0153678D01*
X0285200Y0160072D02*
X0255000Y0160072D01*
X0255000Y0161670D02*
X0285200Y0161670D01*
X0285200Y0163269D02*
X0255000Y0163269D01*
X0255000Y0164868D02*
X0259393Y0164868D01*
X0258400Y0165860D02*
X0260860Y0163400D01*
X0264340Y0163400D01*
X0266800Y0165860D01*
X0266800Y0167516D01*
X0275767Y0173493D01*
X0275860Y0173400D01*
X0279340Y0173400D01*
X0281800Y0175860D01*
X0281800Y0179340D01*
X0279340Y0181800D01*
X0275860Y0181800D01*
X0273400Y0179340D01*
X0273400Y0177684D01*
X0264433Y0171707D01*
X0264340Y0171800D01*
X0260860Y0171800D01*
X0258400Y0169340D01*
X0258400Y0165860D01*
X0258400Y0166466D02*
X0255000Y0166466D01*
X0255000Y0168065D02*
X0258400Y0168065D01*
X0258723Y0169663D02*
X0255000Y0169663D01*
X0255000Y0171262D02*
X0260322Y0171262D01*
X0255000Y0172860D02*
X0266163Y0172860D01*
X0268561Y0174459D02*
X0255000Y0174459D01*
X0255000Y0176057D02*
X0270959Y0176057D01*
X0273357Y0177656D02*
X0255000Y0177656D01*
X0255000Y0179254D02*
X0273400Y0179254D01*
X0274913Y0180853D02*
X0255000Y0180853D01*
X0255000Y0182451D02*
X0288200Y0182451D01*
X0288200Y0181765D02*
X0288839Y0180221D01*
X0290021Y0179039D01*
X0291565Y0178400D01*
X0298435Y0178400D01*
X0299979Y0179039D01*
X0301161Y0180221D01*
X0301800Y0181765D01*
X0301800Y0183435D01*
X0301161Y0184979D01*
X0299979Y0186161D01*
X0298435Y0186800D01*
X0291565Y0186800D01*
X0290021Y0186161D01*
X0288839Y0184979D01*
X0288200Y0183435D01*
X0288200Y0181765D01*
X0288578Y0180853D02*
X0280287Y0180853D01*
X0281800Y0179254D02*
X0289806Y0179254D01*
X0289917Y0176057D02*
X0281800Y0176057D01*
X0281800Y0177656D02*
X0304400Y0177656D01*
X0304400Y0179254D02*
X0300194Y0179254D01*
X0301422Y0180853D02*
X0304400Y0180853D01*
X0304400Y0182451D02*
X0301800Y0182451D01*
X0301546Y0184050D02*
X0304400Y0184050D01*
X0304400Y0185648D02*
X0300492Y0185648D01*
X0299510Y0188845D02*
X0304400Y0188845D01*
X0304400Y0187247D02*
X0255000Y0187247D01*
X0255000Y0188845D02*
X0290490Y0188845D01*
X0290021Y0189039D02*
X0291565Y0188400D01*
X0298435Y0188400D01*
X0299979Y0189039D01*
X0301161Y0190221D01*
X0301800Y0191765D01*
X0301800Y0193435D01*
X0301161Y0194979D01*
X0300000Y0196140D01*
X0300000Y0204657D01*
X0300803Y0205460D01*
X0301378Y0206849D01*
X0301378Y0208351D01*
X0300803Y0209740D01*
X0299740Y0210803D01*
X0298351Y0211378D01*
X0296849Y0211378D01*
X0295460Y0210803D01*
X0294397Y0209740D01*
X0293822Y0208351D01*
X0293822Y0206849D01*
X0294397Y0205460D01*
X0295200Y0204657D01*
X0295200Y0196800D01*
X0291565Y0196800D01*
X0290021Y0196161D01*
X0288839Y0194979D01*
X0288200Y0193435D01*
X0288200Y0191765D01*
X0288839Y0190221D01*
X0290021Y0189039D01*
X0288747Y0190444D02*
X0255000Y0190444D01*
X0255000Y0192042D02*
X0288200Y0192042D01*
X0288285Y0193641D02*
X0264863Y0193641D01*
X0264423Y0193200D02*
X0267000Y0195777D01*
X0267000Y0197600D01*
X0267000Y0199423D01*
X0264423Y0202000D01*
X0262600Y0202000D01*
X0262600Y0197600D01*
X0262600Y0197600D01*
X0267000Y0197600D01*
X0262600Y0197600D01*
X0262600Y0197600D01*
X0262600Y0197600D01*
X0258200Y0197600D01*
X0258200Y0199423D01*
X0260777Y0202000D01*
X0262600Y0202000D01*
X0262600Y0197600D01*
X0262600Y0193200D01*
X0264423Y0193200D01*
X0262600Y0193200D02*
X0262600Y0197600D01*
X0262600Y0197600D01*
X0258200Y0197600D01*
X0258200Y0195777D01*
X0260777Y0193200D01*
X0262600Y0193200D01*
X0262600Y0193641D02*
X0262600Y0193641D01*
X0262600Y0195239D02*
X0262600Y0195239D01*
X0262600Y0196838D02*
X0262600Y0196838D01*
X0262600Y0198436D02*
X0262600Y0198436D01*
X0262600Y0200035D02*
X0262600Y0200035D01*
X0262600Y0201633D02*
X0262600Y0201633D01*
X0264789Y0201633D02*
X0295200Y0201633D01*
X0295200Y0200035D02*
X0266388Y0200035D01*
X0267000Y0198436D02*
X0295200Y0198436D01*
X0295200Y0196838D02*
X0267000Y0196838D01*
X0266462Y0195239D02*
X0289100Y0195239D01*
X0297600Y0192600D02*
X0297600Y0207600D01*
X0300173Y0204830D02*
X0315027Y0204830D01*
X0315200Y0203232D02*
X0300000Y0203232D01*
X0300000Y0201633D02*
X0315200Y0201633D01*
X0315200Y0200035D02*
X0300000Y0200035D01*
X0295200Y0203232D02*
X0255000Y0203232D01*
X0255000Y0201633D02*
X0260411Y0201633D01*
X0258812Y0200035D02*
X0255000Y0200035D01*
X0255000Y0198436D02*
X0258200Y0198436D01*
X0258200Y0196838D02*
X0255000Y0196838D01*
X0255000Y0195239D02*
X0258738Y0195239D01*
X0260337Y0193641D02*
X0255000Y0193641D01*
X0250200Y0193641D02*
X0246800Y0193641D01*
X0246800Y0195239D02*
X0250200Y0195239D01*
X0250200Y0196838D02*
X0245302Y0196838D01*
X0244979Y0198039D02*
X0246161Y0199221D01*
X0246800Y0200765D01*
X0246800Y0202435D01*
X0246161Y0203979D01*
X0244979Y0205161D01*
X0243435Y0205800D01*
X0241765Y0205800D01*
X0240221Y0205161D01*
X0239039Y0203979D01*
X0238400Y0202435D01*
X0238400Y0200765D01*
X0239039Y0199221D01*
X0240221Y0198039D01*
X0240842Y0197782D01*
X0238400Y0195340D01*
X0238400Y0191860D01*
X0240200Y0190060D01*
X0240200Y0181140D01*
X0238400Y0179340D01*
X0238400Y0175860D01*
X0240860Y0173400D01*
X0244340Y0173400D01*
X0246800Y0175860D01*
X0246800Y0179340D01*
X0245000Y0181140D01*
X0245000Y0190060D01*
X0246800Y0191860D01*
X0246800Y0195340D01*
X0244358Y0197782D01*
X0244979Y0198039D01*
X0245376Y0198436D02*
X0250200Y0198436D01*
X0250200Y0200035D02*
X0246498Y0200035D01*
X0246800Y0201633D02*
X0250200Y0201633D01*
X0250200Y0203232D02*
X0246470Y0203232D01*
X0245309Y0204830D02*
X0250027Y0204830D01*
X0248996Y0206429D02*
X0230305Y0206429D01*
X0230305Y0206800D02*
X0223400Y0206800D01*
X0223400Y0199894D01*
X0228742Y0199894D01*
X0229200Y0200017D01*
X0229611Y0200254D01*
X0229946Y0200589D01*
X0230183Y0201000D01*
X0230305Y0201458D01*
X0230305Y0206800D01*
X0230305Y0204830D02*
X0239891Y0204830D01*
X0238730Y0203232D02*
X0230305Y0203232D01*
X0230305Y0201633D02*
X0238400Y0201633D01*
X0238702Y0200035D02*
X0229231Y0200035D01*
X0223400Y0200035D02*
X0221800Y0200035D01*
X0221800Y0199894D02*
X0221800Y0206800D01*
X0214894Y0206800D01*
X0214894Y0201458D01*
X0215017Y0201000D01*
X0215254Y0200589D01*
X0215589Y0200254D01*
X0216000Y0200017D01*
X0216458Y0199894D01*
X0221800Y0199894D01*
X0221800Y0201633D02*
X0223400Y0201633D01*
X0223400Y0203232D02*
X0221800Y0203232D01*
X0221800Y0204830D02*
X0223400Y0204830D01*
X0223400Y0206429D02*
X0221800Y0206429D01*
X0221800Y0208027D02*
X0165105Y0208027D01*
X0165105Y0206429D02*
X0214894Y0206429D01*
X0214894Y0204830D02*
X0165105Y0204830D01*
X0165105Y0203232D02*
X0214894Y0203232D01*
X0214894Y0201633D02*
X0165105Y0201633D01*
X0150094Y0201633D02*
X0140305Y0201633D01*
X0140305Y0201458D02*
X0140305Y0206800D01*
X0133400Y0206800D01*
X0133400Y0199894D01*
X0138742Y0199894D01*
X0139200Y0200017D01*
X0139611Y0200254D01*
X0139946Y0200589D01*
X0140183Y0201000D01*
X0140305Y0201458D01*
X0140305Y0203232D02*
X0150094Y0203232D01*
X0150094Y0204830D02*
X0140305Y0204830D01*
X0140305Y0206429D02*
X0150094Y0206429D01*
X0150094Y0208027D02*
X0133400Y0208027D01*
X0133400Y0206429D02*
X0131800Y0206429D01*
X0131800Y0206800D02*
X0131800Y0199894D01*
X0126458Y0199894D01*
X0126000Y0200017D01*
X0125589Y0200254D01*
X0125254Y0200589D01*
X0125017Y0201000D01*
X0124894Y0201458D01*
X0124894Y0206800D01*
X0131800Y0206800D01*
X0131800Y0208027D02*
X0075105Y0208027D01*
X0075105Y0206429D02*
X0124894Y0206429D01*
X0124894Y0204830D02*
X0075105Y0204830D01*
X0075105Y0203232D02*
X0124894Y0203232D01*
X0124894Y0201633D02*
X0075105Y0201633D01*
X0060094Y0201633D02*
X0017321Y0201633D01*
X0017321Y0200035D02*
X0125969Y0200035D01*
X0131800Y0200035D02*
X0133400Y0200035D01*
X0133400Y0201633D02*
X0131800Y0201633D01*
X0131800Y0203232D02*
X0133400Y0203232D01*
X0133400Y0204830D02*
X0131800Y0204830D01*
X0124894Y0209626D02*
X0075105Y0209626D01*
X0075105Y0211224D02*
X0124894Y0211224D01*
X0124894Y0212823D02*
X0075105Y0212823D01*
X0074852Y0214421D02*
X0125145Y0214421D01*
X0125254Y0214611D02*
X0125254Y0214611D01*
X0140055Y0214421D02*
X0150348Y0214421D01*
X0150094Y0212823D02*
X0140305Y0212823D01*
X0140305Y0211224D02*
X0150094Y0211224D01*
X0150094Y0209626D02*
X0140305Y0209626D01*
X0165105Y0209626D02*
X0214894Y0209626D01*
X0214894Y0211224D02*
X0165105Y0211224D01*
X0165105Y0212823D02*
X0214894Y0212823D01*
X0215145Y0214421D02*
X0164852Y0214421D01*
X0139231Y0200035D02*
X0215969Y0200035D01*
X0223400Y0208027D02*
X0248822Y0208027D01*
X0249350Y0209626D02*
X0230305Y0209626D01*
X0230305Y0211224D02*
X0251478Y0211224D01*
X0253722Y0211224D02*
X0275285Y0211224D01*
X0275860Y0211800D02*
X0273400Y0209340D01*
X0273400Y0205860D01*
X0275860Y0203400D01*
X0279340Y0203400D01*
X0281800Y0205860D01*
X0281800Y0209340D01*
X0279340Y0211800D01*
X0275860Y0211800D01*
X0273686Y0209626D02*
X0255850Y0209626D01*
X0256378Y0208027D02*
X0273400Y0208027D01*
X0273400Y0206429D02*
X0256204Y0206429D01*
X0255173Y0204830D02*
X0274430Y0204830D01*
X0280770Y0204830D02*
X0295027Y0204830D01*
X0293996Y0206429D02*
X0281800Y0206429D01*
X0281800Y0208027D02*
X0293822Y0208027D01*
X0294350Y0209626D02*
X0281514Y0209626D01*
X0279915Y0211224D02*
X0296478Y0211224D01*
X0298722Y0211224D02*
X0316478Y0211224D01*
X0318722Y0211224D02*
X0345285Y0211224D01*
X0345860Y0211800D02*
X0343400Y0209340D01*
X0343400Y0205860D01*
X0345860Y0203400D01*
X0349340Y0203400D01*
X0351800Y0205860D01*
X0351800Y0209340D01*
X0349340Y0211800D01*
X0345860Y0211800D01*
X0343686Y0209626D02*
X0320850Y0209626D01*
X0321378Y0208027D02*
X0343400Y0208027D01*
X0343400Y0206429D02*
X0321204Y0206429D01*
X0320173Y0204830D02*
X0344430Y0204830D01*
X0350770Y0204830D02*
X0359147Y0204830D01*
X0358200Y0205777D02*
X0360777Y0203200D01*
X0362600Y0203200D01*
X0362600Y0207600D01*
X0362600Y0207600D01*
X0358200Y0207600D01*
X0358200Y0205777D01*
X0358200Y0206429D02*
X0351800Y0206429D01*
X0351800Y0208027D02*
X0358200Y0208027D01*
X0358403Y0209626D02*
X0351514Y0209626D01*
X0349915Y0211224D02*
X0360002Y0211224D01*
X0362600Y0211224D02*
X0362600Y0211224D01*
X0362600Y0209626D02*
X0362600Y0209626D01*
X0362600Y0208027D02*
X0362600Y0208027D01*
X0362600Y0206429D02*
X0362600Y0206429D01*
X0362600Y0204830D02*
X0362600Y0204830D01*
X0362600Y0203232D02*
X0362600Y0203232D01*
X0360746Y0203232D02*
X0320000Y0203232D01*
X0313996Y0206429D02*
X0301204Y0206429D01*
X0301378Y0208027D02*
X0313822Y0208027D01*
X0314350Y0209626D02*
X0300850Y0209626D01*
X0317600Y0207600D02*
X0317600Y0182600D01*
X0317600Y0157600D01*
X0322600Y0152600D01*
X0322600Y0127600D01*
X0325248Y0124905D02*
X0329952Y0124905D01*
X0328965Y0126503D02*
X0326235Y0126503D01*
X0326378Y0128102D02*
X0328822Y0128102D01*
X0329381Y0129700D02*
X0325819Y0129700D01*
X0325000Y0131299D02*
X0330200Y0131299D01*
X0330200Y0132897D02*
X0325000Y0132897D01*
X0325000Y0134496D02*
X0330200Y0134496D01*
X0330200Y0136094D02*
X0325000Y0136094D01*
X0325000Y0137693D02*
X0330200Y0137693D01*
X0330200Y0139291D02*
X0325000Y0139291D01*
X0325000Y0140890D02*
X0330200Y0140890D01*
X0330200Y0142488D02*
X0325000Y0142488D01*
X0325000Y0144087D02*
X0330200Y0144087D01*
X0330200Y0145685D02*
X0325000Y0145685D01*
X0325000Y0147284D02*
X0330200Y0147284D01*
X0330200Y0148882D02*
X0325000Y0148882D01*
X0325000Y0150481D02*
X0330200Y0150481D01*
X0330200Y0152079D02*
X0325000Y0152079D01*
X0324751Y0153678D02*
X0330200Y0153678D01*
X0330200Y0155276D02*
X0323318Y0155276D01*
X0321719Y0156875D02*
X0329931Y0156875D01*
X0332600Y0157600D02*
X0327600Y0162600D01*
X0324188Y0160072D02*
X0320000Y0160072D01*
X0320000Y0161670D02*
X0323439Y0161670D01*
X0323400Y0163269D02*
X0320000Y0163269D01*
X0320000Y0164868D02*
X0323993Y0164868D01*
X0325958Y0166466D02*
X0320000Y0166466D01*
X0320000Y0168065D02*
X0505200Y0168065D01*
X0505200Y0169663D02*
X0335803Y0169663D01*
X0336361Y0170221D02*
X0337000Y0171765D01*
X0337000Y0173435D01*
X0336361Y0174979D01*
X0335179Y0176161D01*
X0333635Y0176800D01*
X0326765Y0176800D01*
X0325221Y0176161D01*
X0324039Y0174979D01*
X0323400Y0173435D01*
X0323400Y0171765D01*
X0324039Y0170221D01*
X0325221Y0169039D01*
X0326765Y0168400D01*
X0333635Y0168400D01*
X0335179Y0169039D01*
X0336361Y0170221D01*
X0336792Y0171262D02*
X0505200Y0171262D01*
X0505200Y0172860D02*
X0337000Y0172860D01*
X0336576Y0174459D02*
X0344802Y0174459D01*
X0345860Y0173400D02*
X0349340Y0173400D01*
X0351800Y0175860D01*
X0351800Y0179340D01*
X0349340Y0181800D01*
X0345860Y0181800D01*
X0343400Y0179340D01*
X0343400Y0175860D01*
X0345860Y0173400D01*
X0343400Y0176057D02*
X0335283Y0176057D01*
X0335394Y0179254D02*
X0343400Y0179254D01*
X0343400Y0177656D02*
X0320000Y0177656D01*
X0320000Y0179254D02*
X0325006Y0179254D01*
X0325117Y0176057D02*
X0320000Y0176057D01*
X0320000Y0174459D02*
X0323824Y0174459D01*
X0323400Y0172860D02*
X0320000Y0172860D01*
X0320000Y0171262D02*
X0323608Y0171262D01*
X0324597Y0169663D02*
X0320000Y0169663D01*
X0334442Y0166466D02*
X0505200Y0166466D01*
X0505200Y0164868D02*
X0479406Y0164868D01*
X0479168Y0165105D02*
X0466032Y0165105D01*
X0465094Y0164168D01*
X0465094Y0151032D01*
X0466032Y0150094D01*
X0479168Y0150094D01*
X0480105Y0151032D01*
X0480105Y0164168D01*
X0479168Y0165105D01*
X0480105Y0163269D02*
X0505200Y0163269D01*
X0505200Y0161670D02*
X0480105Y0161670D01*
X0480105Y0160072D02*
X0505200Y0160072D01*
X0505200Y0158473D02*
X0480105Y0158473D01*
X0480105Y0156875D02*
X0505200Y0156875D01*
X0505200Y0155276D02*
X0480105Y0155276D01*
X0480105Y0153678D02*
X0505200Y0153678D01*
X0505200Y0152079D02*
X0480105Y0152079D01*
X0479555Y0150481D02*
X0505200Y0150481D01*
X0505200Y0148882D02*
X0345000Y0148882D01*
X0345000Y0147284D02*
X0505200Y0147284D01*
X0505200Y0145685D02*
X0345000Y0145685D01*
X0345000Y0144087D02*
X0505200Y0144087D01*
X0505200Y0142488D02*
X0345000Y0142488D01*
X0345000Y0140890D02*
X0505200Y0140890D01*
X0505200Y0139291D02*
X0345989Y0139291D01*
X0345803Y0139740D02*
X0346378Y0138351D01*
X0346378Y0136849D01*
X0345803Y0135460D01*
X0344740Y0134397D01*
X0343351Y0133822D01*
X0341849Y0133822D01*
X0340460Y0134397D01*
X0339397Y0135460D01*
X0338822Y0136849D01*
X0338822Y0138351D01*
X0339397Y0139740D01*
X0340200Y0140543D01*
X0340200Y0154060D01*
X0338400Y0155860D01*
X0338400Y0159340D01*
X0340860Y0161800D01*
X0344340Y0161800D01*
X0346800Y0159340D01*
X0346800Y0155860D01*
X0345000Y0154060D01*
X0345000Y0140543D01*
X0345803Y0139740D01*
X0346378Y0137693D02*
X0505200Y0137693D01*
X0505200Y0136094D02*
X0346066Y0136094D01*
X0344839Y0134496D02*
X0505200Y0134496D01*
X0505200Y0132897D02*
X0335000Y0132897D01*
X0335000Y0131299D02*
X0505200Y0131299D01*
X0505200Y0129700D02*
X0335819Y0129700D01*
X0336378Y0128102D02*
X0505200Y0128102D01*
X0510000Y0128102D02*
X0555200Y0128102D01*
X0555200Y0129700D02*
X0510000Y0129700D01*
X0510000Y0131299D02*
X0555200Y0131299D01*
X0555200Y0132897D02*
X0510000Y0132897D01*
X0510000Y0134496D02*
X0555200Y0134496D01*
X0555200Y0136094D02*
X0510000Y0136094D01*
X0510000Y0137693D02*
X0555200Y0137693D01*
X0555200Y0139291D02*
X0510000Y0139291D01*
X0510000Y0140890D02*
X0554219Y0140890D01*
X0554397Y0140460D02*
X0555200Y0139657D01*
X0555200Y0087123D01*
X0555565Y0086241D01*
X0558822Y0082984D01*
X0558822Y0081849D01*
X0559397Y0080460D01*
X0560460Y0079397D01*
X0561849Y0078822D01*
X0563351Y0078822D01*
X0564740Y0079397D01*
X0565803Y0080460D01*
X0566378Y0081849D01*
X0566378Y0083351D01*
X0565803Y0084740D01*
X0564740Y0085803D01*
X0563351Y0086378D01*
X0562216Y0086378D01*
X0560000Y0088594D01*
X0560000Y0139657D01*
X0560803Y0140460D01*
X0561378Y0141849D01*
X0561378Y0143351D01*
X0560803Y0144740D01*
X0559740Y0145803D01*
X0558351Y0146378D01*
X0556849Y0146378D01*
X0555460Y0145803D01*
X0554397Y0144740D01*
X0553822Y0143351D01*
X0553822Y0141849D01*
X0554397Y0140460D01*
X0553822Y0142488D02*
X0510000Y0142488D01*
X0510000Y0144087D02*
X0554127Y0144087D01*
X0555343Y0145685D02*
X0510000Y0145685D01*
X0510000Y0147284D02*
X0605200Y0147284D01*
X0605200Y0148882D02*
X0510000Y0148882D01*
X0510000Y0150481D02*
X0530645Y0150481D01*
X0531032Y0150094D02*
X0530094Y0151032D01*
X0530094Y0164168D01*
X0531032Y0165105D01*
X0544168Y0165105D01*
X0545105Y0164168D01*
X0545105Y0151032D01*
X0544168Y0150094D01*
X0531032Y0150094D01*
X0530094Y0152079D02*
X0510000Y0152079D01*
X0510000Y0153678D02*
X0530094Y0153678D01*
X0530094Y0155276D02*
X0510000Y0155276D01*
X0510000Y0156875D02*
X0530094Y0156875D01*
X0530094Y0158473D02*
X0510000Y0158473D01*
X0510000Y0160072D02*
X0530094Y0160072D01*
X0530094Y0161670D02*
X0510000Y0161670D01*
X0510000Y0163269D02*
X0530094Y0163269D01*
X0530794Y0164868D02*
X0510000Y0164868D01*
X0510000Y0166466D02*
X0550200Y0166466D01*
X0550200Y0164868D02*
X0544406Y0164868D01*
X0545105Y0163269D02*
X0550200Y0163269D01*
X0550200Y0161670D02*
X0545105Y0161670D01*
X0545105Y0160072D02*
X0549729Y0160072D01*
X0548873Y0158473D02*
X0545105Y0158473D01*
X0545105Y0156875D02*
X0548822Y0156875D01*
X0549581Y0155276D02*
X0545105Y0155276D01*
X0545105Y0153678D02*
X0605200Y0153678D01*
X0605200Y0155276D02*
X0555619Y0155276D01*
X0556378Y0156875D02*
X0605200Y0156875D01*
X0605200Y0158473D02*
X0556327Y0158473D01*
X0555471Y0160072D02*
X0605200Y0160072D01*
X0605200Y0161670D02*
X0555000Y0161670D01*
X0555000Y0163269D02*
X0605200Y0163269D01*
X0605200Y0164868D02*
X0555000Y0164868D01*
X0555000Y0166466D02*
X0605200Y0166466D01*
X0603741Y0168065D02*
X0555000Y0168065D01*
X0555000Y0169663D02*
X0602143Y0169663D01*
X0600544Y0171262D02*
X0555000Y0171262D01*
X0555000Y0172860D02*
X0598946Y0172860D01*
X0597600Y0177600D02*
X0607600Y0167600D01*
X0607600Y0141600D01*
X0604147Y0144087D02*
X0586053Y0144087D01*
X0586161Y0143979D02*
X0584979Y0145161D01*
X0583435Y0145800D01*
X0581765Y0145800D01*
X0580221Y0145161D01*
X0579039Y0143979D01*
X0578400Y0142435D01*
X0578400Y0140765D01*
X0579039Y0139221D01*
X0580221Y0138039D01*
X0580842Y0137782D01*
X0578400Y0135340D01*
X0578400Y0131860D01*
X0580860Y0129400D01*
X0583406Y0129400D01*
X0585200Y0127606D01*
X0585200Y0121705D01*
X0583000Y0119505D01*
X0583000Y0115695D01*
X0585200Y0113495D01*
X0585200Y0111705D01*
X0583000Y0109505D01*
X0583000Y0105695D01*
X0585695Y0103000D01*
X0589505Y0103000D01*
X0592200Y0105695D01*
X0592200Y0109505D01*
X0590000Y0111705D01*
X0590000Y0113495D01*
X0592200Y0115695D01*
X0592200Y0119505D01*
X0590000Y0121705D01*
X0590000Y0129077D01*
X0589635Y0129959D01*
X0586800Y0132794D01*
X0586800Y0135340D01*
X0584358Y0137782D01*
X0584979Y0138039D01*
X0586161Y0139221D01*
X0586800Y0140765D01*
X0586800Y0142435D01*
X0586161Y0143979D01*
X0586778Y0142488D02*
X0603422Y0142488D01*
X0603400Y0140890D02*
X0586800Y0140890D01*
X0586190Y0139291D02*
X0604010Y0139291D01*
X0605753Y0137693D02*
X0584447Y0137693D01*
X0586045Y0136094D02*
X0604155Y0136094D01*
X0603400Y0134496D02*
X0586800Y0134496D01*
X0586800Y0132897D02*
X0603400Y0132897D01*
X0603962Y0131299D02*
X0588295Y0131299D01*
X0589742Y0129700D02*
X0605200Y0129700D01*
X0605200Y0128102D02*
X0590000Y0128102D01*
X0590000Y0126503D02*
X0605200Y0126503D01*
X0605200Y0124905D02*
X0590000Y0124905D01*
X0590000Y0123306D02*
X0605200Y0123306D01*
X0605200Y0121708D02*
X0600280Y0121708D01*
X0599588Y0122400D02*
X0597800Y0122400D01*
X0597800Y0117800D01*
X0602400Y0117800D01*
X0602400Y0119588D01*
X0599588Y0122400D01*
X0597800Y0121708D02*
X0597400Y0121708D01*
X0597400Y0122400D02*
X0595612Y0122400D01*
X0592800Y0119588D01*
X0592800Y0117800D01*
X0597400Y0117800D01*
X0597400Y0122400D01*
X0597400Y0120109D02*
X0597800Y0120109D01*
X0597800Y0118511D02*
X0597400Y0118511D01*
X0597400Y0117800D02*
X0597800Y0117800D01*
X0597800Y0117400D01*
X0602400Y0117400D01*
X0602400Y0115612D01*
X0599588Y0112800D01*
X0597800Y0112800D01*
X0597800Y0117400D01*
X0597400Y0117400D01*
X0597400Y0112800D01*
X0595612Y0112800D01*
X0592800Y0115612D01*
X0592800Y0117400D01*
X0597400Y0117400D01*
X0597400Y0117800D01*
X0597400Y0116912D02*
X0597800Y0116912D01*
X0597800Y0115314D02*
X0597400Y0115314D01*
X0597400Y0113715D02*
X0597800Y0113715D01*
X0597800Y0112400D02*
X0599588Y0112400D01*
X0602400Y0109588D01*
X0602400Y0107800D01*
X0597800Y0107800D01*
X0597800Y0107400D01*
X0602400Y0107400D01*
X0602400Y0105612D01*
X0599588Y0102800D01*
X0597800Y0102800D01*
X0597800Y0107400D01*
X0597400Y0107400D01*
X0597400Y0102800D01*
X0595612Y0102800D01*
X0592800Y0105612D01*
X0592800Y0107400D01*
X0597400Y0107400D01*
X0597400Y0107800D01*
X0597400Y0112400D01*
X0595612Y0112400D01*
X0592800Y0109588D01*
X0592800Y0107800D01*
X0597400Y0107800D01*
X0597800Y0107800D01*
X0597800Y0112400D01*
X0597800Y0112117D02*
X0597400Y0112117D01*
X0597400Y0110518D02*
X0597800Y0110518D01*
X0597800Y0108920D02*
X0597400Y0108920D01*
X0597400Y0107321D02*
X0597800Y0107321D01*
X0597800Y0105723D02*
X0597400Y0105723D01*
X0597400Y0104124D02*
X0597800Y0104124D01*
X0600912Y0104124D02*
X0604571Y0104124D01*
X0603000Y0105723D02*
X0602400Y0105723D01*
X0602400Y0107321D02*
X0603000Y0107321D01*
X0603000Y0108920D02*
X0602400Y0108920D01*
X0601470Y0110518D02*
X0604013Y0110518D01*
X0605200Y0112117D02*
X0599872Y0112117D01*
X0600503Y0113715D02*
X0604979Y0113715D01*
X0603381Y0115314D02*
X0602102Y0115314D01*
X0602400Y0116912D02*
X0603000Y0116912D01*
X0603000Y0118511D02*
X0602400Y0118511D01*
X0601879Y0120109D02*
X0603604Y0120109D01*
X0611596Y0120109D02*
X0613604Y0120109D01*
X0613000Y0118511D02*
X0612200Y0118511D01*
X0612200Y0116912D02*
X0613000Y0116912D01*
X0613381Y0115314D02*
X0611819Y0115314D01*
X0610221Y0113715D02*
X0614979Y0113715D01*
X0615200Y0112117D02*
X0610000Y0112117D01*
X0611187Y0110518D02*
X0614013Y0110518D01*
X0613000Y0108920D02*
X0612200Y0108920D01*
X0612200Y0107321D02*
X0613000Y0107321D01*
X0613000Y0105723D02*
X0612200Y0105723D01*
X0610629Y0104124D02*
X0614571Y0104124D01*
X0615200Y0102526D02*
X0580000Y0102526D01*
X0580000Y0103495D02*
X0582200Y0105695D01*
X0582200Y0109505D01*
X0580000Y0111705D01*
X0580000Y0113495D01*
X0582200Y0115695D01*
X0582200Y0119505D01*
X0579505Y0122200D01*
X0575695Y0122200D01*
X0573000Y0119505D01*
X0573000Y0115695D01*
X0575200Y0113495D01*
X0575200Y0111705D01*
X0573000Y0109505D01*
X0573000Y0105695D01*
X0575200Y0103495D01*
X0575200Y0095140D01*
X0573400Y0093340D01*
X0573400Y0089860D01*
X0575842Y0087418D01*
X0575221Y0087161D01*
X0574039Y0085979D01*
X0573400Y0084435D01*
X0573400Y0082765D01*
X0574039Y0081221D01*
X0575221Y0080039D01*
X0576765Y0079400D01*
X0578435Y0079400D01*
X0579979Y0080039D01*
X0581161Y0081221D01*
X0581800Y0082765D01*
X0581800Y0084435D01*
X0581161Y0085979D01*
X0579979Y0087161D01*
X0579358Y0087418D01*
X0581800Y0089860D01*
X0581800Y0093340D01*
X0580000Y0095140D01*
X0580000Y0103495D01*
X0580629Y0104124D02*
X0584571Y0104124D01*
X0583000Y0105723D02*
X0582200Y0105723D01*
X0582200Y0107321D02*
X0583000Y0107321D01*
X0583000Y0108920D02*
X0582200Y0108920D01*
X0581187Y0110518D02*
X0584013Y0110518D01*
X0585200Y0112117D02*
X0580000Y0112117D01*
X0580221Y0113715D02*
X0584979Y0113715D01*
X0583381Y0115314D02*
X0581819Y0115314D01*
X0582200Y0116912D02*
X0583000Y0116912D01*
X0583000Y0118511D02*
X0582200Y0118511D01*
X0581596Y0120109D02*
X0583604Y0120109D01*
X0585200Y0121708D02*
X0579998Y0121708D01*
X0575202Y0121708D02*
X0570280Y0121708D01*
X0569588Y0122400D02*
X0567800Y0122400D01*
X0567800Y0117800D01*
X0572400Y0117800D01*
X0572400Y0119588D01*
X0569588Y0122400D01*
X0567800Y0121708D02*
X0567400Y0121708D01*
X0567400Y0122400D02*
X0565612Y0122400D01*
X0562800Y0119588D01*
X0562800Y0117800D01*
X0567400Y0117800D01*
X0567400Y0122400D01*
X0567400Y0120109D02*
X0567800Y0120109D01*
X0567800Y0118511D02*
X0567400Y0118511D01*
X0567400Y0117800D02*
X0567800Y0117800D01*
X0567800Y0117400D01*
X0572400Y0117400D01*
X0572400Y0115612D01*
X0569588Y0112800D01*
X0567800Y0112800D01*
X0567800Y0117400D01*
X0567400Y0117400D01*
X0567400Y0112800D01*
X0565612Y0112800D01*
X0562800Y0115612D01*
X0562800Y0117400D01*
X0567400Y0117400D01*
X0567400Y0117800D01*
X0567400Y0116912D02*
X0567800Y0116912D01*
X0567800Y0115314D02*
X0567400Y0115314D01*
X0567400Y0113715D02*
X0567800Y0113715D01*
X0567800Y0112400D02*
X0569588Y0112400D01*
X0572400Y0109588D01*
X0572400Y0107800D01*
X0567800Y0107800D01*
X0567800Y0107400D01*
X0572400Y0107400D01*
X0572400Y0105612D01*
X0569588Y0102800D01*
X0567800Y0102800D01*
X0567800Y0107400D01*
X0567400Y0107400D01*
X0567400Y0102800D01*
X0565612Y0102800D01*
X0562800Y0105612D01*
X0562800Y0107400D01*
X0567400Y0107400D01*
X0567400Y0107800D01*
X0567400Y0112400D01*
X0565612Y0112400D01*
X0562800Y0109588D01*
X0562800Y0107800D01*
X0567400Y0107800D01*
X0567800Y0107800D01*
X0567800Y0112400D01*
X0567800Y0112117D02*
X0567400Y0112117D01*
X0567400Y0110518D02*
X0567800Y0110518D01*
X0567800Y0108920D02*
X0567400Y0108920D01*
X0567400Y0107321D02*
X0567800Y0107321D01*
X0567800Y0105723D02*
X0567400Y0105723D01*
X0567400Y0104124D02*
X0567800Y0104124D01*
X0570912Y0104124D02*
X0574571Y0104124D01*
X0575200Y0102526D02*
X0560000Y0102526D01*
X0560000Y0104124D02*
X0564288Y0104124D01*
X0562800Y0105723D02*
X0560000Y0105723D01*
X0560000Y0107321D02*
X0562800Y0107321D01*
X0562800Y0108920D02*
X0560000Y0108920D01*
X0560000Y0110518D02*
X0563730Y0110518D01*
X0565328Y0112117D02*
X0560000Y0112117D01*
X0560000Y0113715D02*
X0564697Y0113715D01*
X0563098Y0115314D02*
X0560000Y0115314D01*
X0560000Y0116912D02*
X0562800Y0116912D01*
X0562800Y0118511D02*
X0560000Y0118511D01*
X0560000Y0120109D02*
X0563321Y0120109D01*
X0564919Y0121708D02*
X0560000Y0121708D01*
X0560000Y0123306D02*
X0585200Y0123306D01*
X0585200Y0124905D02*
X0560000Y0124905D01*
X0560000Y0126503D02*
X0585200Y0126503D01*
X0584704Y0128102D02*
X0560000Y0128102D01*
X0560000Y0129700D02*
X0580560Y0129700D01*
X0578962Y0131299D02*
X0560000Y0131299D01*
X0560000Y0132897D02*
X0578400Y0132897D01*
X0578400Y0134496D02*
X0560000Y0134496D01*
X0560000Y0136094D02*
X0579155Y0136094D01*
X0580753Y0137693D02*
X0560000Y0137693D01*
X0560000Y0139291D02*
X0579010Y0139291D01*
X0578400Y0140890D02*
X0560981Y0140890D01*
X0561378Y0142488D02*
X0578422Y0142488D01*
X0579147Y0144087D02*
X0561073Y0144087D01*
X0559857Y0145685D02*
X0581488Y0145685D01*
X0583712Y0145685D02*
X0605200Y0145685D01*
X0605200Y0150481D02*
X0544555Y0150481D01*
X0545105Y0152079D02*
X0605200Y0152079D01*
X0624925Y0163662D02*
X0624925Y0163662D01*
X0635607Y0164868D02*
X0637643Y0164868D01*
X0564519Y0174459D02*
X0555000Y0174459D01*
X0555000Y0176057D02*
X0563200Y0176057D01*
X0563200Y0177656D02*
X0555000Y0177656D01*
X0555000Y0179254D02*
X0563200Y0179254D01*
X0550200Y0179254D02*
X0510000Y0179254D01*
X0510000Y0177656D02*
X0550200Y0177656D01*
X0550200Y0176057D02*
X0510000Y0176057D01*
X0510000Y0174459D02*
X0550200Y0174459D01*
X0550200Y0172860D02*
X0510000Y0172860D01*
X0510000Y0171262D02*
X0550200Y0171262D01*
X0550200Y0169663D02*
X0510000Y0169663D01*
X0510000Y0168065D02*
X0550200Y0168065D01*
X0552600Y0157600D02*
X0552600Y0192600D01*
X0557600Y0197600D01*
X0567600Y0197600D01*
X0565620Y0193641D02*
X0557035Y0193641D01*
X0550200Y0190444D02*
X0510099Y0190444D01*
X0509740Y0190803D02*
X0508351Y0191378D01*
X0506849Y0191378D01*
X0505460Y0190803D01*
X0504397Y0189740D01*
X0503822Y0188351D01*
X0503822Y0186849D01*
X0504397Y0185460D01*
X0505200Y0184657D01*
X0505200Y0037123D01*
X0505565Y0036241D01*
X0508822Y0032984D01*
X0508822Y0031849D01*
X0509397Y0030460D01*
X0510460Y0029397D01*
X0511849Y0028822D01*
X0513351Y0028822D01*
X0514740Y0029397D01*
X0515803Y0030460D01*
X0516378Y0031849D01*
X0516378Y0033351D01*
X0515803Y0034740D01*
X0514740Y0035803D01*
X0513351Y0036378D01*
X0512216Y0036378D01*
X0510000Y0038594D01*
X0510000Y0184657D01*
X0510803Y0185460D01*
X0511378Y0186849D01*
X0511378Y0188351D01*
X0510803Y0189740D01*
X0509740Y0190803D01*
X0511173Y0188845D02*
X0550200Y0188845D01*
X0550200Y0187247D02*
X0511378Y0187247D01*
X0510881Y0185648D02*
X0550200Y0185648D01*
X0550200Y0184050D02*
X0510000Y0184050D01*
X0510000Y0182451D02*
X0550200Y0182451D01*
X0550200Y0180853D02*
X0510000Y0180853D01*
X0505200Y0180853D02*
X0365287Y0180853D01*
X0364340Y0181800D02*
X0360860Y0181800D01*
X0358400Y0179340D01*
X0358400Y0175860D01*
X0360860Y0173400D01*
X0364340Y0173400D01*
X0366800Y0175860D01*
X0366800Y0179340D01*
X0364340Y0181800D01*
X0366800Y0179254D02*
X0505200Y0179254D01*
X0505200Y0177656D02*
X0366800Y0177656D01*
X0366800Y0176057D02*
X0505200Y0176057D01*
X0505200Y0174459D02*
X0365398Y0174459D01*
X0359802Y0174459D02*
X0350398Y0174459D01*
X0351800Y0176057D02*
X0358400Y0176057D01*
X0358400Y0177656D02*
X0351800Y0177656D01*
X0351800Y0179254D02*
X0358400Y0179254D01*
X0359913Y0180853D02*
X0350287Y0180853D01*
X0344913Y0180853D02*
X0336622Y0180853D01*
X0337000Y0182451D02*
X0505200Y0182451D01*
X0505200Y0184050D02*
X0448901Y0184050D01*
X0450881Y0185648D02*
X0504319Y0185648D01*
X0503822Y0187247D02*
X0451378Y0187247D01*
X0451173Y0188845D02*
X0504027Y0188845D01*
X0505101Y0190444D02*
X0450099Y0190444D01*
X0446299Y0184050D02*
X0336746Y0184050D01*
X0327600Y0182600D02*
X0317600Y0182600D01*
X0320000Y0185648D02*
X0324708Y0185648D01*
X0304400Y0190444D02*
X0301253Y0190444D01*
X0301800Y0192042D02*
X0303822Y0192042D01*
X0303942Y0193641D02*
X0301715Y0193641D01*
X0300900Y0195239D02*
X0304896Y0195239D01*
X0289508Y0185648D02*
X0255000Y0185648D01*
X0255000Y0184050D02*
X0288454Y0184050D01*
X0277600Y0177600D02*
X0262600Y0167600D01*
X0265807Y0164868D02*
X0274393Y0164868D01*
X0273400Y0165860D02*
X0275860Y0163400D01*
X0279340Y0163400D01*
X0281800Y0165860D01*
X0281800Y0169340D01*
X0279340Y0171800D01*
X0275860Y0171800D01*
X0273400Y0169340D01*
X0273400Y0165860D01*
X0273400Y0166466D02*
X0266800Y0166466D01*
X0267623Y0168065D02*
X0273400Y0168065D01*
X0273723Y0169663D02*
X0270021Y0169663D01*
X0272419Y0171262D02*
X0275322Y0171262D01*
X0274817Y0172860D02*
X0288200Y0172860D01*
X0287867Y0171262D02*
X0279878Y0171262D01*
X0281477Y0169663D02*
X0286269Y0169663D01*
X0285200Y0168065D02*
X0281800Y0168065D01*
X0281800Y0166466D02*
X0285200Y0166466D01*
X0285200Y0164868D02*
X0280807Y0164868D01*
X0287600Y0167600D02*
X0292600Y0172600D01*
X0297600Y0172600D01*
X0301800Y0172860D02*
X0304400Y0172860D01*
X0304400Y0171262D02*
X0301592Y0171262D01*
X0301376Y0174459D02*
X0304400Y0174459D01*
X0304400Y0176057D02*
X0300083Y0176057D01*
X0288624Y0174459D02*
X0280398Y0174459D01*
X0250200Y0174459D02*
X0245398Y0174459D01*
X0246800Y0176057D02*
X0250200Y0176057D01*
X0250200Y0177656D02*
X0246800Y0177656D01*
X0246800Y0179254D02*
X0250200Y0179254D01*
X0250200Y0180853D02*
X0245287Y0180853D01*
X0245000Y0182451D02*
X0250200Y0182451D01*
X0250200Y0184050D02*
X0245000Y0184050D01*
X0245000Y0185648D02*
X0250200Y0185648D01*
X0250200Y0187247D02*
X0245000Y0187247D01*
X0245000Y0188845D02*
X0250200Y0188845D01*
X0250200Y0190444D02*
X0245383Y0190444D01*
X0246800Y0192042D02*
X0250200Y0192042D01*
X0242600Y0193600D02*
X0242600Y0177600D01*
X0238400Y0177656D02*
X0225000Y0177656D01*
X0225000Y0179254D02*
X0238400Y0179254D01*
X0239913Y0180853D02*
X0225000Y0180853D01*
X0225000Y0182451D02*
X0240200Y0182451D01*
X0240200Y0184050D02*
X0225000Y0184050D01*
X0225000Y0184657D02*
X0225803Y0185460D01*
X0226378Y0186849D01*
X0226378Y0188351D01*
X0225803Y0189740D01*
X0224740Y0190803D01*
X0223351Y0191378D01*
X0221849Y0191378D01*
X0220460Y0190803D01*
X0219397Y0189740D01*
X0218822Y0188351D01*
X0218822Y0186849D01*
X0219397Y0185460D01*
X0220200Y0184657D01*
X0220200Y0165105D01*
X0216032Y0165105D01*
X0215094Y0164168D01*
X0215094Y0151032D01*
X0216032Y0150094D01*
X0229168Y0150094D01*
X0230105Y0151032D01*
X0230105Y0164168D01*
X0229168Y0165105D01*
X0225000Y0165105D01*
X0225000Y0184657D01*
X0225881Y0185648D02*
X0240200Y0185648D01*
X0240200Y0187247D02*
X0226378Y0187247D01*
X0226173Y0188845D02*
X0240200Y0188845D01*
X0239817Y0190444D02*
X0225099Y0190444D01*
X0222600Y0187600D02*
X0222600Y0157600D01*
X0230105Y0156875D02*
X0250200Y0156875D01*
X0250200Y0158473D02*
X0230105Y0158473D01*
X0230105Y0160072D02*
X0250200Y0160072D01*
X0250200Y0161670D02*
X0230105Y0161670D01*
X0230105Y0163269D02*
X0250200Y0163269D01*
X0250200Y0164868D02*
X0229406Y0164868D01*
X0225000Y0166466D02*
X0250200Y0166466D01*
X0250200Y0168065D02*
X0225000Y0168065D01*
X0225000Y0169663D02*
X0250200Y0169663D01*
X0250200Y0171262D02*
X0225000Y0171262D01*
X0225000Y0172860D02*
X0250200Y0172860D01*
X0239802Y0174459D02*
X0225000Y0174459D01*
X0225000Y0176057D02*
X0238400Y0176057D01*
X0220200Y0176057D02*
X0042500Y0176057D01*
X0042354Y0175089D02*
X0042354Y0175089D01*
X0042051Y0174459D02*
X0220200Y0174459D01*
X0220200Y0172860D02*
X0041281Y0172860D01*
X0040511Y0171262D02*
X0220200Y0171262D01*
X0220200Y0169663D02*
X0039333Y0169663D01*
X0040182Y0170577D02*
X0040182Y0170577D01*
X0037850Y0168065D02*
X0220200Y0168065D01*
X0220200Y0166466D02*
X0036013Y0166466D01*
X0033244Y0164868D02*
X0060794Y0164868D01*
X0060094Y0163269D02*
X0017321Y0163269D01*
X0017321Y0161670D02*
X0060094Y0161670D01*
X0060094Y0160072D02*
X0017321Y0160072D01*
X0017321Y0158473D02*
X0060094Y0158473D01*
X0060094Y0156875D02*
X0017321Y0156875D01*
X0017321Y0155276D02*
X0060094Y0155276D01*
X0060094Y0153678D02*
X0017321Y0153678D01*
X0017321Y0152079D02*
X0060094Y0152079D01*
X0060645Y0150481D02*
X0017321Y0150481D01*
X0017321Y0164868D02*
X0019491Y0164868D01*
X0017901Y0165492D02*
X0017901Y0165492D01*
X0042741Y0177656D02*
X0220200Y0177656D01*
X0220200Y0179254D02*
X0042982Y0179254D01*
X0042978Y0180853D02*
X0220200Y0180853D01*
X0220200Y0182451D02*
X0042738Y0182451D01*
X0042497Y0184050D02*
X0220200Y0184050D01*
X0219319Y0185648D02*
X0042039Y0185648D01*
X0042354Y0184993D02*
X0042354Y0184993D01*
X0041269Y0187247D02*
X0218822Y0187247D01*
X0219027Y0188845D02*
X0040499Y0188845D01*
X0040182Y0189505D02*
X0040182Y0189505D01*
X0039310Y0190444D02*
X0220101Y0190444D01*
X0238400Y0192042D02*
X0037827Y0192042D01*
X0036775Y0193176D02*
X0036775Y0193176D01*
X0035970Y0193641D02*
X0238400Y0193641D01*
X0238400Y0195239D02*
X0033201Y0195239D01*
X0027556Y0196794D02*
X0027556Y0196794D01*
X0022562Y0196420D02*
X0022562Y0196420D01*
X0019555Y0195239D02*
X0017321Y0195239D01*
X0017321Y0196838D02*
X0239898Y0196838D01*
X0239824Y0198436D02*
X0017321Y0198436D01*
X0017321Y0203232D02*
X0060094Y0203232D01*
X0060094Y0204830D02*
X0017321Y0204830D01*
X0017321Y0206429D02*
X0060094Y0206429D01*
X0060094Y0208027D02*
X0017349Y0208027D01*
X0017679Y0209626D02*
X0060094Y0209626D01*
X0060094Y0211224D02*
X0018398Y0211224D01*
X0019725Y0212823D02*
X0060094Y0212823D01*
X0060348Y0214421D02*
X0022933Y0214421D01*
X0074406Y0164868D02*
X0125794Y0164868D01*
X0126032Y0165105D02*
X0125094Y0164168D01*
X0125094Y0151032D01*
X0126032Y0150094D01*
X0139168Y0150094D01*
X0140105Y0151032D01*
X0140105Y0164168D01*
X0139168Y0165105D01*
X0126032Y0165105D01*
X0125094Y0163269D02*
X0075105Y0163269D01*
X0110000Y0153678D02*
X0125094Y0153678D01*
X0125094Y0155276D02*
X0110619Y0155276D01*
X0111378Y0156875D02*
X0125094Y0156875D01*
X0125094Y0158473D02*
X0111327Y0158473D01*
X0110000Y0152079D02*
X0125094Y0152079D01*
X0125645Y0150481D02*
X0110000Y0150481D01*
X0110000Y0148882D02*
X0238400Y0148882D01*
X0238400Y0149340D02*
X0238400Y0145860D01*
X0240860Y0143400D01*
X0244340Y0143400D01*
X0246800Y0145860D01*
X0246800Y0149340D01*
X0244340Y0151800D01*
X0240860Y0151800D01*
X0238400Y0149340D01*
X0239541Y0150481D02*
X0229555Y0150481D01*
X0230105Y0152079D02*
X0250200Y0152079D01*
X0250200Y0153678D02*
X0230105Y0153678D01*
X0230105Y0155276D02*
X0250200Y0155276D01*
X0250138Y0150481D02*
X0245659Y0150481D01*
X0246800Y0148882D02*
X0249042Y0148882D01*
X0248822Y0147284D02*
X0246800Y0147284D01*
X0246625Y0145685D02*
X0249304Y0145685D01*
X0251209Y0144087D02*
X0245027Y0144087D01*
X0240173Y0144087D02*
X0110000Y0144087D01*
X0110000Y0145685D02*
X0238575Y0145685D01*
X0238400Y0147284D02*
X0110000Y0147284D01*
X0139555Y0150481D02*
X0150645Y0150481D01*
X0151032Y0150094D02*
X0150094Y0151032D01*
X0150094Y0164168D01*
X0151032Y0165105D01*
X0164168Y0165105D01*
X0165105Y0164168D01*
X0165105Y0151032D01*
X0164168Y0150094D01*
X0151032Y0150094D01*
X0150094Y0152079D02*
X0140105Y0152079D01*
X0140105Y0153678D02*
X0150094Y0153678D01*
X0150094Y0155276D02*
X0140105Y0155276D01*
X0140105Y0156875D02*
X0150094Y0156875D01*
X0150094Y0158473D02*
X0140105Y0158473D01*
X0140105Y0160072D02*
X0150094Y0160072D01*
X0150094Y0161670D02*
X0140105Y0161670D01*
X0140105Y0163269D02*
X0150094Y0163269D01*
X0150794Y0164868D02*
X0139406Y0164868D01*
X0164406Y0164868D02*
X0215794Y0164868D01*
X0215094Y0163269D02*
X0165105Y0163269D01*
X0165105Y0161670D02*
X0215094Y0161670D01*
X0215094Y0160072D02*
X0165105Y0160072D01*
X0165105Y0158473D02*
X0215094Y0158473D01*
X0215094Y0156875D02*
X0165105Y0156875D01*
X0165105Y0155276D02*
X0215094Y0155276D01*
X0215094Y0153678D02*
X0165105Y0153678D01*
X0165105Y0152079D02*
X0215094Y0152079D01*
X0215645Y0150481D02*
X0164555Y0150481D01*
X0169636Y0126503D02*
X0195564Y0126503D01*
X0193965Y0124905D02*
X0171235Y0124905D01*
X0171800Y0123306D02*
X0193400Y0123306D01*
X0193400Y0121708D02*
X0171800Y0121708D01*
X0171049Y0120109D02*
X0194151Y0120109D01*
X0195750Y0118511D02*
X0169450Y0118511D01*
X0199440Y0100927D02*
X0209400Y0100927D01*
X0209400Y0099329D02*
X0200973Y0099329D01*
X0201378Y0097730D02*
X0209400Y0097730D01*
X0209400Y0096132D02*
X0201081Y0096132D01*
X0235800Y0108920D02*
X0239366Y0108920D01*
X0240116Y0110518D02*
X0235800Y0110518D01*
X0229400Y0113715D02*
X0218241Y0113715D01*
X0241826Y0124905D02*
X0319952Y0124905D01*
X0318965Y0126503D02*
X0244224Y0126503D01*
X0246621Y0128102D02*
X0318822Y0128102D01*
X0319381Y0129700D02*
X0300043Y0129700D01*
X0301150Y0131299D02*
X0320200Y0131299D01*
X0320200Y0132897D02*
X0301378Y0132897D01*
X0294296Y0134496D02*
X0250904Y0134496D01*
X0251378Y0132897D02*
X0293822Y0132897D01*
X0294050Y0131299D02*
X0251150Y0131299D01*
X0250043Y0129700D02*
X0295157Y0129700D01*
X0294400Y0136094D02*
X0249036Y0136094D01*
X0252600Y0147600D02*
X0252600Y0207600D01*
X0230305Y0212823D02*
X0374894Y0212823D01*
X0374894Y0211224D02*
X0365198Y0211224D01*
X0366797Y0209626D02*
X0374894Y0209626D01*
X0375145Y0214421D02*
X0230055Y0214421D01*
X0215254Y0214611D02*
X0215254Y0214611D01*
X0336407Y0164868D02*
X0375794Y0164868D01*
X0376032Y0165105D02*
X0375094Y0164168D01*
X0375094Y0151032D01*
X0376032Y0150094D01*
X0389168Y0150094D01*
X0390105Y0151032D01*
X0390105Y0164168D01*
X0389168Y0165105D01*
X0376032Y0165105D01*
X0375094Y0163269D02*
X0337000Y0163269D01*
X0336961Y0161670D02*
X0340731Y0161670D01*
X0339132Y0160072D02*
X0336212Y0160072D01*
X0334836Y0158473D02*
X0338400Y0158473D01*
X0338400Y0156875D02*
X0335000Y0156875D01*
X0335000Y0155276D02*
X0338984Y0155276D01*
X0340200Y0153678D02*
X0335000Y0153678D01*
X0335000Y0152079D02*
X0340200Y0152079D01*
X0340200Y0150481D02*
X0335000Y0150481D01*
X0335000Y0148882D02*
X0340200Y0148882D01*
X0340200Y0147284D02*
X0335000Y0147284D01*
X0335000Y0145685D02*
X0340200Y0145685D01*
X0340200Y0144087D02*
X0335000Y0144087D01*
X0335000Y0142488D02*
X0340200Y0142488D01*
X0340200Y0140890D02*
X0335000Y0140890D01*
X0335000Y0139291D02*
X0339211Y0139291D01*
X0338822Y0137693D02*
X0335000Y0137693D01*
X0335000Y0136094D02*
X0339134Y0136094D01*
X0340361Y0134496D02*
X0335000Y0134496D01*
X0332600Y0127600D02*
X0332600Y0157600D01*
X0326587Y0158473D02*
X0320121Y0158473D01*
X0342600Y0157600D02*
X0342600Y0137600D01*
X0345000Y0150481D02*
X0375645Y0150481D01*
X0375094Y0152079D02*
X0345000Y0152079D01*
X0345000Y0153678D02*
X0360300Y0153678D01*
X0360777Y0153200D02*
X0362600Y0153200D01*
X0364423Y0153200D01*
X0367000Y0155777D01*
X0367000Y0157600D01*
X0367000Y0159423D01*
X0364423Y0162000D01*
X0362600Y0162000D01*
X0362600Y0157600D01*
X0367000Y0157600D01*
X0362600Y0157600D01*
X0362600Y0157600D01*
X0362600Y0157600D01*
X0362600Y0153200D01*
X0362600Y0157600D01*
X0362600Y0157600D01*
X0362600Y0157600D01*
X0358200Y0157600D01*
X0358200Y0159423D01*
X0360777Y0162000D01*
X0362600Y0162000D01*
X0362600Y0157600D01*
X0358200Y0157600D01*
X0358200Y0155777D01*
X0360777Y0153200D01*
X0362600Y0153678D02*
X0362600Y0153678D01*
X0362600Y0155276D02*
X0362600Y0155276D01*
X0362600Y0156875D02*
X0362600Y0156875D01*
X0362600Y0158473D02*
X0362600Y0158473D01*
X0362600Y0160072D02*
X0362600Y0160072D01*
X0362600Y0161670D02*
X0362600Y0161670D01*
X0364752Y0161670D02*
X0375094Y0161670D01*
X0375094Y0160072D02*
X0366351Y0160072D01*
X0367000Y0158473D02*
X0375094Y0158473D01*
X0375094Y0156875D02*
X0367000Y0156875D01*
X0366499Y0155276D02*
X0375094Y0155276D01*
X0375094Y0153678D02*
X0364900Y0153678D01*
X0358701Y0155276D02*
X0346216Y0155276D01*
X0346800Y0156875D02*
X0358200Y0156875D01*
X0358200Y0158473D02*
X0346800Y0158473D01*
X0346068Y0160072D02*
X0358849Y0160072D01*
X0360448Y0161670D02*
X0344469Y0161670D01*
X0389406Y0164868D02*
X0440794Y0164868D01*
X0441032Y0165105D02*
X0440094Y0164168D01*
X0440094Y0151032D01*
X0441032Y0150094D01*
X0454168Y0150094D01*
X0455105Y0151032D01*
X0455105Y0164168D01*
X0454168Y0165105D01*
X0441032Y0165105D01*
X0440094Y0163269D02*
X0390105Y0163269D01*
X0390105Y0161670D02*
X0440094Y0161670D01*
X0440094Y0160072D02*
X0390105Y0160072D01*
X0390105Y0158473D02*
X0440094Y0158473D01*
X0440094Y0156875D02*
X0390105Y0156875D01*
X0390105Y0155276D02*
X0440094Y0155276D01*
X0440094Y0153678D02*
X0390105Y0153678D01*
X0390105Y0152079D02*
X0440094Y0152079D01*
X0440645Y0150481D02*
X0389555Y0150481D01*
X0454555Y0150481D02*
X0465645Y0150481D01*
X0465094Y0152079D02*
X0455105Y0152079D01*
X0455105Y0153678D02*
X0465094Y0153678D01*
X0465094Y0155276D02*
X0455105Y0155276D01*
X0455105Y0156875D02*
X0465094Y0156875D01*
X0465094Y0158473D02*
X0455105Y0158473D01*
X0455105Y0160072D02*
X0465094Y0160072D01*
X0465094Y0161670D02*
X0455105Y0161670D01*
X0455105Y0163269D02*
X0465094Y0163269D01*
X0465794Y0164868D02*
X0454406Y0164868D01*
X0507600Y0187600D02*
X0507600Y0037600D01*
X0512600Y0032600D01*
X0515155Y0035388D02*
X0637643Y0035388D01*
X0637643Y0036987D02*
X0511607Y0036987D01*
X0510009Y0038585D02*
X0585675Y0038585D01*
X0585860Y0038400D02*
X0583400Y0040860D01*
X0583400Y0044340D01*
X0585860Y0046800D01*
X0589340Y0046800D01*
X0591800Y0044340D01*
X0591800Y0040860D01*
X0589340Y0038400D01*
X0585860Y0038400D01*
X0584077Y0040184D02*
X0541497Y0040184D01*
X0540914Y0039600D02*
X0545600Y0044286D01*
X0545600Y0047400D01*
X0537800Y0047400D01*
X0537800Y0047800D01*
X0537400Y0047800D01*
X0537400Y0055600D01*
X0534286Y0055600D01*
X0529600Y0050914D01*
X0529600Y0047800D01*
X0537400Y0047800D01*
X0537400Y0047400D01*
X0529600Y0047400D01*
X0529600Y0044286D01*
X0534286Y0039600D01*
X0537400Y0039600D01*
X0537400Y0047400D01*
X0537800Y0047400D01*
X0537800Y0039600D01*
X0540914Y0039600D01*
X0543096Y0041782D02*
X0583400Y0041782D01*
X0583400Y0043381D02*
X0544694Y0043381D01*
X0545600Y0044979D02*
X0584039Y0044979D01*
X0585638Y0046578D02*
X0545600Y0046578D01*
X0545600Y0047800D02*
X0545600Y0050914D01*
X0540914Y0055600D01*
X0537800Y0055600D01*
X0537800Y0047800D01*
X0545600Y0047800D01*
X0545600Y0048176D02*
X0619266Y0048176D01*
X0620263Y0047381D02*
X0620263Y0047381D01*
X0622311Y0046578D02*
X0604845Y0046578D01*
X0604423Y0047000D02*
X0602600Y0047000D01*
X0602600Y0042600D01*
X0602600Y0042600D01*
X0607000Y0042600D01*
X0607000Y0044423D01*
X0604423Y0047000D01*
X0602600Y0047000D02*
X0600777Y0047000D01*
X0598200Y0044423D01*
X0598200Y0042600D01*
X0602600Y0042600D01*
X0602600Y0042600D01*
X0602600Y0042600D01*
X0602600Y0047000D01*
X0602600Y0046578D02*
X0602600Y0046578D01*
X0602600Y0044979D02*
X0602600Y0044979D01*
X0602600Y0043381D02*
X0602600Y0043381D01*
X0602600Y0042600D02*
X0598200Y0042600D01*
X0598200Y0040777D01*
X0600777Y0038200D01*
X0602600Y0038200D01*
X0604423Y0038200D01*
X0607000Y0040777D01*
X0607000Y0042600D01*
X0602600Y0042600D01*
X0602600Y0038200D01*
X0602600Y0042600D01*
X0602600Y0042600D01*
X0602600Y0041782D02*
X0602600Y0041782D01*
X0602600Y0040184D02*
X0602600Y0040184D01*
X0602600Y0038585D02*
X0602600Y0038585D01*
X0604808Y0038585D02*
X0637643Y0038585D01*
X0637643Y0040184D02*
X0606406Y0040184D01*
X0607000Y0041782D02*
X0637643Y0041782D01*
X0637643Y0043381D02*
X0607000Y0043381D01*
X0606443Y0044979D02*
X0637643Y0044979D01*
X0637643Y0046578D02*
X0635295Y0046578D01*
X0634801Y0046292D02*
X0634801Y0046292D01*
X0624925Y0045552D02*
X0624925Y0045552D01*
X0617262Y0049775D02*
X0545600Y0049775D01*
X0545140Y0051373D02*
X0615755Y0051373D01*
X0616348Y0050504D02*
X0616348Y0050504D01*
X0616348Y0050504D01*
X0614665Y0052972D02*
X0543542Y0052972D01*
X0541943Y0054570D02*
X0613575Y0054570D01*
X0613527Y0054641D02*
X0613527Y0054641D01*
X0613056Y0056169D02*
X0510000Y0056169D01*
X0510000Y0057767D02*
X0612563Y0057767D01*
X0612069Y0059366D02*
X0510000Y0059366D01*
X0510000Y0060964D02*
X0612051Y0060964D01*
X0612051Y0062563D02*
X0510000Y0062563D01*
X0510000Y0064161D02*
X0612051Y0064161D01*
X0612459Y0065760D02*
X0510000Y0065760D01*
X0510000Y0067358D02*
X0612952Y0067358D01*
X0635875Y0076949D02*
X0637643Y0076949D01*
X0615114Y0080146D02*
X0580086Y0080146D01*
X0581378Y0081745D02*
X0613822Y0081745D01*
X0613400Y0083343D02*
X0581800Y0083343D01*
X0581590Y0084942D02*
X0613610Y0084942D01*
X0614601Y0086540D02*
X0580599Y0086540D01*
X0580079Y0088139D02*
X0615121Y0088139D01*
X0613523Y0089737D02*
X0581677Y0089737D01*
X0581800Y0091336D02*
X0613400Y0091336D01*
X0613400Y0092934D02*
X0581800Y0092934D01*
X0580607Y0094533D02*
X0614593Y0094533D01*
X0615200Y0096132D02*
X0580000Y0096132D01*
X0580000Y0097730D02*
X0615200Y0097730D01*
X0615200Y0099329D02*
X0580000Y0099329D01*
X0580000Y0100927D02*
X0615200Y0100927D01*
X0617600Y0107600D02*
X0617600Y0091600D01*
X0594288Y0104124D02*
X0590629Y0104124D01*
X0592200Y0105723D02*
X0592800Y0105723D01*
X0592800Y0107321D02*
X0592200Y0107321D01*
X0592200Y0108920D02*
X0592800Y0108920D01*
X0593730Y0110518D02*
X0591187Y0110518D01*
X0590000Y0112117D02*
X0595328Y0112117D01*
X0594697Y0113715D02*
X0590221Y0113715D01*
X0591819Y0115314D02*
X0593098Y0115314D01*
X0592800Y0116912D02*
X0592200Y0116912D01*
X0592200Y0118511D02*
X0592800Y0118511D01*
X0593321Y0120109D02*
X0591596Y0120109D01*
X0590000Y0121708D02*
X0594919Y0121708D01*
X0587600Y0117600D02*
X0587600Y0128600D01*
X0582600Y0133600D01*
X0607600Y0133600D02*
X0607600Y0117600D01*
X0607600Y0107600D01*
X0617600Y0107600D02*
X0617600Y0117600D01*
X0587600Y0117600D02*
X0587600Y0107600D01*
X0577600Y0107600D02*
X0577600Y0091600D01*
X0574593Y0094533D02*
X0560000Y0094533D01*
X0560000Y0092934D02*
X0573400Y0092934D01*
X0573400Y0091336D02*
X0560000Y0091336D01*
X0560000Y0089737D02*
X0573523Y0089737D01*
X0575121Y0088139D02*
X0560455Y0088139D01*
X0562054Y0086540D02*
X0574601Y0086540D01*
X0573610Y0084942D02*
X0565601Y0084942D01*
X0566378Y0083343D02*
X0573400Y0083343D01*
X0573822Y0081745D02*
X0566335Y0081745D01*
X0565489Y0080146D02*
X0575114Y0080146D01*
X0562600Y0082600D02*
X0557600Y0087600D01*
X0557600Y0142600D01*
X0555200Y0126503D02*
X0510000Y0126503D01*
X0510000Y0124905D02*
X0555200Y0124905D01*
X0555200Y0123306D02*
X0510000Y0123306D01*
X0510000Y0121708D02*
X0555200Y0121708D01*
X0555200Y0120109D02*
X0540434Y0120109D01*
X0541312Y0118511D02*
X0555200Y0118511D01*
X0555200Y0116912D02*
X0541378Y0116912D01*
X0540800Y0115314D02*
X0555200Y0115314D01*
X0555200Y0113715D02*
X0540800Y0113715D01*
X0540800Y0112117D02*
X0555200Y0112117D01*
X0555200Y0110518D02*
X0540800Y0110518D01*
X0540800Y0108920D02*
X0555200Y0108920D01*
X0555200Y0107321D02*
X0540800Y0107321D01*
X0540800Y0105723D02*
X0555200Y0105723D01*
X0555200Y0104124D02*
X0540800Y0104124D01*
X0540800Y0102526D02*
X0555200Y0102526D01*
X0555200Y0100927D02*
X0540800Y0100927D01*
X0540800Y0099329D02*
X0555200Y0099329D01*
X0555200Y0097730D02*
X0540800Y0097730D01*
X0540800Y0096132D02*
X0555200Y0096132D01*
X0555200Y0094533D02*
X0540800Y0094533D01*
X0540800Y0092934D02*
X0555200Y0092934D01*
X0555200Y0091336D02*
X0540800Y0091336D01*
X0540800Y0089737D02*
X0555200Y0089737D01*
X0555200Y0088139D02*
X0540800Y0088139D01*
X0540800Y0086540D02*
X0555441Y0086540D01*
X0556864Y0084942D02*
X0540800Y0084942D01*
X0542887Y0083343D02*
X0558462Y0083343D01*
X0558865Y0081745D02*
X0544326Y0081745D01*
X0544988Y0080146D02*
X0559711Y0080146D01*
X0560000Y0096132D02*
X0575200Y0096132D01*
X0575200Y0097730D02*
X0560000Y0097730D01*
X0560000Y0099329D02*
X0575200Y0099329D01*
X0575200Y0100927D02*
X0560000Y0100927D01*
X0572400Y0105723D02*
X0573000Y0105723D01*
X0573000Y0107321D02*
X0572400Y0107321D01*
X0572400Y0108920D02*
X0573000Y0108920D01*
X0574013Y0110518D02*
X0571470Y0110518D01*
X0569872Y0112117D02*
X0575200Y0112117D01*
X0574979Y0113715D02*
X0570503Y0113715D01*
X0572102Y0115314D02*
X0573381Y0115314D01*
X0573000Y0116912D02*
X0572400Y0116912D01*
X0572400Y0118511D02*
X0573000Y0118511D01*
X0573604Y0120109D02*
X0571879Y0120109D01*
X0577600Y0117600D02*
X0577600Y0107600D01*
X0534400Y0107321D02*
X0510000Y0107321D01*
X0510000Y0105723D02*
X0534400Y0105723D01*
X0534400Y0104124D02*
X0510000Y0104124D01*
X0510000Y0102526D02*
X0534400Y0102526D01*
X0534400Y0100927D02*
X0510000Y0100927D01*
X0510000Y0099329D02*
X0534400Y0099329D01*
X0534400Y0097730D02*
X0510000Y0097730D01*
X0510000Y0096132D02*
X0534400Y0096132D01*
X0534400Y0108920D02*
X0510000Y0108920D01*
X0510000Y0110518D02*
X0534400Y0110518D01*
X0534400Y0112117D02*
X0510000Y0112117D01*
X0510000Y0113715D02*
X0534400Y0113715D01*
X0534400Y0115314D02*
X0510000Y0115314D01*
X0510000Y0116912D02*
X0533822Y0116912D01*
X0533888Y0118511D02*
X0510000Y0118511D01*
X0510000Y0120109D02*
X0534766Y0120109D01*
X0505200Y0107321D02*
X0460800Y0107321D01*
X0460800Y0105723D02*
X0505200Y0105723D01*
X0505200Y0104124D02*
X0460800Y0104124D01*
X0460800Y0102526D02*
X0505200Y0102526D01*
X0505200Y0100927D02*
X0460800Y0100927D01*
X0460800Y0099329D02*
X0505200Y0099329D01*
X0471621Y0092934D02*
X0460800Y0092934D01*
X0460800Y0091336D02*
X0470022Y0091336D01*
X0469600Y0089737D02*
X0460800Y0089737D01*
X0460800Y0088139D02*
X0469600Y0088139D01*
X0469600Y0086540D02*
X0460800Y0086540D01*
X0460800Y0084942D02*
X0469600Y0084942D01*
X0470543Y0083343D02*
X0460800Y0083343D01*
X0460800Y0081745D02*
X0472141Y0081745D01*
X0460800Y0076949D02*
X0505200Y0076949D01*
X0505200Y0075351D02*
X0460800Y0075351D01*
X0460800Y0073752D02*
X0505200Y0073752D01*
X0505200Y0072154D02*
X0460800Y0072154D01*
X0460800Y0070555D02*
X0505200Y0070555D01*
X0505200Y0068957D02*
X0460800Y0068957D01*
X0460800Y0067358D02*
X0505200Y0067358D01*
X0505200Y0065760D02*
X0460800Y0065760D01*
X0461043Y0064161D02*
X0505200Y0064161D01*
X0505200Y0062563D02*
X0461378Y0062563D01*
X0461012Y0060964D02*
X0505200Y0060964D01*
X0505200Y0059366D02*
X0459664Y0059366D01*
X0455536Y0059366D02*
X0360800Y0059366D01*
X0360800Y0060964D02*
X0454188Y0060964D01*
X0453822Y0062563D02*
X0360800Y0062563D01*
X0360800Y0064161D02*
X0454157Y0064161D01*
X0454400Y0065760D02*
X0360800Y0065760D01*
X0360800Y0067358D02*
X0454400Y0067358D01*
X0425400Y0050831D02*
X0420831Y0055400D01*
X0414369Y0055400D01*
X0409800Y0050831D01*
X0409800Y0044369D01*
X0414369Y0039800D01*
X0420831Y0039800D01*
X0425400Y0044369D01*
X0425400Y0050831D01*
X0424858Y0051373D02*
X0505200Y0051373D01*
X0505200Y0049775D02*
X0425400Y0049775D01*
X0425400Y0048176D02*
X0505200Y0048176D01*
X0505200Y0046578D02*
X0425400Y0046578D01*
X0425400Y0044979D02*
X0505200Y0044979D01*
X0505200Y0043381D02*
X0424412Y0043381D01*
X0422813Y0041782D02*
X0505200Y0041782D01*
X0505200Y0040184D02*
X0421214Y0040184D01*
X0413986Y0040184D02*
X0335800Y0040184D01*
X0335800Y0041782D02*
X0412387Y0041782D01*
X0410788Y0043381D02*
X0335800Y0043381D01*
X0335800Y0044979D02*
X0354878Y0044979D01*
X0353934Y0046578D02*
X0335800Y0046578D01*
X0335800Y0048176D02*
X0353822Y0048176D01*
X0354400Y0049775D02*
X0335800Y0049775D01*
X0335800Y0051373D02*
X0354400Y0051373D01*
X0354400Y0052972D02*
X0335800Y0052972D01*
X0335800Y0054570D02*
X0354400Y0054570D01*
X0354400Y0056169D02*
X0335800Y0056169D01*
X0335800Y0057767D02*
X0354400Y0057767D01*
X0354400Y0059366D02*
X0335800Y0059366D01*
X0336012Y0060964D02*
X0354400Y0060964D01*
X0354400Y0062563D02*
X0336378Y0062563D01*
X0336043Y0064161D02*
X0354400Y0064161D01*
X0360800Y0057767D02*
X0505200Y0057767D01*
X0505200Y0056169D02*
X0360800Y0056169D01*
X0360800Y0054570D02*
X0413539Y0054570D01*
X0411941Y0052972D02*
X0360800Y0052972D01*
X0360800Y0051373D02*
X0410342Y0051373D01*
X0409800Y0049775D02*
X0360800Y0049775D01*
X0361378Y0048176D02*
X0409800Y0048176D01*
X0409800Y0046578D02*
X0361266Y0046578D01*
X0360322Y0044979D02*
X0409800Y0044979D01*
X0421661Y0054570D02*
X0505200Y0054570D01*
X0505200Y0052972D02*
X0423259Y0052972D01*
X0505200Y0038585D02*
X0336281Y0038585D01*
X0336378Y0036987D02*
X0505256Y0036987D01*
X0506418Y0035388D02*
X0335731Y0035388D01*
X0329469Y0035388D02*
X0235800Y0035388D01*
X0235800Y0034743D02*
X0235800Y0050457D01*
X0235803Y0050460D01*
X0236378Y0051849D01*
X0236378Y0053351D01*
X0235803Y0054740D01*
X0234740Y0055803D01*
X0233351Y0056378D01*
X0231849Y0056378D01*
X0230460Y0055803D01*
X0229397Y0054740D01*
X0228822Y0053351D01*
X0228822Y0051849D01*
X0229397Y0050460D01*
X0229400Y0050457D01*
X0229400Y0034743D01*
X0229397Y0034740D01*
X0228822Y0033351D01*
X0228822Y0031849D01*
X0229397Y0030460D01*
X0230460Y0029397D01*
X0231849Y0028822D01*
X0233351Y0028822D01*
X0234740Y0029397D01*
X0235803Y0030460D01*
X0236378Y0031849D01*
X0236378Y0033351D01*
X0235803Y0034740D01*
X0235800Y0034743D01*
X0236196Y0033790D02*
X0508016Y0033790D01*
X0508822Y0032191D02*
X0236378Y0032191D01*
X0235858Y0030593D02*
X0509342Y0030593D01*
X0511433Y0028994D02*
X0233767Y0028994D01*
X0231433Y0028994D02*
X0133767Y0028994D01*
X0131433Y0028994D02*
X0019880Y0028994D01*
X0018488Y0030593D02*
X0129342Y0030593D01*
X0128822Y0032191D02*
X0017720Y0032191D01*
X0017359Y0033790D02*
X0030188Y0033790D01*
X0030777Y0033200D02*
X0028200Y0035777D01*
X0028200Y0037600D01*
X0032600Y0037600D01*
X0037000Y0037600D01*
X0037000Y0039423D01*
X0034423Y0042000D01*
X0032600Y0042000D01*
X0032600Y0037600D01*
X0032600Y0037600D01*
X0032600Y0037600D01*
X0037000Y0037600D01*
X0037000Y0035777D01*
X0034423Y0033200D01*
X0032600Y0033200D01*
X0032600Y0037600D01*
X0032600Y0037600D01*
X0032600Y0037600D01*
X0032600Y0042000D01*
X0030777Y0042000D01*
X0028200Y0039423D01*
X0028200Y0037600D01*
X0032600Y0037600D01*
X0032600Y0033200D01*
X0030777Y0033200D01*
X0032600Y0033790D02*
X0032600Y0033790D01*
X0032600Y0035388D02*
X0032600Y0035388D01*
X0032600Y0036987D02*
X0032600Y0036987D01*
X0032600Y0038585D02*
X0032600Y0038585D01*
X0032600Y0040184D02*
X0032600Y0040184D01*
X0032600Y0041782D02*
X0032600Y0041782D01*
X0034640Y0041782D02*
X0059400Y0041782D01*
X0059400Y0043381D02*
X0017321Y0043381D01*
X0017321Y0044979D02*
X0059400Y0044979D01*
X0059400Y0046578D02*
X0032933Y0046578D01*
X0035702Y0048176D02*
X0059400Y0048176D01*
X0059400Y0049775D02*
X0037684Y0049775D01*
X0036775Y0048796D02*
X0036775Y0048796D01*
X0039167Y0051373D02*
X0059400Y0051373D01*
X0059400Y0052972D02*
X0040425Y0052972D01*
X0040182Y0052467D02*
X0040182Y0052467D01*
X0041194Y0054570D02*
X0059400Y0054570D01*
X0059092Y0056169D02*
X0041964Y0056169D01*
X0042354Y0056979D02*
X0042354Y0056979D01*
X0042473Y0057767D02*
X0058400Y0057767D01*
X0058400Y0059366D02*
X0042714Y0059366D01*
X0042955Y0060964D02*
X0059025Y0060964D01*
X0060623Y0062563D02*
X0043006Y0062563D01*
X0042765Y0064161D02*
X0058933Y0064161D01*
X0058278Y0065760D02*
X0042524Y0065760D01*
X0042354Y0066883D02*
X0042354Y0066883D01*
X0042125Y0067358D02*
X0058265Y0067358D01*
X0058874Y0068957D02*
X0041356Y0068957D01*
X0040586Y0070555D02*
X0060671Y0070555D01*
X0062600Y0070555D02*
X0062600Y0070555D01*
X0062600Y0068957D02*
X0062600Y0068957D01*
X0062600Y0067358D02*
X0062600Y0067358D01*
X0019949Y0046578D02*
X0017321Y0046578D01*
X0017901Y0047381D02*
X0017901Y0047381D01*
X0017321Y0041782D02*
X0030560Y0041782D01*
X0028961Y0040184D02*
X0017321Y0040184D01*
X0017321Y0038585D02*
X0028200Y0038585D01*
X0028200Y0036987D02*
X0017321Y0036987D01*
X0017321Y0035388D02*
X0028589Y0035388D01*
X0035012Y0033790D02*
X0060471Y0033790D01*
X0058872Y0035388D02*
X0036611Y0035388D01*
X0037000Y0036987D02*
X0058400Y0036987D01*
X0058400Y0038585D02*
X0037000Y0038585D01*
X0036239Y0040184D02*
X0059244Y0040184D01*
X0065956Y0040184D02*
X0073366Y0040184D01*
X0073446Y0040376D02*
X0072700Y0038575D01*
X0072700Y0036625D01*
X0073446Y0034824D01*
X0074824Y0033446D01*
X0076625Y0032700D01*
X0078575Y0032700D01*
X0080376Y0033446D01*
X0081754Y0034824D01*
X0082500Y0036625D01*
X0082500Y0038575D01*
X0081754Y0040376D01*
X0080376Y0041754D01*
X0078575Y0042500D01*
X0076625Y0042500D01*
X0074824Y0041754D01*
X0073446Y0040376D01*
X0072704Y0038585D02*
X0066800Y0038585D01*
X0066800Y0036987D02*
X0072700Y0036987D01*
X0073212Y0035388D02*
X0066328Y0035388D01*
X0064729Y0033790D02*
X0074481Y0033790D01*
X0080719Y0033790D02*
X0114198Y0033790D01*
X0114278Y0033710D02*
X0114927Y0033238D01*
X0115642Y0032874D01*
X0116406Y0032626D01*
X0117199Y0032500D01*
X0117300Y0032500D01*
X0117300Y0037300D01*
X0117900Y0037300D01*
X0117900Y0037900D01*
X0122700Y0037900D01*
X0122700Y0038001D01*
X0122574Y0038794D01*
X0122326Y0039558D01*
X0121962Y0040273D01*
X0121490Y0040922D01*
X0120922Y0041490D01*
X0120273Y0041962D01*
X0119558Y0042326D01*
X0118794Y0042574D01*
X0118001Y0042700D01*
X0117900Y0042700D01*
X0117900Y0037900D01*
X0117300Y0037900D01*
X0117300Y0042700D01*
X0117199Y0042700D01*
X0116406Y0042574D01*
X0115642Y0042326D01*
X0114927Y0041962D01*
X0114278Y0041490D01*
X0113710Y0040922D01*
X0113238Y0040273D01*
X0112874Y0039558D01*
X0112626Y0038794D01*
X0112500Y0038001D01*
X0112500Y0037900D01*
X0117300Y0037900D01*
X0117300Y0037300D01*
X0112500Y0037300D01*
X0112500Y0037199D01*
X0112626Y0036406D01*
X0112874Y0035642D01*
X0113238Y0034927D01*
X0113710Y0034278D01*
X0114278Y0033710D01*
X0113003Y0035388D02*
X0081988Y0035388D01*
X0082500Y0036987D02*
X0112534Y0036987D01*
X0112592Y0038585D02*
X0082496Y0038585D01*
X0081834Y0040184D02*
X0113193Y0040184D01*
X0114680Y0041782D02*
X0080308Y0041782D01*
X0074892Y0041782D02*
X0065800Y0041782D01*
X0027556Y0045178D02*
X0027556Y0045178D01*
X0023800Y0027396D02*
X0631164Y0027396D01*
X0635084Y0028994D02*
X0513767Y0028994D01*
X0515858Y0030593D02*
X0636476Y0030593D01*
X0637243Y0032191D02*
X0516378Y0032191D01*
X0516196Y0033790D02*
X0637604Y0033790D01*
X0600392Y0038585D02*
X0589525Y0038585D01*
X0591123Y0040184D02*
X0598794Y0040184D01*
X0598200Y0041782D02*
X0591800Y0041782D01*
X0591800Y0043381D02*
X0598200Y0043381D01*
X0598757Y0044979D02*
X0591161Y0044979D01*
X0589562Y0046578D02*
X0600355Y0046578D01*
X0537800Y0046578D02*
X0537400Y0046578D01*
X0537400Y0048176D02*
X0537800Y0048176D01*
X0537800Y0049775D02*
X0537400Y0049775D01*
X0537400Y0051373D02*
X0537800Y0051373D01*
X0537800Y0052972D02*
X0537400Y0052972D01*
X0537400Y0054570D02*
X0537800Y0054570D01*
X0533257Y0054570D02*
X0510000Y0054570D01*
X0510000Y0052972D02*
X0531658Y0052972D01*
X0530060Y0051373D02*
X0510000Y0051373D01*
X0510000Y0049775D02*
X0529600Y0049775D01*
X0529600Y0048176D02*
X0510000Y0048176D01*
X0510000Y0046578D02*
X0529600Y0046578D01*
X0529600Y0044979D02*
X0510000Y0044979D01*
X0510000Y0043381D02*
X0530506Y0043381D01*
X0532104Y0041782D02*
X0510000Y0041782D01*
X0510000Y0040184D02*
X0533703Y0040184D01*
X0537400Y0040184D02*
X0537800Y0040184D01*
X0537800Y0041782D02*
X0537400Y0041782D01*
X0537400Y0043381D02*
X0537800Y0043381D01*
X0537800Y0044979D02*
X0537400Y0044979D01*
X0329400Y0044979D02*
X0235800Y0044979D01*
X0235800Y0043381D02*
X0329400Y0043381D01*
X0329400Y0041782D02*
X0235800Y0041782D01*
X0235800Y0040184D02*
X0329400Y0040184D01*
X0328919Y0038585D02*
X0235800Y0038585D01*
X0235800Y0036987D02*
X0328822Y0036987D01*
X0329400Y0046578D02*
X0235800Y0046578D01*
X0235800Y0048176D02*
X0242176Y0048176D01*
X0240196Y0049775D02*
X0235800Y0049775D01*
X0236181Y0051373D02*
X0239301Y0051373D01*
X0237703Y0052972D02*
X0236378Y0052972D01*
X0236104Y0054570D02*
X0235873Y0054570D01*
X0234506Y0056169D02*
X0233857Y0056169D01*
X0232907Y0057767D02*
X0225800Y0057767D01*
X0225800Y0056169D02*
X0231343Y0056169D01*
X0229327Y0054570D02*
X0225800Y0054570D01*
X0225800Y0052972D02*
X0228822Y0052972D01*
X0229019Y0051373D02*
X0225800Y0051373D01*
X0225800Y0049775D02*
X0229400Y0049775D01*
X0229400Y0048176D02*
X0225800Y0048176D01*
X0225800Y0046578D02*
X0229400Y0046578D01*
X0229400Y0044979D02*
X0225800Y0044979D01*
X0225800Y0043381D02*
X0229400Y0043381D01*
X0229400Y0041782D02*
X0225800Y0041782D01*
X0225800Y0040184D02*
X0229400Y0040184D01*
X0229400Y0038585D02*
X0226281Y0038585D01*
X0226378Y0036987D02*
X0229400Y0036987D01*
X0229400Y0035388D02*
X0225731Y0035388D01*
X0229004Y0033790D02*
X0136196Y0033790D01*
X0136378Y0032191D02*
X0228822Y0032191D01*
X0229342Y0030593D02*
X0135858Y0030593D01*
X0135800Y0035388D02*
X0219469Y0035388D01*
X0218822Y0036987D02*
X0135800Y0036987D01*
X0135800Y0038585D02*
X0218919Y0038585D01*
X0219400Y0040184D02*
X0135800Y0040184D01*
X0135800Y0041782D02*
X0219400Y0041782D01*
X0219400Y0043381D02*
X0135800Y0043381D01*
X0135800Y0044979D02*
X0219400Y0044979D01*
X0225800Y0059366D02*
X0231309Y0059366D01*
X0238761Y0060964D02*
X0239674Y0060964D01*
X0239400Y0062563D02*
X0237163Y0062563D01*
X0235800Y0064161D02*
X0239643Y0064161D01*
X0240530Y0065760D02*
X0235800Y0065760D01*
X0235800Y0067358D02*
X0242983Y0067358D01*
X0243106Y0067626D02*
X0243899Y0067500D01*
X0247300Y0067500D01*
X0247300Y0072300D01*
X0239200Y0072300D01*
X0239200Y0072199D01*
X0239326Y0071406D01*
X0239574Y0070642D01*
X0239938Y0069927D01*
X0240410Y0069278D01*
X0240978Y0068710D01*
X0241627Y0068238D01*
X0242342Y0067874D01*
X0243106Y0067626D01*
X0240731Y0068957D02*
X0235800Y0068957D01*
X0235800Y0070555D02*
X0239618Y0070555D01*
X0239207Y0072154D02*
X0235800Y0072154D01*
X0235800Y0073752D02*
X0239319Y0073752D01*
X0239995Y0075351D02*
X0235800Y0075351D01*
X0235800Y0076949D02*
X0241610Y0076949D01*
X0247300Y0076949D02*
X0247900Y0076949D01*
X0247900Y0075351D02*
X0247300Y0075351D01*
X0247300Y0073752D02*
X0247900Y0073752D01*
X0247900Y0072154D02*
X0247300Y0072154D01*
X0247300Y0070555D02*
X0247900Y0070555D01*
X0247900Y0068957D02*
X0247300Y0068957D01*
X0240605Y0059366D02*
X0240360Y0059366D01*
X0241958Y0057767D02*
X0243163Y0057767D01*
X0253024Y0048176D02*
X0329400Y0048176D01*
X0191544Y0073752D02*
X0184321Y0073752D01*
X0183595Y0075351D02*
X0189016Y0075351D01*
X0187934Y0076949D02*
X0181929Y0076949D01*
X0253269Y0112117D02*
X0296160Y0112117D01*
X0295683Y0110518D02*
X0255084Y0110518D01*
X0253945Y0113715D02*
X0297082Y0113715D01*
X0298333Y0115314D02*
X0255257Y0115314D01*
X0255800Y0116912D02*
X0300129Y0116912D01*
X0303659Y0118511D02*
X0255800Y0118511D01*
X0129400Y0041782D02*
X0120520Y0041782D01*
X0122007Y0040184D02*
X0129400Y0040184D01*
X0129400Y0038585D02*
X0122608Y0038585D01*
X0122700Y0037300D02*
X0117900Y0037300D01*
X0117900Y0032500D01*
X0118001Y0032500D01*
X0118794Y0032626D01*
X0119558Y0032874D01*
X0120273Y0033238D01*
X0120922Y0033710D01*
X0121490Y0034278D01*
X0121962Y0034927D01*
X0122326Y0035642D01*
X0122574Y0036406D01*
X0122700Y0037199D01*
X0122700Y0037300D01*
X0122666Y0036987D02*
X0129400Y0036987D01*
X0129400Y0035388D02*
X0122197Y0035388D01*
X0121002Y0033790D02*
X0129004Y0033790D01*
X0117900Y0033790D02*
X0117300Y0033790D01*
X0117300Y0035388D02*
X0117900Y0035388D01*
X0117900Y0036987D02*
X0117300Y0036987D01*
X0117300Y0038585D02*
X0117900Y0038585D01*
X0117900Y0040184D02*
X0117300Y0040184D01*
X0117300Y0041782D02*
X0117900Y0041782D01*
X0041422Y0097730D02*
X0041022Y0097730D01*
X0041022Y0099329D02*
X0041422Y0099329D01*
X0041422Y0100927D02*
X0041022Y0100927D01*
X0041022Y0102526D02*
X0041422Y0102526D01*
X0041422Y0104124D02*
X0041022Y0104124D01*
X0041022Y0105723D02*
X0041422Y0105723D01*
X0375254Y0214611D02*
X0375254Y0214611D01*
X0390055Y0214421D02*
X0440145Y0214421D01*
X0440254Y0214611D02*
X0440254Y0214611D01*
X0439894Y0212823D02*
X0390305Y0212823D01*
X0390305Y0211224D02*
X0439894Y0211224D01*
X0439894Y0209626D02*
X0390305Y0209626D01*
X0455055Y0214421D02*
X0465145Y0214421D01*
X0465254Y0214611D02*
X0465254Y0214611D01*
X0464894Y0212823D02*
X0455305Y0212823D01*
X0455305Y0211224D02*
X0464894Y0211224D01*
X0464894Y0209626D02*
X0455305Y0209626D01*
X0480305Y0209626D02*
X0529894Y0209626D01*
X0529894Y0211224D02*
X0480305Y0211224D01*
X0480305Y0212823D02*
X0529894Y0212823D01*
X0530145Y0214421D02*
X0480055Y0214421D01*
X0530254Y0214611D02*
X0530254Y0214611D01*
X0545055Y0214421D02*
X0632031Y0214421D01*
X0635239Y0212823D02*
X0545305Y0212823D01*
X0545305Y0211224D02*
X0636565Y0211224D01*
D23*
X0537600Y0117600D02*
X0537600Y0077600D01*
X0457600Y0062600D02*
X0457600Y0117600D01*
X0357600Y0087600D02*
X0357600Y0047600D01*
X0332600Y0037600D02*
X0332600Y0062600D01*
X0247600Y0052600D02*
X0242600Y0052600D01*
X0232600Y0062600D01*
X0232600Y0122600D01*
X0247600Y0132600D01*
X0237600Y0137600D02*
X0212600Y0112600D01*
X0212600Y0087600D01*
X0197600Y0079411D02*
X0197600Y0097600D01*
X0222600Y0107600D02*
X0222600Y0037600D01*
X0232600Y0032600D02*
X0232600Y0052600D01*
X0197600Y0055789D02*
X0194411Y0052600D01*
X0132600Y0052600D02*
X0132600Y0032600D01*
X0097600Y0047600D02*
X0092600Y0052600D01*
X0092600Y0067600D01*
X0092600Y0077600D02*
X0092600Y0087600D01*
X0092600Y0107600D01*
X0077600Y0107600D02*
X0077600Y0092600D01*
X0041222Y0092009D02*
X0041222Y0082009D01*
X0062600Y0058600D02*
X0062600Y0037600D01*
X0132600Y0052600D02*
X0132600Y0067600D01*
X0077600Y0107600D02*
X0077600Y0121600D01*
X0297600Y0132600D02*
X0297600Y0162600D01*
X0307600Y0137600D02*
X0307600Y0192600D01*
D24*
X0307600Y0192600D03*
X0297600Y0207600D03*
X0317600Y0207600D03*
X0252600Y0207600D03*
X0222600Y0187600D03*
X0252600Y0147600D03*
X0237600Y0137600D03*
X0247600Y0132600D03*
X0287600Y0147600D03*
X0307600Y0137600D03*
X0297600Y0132600D03*
X0322600Y0127600D03*
X0332600Y0127600D03*
X0342600Y0137600D03*
X0457600Y0117600D03*
X0537600Y0117600D03*
X0557600Y0142600D03*
X0552600Y0157600D03*
X0507600Y0187600D03*
X0447600Y0187600D03*
X0222600Y0107600D03*
X0197600Y0097600D03*
X0212600Y0087600D03*
X0194411Y0052600D03*
X0232600Y0052600D03*
X0222600Y0037600D03*
X0232600Y0032600D03*
X0132600Y0032600D03*
X0097600Y0047600D03*
X0092600Y0077600D03*
X0077600Y0092600D03*
X0107600Y0127600D03*
X0107600Y0157600D03*
X0332600Y0062600D03*
X0357600Y0047600D03*
X0332600Y0037600D03*
X0457600Y0062600D03*
X0512600Y0032600D03*
X0562600Y0082600D03*
M02*
