%
M48
M72
T01C0.02756
T02C0.03150
T03C0.03200
T04C0.03937
T05C0.04000
T06C0.04400
T07C0.07874
T08C0.11811
T09C0.13000
%
T01
X97600Y47600
X132600Y32600
X194411Y52600
X232600Y52600
X222600Y37600
X232600Y32600
X332600Y37600
X357600Y47600
X332600Y62600
X222600Y107600
X197600Y97600
X212600Y87600
X107600Y127600
X107600Y157600
X222600Y187600
X252600Y207600
X297600Y207600
X317600Y207600
X307600Y192600
X287600Y147600
X307600Y137600
X297600Y132600
X322600Y127600
X332600Y127600
X342600Y137600
X252600Y147600
X237600Y137600
X247600Y132600
X92600Y77600
X77600Y92600
X447600Y187600
X507600Y187600
X552600Y157600
X557600Y142600
X537600Y117600
X457600Y117600
X562600Y82600
X457600Y62600
X512600Y32600
T02
X197600Y55789
X178702Y67600
T03
X32600Y37600
X62600Y37600
X62600Y58600
X62600Y66600
X77600Y77600
X77600Y107600
X76600Y122600
X68600Y122600
X143600Y122600
X151600Y122600
X167600Y122600
X197600Y122600
X242600Y147600
X277600Y147600
X297600Y162600
X277600Y167600
X262600Y167600
X277600Y177600
X297600Y182600
X297600Y192600
X327600Y192600
X327600Y182600
X347600Y177600
X362600Y177600
X327600Y172600
X327600Y162600
X342600Y157600
X362600Y157600
X297600Y172600
X242600Y177600
X242600Y193600
X242600Y201600
X262600Y197600
X277600Y207600
X347600Y207600
X362600Y207600
X567600Y197600
X597600Y197600
X597600Y177600
X567600Y177600
X582600Y141600
X582600Y133600
X607600Y133600
X607600Y141600
X617600Y91600
X617600Y83600
X602600Y72600
X587600Y72600
X577600Y83600
X577600Y91600
X587600Y42600
X602600Y42600
T04
X197600Y79411
T05
X41222Y82009
X41222Y92009
X41222Y102009
X357600Y87600
X417600Y77600
X477600Y87600
X537600Y77600
X567600Y107600
X577600Y107600
X587600Y107600
X597600Y107600
X607600Y107600
X617600Y107600
X617600Y117600
X607600Y117600
X597600Y117600
X587600Y117600
X577600Y117600
X567600Y117600
X477600Y117600
X357600Y117600
X417600Y47600
X537600Y47600
T06
X247600Y52600
X247600Y62600
X247600Y72600
X247600Y97600
X247600Y107600
X247600Y117600
X182600Y97600
X142600Y97600
X132600Y87600
X92600Y87600
X92600Y67600
X132600Y67600
X132600Y52600
X117600Y37600
X77600Y37600
X172600Y52600
X132600Y107600
X92600Y107600
T07
X67600Y157600
X132600Y157600
X157600Y157600
X222600Y157600
X222600Y207600
X157600Y207600
X132600Y207600
X67600Y207600
X382600Y207600
X447600Y207600
X472600Y207600
X537600Y207600
X537600Y157600
X472600Y157600
X447600Y157600
X382600Y157600
T08
X628663Y180041
X628663Y61931
X26301Y61931
X26301Y180041
T09
X306600Y107600
X306600Y62600
M30
